<?xml version="1.0" encoding="utf-8"?>
<!-- Generator: Adobe Illustrator 23.1.1, SVG Export Plug-In . SVG Version: 6.00 Build 0)  -->
<svg version="1.1" id="katman_1" xmlns="http://www.w3.org/2000/svg" xmlns:xlink="http://www.w3.org/1999/xlink" x="0px" y="0px"
	 viewBox="0 0 80 80" style="enable-background:new 0 0 80 80;" xml:space="preserve">
<style type="text/css">
	.st0{fill:#B0C1D4;}
	.st1{fill:#66798F;}
	.st2{fill:#DCF2FE;}
	.st3{fill:#FFEEA3;}
	.st4{display:none;fill:#5E9C76;}
	.st5{fill:#C2E8FF;}
	.st6{fill:#7496C4;}
	.st7{fill:#4E7AB5;}
</style>
<path class="st0" d="M32.5,55.5h15v13h-15V55.5z"/>
<path class="st1" d="M47,56v12H33V56H47 M48,55H32v14h16V55L48,55z"/>
<path class="st2" d="M2.5,7.5h75v53h-75V7.5z"/>
<path class="st1" d="M77,8v52H3V8H77 M78,7H2v54h76V7L78,7z"/>
<path class="st1" d="M2,51h76v10H2V51z M62,73H18l0,0c0-3.3,2.7-6,6-6h32C59.3,67,62,69.7,62,73L62,73z"/>
<path class="st3" d="M68,55h6v2h-6V55z"/>
<path class="st4" d="M36,41.8L24.1,29.9l2.8-2.8l9.1,9.1l19.1-19.1l2.8,2.8L36,41.8z"/>
<path class="st5" d="M26.5,36.9c-3.3,0-6-2.7-6-6s2.7-6,6-6c0.5,0,1,0.1,1.5,0.2l0.5,0.1l0.1-0.5c0.4-1.8,1.8-3.2,3.5-3.7l0.3-0.1
	l0-0.3c0.4-3.8,3.6-6.8,7.5-6.8c2.9,0,5.4,1.6,6.7,4.2l0.2,0.4l0.4-0.2c0.7-0.3,1.4-0.4,2.2-0.4c3.3,0,6,2.7,6,6
	c0,0.3,0,0.6-0.1,0.9l-0.1,0.4l0.4,0.1c2.3,0.9,3.8,3.1,3.8,5.6c0,3.3-2.7,6-6,6H26.5z"/>
<path class="st6" d="M40,14.4c2.7,0,5.1,1.5,6.3,3.9l0.4,0.8l0.9-0.3c0.6-0.2,1.3-0.4,2-0.4c3,0,5.5,2.5,5.5,5.5
	c0,0.2,0,0.5-0.1,0.8l-0.1,0.8l0.7,0.3c2.1,0.8,3.5,2.8,3.5,5.1c0,3-2.5,5.5-5.5,5.5h-27c-3,0-5.5-2.5-5.5-5.5s2.5-5.5,5.5-5.5
	c0.5,0,0.9,0.1,1.4,0.2l1,0.3l0.2-1c0.4-1.6,1.6-2.9,3.2-3.3l0.7-0.2l0.1-0.7C33.4,17.2,36.4,14.4,40,14.4 M40,13.4
	c-4.1,0-7.6,3.2-8,7.2c-1.9,0.5-3.4,2.1-3.9,4c-0.5-0.1-1.1-0.2-1.7-0.2c-3.6,0-6.5,2.9-6.5,6.5s2.9,6.5,6.5,6.5c3.4,0,23.4,0,27,0
	s6.5-2.9,6.5-6.5c0-2.7-1.7-5.1-4.1-6c0-0.3,0.1-0.6,0.1-1c0-3.6-2.9-6.5-6.5-6.5c-0.8,0-1.6,0.2-2.3,0.4
	C45.8,15.3,43.1,13.4,40,13.4L40,13.4z"/>
<path class="st5" d="M37,35.4h6v2h-6V35.4z"/>
<g>
	<path class="st7" d="M41,41.4v-14h-2v14h-5l6,6l6-6H41z"/>
</g>
</svg>
