<svg xmlns="http://www.w3.org/2000/svg" viewBox="0 0 16 16"><path fill="#8b75a1" d="M15,5.5h-1v-2C14,2.1,12.9,1,11.5,1h-7C3.1,1,2,2.1,2,3.5v2H1v-2C1,1.6,2.6,0,4.5,0h7 C13.4,0,15,1.6,15,3.5V5.5z"></path><path fill="#dcd5f2" d="M4,15.5c-1.4,0-2.5-1.1-2.5-2.5V6.5h13V13c0,1.4-1.1,2.5-2.5,2.5H4z"></path><path fill="#8b75a1" d="M14,7v6c0,1.1-0.9,2-2,2H4c-1.1,0-2-0.9-2-2V7H14 M15,6H1v7c0,1.7,1.3,3,3,3h8c1.7,0,3-1.3,3-3V6 L15,6z"></path><path fill="#dcd5f2" d="M0.5 4.5H15.5V6.5H0.5z"></path><path fill="#8b75a1" d="M15,5v1H1V5H15 M16,4H0v3h16V4L16,4z"></path><g><path fill="#f78f8f" d="M10.5,12.5c-0.6,0-1-0.4-1-1V9c0-0.8-0.7-1.5-1.5-1.5S6.5,8.2,6.5,9v0.5c0,0.6-0.4,1-1,1s-1-0.4-1-1 V6c0-0.6-0.2-1.1-0.5-1.5h8c-0.3,0.4-0.5,0.9-0.5,1.5v5.5C11.5,12.1,11.1,12.5,10.5,12.5z"></path><path fill="#c74343" d="M11.2,5C11.1,5.3,11,5.7,11,6v5.5c0,0.3-0.2,0.5-0.5,0.5S10,11.8,10,11.5V9c0-1.1-0.9-2-2-2 S6,7.9,6,9v0.5C6,9.8,5.8,10,5.5,10S5,9.8,5,9.5V6c0-0.3-0.1-0.7-0.2-1H11.2 M14,4H2c1.1,0,2,0.9,2,2v3.5C4,10.3,4.7,11,5.5,11 S7,10.3,7,9.5V9c0-0.6,0.4-1,1-1s1,0.4,1,1v2.5c0,0.8,0.7,1.5,1.5,1.5s1.5-0.7,1.5-1.5V6C12,4.9,12.9,4,14,4L14,4z"></path></g></svg>