<?xml version="1.0" encoding="utf-8"?>
<!-- Generator: Adobe Illustrator 22.1.0, SVG Export Plug-In . SVG Version: 6.00 Build 0)  -->
<svg version="1.2" baseProfile="tiny" id="katman_1"
	 xmlns="http://www.w3.org/2000/svg" xmlns:xlink="http://www.w3.org/1999/xlink" x="0px" y="0px" viewBox="0 0 16 16"
	 xml:space="preserve">
<path fill="#FFFFFF" d="M0.5,2.5h13v13h-13V2.5z"/>
<path fill="#788B9C" d="M13,3v12H1V3H13 M14,2H0v14h14V2L14,2z"/>
<path fill="#C8D1DB" d="M0.5,2.5h13v3h-13V2.5z"/>
<path fill="#788B9C" d="M13,3v2H1V3H13 M14,2H0v4h14V2L14,2z"/>
<path fill="#FFFFFF" d="M2.5,0.5h13v13h-13V0.5z"/>
<path fill="#788B9C" d="M15,1v12H3V1H15 M16,0H2v14h14V0L16,0z"/>
<path fill="#C8D1DB" d="M2.5,0.5h13v3h-13V0.5z"/>
<path fill="#788B9C" d="M15,1v2H3V1H15 M16,0H2v4h14V0L16,0z"/>
<path fill="#788B9C" d="M9,5h5v1H9V5z M9,7h5v1H9V7z M9,9h5v1H9V9z M9,11h5v1H9V11z"/>
<g>
	<path fill="#DCD5F2" d="M4.5,5.5h3v6h-3V5.5z"/>
	<path fill="#8B75A1" d="M7,6v5H5V6H7 M8,5H4v7h4V5L8,5z"/>
</g>
</svg>
