<svg xmlns="http://www.w3.org/2000/svg" viewBox="0 0 16 16"><path fill="#b0c1d4" d="M6.5 11.5H9.5V14.5H6.5z"></path><path fill="#66798f" d="M9,12v2H7v-2H9 M10,11H6v4h4V11L10,11z"></path><path fill="#d9f2ff" d="M0.5 1.5H15.5V12.5H0.5z"></path><path fill="#66798f" d="M15,2v10H1V2H15 M16,1H0v12h16V1L16,1z"></path><path fill="#66798f" d="M0 11H16V13H0zM12 15H4v-.008C4 14.444 4.444 14 4.992 14h6.015C11.556 14 12 14.444 12 14.992V15z"></path><path fill="#ffeea3" d="M13 11H14V12H13z"></path><path fill="#ffc49c" d="M2.5 3.5H5.5V9.5H2.5z"></path><path fill="#a16a4a" d="M5,4v5H3V4H5 M6,3H2v7h4V3L6,3z"></path><g><path fill="#ffc49c" d="M7.5 3.5H13.5V9.5H7.5z"></path><path fill="#a16a4a" d="M13,4v5H8V4H13 M14,3H7v7h7V3L14,3z"></path></g><g><path fill="#f2faff" d="M3 5H5V8H3z"></path></g><g><path fill="#f2faff" d="M8 5H13V8H8z"></path></g></svg>