<svg xmlns="http://www.w3.org/2000/svg" viewBox="0 0 16 16"><path fill="#fff" d="M0.5 1.5H15.5V14.5H0.5z"></path><path fill="#788b9c" d="M15,2v12H1V2H15 M16,1H0v14h16V1L16,1z"></path><path fill="#c8d1db" d="M15,5v9H5.6l-0.3,1H16v-0.3V5.3C15.7,5.1,15.3,5.1,15,5z"></path><path fill="#788b9c" d="M0 1H16V3H0z"></path><path fill="#8bb7f0" d="M5 5H13V6H5zM3 5H4V6H3zM5 7H11.5V8H5zM3 7H4V8H3zM5 9H13V10H5zM3 9H4V10H3zM5 11H13V12H5zM3 11H4V12H3z"></path><path fill="#f5ce85" d="M8.5 13.4L9.1 12.7 10.4 13.8 9.7 14.6 7.8 15.2z"></path><path fill="#967a44" d="M9.1,13.4l0.5,0.5l-0.3,0.3l-0.8,0.3l0.3-0.7L9.1,13.4 M9.1,12l-1,1L7,16l2.9-1l1.2-1.2L9.1,12 L9.1,12z"></path><path fill="#36404d" d="M7.5 14.6L7 16 8.4 15.5z"></path><g><path fill="#ffeea3" d="M10.1,14.3c-0.1-0.1-0.2-0.2-0.4-0.2c-0.1-0.4-0.4-0.6-0.7-0.7c-0.1-0.2-0.1-0.3-0.3-0.4l4.6-4.6 l1.4,1.4L10.1,14.3z"></path><path fill="#ba9b48" d="M13.3,8.8l0.8,0.8L10,13.8c0,0-0.1,0-0.1-0.1c-0.1-0.3-0.4-0.5-0.7-0.7c0,0,0-0.1-0.1-0.1L13.3,8.8 M13.3,7.8L8,13.1c0,0,0,0,0,0c0.1,0,0.6,0,0.6,0.6c0,0,0.7,0,0.7,0.7c0.7,0,0.6,0.6,0.6,0.6l5.3-5.3L13.3,7.8L13.3,7.8z"></path></g><g><path fill="#f78f8f" d="M13.5,8.3l0.6-0.6c0.2-0.2,0.4-0.2,0.6-0.2c0.2,0,0.4,0.1,0.6,0.2c0.2,0.2,0.2,0.4,0.2,0.6 c0,0.2-0.1,0.4-0.2,0.6l-0.6,0.6L13.5,8.3z"></path><path fill="#c74343" d="M14.7,8c0.1,0,0.2,0,0.2,0.1C15,8.2,15,8.3,15,8.3s0,0.2-0.1,0.2l-0.2,0.2l-0.5-0.5l0.2-0.2 C14.5,8,14.6,8,14.7,8 M14.7,7c-0.3,0-0.7,0.1-1,0.4l-0.9,0.9l1.9,1.9l0.9-0.9c0.5-0.5,0.5-1.4,0-1.9C15.3,7.1,15,7,14.7,7L14.7,7 z"></path></g></svg>