<svg xmlns="http://www.w3.org/2000/svg" viewBox="0 0 16 16"><path fill="#b0c1d4" d="M6.5 11.5H9.5V14.5H6.5z"></path><path fill="#66798f" d="M9,12v2H7v-2H9 M10,11H6v4h4V11L10,11z"></path><path fill="#d9f2ff" d="M0.5 1.5H15.5V12.5H0.5z"></path><path fill="#66798f" d="M15,2v10H1V2H15 M16,1H0v12h16V1L16,1z"></path><path fill="#66798f" d="M0 11H16V13H0zM12 15H4v0c0-.5.4-1 1-1h6C11.6 14 12 14.4 12 15L12 15z"></path><path fill="#ffeea3" d="M13 11H14V12H13z"></path><path fill="#4e7ab5" d="M9.5 10L6.5 5 5.3 7 1 7 1 6 4.7 6 6.5 3 9.5 8 10.7 6 15 6 15 7 11.3 7z"></path></svg>