<?xml version="1.0" encoding="utf-8"?>
<!-- Generator: Adobe Illustrator 22.1.0, SVG Export Plug-In . SVG Version: 6.00 Build 0)  -->
<svg version="1.2" baseProfile="tiny" id="katman_1"
	 xmlns="http://www.w3.org/2000/svg" xmlns:xlink="http://www.w3.org/1999/xlink" x="0px" y="0px" viewBox="0 0 16 16"
	 xml:space="preserve">
<path fill="#66798F" d="M12,4.5h-1v-2C11,2.2,10.8,2,10.5,2h-5C5.2,2,5,2.2,5,2.5v2H4v-2C4,1.7,4.7,1,5.5,1h5C11.3,1,12,1.7,12,2.5
	V4.5z"/>
<path fill="#FFEEA3" d="M0.5,8.5h15v6h-15V8.5z"/>
<path fill="#BA9B48" d="M15,9v5H1V9H15 M16,8H0v7h16V8L16,8z"/>
<path fill="#E1EBF2" d="M0.5,8.5V5.2c0-0.4,0.2-0.7,0.5-0.7h14c0.3,0,0.5,0.3,0.5,0.7v3.3H0.5z"/>
<path fill="#788B9C" d="M15,5c0,0,0,0.1,0,0.2V8H1V5.2C1,5.1,1,5,1,5H15 M15,4H1C0.4,4,0,4.5,0,5.2V9h16V5.2C16,4.5,15.6,4,15,4
	L15,4z"/>
<g>
	<path fill="#FFFFFF" d="M3.5,7.5h1v2h-1V7.5z"/>
	<path fill="#788B9C" d="M4,8v1V8 M5,7H3v3h2V7L5,7z"/>
</g>
<g>
	<path fill="#FFFFFF" d="M11.5,7.5h1v2h-1V7.5z"/>
	<path fill="#788B9C" d="M12,8v1V8 M13,7h-2v3h2V7L13,7z"/>
</g>
</svg>
