<?xml version="1.0" encoding="utf-8"?>
<!-- Generator: Adobe Illustrator 23.1.1, SVG Export Plug-In . SVG Version: 6.00 Build 0)  -->
<svg version="1.1" id="katman_1" xmlns="http://www.w3.org/2000/svg" xmlns:xlink="http://www.w3.org/1999/xlink" x="0px" y="0px"
	 viewBox="0 0 80 80" style="enable-background:new 0 0 80 80;" xml:space="preserve">
<style type="text/css">
	.st0{fill:#B0C1D4;}
	.st1{fill:#788B9C;}
	.st2{fill:#DBF2FF;}
	.st3{fill:#C5D4DE;}
	.st4{fill:#FFEEA3;}
	.st5{fill:#A16A4A;}
	.st6{fill:#BAE0BD;}
	.st7{fill:#5E9C76;}
	.st8{fill:#FFC49C;}
</style>
<path class="st0" d="M27.5,56.3h13v10.2h-13V56.3z"/>
<path class="st1" d="M41,67H27V55.8h14V67z M28,66h12v-9.2H28V66z"/>
<path class="st2" d="M4.5,18.5h59v42h-59V18.5z"/>
<path class="st1" d="M64,61H4V18h60V61z M5,60h58V19H5V60z"/>
<path class="st3" d="M5,55h58.1v5H5V55z"/>
<path class="st3" d="M16.8,69.5c0.2-2.3,2.1-4,4.4-4h25.6c2.3,0,4.2,1.7,4.4,4H16.8z"/>
<path class="st1" d="M51.7,70H16.3l0.1-0.5c0.2-2.5,2.3-4.5,4.9-4.5h25.6c2.5,0,4.6,1.9,4.9,4.5L51.7,70z M17.4,69h33.2
	c-0.4-1.7-2-3-3.8-3H21.2C19.4,66,17.8,67.3,17.4,69z"/>
<path class="st4" d="M55.8,57.6h4.7v1.6h-4.7V57.6z"/>
<rect x="4.5" y="73" class="st5" width="71" height="1"/>
<rect x="49.1" y="18" class="st0" width="2.8" height="1"/>
<polygon class="st0" points="47.4,61 44.7,61 44.6,60 47.4,60 "/>
<polygon class="st0" points="48.9,70 46.3,70 46.2,69 48.9,69 "/>
<path class="st0" d="M51.5,70h-1v-0.2c0-2.1-1.7-3.8-3.8-3.8h-1.2l-0.2-1h1.3c2.6,0,4.8,2.2,4.8,4.8C51.5,69.8,51.5,70,51.5,70z"/>
<path class="st6" d="M60.5,3.3c0,0-7.5,15.9-7.5,47.5h7h1h7C68,19.3,60.5,3.3,60.5,3.3z"/>
<path class="st7" d="M68.5,51.4h-16v-0.5C52.5,19.5,60,3.3,60,3.1l0.5-1l0.5,1c0.1,0.2,7.5,16.4,7.5,47.7L68.5,51.4z M53.5,50.4h14
	c-0.1-26.2-5.4-41.7-7-45.7C58.9,8.7,53.6,24.1,53.5,50.4z"/>
<g>
	<path class="st6" d="M52.2,52.8c0-30.2-0.4-39.7-0.6-42.4c2.4,2.7,10.6,14.2,10.7,42.4H52.2z"/>
	<path class="st7" d="M62.8,53.3H51.7v-0.5c0-30.1-0.4-39.7-0.6-42.4L51,9l1,1.1c2.5,2.9,10.8,14.5,10.8,42.7L62.8,53.3z M52.7,52.3
		h9.1c-0.1-24.6-6.5-36.2-9.6-40.4C52.3,16.1,52.6,26.7,52.7,52.3z"/>
</g>
<g>
	<path class="st6" d="M68.8,52.8c0-30.2,0.4-39.7,0.6-42.4c-2.4,2.7-10.6,14.2-10.7,42.4H68.8z"/>
	<path class="st7" d="M69.3,53.3H58.2l0-0.5c0.1-28.2,8.3-39.8,10.8-42.7L70,9l-0.1,1.5c-0.2,2.7-0.6,12.3-0.6,42.4L69.3,53.3
		L69.3,53.3z M59.2,52.3h9.1c0-25.6,0.3-36.2,0.5-40.4C65.7,16.2,59.4,27.8,59.2,52.3z"/>
</g>
<g>
	<path class="st8" d="M49.4,73.5l-3.6-22h29.4l-3.6,22H49.4z"/>
	<path class="st5" d="M72,74H49l-3.8-23h30.6L72,74z M49.9,73h21.3l3.5-21H46.4L49.9,73z"/>
</g>
</svg>
