<svg xmlns="http://www.w3.org/2000/svg" viewBox="0 0 16 16"><path fill="#b0c1d4" d="M1,15.5c-0.275,0-0.5-0.224-0.5-0.5v-4L2.353,0.925C2.395,0.676,2.602,0.5,2.847,0.5h10.307 c0.245,0,0.452,0.176,0.493,0.418l1.861,10.171L15.5,15c0,0.276-0.225,0.5-0.5,0.5H1z"></path><path fill="#66798f" d="M13.153,1l0.003,0.016L15,11.091V15H1v-3.909L2.847,1H13.153 M13.153,0H2.847 C2.358,0,1.941,0.353,1.861,0.836L0,11v4c0,0.552,0.448,1,1,1h14c0.552,0,1-0.448,1-1v-4L14.139,0.836 C14.059,0.353,13.642,0,13.153,0L13.153,0z"></path><path fill="#fff" d="M13,12c-0.552,0-1,0.448-1,1s0.448,1,1,1s1-0.448,1-1S13.552,12,13,12L13,12z"></path><path fill="#e1ebf2" d="M1.017 11L14.983 11 13.156 1.016 13.153 1 2.847 1z"></path><path fill="#8bb7f0" d="M5.207 6.5L6.5 6.5 6.5 0.5 9.5 0.5 9.5 6.5 10.793 6.5 8 9.293z"></path><path fill="#4e7ab5" d="M9,1v5v1h0.586L8,8.586L6.414,7H7V6V1H9 M10,0H6v6H4l4,4l4-4h-2V0L10,0z"></path><path fill="#8bb7f0" d="M7 0H9V2H7z"></path></svg>