<svg xmlns="http://www.w3.org/2000/svg" viewBox="0 0 80 80"><path fill="#b0c1d4" d="M32.5 55.5H47.5V68.5H32.5z"></path><path fill="#66798f" d="M47,56v12H33V56H47 M48,55H32v14h16V55L48,55z"></path><path fill="#fff9de" d="M2.5 7.5H77.5V60.5H2.5z"></path><path fill="#66798f" d="M77,8v52H3V8H77 M78,7H2v54h76V7L78,7z"></path><path fill="#66798f" d="M3 53H77V60H3z"></path><path fill="#b0c1d4" d="M18.522,72.5c0.253-2.799,2.613-5,5.478-5h32c2.864,0,5.224,2.201,5.478,5H18.522z"></path><path fill="#66798f" d="M56,68c2.415,0,4.435,1.721,4.9,4L19.1,72c0.465-2.279,2.485-4,4.9-4H56 M56,67H24 c-3.314,0-6,2.686-6,6v0h44v0C62,69.686,59.314,67,56,67L56,67z"></path><path fill="#ffeea3" d="M68 56H74V58H68z"></path><g><path fill="#ffeea3" d="M40.002,46.961c-1.562-0.667-13.365-6.339-13.501-25.132L40,16.044l13.499,5.785 C53.364,40.753,41.566,46.309,40.002,46.961z"></path><path fill="#ba9b48" d="M40,16.588l12.995,5.569c-0.255,17.93-10.897,23.368-12.992,24.265 c-2.1-0.914-12.743-6.428-12.999-24.265L40,16.588 M40,15.5l-14,6c0,20.92,14,26,14,26s14-4.972,14-26L40,15.5L40,15.5z"></path></g><path fill="#ffc49c" d="M40,19.852l-9.946,4.263l0.158,1.47c1.058,9.841,5.866,14.682,8.638,16.692l1.172,0.85l1.174-0.848	c2.759-1.995,7.544-6.816,8.594-16.695l0.156-1.468L40,19.852z"></path></svg>