<svg xmlns="http://www.w3.org/2000/svg" viewBox="0 0 80 80"><path fill="#b0c1d4" d="M32.5 55.5H47.5V68.5H32.5z"></path><path fill="#66798f" d="M47,56v12H33V56H47 M48,55H32v14h16V55L48,55z"></path><path fill="#f9b4b4" d="M2.5 7.5H77.5V60.5H2.5z"></path><path fill="#66798f" d="M77,8v52H3V8H77 M78,7H2v54h76V7L78,7z"></path><path fill="#66798f" d="M2 51H78V61H2zM62 73H18l0 0c0-3.3 2.7-6 6-6h32C59.3 67 62 69.7 62 73L62 73z"></path><path fill="#ffeea3" d="M68 55H74V57H68z"></path><path fill="#c74343" d="M38 14H42V37H38zM38 41H42V45H38z"></path></svg>