<svg xmlns="http://www.w3.org/2000/svg" width="80" height="80" viewBox="0 0 80 80"><path fill="#b0c1d4" d="M27.5,56.256h13v10.21h-13V56.256z"></path><path fill="#788b9c" d="M41,66.966H27v-11.21h14V66.966z M28,65.966h12v-9.21H28V65.966z"></path><path fill="#dbf2ff" d="M4.5,18.5h59v42h-59V18.5z"></path><path fill="#788b9c" d="M64,61H4V18h60V61z M5,60h58V19H5V60z"></path><path fill="#c5d4de" d="M5,55h58.116v5H5V55z"></path><path fill="#c5d4de" d="M16.816,69.5c0.211-2.265,2.11-3.997,4.384-4h25.6c2.274,0.003,4.173,1.735,4.384,4H16.816z"></path><path fill="#788b9c" d="M51.733,70H16.267l0.051-0.546c0.236-2.536,2.334-4.451,4.882-4.454h25.6 c2.548,0.003,4.646,1.918,4.882,4.454L51.733,70z M17.403,69h33.194c-0.411-1.741-1.957-2.998-3.798-3H21.2 C19.36,66.002,17.813,67.259,17.403,69z"></path><path fill="#ffeea3" d="M55.833,57.649h4.712v1.571h-4.712V57.649z"></path><rect width="71" height="1" x="4.5" y="73" fill="#a16a4a"></rect><rect width="2.785" height="1" x="49.088" y="18" fill="#b0c1d4"></rect><polygon fill="#b0c1d4" points="47.373,61 44.734,61 44.588,60 47.373,60"></polygon><polygon fill="#b0c1d4" points="48.945,70 46.328,70 46.16,69 48.945,69"></polygon><path fill="#b0c1d4" d="M51.548,70h-1v-0.207c0-2.092-1.702-3.793-3.793-3.793h-1.161l-0.169-1h1.33 c2.643,0,4.793,2.15,4.793,4.793V70z"></path><path fill="#bae0bd" d="M60.501,3.344c0,0-7.456,15.943-7.501,47.531h7.01h0.979H68 C67.955,19.287,60.501,3.344,60.501,3.344z"></path><path fill="#5e9c76" d="M68.5,51.375H52.5l0-0.501c0.044-31.336,7.473-47.581,7.547-47.741L60.5,2.164l0.453,0.969 c0.075,0.16,7.502,16.405,7.546,47.741L68.5,51.375z M53.501,50.375h13.997C67.395,24.138,62.101,8.713,60.5,4.645 C58.9,8.712,53.605,24.136,53.501,50.375z"></path><g><path fill="#bae0bd" d="M52.154,52.833c-0.003-30.198-0.413-39.723-0.587-42.409c2.363,2.71,10.631,14.208,10.695,42.409 H52.154z"></path><path fill="#5e9c76" d="M62.763,53.333H51.653v-0.5c-0.002-30.113-0.411-39.667-0.586-42.377l-0.095-1.475l0.971,1.113 c2.521,2.892,10.754,14.52,10.818,42.737L62.763,53.333z M52.653,52.333h9.106c-0.142-24.558-6.504-36.172-9.609-40.377 C52.346,16.138,52.647,26.735,52.653,52.333z"></path></g><g><path fill="#bae0bd" d="M68.846,52.833c0.003-30.198,0.413-39.723,0.587-42.409c-2.364,2.71-10.631,14.208-10.695,42.409 H68.846z"></path><path fill="#5e9c76" d="M69.347,53.333H58.237l0.001-0.501c0.064-28.218,8.297-39.846,10.818-42.737l0.971-1.113 l-0.095,1.475c-0.175,2.71-0.583,12.264-0.586,42.377V53.333z M59.24,52.333h9.106c0.006-25.598,0.308-36.195,0.503-40.377 C65.745,16.161,59.382,27.775,59.24,52.333z"></path></g><g><path fill="#ffc49c" d="M49.441,73.5l-3.641-22h29.4l-3.641,22H49.441z"></path><path fill="#a16a4a" d="M71.983,74H49.017L45.21,51H75.79L71.983,74z M49.864,73h21.271l3.475-21H46.389L49.864,73z"></path></g></svg>