<svg xmlns="http://www.w3.org/2000/svg" viewBox="0 0 16 16"><path fill="#b6c9d6" d="M4.489,12.5c-0.049-1.157-0.267-1.937-0.478-2.693C3.761,8.904,3.5,7.97,3.5,6.286 C3.5,4.188,4.867,2.5,6,2.5h0.383l0.1-0.369C6.6,1.7,7.062,1.256,7.5,0.923V2.5h1.319l1.574,1.313 c0.03,0.023,0.861,0.636,1.96,1.362l-0.562,1.124c-0.409-0.229-1.026-0.551-1.62-0.769L10.089,5.5H7.5V6 c0,1.68,1.022,2.588,2.012,3.467c0.921,0.818,1.796,1.595,1.961,3.033H4.489z"></path><path fill="#788b9c" d="M7,2.168V3h1h0.638l1.436,1.197l0.022,0.018l0.023,0.017c0.033,0.025,0.676,0.499,1.589,1.114 l-0.134,0.268c-0.369-0.191-0.805-0.397-1.231-0.553L10.177,5H10H8H7v1c0,1.905,1.158,2.933,2.179,3.841 c0.768,0.682,1.414,1.256,1.684,2.159H4.959c-0.083-0.955-0.276-1.65-0.465-2.327C4.24,8.762,4,7.901,4,6.286C4,4.411,5.213,3,6,3 h0.765l0.2-0.739C6.973,2.231,6.985,2.2,7,2.168 M8,0c0,0-1.705,0.909-2,2C4.591,2,3,3.886,3,6.286C3,9.654,4,10.136,4,13h8 c0-3.786-4-3.929-4-7c0.058,0,1.479,0,2,0c0.955,0.35,2,1,2,1l1-2c-1.281-0.828-2.286-1.571-2.286-1.571L9,2C8.25,2,8.727,2,8,2V0 L8,0z"></path><path fill="#b6c9d6" d="M2.515,15.5c0.129-1.124,1.086-2,2.244-2h6.482c1.158,0,2.115,0.876,2.244,2H2.515z"></path><path fill="#788b9c" d="M11.241,14c0.698,0,1.303,0.409,1.586,1H3.172c0.284-0.591,0.888-1,1.586-1H11.241 M11.241,13H4.759 C3.241,13,2,14.241,2,15.759V16h12v-0.241C14,14.241,12.759,13,11.241,13L11.241,13z"></path><g><path fill="#ffeea3" d="M4,13.5c-0.275,0-0.5-0.224-0.5-0.5s0.225-0.5,0.5-0.5h8c0.275,0,0.5,0.224,0.5,0.5 s-0.225,0.5-0.5,0.5H4z"></path><path fill="#ba9b48" d="M12,12H4c-0.55,0-1,0.45-1,1s0.45,1,1,1h8c0.55,0,1-0.45,1-1S12.55,12,12,12L12,12z"></path></g></svg>