<?xml version="1.0" encoding="utf-8"?>
<!-- Generator: Adobe Illustrator 22.1.0, SVG Export Plug-In . SVG Version: 6.00 Build 0)  -->
<svg version="1.2" baseProfile="tiny" id="katman_1"
	 xmlns="http://www.w3.org/2000/svg" xmlns:xlink="http://www.w3.org/1999/xlink" x="0px" y="0px" viewBox="0 0 16 16"
	 xml:space="preserve">
<path fill="#A3B7CC" d="M13.5,8H6.9C2.3,8,2,5.8,2,3V1.1h1V3c0,2.2-0.2,4,3.9,4h6.6V8z"/>
<path fill="#A3B7CC" d="M2,2.5h1V9H2V2.5z"/>
<path fill="#BAE0BD" d="M2.5,0.5c-1.1,0-2,0.9-2,2s0.9,2,2,2s2-0.9,2-2S3.6,0.5,2.5,0.5z"/>
<path fill="#5E9C76" d="M2.5,1C3.3,1,4,1.7,4,2.5S3.3,4,2.5,4S1,3.3,1,2.5S1.7,1,2.5,1 M2.5,0C1.1,0,0,1.1,0,2.5S1.1,5,2.5,5
	S5,3.9,5,2.5S3.9,0,2.5,0L2.5,0z"/>
<g>
	<path fill="#8BB7F0" d="M13.5,5.5c-1.1,0-2,0.9-2,2s0.9,2,2,2s2-0.9,2-2S14.6,5.5,13.5,5.5z"/>
	<path fill="#4E7AB5" d="M13.5,6C14.3,6,15,6.7,15,7.5S14.3,9,13.5,9S12,8.3,12,7.5S12.7,6,13.5,6 M13.5,5C12.1,5,11,6.1,11,7.5
		s1.1,2.5,2.5,2.5S16,8.9,16,7.5S14.9,5,13.5,5L13.5,5z"/>
</g>
<path fill="#A3B7CC" d="M13.5,14H6.9C2.7,14,2,13,2,9V7.1h1V9c0,3.4,0.2,4,3.9,4h6.6V14z"/>
<g>
	<path fill="#8BB7F0" d="M13.5,11.5c-1.1,0-2,0.9-2,2s0.9,2,2,2s2-0.9,2-2S14.6,11.5,13.5,11.5z"/>
	<path fill="#4E7AB5" d="M13.5,12c0.8,0,1.5,0.7,1.5,1.5S14.3,15,13.5,15S12,14.3,12,13.5S12.7,12,13.5,12 M13.5,11
		c-1.4,0-2.5,1.1-2.5,2.5s1.1,2.5,2.5,2.5s2.5-1.1,2.5-2.5S14.9,11,13.5,11L13.5,11z"/>
</g>
</svg>
