<svg xmlns="http://www.w3.org/2000/svg" viewBox="0 0 16 16"><path fill="#b0c1d4" d="M2 10H14V11H2z"></path><path fill="#66798f" d="M14 10L2 10 2 11 14 11 14 10zM3 14H4V16H3z"></path><path fill="#e1ebf2" d="M3.5,14.5v-0.994L6.644,5.74c0.134,0.104,0.279,0.194,0.434,0.265L3.662,14.5H3.5z"></path><path fill="#a3b7cc" d="M6.488,4.791L3,13.409V15h1l3.743-9.312C7.195,5.605,6.736,5.265,6.488,4.791L6.488,4.791z"></path><path fill="#66798f" d="M12 14H13V16H12z"></path><path fill="#e1ebf2" d="M12.338,14.5L8.923,6.005c0.154-0.071,0.3-0.161,0.434-0.265l3.144,7.766V14.5H12.338z"></path><path fill="#a3b7cc" d="M9.512,4.791C9.264,5.265,8.805,5.605,8.257,5.688L12,15h1v-1.591L9.512,4.791L9.512,4.791z"></path><g><path fill="#f78f8f" d="M7.5 0.5H8.5V2.5H7.5z"></path><path fill="#c74343" d="M9 0L7 0 7 3 9 3 9 0z"></path></g><g><path fill="#f78f8f" d="M8 2.5A1.5 1.5 0 1 0 8 5.5A1.5 1.5 0 1 0 8 2.5Z"></path><path fill="#c74343" d="M8,3c0.551,0,1,0.449,1,1S8.551,5,8,5S7,4.551,7,4S7.449,3,8,3 M8,2C6.895,2,6,2.895,6,4 s0.895,2,2,2s2-0.895,2-2S9.105,2,8,2L8,2z"></path></g></svg>