<?xml version="1.0" encoding="utf-8"?>
<!-- Generator: Adobe Illustrator 22.1.0, SVG Export Plug-In . SVG Version: 6.00 Build 0)  -->
<svg version="1.1" id="katman_1" xmlns="http://www.w3.org/2000/svg" xmlns:xlink="http://www.w3.org/1999/xlink" x="0px" y="0px"
	 viewBox="0 0 24 24" style="enable-background:new 0 0 24 24;" xml:space="preserve">
<style type="text/css">
	.st0{fill:#C2E8FF;}
	.st1{fill:#7496C4;}
	.st2{fill:#B0C1D4;}
	.st3{fill:#66798F;}
	.st4{fill:#8BB7F0;}
	.st5{fill:#4E7AB5;}
	.st6{fill:#F78F8F;}
	.st7{fill:#C74343;}
	.st8{fill:#8DC1E0;}
</style>
<path class="st0" d="M0,2h23v17H0V2z"/>
<path class="st1" d="M23,3v16H1V3H23 M24,2H0v18h24V2L24,2z"/>
<path class="st2" d="M5.6,21.5c0.2-1.1,5.2-4,6.4-4s6.2,2.9,6.5,4H5.6z"/>
<path class="st3" d="M12,18c0.7,0,4.7,2.4,5,3H7C7.3,20.4,11.3,18,12,18 M12,17c-1.7,0-7,3.3-7,5h14C19,20.3,13.7,17,12,17L12,17z"
	/>
<path class="st4" d="M7,6.8c-2.3,0-4.2,1.9-4.2,4.2s1.9,4.2,4.2,4.2s4.2-1.9,4.2-4.2S9.3,6.8,7,6.8z"/>
<path class="st5" d="M7,7.7c1.8,0,3.3,1.5,3.3,3.3S8.8,14.3,7,14.3S3.7,12.8,3.7,11S5.2,7.7,7,7.7 M7,6c-2.8,0-5,2.2-5,5s2.2,5,5,5
	s5-2.2,5-5S9.8,6,7,6L7,6z"/>
<path class="st6" d="M7.8,10.2V6.9c1.6,0.3,2.9,1.6,3.2,3.2L7.8,10.2L7.8,10.2z"/>
<path class="st7" d="M8.7,8.1c0.5,0.3,0.9,0.7,1.2,1.2H8.7V8.1 M7,6v5h5C12,8.2,9.8,6,7,6L7,6z"/>
<path class="st5" d="M20,16h-6v-2h6V16z"/>
<path class="st8" d="M22,16h-4v-2h4V16z"/>
<path class="st5" d="M20,12h-6v-2h6V12z"/>
<path class="st8" d="M22,12h-4v-2h4V12z"/>
<path class="st5" d="M20,8h-6V6h6V8z"/>
<path class="st8" d="M22,8h-4V6h4V8z"/>
</svg>
