<svg xmlns="http://www.w3.org/2000/svg" viewBox="0 0 16 16"><path fill="#66798f" d="M8,11.5H7V9.7c0-0.7,0.4-1.2,1.1-1.4l5.9-1.8C14.6,6.3,15,5.7,15,5V4.5C15,3.7,14.3,3,13.5,3H0V2 h13.5C14.9,2,16,3.1,16,4.5V5c0,1.1-0.7,2.1-1.8,2.4L8.4,9.3C8.1,9.3,8,9.5,8,9.7V11.5z"></path><path fill="#f78f8f" d="M1.5 0.5H13.5V4.5H1.5z"></path><path fill="#c74343" d="M13,1v3H2V1H13 M14,0H1v5h13V0L14,0z"></path><g><path fill="#f5c276" d="M6.5 10.5H8.5V15.5H6.5z"></path><path fill="#c29653" d="M8,11v4H7v-4H8 M9,10H6v6h3V10L9,10z"></path></g></svg>