<svg xmlns="http://www.w3.org/2000/svg" viewBox="0 0 16 16"><path fill="#4e7ab5" d="M8.429 0A1.714 1.714 0 1 0 8.429 3.428 1.714 1.714 0 1 0 8.429 0zM8.429 13.713999999999999A1.143 1.143 0 1 0 8.429 16 1.143 1.143 0 1 0 8.429 13.713999999999999zM15 7.715A.571.571 0 1 0 15 8.857.571.571 0 1 0 15 7.715zM1.857 6.856999999999999A1.429 1.429 0 1 0 1.857 9.715 1.429 1.429 0 1 0 1.857 6.856999999999999zM13.429 3.4280000000000004A.429.429 0 1 0 13.429 4.2860000000000005.429.429 0 1 0 13.429 3.4280000000000004zM3.857 11.857000000000001A1.286 1.286 0 1 0 3.857 14.429 1.286 1.286 0 1 0 3.857 11.857000000000001zM13 12.286000000000001A.857.857 0 1 0 13 14 .857.857 0 1 0 13 12.286000000000001zM3.785 2.138A1.561 1.561 0 1 0 3.785 5.26 1.561 1.561 0 1 0 3.785 2.138z"></path></svg>