<svg xmlns="http://www.w3.org/2000/svg" viewBox="0 0 16 16"><path fill="#f78f8f" d="M7 0.5A1.5 1.5 0 1 0 7 3.5A1.5 1.5 0 1 0 7 0.5Z"></path><path fill="#c74343" d="M7,1c0.551,0,1,0.449,1,1S7.551,3,7,3S6,2.551,6,2S6.449,1,7,1 M7,0C5.895,0,5,0.895,5,2 s0.895,2,2,2s2-0.895,2-2S8.105,0,7,0L7,0z"></path><path fill="#f79494" d="M2.5 3.5A1 1 0 1 0 2.5 5.5A1 1 0 1 0 2.5 3.5Z"></path><path fill="#c74343" d="M2.5,4C2.776,4,3,4.224,3,4.5S2.776,5,2.5,5S2,4.776,2,4.5S2.224,4,2.5,4 M2.5,3 C1.672,3,1,3.672,1,4.5S1.672,6,2.5,6S4,5.328,4,4.5S3.328,3,2.5,3L2.5,3z"></path><path fill="#f7b7b7" d="M1.333 7.834A0.833 0.833 0 1 0 1.333 9.5A0.833 0.833 0 1 0 1.333 7.834Z"></path><path fill="#d46565" d="M1.333,8.333c0.184,0,0.333,0.15,0.333,0.333S1.517,9,1.333,9C1.15,9,1,8.85,1,8.667 S1.15,8.333,1.333,8.333 M1.333,7.333C0.597,7.333,0,7.93,0,8.667S0.597,10,1.333,10c0.736,0,1.333-0.597,1.333-1.333 S2.07,7.333,1.333,7.333L1.333,7.333z"></path><path fill="#f7b7b7" d="M3 12.5A0.5 0.5 0 1 0 3 13.5A0.5 0.5 0 1 0 3 12.5Z"></path><path fill="#de7c7c" d="M3,12c-0.552,0-1,0.448-1,1s0.448,1,1,1s1-0.448,1-1S3.552,12,3,12L3,12z"></path><g><path fill="#f7b7b7" d="M6.333 15.166A0.167 0.167 0 1 0 6.333 15.5A0.167 0.167 0 1 0 6.333 15.166Z"></path><path fill="#f08d8d" d="M6.333,14.667c-0.368,0-0.667,0.298-0.667,0.667S5.965,16,6.333,16C6.702,16,7,15.702,7,15.333 S6.702,14.667,6.333,14.667L6.333,14.667z"></path></g><g><path fill="#f76d6d" d="M12.5 2.5A2 2 0 1 0 12.5 6.5A2 2 0 1 0 12.5 2.5Z"></path><path fill="#ba3a3a" d="M12.5,3C13.327,3,14,3.673,14,4.5S13.327,6,12.5,6S11,5.327,11,4.5S11.673,3,12.5,3 M12.5,2 C11.119,2,10,3.119,10,4.5S11.119,7,12.5,7S15,5.881,15,4.5S13.881,2,12.5,2L12.5,2z"></path></g><g><path fill="#f75252" d="M13 9.5A2.5 2.5 0 1 0 13 14.5A2.5 2.5 0 1 0 13 9.5Z"></path><path fill="#ab3434" d="M13,10c1.103,0,2,0.897,2,2s-0.897,2-2,2s-2-0.897-2-2S11.897,10,13,10 M13,9c-1.657,0-3,1.343-3,3 s1.343,3,3,3s3-1.343,3-3S14.657,9,13,9L13,9z"></path></g></svg>