<svg xmlns="http://www.w3.org/2000/svg" viewBox="0 0 16 16"><path fill="#b0c1d4" d="M1,13.5c-0.275,0-0.5-0.224-0.5-0.5V6c0-0.276,0.225-0.5,0.5-0.5h10c0.275,0,0.5,0.224,0.5,0.5v7 c0,0.276-0.225,0.5-0.5,0.5H1z"></path><path fill="#66798f" d="M11,6v7H1V6H11 M11,5H1C0.45,5,0,5.45,0,6v7c0,0.55,0.45,1,1,1h10c0.55,0,1-0.45,1-1V6 C12,5.45,11.55,5,11,5L11,5z"></path><path fill="#66798f" d="M3.684 5.777L2.852 5.223 5 2 13 2 13 3 5.535 3z"></path><path fill="#66798f" d="M8 2H9V6H8z"></path><path fill="#839cb2" d="M15.146 12.5L13.212 10.5 11.5 10.5 11.5 8.5 13.207 8.5 15.207 6.5 15.5 6.5 15.5 12.5z"></path><path fill="#66798f" d="M15,7.414v4.216l-1.281-1.325L13.424,10H13h-1V9h1h0.414l0.293-0.293L15,7.414 M16,6h-1l-2,2h-2v3h2 l1.933,2H16V6L16,6z"></path><path fill="#c5d4de" d="M2.5 7.5H7.5V11.5H2.5z"></path><path fill="#66798f" d="M7,8v3H3V8H7 M8,7H2v5h6V7L8,7z"></path><path fill="#c2e8ff" d="M3 8H7V11H3z"></path><path fill="#fff" d="M5.5 8A0.5 0.5 0 1 0 5.5 9A0.5 0.5 0 1 0 5.5 8Z"></path><path fill="#6e9ee0" d="M7 11L7 10.939 5.632 9.667 4.667 10.563 5.061 11z"></path><path fill="#77a9ed" d="M5.629 11L3.667 9 3 9.75 3 11z"></path><path fill="#36404d" d="M13.5,3H12V2h1.5C13.776,2,14,2.224,14,2.5v0C14,2.776,13.776,3,13.5,3z"></path></svg>