<svg xmlns="http://www.w3.org/2000/svg" viewBox="0 0 16 16"><path fill="#fff" d="M2,13.5C1,12.2,0.5,10.6,0.5,9c0-4.1,3.4-7.5,7.5-7.5s7.5,3.4,7.5,7.5c0,1.6-0.5,3.2-1.5,4.5H2z"></path><path fill="#4e7ab5" d="M8,2c3.9,0,7,3.1,7,7c0,1.4-0.4,2.8-1.3,4H2.3C1.4,11.8,1,10.4,1,9C1,5.1,4.1,2,8,2 M8,1 C3.6,1,0,4.6,0,9c0,1.9,0.7,3.6,1.8,5h12.5c1.1-1.4,1.8-3.1,1.8-5C16,4.6,12.4,1,8,1L8,1z"></path><path fill="#788b9c" d="M6 11H10V12H6z"></path><path fill="#c74343" d="M6.8 6.7H10.8V7.7H6.8z" transform="rotate(-66.19 8.813 7.157)"></path><path fill="#f78f8f" d="M8 8.5A0.5 0.5 0 1 0 8 9.5A0.5 0.5 0 1 0 8 8.5Z"></path><path fill="#c74343" d="M8,8C7.4,8,7,8.4,7,9s0.4,1,1,1s1-0.4,1-1S8.6,8,8,8L8,8z"></path><g><path fill="#36404d" d="M13.5,3.9c-0.1-0.1-0.1-0.1-0.2-0.2s-0.1-0.1-0.2-0.2l-1.2,1.2l0.4,0.4L13.5,3.9z"></path><path fill="#36404d" d="M12.3 5.5l-.7-.7 1.5-1.5.3.2c0 0 .1.1.1.1 0 0 .1.1.1.1l.2.3L12.3 5.5zM12.3 4.7L12.3 4.7l.9-.8c0 0 0 0 0 0 0 0 0 0 0 0L12.3 4.7zM4.1 4.7L2.9 3.5C2.9 3.6 2.8 3.7 2.7 3.7 2.7 3.8 2.6 3.9 2.5 3.9l1.2 1.2L4.1 4.7z"></path><path fill="#36404d" d="M3.7 5.5L2.2 3.9l.2-.2c0 0 .1-.1.1-.1 0 0 .1-.1.1-.1l.3-.2 1.5 1.5L3.7 5.5zM2.9 3.9l.8.8 0 0L2.9 3.9C2.9 3.9 2.9 3.9 2.9 3.9 2.9 3.9 2.9 3.9 2.9 3.9zM.8 7.3l1.6.4.1-.5L.9 6.8C.8 7 .8 7.2.8 7.3z"></path><path fill="#36404d" d="M2.5 8.1L.5 7.5l.1-.2c0-.2.1-.4.1-.5l.1-.2 2.1.6L2.5 8.1zM1.1 7.2l1.1.3 0-.1L1.1 7.2C1.1 7.1 1.1 7.1 1.1 7.2zM15.3 10.7l-1.6-.4-.1.5 1.6.4C15.2 11 15.2 10.8 15.3 10.7z"></path><path fill="#36404d" d="M15.3,11.5l-2.1-0.6l0.3-1l2.1,0.6l-0.1,0.2c0,0.2-0.1,0.4-0.1,0.6L15.3,11.5z M13.8,10.6l1.1,0.3 c0,0,0,0,0,0L13.8,10.6L13.8,10.6z"></path><g><path fill="#36404d" d="M5.8,1.9l0.4,1.6l0.5-0.1L6.3,1.7C6.2,1.8,6,1.8,5.8,1.9z"></path><path fill="#36404d" d="M6.1,3.8L5.5,1.7l0.2-0.1c0.2-0.1,0.4-0.1,0.6-0.1l0.2-0.1l0.6,2.1L6.1,3.8z M6.1,2.1l0.3,1.1 l0.1,0L6.1,2.1C6.1,2.1,6.1,2.1,6.1,2.1z"></path></g><g><path fill="#36404d" d="M9.2,3.3l0.5,0.1l0.4-1.6C10,1.8,9.8,1.8,9.7,1.7L9.2,3.3z"></path><path fill="#36404d" d="M9.9,3.8l-1-0.3l0.6-2.1l0.2,0.1c0.2,0,0.4,0.1,0.6,0.1l0.2,0.1L9.9,3.8z M9.5,3.2L9.5,3.2l0.3-1.1 c0,0,0,0,0,0L9.5,3.2z"></path></g><g><path fill="#36404d" d="M15.3,7.3c0-0.2-0.1-0.4-0.1-0.5l-1.6,0.4l0.1,0.5L15.3,7.3z"></path><path fill="#36404d" d="M13.5,8.1l-0.3-1l2.1-0.6l0.1,0.2c0.1,0.2,0.1,0.4,0.1,0.6l0.1,0.2L13.5,8.1z M13.8,7.4L13.8,7.4 L15,7.2c0,0,0,0,0,0L13.8,7.4z"></path></g><g><path fill="#36404d" d="M0.7,7.3l1.6,0.4l0.1-0.5L0.9,6.8C0.8,7,0.8,7.2,0.7,7.3z"></path><path fill="#36404d" d="M2.5,8.1L0.5,7.5l0.1-0.2c0-0.2,0.1-0.4,0.1-0.6l0.1-0.2l2.1,0.6L2.5,8.1z M1,7.2l1.1,0.3l0-0.1 L1,7.2C1.1,7.1,1.1,7.1,1,7.2z"></path><g><path fill="#36404d" d="M0.7,10.7c0,0.2,0.1,0.4,0.1,0.5l1.6-0.4l-0.1-0.5L0.7,10.7z"></path><path fill="#36404d" d="M0.7,11.5l-0.1-0.2c-0.1-0.2-0.1-0.4-0.1-0.6l-0.1-0.2l2.1-0.6l0.3,1L0.7,11.5z M1,10.8 C1.1,10.9,1.1,10.9,1,10.8l1.1-0.2l0,0L1,10.8z"></path></g></g></g><g><path fill="#4e7ab5" d="M8,2c3.9,0,7,3.1,7,7c0,1.4-0.4,2.8-1.3,4H2.3C1.4,11.8,1,10.4,1,9C1,5.1,4.1,2,8,2 M8,1 C3.6,1,0,4.6,0,9c0,1.9,0.7,3.6,1.8,5h12.5c1.1-1.4,1.8-3.1,1.8-5C16,4.6,12.4,1,8,1L8,1z"></path></g></svg>