<svg xmlns="http://www.w3.org/2000/svg" viewBox="0 0 16 16"><path fill="#f2faff" d="M7.745,13.5c-0.305,0-0.592-0.119-0.808-0.334L1.834,8.062c-0.444-0.445-0.444-1.169,0-1.615 l4.741-4.74l6.718,6.718l-4.74,4.74C8.337,13.381,8.05,13.5,7.745,13.5z"></path><path fill="#788b9c" d="M6.575,2.414l6.011,6.011l-4.387,4.387C8.078,12.933,7.917,13,7.745,13 c-0.171,0-0.332-0.067-0.454-0.188L2.188,7.708C2.067,7.587,2,7.426,2,7.255c0-0.171,0.067-0.332,0.188-0.454L6.575,2.414 M6.575,1L1.481,6.094c-0.641,0.641-0.641,1.68,0,2.322l5.104,5.104C6.905,13.84,7.325,14,7.745,14s0.84-0.16,1.161-0.481 L14,8.425L6.575,1L6.575,1z"></path><path fill="#788b9c" d="M5.596 -0.007H6.575V2.415H5.596z" transform="rotate(-44.996 6.085 1.204)"></path><path fill="#f78f8f" d="M14,15.502c-0.827,0-1.5-0.673-1.5-1.5c0-0.541,0.782-1.857,1.5-2.876 c0.718,1.019,1.5,2.335,1.5,2.876C15.5,14.829,14.827,15.502,14,15.502z"></path><path fill="#c74343" d="M13.999 12.016c.57.879.992 1.694 1.001 1.986 0 .551-.449 1-1 1s-1-.449-1-.999C13.009 13.705 13.425 12.898 13.999 12.016M14 10.28c0 0-2 2.618-2 3.722 0 1.105.895 2 2 2s2-.895 2-2C16 12.897 14 10.28 14 10.28L14 10.28zM1.481 8.416l5.104 5.104c.641.641 1.68.641 2.322 0L14 8.425 13.575 8H1.187C1.263 8.149 1.356 8.291 1.481 8.416z"></path><path fill="#fabbbb" d="M7.292,12.812C7.413,12.933,7.574,13,7.745,13s0.333-0.067,0.454-0.188l4.387-4.387L12.161,8H2.479    L7.292,12.812z"></path></svg>