<svg xmlns="http://www.w3.org/2000/svg" viewBox="0 0 16 16"><path fill="#c2e8ff" d="M0.707,14.586l0.692-0.692L1.254,13.46c-0.155-0.468-0.035-0.976,0.313-1.325L8.582,5.12 l2.298,2.298l-7.015,7.015c-0.244,0.245-0.57,0.379-0.916,0.379l0,0c-0.14,0-0.277-0.022-0.41-0.066L2.106,14.6l-0.692,0.693 L0.707,14.586z"></path><path fill="#7496c4" d="M8.582,5.827l1.59,1.591l-6.661,6.661c-0.15,0.15-0.35,0.233-0.563,0.233 c-0.085,0-0.17-0.014-0.251-0.041l-0.14-0.047l-0.586-0.196l0,0l-0.196-0.587l-0.047-0.139c-0.096-0.288-0.022-0.6,0.192-0.814 L8.582,5.827 M1.534,14.466L1.534,14.466l-0.12,0.12l0,0L1.534,14.466 M8.582,4.413l-7.368,7.368 c-0.481,0.481-0.649,1.192-0.434,1.838l0.047,0.14L0,14.586L1.414,16l0.827-0.827l0.14,0.047c0.186,0.062,0.378,0.092,0.568,0.092 c0.469,0,0.928-0.184,1.27-0.526l7.368-7.368L8.582,4.413L8.582,4.413z"></path><path fill="#f5c276" d="M9.707,3.727l2.695-2.695C12.745,0.688,13.201,0.5,13.686,0.5s0.94,0.188,1.283,0.531 c0.707,0.708,0.707,1.859,0,2.566l-2.695,2.695L9.707,3.727z"></path><path fill="#c29653" d="M13.686,1c0.351,0,0.681,0.137,0.929,0.385c0.513,0.513,0.513,1.346,0,1.859l-2.342,2.342 l-1.859-1.859l2.342-2.342C13.004,1.137,13.334,1,13.686,1 M13.685,0c-0.592,0-1.185,0.226-1.637,0.678L9,3.727L12.273,7 l3.049-3.049c0.904-0.904,0.904-2.369,0-3.273C14.87,0.226,14.278,0,13.685,0L13.685,0z"></path><g><path fill="#f5c276" d="M6.292 4.733L8.62 2.488 13.513 7.462 11.227 9.667z"></path><path fill="#c29653" d="M8.579,3.235l4.186,4.186L11.226,8.96L7.04,4.774L8.579,3.235 M8.579,2.004 c-0.113,0-0.226,0.043-0.313,0.13L5.939,4.462c-0.173,0.173-0.173,0.453,0,0.626l4.974,4.974c0.086,0.086,0.2,0.13,0.313,0.13 s0.226-0.043,0.313-0.13l2.327-2.327c0.173-0.173,0.173-0.453,0-0.626L8.892,2.134C8.805,2.048,8.692,2.004,8.579,2.004 L8.579,2.004z"></path></g></svg>