<svg xmlns="http://www.w3.org/2000/svg" viewBox="0 0 16 16"><path fill="#8bb7f0" d="M2.912,14.423c0.306-0.541,0.631-1.136,0.919-1.685l0.197-0.376l-0.339-0.255 C2.298,11.06,1.5,9.563,1.5,8c0-3.033,2.916-5.5,6.5-5.5s6.5,2.467,6.5,5.5s-2.916,5.5-6.5,5.5c-0.478,0-0.97-0.049-1.463-0.146 l-0.162-0.032l-0.149,0.071C5.19,13.887,3.943,14.267,2.912,14.423z"></path><path fill="#4e7ab5" d="M8,3c3.308,0,6,2.243,6,5s-2.692,5-6,5c-0.445,0-0.905-0.046-1.368-0.136l-0.324-0.063L6.01,12.942 c-0.653,0.311-1.409,0.579-2.131,0.767c0.135-0.249,0.268-0.498,0.395-0.739l0.395-0.753L3.99,11.707C2.725,10.755,2,9.404,2,8 C2,5.243,4.692,3,8,3 M8,2C4.134,2,1,4.686,1,8c0,1.798,0.927,3.406,2.388,4.506C2.919,13.4,2.383,14.358,2,15 c1.229,0,3.045-0.49,4.44-1.155C6.943,13.943,7.463,14,8,14c3.866,0,7-2.686,7-6S11.866,2,8,2L8,2z"></path></svg>