<svg xmlns="http://www.w3.org/2000/svg" viewBox="0 0 16 16"><path fill="#f78f8f" d="M5 6.5A1.5 1.5 0 1 0 5 9.5A1.5 1.5 0 1 0 5 6.5Z"></path><path fill="#c74343" d="M5,7c0.551,0,1,0.449,1,1S5.551,9,5,9S4,8.551,4,8S4.449,7,5,7 M5,6C3.895,6,3,6.895,3,8 s0.895,2,2,2s2-0.895,2-2S6.105,6,5,6L5,6z"></path><path fill="#dcd5f2" d="M1.5,14.5v-13h2c0.552,0,1,0.449,1,1v11c0,0.551-0.448,1-1,1H1.5z"></path><path fill="#8b75a1" d="M3.5,2C3.776,2,4,2.224,4,2.5v11C4,13.776,3.776,14,3.5,14H2V2H3.5 M3.5,1H1v14h2.5 C4.328,15,5,14.328,5,13.5v-11C5,1.672,4.328,1,3.5,1L3.5,1z"></path><path fill="#f7a3a3" d="M8,1v1c3.308,0,6,2.692,6,6s-2.692,6-6,6v1c3.866,0,7-3.134,7-7S11.866,1,8,1z"></path><path fill="#f78f8f" d="M8,3v1c2.206,0,4,1.794,4,4s-1.794,4-4,4v1c2.761,0,5-2.239,5-5S10.761,3,8,3z"></path><path fill="#c74343" d="M8,5v1c1.103,0,2,0.897,2,2s-0.897,2-2,2v1c1.657,0,3-1.343,3-3S9.657,5,8,5z"></path></svg>