<?xml version="1.0" encoding="utf-8"?>
<!-- Generator: Adobe Illustrator 22.1.0, SVG Export Plug-In . SVG Version: 6.00 Build 0)  -->
<svg version="1.1" id="katman_1" xmlns="http://www.w3.org/2000/svg" xmlns:xlink="http://www.w3.org/1999/xlink" x="0px" y="0px"
	 viewBox="0 0 16 16" style="enable-background:new 0 0 16 16;" xml:space="preserve">
<style type="text/css">
	.st0{fill:#8BB7F0;}
	.st1{fill:#4E7AB5;}
	.st2{fill:none;stroke:#FFFFFF;stroke-miterlimit:10;}
</style>
<path class="st0" d="M1.1,12.5c-0.3,0-0.6-0.3-0.6-0.6V1.1c0-0.3,0.3-0.6,0.6-0.6h10.8c0.3,0,0.6,0.3,0.6,0.6v10.8
	c0,0.3-0.3,0.6-0.6,0.6H1.1z"/>
<path class="st1" d="M11.9,1C12,1,12,1,11.9,1L12,11.9c0,0,0,0.1-0.1,0.1H1.1C1,12,1,12,1,11.9V1.1C1,1,1,1,1.1,1H11.9 M11.9,0H1.1
	C0.5,0,0,0.5,0,1.1v10.8C0,12.5,0.5,13,1.1,13h10.8c0.6,0,1.1-0.5,1.1-1.1V1.1C13,0.5,12.5,0,11.9,0L11.9,0z"/>
<path class="st2" d="M2.5,6l2.3,2.3L10,3.1"/>
<path class="st0" d="M4.1,15.5c-0.3,0-0.6-0.3-0.6-0.6V4.1c0-0.3,0.3-0.6,0.6-0.6h10.8c0.3,0,0.6,0.3,0.6,0.6v10.8
	c0,0.3-0.3,0.6-0.6,0.6H4.1z"/>
<path class="st1" d="M14.9,4C15,4,15,4,14.9,4L15,14.9c0,0,0,0.1-0.1,0.1H4.1C4,15,4,15,4,14.9V4.1C4,4,4,4,4.1,4H14.9 M14.9,3H4.1
	C3.5,3,3,3.5,3,4.1v10.8C3,15.5,3.5,16,4.1,16h10.8c0.6,0,1.1-0.5,1.1-1.1V4.1C16,3.5,15.5,3,14.9,3L14.9,3z"/>
<path class="st2" d="M5.5,9l2.3,2.3L13,6.1"/>
</svg>
