<svg xmlns="http://www.w3.org/2000/svg" viewBox="0 0 16 16"><path fill="#a3b7cc" d="M11 14L3 14 3 4 4 4 4 13 11 13z"></path><path fill="#a3b7cc" d="M3 7H11V8H3z"></path><path fill="#f5ce85" d="M0.5 4.5L0.5 0.5 1.793 0.5 2.793 1.5 5.5 1.5 5.5 4.5z"></path><path fill="#967a44" d="M1.586,1l0.707,0.707L2.586,2H3h2v2H1V1H1.586 M2,0H0v5h6V1H3L2,0L2,0z"></path><path fill="#f5ce85" d="M10.5 9.5L10.5 5.5 11.793 5.5 12.793 6.5 15.5 6.5 15.5 9.5z"></path><path fill="#967a44" d="M11.586,6l0.707,0.707L12.586,7H13h2v2h-4V6H11.586 M12,5h-2v5h6V6h-3L12,5L12,5z"></path><path fill="#f5ce85" d="M10.5 15.5L10.5 11.5 11.793 11.5 12.793 12.5 15.5 12.5 15.5 15.5z"></path><path fill="#967a44" d="M11.586,12l0.707,0.707L12.586,13H13h2v2h-4v-3H11.586 M12,11h-2v5h6v-4h-3L12,11L12,11z"></path><g><path fill="#f5ce85" d="M10.5 6.5L10.5 5.5 11.793 5.5 12.5 6.207 12.5 6.5z"></path><path fill="#967a44" d="M12 5L10 5 10 7 13 7 13 6 12 5z"></path></g><g><path fill="#f5ce85" d="M0.5 1.5L0.5 0.5 1.793 0.5 2.5 1.207 2.5 1.5z"></path><path fill="#967a44" d="M2 0L0 0 0 2 3 2 3 1 2 0z"></path></g><g><path fill="#f5ce85" d="M10.5 12.5L10.5 11.5 11.793 11.5 12.5 12.207 12.5 12.5z"></path><path fill="#967a44" d="M12 11L10 11 10 13 13 13 13 12 12 11z"></path></g></svg>