<?xml version="1.0" encoding="utf-8"?>
<!-- Generator: Adobe Illustrator 22.1.0, SVG Export Plug-In . SVG Version: 6.00 Build 0)  -->
<svg version="1.2" baseProfile="tiny" id="katman_1"
	 xmlns="http://www.w3.org/2000/svg" xmlns:xlink="http://www.w3.org/1999/xlink" x="0px" y="0px" viewBox="0 0 16 16"
	 xml:space="preserve">
<path fill="#F2FAFF" d="M15.5,13.5c0,1.1-0.9,2-2,2h-11c-1.1,0-2-0.9-2-2v-11c0-1.1,0.9-2,2-2h11c1.1,0,2,0.9,2,2V13.5z"/>
<path fill="#788B9C" d="M1,2.5C1,1.7,1.7,1,2.5,1h11C14.3,1,15,1.7,15,2.5v11c0,0.8-0.7,1.5-1.5,1.5h-11C1.7,15,1,14.3,1,13.5V2.5
	 M0,2.5v11C0,14.9,1.1,16,2.5,16h11c1.4,0,2.5-1.1,2.5-2.5v-11C16,1.1,14.9,0,13.5,0h-11C1.1,0,0,1.1,0,2.5L0,2.5z"/>
<path fill="#67798E" d="M8,4C6.1,4,5.5,4.3,4.2,4.9C3.6,5.2,3,5.5,2.7,6C2.3,6.4,2,6.9,2,7.5S2.3,8.6,2.7,9C3,9.5,3.6,9.8,4.2,10.1
	c1.1,0.5,1.4,0.8,2.9,0.9v2l2.2-2.5L7.1,8v2C5.7,9.9,5.4,9.6,4.5,9.2C4,8.9,3.5,8.6,3.3,8.3S2.9,7.7,2.9,7.5S3,7,3.3,6.7
	S4,6.1,4.5,5.8C5.6,5.3,6.2,5,8,5s2.4,0.3,3.5,0.8c0.6,0.3,1,0.6,1.3,0.9s0.4,0.6,0.4,0.8c0,0.3-0.2,0.7-0.8,1.1
	c-0.5,0.4-1.2,0.7-2.1,0.9c-0.2,0.1-0.4,0.1-0.6,0.2v1c0.2,0,0.4-0.1,0.5-0.1l0,0c0.1,0,0.1,0,0.2-0.1h0.1l0,0
	c0.9-0.3,1.7-0.6,2.3-1.1C13.5,9,14,8.3,14,7.5c0-0.6-0.3-1.1-0.7-1.5s-0.9-0.8-1.5-1.1C10.5,4.3,9.9,4,8,4z"/>
</svg>
