<svg xmlns="http://www.w3.org/2000/svg" viewBox="0 0 16 16"><path fill="#e1ebf2" d="M7.5,9.5c-1.103,0-2-0.897-2-2v-5c0-1.103,0.897-2,2-2s2,0.897,2,2v5C9.5,8.603,8.603,9.5,7.5,9.5z"></path><path fill="#788b9c" d="M7.5,1C8.327,1,9,1.673,9,2.5v5C9,8.327,8.327,9,7.5,9S6,8.327,6,7.5v-5C6,1.673,6.673,1,7.5,1 M7.5,0C6.125,0,5,1.125,5,2.5v5C5,8.875,6.125,10,7.5,10S10,8.875,10,7.5v-5C10,1.125,8.875,0,7.5,0L7.5,0z"></path><path fill="#f78f8f" d="M7.5,15.5c-1.654,0-3-1.346-3-3c0-0.786,0.305-1.529,0.857-2.095L5.5,10.26V5.5h4v4.76l0.143,0.146 c0.553,0.565,0.857,1.309,0.857,2.095C10.5,14.154,9.154,15.5,7.5,15.5z"></path><path fill="#c74343" d="M9,6v4.056v0.408l0.285,0.291C9.746,11.226,10,11.846,10,12.5c0,1.378-1.121,2.5-2.5,2.5 S5,13.878,5,12.5c0-0.654,0.254-1.274,0.715-1.745L6,10.463v-0.408V6H9 M10,5H5v5.056c-0.617,0.631-1,1.492-1,2.444 C4,14.433,5.567,16,7.5,16s3.5-1.567,3.5-3.5c0-0.952-0.383-1.813-1-2.444V5L10,5z"></path><path fill="#788b9c" d="M7 3H9V4H7z"></path><path fill="#c74343" d="M7 7H9V8H7zM7 9H10V10H7z"></path></svg>