<?xml version="1.0" encoding="utf-8"?>
<!-- Generator: Adobe Illustrator 22.1.0, SVG Export Plug-In . SVG Version: 6.00 Build 0)  -->
<svg version="1.2" baseProfile="tiny" id="katman_1"
	 xmlns="http://www.w3.org/2000/svg" xmlns:xlink="http://www.w3.org/1999/xlink" x="0px" y="0px" viewBox="0 0 16 16"
	 xml:space="preserve">
<path fill="#66798F" d="M0,15h15V0H0V15z M14.1,1v13H0.9V1H14.1z"/>
<rect x="2" y="2" fill="#66798F" width="3" height="3"/>
<rect x="6" y="2" fill="#66798F" width="3" height="3"/>
<rect x="10" y="2" fill="#66798F" width="3" height="3"/>
<rect x="2" y="6" fill="#66798F" width="3" height="3"/>
<rect x="6" y="6" fill="#66798F" width="3" height="3"/>
<rect x="10" y="6" fill="#66798F" width="3" height="3"/>
<rect x="2" y="10" fill="#66798F" width="3" height="3"/>
<rect x="6" y="10" fill="#66798F" width="3" height="3"/>
<rect x="10" y="10" fill="#66798F" width="3" height="3"/>
<rect x="3" y="3" fill="#B0C1D4" width="1" height="1"/>
<rect x="11" y="7" fill="#B0C1D4" width="1" height="1"/>
<rect x="7" y="7" fill="#B0C1D4" width="1" height="1"/>
<rect x="7" y="11" fill="#B0C1D4" width="1" height="1"/>
<rect x="3" y="7" fill="#B0C1D4" width="1" height="1"/>
<rect x="3" y="11" fill="#B0C1D4" width="1" height="1"/>
<rect x="11" y="3" fill="#B0C1D4" width="1" height="1"/>
<rect x="11" y="11" fill="#B0C1D4" width="1" height="1"/>
<rect x="7" y="3" fill="#B0C1D4" width="1" height="1"/>
</svg>
