<svg xmlns="http://www.w3.org/2000/svg" viewBox="0 0 16 16"><path fill="#c29653" d="M10.8,12c-1.2,0-2.9-1.2-4.3-2.6l0,0C5.6,8.5,4.9,7.5,4.4,6.6C3.8,5.3,4,4.6,4.3,4.3 c0.3-0.3,1-0.6,2.3,0.1c0.9,0.4,1.9,1.2,2.8,2.1c0.9,0.9,1.7,1.9,2.1,2.8c0.7,1.3,0.4,2,0.1,2.3C11.5,11.9,11.2,12,10.8,12z M5.2,5 C5.1,5,5,5,5,5c0,0-0.1,0.4,0.3,1.2C5.7,7,6.4,7.9,7.3,8.7l0,0c1.9,2,3.5,2.4,3.7,2.3c0.2-0.2-0.3-1.7-2.3-3.7 C7.9,6.4,7,5.7,6.2,5.3C5.6,5.1,5.3,5,5.2,5z"></path><path fill="#967a44" d="M9.7,5L9.7,5c0.5,0,0.8,0.1,1,0.3c0.3,0.3,0.4,0.9,0.3,1.6c-0.2,0.9-0.7,1.9-1.4,2.6 C8.4,10.6,7.2,11,6.3,11c-0.5,0-0.8-0.1-1-0.3C4.7,10.1,4.9,8,6.5,6.5C7.6,5.4,8.8,5,9.7,5 M9.7,4C8.4,4,7,4.6,5.8,5.8 c-1.9,1.9-2.3,4.5-1.2,5.6C5,11.8,5.6,12,6.3,12c1.2,0,2.7-0.6,3.9-1.8c1.9-1.9,2.2-4.5,1.2-5.6C11,4.2,10.4,4,9.7,4L9.7,4z"></path><path fill="#967a44" d="M8.3 7.7C7.8 7.2 7.2 6.9 7 7s.1.7.6 1.3C8.2 8.8 8.8 9.1 9 9S8.8 8.2 8.3 7.7zM14.5 1A.5.5 0 1 0 14.5 2 .5.5 0 1 0 14.5 1zM1.5 14A.5.5 0 1 0 1.5 15 .5.5 0 1 0 1.5 14z"></path><path fill="#967a44" d="M9.1 3.2H15.5V4.2H9.1z" transform="rotate(-45.001 12.266 3.735)"></path><path fill="#967a44" d="M0.6 11.8H7V12.8H0.6z" transform="rotate(-45.001 3.75 12.25)"></path><path fill="#f5c276" d="M8,15c-3.9,0-7-3.1-7-7c0-3.9,3.1-7,7-7c3.9,0,7,3.1,7,7C15,11.9,11.9,15,8,15z M8,2C4.7,2,2,4.7,2,8 s2.7,6,6,6s6-2.7,6-6S11.3,2,8,2z"></path><path fill="#c29653" d="M10,10.7c-0.7-0.3-1.6-0.9-2.7-2c-1.1-1.1-1.7-2-2-2.7H4.2c0.4,1.1,1.3,2.4,2.4,3.4s2.4,2,3.4,2.4 V10.7z"></path></svg>