<?xml version="1.0" encoding="utf-8"?>
<!-- Generator: Adobe Illustrator 22.1.0, SVG Export Plug-In . SVG Version: 6.00 Build 0)  -->
<svg version="1.2" baseProfile="tiny" id="katman_1"
	 xmlns="http://www.w3.org/2000/svg" xmlns:xlink="http://www.w3.org/1999/xlink" x="0px" y="0px" viewBox="0 0 16 16"
	 xml:space="preserve">
<path fill="#C2E8FF" d="M2.1,14.5c-0.3,0-0.6-0.3-0.6-0.6V2.1c0-0.3,0.3-0.6,0.6-0.6h11.8c0.3,0,0.6,0.3,0.6,0.6v11.8
	c0,0.3-0.3,0.6-0.6,0.6H2.1z"/>
<path fill="#7496C4" d="M13.9,2C14,2,14,2,13.9,2L14,13.9c0,0,0,0.1-0.1,0.1H2.1C2,14,2,14,2,13.9V2.1C2,2,2,2,2.1,2H13.9 M13.9,1
	H2.1C1.5,1,1,1.5,1,2.1v11.8C1,14.5,1.5,15,2.1,15h11.8c0.6,0,1.1-0.5,1.1-1.1V2.1C15,1.5,14.5,1,13.9,1L13.9,1z"/>
</svg>
