<?xml version="1.0" encoding="utf-8"?>
<!-- Generator: Adobe Illustrator 22.1.0, SVG Export Plug-In . SVG Version: 6.00 Build 0)  -->
<svg version="1.2" baseProfile="tiny" id="katman_1"
	 xmlns="http://www.w3.org/2000/svg" xmlns:xlink="http://www.w3.org/1999/xlink" x="0px" y="0px" viewBox="0 0 16 16"
	 xml:space="preserve">
<path fill="#839CB2" d="M0,15h15.8v1H0V15z"/>
<path fill="#66798F" d="M15.8,15H0v1h15.8V15z"/>
<g>
	<path fill="#D6E3ED" d="M0.5,14.5l0-3c0-0.8,1.8-1,2.8-1.2l10.2-2.9c0.1,0,0.2,0,0.2,0c0.8,0,1.5,0.6,1.6,1.4l0,0.7L4.5,12.3
		c0,0-0.1-0.5-0.1-0.4c0,0.9,0.6,1.5,1.5,1.5h9.4v1H0.5z"/>
	<path fill="#A3B7CC" d="M14.5,8.1c0.5,0,0.2,0.1,0.3,0.6l0,0.4l-9.2,2.5l-1.4,0.5l-1,0.3c0,0-2,0.5-2,0.7c0,1.2,2.3,1,4.7,0.8h8.9
		v0L2,13l-0.4-1.2c1.4-0.4,0.6-0.2,1.7-0.5l10.3-2.9c0.1,0,0.3-0.1,0.4-0.1 M14.6,7.1c-0.1,0-0.9,0.2-1,0.2L3.4,9.9
		C2.2,10.1,0,10.5,0,11.7L0,15h15.8v-2H5.9c-0.6,0-0.2-0.2-0.7,0l-0.5,0.2C4.4,14,5.1,13,5.1,13L16,9.9l-0.1-1.3C15.8,7.6,16,7,15,7
		L14.6,7.1z"/>
</g>
<polygon fill="#A3B7CC" points="5.5,14.8 0.7,14.8 0.6,13.3 5.4,13.3 "/>
<path fill="#8B75A1" d="M8.6,8l2.2-2.2H6.5L8.6,8z M9.2,5.8H8.1C8.1,3.2,11,1,14.5,1v1.1C11.6,2.1,9.2,3.7,9.2,5.8z"/>
</svg>
