<?xml version="1.0" encoding="utf-8"?>
<!-- Generator: Adobe Illustrator 22.1.0, SVG Export Plug-In . SVG Version: 6.00 Build 0)  -->
<svg version="1.2" baseProfile="tiny" id="katman_1"
	 xmlns="http://www.w3.org/2000/svg" xmlns:xlink="http://www.w3.org/1999/xlink" x="0px" y="0px" viewBox="0 0 16 16"
	 xml:space="preserve">
<path fill="#99C99E" d="M10.5,15.5c-2.8,0-5-2-5-4.5s2.2-4.5,5-4.5s5,2,5,4.5c0,1-0.4,1.9-1,2.7L14.2,14l0.1,0.3
	c0.2,0.4,0.4,0.8,0.6,1.1c-0.5-0.1-1.1-0.3-1.7-0.5L13,14.8l-0.2,0.1C12.2,15.3,11.4,15.5,10.5,15.5z"/>
<path fill="#5E9C76" d="M10.5,7C13,7,15,8.8,15,11c0,0.9-0.3,1.7-0.9,2.4l-0.4,0.5l0.3,0.6c0,0,0,0.1,0.1,0.1
	c-0.2-0.1-0.3-0.1-0.5-0.2l-0.4-0.2l-0.4,0.2C12,14.8,11.3,15,10.5,15C8,15,6,13.2,6,11S8,7,10.5,7 M10.5,6C7.5,6,5,8.2,5,11
	s2.5,5,5.5,5c1,0,1.9-0.2,2.7-0.6c0.9,0.4,1.9,0.6,2.8,0.6c-0.4-0.6-0.8-1.3-1.2-1.9c0.7-0.8,1.2-1.9,1.2-3.1C16,8.2,13.5,6,10.5,6
	L10.5,6z"/>
<path fill="#8BB7F0" d="M1,9.7c0.2-0.4,0.5-0.8,0.7-1.3l0.1-0.3L1.6,7.8C0.9,7,0.5,6,0.5,5c0-2.5,2.2-4.5,5-4.5s5,2,5,4.5
	s-2.2,4.5-5,4.5C4.8,9.5,4,9.4,3.4,9.1L3.2,9L3,9.1C2.3,9.4,1.6,9.6,1,9.7z"/>
<path fill="#4E7AB5" d="M5.5,1C8,1,10,2.8,10,5S8,9,5.5,9C4.8,9,4.2,8.9,3.6,8.6L3.2,8.4L2.8,8.6C2.5,8.7,2.3,8.8,2,8.9
	c0-0.1,0.1-0.2,0.1-0.3L2.5,8L2,7.5C1.3,6.8,1,5.9,1,5C1,2.8,3,1,5.5,1 M5.5,0C2.5,0,0,2.2,0,5c0,1.2,0.5,2.3,1.3,3.2
	C0.9,8.9,0.5,9.7,0,10.3c1,0,2.2-0.3,3.2-0.8C3.9,9.8,4.7,10,5.5,10c3,0,5.5-2.2,5.5-5S8.5,0,5.5,0L5.5,0z"/>
</svg>
