<?xml version="1.0" encoding="utf-8"?>
<!-- Generator: Adobe Illustrator 22.1.0, SVG Export Plug-In . SVG Version: 6.00 Build 0)  -->
<svg version="1.2" baseProfile="tiny" id="katman_1"
	 xmlns="http://www.w3.org/2000/svg" xmlns:xlink="http://www.w3.org/1999/xlink" x="0px" y="0px" viewBox="0 0 16 16"
	 xml:space="preserve">
<path fill="#C2E8FF" d="M1.1,15.6c-0.4,0-0.7-0.3-0.7-0.7V1.1c0-0.4,0.3-0.7,0.7-0.7h13.8c0.4,0,0.7,0.3,0.7,0.7v13.8
	c0,0.4-0.3,0.7-0.7,0.7H1.1z"/>
<path fill="#8BB7F0" d="M12,6.5c-1.4,0-2.5,1.1-2.5,2.5s1.1,2.5,2.5,2.5s2.5-1.1,2.5-2.5S13.4,6.5,12,6.5z"/>
<path fill="#4E7AB5" d="M12,7c1.1,0,2,0.9,2,2s-0.9,2-2,2s-2-0.9-2-2S10.9,7,12,7 M12,6c-1.7,0-3,1.3-3,3s1.3,3,3,3s3-1.3,3-3
	S13.7,6,12,6L12,6z"/>
<path fill="#8BB7F0" d="M4,6.5C2.6,6.5,1.5,7.6,1.5,9s1.1,2.5,2.5,2.5S6.5,10.4,6.5,9S5.4,6.5,4,6.5z"/>
<path fill="#4E7AB5" d="M4,7c1.1,0,2,0.9,2,2s-0.9,2-2,2s-2-0.9-2-2S2.9,7,4,7 M4,6C2.3,6,1,7.3,1,9s1.3,3,3,3s3-1.3,3-3S5.7,6,4,6
	L4,6z"/>
<path fill="#F78F8F" d="M0,8.7L0,8.7C0.2,6.6,1.9,5,4,5c1.3,0,2.4,0.6,3.2,1.6L8,7.7l0.8-1.1C9.6,5.6,10.7,5,12,5
	c2.1,0,3.8,1.6,4,3.7h0V6c-0.9-1.2-2.4-2-4-2S8.9,4.8,8,6C7.1,4.8,5.6,4,4,4S0.9,4.8,0,6V8.7z"/>
<path fill="#F78F8F" d="M1,3.8C1.9,3.3,2.9,3,4,3c1.2,0,2.4,0.4,3.4,1.1L8,4.5l0.6-0.4C9.6,3.4,10.8,3,12,3c1.1,0,2.1,0.3,3,0.8V2.7
	C14.1,2.2,13.1,2,12,2c-1.5,0-2.9,0.5-4,1.3C6.9,2.5,5.5,2,4,2C2.9,2,1.9,2.2,1,2.7V3.8z"/>
<path fill="#7496C4" d="M14.8,1.1C14.8,1.1,14.9,1.2,14.8,1.1l0.1,13.6c0,0,0,0.1-0.1,0.1H1.2c0,0-0.1,0-0.1-0.1V1.2
	c0,0,0-0.1,0.1-0.1H14.8 M14.8,0H1.2C0.6,0,0,0.6,0,1.2v13.5C0,15.4,0.6,16,1.2,16h13.5c0.7,0,1.2-0.6,1.2-1.2V1.2
	C16,0.6,15.4,0,14.8,0L14.8,0z"/>
</svg>
