<?xml version="1.0" encoding="utf-8"?>
<!-- Generator: Adobe Illustrator 22.1.0, SVG Export Plug-In . SVG Version: 6.00 Build 0)  -->
<svg version="1.2" baseProfile="tiny" id="katman_1"
	 xmlns="http://www.w3.org/2000/svg" xmlns:xlink="http://www.w3.org/1999/xlink" x="0px" y="0px" viewBox="0 0 16 16"
	 xml:space="preserve">
<path fill="#BAE0BD" d="M12,12c-0.1-0.1,0.1,0.1,0.2,0.2c0.1,0,0.2,0.1,0.3,0.2c0,0,0,0,0,0c1.2-1.3,2-3,2-4.9c0-3.9-3.1-7-7-7
	s-7,3.1-7,7c0,1.9,0.8,3.6,2,4.8c0.9-1.1,1.7-2.2,2.5-3.3c-0.3-0.5-0.5-1-0.5-1.6c0-1.7,1.3-3,3-3s3,1.3,3,3c0,0.8-0.3,1.4-0.7,1.9
	c0.3,0.2,0.6,0.5,0.8,0.8c0.4,0.4,0.8,0.9,1.1,1.4C11.8,11.7,11.9,11.8,12,12z"/>
<path fill="#5E9C76" d="M14,7.5c0,1.8-0.7,3.4-1.9,4.6c0,0,0.1,0.1,0.1,0.1c0.1,0,0.2,0.1,0.3,0.2c0.1,0.1,0.3,0.3,0.4,0.4
	c1.3-1.4,2.1-3.2,2.1-5.2C15,3.4,11.6,0,7.5,0S0,3.4,0,7.5c0,2,0.8,3.9,2.1,5.2c0.2-0.3,0.4-0.5,0.6-0.8C1.7,10.8,1,9.2,1,7.5
	C1,3.9,3.9,1,7.5,1S14,3.9,14,7.5z"/>
<path fill="#5E9C76" d="M7.5,4C5.6,4,4,5.6,4,7.5c0,0.7,0.2,1.4,0.6,2c0.2-0.3,0.4-0.6,0.6-0.8C5.1,8.3,5,7.9,5,7.5
	C5,6.1,6.1,5,7.5,5S10,6.1,10,7.5c0,0.6-0.3,1.2-0.6,1.7c0.3,0.2,0.5,0.4,0.8,0.6C10.7,9.2,11,8.4,11,7.5C11,5.6,9.4,4,7.5,4z"/>
<path fill="#BAE0BD" d="M12,12c-0.1-0.1,0.1,0.1,0.2,0.2c0.1,0,0.2,0.1,0.3,0.2c0,0,0,0,0,0c1.2-1.3,2-3,2-4.9c0-3.9-3.1-7-7-7
	s-7,3.1-7,7c0,1.9,0.8,3.6,2,4.8c0.9-1.1,1.7-2.2,2.5-3.3c-0.3-0.5-0.5-1-0.5-1.6c0-1.7,1.3-3,3-3s3,1.3,3,3c0,0.8-0.3,1.4-0.7,1.9
	c0.3,0.2,0.6,0.5,0.8,0.8c0.4,0.4,0.8,0.9,1.1,1.4C11.8,11.7,11.9,11.8,12,12z"/>
<path fill="#5E9C76" d="M14,7.5c0,1.8-0.7,3.4-1.9,4.6c0,0,0.1,0.1,0.1,0.1c0.1,0,0.2,0.1,0.3,0.2c0.1,0.1,0.3,0.3,0.4,0.4
	c1.3-1.4,2.1-3.2,2.1-5.2C15,3.4,11.6,0,7.5,0S0,3.4,0,7.5c0,2,0.8,3.9,2.1,5.2c0.2-0.3,0.4-0.5,0.6-0.8C1.7,10.8,1,9.2,1,7.5
	C1,3.9,3.9,1,7.5,1S14,3.9,14,7.5z"/>
<path fill="#5E9C76" d="M7.5,4C5.6,4,4,5.6,4,7.5c0,0.7,0.2,1.4,0.6,2c0.2-0.3,0.4-0.6,0.6-0.8C5.1,8.3,5,7.9,5,7.5
	C5,6.1,6.1,5,7.5,5S10,6.1,10,7.5c0,0.6-0.3,1.2-0.6,1.7c0.3,0.2,0.5,0.4,0.8,0.6C10.7,9.2,11,8.4,11,7.5C11,5.6,9.4,4,7.5,4z"/>
<g>
	<path fill="#8BB7F0" d="M9.9,9.2c0.4-0.5,0.6-1.1,0.6-1.7c0-0.2,0-0.3,0-0.5l3.9-0.7c0,0.1,0.1,0.4,0.1,0.4c0,0.3,0,0.5,0,0.8
		c0,0.2,0,0.5,0,0.7c-0.1,0.9-0.4,1.8-0.8,2.6c-0.2,0.4-0.5,0.9-0.9,1.2L9.9,9.2z"/>
	<path fill="#4E7AB5" d="M14.9,6.7c0-0.1,0-0.2,0-0.3c0-0.2-0.1-0.4-0.1-0.6c0,0,0-0.1,0-0.1l-5,0.9C9.9,6.9,10,7.2,10,7.5
		c0,0.6-0.2,1.2-0.6,1.7c0.5,0.3,0.9,0.7,1.2,1.1c0.4,0.4,0.8,0.9,1.1,1.4c0.1,0.1,0.2,0.2,0.3,0.3c-0.1-0.1,0.1,0.1,0.2,0.2
		c0.1,0,0.2,0.1,0.3,0.2c0.1,0.1,0.3,0.3,0.4,0.4c0.5-0.5,0.9-1.1,1.2-1.7c0.5-0.8,0.8-1.8,0.9-2.8c0-0.3,0-0.5,0-0.8
		C15,7.2,15,6.9,14.9,6.7z M14,8.2c-0.1,0.9-0.3,1.7-0.8,2.4c-0.1,0.3-0.3,0.5-0.5,0.7l-2.2-2.2C10.9,8.7,11,8.1,11,7.5
		c0,0,0-0.1,0-0.1l3-0.5c0,0.2,0,0.4,0,0.6C14,7.7,14,7.9,14,8.2z"/>
</g>
<g>
	<path fill="#FFC49C" d="M10.5,7C10.2,5.7,9.3,4.8,8,4.5v-4c3.5,0.2,6.2,3,6.5,6.5H10.5z"/>
	<path fill="#A16A4A" d="M8.5,1.1c2.8,0.4,5,2.6,5.4,5.4h-3.1c-0.3-1.1-1.2-2-2.4-2.4V1.1 M7.5,0v5C8.9,5,10,6.1,10,7.5h5
		C15,3.4,11.6,0,7.5,0L7.5,0z"/>
</g>
<line fill="#5E9C76" stroke="#5E9C76" stroke-miterlimit="10" x1="5.3" y1="8.6" x2="1.9" y2="12.2"/>
<line fill="#4E7AB5" stroke="#4E7AB5" stroke-miterlimit="10" x1="9.5" y1="9" x2="13.1" y2="12.3"/>
</svg>
