<svg xmlns="http://www.w3.org/2000/svg" viewBox="0 0 16 16"><path fill="#66798f" d="M6.5 -3.1H7.5V6.1H6.5z" transform="rotate(-77.473 7 1.5)"></path><path fill="#66798f" d="M11.5 2A1.5 1.5 0 1 0 11.5 5 1.5 1.5 0 1 0 11.5 2zM0 12L0 15 2 15 2 14 14 14 14 15 16 15 16 12z"></path><path fill="#b0c1d4" d="M0.5,13.5v-9c0-0.6,0.4-1,1-1h13c0.6,0,1,0.4,1,1v9H0.5z"></path><path fill="#66798f" d="M14.5,4C14.8,4,15,4.2,15,4.5V13H1V4.5C1,4.2,1.2,4,1.5,4H14.5 M14.5,3h-13C0.7,3,0,3.7,0,4.5V14 h16V4.5C16,3.7,15.3,3,14.5,3L14.5,3z"></path><path fill="#66798f" d="M3 5H13V6H3zM3 7H13V8H3z"></path><path fill="#fff" d="M4 9.5H12V11.5H4z"></path><path fill="#66798f" d="M11.5,10v1h-7v-1H11.5 M12.5,9h-9v3h9V9L12.5,9z"></path><path fill="#dbf2ff" d="M12.5 9.5A1 1 0 1 0 12.5 11.5A1 1 0 1 0 12.5 9.5Z"></path><path fill="#66798f" d="M12.5,10c0.3,0,0.5,0.2,0.5,0.5S12.8,11,12.5,11S12,10.8,12,10.5S12.2,10,12.5,10 M12.5,9 C11.7,9,11,9.7,11,10.5s0.7,1.5,1.5,1.5s1.5-0.7,1.5-1.5S13.3,9,12.5,9L12.5,9z"></path><g><path fill="#dbf2ff" d="M3.5 9.5A1 1 0 1 0 3.5 11.5A1 1 0 1 0 3.5 9.5Z"></path><path fill="#66798f" d="M3.5,10C3.8,10,4,10.2,4,10.5S3.8,11,3.5,11S3,10.8,3,10.5S3.2,10,3.5,10 M3.5,9 C2.7,9,2,9.7,2,10.5S2.7,12,3.5,12S5,11.3,5,10.5S4.3,9,3.5,9L3.5,9z"></path></g><path fill="#c74343" d="M9 10H10V11H9z"></path></svg>