<svg xmlns="http://www.w3.org/2000/svg" viewBox="0 0 16 16"><path fill="#f78f8f" d="M13.6 2.5H14.6V9.5H13.6z" transform="rotate(-17.529 14.109 6.07)"></path><path fill="#f78f8f" d="M1.4 6.4H2.4V13.4H1.4z" transform="rotate(-17.529 1.892 9.93)"></path><path fill="#b0c1d4" d="M6.4,15.5c-0.2,0-0.4-0.1-0.5-0.4L2.2,3.4C2.1,3.1,2.3,2.8,2.5,2.7l6.9-2.2c0.1,0,0.1,0,0.2,0 c0.2,0,0.4,0.1,0.5,0.4l3.7,11.8c0.1,0.3-0.1,0.6-0.3,0.7l-6.9,2.2C6.5,15.5,6.5,15.5,6.4,15.5z"></path><path fill="#66798f" d="M9.6,1L9.6,1l3.7,11.8L6.4,15L2.7,3.2L9.6,1C9.6,1,9.6,1,9.6,1 M9.6,0C9.5,0,9.4,0,9.3,0L2.4,2.2 C1.9,2.4,1.6,3,1.7,3.5l3.7,11.8C5.6,15.7,6,16,6.4,16c0.1,0,0.2,0,0.3,0l6.9-2.2c0.5-0.2,0.8-0.7,0.7-1.3L10.6,0.7 C10.4,0.3,10,0,9.6,0L9.6,0z"></path><path fill="#f2faff" d="M3.8 3.3H12.100000000000001V12.2H3.8z" transform="rotate(-17.536 7.923 7.755)"></path><path fill="#66798f" d="M10.2,2.9l2.4,7.5l-6.9,2.2L3.3,5.1L10.2,2.9 M10.8,1.6L2,4.4l3,9.4l8.8-2.8L10.8,1.6L10.8,1.6z"></path><path fill="#66798f" d="M8.8 13.1H10.9V14.1H8.8z" transform="rotate(-17.565 9.783 13.642)"></path></svg>