<svg xmlns="http://www.w3.org/2000/svg" viewBox="0 0 16 16"><path fill="#fff" d="M0.5 4.5H13.5V15.5H0.5z"></path><path fill="#788b9c" d="M13,5v10H1V5H13 M14,4H0v12h14V4L14,4z"></path><path fill="#c8d1db" d="M0.5,4.5V3c0-0.3,0.2-0.5,0.5-0.5h12c0.3,0,0.5,0.2,0.5,0.5v1.5H0.5z"></path><path fill="#66798f" d="M13,3v1H1V3H13 M13,2H1C0.4,2,0,2.4,0,3v2h14V3C14,2.4,13.6,2,13,2L13,2z"></path><path fill="#fff" d="M2.5 2.5H15.5V13.5H2.5z"></path><path fill="#788b9c" d="M15,3v10H3V3H15 M16,2H2v12h14V2L16,2z"></path><path fill="#c8d1db" d="M2.5,2.5V1c0-0.3,0.2-0.5,0.5-0.5h12c0.3,0,0.5,0.2,0.5,0.5v1.5H2.5z"></path><path fill="#66798f" d="M15,1v1H3V1H15 M15,0H3C2.4,0,2,0.4,2,1v2h14V1C16,0.4,15.6,0,15,0L15,0z"></path><path fill="#788b9c" d="M7 5H13V6H7zM7 7H13V8H7zM7 9H13V10H7zM5 5H6V6H5zM5 7H6V8H5zM5 9H6V10H5z"></path></svg>