<svg xmlns="http://www.w3.org/2000/svg" viewBox="0 0 16 16"><path fill="#fff" d="M0.5 5.5H15.5V10.5H0.5z"></path><path fill="#788b9c" d="M15,6v4H1V6H15 M16,5H0v6h16V5L16,5z"></path><path fill="#c2e8ff" d="M2 7H8V9H2z"></path><path fill="#36404d" d="M15,14h-1.5c-1.4,0-2.5-1.1-2.5-2.5v-7C11,3.1,12.1,2,13.5,2H15v1h-1.5C12.7,3,12,3.7,12,4.5v7 c0,0.8,0.7,1.5,1.5,1.5H15V14z"></path><path fill="#36404d" d="M9.5,14H8v-1h1.5c0.8,0,1.5-0.7,1.5-1.5v-7C11,3.7,10.3,3,9.5,3H8V2h1.5C10.9,2,12,3.1,12,4.5v7 C12,12.9,10.9,14,9.5,14z"></path></svg>