<?xml version="1.0" encoding="utf-8"?>
<!-- Generator: Adobe Illustrator 22.1.0, SVG Export Plug-In . SVG Version: 6.00 Build 0)  -->
<svg version="1.2" baseProfile="tiny" id="katman_1"
	 xmlns="http://www.w3.org/2000/svg" xmlns:xlink="http://www.w3.org/1999/xlink" x="0px" y="0px" viewBox="0 0 16 16"
	 xml:space="preserve">
<path fill="#8BB7F0" d="M0.5,5.5h14v5h-14V5.5z"/>
<path fill="#4E7AB5" d="M14,6v4H1V6H14 M15,5H0v6h15V5L15,5z"/>
<path fill="#C2E8FF" d="M3,7C2.4,7,2,7.4,2,8s0.4,1,1,1s1-0.4,1-1S3.6,7,3,7z M5,7h2v2H5V7z M9,7C8.5,7,8,7.4,8,8s0.4,1,1,1
	s1-0.4,1-1S9.6,7,9,7z M11,7h2v2h-2V7z"/>
</svg>
