<svg xmlns="http://www.w3.org/2000/svg" viewBox="0 0 16 16"><path fill="#f78f8f" d="M0.5 0.5H6.5V4.5H0.5z"></path><path fill="#c74343" d="M6,1v3H1V1H6 M7,0H0v5h7V0L7,0z"></path><path fill="#8bb7f0" d="M9.5 11.5H15.5V15.5H9.5z"></path><path fill="#4e7ab5" d="M15,12v3h-5v-3H15 M16,11H9v5h7V11L16,11z"></path><path fill="#66798f" d="M9 13L4 13 4 5 3 5 3 14 9 14z"></path><path fill="#66798f" d="M5.5 4.5H6.5V10.5H5.5z" transform="rotate(-90 6 7.5)"></path><g><path fill="#8bb7f0" d="M9.5 5.5H15.5V9.5H9.5z"></path><path fill="#4e7ab5" d="M15,6v3h-5V6H15 M16,5H9v5h7V5L16,5z"></path></g></svg>