<svg xmlns="http://www.w3.org/2000/svg" viewBox="0 0 16 16"><path fill="#967a44" d="M5.6 2H11.3V3H5.6z" transform="rotate(-45.001 8.487 2.513)"></path><path fill="#967a44" d="M10.6 7H16.3V8H10.6z" transform="rotate(-45.001 13.487 7.513)"></path><path fill="#b0c1d4" d="M0.9 11.9H5.1000000000000005V14.2H0.9z" transform="rotate(-45.001 3 13)"></path><path fill="#66798f" d="M3.7,11.4l0.9,0.9l-2.3,2.3l-0.9-0.9L3.7,11.4 M3.7,10L0,13.7L2.3,16L6,12.3L3.7,10L3.7,10z"></path><path fill="#b0c1d4" d="M0.8 13.4H3V14.700000000000001H0.8z" transform="rotate(-45.001 1.939 14.06)"></path><path fill="#b0c1d4" d="M6.5,14.9c-0.5,0-1-0.2-1.4-0.6l-3.5-3.5C1.3,10.5,1.1,10,1.1,9.5c0-0.5,0.2-1,0.6-1.4L3.7,6 c0.4-0.4,0.6-0.9,0.5-1.4l7.2,7.2c-0.1,0-0.1,0-0.2,0c-0.5,0-0.9,0.2-1.2,0.5l-2.1,2.1C7.5,14.7,7.1,14.9,6.5,14.9z"></path><path fill="#66798f" d="M4.5,5.7l5.8,5.8c-0.3,0.1-0.5,0.3-0.7,0.5L7.6,14c-0.3,0.3-0.6,0.4-1,0.4s-0.7-0.1-1-0.4L2,10.5 c-0.3-0.3-0.4-0.6-0.4-1s0.1-0.7,0.4-1l2.1-2.1C4.3,6.2,4.4,5.9,4.5,5.7 M3.8,3.5L3.3,3.9c0.5,0.5,0.5,1.3,0,1.7L1.3,7.7 c-1,1-1,2.5,0,3.5l3.5,3.5c0.5,0.5,1.1,0.7,1.7,0.7s1.3-0.2,1.7-0.7l2.1-2.1c0.2-0.2,0.6-0.4,0.9-0.4c0.3,0,0.6,0.1,0.9,0.4 l0.4-0.4L3.8,3.5L3.8,3.5z"></path><g><path fill="#b0c1d4" d="M7.6 1H9.8V13.6H7.6z" transform="rotate(-45.001 8.73 7.27)"></path><path fill="#66798f" d="M5.1,2.8l8.2,8.2l-0.8,0.8L4.2,3.6L5.1,2.8 M5.1,1.3L2.8,3.6l9.6,9.6l2.3-2.3L5.1,1.3L5.1,1.3z"></path></g><path fill="#66798f" d="M5.7 12.6L6.9 10.3 5.7 9.8 5.7 8 4.6 10.3 5.7 10.8z"></path></svg>