<?xml version="1.0" encoding="utf-8"?>
<!-- Generator: Adobe Illustrator 23.1.1, SVG Export Plug-In . SVG Version: 6.00 Build 0)  -->
<svg version="1.1" id="katman_1" xmlns="http://www.w3.org/2000/svg" xmlns:xlink="http://www.w3.org/1999/xlink" x="0px" y="0px"
	 viewBox="0 0 60 60" style="enable-background:new 0 0 60 60;" xml:space="preserve">
<style type="text/css">
	.st0{fill:#BAE0BD;}
	.st1{fill:#5E9C76;}
</style>
<g>
	<path class="st0" d="M14.5,47.5v-27c0-8.3,7-15,15.5-15c8.4,0,15.5,7.1,15.5,15.4v26.6H14.5z"/>
	<path class="st1" d="M30,6c8.2,0,15,7,15,14.9V47H15V20.5C15,12.5,21.8,6,30,6 M30,5c-8.8,0-16,6.9-16,15.5V47v1h1h30h1v-1V20.9
		C46,12.3,38.7,5,30,5L30,5z"/>
</g>
<path class="st1" d="M36,12c-1.1,0-2,0.9-2,2s0.9,2,2,2c1.1,0,2-0.9,2-2S37.1,12,36,12z M24,12c-1.1,0-2,0.9-2,2s0.9,2,2,2
	s2-0.9,2-2S25,12,24,12z"/>
<g>
	<path class="st0" d="M9.5,40.5c-1.5,0-2-1.2-2-2V21.5c0-0.8,0.5-2,2-2s2,1.2,2,2v16.9C11.5,39.3,11,40.5,9.5,40.5z"/>
	<path class="st1" d="M9.5,20c1.5,0,1.5,1.5,1.5,1.5v16.9c0,0,0,1.5-1.5,1.5S8,38.5,8,38.5V21.5C8,21.5,8,20,9.5,20 M9.5,19
		C7.7,19,7,20.5,7,21.5v16.9c0,1,0.7,2.5,2.5,2.5s2.5-1.5,2.5-2.5V21.5C12,20.5,11.3,19,9.5,19L9.5,19z"/>
</g>
<g>
	<path class="st0" d="M50.5,40.5c-1.5,0-2-1.2-2-2V21.5c0-0.8,0.5-2,2-2s2,1.2,2,2v16.9C52.5,39.3,52,40.5,50.5,40.5z"/>
	<path class="st1" d="M50.5,20c1.5,0,1.5,1.5,1.5,1.5v16.9c0,0,0,1.5-1.5,1.5S49,38.5,49,38.5V21.5C49,21.5,49,20,50.5,20 M50.5,19
		c-1.8,0-2.5,1.5-2.5,2.5v16.9c0,1,0.7,2.5,2.5,2.5s2.5-1.5,2.5-2.5V21.5C53,20.5,52.3,19,50.5,19L50.5,19z"/>
</g>
<g>
	<path class="st0" d="M21,57.5c-1.4,0-2.5-1.2-2.5-2.8v-7.2h5v7.4C23.5,56.1,22.5,57.5,21,57.5z"/>
	<path class="st1" d="M23,48v6.9c0,1.1-0.8,2.1-2,2.1s-2-1.1-2-2.3V48H23 M24,47h-1h-4h-1v1v6.7c0,1.8,1.3,3.3,3,3.3
		c1.7,0,3-1.4,3-3.1V48V47L24,47z"/>
</g>
<g>
	<path class="st0" d="M39,57.5c-1.4,0-2.5-1.2-2.5-2.8v-7.2h5v7.4C41.5,56.1,40.5,57.5,39,57.5z"/>
	<path class="st1" d="M41,48v6.9c0,1.1-0.8,2.1-2,2.1s-2-1.1-2-2.3V48H41 M42,47h-1h-4h-1v1v6.7c0,1.8,1.3,3.3,3,3.3
		c1.7,0,3-1.4,3-3.1V48V47L42,47z"/>
</g>
<rect x="15" y="20" class="st1" width="30" height="1"/>
<path class="st1" d="M37.6,7.7C37.5,7.7,37.6,7.8,37.6,7.7c-0.3-0.1-0.4-0.5-0.3-0.9L40,1.5c0.3-0.5,0.8-0.3,0.8-0.3
	s0.5,0.2,0.3,0.8l-2.7,5.4C38.2,7.6,37.9,7.7,37.6,7.7z"/>
<path class="st1" d="M22.3,7.7C22.2,7.8,22.4,7.7,22.3,7.7c-0.3,0.1-0.7,0-0.9-0.3l-2.7-5.3C18.5,1.6,19,1.3,19,1.3s0.5-0.3,0.8,0.2
	l2.7,5.4C22.5,7.1,22.4,7.4,22.3,7.7z"/>
</svg>
