<?xml version="1.0" encoding="utf-8"?>
<!-- Generator: Adobe Illustrator 23.1.1, SVG Export Plug-In . SVG Version: 6.00 Build 0)  -->
<svg version="1.1" id="katman_1" xmlns="http://www.w3.org/2000/svg" xmlns:xlink="http://www.w3.org/1999/xlink" x="0px" y="0px"
	 viewBox="0 0 16 16" style="enable-background:new 0 0 16 16;" xml:space="preserve">
<style type="text/css">
	.st0{fill:#DBB065;}
	.st1{fill:#967A44;}
	.st2{fill:#F5CE85;}
	.st3{fill:#788B9C;}
	.st4{fill:#D1EDFF;}
</style>
<path class="st0" d="M0.5,13.5v-12h4.293l2,2H15.5v10H0.5z"/>
<path class="st1" d="M4.586,2l1.707,1.707L6.586,4H7h8v9H1V2H4.586 M5,1H0v13h16V3H7L5,1L5,1z"/>
<path class="st2" d="M0.5,14.5v-10h4.618l2-1H15.5v11H0.5z"/>
<path class="st1" d="M15,4v10H1V5h4h0.236l0.211-0.106L7.236,4H15 M16,3H7L5,4H0v11h16V3L16,3z"/>
<path class="st3" d="M7.917,7.983l-3.7,3.6c-0.4,0.4-0.4,0.9,0,1.3l0,0c0.4,0.4,0.9,0.4,1.3,0l3.6-3.8L7.917,7.983z"/>
<path class="st4" d="M8.5,5.5c-1.657,0-3,1.343-3,3s1.343,3,3,3s3-1.343,3-3S10.157,5.5,8.5,5.5z"/>
<path class="st3" d="M8.5,6C9.9,6,11,7.1,11,8.5S9.9,11,8.5,11S6,9.9,6,8.5S7.1,6,8.5,6 M8.5,5C6.6,5,5,6.6,5,8.5S6.6,12,8.5,12
	S12,10.4,12,8.5S10.4,5,8.5,5L8.5,5z"/>
</svg>
