<?xml version="1.0" encoding="utf-8"?>
<!-- Generator: Adobe Illustrator 23.1.1, SVG Export Plug-In . SVG Version: 6.00 Build 0)  -->
<svg version="1.1" id="katman_1" xmlns="http://www.w3.org/2000/svg" xmlns:xlink="http://www.w3.org/1999/xlink" x="0px" y="0px"
	 viewBox="0 0 16 16" style="enable-background:new 0 0 16 16;" xml:space="preserve">
<style type="text/css">
	.st0{fill:#FFFFFF;}
	.st1{fill:#788B9C;}
	.st2{fill:#D6E3ED;}
	.st3{fill:#D1EDFF;}
</style>
<path class="st0" d="M2.5,14.5v-14h7.4l3.6,3.7v10.3H2.5z"/>
<path class="st1" d="M9.7,1L13,4.4V14H3V1H9.7 M10.1,0H2v15h12V4L10.1,0L10.1,0z"/>
<path class="st0" d="M9.5,4.5v-4h0.3l3.7,3.7v0.3H9.5z"/>
<path class="st1" d="M10,1.4L12.6,4H10V1.4 M10,0H9v5h5V4L10,0L10,0z"/>
<path class="st2" d="M13.4,7.9L13,7.5V14H7.6l0.2,0.1l0.8,0.4L8.7,15H13h1v-1V7.8L13.4,7.9z"/>
<g>
	<path class="st1" d="M10.9,12l3.6,3.7c0.4,0.4,0.9,0.4,1.3,0l0,0c0.4-0.4,0.4-0.9,0-1.3L12,10.8L10.9,12z"/>
	<path class="st3" d="M8.4,11.4c0,1.7,1.3,3,3,3s3-1.3,3-3s-1.3-3-3-3S8.4,9.8,8.4,11.4z"/>
	<path class="st1" d="M8.9,11.4c0-1.4,1.1-2.5,2.5-2.5s2.5,1.1,2.5,2.5s-1.1,2.5-2.5,2.5S8.9,12.8,8.9,11.4 M7.9,11.4
		c0,1.9,1.6,3.5,3.5,3.5s3.5-1.6,3.5-3.5s-1.6-3.5-3.5-3.5S7.9,9.5,7.9,11.4L7.9,11.4z"/>
</g>
</svg>
