<?xml version="1.0" encoding="utf-8"?>
<!-- Generator: Adobe Illustrator 23.1.1, SVG Export Plug-In . SVG Version: 6.00 Build 0)  -->
<svg version="1.1" id="katman_1" xmlns="http://www.w3.org/2000/svg" xmlns:xlink="http://www.w3.org/1999/xlink" x="0px" y="0px"
	 viewBox="0 0 60 60" style="enable-background:new 0 0 60 60;" xml:space="preserve">
<style type="text/css">
	.st0{fill:#BA9B48;}
	.st1{fill:#F78F8F;}
	.st2{fill:#C74343;}
	.st3{fill:#FFEEA3;}
</style>
<path class="st0" d="M39,2c2,0,4,2,4,4s-2,4-4,4c-1,0-5.2,0-8,0C32.9,7,36.1,2,39,2 M39.2,1C33.8,1,29,11,29,11s8.8,0,10.2,0
	c2.8,0,5-2.2,5-5S42,1,39.2,1L39.2,1z"/>
<path class="st0" d="M21,2c2.9,0,6.2,5,8,8c-2.7,0-7,0-8,0c-2,0-4-2-4-4S19,2,21,2 M21,1c-2.8,0-5,2.2-5,5s2.2,5,5,5
	c1.5,0,10,0,10,0S26.4,1,21,1L21,1z"/>
<path class="st1" d="M5.5,17.5h49v37h-49V17.5z"/>
<path class="st2" d="M54,18v36H6V18H54 M55,17H5v38h50V17L55,17z"/>
<path class="st3" d="M25.5,17.5h9v37h-9V17.5z"/>
<path class="st2" d="M34,18v36h-8V18H34 M35,17H25v38h10V17L35,17z"/>
<g>
	<path class="st1" d="M3.5,10.5h53v7h-53V10.5z"/>
	<path class="st2" d="M56,11v6H4v-6h51 M57,10H3v8h54V10L57,10z"/>
</g>
<g>
	<path class="st3" d="M25.5,10.5h9v7h-9V10.5z"/>
	<path class="st2" d="M34,11v6h-8v-6H34 M35,10H25v8h10V10L35,10z"/>
</g>
</svg>
