<svg xmlns="http://www.w3.org/2000/svg" viewBox="0 0 40 40"><path fill="#ba9b48" d="M26.502,2C27.879,2,29,3.121,29,4.498s-1.121,2.498-2.498,2.498c-0.684,0-3.745,0.002-5.74,0.003 C22.12,4.92,24.471,2,26.502,2 M26.502,1C22.713,1,19,8,19,8s6.468-0.004,7.502-0.004C28.434,7.996,30,6.43,30,4.498 S28.434,1,26.502,1L26.502,1z"></path><path fill="#ba9b48" d="M13.733,2c2.02,0,4.272,2.926,5.554,4.999c-1.925-0.001-4.872-0.003-5.554-0.003 c-1.377,0-2.498-1.121-2.498-2.498S12.356,2,13.733,2 M13.733,1c-1.932,0-3.498,1.566-3.498,3.498s1.566,3.498,3.498,3.498 C14.767,7.996,21,8,21,8S17.522,1,13.733,1L13.733,1z"></path><path fill="#f78f8f" d="M3.5 12.5H36.5V37.5H3.5z"></path><path fill="#c74343" d="M36,13v24H4V13H36 M37,12H3v26h34V12L37,12z"></path><path fill="#ffeea3" d="M16.5 12.5H23.5V37.5H16.5z"></path><path fill="#c74343" d="M23,13v24h-6V13H23 M24,12h-8v26h8V12L24,12z"></path><g><path fill="#f78f8f" d="M2.5 7.5H37.5V12.5H2.5z"></path><path fill="#c74343" d="M37,8v4H3V8H37 M38,7H2v6h36V7L38,7z"></path></g><g><path fill="#ffeea3" d="M16.5 7.5H23.5V12.5H16.5z"></path><path fill="#c74343" d="M23,8v4h-6V8H23 M24,7h-8v6h8V7L24,7z"></path></g></svg>