<?xml version="1.0" encoding="utf-8"?>
<!-- Generator: Adobe Illustrator 23.1.1, SVG Export Plug-In . SVG Version: 6.00 Build 0)  -->
<svg version="1.1" id="katman_1" xmlns="http://www.w3.org/2000/svg" xmlns:xlink="http://www.w3.org/1999/xlink" x="0px" y="0px"
	 viewBox="0 0 40 40" style="enable-background:new 0 0 40 40;" xml:space="preserve">
<style type="text/css">
	.st0{fill:#F2EBE1;}
	.st1{fill:#9C8B78;}
</style>
<g>
	<path class="st0" d="M12,38.5C6.2,38.5,1.5,33.8,1.5,28V12C1.5,6.2,6.2,1.5,12,1.5h16c5.8,0,10.5,4.7,10.5,10.5v16
		c0,5.8-4.7,10.5-10.5,10.5H12z"/>
	<path class="st1" d="M28,2c5.5,0,10,4.5,10,10v16c0,5.5-4.5,10-10,10H12C6.5,38,2,33.5,2,28V12C2,6.5,6.5,2,12,2H28 M28,1H12
		C5.9,1,1,5.9,1,12v16c0,6.1,4.9,11,11,11h16c6.1,0,11-4.9,11-11V12C39,5.9,34.1,1,28,1L28,1z"/>
</g>
<g>
	<path class="st1" d="M8.7,15c0-0.5,0.4-1,1-1s1,0.4,1,1s-0.4,1-1,1S8.7,15.5,8.7,15z M9,17.7h1.4v8.1H9V17.7z"/>
	<path class="st1" d="M22.3,20.2c0,3.6-2,5.8-5.2,5.8s-5.2-2.2-5.2-5.8c0-3.6,2-5.8,5.2-5.8S22.3,16.6,22.3,20.2z M13.4,20.2
		c0,2.8,1.4,4.5,3.8,4.5s3.8-1.8,3.8-4.5c0-2.8-1.4-4.5-3.8-4.5S13.4,17.4,13.4,20.2z"/>
	<path class="st1" d="M25,22.7c0.1,1.2,1.3,2,2.9,2c1.5,0,2.6-0.8,2.6-1.9c0-1-0.7-1.5-2.2-1.9l-1.4-0.4c-2.1-0.5-3-1.4-3-3
		c0-1.9,1.6-3.2,4-3.2c2.2,0,3.9,1.3,3.9,3.2h-1.4c-0.1-1.2-1.1-2-2.6-2c-1.5,0-2.5,0.8-2.5,1.9c0,0.9,0.6,1.4,2.2,1.8l1.2,0.3
		C31,20.1,32,21,32,22.6c0,2.1-1.6,3.4-4.2,3.4c-2.4,0-4.1-1.3-4.2-3.3H25z"/>
</g>
</svg>
