<?xml version="1.0" encoding="utf-8"?>
<!-- Generator: Adobe Illustrator 23.1.1, SVG Export Plug-In . SVG Version: 6.00 Build 0)  -->
<svg version="1.1" id="katman_1" xmlns="http://www.w3.org/2000/svg" xmlns:xlink="http://www.w3.org/1999/xlink" x="0px" y="0px"
	 viewBox="0 0 40 40" style="enable-background:new 0 0 40 40;" xml:space="preserve">
<style type="text/css">
	.st0{fill:#F0F0F0;}
	.st1{fill:#6C6C6C;}
	.st2{fill:#A0A0A0;}
	.st3{fill:#F4CF84;}
	.st4{fill:#FFFFFF;}
</style>
<path class="st0" d="M18.3,15.1c1.9,0,3.8-1.5,3.8-1.5s3.7,4.5,4.2,6.5s1.2,4.2,1.2,5.7c0,1.6-0.4,2.6-0.4,2.6s-1.1-2.2-1.4,0.7
	s-1,6.4-5.6,6.4S15,32.8,15,32.8s2.8-1.3,1.9-2.2c-0.9-0.9-4.7-1.9-4.7-5.9s2.6-6.3,3-7.5s1.3-2.6,1.3-2.6L18.3,15.1z"/>
<path class="st1" d="M10.2,26.5H8.9c0-5.5,2.9-9.6,4.2-11.3c0.2-0.3,0.5-0.6,0.5-0.7c0.2-0.3,0.2-0.7,0.2-1v-1.4h1.3v1.4
	c0,0.5-0.1,1.1-0.4,1.6c-0.1,0.2-0.3,0.5-0.6,0.9C12.9,17.7,10.2,21.4,10.2,26.5z M33,27.5l-1.3-0.1c0.1-0.9,0.1-1.7,0.1-2.5
	c0-2.3-1.6-4.9-2.8-6.6c-0.3-0.4-0.5-0.8-0.8-1.1c-1.2-1.7-2.3-3.2-2.9-5.7c-0.4-1.5-0.4-2-0.5-2.5c0-0.4-0.1-0.8-0.4-1.9
	c-0.5-2.5-1-4.7-5.1-4.7c-2.2,0-3.5,1.3-4,4.1L14,6.2C14.7,2.8,16.6,1,19.4,1c5.2,0,5.8,3.2,6.4,5.8c0.3,1.2,0.3,1.7,0.4,2.1
	c0,0.4,0.1,0.9,0.4,2.3c0.5,2.3,1.5,3.6,2.7,5.2c0.3,0.4,0.5,0.7,0.8,1.1c1.3,1.9,3.1,4.7,3.1,7.4C33.1,25.7,33.1,26.6,33,27.5z"/>
<path class="st1" d="M26.9,27.3c-0.2-6-2.1-8.6-3.7-10.8c-0.7-0.9-1.3-1.8-1.7-2.8l1.2-0.5c0.3,0.8,0.9,1.6,1.5,2.5
	c1.6,2.2,3.7,5.1,3.9,11.5L26.9,27.3z M14.7,33c-0.3,0-0.6-0.2-0.7-0.6c-0.1-0.4,0.2-0.7,0.5-0.8c0.6-0.1,1.5-0.4,1.6-0.7
	c0.1-0.1,0-0.3-0.1-0.5c-0.1-0.1-0.6-0.4-0.9-0.6c-0.6-0.3-1.3-0.7-1.7-1.1c-0.7-0.6-2.2-2.3-2.2-4c0-2.6,1.6-5.2,2.8-7.3
	c0.6-1,1.2-2.1,1.3-2.5v-0.8c0-0.4,0.3-0.7,0.7-0.7c0.4,0,0.7,0.3,0.7,0.7v0.8c0,0.8-0.6,1.8-1.4,3.2c-1.2,2-2.6,4.4-2.6,6.7
	c0,1.1,1,2.4,1.7,3c0.3,0.3,1,0.6,1.5,0.9c0.8,0.5,1.2,0.7,1.4,1c0.4,0.7,0.5,1.4,0.1,2c-0.6,0.9-2.2,1.2-2.5,1.2
	C14.8,33,14.7,33,14.7,33z M16.2,35h8.7v1h-8.7V35z"/>
<path class="st2" d="M31.9,27.9c0-1.2,0.2-1.8,0.2-2.8c0-2.3-1.2-4.5-2.8-6.8c-1.6-2.3-2.9-3.9-3.6-6.8S25.6,9.6,25,7.1
	c-0.8-2.7-1.1-5.2-5.6-4.9c-4.1,0.2-4.3,3.5-4.7,7.2c-0.1,1.2,0,2.3,0,4.1c0,0.4-0.2,1.1-0.4,1.5c-0.3,1-4.2,4.7-4.4,11.2
	c0,0,0.9,5.6,4.8,5.6c0.8,0,1.3,0,1.8-0.3c0.3-0.5,0.3-0.7,0.1-1c-0.2-0.3-2.1-1.1-2.8-1.7s-2-2.5-2-3.9c0-3.9,4-8.2,4.1-9.8
	c0-0.2,0.3-0.5,0.3-0.8c0,0,1,0.8,2.2,0.8s4.1-1.7,4.1-1.7s0.6,1.8,1.9,3.1s3.3,6.1,3.3,8.8S27.5,30,27.5,30s0,0.7,1.3,0.7
	s3.4-2.8,3.4-2.8"/>
<path class="st1" d="M27.6,39c-1.3,0-2-0.7-2.3-1c-0.6-0.4-0.9-1.3-0.9-2.5c0-0.6,0.2-1.1,0.3-1.6c0.2-0.5,0.3-1.1,0.4-1.8
	c0.1-0.6,0.1-1.5,0.1-2.2c0-0.3,0-3.2,1.6-3.2c1.7,0,1.9,1.4,1.9,2.1c0,0.2,0,0.4,0.1,0.5c0.4,0,0.8-0.5,1.2-0.9
	c0.5-0.6,1-1.2,1.8-1.2c0.7-0.2,1.1,0.2,1.4,0.5c0.4,0.5,0.5,1.1,0.6,1.8c0,0.2,0.1,0.6,0.1,0.7c0.4,0.6,0.9,0.9,1.3,1.1l0,0
	c0.9,0.3,1.1,1,1.1,1.4c0,0.8-0.4,1.1-0.6,1.3c0,0-0.1,0-0.1,0.1c-0.2,0.2-0.7,0.5-1.7,1.1c-0.5,0.3-1,0.6-1.4,0.9
	c-0.4,0.3-0.8,0.5-1,0.7c-0.5,0.4-0.8,0.5-1.1,0.8l-0.1,0.1C29.7,38.2,28.9,39,27.6,39z M27,28c-0.2,0.2-0.4,1-0.4,1.8
	s0,1.7-0.1,2.4c-0.1,0.9-0.3,1.5-0.5,2c-0.1,0.5-0.3,0.8-0.3,1.2c0,0.9,0.2,1.4,0.4,1.5l0.1,0.1c0.3,0.3,0.6,0.6,1.4,0.6
	c0.7,0,1.2-0.5,1.8-1.1l0.1-0.1c0.4-0.4,0.7-0.6,1.3-1c0.3-0.2,0.6-0.4,1-0.7c0.5-0.3,1-0.6,1.5-0.9c0.5-0.3,1.3-0.7,1.4-0.9
	c0,0,0.1-0.1,0.2-0.1c0.1-0.1,0.1-0.1,0.1-0.2c0,0,0-0.1-0.2-0.1l-0.2-0.1c-0.4-0.2-1.2-0.6-1.8-1.5c-0.2-0.3-0.3-0.8-0.3-1.2
	c-0.1-0.4-0.1-0.9-0.3-1.1l0,0c-0.1,0-0.1,0-0.2,0c-0.2,0-0.6,0.4-0.9,0.8c-0.5,0.6-1.2,1.4-2.2,1.4c-1.2,0-1.3-1.2-1.4-1.7
	C27.4,28.1,27.3,28,27,28z M13.5,39c-0.1,0-0.2,0-0.3,0c-0.6-0.1-1.3-0.4-2.1-0.8c-0.7-0.4-1.5-0.8-2.3-1c-3.2-0.7-3.9-0.9-4.5-1.7
	v-0.1c-0.3-0.5-0.2-1-0.1-1.4v-0.1c0.1-0.3,0.2-0.5,0.3-0.7c0.1-0.2,0.2-0.4,0.2-0.5c0-0.6-0.2-1.1-0.4-1.5
	c-0.2-0.5-0.5-1.1-0.2-1.6c0.4-1,1.5-1.1,2.1-1.1c0.3,0,0.7-0.1,0.8-0.2l0.1-0.1c0.4-0.3,0.7-0.6,1-0.9c0.1-0.2,0.3-0.3,0.4-0.4
	c0.4-0.4,0.9-0.9,1.7-0.9c1.1,0,2.3,1.7,3.1,3.1c0.4,0.5,0.6,0.9,0.9,1.4c0.2,0.3,0.4,0.7,0.8,1.4l0,0c0.3,0.4,0.5,0.8,0.7,1.1
	c0.5,0.7,1,1.4,1,2.7c0,1.2-0.4,2.1-1.1,2.7C15.2,38.7,14.3,39,13.5,39z M5.4,34.8c0.2,0.3,0.7,0.5,3.6,1.1c1,0.2,1.9,0.7,2.7,1.1
	c0.6,0.3,1.2,0.6,1.6,0.7c0.2,0,1,0,1.5-0.5c0.4-0.4,0.6-1,0.6-1.8c0.1-0.8-0.2-1.2-0.7-1.8c-0.3-0.3-0.5-0.7-0.8-1.2
	c-0.4-0.6-0.6-1-0.8-1.4c-0.3-0.5-0.5-0.8-0.8-1.3c-1-1.6-1.8-2.4-2-2.5c-0.3,0-0.4,0.1-0.7,0.5c-0.1,0.1-0.2,0.2-0.3,0.4
	c-0.3,0.3-0.6,0.7-1.1,1.1c-0.4,0.5-1.1,0.6-1.7,0.6c-0.7,0.1-0.9,0.1-1,0.3c0,0.1,0.1,0.4,0.2,0.6c0.2,0.5,0.5,1.2,0.5,2
	c0,0.5-0.3,0.9-0.4,1.2c-0.1,0.1-0.1,0.2-0.1,0.3v0.1C5.4,34.6,5.4,34.7,5.4,34.8z M14.7,13.3c-1.1-0.9-1.7-2.3-1.7-4
	c0-2.7,1.7-4.8,3.9-4.8c1.4,0,2.6,1.4,2.6,3.1h-1.3c0-1-0.7-1.8-1.3-1.8c-1.5,0-2.6,1.5-2.6,3.4c0,1.2,0.5,2.3,1.2,2.9L14.7,13.3z"
	/>
<g>
	<path class="st3" d="M26.9,27.7c-0.2,0.2-0.6,0.8-0.6,1.7c0,0.9,0,1.9-0.1,2.7c-0.1,1-0.3,1.7-0.5,2.3c-0.2,0.5-0.3,0.9-0.3,1.3
		c0,1,0.3,1.4,0.5,1.5l0.1,0.1c0.3,0.3,0.7,0.7,1.5,0.7s1.3-0.4,2-1.1l0.1-0.1c0.4-0.4,0.8-0.6,1.4-1.1c0.3-0.2,0.7-0.5,1.2-0.8
		s1.1-0.7,1.7-1c0.6-0.3,1.4-0.8,1.5-1c0.1-0.1,0,0,0.1-0.1s0,0,0.1-0.1c0,0,0.1-0.4-0.1-0.4l-0.2-0.1c-0.5-0.2-1.3-0.6-2-1.7
		c-0.2-0.4-0.3-0.9-0.4-1.4c-0.1-0.4-0.2-0.9-0.4-1.1c-0.3,0,0,0,0,0c-0.1,0-0.2,0-0.3,0c-0.3,0-0.6,0.4-0.9,0.8
		c-0.8,0.4-1.3,1.2-2.4,1.5c-1.3,0.4-1.1-1.2-1.1-1.8C27.6,27.6,27.3,27.7,26.9,27.7z"/>
	<path class="st3" d="M5.1,34.9c0.2,0.3,0.7,0.5,3.8,1.2c1,0.2,2,0.7,2.8,1.2c0.7,0.3,1.3,0.7,1.7,0.7c0.2,0,1,0,1.6-0.5
		c0.4-0.4,0.7-1,0.7-1.9c0.1-0.9-0.2-1.2-0.7-1.9c-0.3-0.4-0.6-0.8-0.9-1.3c-0.4-0.7-0.7-1.1-0.9-1.5c-0.3-0.5-0.5-0.8-0.9-1.4
		c-1-1.7-1.9-2.5-2.1-2.6c-0.3,0-0.4,0.1-0.8,0.5c-0.1,0.1-0.2,0.2-0.3,0.4c-0.3,0.3-0.7,0.8-1.2,1.2c-0.5,0.5-1.2,0.6-1.8,0.6
		c-0.7,0.1-1,0.1-1.1,0.4c0,0.1,0.1,0.4,0.2,0.6c0.2,0.5,0.5,1.2,0.5,2.2c0,0.6-0.3,1-0.5,1.3c-0.1,0.1-0.1,0.2-0.2,0.3v0.1
		C5.1,34.7,5.1,34.8,5.1,34.9z"/>
	<path class="st1" d="M22.5,13.9l-0.6-1.2c1.1-0.5,1.7-2.1,1.7-3.4c0-1.9-1.1-3.4-2.6-3.4c-1.4,0-1.5,1.6-1.5,1.8v0.4
		c0,0.6,0,2,0,2.2l-1.3,0.1c0-0.2,0-1,0-2.3V7.7c0-1.1,0.6-3.1,2.8-3.1s3.9,2.1,3.9,4.8C25,11,24.1,13.1,22.5,13.9z"/>
	<path class="st4" d="M15.6,12.2c0-1.6,2.4-2.1,2.4-2.1c0.2,0,0.4,0,0.5,0.1c0-0.2,0-0.5,0-0.8c0-2.7-0.5-3.7-1.9-3.7S14,6.9,14,9.4
		c0,1.7,0.8,3,1.9,3.5C15.7,12.7,15.6,12.5,15.6,12.2z"/>
	<path class="st4" d="M21.4,5.7c-1.5-0.4-2,0.5-2,3.6c0,0.2,0,0.4,0,0.7l0,0c0.2,0,3.5,1.3,3.4,1.7c0,0.3-0.1,0.5-0.1,0.7
		c0.7-0.6,1.2-1.8,1.2-3.1C24,7.1,22.8,6,21.4,5.7z"/>
	<path class="st1" d="M18.8,15.7c-0.4,0-1,0-1.5-0.1c-0.5-0.2-0.9-0.6-1.5-1.2c-0.5-0.3-1.3-0.9-1.3-1.9c0-0.8,0.5-1.2,0.9-1.6
		c0.1-0.1,0.2-0.1,0.2-0.2l0,0c0,0,1.2-1.2,2.6-1.2c1,0,2,0.5,2.7,0.8c0.1,0,0.2,0.1,0.3,0.1c0.9,0.2,2.2,0.5,2,1.8
		c-0.1,1.2-0.3,1.6-1.5,2.2h-0.1c-0.2,0.1-0.5,0.3-0.8,0.4C20.3,15.3,19.5,15.7,18.8,15.7z M17.8,14.3c0.3,0.1,0.8,0.1,1.1,0.1
		c0.3,0,0.9-0.4,1.4-0.7c0.4-0.2,0.7-0.5,1-0.6c0.6-0.3,0.6-0.4,0.7-1.1c-0.1-0.1-0.7-0.3-1.1-0.4h-0.1c-0.1,0-0.2-0.1-0.4-0.2
		c-0.5-0.2-1.4-0.7-2.1-0.7s-1.5,0.7-1.7,0.9c-0.1,0.1-0.2,0.2-0.3,0.3C16,12.3,16,12.4,16,12.5c0,0.2,0.2,0.4,0.7,0.8l0.1,0.1
		C17.1,13.7,17.6,14.2,17.8,14.3z"/>
	<path class="st3" d="M17.6,14.6c0.3,0.1,0.9,0.1,1.2,0.1c0.4,0,1.1-0.4,1.6-0.8c0.4-0.3,0.8-0.5,1.2-0.6c0.7-0.4,0.7-0.4,0.8-1.3
		c-0.1-0.2-0.8-0.3-1.2-0.4h-0.1c-0.1,0-0.2-0.1-0.4-0.2c-0.6-0.3-1.6-0.8-2.4-0.8s-1.7,0.8-1.9,1c-0.2,0.1-0.3,0.2-0.4,0.3
		c-0.5,0.4-0.5,0.4-0.5,0.6c0,0.3,0.2,0.5,0.8,0.9l0.1,0.1C16.8,13.9,17.4,14.5,17.6,14.6z"/>
	<path class="st1" d="M21,11c-0.4,0-0.7-0.5-0.7-1.1s0.3-1.1,0.7-1.1s0.7,0.5,0.7,1.1C21.8,10.5,21.4,11,21,11z M16.6,10.8
		c-0.4,0-0.7-0.4-0.7-1s0.3-1,0.7-1s0.7,0.4,0.7,1C17.3,10.3,17,10.8,16.6,10.8z"/>
</g>
</svg>
