<?xml version="1.0" encoding="utf-8"?>
<!-- Generator: Adobe Illustrator 23.1.1, SVG Export Plug-In . SVG Version: 6.00 Build 0)  -->
<svg version="1.1" id="katman_1" xmlns="http://www.w3.org/2000/svg" xmlns:xlink="http://www.w3.org/1999/xlink" x="0px" y="0px"
	 viewBox="0 0 40 40" style="enable-background:new 0 0 40 40;" xml:space="preserve">
<style type="text/css">
	.st0{fill:#E1EBF2;}
	.st1{fill:#788B9C;}
</style>
<path class="st0" d="M36.6,28.8c-0.9,1.9-1.3,2.8-2.4,4.4c-1.6,2.3-3.8,5.3-6.6,5.3c-2.4,0-3.1-1-6.5-1c-3.3,0-4,1-6.4,1
	c-2.8,0-4.9-2.7-6.4-5C4,27.1,3.5,19.1,6.2,15.1c1.9-2.9,5-4.6,7.8-4.6c2.9,0,4.8,1.9,7.2,1.9c2.3,0,3.8-1.9,7.1-1.9
	c2.6,0,5.3,1.4,7.2,3.7C29.5,17.5,30.6,26.5,36.6,28.8z"/>
<path class="st1" d="M14.9,39h-0.1c-2.9,0-5.1-2.7-6.8-5.2c-4.2-6.3-5.1-14.5-2.2-18.9c2-3,5.1-4.8,8.3-4.8c1.6,0,3,0.6,4.1,1.1
	c1,0.4,2,0.8,3,0.8c1,0,1.8-0.4,2.7-0.8c1.2-0.5,2.5-1.1,4.5-1.1c2.7,0,5.6,1.5,7.6,3.9l0.4,0.5l-0.5,0.3c-2.6,1.4-4,4-3.7,7
	c0.2,3.1,2.1,5.7,4.8,6.7l0.5,0.2L37.1,29c-0.9,2-1.3,2.8-2.5,4.5c-1.8,2.7-4.1,5.5-7,5.5c0,0,0,0,0,0c-1.2,0-2-0.2-2.8-0.5
	C23.9,38.3,23,38,21.3,38h-0.1c-1.7,0-2.6,0.3-3.6,0.5C16.8,38.8,16,39,14.9,39z M14,11c-2.8,0-5.6,1.7-7.4,4.4
	c-2.7,4.1-1.8,12,2.1,17.8c1.6,2.4,3.5,4.8,6,4.8l0.1,0.5V38c1,0,1.7-0.2,2.5-0.4c0.9-0.3,2-0.6,3.8-0.6h0.1c1.8,0,2.8,0.3,3.8,0.6
	c0.8,0.2,1.5,0.4,2.5,0.4c2.5,0,4.5-2.6,6.2-5.1c1-1.5,1.4-2.3,2.2-3.9c-2.8-1.3-4.7-4.1-4.9-7.3c-0.2-3.2,1.2-6,3.7-7.6
	C33,12.2,30.6,11,28.3,11c-1.7,0-2.9,0.5-4,1c-1,0.4-1.9,0.9-3.1,0.9c-1.2,0-2.4-0.5-3.4-0.9C16.6,11.5,15.5,11,14,11z"/>
<g>
	<path class="st0" d="M26.3,7.5c1.3-1.6,2.5-3.6,2.1-6c-2.1,0.1-4.8,1.2-6.3,2.9c-1.3,1.6-2,3.9-1.6,6.1C23,10.6,24.9,9.2,26.3,7.5z
		"/>
	<path class="st1" d="M20.8,11L20.8,11l-0.6,0l-0.1-0.4c-0.4-2.3,0.2-4.8,1.7-6.5c1.6-1.9,4.5-2.9,6.6-3.1l0.5,0l0.1,0.5
		c0.4,2.7-1.1,5-2.2,6.4C25.1,9.9,23,11,20.8,11z M28,2c-1.8,0.2-4.1,1.1-5.4,2.7C21.4,6.1,20.8,8.1,21,10c1.8-0.1,3.5-1.1,4.9-2.8
		C27.4,5.3,28.1,3.7,28,2z"/>
</g>
</svg>
