<?xml version="1.0" encoding="utf-8"?>
<!-- Generator: Adobe Illustrator 23.1.1, SVG Export Plug-In . SVG Version: 6.00 Build 0)  -->
<svg version="1.1" id="katman_1" xmlns="http://www.w3.org/2000/svg" xmlns:xlink="http://www.w3.org/1999/xlink" x="0px" y="0px"
	 viewBox="0 0 60 60" style="enable-background:new 0 0 60 60;" xml:space="preserve">
<style type="text/css">
	.st0{fill:#E1EBF2;}
	.st1{fill:#66798F;}
	.st2{fill:#8BB7F0;}
	.st3{fill:#4E7AB5;}
	.st4{fill:#B0C1D4;}
	.st5{fill:#36404D;}
	.st6{fill:#F76D6D;}
	.st7{fill:#C74343;}
	.st8{fill:#F78F8F;}
</style>
<g id="Computer">
	<g>
		<rect x="30.5" y="2.5" class="st0" width="27" height="55"/>
		<path class="st1" d="M57,3v54H31V3H57 M58,2h-1H31h-1v1v54v1h1h26h1v-1V3V2L58,2z"/>
	</g>
	<g>
		<circle class="st2" cx="44.5" cy="41.5" r="3"/>
		<path class="st3" d="M44.5,39c1.4,0,2.5,1.1,2.5,2.5S45.9,44,44.5,44S42,42.9,42,41.5S43.1,39,44.5,39 M44.5,38
			c-1.9,0-3.5,1.6-3.5,3.5s1.6,3.5,3.5,3.5s3.5-1.6,3.5-3.5S46.4,38,44.5,38L44.5,38z"/>
	</g>
	<g>
		<rect x="34.5" y="18.5" class="st4" width="19" height="3"/>
		<path class="st1" d="M53,19v2H35v-2H53 M54,18h-1H35h-1v1v2v1h1h18h1v-1v-2V18L54,18z"/>
	</g>
	<g>
		<rect x="34.5" y="10.5" class="st4" width="19" height="5"/>
		<path class="st1" d="M53,11v4H35v-4H53 M54,10h-1H35h-1v1v4v1h1h18h1v-1v-4V10L54,10z"/>
	</g>
</g>
<g id="ToolBox">
	<path class="st5" d="M30,32v10H12V32H30 M30,30H12c-1.1,0-2,0.9-2,2v10c0,1.1,0.9,2,2,2h18c1.1,0,2-0.9,2-2V32
		C32,30.9,31.1,30,30,30z"/>
	<path class="st6" d="M2.5,44.5h37v13h-37V44.5z"/>
	<path class="st7" d="M39,45v12H3V45H39 M40,44H2v14h38V44z"/>
	<path class="st8" d="M2.5,44.5V38c0-1.4,1.1-2.5,2.5-2.5h32c1.4,0,2.5,1.1,2.5,2.5v6.5H2.5z"/>
	<path class="st7" d="M37,36c1.1,0,2,0.9,2,2v6H3v-6c0-1.1,0.9-2,2-2H37 M37,35H5c-1.7,0-3,1.3-3,3v7h38v-7C40,36.3,38.7,35,37,35z"
		/>
	<path class="st4" d="M7.6,42.6h3.8v3.8H7.6V42.6z"/>
	<path class="st1" d="M11,43v3H8v-3H11 M12,42H7v5h5V42z"/>
	<path class="st4" d="M31,43h3v3h-3V43z"/>
	<path class="st1" d="M34,43v3h-3v-3H34 M35,42h-5v5h5V42z"/>
</g>
</svg>
