<?xml version="1.0" encoding="utf-8"?>
<!-- Generator: Adobe Illustrator 23.1.1, SVG Export Plug-In . SVG Version: 6.00 Build 0)  -->
<svg version="1.1" id="katman_1" xmlns="http://www.w3.org/2000/svg" xmlns:xlink="http://www.w3.org/1999/xlink" x="0px" y="0px"
	 viewBox="0 0 40 40" style="enable-background:new 0 0 40 40;" xml:space="preserve">
<style type="text/css">
	.st0{fill:#E1EBF2;}
	.st1{fill:#66798F;}
	.st2{fill:#8BB7F0;}
	.st3{fill:#4E7AB5;}
	.st4{fill:#B0C1D4;}
	.st5{fill:#36404D;}
	.st6{fill:#F76D6D;}
	.st7{fill:#C74343;}
	.st8{fill:#F78F8F;}
</style>
<g id="Computer">
	<path class="st0" d="M20.5,1.5h18v37h-18V1.5z"/>
	<path class="st1" d="M38,2v36H21V2H38 M39,1H20v38h19V1z"/>
	<path class="st2" d="M29.5,25.5c-1.1,0-2,0.9-2,2s0.9,2,2,2s2-0.9,2-2S30.6,25.5,29.5,25.5z"/>
	<path class="st3" d="M29.5,26c0.8,0,1.5,0.7,1.5,1.5S30.3,29,29.5,29S28,28.3,28,27.5l0,0C28,26.7,28.7,26,29.5,26 M29.5,25
		c-1.4,0-2.5,1.1-2.5,2.5s1.1,2.5,2.5,2.5s2.5-1.1,2.5-2.5S30.9,25,29.5,25z"/>
	<path class="st4" d="M23.5,12.5h12v2h-12V12.5z"/>
	<path class="st1" d="M35,13v1H24v-1H35 M36,12H23v3h13V12z"/>
	<path class="st4" d="M23.5,6.5h12v3h-12V6.5z"/>
	<path class="st1" d="M35,7v2H24V7H35 M36,6H23v4h13V6z"/>
</g>
<g id="ToolBox">
	<path class="st5" d="M17,21v6h-6v-6H17 M17,19h-6c-1.1,0-2,0.9-2,2v6c0,1.1,0.9,2,2,2h6c1.1,0,2-0.9,2-2v-6C19,19.9,18.1,19,17,19z
		"/>
	<path class="st6" d="M1.5,29.5h25v9h-25V29.5z"/>
	<path class="st7" d="M26,30v8H2v-8H26 M27,29H1v10h26V29z"/>
	<path class="st8" d="M1.5,29.5V26c0-1.4,1.1-2.5,2.5-2.5h20c1.4,0,2.5,1.1,2.5,2.5v3.5H1.5z"/>
	<path class="st7" d="M24,24c1.1,0,2,0.9,2,2v3H2v-3c0-1.1,0.9-2,2-2H24 M24,23H4c-1.7,0-3,1.3-3,3v4h26v-4C27,24.3,25.7,23,24,23z"
		/>
	<path class="st4" d="M5.5,28.5h3v3h-3V28.5z"/>
	<path class="st1" d="M8,29v2H6v-2H8 M9,28H5v4h4V28z"/>
	<path class="st4" d="M19.5,28.5h3v3h-3V28.5z"/>
	<path class="st1" d="M22,29v2h-2v-2H22 M23,28h-4v4h4V28z"/>
</g>
</svg>
