<svg xmlns="http://www.w3.org/2000/svg" data-name="Слой 1" viewBox="0 0 40 40"><path fill="#e1ebf2" d="M20.5 1.5H38.5V38.5H20.5z"></path><path fill="#66798f" d="M38,2V38H21V2H38m1-1H20V39H39V1Z"></path><path fill="#8bb7f0" d="M29.5 25.5A2 2 0 1 0 29.5 29.5A2 2 0 1 0 29.5 25.5Z"></path><path fill="#4e7ab5" d="M29.5,26A1.5,1.5,0,1,1,28,27.5,1.5,1.5,0,0,1,29.5,26m0-1A2.5,2.5,0,1,0,32,27.5,2.5,2.5,0,0,0,29.5,25Z"></path><path fill="#b0c1d4" d="M23.5 12.5H35.5V14.5H23.5z"></path><path fill="#66798f" d="M35,13v1H24V13H35m1-1H23v3H36V12Z"></path><path fill="#36404d" d="M17,18v6H11V18h6m0-2H11a2,2,0,0,0-2,2v6a2,2,0,0,0,2,2h6a2,2,0,0,0,2-2V18a2,2,0,0,0-2-2Z"></path><path fill="#b0c1d4" d="M23.5 6.5H35.5V9.5H23.5z"></path><path fill="#66798f" d="M35,7V9H24V7H35m1-1H23v4H36V6Z"></path><path fill="#f76d6d" d="M1.5 26.5H26.5V38.5H1.5z"></path><path fill="#c74343" d="M26,27V38H2V27H26m1-1H1V39H27V26Z"></path><path fill="#f78f8f" d="M1.5,26.5V23A2.5,2.5,0,0,1,4,20.5H24A2.5,2.5,0,0,1,26.5,23v3.5Z"></path><path fill="#c74343" d="M24,21a2,2,0,0,1,2,2v3H2V23a2,2,0,0,1,2-2H24m0-1H4a3,3,0,0,0-3,3v4H27V23a3,3,0,0,0-3-3Z"></path><path fill="#b0c1d4" d="M5.5 25.5H8.5V28.5H5.5z"></path><path fill="#66798f" d="M8,26v2H6V26H8m1-1H5v4H9V25Z"></path><path fill="#b0c1d4" d="M19.5 25.5H22.5V28.5H19.5z"></path><path fill="#66798f" d="M22,26v2H20V26h2m1-1H19v4h4V25Z"></path></svg>