<svg xmlns="http://www.w3.org/2000/svg" viewBox="0 0 40 40"><circle cx="20" cy="23.97" r="11.626" fill="#f78f8f"></circle><path fill="#ea4c89" d="M20,36.096c-6.687,0-12.126-5.439-12.126-12.126S13.313,11.844,20,11.844 s12.126,5.439,12.126,12.126S26.687,36.096,20,36.096z M20,12.844c-6.135,0-11.126,4.991-11.126,11.126S13.865,35.096,20,35.096 s11.126-4.991,11.126-11.126S26.135,12.844,20,12.844z"></path><path fill="#bae0bd" d="M21.635,8.996c0,0-3.322-2.847,1.424-5.695c3.5-2.1,8.542,0.475,8.542,0.475 c-0.475,3.322-1.205,5.755-4.271,7.118C23.059,12.793,21.635,8.996,21.635,8.996z"></path><path fill="#5e9c76" d="M25.098,11.928c-0.556,0-1.08-0.104-1.572-0.31c-1.452-0.608-2.13-1.926-2.309-2.329 c-0.32-0.31-1.325-1.407-1.201-2.885c0.109-1.3,1.047-2.487,2.787-3.531c3.694-2.218,8.81,0.348,9.025,0.458l0.318,0.162 l-0.051,0.354c-0.44,3.082-1.121,5.975-4.563,7.505C26.67,11.735,25.855,11.928,25.098,11.928z M26.322,2.979 c-1.031,0-2.083,0.197-3.006,0.751c-1.448,0.869-2.224,1.797-2.304,2.758c-0.103,1.213,0.938,2.119,0.948,2.128l0.097,0.083 l0.046,0.12c0.005,0.013,0.528,1.346,1.817,1.881c0.896,0.371,1.978,0.284,3.206-0.263c2.627-1.168,3.421-3.076,3.925-6.365 C30.302,3.742,28.35,2.979,26.322,2.979z"></path><path fill="#bae0bd" d="M18.365,8.996c0,0,3.322-2.847-1.424-5.695c-3.5-2.1-8.542,0.475-8.542,0.475 c0.475,3.322,1.205,5.755,4.271,7.118C16.941,12.793,18.365,8.996,18.365,8.996z"></path><path fill="#5e9c76" d="M14.902,11.928c-0.758,0-1.572-0.192-2.436-0.576c-3.441-1.53-4.122-4.423-4.563-7.505L7.854,3.493 l0.318-0.162c0.217-0.11,5.333-2.675,9.025-0.458c1.74,1.044,2.678,2.231,2.787,3.531c0.124,1.478-0.881,2.575-1.201,2.885 c-0.179,0.403-0.856,1.721-2.309,2.329C15.982,11.824,15.458,11.928,14.902,11.928z M8.948,4.072 c0.504,3.289,1.298,5.197,3.925,6.365c1.234,0.55,2.317,0.637,3.216,0.258c1.295-0.542,1.803-1.861,1.808-1.875l0.044-0.118 l0.097-0.085c0.011-0.009,1.056-0.933,0.95-2.137c-0.084-0.958-0.859-1.883-2.304-2.75C13.944,2.088,10.079,3.573,8.948,4.072z"></path><path fill="#5e9c76" d="M17.948,9.273c-0.855-1.282-2.757-2.818-5.53-3.28l0.164-0.986c3.089,0.515,5.227,2.255,6.198,3.712 L17.948,9.273z"></path><path fill="#5e9c76" d="M22.052,9.273L21.22,8.719c0.972-1.457,3.109-3.197,6.198-3.712l0.164,0.986 C24.809,6.455,22.907,7.991,22.052,9.273z"></path><path fill="#ffb5d2" d="M24.252,28.279C24.264,30.367,22.3,32.489,20,32.5c-2.299,0.011-4.063-2.093-4.075-4.181 c0-0.013,0-0.027,0-0.04C15.913,26.19,17.7,24.511,20,24.5c2.3-0.011,4.24,1.65,4.252,3.739 C24.252,28.252,24.252,28.266,24.252,28.279z"></path><path fill="#ea4c89" d="M19.982,33c-2.672,0-4.545-2.461-4.558-4.679c-0.007-1.193,0.466-2.272,1.33-3.077 c0.855-0.797,2.007-1.238,3.243-1.244c0.008,0,0.017,0,0.024,0c2.598,0,4.717,1.896,4.729,4.236l-0.5,0.043l0.5-0.003 c0.007,1.153-0.51,2.341-1.419,3.26c-0.915,0.925-2.129,1.458-3.331,1.464C19.996,33,19.988,33,19.982,33z M20.022,25 c-0.007,0-0.014,0-0.021,0c-0.983,0.005-1.895,0.352-2.565,0.977c-0.657,0.611-1.017,1.429-1.012,2.3 C16.435,30.062,17.897,32,19.982,32c0.005,0,0.01,0,0.016,0c0.938-0.004,1.895-0.43,2.624-1.167 c0.724-0.731,1.136-1.661,1.13-2.551v-0.043C23.742,26.451,22.071,25,20.022,25z"></path><path fill="#ffb5d2" d="M22.417,17.274c-1.824,1.09-2.328,3.478-0.695,5.637c1.342,2,3.828,2.718,5.553,1.605l0,0 c1.725-1.113,2.036-3.637,0.695-5.637C26.628,16.879,24.142,16.161,22.417,17.274L22.417,17.274z"></path><path fill="#ea4c89" d="M25.459,25.536c-1.538,0-3.144-0.845-4.151-2.348c-0.881-1.161-1.241-2.498-1-3.74 c0.212-1.089,0.867-2.012,1.846-2.599c1.947-1.252,4.743-0.469,6.231,1.751c0.787,1.173,1.088,2.574,0.826,3.845 c-0.218,1.054-0.809,1.938-1.664,2.49C26.915,25.343,26.195,25.536,25.459,25.536z M24.242,17.249 c-0.552,0-1.086,0.144-1.554,0.445l-0.015,0.01c-0.735,0.438-1.228,1.126-1.385,1.935c-0.187,0.96,0.109,2.015,0.832,2.97 c1.205,1.795,3.39,2.451,4.883,1.487c0.629-0.406,1.064-1.063,1.228-1.853c0.208-1.009-0.038-2.134-0.677-3.086 C26.737,17.94,25.451,17.249,24.242,17.249z"></path><path fill="#ffb5d2" d="M30.239,19.207c-1.863-0.492-0.629,7.591,0.887,6.928C32.793,24.813,33.33,20.945,30.239,19.207 L30.239,19.207z"></path><path fill="#ea4c89" d="M30.946,26.672c-0.242,0-0.55-0.095-0.856-0.449c-1.054-1.221-1.77-5.612-0.899-7.004 c0.273-0.44,0.703-0.621,1.177-0.495l0.117,0.048c1.464,0.823,2.341,2.174,2.469,3.804c0.122,1.548-0.487,3.135-1.517,3.95 l-0.11,0.066C31.245,26.627,31.111,26.672,30.946,26.672z M30.075,19.689c-0.114,0.09-0.386,0.811-0.227,2.452 c0.192,1.992,0.781,3.298,1.074,3.509c0.703-0.638,1.125-1.844,1.034-2.996C31.857,21.397,31.19,20.348,30.075,19.689z"></path><path fill="#ffb5d2" d="M20,11.5c-1.702-0.018-3.568,1.545-3.559,2.742c0.007,1.056,1.251,2.275,3.559,2.258 c2.308,0.016,3.552-1.202,3.559-2.258C23.568,13.045,21.702,11.482,20,11.5z"></path><path fill="#ea4c89" d="M20.048,17c-0.035,0-0.067-0.001-0.103,0c-1.44,0-2.361-0.445-2.881-0.822 c-0.709-0.513-1.118-1.218-1.123-1.934c-0.005-0.603,0.325-1.266,0.927-1.865c0.863-0.86,2.054-1.39,3.132-1.379 c1.055-0.021,2.269,0.519,3.132,1.379c0.602,0.6,0.932,1.263,0.927,1.866c-0.005,0.715-0.414,1.42-1.123,1.933 C22.416,16.555,21.494,17,20.048,17z M19.996,16c1.181-0.024,1.948-0.34,2.354-0.632c0.441-0.32,0.706-0.742,0.709-1.13 c0.002-0.324-0.234-0.754-0.633-1.151c-0.672-0.669-1.621-1.104-2.42-1.087h-0.012c-0.782-0.005-1.748,0.418-2.42,1.087 c-0.398,0.397-0.635,0.827-0.633,1.15c0.003,0.389,0.268,0.811,0.709,1.131C18.056,15.661,18.796,15.996,19.996,16z"></path><path fill="#ffb5d2" d="M20,33.5c-1.662-0.041-4.065,0.754-4.034,1.647C15.94,35.756,17.932,37.608,20,37.52 c1.997,0.034,4.061-1.596,4.034-2.373C24.029,34.348,21.673,33.428,20,33.5z"></path><path fill="#ea4c89" d="M19.831,38.022c-1.488,0-2.904-0.875-3.675-1.647c-0.474-0.474-0.705-0.895-0.688-1.25 c-0.008-0.177,0.054-0.507,0.393-0.849c0.794-0.802,2.819-1.312,4.135-1.276c1.426-0.061,3.314,0.53,4.109,1.287 c0.283,0.27,0.427,0.559,0.429,0.857c0.014,0.364-0.2,0.781-0.634,1.225c-0.786,0.801-2.314,1.65-3.839,1.651 c-0.022,0-0.046-0.001-0.069-0.001C19.938,38.021,19.884,38.022,19.831,38.022z M19.854,33.998c-1.728,0-3.37,0.81-3.387,1.132 c0.093,0.426,1.772,1.972,3.512,1.89c0.019,0.001,0.038,0.001,0.057,0.001c1.794,0,3.467-1.422,3.498-1.859 c-0.107-0.396-1.976-1.234-3.512-1.161h-0.034C19.943,33.999,19.898,33.998,19.854,33.998z"></path><path fill="#ffb5d2" d="M25.695,28.07c-1.288,1.487-2.006,4.198-1.066,5.071c0.899,0.678,3.311,0.584,5.094-1.852 c1.294-1.636,0.86-4.368,0.121-5.093C28.746,25.359,27.169,26.429,25.695,28.07L25.695,28.07z"></path><path fill="#ea4c89" d="M25.926,34.004c-0.633,0-1.196-0.16-1.599-0.464c-1.313-1.217-0.31-4.299,0.99-5.798l0.006-0.007 c2.477-2.755,3.99-2.572,4.823-1.938c1.02,0.995,1.378,4.019-0.031,5.802c-1.305,1.782-2.82,2.245-3.606,2.36 C26.31,33.989,26.114,34.004,25.926,34.004z M26.07,28.4c-1.251,1.445-1.717,3.803-1.102,4.374 c0.197,0.145,0.696,0.299,1.395,0.196c0.632-0.093,1.855-0.473,2.956-1.977c1.17-1.479,0.719-3.907,0.174-4.442 C28.587,25.869,26.959,27.413,26.07,28.4z"></path><path fill="#ffb5d2" d="M17.583,17.274c1.824,1.09,2.328,3.478,0.695,5.637c-1.342,2-3.828,2.718-5.553,1.605l0,0 c-1.725-1.113-2.036-3.637-0.695-5.637C13.372,16.879,15.858,16.161,17.583,17.274L17.583,17.274z"></path><path fill="#ea4c89" d="M14.545,25.537c-0.737,0-1.459-0.193-2.092-0.602c-0.855-0.552-1.446-1.437-1.664-2.49 c-0.262-1.271,0.039-2.672,0.826-3.845c1.488-2.22,4.284-3.003,6.231-1.751c0.979,0.587,1.634,1.51,1.846,2.599 c0.241,1.242-0.119,2.579-1.017,3.764C17.681,24.697,16.08,25.537,14.545,25.537z M15.758,17.249c-1.209,0-2.495,0.691-3.313,1.908 c-0.639,0.952-0.885,2.077-0.677,3.086c0.163,0.789,0.599,1.446,1.228,1.853c1.492,0.965,3.679,0.308,4.866-1.464 c0.739-0.979,1.035-2.033,0.849-2.993c-0.157-0.809-0.649-1.496-1.385-1.935l-0.015-0.01C16.844,17.393,16.31,17.249,15.758,17.249 z"></path><path fill="#ffb5d2" d="M9.73,19.207c1.863-0.492,0.629,7.591-0.887,6.928C7.176,24.813,6.639,20.945,9.73,19.207 L9.73,19.207z"></path><path fill="#ea4c89" d="M9.022,26.672c-0.165,0-0.299-0.045-0.38-0.08l-0.11-0.066c-1.029-0.814-1.639-2.402-1.517-3.949 c0.129-1.63,1.006-2.981,2.47-3.805l0.117-0.048c0.473-0.126,0.901,0.056,1.177,0.494c0.869,1.392,0.153,5.784-0.9,7.005 C9.572,26.577,9.265,26.672,9.022,26.672z M9.891,19.692c-1.113,0.658-1.779,1.707-1.878,2.963c-0.092,1.161,0.337,2.377,1.05,3.01 c0.244-0.158,0.858-1.476,1.058-3.517C10.277,20.534,10.019,19.808,9.891,19.692z"></path><path fill="#ffb5d2" d="M15.477,13.59c-3.214-0.535-5.889,1.346-5.781,4.78C9.802,19.686,16.662,13.786,15.477,13.59z"></path><path fill="#ea4c89" d="M9.916,19.062L9.916,19.062c-0.398-0.001-0.687-0.263-0.718-0.651 c-0.055-1.712,0.53-3.18,1.647-4.156c1.185-1.037,2.902-1.455,4.714-1.157c0.354,0.059,0.582,0.349,0.553,0.703 C16.015,14.981,11.209,19.062,9.916,19.062z M14.425,14.001c-1.14,0-2.171,0.349-2.921,1.005c-0.817,0.716-1.266,1.737-1.308,2.971 c1.078-0.483,3.958-2.894,4.736-3.952C14.762,14.009,14.592,14.001,14.425,14.001z"></path><path fill="#ffb5d2" d="M24.523,13.59c3.214-0.535,5.889,1.346,5.781,4.78C30.198,19.686,23.338,13.786,24.523,13.59z"></path><path fill="#ea4c89" d="M30.084,19.062c-1.293,0-6.099-4.079-6.196-5.262c-0.029-0.354,0.198-0.645,0.553-0.703l0,0 c1.808-0.3,3.529,0.12,4.714,1.157c1.117,0.977,1.702,2.444,1.649,4.132C30.771,18.799,30.482,19.061,30.084,19.062L30.084,19.062z M25.067,14.024c0.778,1.06,3.661,3.471,4.738,3.952c-0.039-1.223-0.487-2.251-1.31-2.971 C27.637,14.255,26.406,13.904,25.067,14.024z"></path><path fill="#ffb5d2" d="M14.355,28.07c1.288,1.487,2.006,4.198,1.066,5.071c-0.899,0.678-3.311,0.584-5.094-1.852 c-1.294-1.636-0.86-4.368-0.121-5.093C11.304,25.359,12.881,26.429,14.355,28.07L14.355,28.07z"></path><path fill="#ea4c89" d="M14.117,34.004c-0.188,0-0.38-0.015-0.576-0.044c-0.786-0.115-2.302-0.578-3.617-2.376 c-1.398-1.768-1.04-4.791-0.068-5.745c0.881-0.679,2.395-0.858,4.872,1.896l0.006,0.007c1.299,1.5,2.303,4.581,1.027,5.765 C15.327,33.837,14.754,34.004,14.117,34.004z M11.081,26.405c-0.207,0-0.4,0.058-0.572,0.188c-0.497,0.494-0.948,2.922,0.211,4.386 c1.111,1.52,2.335,1.899,2.967,1.992c0.704,0.106,1.198-0.052,1.433-0.229c0.576-0.538,0.111-2.895-1.139-4.341 C13.252,27.59,12.023,26.405,11.081,26.405z"></path></svg>