<?xml version="1.0" encoding="utf-8"?>
<!-- Generator: Adobe Illustrator 23.1.1, SVG Export Plug-In . SVG Version: 6.00 Build 0)  -->
<svg version="1.1" id="katman_1" xmlns="http://www.w3.org/2000/svg" xmlns:xlink="http://www.w3.org/1999/xlink" x="0px" y="0px"
	 viewBox="0 0 16 16" style="enable-background:new 0 0 16 16;" xml:space="preserve">
<style type="text/css">
	.st0{fill:#E1EBF2;}
	.st1{fill:#788B9C;}
	.st2{fill:#66798F;}
	.st3{fill:#D1EDFF;}
</style>
<path class="st0" d="M1,9.5C0.7,9.5,0.5,9.3,0.5,9V3c0-0.3,0.2-0.5,0.5-0.5h14c0.3,0,0.5,0.2,0.5,0.5v6c0,0.3-0.2,0.5-0.5,0.5H1z"/>
<path class="st1" d="M15,3v6H1V3H15 M15,2H1C0.4,2,0,2.5,0,3v6c0,0.6,0.4,1,1,1h14c0.6,0,1-0.4,1-1V3C16,2.5,15.6,2,15,2L15,2z"/>
<path class="st2" d="M12,5c-0.6,0-1,0.4-1,1s0.4,1,1,1s1-0.4,1-1S12.6,5,12,5z M8,5C7.4,5,7,5.4,7,6s0.4,1,1,1s1-0.4,1-1S8.6,5,8,5z
	 M4,5C3.4,5,3,5.4,3,6s0.4,1,1,1s1-0.4,1-1S4.6,5,4,5z"/>
<g>
	<path class="st1" d="M10,11.5l3.6,3.7c0.4,0.4,0.9,0.4,1.3,0l0,0c0.4-0.4,0.4-0.9,0-1.3l-3.8-3.6L10,11.5z"/>
	<path class="st3" d="M7.6,10.9c0,1.7,1.3,3,3,3s3-1.3,3-3s-1.3-3-3-3S7.6,9.2,7.6,10.9z"/>
	<path class="st1" d="M8.1,10.9c0-1.4,1.1-2.5,2.5-2.5s2.5,1.1,2.5,2.5s-1.1,2.5-2.5,2.5S8.1,12.3,8.1,10.9 M7.1,10.9
		c0,1.9,1.6,3.5,3.5,3.5s3.5-1.6,3.5-3.5s-1.6-3.5-3.5-3.5S7.1,9,7.1,10.9L7.1,10.9z"/>
</g>
</svg>
