<svg xmlns="http://www.w3.org/2000/svg" viewBox="0 0 16 16"><path fill="#8b75a1" d="M9,1c0.551,0,1,0.449,1,1H6c0-0.551,0.449-1,1-1H9 M9,0H7C5.895,0,5,0.895,5,2v1h6V2 C11,0.895,10.105,0,9,0L9,0z"></path><path fill="#dcd5f2" d="M4,14.5c-0.827,0-1.5-0.673-1.5-1.5V3.5h11V13c0,0.827-0.673,1.5-1.5,1.5H4z"></path><path fill="#8b75a1" d="M13,4v9c0,0.551-0.449,1-1,1H4c-0.551,0-1-0.449-1-1V4H13 M14,3H2v10c0,1.105,0.895,2,2,2h8 c1.105,0,2-0.895,2-2V3L14,3z"></path><path fill="#dcd5f2" d="M1.5,4.5V3c0-0.276,0.224-0.5,0.5-0.5h12c0.276,0,0.5,0.224,0.5,0.5v1.5H1.5z"></path><path fill="#8b75a1" d="M14 3v1H2V3H14M14 2H2C1.448 2 1 2.448 1 3v2h14V3C15 2.448 14.552 2 14 2L14 2zM9 6H10V13H9zM11 6H12V13H11zM6 6H7V13H6zM4 6H5V13H4z"></path></svg>