<?xml version="1.0" encoding="utf-8"?>
<!-- Generator: Adobe Illustrator 23.1.1, SVG Export Plug-In . SVG Version: 6.00 Build 0)  -->
<svg version="1.1" id="katman_1" xmlns="http://www.w3.org/2000/svg" xmlns:xlink="http://www.w3.org/1999/xlink" x="0px" y="0px"
	 viewBox="0 0 40 40" style="enable-background:new 0 0 40 40;" xml:space="preserve">
<style type="text/css">
	.st0{fill:#C2E8FF;}
	.st1{fill:#7496C4;}
</style>
<path class="st0" d="M15.5,20.5h-14v12.1l14,1.9V20.5z M15.5,4.6l-14,2v11.9h14V4.6z M17.5,4.2v14.3h20v-17L17.5,4.2z M17.5,20.5
	v14.3l20,2.8V20.5H17.5z"/>
<path class="st1" d="M38,38.2l-21-3V20h21V38.2z M18,34.3L37,37V21H18V34.3z M16,35.1L1,33.1V20h15V35.1z M2,32.2L15,34V21H2V32.2z
	 M38,19H17V3.8l21-2.9V19z M18,18h19V2.1L18,4.7V18z M16,19H1V6.1L16,4V19z M2,18h13V5.2L2,7V18z"/>
</svg>
