<svg xmlns="http://www.w3.org/2000/svg" viewBox="0 0 16 16"><path fill="#8bb7f0" d="M8 0.5A7.5 7.5 0 1 0 8 15.5A7.5 7.5 0 1 0 8 0.5Z"></path><path fill="#4e7ab5" d="M8,1c3.9,0,7,3.1,7,7s-3.1,7-7,7s-7-3.1-7-7S4.1,1,8,1 M8,0C3.6,0,0,3.6,0,8s3.6,8,8,8s8-3.6,8-8 S12.4,0,8,0L8,0z"></path><path fill="#fff" d="M7.7 6.4H11.8V7.4H7.7z" transform="rotate(-33.85 9.697 6.86)"></path><path fill="#8bb7f0" d="M8 7A1 1 0 1 0 8 9A1 1 0 1 0 8 7Z"></path><path fill="#fff" d="M8,7.5c0.3,0,0.5,0.2,0.5,0.5S8.3,8.5,8,8.5S7.5,8.3,7.5,8S7.7,7.5,8,7.5 M8,6.5 C7.2,6.5,6.5,7.2,6.5,8S7.2,9.5,8,9.5S9.5,8.8,9.5,8S8.8,6.5,8,6.5L8,6.5z"></path><path fill="#fff" d="M6.4 2H7.4V3.2H6.4z" transform="rotate(-11.227 6.927 2.612)"></path><path fill="#c74343" d="M12.8 6.4H14V7.4H12.8z" transform="rotate(-11.275 13.385 6.929)"></path><path fill="#fff" d="M2 8.6H3.2V9.6H2z" transform="rotate(-11.216 2.612 9.072)"></path><path fill="#fff" d="M10.5 2.9H11.7V3.9H10.5z" transform="rotate(-56.151 11.053 3.433)"></path><path fill="#c74343" d="M12.1 10.5H13.1V11.7H12.1z" transform="rotate(-56.205 12.567 11.052)"></path><path fill="#fff" d="M2.9 4.4H3.9V5.6000000000000005H2.9z" transform="rotate(-56.22 3.433 4.948)"></path><path fill="#fff" d="M4.4 2.8H5.4V4H4.4z" transform="rotate(-33.778 4.948 3.432)"></path><path fill="#fff" d="M12 4.4H13.2V5.4H12z" transform="rotate(-33.816 12.567 4.948)"></path><path fill="#fff" d="M2.8 10.6H4V11.6H2.8z" transform="rotate(-33.85 3.432 11.05)"></path><path fill="#fff" d="M8.5 2.1H9.7V3.1H8.5z" transform="rotate(-78.796 9.071 2.612)"></path><path fill="#c74343" d="M13.9 9.7L12.7 9.4 12.9 8.5 14.1 8.7z"></path><path fill="#fff" d="M2.1 6.3H3.1V7.5H2.1z" transform="rotate(-78.773 2.612 6.928)"></path><g><path fill="#fff" d="M6 12H10V13H6z"></path><path fill="#4e7ab5" d="M10 12L6 12 6 13 10 13z"></path></g></svg>