<svg xmlns="http://www.w3.org/2000/svg" viewBox="0 0 16 16"><path fill="#8bb7f0" d="M1 0H14V1H1z"></path><path fill="#4e7ab5" d="M14 0L1 0 1 1 14 1 14 0z"></path><path fill="#8bb7f0" d="M1 14H14V15H1z"></path><path fill="#4e7ab5" d="M14 14L1 14 1 15 14 15 14 14z"></path><path fill="#66798f" d="M1.5 12A.5.5 0 1 0 1.5 13 .5.5 0 1 0 1.5 12zM1.5 10A.5.5 0 1 0 1.5 11 .5.5 0 1 0 1.5 10zM1.5 8A.5.5 0 1 0 1.5 9 .5.5 0 1 0 1.5 8zM1.5 6A.5.5 0 1 0 1.5 7 .5.5 0 1 0 1.5 6zM1.5 4A.5.5 0 1 0 1.5 5 .5.5 0 1 0 1.5 4zM1.5 2A.5.5 0 1 0 1.5 3 .5.5 0 1 0 1.5 2zM13.5 12A.5.5 0 1 0 13.5 13 .5.5 0 1 0 13.5 12zM13.5 10A.5.5 0 1 0 13.5 11 .5.5 0 1 0 13.5 10zM13.5 8A.5.5 0 1 0 13.5 9 .5.5 0 1 0 13.5 8zM13.5 6A.5.5 0 1 0 13.5 7 .5.5 0 1 0 13.5 6zM13.5 4A.5.5 0 1 0 13.5 5 .5.5 0 1 0 13.5 4zM13.5 2A.5.5 0 1 0 13.5 3 .5.5 0 1 0 13.5 2zM10 4L7.5 1 5 4z"></path><g><path fill="#66798f" d="M5 11L7.5 14 10 11z"></path></g><path fill="#66798f" d="M7 3H8V12H7z"></path></svg>