<svg xmlns="http://www.w3.org/2000/svg" viewBox="0 0 16 16"><path fill="#f78f8f" d="M0.566,14.857c0.148-0.445,0.436-1.151,0.787-1.503L4,10.707L5.293,12l-2.646,2.646 c-0.374,0.374-1.063,0.652-1.492,0.792L0.566,14.857z"></path><path fill="#c74343" d="M4,11.414L4.586,12l-2.293,2.293c-0.225,0.225-0.637,0.428-1.009,0.57l-0.14-0.138 c0.152-0.393,0.361-0.816,0.563-1.018L4,11.414 M4,10c0,0-2.367,2.367-3,3s-1,2-1,2l1.012,1c0,0,1.318-0.329,1.988-1s3-3,3-3L4,10 L4,10z"></path><path fill="#f78f8f" d="M3.504 7.964H6.747V14.035H3.504z" transform="rotate(134.999 5.125 11)"></path><path fill="#c74343" d="M4.125,8.414L7.711,12l-1.586,1.586L2.539,10L4.125,8.414 M4.125,7l-3,3l5,5l3-3L4.125,7L4.125,7z"></path><g><path fill="#fff" d="M8.951,13.5c-0.352,0-0.682-0.137-0.931-0.386L2.885,7.98c-0.513-0.513-0.513-1.348,0-1.861 l5.233-5.234C8.366,0.637,8.697,0.5,9.049,0.5s0.682,0.137,0.93,0.385l5.136,5.136C15.363,6.27,15.5,6.6,15.5,6.951 s-0.137,0.682-0.386,0.93l-5.233,5.234C9.633,13.363,9.302,13.5,8.951,13.5z"></path><path fill="#788b9c" d="M9.049,1c0.218,0,0.422,0.085,0.576,0.239l5.136,5.136c0.318,0.318,0.318,0.835,0,1.153 l-5.234,5.233C9.373,12.915,9.169,13,8.951,13c-0.218,0-0.422-0.085-0.577-0.239L3.239,7.626C3.085,7.472,3,7.267,3,7.049 c0-0.218,0.085-0.422,0.239-0.577l5.233-5.234C8.626,1.085,8.831,1,9.049,1 M9.049,0C8.584,0,8.119,0.177,7.765,0.532L2.532,5.765 c-0.709,0.709-0.709,1.858,0,2.568l5.135,5.134C8.021,13.823,8.486,14,8.951,14c0.465,0,0.929-0.177,1.284-0.532l5.234-5.233 c0.709-0.709,0.709-1.858,0-2.567l-5.136-5.136C9.978,0.177,9.513,0,9.049,0L9.049,0z"></path></g><path fill="#d6e3ed" d="M6.172 5.586H11.829V8.414H6.172z" transform="rotate(45.001 9 7)"></path></svg>