<svg xmlns="http://www.w3.org/2000/svg" viewBox="0 0 16 16"><path fill="#fff" d="M1.959,13.902c-0.895-1.279-1.362-2.774-1.362-4.328c0-4.131,3.307-7.475,7.393-7.475 s7.393,3.344,7.393,7.475c0,1.554-0.467,3.049-1.362,4.328H1.959z"></path><rect width="1" height="1.5" x="7.5" y="2.5" fill="#66798f"></rect><rect width="1.5" height="1" x="1" y="10" fill="#66798f"></rect><rect width="1.5" height="1" x="13.5" y="10" fill="#66798f"></rect><rect width="1" height="1.5" x="3.081" y="5.331" fill="#66798f" transform="rotate(-45.001 3.58 6.08)"></rect><path fill="#4e7ab5" d="M15.1,7.06c-0.19,0.37-0.45,0.69-0.76,0.96c0.11,0.45,0.16,0.92,0.16,1.41 c0,1.28-0.38,2.51-1.09,3.57H2.59C1.88,11.94,1.5,10.71,1.5,9.43C1.5,5.89,4.42,3,8,3c0.35,0,0.7,0.03,1.04,0.09 C9.37,2.76,9.76,2.5,10.2,2.32C9.5,2.11,8.77,2,8,2C3.86,2,0.5,5.33,0.5,9.43c0,1.58,0.49,3.09,1.42,4.36L2.07,14h11.86 l0.15-0.21c0.93-1.27,1.42-2.78,1.42-4.36C15.5,8.6,15.36,7.8,15.1,7.06z"></path><path fill="#4e7ab5" d="M15.1,7.06c-0.19,0.37-0.45,0.69-0.76,0.96c-0.58-2.54-2.68-4.52-5.3-4.93 C9.37,2.76,9.76,2.5,10.2,2.32C12.51,3.03,14.34,4.8,15.1,7.06z"></path><rect width="5.67" height="1" x="2.561" y="10.415" fill="#c74343" transform="rotate(-16.096 5.396 10.915)"></rect><circle cx="8.129" cy="10.055" r="1" fill="#c74343"></circle><path fill="#ffeea3" d="M12.887,2.797v0.334c0,0.53,0.336,0.883,0.695,1.251c0.438,0.453,0.934,0.964,0.934,1.95 c0,1.363-1.129,2.472-2.516,2.472S9.484,7.695,9.484,6.332c0-0.987,0.496-1.497,0.934-1.95c0.359-0.372,0.695-0.722,0.695-1.251 V2.797H12.887z"></path><path fill="#ba9b48" d="M12,8.608c-1.277,0-2.312-1.021-2.312-2.276c0-0.91,0.445-1.37,0.875-1.816 c0.371-0.38,0.75-0.775,0.75-1.386V2.992h1.375v0.138c0,0.61,0.379,1.006,0.75,1.386c0.43,0.445,0.875,0.906,0.875,1.816 C14.312,7.587,13.277,8.608,12,8.608 M14.715,6.332c0-1.866-1.629-2.15-1.629-3.202V2.597h-2.172v0.534 c0,1.052-1.629,1.336-1.629,3.202C9.285,7.806,10.5,9,12,9S14.715,7.806,14.715,6.332z"></path><path fill="#fff" d="M12.539,6.474c-0.027,0-0.078-0.008-0.121-0.05L12,6.013l-0.418,0.411 c-0.043,0.042-0.094,0.05-0.121,0.05c-0.027,0-0.078-0.008-0.121-0.05c-0.047-0.042-0.051-0.092-0.051-0.119 c0-0.027,0.004-0.077,0.051-0.123l0.52-0.511V2.985h0.281v2.687l0.52,0.511c0.047,0.046,0.051,0.096,0.051,0.123 c0,0.027-0.004,0.077-0.051,0.119C12.617,6.466,12.566,6.474,12.539,6.474 M12.945,6.701c0.223-0.219,0.223-0.576,0-0.795 l-0.406-0.399V2.589h-1.078v2.917l-0.406,0.399c-0.223,0.219-0.223,0.576,0,0.795c0.113,0.111,0.258,0.165,0.406,0.165 c0.145,0,0.293-0.054,0.402-0.165L12,6.57l0.137,0.131c0.109,0.111,0.258,0.165,0.402,0.165 C12.688,6.866,12.832,6.812,12.945,6.701z"></path><path fill="#8b75a1" d="M12.871,1.856C12.871,1.384,12.48,1,12,1s-0.871,0.384-0.871,0.856 c0,0.472,0.391,0.856,0.871,0.856S12.871,2.328,12.871,1.856z"></path><path fill="#dcd5f2" d="M12.543,1.48c0.188,0,0.344,0.154,0.344,0.338v1.405h-1.773V1.818 c0-0.184,0.156-0.338,0.344-0.338H12.543z"></path><path fill="#8b75a1" d="M12.688,3.023h-1.375V1.818c0-0.077,0.066-0.142,0.145-0.142h1.086 c0.078,0,0.145,0.065,0.145,0.142V3.023 M13.086,1.818c0-0.296-0.242-0.534-0.543-0.534h-1.086c-0.301,0-0.543,0.238-0.543,0.534 v1.601h2.172V1.818z"></path></svg>