<?xml version="1.0" encoding="utf-8"?>
<!-- Generator: Adobe Illustrator 22.1.0, SVG Export Plug-In . SVG Version: 6.00 Build 0)  -->
<svg version="1.2" baseProfile="tiny" id="katman_1"
	 xmlns="http://www.w3.org/2000/svg" xmlns:xlink="http://www.w3.org/1999/xlink" x="0px" y="0px" viewBox="0 0 16 16"
	 xml:space="preserve">
<path fill="#B0C1D4" d="M2,0.5h10c0.8,0,1.5,0.7,1.5,1.5v6c0,0.8-0.7,1.5-1.5,1.5H2C1.2,9.5,0.5,8.8,0.5,8V2C0.5,1.2,1.2,0.5,2,0.5z
	"/>
<path fill="#66798F" d="M12,1c0.6,0,1,0.4,1,1v6c0,0.6-0.4,1-1,1H2C1.4,9,1,8.6,1,8V2c0-0.6,0.4-1,1-1H12 M12,0H2C0.9,0,0,0.9,0,2v6
	c0,1.1,0.9,2,2,2h10c1.1,0,2-0.9,2-2V2C14,0.9,13.1,0,12,0z"/>
<path fill="#D8E2ED" d="M2,1h10c0.6,0,1,0.4,1,1v5c0,0.6-0.4,1-1,1H2C1.4,8,1,7.6,1,7V2C1,1.4,1.5,1,2,1z"/>
<g>
	<path fill="#36404D" d="M2,6.9V2h1.9c0.8,0,1.4,0.5,1.4,1.2c0,0.5-0.4,1-0.9,1.1l0,0c0.7,0.1,1.1,0.6,1.1,1.2
		c0,0.9-0.6,1.4-1.7,1.4H2z M2.6,4.1h0.9c0.7,0,1.1-0.3,1.1-0.8S4.3,2.5,3.7,2.5H2.6V4.1z M3.8,6.4c0.7,0,1.1-0.3,1.1-0.9
		c0-0.6-0.4-0.9-1.2-0.9H2.6v1.7L3.8,6.4L3.8,6.4z"/>
	<path fill="#36404D" d="M6.8,2.4v0.9h0.7v0.5H6.8v2.1c0,0.3,0.1,0.5,0.4,0.5c0.1,0,0.2,0,0.2,0v0.5c-0.1,0-0.2,0-0.4,0
		c-0.7,0-0.9-0.3-0.9-1V3.8H5.7V3.3h0.5V2.4H6.8z"/>
	<path fill="#36404D" d="M8,3.3h0.6v0.6l0,0c0.2-0.4,0.6-0.6,1.1-0.6c0.8,0,1.2,0.5,1.2,1.3v2.3h-0.6V4.7c0-0.6-0.3-0.9-0.8-0.9
		c-0.6,0-0.9,0.4-0.9,1v2.1H8V3.3z"/>
</g>
<path fill="#B0C1D4" d="M4,6.5h10c0.8,0,1.5,0.7,1.5,1.5v6c0,0.8-0.7,1.5-1.5,1.5H4c-0.8,0-1.5-0.7-1.5-1.5V8C2.5,7.2,3.2,6.5,4,6.5
	z"/>
<path fill="#66798F" d="M14,7c0.6,0,1,0.4,1,1v6c0,0.6-0.4,1-1,1H4c-0.6,0-1-0.4-1-1V8c0-0.6,0.4-1,1-1H14 M14,6H4C2.9,6,2,6.9,2,8
	v6c0,1.1,0.9,2,2,2h10c1.1,0,2-0.9,2-2V8C16,6.9,15.1,6,14,6z"/>
<path fill="#D8E2ED" d="M4,7h10c0.6,0,1,0.4,1,1v5c0,0.6-0.4,1-1,1H4c-0.6,0-1-0.4-1-1V8C3,7.4,3.5,7,4,7z"/>
<g>
	<path fill="#36404D" d="M4,12.9V8h1.9c0.8,0,1.4,0.5,1.4,1.2c0,0.5-0.4,1-0.9,1.1l0,0c0.7,0.1,1.1,0.6,1.1,1.2
		c0,0.9-0.6,1.4-1.7,1.4H4z M4.6,10.1h0.9c0.7,0,1.1-0.3,1.1-0.8S6.3,8.5,5.7,8.5H4.6V10.1z M5.8,12.4c0.7,0,1.1-0.3,1.1-0.9
		c0-0.6-0.4-0.9-1.2-0.9H4.6v1.7L5.8,12.4L5.8,12.4z"/>
	<path fill="#36404D" d="M8.8,8.4v0.9h0.7v0.5H8.8v2.1c0,0.3,0.1,0.5,0.4,0.5c0.1,0,0.2,0,0.2,0v0.5c-0.1,0-0.2,0-0.4,0
		c-0.7,0-0.9-0.3-0.9-1V9.8H7.7V9.3h0.5V8.4H8.8z"/>
	<path fill="#36404D" d="M10,9.3h0.6v0.6l0,0c0.2-0.4,0.6-0.6,1.1-0.6c0.8,0,1.2,0.5,1.2,1.3v2.3h-0.6v-2.2c0-0.6-0.3-0.9-0.8-0.9
		c-0.6,0-0.9,0.4-0.9,1v2.1H10V9.3z"/>
</g>
</svg>
