<svg xmlns="http://www.w3.org/2000/svg" viewBox="0 0 16 16"><path fill="#e1ebf2" d="M7.5,14.5c-3.86,0-7-3.14-7-7s3.14-7,7-7s7,3.14,7,7S11.36,14.5,7.5,14.5z"></path><path fill="#a3b7cc" d="M7.5,1C11.084,1,14,3.916,14,7.5S11.084,14,7.5,14S1,11.084,1,7.5S3.916,1,7.5,1 M7.5,0 C3.358,0,0,3.358,0,7.5S3.358,15,7.5,15S15,11.642,15,7.5S11.642,0,7.5,0L7.5,0z"></path><path fill="#8bb7f0" d="M7.5,12.5c-2.757,0-5-2.243-5-5s2.243-5,5-5s5,2.243,5,5S10.257,12.5,7.5,12.5z"></path><path fill="#4e7ab5" d="M7.5,3C9.981,3,12,5.019,12,7.5S9.981,12,7.5,12S3,9.981,3,7.5S5.019,3,7.5,3 M7.5,2 C4.462,2,2,4.462,2,7.5S4.462,13,7.5,13S13,10.538,13,7.5S10.538,2,7.5,2L7.5,2z"></path><path fill="#f75252" d="M7.284 6.576L9.564 5.436 8.424 7.716z"></path><path fill="#ab3434" d="M10.682 4.318L6.439 6.439 8.561 8.561 10.682 4.318z"></path><g><path fill="#788b9c" d="M6.576 7.284L7.716 8.424 5.436 9.564z"></path><path fill="#36404d" d="M6.439 6.439L4.318 10.682 8.561 8.561 6.439 6.439z"></path></g><g><path fill="#8bb7f0" d="M7.5 7A0.5 0.5 0 1 0 7.5 8A0.5 0.5 0 1 0 7.5 7Z"></path><path fill="#fff" d="M7.5,7C7.372,7,7.244,7.049,7.146,7.146c-0.195,0.195-0.195,0.512,0,0.707 C7.244,7.951,7.372,8,7.5,8s0.256-0.049,0.354-0.146c0.195-0.195,0.195-0.512,0-0.707C7.756,7.049,7.628,7,7.5,7L7.5,7z"></path></g></svg>