<svg xmlns="http://www.w3.org/2000/svg" viewBox="0 0 16 16"><path fill="#a3b7cc" d="M3 10.5H2V6.4C2 5.7 2.4 5 3 4.7l2.9-1.6L6.3 4 3.5 5.5C3.2 5.7 3 6 3 6.4V10.5zM14 10.5h-1V6.4c0-.3-.2-.7-.5-.8L9.7 4l.5-.9L13 4.7c.6.3 1 1 1 1.7V10.5zM8 16c-.3 0-.6-.1-.9-.2l-3.7-2 .5-.9 3.7 2c.3.2.7.2.9 0l3.3-2 .5.9-3.3 2C8.7 15.9 8.3 16 8 16z"></path><path fill="#c2e8ff" d="M5.5 4.9L5.5 2.1 8 0.6 10.5 2.1 10.5 4.9 8 6.4z"></path><path fill="#7496c4" d="M8,1.2l2,1.2v2.3L8,5.8L6,4.6V2.4L8,1.2 M8,0L5,1.8v3.4L8,7l3-1.8V1.8L8,0L8,0z"></path><path fill="#e6f7ff" d="M10 2.4L10 2.4 8 3.4 8 5.8 10 4.6z"></path><path fill="#8bb7f0" d="M8 3.4L6 2.4 6 2.4 6 4.6 8 5.8z"></path><path fill="#c2e8ff" d="M10.5 12.9L10.5 10.1 13 8.6 15.5 10.1 15.5 12.9 13 14.4z"></path><path fill="#7496c4" d="M13,9.2l2,1.2v2.3l-2,1.2l-2-1.2v-2.3L13,9.2 M13,8l-3,1.8v3.4l3,1.8l3-1.8V9.8L13,8L13,8z"></path><path fill="#e6f7ff" d="M15 10.4L15 10.4 13 11.4 13 13.8 15 12.6z"></path><path fill="#8bb7f0" d="M13 11.4L11 10.4 11 10.4 11 12.6 13 13.8z"></path><path fill="#c2e8ff" d="M0.5 12.9L0.5 10.1 3 8.6 5.5 10.1 5.5 12.9 3 14.4z"></path><path fill="#7496c4" d="M3,9.2l2,1.2v2.3l-2,1.2l-2-1.2v-2.3L3,9.2 M3,8L0,9.8v3.4L3,15l3-1.8V9.8L3,8L3,8z"></path><path fill="#e6f7ff" d="M5 10.4L5 10.4 3 11.4 3 13.8 5 12.6z"></path><path fill="#8bb7f0" d="M3 11.4L1 10.4 1 10.4 1 12.6 3 13.8z"></path></svg>