<svg xmlns="http://www.w3.org/2000/svg" viewBox="0 0 16 16"><path fill="#d1edff" d="M8 0.5A7.5 7.5 0 1 0 8 15.5A7.5 7.5 0 1 0 8 0.5Z"></path><path fill="#4e7ab5" d="M8,1c3.86,0,7,3.14,7,7s-3.14,7-7,7s-7-3.14-7-7S4.14,1,8,1 M8,0C3.582,0,0,3.582,0,8s3.582,8,8,8 s8-3.582,8-8S12.418,0,8,0L8,0z"></path><path fill="#d1edff" d="M.069 7h8.58V3.8H1.201C.611 4.753.215 5.836.069 7zM1.76 13h1.568v-1H1.079C1.282 12.351 1.508 12.686 1.76 13zM2 8H0c0 .339.028.672.069 1H2V8zM2 10H.262c.088.342.194.677.325 1H2V10z"></path><g><path fill="#d1edff" d="M15.931 9h-8.58v3.2h7.449C15.389 11.247 15.785 10.164 15.931 9zM14.24 3h-1.568v1h2.249C14.718 3.649 14.492 3.314 14.24 3zM14 8h2c0-.339-.028-.672-.069-1H14V8zM14 6h1.738c-.088-.342-.194-.677-.325-1H14V6z"></path></g><g><path fill="#4e7ab5" d="M15 15.308L10.692 11 15 11z"></path></g><g><path fill="#4e7ab5" d="M1 0.692L5.308 5 1 5z"></path></g></svg>