<svg xmlns="http://www.w3.org/2000/svg" viewBox="0 0 16 16"><path fill="#66798f" d="M3 8c0-1.183.428-2.256 1.116-3.113L3.388 4.16c-1.851 2.218-1.851 5.459.001 7.679l.726-.726C3.428 10.256 3 9.183 3 8zM8 3c1.183 0 2.256.428 3.113 1.116l.726-.726C9.619 1.537 6.378 1.537 4.16 3.388l.727.727C5.744 3.428 6.817 3 8 3zM8 13c-1.183 0-2.256-.428-3.113-1.116l-.726.726c2.22 1.852 5.461 1.852 7.679.001l-.727-.727C10.256 12.572 9.183 13 8 13zM12.611 4.161l-.726.726C12.572 5.744 13 6.817 13 8s-.428 2.256-1.116 3.113l.727.727C14.463 9.622 14.463 6.381 12.611 4.161z"></path><g><path fill="#f78f8f" d="M8 7.5A0.5 0.5 0 1 0 8 8.5A0.5 0.5 0 1 0 8 7.5Z"></path><path fill="#c74343" d="M8,7C7.448,7,7,7.448,7,8s0.448,1,1,1s1-0.448,1-1S8.552,7,8,7L8,7z"></path></g><g><path fill="#f78f8f" d="M0.5,8.5v-1h4.04C4.513,7.668,4.5,7.834,4.5,8s0.013,0.332,0.04,0.5H0.5z"></path><path fill="#c74343" d="M5.184,7H0v2h5.184C5.072,8.686,5,8.352,5,8S5.072,7.314,5.184,7L5.184,7z"></path><path fill="#f78f8f" d="M8.5,4.54C8.332,4.513,8.166,4.5,8,4.5S7.668,4.513,7.5,4.54V0.5h1V4.54z"></path><path fill="#c74343" d="M8,1v3V1 M9,0H7v5.184C7.314,5.072,7.647,5,8,5s0.686,0.072,1,0.184V0L9,0z"></path><g><path fill="#f78f8f" d="M11.46,8.5C11.487,8.332,11.5,8.166,11.5,8s-0.013-0.332-0.04-0.5h4.04v1H11.46z"></path><path fill="#c74343" d="M16,7h-5.184C10.928,7.314,11,7.648,11,8s-0.072,0.686-0.184,1H16V7L16,7z"></path></g><g><path fill="#f78f8f" d="M7.5,15.5v-4.04C7.668,11.487,7.834,11.5,8,11.5s0.332-0.013,0.5-0.04v4.04H7.5z"></path><path fill="#c74343" d="M8,12v3V12 M9,10.816C8.686,10.928,8.353,11,8,11s-0.686-0.072-1-0.184V16h2V10.816L9,10.816z"></path></g></g></svg>