<?xml version="1.0" encoding="utf-8"?>
<!-- Generator: Adobe Illustrator 22.1.0, SVG Export Plug-In . SVG Version: 6.00 Build 0)  -->
<svg version="1.2" baseProfile="tiny" id="katman_1"
	 xmlns="http://www.w3.org/2000/svg" xmlns:xlink="http://www.w3.org/1999/xlink" x="0px" y="0px" viewBox="0 0 16 16"
	 xml:space="preserve">
<path fill="#EDD5F2" d="M2.9,14.4c0.3-0.5,0.6-1.1,0.9-1.7L4,12.4l-0.3-0.3c-1.4-1-2.2-2.5-2.2-4.1c0-3,2.9-5.5,6.5-5.5
	S14.5,5,14.5,8s-2.9,5.5-6.5,5.5c-0.5,0-1,0-1.5-0.1l-0.2,0l-0.1,0.1C5.2,13.9,3.9,14.3,2.9,14.4z"/>
<path fill="#95709C" d="M8,3c3.3,0,6,2.2,6,5s-2.7,5-6,5c-0.4,0-0.9,0-1.4-0.1l-0.3-0.1L6,12.9c-0.7,0.3-1.4,0.6-2.1,0.8
	C4,13.5,4.1,13.2,4.3,13l0.4-0.8L4,11.7c-1.3-1-2-2.3-2-3.7C2,5.2,4.7,3,8,3 M8,2C4.1,2,1,4.7,1,8c0,1.8,0.9,3.4,2.4,4.5
	c-0.5,0.9-1,1.9-1.4,2.5c1.2,0,3-0.5,4.4-1.2C6.9,13.9,7.5,14,8,14c3.9,0,7-2.7,7-6S11.9,2,8,2L8,2z"/>
<path fill="#95709C" d="M5.1,6.7H4.4V6h2.2v0.7H5.9v3.2H5.1V6.7z M8.1,6.8H7.4V6.1h2.2v0.7H8.9V10H8.1V6.8z M10.1,6.1h1.8v0.7h-1v1
	h0.9v0.7h-0.9V10h-0.8V6.1z"/>
</svg>
