<?xml version="1.0" encoding="utf-8"?>
<!-- Generator: Adobe Illustrator 23.1.1, SVG Export Plug-In . SVG Version: 6.00 Build 0)  -->
<svg version="1.1" id="katman_1" xmlns="http://www.w3.org/2000/svg" xmlns:xlink="http://www.w3.org/1999/xlink" x="0px" y="0px"
	 viewBox="0 0 16 16" style="enable-background:new 0 0 16 16;" xml:space="preserve">
<style type="text/css">
	.st0{fill:#97A6B2;}
	.st1{fill:#66798F;}
</style>
<path class="st0" d="M6,14H5C7,7.9,3,2.1,3,2h1C4.1,2.3,8,7.2,6,14z"/>
<path class="st0" d="M2,14H1c0-0.1,2-5.2,2-12h1C4,8.8,2.1,13.7,2,14z M10,14H9C11,7.9,7,2.1,7,2h1C8.1,2.3,12,7.2,10,14z"/>
<path class="st0" d="M6,14H5c0-0.1,2-5.2,2-12h1C8,8.8,6.1,13.7,6,14z M14,14h-1c2-6.1-2-11.9-2-12h1C12.1,2.3,16,7.2,14,14z"/>
<path class="st0" d="M10,14H9c0-0.1,2-5.3,2-12h1C12,8.8,10.1,13.7,10,14z M14,14h-1c0-0.1,2-5.3,2-12h1C16,8.8,14.1,13.7,14,14z"/>
<rect y="1" class="st1" width="2" height="14"/>
<rect x="14" y="1" class="st1" width="2" height="14"/>
</svg>
