<svg xmlns="http://www.w3.org/2000/svg" viewBox="0 0 16 16"><path fill="#dcd5f2" d="M11.5,14.5c-0.552,0-1-0.449-1-1v-11c0-0.551,0.448-1,1-1h3v13H11.5z"></path><path fill="#8b75a1" d="M14,2v12h-2.5c-0.276,0-0.5-0.224-0.5-0.5v-11C11,2.224,11.224,2,11.5,2H14 M15,1h-3.5 C10.672,1,10,1.672,10,2.5v11c0,0.828,0.672,1.5,1.5,1.5H15V1L15,1z"></path><path fill="#f7a3a3" d="M1,1v1c3.308,0,6,2.692,6,6s-2.692,6-6,6v1c3.866,0,7-3.134,7-7S4.866,1,1,1z"></path><path fill="#f78f8f" d="M1,3v1c2.206,0,4,1.794,4,4s-1.794,4-4,4v1c2.761,0,5-2.239,5-5S3.761,3,1,3z"></path><path fill="#c74343" d="M1,5v1c1.103,0,2,0.897,2,2s-0.897,2-2,2v1c1.657,0,3-1.343,3-3S2.657,5,1,5z"></path><g><path fill="#f78f8f" d="M10.5,6.585c0.582,0.207,1,0.763,1,1.415s-0.418,1.208-1,1.415V6.585z"></path><path fill="#c74343" d="M10,6v4c1.105,0,2-0.895,2-2C12,6.895,11.105,6,10,6L10,6z"></path></g></svg>