<svg xmlns="http://www.w3.org/2000/svg" viewBox="0 0 16 16"><path fill="#e0ac89" d="M2.5 2.5A2 2 0 1 0 2.5 6.5A2 2 0 1 0 2.5 2.5Z"></path><path fill="#a16a4a" d="M2.5,3C3.327,3,4,3.673,4,4.5S3.327,6,2.5,6S1,5.327,1,4.5S1.673,3,2.5,3 M2.5,2 C1.119,2,0,3.119,0,4.5S1.119,7,2.5,7C3.881,7,5,5.881,5,4.5S3.881,2,2.5,2L2.5,2z"></path><path fill="#36404d" d="M2.5 4A0.5 0.5 0 1 0 2.5 5A0.5 0.5 0 1 0 2.5 4Z"></path><path fill="#e0ac89" d="M8.5 0.5A3 3 0 1 0 8.5 6.5A3 3 0 1 0 8.5 0.5Z"></path><path fill="#a16a4a" d="M8.5,1C9.878,1,11,2.121,11,3.5S9.878,6,8.5,6S6,4.879,6,3.5S7.122,1,8.5,1 M8.5,0 C6.567,0,5,1.567,5,3.5S6.567,7,8.5,7S12,5.433,12,3.5S10.433,0,8.5,0L8.5,0z"></path><path fill="#36404d" d="M8.5 3A0.5 0.5 0 1 0 8.5 4A0.5 0.5 0 1 0 8.5 3Z"></path><g><path fill="#a3b7cc" d="M1.011,14.5c-0.282,0-0.512-0.229-0.512-0.511V8.011C0.5,7.73,0.729,7.5,1.011,7.5h9.978 C11.27,7.5,11.5,7.73,11.5,8.011v5.978c0,0.282-0.229,0.511-0.511,0.511H1.011z"></path><path fill="#8499ad" d="M10.989,8L11,8.011L10.989,14L1,13.989L1.011,8H10.989 M10.989,7H1.011C0.453,7,0,7.453,0,8.011 v5.977C0,14.547,0.453,15,1.011,15h9.977C11.547,15,12,14.547,12,13.989V8.011C12,7.453,11.547,7,10.989,7L10.989,7z"></path></g><g><path fill="#839cb2" d="M15.207 13.5L13.207 11.5 12.5 11.5 12.5 10.5 13.207 10.5 15.207 8.5 15.5 8.5 15.5 13.5z"></path><path fill="#66798f" d="M15,9.414v3.172l-1.293-1.293L13.414,11l0.293-0.293L15,9.414 M16,8h-1l-2,2h-1v2h1l2,2h1V8L16,8z"></path></g></svg>