<?xml version="1.0" encoding="utf-8"?>
<!-- Generator: Adobe Illustrator 22.1.0, SVG Export Plug-In . SVG Version: 6.00 Build 0)  -->
<svg version="1.2" baseProfile="tiny" id="katman_1"
	 xmlns="http://www.w3.org/2000/svg" xmlns:xlink="http://www.w3.org/1999/xlink" x="0px" y="0px" viewBox="0 0 16 16"
	 xml:space="preserve">
<path fill="#8BB7F0" d="M0.5,6.5h15v3h-15V6.5z"/>
<path fill="#4E7AB5" d="M15,7v2H1V7H15 M16,6H0v4h16V6L16,6z"/>
<path fill="#C2E8FF" d="M2,7C1.4,7,1,7.4,1,8s0.4,1,1,1s1-0.4,1-1S2.6,7,2,7z"/>
<path fill="#C2E8FF" d="M5,7C4.4,7,4,7.4,4,8s0.4,1,1,1s1-0.4,1-1S5.6,7,5,7z"/>
<path fill="#C2E8FF" d="M8,7C7.4,7,7,7.4,7,8s0.4,1,1,1s1-0.4,1-1S8.6,7,8,7z"/>
</svg>
