<svg xmlns="http://www.w3.org/2000/svg" viewBox="0 0 16 16"><path fill="#fff" d="M0.5 15.5L0.5 0.5 15.5 0.5 15.5 12.5 9.5 12.5 9.5 15.5z"></path><path fill="#788b9c" d="M15,1v11h-5H9v1v2H1V1H15 M16,0H0v16h10v-3h6V0L16,0z"></path><path fill="#c5d4de" d="M1 3H12V4H1z" transform="rotate(-180 6.5 3.5)"></path><path fill="#c5d4de" d="M1 6H12V7H1z" transform="rotate(-180 6.5 6.5)"></path><path fill="#c5d4de" d="M1 9H12V10H1z" transform="rotate(-180 6.5 9.5)"></path><path fill="#c5d4de" d="M1 12H9V13H1z" transform="rotate(-180 5 12.5)"></path><path fill="#c5d4de" d="M4 6H15V7H4z" transform="rotate(-90 9.5 6.5)"></path><path fill="#c5d4de" d="M-0.5 7.5H13.5V8.5H-0.5z" transform="rotate(-90 6.5 8)"></path><path fill="#c5d4de" d="M-3.5 7.5H10.5V8.5H-3.5z" transform="rotate(-90 3.5 8)"></path><path fill="#f78f8f" d="M12.5 0.5H15.5V3.5H12.5z"></path><path fill="#c74343" d="M15,1v2h-2V1H15 M16,0h-4v4h4V0L16,0z"></path><path fill="#f78f8f" d="M12.5 3.5H15.5V6.5H12.5z"></path><path fill="#c74343" d="M15,4v2h-2V4H15 M16,3h-4v4h4V3L16,3z"></path><g><path fill="#f78f8f" d="M12.5 6.5H15.5V9.5H12.5z"></path><path fill="#c74343" d="M15,7v2h-2V7H15 M16,6h-4v4h4V6L16,6z"></path></g><g><path fill="#f78f8f" d="M12.5 9.5H15.5V12.5H12.5z"></path><path fill="#c74343" d="M15,10v2h-2v-2H15 M16,9h-4v4h4V9L16,9z"></path></g></svg>