<svg xmlns="http://www.w3.org/2000/svg" viewBox="0 0 16 16"><path fill="#f2faff" d="M0.5 0.5H15.5V15.5H0.5z"></path><path fill="#788b9c" d="M15,1v14H1V1H15 M16,0H0v16h16V0L16,0z"></path><path fill="#c2e8ff" d="M1 1H3V3H1zM3 3H5V5H3zM5 1H7V3H5zM7 3H9V5H7zM9 1H11V3H9zM13 1H15V3H13zM1 5H3V7H1zM5 5H7V7H5zM9 5H11V7H9zM13 5H15V7H13zM11 3H13V5H11zM3 7H5V9H3zM7 7H9V9H7zM1 9H3V11H1zM5 9H7V11H5zM9 9H11V11H9zM13 9H15V11H13zM11 7H13V9H11zM3 11H5V13H3zM7 11H9V13H7zM1 13H3V15H1zM5 13H7V15H5zM9 13H11V15H9zM13 13H15V15H13z"></path><g><path fill="#c2e8ff" d="M11 11H13V13H11z"></path></g></svg>