<svg xmlns="http://www.w3.org/2000/svg" viewBox="0 0 16 16"><path fill="#fff" d="M2.5 14.5L2.5 0.5 9.867 0.5 13.5 4.204 13.5 14.5z"></path><path fill="#788b9c" d="M9.657,1L13,4.409V14H3V1H9.657 M10.077,0H2v15h12V4L10.077,0L10.077,0z"></path><path fill="#fff" d="M9.5 4.5L9.5 0.5 9.832 0.5 13.5 4.206 13.5 4.5z"></path><path fill="#788b9c" d="M10,1.381L12.593,4H10V1.381 M10.04,0H9v5h5V4L10.04,0L10.04,0z"></path><path fill="#4e7ab5" d="M8.015,7.004L7.167,7.469L7,6.628L8,6h1v5H8.015V7.004z"></path></svg>