<?xml version="1.0" encoding="utf-8"?>
<!-- Generator: Adobe Illustrator 22.1.0, SVG Export Plug-In . SVG Version: 6.00 Build 0)  -->
<svg version="1.2" baseProfile="tiny" id="katman_1"
	 xmlns="http://www.w3.org/2000/svg" xmlns:xlink="http://www.w3.org/1999/xlink" x="0px" y="0px" viewBox="0 0 16 16"
	 xml:space="preserve">
<path fill="#BAE0BD" d="M2,14.5c-0.3,0-0.5-0.2-0.5-0.5V2c0-0.3,0.2-0.5,0.5-0.5h12c0.3,0,0.5,0.2,0.5,0.5v12c0,0.3-0.2,0.5-0.5,0.5
	H2z"/>
<path fill="#5E9C76" d="M14,2v12H2V2H14 M14,1H2C1.4,1,1,1.4,1,2v12c0,0.6,0.4,1,1,1h12c0.6,0,1-0.4,1-1V2C15,1.4,14.6,1,14,1L14,1z
	"/>
<path fill="none" stroke="#5E9C76" stroke-miterlimit="10" d="M0,11.1C2,6,3.6,4.9,4.8,5c2.5,0.2,3.2,6.2,6.7,7.4
	c1.7,0.6,3.4-0.3,4.6-1.2"/>
<rect x="4.5" y="3.4" fill="#BAE0BD" stroke="#5E9C76" stroke-miterlimit="10" width="4" height="5"/>
<rect x="7.5" y="5.4" fill="#BAE0BD" stroke="#5E9C76" stroke-miterlimit="10" width="4" height="5.1"/>
</svg>
