<svg xmlns="http://www.w3.org/2000/svg" viewBox="0 0 16 16"><path fill="#fff" d="M0.5 1.5H15.5V14.5H0.5z"></path><path fill="#788b9c" d="M15,2v12H1V2H15 M16,1H0v14h16V1L16,1z"></path><path fill="#b5deff" d="M3 4H13V10.5H3z"></path><path fill="#d9f6ff" d="M3 7.5H13V10.357H3z"></path><path fill="#7aadf0" d="M3 10.5H13V12H3z"></path><path fill="#d9f6ff" d="M6.125 6.357A1.25 1.143 0 1 0 6.125 8.643A1.25 1.143 0 1 0 6.125 6.357Z"></path><path fill="#d9f6ff" d="M4.875 6.643A.938.857 0 1 0 4.875 8.357.938.857 0 1 0 4.875 6.643zM8 6.928A1.25 1.143 0 1 0 8 9.214 1.25 1.143 0 1 0 8 6.928z"></path><path fill="#d9f6ff" d="M9.875 6.357A1.25 1.143 0 1 0 9.875 8.643 1.25 1.143 0 1 0 9.875 6.357zM12.375 6.929A.625.571 0 1 0 12.375 8.071.625.571 0 1 0 12.375 6.929zM3.625 6.929A.625.571 0 1 0 3.625 8.071.625.571 0 1 0 3.625 6.929z"></path><path fill="#d9f6ff" d="M11.125 6.643A0.938 0.857 0 1 0 11.125 8.357A0.938 0.857 0 1 0 11.125 6.643Z"></path><path fill="#4a6d9c" d="M3 10.5L13 10.5 13 10 9.875 8z"></path><path fill="#5d84b8" d="M10.5 10.5L3 10.5 3 9 6.125 7.5z"></path></svg>