<svg xmlns="http://www.w3.org/2000/svg" viewBox="0 0 16 16"><path fill="#c2e8ff" d="M15,7.5c0,4.175-3.402,7.5-7.5,7.5C3.402,15,0,11.675,0,7.5S3.325,0,7.5,0S15,3.325,15,7.5z"></path><path fill="#8bb7f0" d="M10.312 10.244c.17.085.341.085.427.255.255.256.255.682.341.938.085.341.17.682.341 1.023.085.427.256.853.341 1.193.056-.043.121-.084.183-.126C13.787 12.167 15 9.988 15 7.5c0-2.209-.937-4.174-2.432-5.541-.181-.059-.367-.065-.551.017-.256.086-.426.427-.597.597-.17.256-.341.511-.511.767-.086.085-.17.256-.086.341 0 .085.086.085.17.085.17.086.256.086.427.17.085 0 .17.086.085.17 0 0 0 .086-.085.086-.427.426-.852.767-1.278 1.193-.085.085-.17.256-.17.341 0 .085.085.085.085.17 0 .086-.085.086-.17.17-.17.086-.341.17-.426.256-.085.17 0 .426-.085.597C9.29 7.346 9.034 7.687 8.863 8.113 8.693 8.368 8.608 8.624 8.437 8.88c0 .341-.086.597.085.852C8.949 10.329 9.715 9.988 10.312 10.244zM10.155.478C9.331.17 8.438 0 7.5 0 7.346 0 7.194.007 7.042.016 6.935.182 6.85.345 6.818.442 6.733.868 7.074.783 7.415.868c0 0 .085.682.085.767.085.427-.17.682-.17 1.108 0 .256 0 .682.17.852h.085c.085 0 .17-.085.341-.17.256-.17.512-.426.767-.597.256-.17.512-.426.682-.597.256-.17.426-.511.511-.767.085-.17.378-.673.292-.928C10.172.522 10.163.499 10.155.478zM.171 7.856C.426 8.368.938 8.879 1.449 9.22 1.79 9.475 2.472 9.475 2.813 9.902c.256.341.17.767.17 1.193 0 .511.341.937.511 1.363.085.256.17.597.256.853 0 .085.085.597.085.682.027.014.05.045.07.084.455.25.939.45 1.443.602.006 0 .015-.005.021-.003.085 0 .426-.512.426-.597.256-.256.426-.597.682-.767.17-.085.341-.17.511-.341.17-.17.256-.511.341-.767.085-.17.17-.511.085-.767-.054-.162-.085-.256-.256-.341-.511-.17-1.023-.17-1.449-.597-.085-.17-.085-.341-.17-.511-.17-.17-.597-.256-.852-.341H3.58 2.983C2.727 9.56 2.557 9.219 2.386 8.964c0-.085 0-.256-.17-.256-.17-.085-.341.086-.511 0-.085-.085-.085-.17-.085-.255 0-.256.17-.512.341-.682C2.216 7.6 2.472 7.855 2.727 7.855c.085 0 .085 0 .17.085.256.085.341.426.341.682v.17c0 .085.085.085.17.085C3.494 8.452 3.494 8.026 3.58 7.6c0-.511.511-1.023.937-1.193.17-.085.256.086.426 0 .511-.17 1.79-.682 1.534-1.363-.17-.597-.682-1.193-1.364-1.108-.17.086-.256.17-.426.256-.256.17-.767.682-1.023.682C3.239 4.789 3.239 4.192 3.324 3.936c.085-.341.852-1.448 1.364-1.278.085.085.256.256.341.341.17.085.426.085.682.085.085 0 .17 0 .256-.085.085-.085.085-.085.085-.17 0-.256-.256-.512-.426-.682-.17-.17-.426-.341-.682-.426-.545-.164-1.696.03-2.634.347C.884 3.428 0 5.35 0 7.5c0 .036.003.071.004.107C.065 7.693.123 7.777.171 7.856z"></path><path fill="#7496c4" d="M7.5,1C11.145,1,14,3.855,14,7.5c0,3.584-2.916,6.5-6.5,6.5S1,11.084,1,7.5C1,3.855,3.855,1,7.5,1 M7.5,0C3.325,0,0,3.325,0,7.5S3.402,15,7.5,15c4.098,0,7.5-3.325,7.5-7.5S11.675,0,7.5,0L7.5,0z"></path><path fill="#f78f8f" d="M12.002,8.194C11.218,7.163,9.5,4.709,9.5,3c0-1.425,1.075-2.5,2.5-2.5s2.5,1.075,2.5,2.5 C14.5,4.585,12.941,6.962,12.002,8.194z"></path><path fill="#c74343" d="M12,1c1.14,0,2,0.86,2,2c0,1.253-1.115,3.11-2,4.354C11.115,6.11,10,4.253,10,3 C10,1.86,10.86,1,12,1 M12,0c-1.657,0-3,1.26-3,3c0,2.414,3,6,3,6s3-3.586,3-6C15,1.26,13.657,0,12,0L12,0z"></path><g><path fill="#c74343" d="M12 2A1 1 0 1 0 12 4A1 1 0 1 0 12 2Z"></path></g></svg>