<svg xmlns="http://www.w3.org/2000/svg" viewBox="0 0 16 16"><path fill="#e0ac89" d="M7.5,14.5c-3.9,0-7-3.1-7-7s3.1-7,7-7s7,3.1,7,7S11.4,14.5,7.5,14.5z"></path><path fill="#a16a4a" d="M7.5,1C11.1,1,14,3.9,14,7.5S11.1,14,7.5,14S1,11.1,1,7.5S3.9,1,7.5,1 M7.5,0C3.4,0,0,3.4,0,7.5 S3.4,15,7.5,15S15,11.6,15,7.5S11.6,0,7.5,0L7.5,0z"></path><path fill="#fff" d="M7.5 2A5.5 5.5 0 1 0 7.5 13A5.5 5.5 0 1 0 7.5 2Z"></path><path fill="#e0ac89" d="M7.5 5.5A2 2 0 1 0 7.5 9.5A2 2 0 1 0 7.5 5.5Z"></path><path fill="#a16a4a" d="M7.5,6C8.3,6,9,6.7,9,7.5S8.3,9,7.5,9S6,8.3,6,7.5S6.7,6,7.5,6 M7.5,5C6.1,5,5,6.1,5,7.5 S6.1,10,7.5,10S10,8.9,10,7.5S8.9,5,7.5,5L7.5,5z"></path><path fill="#c5d4de" d="M7.5 3A.5.5 0 1 0 7.5 4 .5.5 0 1 0 7.5 3zM4.5 4A.5.5 0 1 0 4.5 5 .5.5 0 1 0 4.5 4zM11.5 7A.5.5 0 1 0 11.5 8 .5.5 0 1 0 11.5 7zM3.5 7A.5.5 0 1 0 3.5 8 .5.5 0 1 0 3.5 7z"></path><path fill="#36404d" d="M4.8,10.7c-0.1,0-0.3,0-0.4-0.1c-0.2-0.2-0.2-0.5,0-0.7l5.7-5.7c0.2-0.2,0.5-0.2,0.7,0s0.2,0.5,0,0.7 l-5.7,5.7C5.1,10.6,4.9,10.7,4.8,10.7z"></path><g><path fill="#36404d" d="M6 9L4 9 4 11 6 11z"></path></g></svg>