<?xml version="1.0" encoding="utf-8"?>
<!-- Generator: Adobe Illustrator 22.1.0, SVG Export Plug-In . SVG Version: 6.00 Build 0)  -->
<svg version="1.2" baseProfile="tiny" id="katman_1"
	 xmlns="http://www.w3.org/2000/svg" xmlns:xlink="http://www.w3.org/1999/xlink" x="0px" y="0px" viewBox="0 0 16 16"
	 xml:space="preserve">
<path fill="#FFFFFF" stroke="#4E7AB5" stroke-width="0.75" stroke-miterlimit="10" d="M3.5,11L3.5,11c1.7,0,3-1.3,3-3l0,0
	c0-1.7-1.3-3-3-3l0,0c-1.7,0-3,1.3-3,3l0,0C0.5,9.7,1.8,11,3.5,11z"/>
<circle fill="#4E7AB5" cx="3.5" cy="8" r="2"/>
<g>
	<path fill="#36404D" d="M8.6,11H8V6h1.8c1,0,1.6,0.6,1.6,1.5c0,0.7-0.4,1.2-1,1.4l1.1,2h-0.7L9.8,9H8.6V11z M8.6,8.5h1.2
		c0.6,0,1-0.3,1-0.9c0-0.6-0.4-0.9-1-0.9H8.6V8.5z"/>
	<path fill="#36404D" d="M12.7,9.2c0-1.1,0.6-1.8,1.5-1.8c0.5,0,0.9,0.2,1.1,0.6h0v-2h0.6V11h-0.6v-0.6h0c-0.2,0.4-0.6,0.6-1.1,0.6
		C13.3,11,12.7,10.3,12.7,9.2z M13.3,9.2c0,0.8,0.4,1.3,1,1.3c0.6,0,1-0.5,1-1.3c0-0.8-0.4-1.3-1-1.3C13.7,7.9,13.3,8.4,13.3,9.2z"
		/>
</g>
</svg>
