<svg xmlns="http://www.w3.org/2000/svg" viewBox="0 0 16 16"><path fill="#5e9c76" d="M2.09 9C2.035 8.674 2 8.341 2 8c0-1.771.776-3.36 2-4.46V1.082C1.613 2.468 0 5.047 0 8c0 .339.028.672.069 1H2.09zM7 2.09C7.326 2.035 7.659 2 8 2c1.771 0 3.36.776 4.46 2h2.458C13.532 1.613 10.953 0 8 0 7.661 0 7.328.028 7 .069V2.09zM9 13.91C8.674 13.965 8.341 14 8 14c-1.771 0-3.36-.776-4.46-2H1.082C2.468 14.387 5.047 16 8 16c.339 0 .672-.028 1-.069V13.91zM13.91 7C13.965 7.326 14 7.659 14 8c0 1.771-.776 3.36-2 4.46v2.458c2.387-1.386 4-3.964 4-6.918 0-.339-.028-.672-.069-1H13.91z"></path><path fill="#5e9c76" d="M15 0L15 5 10 5zM16 15L11 15 11 10zM1 16L1 11 6 11zM0 1L5 1 5 6z"></path></svg>