<svg xmlns="http://www.w3.org/2000/svg" viewBox="0 0 16 16"><path fill="#fff" d="M5.5 15.5L5.5 10.5 0.5 10.5 0.5 0.5 10.5 0.5 10.5 5.5 15.5 5.5 15.5 15.5z"></path><path fill="#788b9c" d="M10,1v4v1h1h4v9H6v-4v-1H5H1V1H10 M11,0H0v11h5v5h11V5h-5V0L11,0z"></path><path fill="#788b9c" d="M5.7 9.6H6.2V10.6H5.7z" transform="rotate(-45.001 5.927 10.073)"></path><path fill="#788b9c" d="M7.2,9.5L6.5,8.8L7.3,8L8,8.7L7.2,9.5z M8.7,8L8,7.3l0.8-0.8l0.7,0.7L8.7,8z"></path><path fill="#788b9c" d="M9.8 5.4H10.3V6.4H9.8z" transform="rotate(-45.001 10.073 5.927)"></path><path fill="#4e7ab5" d="M4.3 2.9H5.699999999999999V7.199999999999999H4.3z" transform="rotate(-45.001 5 5)"></path><g><path fill="#4e7ab5" d="M3 7L7 3 3 3z"></path></g><g><path fill="#4e7ab5" d="M10.3 8.9H11.700000000000001V13.2H10.3z" transform="rotate(-45.001 11 11)"></path></g><g><path fill="#4e7ab5" d="M13 9L9 13 13 13z"></path></g></svg>