<?xml version="1.0" encoding="utf-8"?>
<!-- Generator: Adobe Illustrator 22.1.0, SVG Export Plug-In . SVG Version: 6.00 Build 0)  -->
<svg version="1.1" id="katman_1" xmlns="http://www.w3.org/2000/svg" xmlns:xlink="http://www.w3.org/1999/xlink" x="0px" y="0px"
	 viewBox="0 0 16 16" style="enable-background:new 0 0 16 16;" xml:space="preserve">
<style type="text/css">
	.st0{fill:url(#SVGID_1_);}
	.st1{fill:#9F9F9F;}
	.st2{fill:#666666;}
</style>
<linearGradient id="SVGID_1_" gradientUnits="userSpaceOnUse" x1="8" y1="2.5" x2="8" y2="12.5">
	<stop  offset="0" style="stop-color:#EFEFEF"/>
	<stop  offset="1" style="stop-color:#C9C9C9"/>
</linearGradient>
<path class="st0" d="M0.5,2.5h15v10h-15V2.5z"/>
<path class="st1" d="M15,3v9H1V3H15 M16,2H0v11h16V2L16,2z"/>
<path class="st2" d="M7.5,3.8c-0.4,0-0.7,0.3-0.7,0.7s0.3,0.7,0.7,0.7l0,0c0.4,0,0.7-0.3,0.7-0.7S7.9,3.8,7.5,3.8z M8,10V6H6.3v1H7
	v3H6v1h3v-1H8z"/>
</svg>
