<svg xmlns="http://www.w3.org/2000/svg" viewBox="0 0 16 16"><path fill="#8bb7f0" d="M5,12.5c-2.481,0-4.5-2.019-4.5-4.5S2.519,3.5,5,3.5h6c2.481,0,4.5,2.019,4.5,4.5 s-2.019,4.5-4.5,4.5H5z"></path><path fill="#4e7ab5" d="M11,4c2.206,0,4,1.794,4,4s-1.794,4-4,4H5c-2.206,0-4-1.794-4-4s1.794-4,4-4H11 M11,3H5 C2.239,3,0,5.239,0,8s2.239,5,5,5h6c2.761,0,5-2.239,5-5S13.761,3,11,3L11,3z"></path><path fill="#fff" d="M11,11L11,11c1.657,0,3-1.343,3-3v0c0-1.657-1.343-3-3-3h0C9.343,5,8,6.343,8,8v0   C8,9.657,9.343,11,11,11z"></path></svg>