<svg xmlns="http://www.w3.org/2000/svg" viewBox="0 0 16 16"><path fill="#f78f8f" d="M6.5 0.5A3 3 0 1 0 6.5 6.5A3 3 0 1 0 6.5 0.5Z"></path><path fill="#c74343" d="M6.5,1C7.879,1,9,2.122,9,3.5S7.879,6,6.5,6S4,4.878,4,3.5S5.121,1,6.5,1 M6.5,0 C4.567,0,3,1.567,3,3.5S4.567,7,6.5,7S10,5.433,10,3.5S8.433,0,6.5,0L6.5,0z"></path><path fill="#ffeea3" d="M5.5,10.5v-7c0-0.552,0.449-1,1-1s1,0.448,1,1v7H5.5z"></path><path fill="#ba9b48" d="M6.5,3C6.776,3,7,3.224,7,3.5V10H6V3.5C6,3.224,6.224,3,6.5,3 M6.5,2C5.672,2,5,2.672,5,3.5V11h3 V3.5C8,2.672,7.328,2,6.5,2L6.5,2z"></path><path fill="#ffeea3" d="M7.5,10.5v-3c0-0.552,0.449-1,1-1s1,0.448,1,1v3H7.5z"></path><path fill="#ba9b48" d="M8.5,7C8.776,7,9,7.224,9,7.5V10H8V7.5C8,7.224,8.224,7,8.5,7 M8.5,6C7.672,6,7,6.672,7,7.5V11h3 V7.5C10,6.672,9.328,6,8.5,6L8.5,6z"></path><path fill="#ffeea3" d="M9.5,10.5v-3c0-0.552,0.449-1,1-1s1,0.448,1,1v3H9.5z"></path><path fill="#ba9b48" d="M10.5,7C10.776,7,11,7.224,11,7.5V10h-1V7.5C10,7.224,10.224,7,10.5,7 M10.5,6 C9.672,6,9,6.672,9,7.5V11h3V7.5C12,6.672,11.328,6,10.5,6L10.5,6z"></path><g><path fill="#ffeea3" d="M11.5,10.5v-2c0-0.552,0.449-1,1-1s1,0.448,1,1v2H11.5z"></path><path fill="#ba9b48" d="M12.5,8C12.776,8,13,8.224,13,8.5V10h-1V8.5C12,8.224,12.224,8,12.5,8 M12.5,7 C11.672,7,11,7.672,11,8.5V11h3V8.5C14,7.672,13.328,7,12.5,7L12.5,7z"></path></g><g><path fill="#ffeea3" d="M8.199,15.5c-0.729,0-1.415-0.289-1.928-0.815l-4.478-4.478C1.604,10.018,1.5,9.767,1.5,9.5 s0.104-0.518,0.293-0.707C1.982,8.604,2.233,8.5,2.5,8.5s0.518,0.104,0.707,0.293L5.5,11.086V9.5h8V14c0,0.827-0.673,1.5-1.5,1.5 H8.199z"></path><path fill="#ba9b48" d="M2.5,9c0.077,0,0.226,0.019,0.354,0.146l1.439,1.439L6,12.293V10h7v4c0,0.551-0.449,1-1,1H8.199 c-0.594,0-1.151-0.236-1.578-0.673L2.146,9.854c-0.195-0.195-0.195-0.512,0-0.707C2.274,9.019,2.423,9,2.5,9 M2.5,8 C2.116,8,1.732,8.146,1.439,8.439c-0.586,0.586-0.586,1.536,0,2.121l4.474,4.474C6.494,15.629,7.302,16,8.199,16H12 c1.105,0,2-0.895,2-2V9H5v0.879L3.561,8.439C3.268,8.146,2.884,8,2.5,8L2.5,8z"></path></g><path fill="#ffeea3" d="M6 9H13V11H6z"></path></svg>