<svg xmlns="http://www.w3.org/2000/svg" viewBox="0 0 16 16"><path fill="#66798f" d="M7 0H9V2H7zM13.5 16c-.1 0-.3 0-.4-.1l-2.3-2.3c-.2-.2-.2-.5 0-.7s.5-.2.7 0l2.3 2.3c.2.2.2.5 0 .7C13.8 16 13.6 16 13.5 16zM2.5 16c-.1 0-.3 0-.4-.1-.2-.2-.2-.5 0-.7l2.3-2.3c.2-.2.5-.2.7 0s.2.5 0 .7l-2.3 2.3C2.8 16 2.6 16 2.5 16z"></path><path fill="#fff" d="M8 1.5A7 7 0 1 0 8 15.5A7 7 0 1 0 8 1.5Z"></path><path fill="#c74343" d="M8,2c3.6,0,6.5,2.9,6.5,6.5S11.6,15,8,15s-6.5-2.9-6.5-6.5S4.4,2,8,2 M8,1C3.9,1,0.5,4.4,0.5,8.5 S3.9,16,8,16s7.5-3.4,7.5-7.5S12.1,1,8,1L8,1z"></path><path fill="#66798f" d="M15.1.9c1.1 1.1 1.1 3 0 4.1L11 .9C12.1-.3 14-.3 15.1.9zM.9.9c1.1-1.1 3-1.1 4.1 0L.9 5C-.3 3.9-.3 2 .9.9zM10.3 11.3c-.1 0-.3 0-.4-.1L7.4 8.7l1.2-4.9C8.7 3.5 9 3.3 9.3 3.4 9.5 3.5 9.7 3.7 9.6 4L8.6 8.3l2.1 2.1c.2.2.2.5 0 .7C10.6 11.3 10.4 11.3 10.3 11.3z"></path><path fill="#c74343" d="M4.1 9.9H8.7V10.4H4.1z" transform="rotate(-45.001 6.379 10.121)"></path><g><path fill="#66798f" d="M8 7.5A1 1 0 1 0 8 9.5A1 1 0 1 0 8 7.5Z"></path></g></svg>