<?xml version="1.0" encoding="utf-8"?>
<!-- Generator: Adobe Illustrator 22.1.0, SVG Export Plug-In . SVG Version: 6.00 Build 0)  -->
<svg version="1.2" baseProfile="tiny" id="katman_1"
	 xmlns="http://www.w3.org/2000/svg" xmlns:xlink="http://www.w3.org/1999/xlink" x="0px" y="0px" viewBox="0 0 16 16"
	 xml:space="preserve">
<path fill="#FFFFFF" d="M0.5,2.5h15v11h-15V2.5z"/>
<path fill="#967A44" d="M15,3v10H1V3H15 M16,2H0v12h16V2L16,2z"/>
<path fill="#F5CE85" d="M1,3h14v1H1V3z M1,12h14v1H1V12z"/>
<path fill="#967A44" d="M5,2.5h1v11H5V2.5z M10,2.5h1v11h-1V2.5z"/>
<path fill="#36404D" d="M3.1,5.9C2.6,5.9,2.2,6.1,2,6.4c-0.3,0.4-0.4,1-0.4,1.7S1.7,9.3,2,9.6c0.2,0.3,0.6,0.5,1,0.5
	c0.5,0,0.8-0.2,1.1-0.5C4.3,9.2,4.4,8.7,4.4,8C4.4,6.6,4,5.9,3.1,5.9z M3,9.6c-0.5,0-0.7-0.5-0.7-1.5C2.3,7,2.5,6.4,3,6.4
	S3.7,6.9,3.7,8S3.5,9.6,3,9.6z M8.1,5.9C7.6,5.9,7.2,6.1,7,6.4c-0.3,0.4-0.4,1-0.4,1.7S6.7,9.3,7,9.6c0.2,0.3,0.6,0.5,1,0.5
	c0.5,0,0.8-0.2,1.1-0.5C9.3,9.2,9.4,8.7,9.4,8C9.4,6.6,9,5.9,8.1,5.9z M8,9.6c-0.5,0-0.7-0.5-0.7-1.5C7.3,7,7.5,6.4,8,6.4
	S8.7,6.9,8.7,8S8.5,9.6,8,9.6z M11.6,7.9v0.6h1.9c-0.2,0.3-0.3,0.6-0.5,0.9c-0.1,0.3-0.3,0.6-0.4,0.9c-0.1,0.3-0.2,0.6-0.3,0.9
	c-0.1,0.3-0.2,0.6-0.2,0.9h0.7c0-0.3,0.1-0.7,0.2-1s0.2-0.6,0.3-0.9c0.1-0.3,0.3-0.6,0.4-0.9C13.9,9,14,8.7,14.2,8.4V7.9H11.6z
	 M13.7,3c0.1,0.3,0.1,1.1-0.6,1.1c-0.7,0-0.8-0.9-0.7-1.1h-0.7c0,0.4,0.2,1.6,1.4,1.6s1.4-1.1,1.3-1.4c0-0.1,0-0.1,0-0.2
	C14.4,3,13.7,3,13.7,3z"/>
</svg>
