<?xml version="1.0" encoding="utf-8"?>
<!-- Generator: Adobe Illustrator 22.1.0, SVG Export Plug-In . SVG Version: 6.00 Build 0)  -->
<svg version="1.1" id="katman_1" xmlns="http://www.w3.org/2000/svg" xmlns:xlink="http://www.w3.org/1999/xlink" x="0px" y="0px"
	 viewBox="0 0 16 16" style="enable-background:new 0 0 16 16;" xml:space="preserve">
<style type="text/css">
	.st0{fill:#FFFFFF;}
	.st1{fill:#788B9C;}
	.st2{fill:#4E7AB5;}
</style>
<rect x="1" y="1" class="st0" width="14" height="13"/>
<path class="st1" d="M0,0v15h16V0H0z M15,14H1V1h14V14z"/>
<path class="st2" d="M7.7,9.7c-0.4,0-0.8,0.4-0.8,0.8s0.4,0.8,0.8,0.8c0.4,0,0.8-0.4,0.8-0.8S8.1,9.7,7.7,9.7z M8.2,9h-1
	c0-1.1,0.6-1.7,1.2-2.1C8.8,6.6,9,6.3,9,6c0-0.6-0.5-1-1-1C7.4,5,7,5.5,7,6v0.3H6V6c0-1.1,0.9-2,2-2s2,0.9,2,2c0,0.8-0.5,1.3-1,1.7
	C8.6,8.1,8.2,8.4,8.2,9z"/>
</svg>
