<?xml version="1.0" encoding="utf-8"?>
<!-- Generator: Adobe Illustrator 23.1.1, SVG Export Plug-In . SVG Version: 6.00 Build 0)  -->
<svg version="1.1" id="katman_1" xmlns="http://www.w3.org/2000/svg" xmlns:xlink="http://www.w3.org/1999/xlink" x="0px" y="0px"
	 viewBox="0 0 16 16" style="enable-background:new 0 0 16 16;" xml:space="preserve">
<style type="text/css">
	.st0{fill:#97A6B2;}
	.st1{fill:#66798F;}
</style>
<path class="st0" d="M14,10v1C7.9,9,2.1,13,2,13v-1C2.3,11.9,7.2,8,14,10z"/>
<path class="st0" d="M14,14v1c-0.1,0-5.2-2-12-2v-1C8.8,12,13.7,13.9,14,14z M14,6v1C7.9,5,2.1,9,2,9V8C2.3,7.9,7.2,4,14,6z"/>
<path class="st0" d="M14,10v1c-0.1,0-5.2-2-12-2V8C8.8,8,13.7,9.9,14,10z M14,2v1C7.9,1,2.1,5,2,5V4C2.3,3.9,7.2,0,14,2z"/>
<path class="st0" d="M14,6v1C13.9,7,8.7,5,2,5V4C8.8,4,13.7,5.9,14,6z M14,2v1C13.9,3,8.7,1,2,1V0C8.8,0,13.7,1.9,14,2z"/>
<rect x="1" y="14" class="st1" width="14" height="2"/>
<rect x="1" class="st1" width="14" height="2"/>
</svg>
