<svg xmlns="http://www.w3.org/2000/svg" viewBox="0 0 16 16"><path fill="#8bb7f0" d="M2.5 1.5H13.5V13.5H2.5z"></path><path fill="#4e7ab5" d="M13,2v11H3V2H13 M14,1H2v13h12V1L14,1z"></path><path fill="#4e7ab5" d="M15 2v11h-1V2H15M16 1h-3v13h3V1L16 1zM2 2v11H1V2H2M3 1H0v13h3V1L3 1z"></path><path fill="#4e7ab5" d="M13 3H16V4H13zM13 5H16V6H13zM13 7H16V8H13zM13 9H16V10H13zM13 11H16V12H13zM0 11H3V12H0zM0 3H3V4H0zM0 5H3V6H0zM0 7H3V8H0zM0 9H3V10H0z"></path><g><path fill="#fff" d="M6 5L6 10 10 7.5z"></path></g></svg>