<svg xmlns="http://www.w3.org/2000/svg" viewBox="0 0 16 16"><path fill="#fff" d="M0.5 0.5H15.5V15.5H0.5z"></path><path fill="#788b9c" d="M15,1v14H1V1H15 M16,0H0v16h16V0L16,0z"></path><path fill="#c5d4de" d="M4 12H15V13H4zM4 9H15V10H4zM4 6H15V7H4zM4 3H15V4H4z"></path><path fill="#c5d4de" d="M-0.5 7.5H13.5V8.5H-0.5z" transform="rotate(90 6.5 8)"></path><path fill="#c5d4de" d="M2.5 7.5H16.5V8.5H2.5z" transform="rotate(90 9.5 8)"></path><path fill="#c5d4de" d="M5.5 7.5H19.5V8.5H5.5z" transform="rotate(90 12.5 8)"></path><path fill="#c2e8ff" d="M0.5 12.5H3.5V15.5H0.5z"></path><path fill="#7496c4" d="M3,13v2H1v-2H3 M4,12H0v4h4V12L4,12z"></path><path fill="#c2e8ff" d="M0.5 9.5H3.5V12.5H0.5z"></path><path fill="#7496c4" d="M3,10v2H1v-2H3 M4,9H0v4h4V9L4,9z"></path><g><path fill="#c2e8ff" d="M0.5 6.5H3.5V9.5H0.5z"></path><path fill="#7496c4" d="M3,7v2H1V7H3 M4,6H0v4h4V6L4,6z"></path></g><g><path fill="#c2e8ff" d="M0.5 3.5H3.5V6.5H0.5z"></path><path fill="#7496c4" d="M3,4v2H1V4H3 M4,3H0v4h4V3L4,3z"></path></g><g><path fill="#c2e8ff" d="M0.5 0.5H3.5V3.5H0.5z"></path><path fill="#7496c4" d="M3,1v2H1V1H3 M4,0H0v4h4V0L4,0z"></path></g></svg>