<?xml version="1.0" encoding="utf-8"?>
<!-- Generator: Adobe Illustrator 23.1.1, SVG Export Plug-In . SVG Version: 6.00 Build 0)  -->
<svg version="1.1" id="katman_1" xmlns="http://www.w3.org/2000/svg" xmlns:xlink="http://www.w3.org/1999/xlink" x="0px" y="0px"
	 viewBox="0 0 16 16" style="enable-background:new 0 0 16 16;" xml:space="preserve">
<style type="text/css">
	.st0{fill:#FFFFFF;}
	.st1{fill:#788B9C;}
	.st2{fill:#C8D1DB;}
</style>
<path class="st0" d="M0.5,0.5h15v15h-15V0.5z"/>
<path class="st1" d="M15,1v14H1V1H15 M16,0H0v16h16V0L16,0z"/>
<path class="st1" d="M0,0h16v4H0V0z"/>
<path class="st2" d="M7,1h8v2H7V1z"/>
<path class="st2" d="M2,1C1.4,1,1,1.4,1,2s0.4,1,1,1s1-0.4,1-1S2.6,1,2,1z M5,1C4.4,1,4,1.4,4,2s0.4,1,1,1s1-0.4,1-1S5.6,1,5,1z"/>
</svg>
