<?xml version="1.0" encoding="utf-8"?>
<!-- Generator: Adobe Illustrator 22.1.0, SVG Export Plug-In . SVG Version: 6.00 Build 0)  -->
<svg version="1.2" baseProfile="tiny" id="Layer_1" xmlns="http://www.w3.org/2000/svg" xmlns:xlink="http://www.w3.org/1999/xlink"
	 x="0px" y="0px" viewBox="0 0 20 20" xml:space="preserve">
<path d="M18.3,11.3c0-0.1-0.1-0.3-0.2-0.3c-0.1,0-0.3,0-0.4,0.1c-0.7,0.9-2.7,1.8-2.7,1.8c-0.1,0.1-0.2,0.1-0.2,0.2
	c0,0.1,0,0.2,0.1,0.3l0.1,0.3c-1,0.8-2.6,3.1-3.9,2.2v-3c0,0,0-2,0-3l1.8-1c0.3,0,0.5-0.2,0.5-0.5S13.2,8,12.9,8L11,8V6.8
	c1.2-0.4,2-1.5,2-2.8c0-1.7-1.3-3-3-3S7,2.3,7,4c0,1.2,0.8,2.3,1.8,2.8c0.1,0,0.1,0,0.2,0.1V8H7C6.8,8,6.6,8.1,6.6,8.4
	c0,0.3,0.2,0.5,0.5,0.5L9,10c0,1,0,1.1,0,3v3c-1.1,1-3.5-1-4.5-1.8l0.7-0.7c0.1-0.1,0.1-0.3,0.1-0.3c0,0,0,0,0,0
	c0-0.1-0.1-0.2-0.2-0.2c0,0-2-0.9-2.7-1.8C2.3,11,2.1,11,2,11c-0.1,0.1-0.2,0.2-0.2,0.3c0,0.1-0.6,3,0.7,4c0.1,0.1,0.3,0.2,0.6,0.3
	c0.3,0,0.9-0.5,0.9-0.5l0.7,1.1C5.7,17.5,7,18,9.9,19c0,0,0.1,0,0.1,0s0.1,0,0.1,0c2.9-1,4.2-2.5,5.4-3.9c0.3-0.4,0.8-0.1,0.8-0.1
	l0.4,0.4c0.1,0.1,0.2,0.1,0.2,0.1c0,0,0,0,0,0c0.1,0,0.2,0,0.2-0.1C18.6,14.3,18.5,11.5,18.3,11.3z M10,5.6C9.1,5.6,8.4,4.9,8.4,4
	S9.1,2.5,10,2.5s1.6,0.7,1.6,1.6S10.9,5.6,10,5.6z"/>
</svg>
