<?xml version="1.0" encoding="utf-8"?>
<!-- Generator: Adobe Illustrator 22.1.0, SVG Export Plug-In . SVG Version: 6.00 Build 0)  -->
<svg version="1.1" id="Layer_1" xmlns="http://www.w3.org/2000/svg" xmlns:xlink="http://www.w3.org/1999/xlink" x="0px" y="0px"
	 viewBox="0 0 64 64" style="enable-background:new 0 0 64 64;" xml:space="preserve">
<style type="text/css">
	.st0{fill:#2F363C;}
	.st1{fill:#5A9850;}
	.st2{fill:#FFFFFF;}
</style>
<path class="st0" d="M45.3,60.8H18.7c-2.1,0-3.6-1.5-3.6-3.4V6.6c0-1.8,1.6-3.4,3.6-3.4h26.6c2.1,0,3.6,1.5,3.6,3.4v50.8
	C48.9,59.3,47.3,60.8,45.3,60.8z"/>
<path class="st1" d="M20.6,58h22.7c1.6,0,2.8-1.3,2.8-2.9V8.9c0-1.6-1.3-2.9-2.8-2.9h-1.4c-0.8,0-19,0-19.8,0h-1.4
	c-1.6,0-2.8,1.3-2.8,2.9v46.2C17.8,56.7,19.1,58,20.6,58z"/>
<g id="surface1">
	<path class="st2" d="M22.7,35.9c0,0.9-0.7,1.6-1.6,1.6s-1.6-0.7-1.6-1.6v-7.1c0-0.9,0.7-1.6,1.6-1.6s1.6,0.7,1.6,1.6V35.9z"/>
	<path class="st2" d="M44.5,35.9c0,0.9-0.7,1.6-1.6,1.6c-0.9,0-1.6-0.7-1.6-1.6v-7.1c0-0.9,0.7-1.6,1.6-1.6c0.9,0,1.6,0.7,1.6,1.6
		V35.9z"/>
	<path class="st2" d="M30.5,44.6c0,0.9-0.7,1.6-1.6,1.6s-1.6-0.7-1.6-1.6v-7.1c0-0.9,0.7-1.6,1.6-1.6s1.6,0.7,1.6,1.6V44.6z"/>
	<path class="st2" d="M36.8,44.6c0,0.9-0.7,1.6-1.6,1.6s-1.6-0.7-1.6-1.6v-7.1c0-0.9,0.7-1.6,1.6-1.6s1.6,0.7,1.6,1.6V44.6z"/>
	<path class="st2" d="M24.3,27.3v11.8c0,0.9,0.7,1.6,1.6,1.6h12.5c0.9,0,1.6-0.7,1.6-1.6V27.3H24.3z"/>
	<path class="st2" d="M32,19.5c-4.7,0-7.6,2.8-7.8,6.3H40C39.6,22.3,36.8,19.5,32,19.5z M29,23.9c-0.5,0-0.8-0.3-0.8-0.8
		s0.3-0.8,0.8-0.8s0.8,0.3,0.8,0.8C29.7,23.5,29.4,23.9,29,23.9z M35.1,23.9c-0.5,0-0.8-0.3-0.8-0.8s0.3-0.8,0.8-0.8
		s0.8,0.3,0.8,0.8C36,23.5,35.6,23.9,35.1,23.9z"/>
	<path class="st2" d="M35.5,21.4c-0.2,0-0.3-0.1-0.5-0.2c-0.4-0.2-0.5-0.7-0.2-1.1l1.3-2c0.2-0.4,0.7-0.5,1.1-0.2s0.5,0.7,0.2,1.1
		L36,21C36,21.3,35.8,21.4,35.5,21.4z"/>
	<path class="st2" d="M28.4,21.1c-0.2,0-0.5-0.2-0.6-0.4l-1-1.6c-0.2-0.4-0.2-0.9,0.2-1.1s0.9-0.2,1.1,0.2l1,1.6
		c0.2,0.4,0.2,0.9-0.2,1.1C28.7,21.1,28.6,21.1,28.4,21.1z"/>
</g>
</svg>
