<svg xmlns="http://www.w3.org/2000/svg" viewBox="0 0 16 16"><path fill="#b0c1d4" d="M4,14.5c-0.3,0-0.5-0.2-0.5-0.5V2c0-0.3,0.2-0.5,0.5-0.5h8c0.3,0,0.5,0.2,0.5,0.5v12 c0,0.3-0.2,0.5-0.5,0.5H4z"></path><path fill="#66798f" d="M12,2v12H4V2H12 M12,1H4C3.4,1,3,1.4,3,2v12c0,0.6,0.4,1,1,1h8c0.6,0,1-0.4,1-1V2 C13,1.4,12.6,1,12,1L12,1z"></path><path fill="#f2faff" d="M3.5,12.5V2c0-0.3,0.2-0.5,0.5-0.5h8c0.3,0,0.5,0.2,0.5,0.5v10.5H3.5z"></path><path fill="#788b9c" d="M12,2v10H4V2H12 M12,1H4C3.4,1,3,1.4,3,2v11h10V2C13,1.4,12.6,1,12,1L12,1z"></path><path fill="#66798f" d="M7 13H9V14H7z"></path><path fill="#5e9c76" d="M8.8 3.8H9.9V4.3H8.8z" transform="rotate(-55.998 9.344 4.02)"></path><path fill="#5e9c76" d="M6.4 3.5H6.9V4.6H6.4z" transform="rotate(-33.998 6.656 4.02)"></path><path fill="#5e9c76" d="M8 4L8 4C6.9 4 6 4.9 6 6v3h4V6C10 4.9 9.1 4 8 4zM10.5 8.5C10.2 8.5 10 8.3 10 8V6.5C10 6.2 10.2 6 10.5 6S11 6.2 11 6.5V8C11 8.3 10.8 8.5 10.5 8.5z"></path><path fill="#5e9c76" d="M9.5 10C9.2 10 9 9.8 9 9.5v-2C9 7.2 9.2 7 9.5 7S10 7.2 10 7.5v2C10 9.8 9.8 10 9.5 10zM6.5 10C6.2 10 6 9.8 6 9.5v-2C6 7.2 6.2 7 6.5 7S7 7.2 7 7.5v2C7 9.8 6.8 10 6.5 10zM5.5 8.5C5.2 8.5 5 8.3 5 8V6.5C5 6.2 5.2 6 5.5 6S6 6.2 6 6.5V8C6 8.3 5.8 8.5 5.5 8.5z"></path></svg>