<?xml version="1.0" encoding="utf-8"?>
<!-- Generator: Adobe Illustrator 22.1.0, SVG Export Plug-In . SVG Version: 6.00 Build 0)  -->
<svg version="1.1" baseProfile="tiny" id="Layer_1" xmlns="http://www.w3.org/2000/svg" xmlns:xlink="http://www.w3.org/1999/xlink"
	 x="0px" y="0px" viewBox="0 0 64 64" xml:space="preserve">
<path fill="#2F363C" d="M46.4,63.1H17.6c-2.3,0-3.9-1.6-3.9-3.7V4.6c0-1.9,1.7-3.7,3.9-3.7h28.7c2.3,0,3.9,1.6,3.9,3.7v54.8
	C50.2,61.5,48.5,63.1,46.4,63.1z"/>
<path fill="#5A9850" d="M19.7,60.1h24.5c1.7,0,3-1.4,3-3.1V7.1c0-1.7-1.4-3.1-3-3.1h-1.5c-0.9,0-20.5,0-21.4,0h-1.5
	c-1.7,0-3,1.4-3,3.1v49.9C16.7,58.7,18.1,60.1,19.7,60.1z"/>
<g id="surface1">
	<path fill="#FFFFFF" d="M22,36.2c0,1-0.8,1.7-1.7,1.7s-1.7-0.8-1.7-1.7v-7.7c0-1,0.8-1.7,1.7-1.7s1.7,0.8,1.7,1.7V36.2z"/>
	<path fill="#FFFFFF" d="M45.5,36.2c0,1-0.8,1.7-1.7,1.7S42,37.2,42,36.2v-7.7c0-1,0.8-1.7,1.7-1.7c1,0,1.7,0.8,1.7,1.7V36.2z"/>
	<path fill="#FFFFFF" d="M30.4,45.6c0,1-0.8,1.7-1.7,1.7s-1.7-0.8-1.7-1.7v-7.7c0-1,0.8-1.7,1.7-1.7s1.7,0.8,1.7,1.7V45.6z"/>
	<path fill="#FFFFFF" d="M37.2,45.6c0,1-0.8,1.7-1.7,1.7c-1,0-1.7-0.8-1.7-1.7v-7.7c0-1,0.8-1.7,1.7-1.7c1,0,1.7,0.8,1.7,1.7V45.6z"
		/>
	<path fill="#FFFFFF" d="M23.7,26.9v12.7c0,1,0.8,1.7,1.7,1.7h13.5c1,0,1.7-0.8,1.7-1.7V26.9H23.7z"/>
	<path fill="#FFFFFF" d="M32,18.5c-5.1,0-8.2,3-8.4,6.8h17C40.2,21.5,37.2,18.5,32,18.5z M28.8,23.3c-0.5,0-0.9-0.3-0.9-0.9
		s0.3-0.9,0.9-0.9c0.5,0,0.9,0.3,0.9,0.9C29.5,22.8,29.2,23.3,28.8,23.3z M35.3,23.3c-0.5,0-0.9-0.3-0.9-0.9s0.3-0.9,0.9-0.9
		s0.9,0.3,0.9,0.9C36.3,22.8,35.9,23.3,35.3,23.3z"/>
	<path fill="#FFFFFF" d="M35.8,20.6c-0.2,0-0.3-0.1-0.5-0.2c-0.4-0.2-0.5-0.8-0.2-1.2l1.4-2.2c0.2-0.4,0.8-0.5,1.2-0.2
		c0.4,0.3,0.5,0.8,0.2,1.2l-1.5,2.2C36.3,20.5,36.1,20.6,35.8,20.6z"/>
	<path fill="#FFFFFF" d="M28.1,20.2c-0.2,0-0.5-0.2-0.6-0.4l-1.1-1.7c-0.2-0.4-0.2-1,0.2-1.2c0.4-0.2,1-0.2,1.2,0.2l1.1,1.7
		c0.2,0.4,0.2,1-0.2,1.2C28.4,20.2,28.3,20.2,28.1,20.2z"/>
</g>
</svg>
