<?xml version="1.0" encoding="utf-8"?>
<!-- Generator: Adobe Illustrator 22.1.0, SVG Export Plug-In . SVG Version: 6.00 Build 0)  -->
<svg version="1.1" baseProfile="tiny" id="Layer_1" xmlns="http://www.w3.org/2000/svg" xmlns:xlink="http://www.w3.org/1999/xlink"
	 x="0px" y="0px" viewBox="0 0 64 64" xml:space="preserve">
<g>
	<g>
		<path d="M13.8,20.1L13.8,20.1c-1,1-0.9,2.5,0,3.5l8.1,8.1c0.1,0.1,0.1,0.3,0,0.5l-8,7.9c-1,1-1,2.6,0,3.6l0,0c1,1,2.5,1,3.5,0
			l11.5-11.5c0.1-0.1,0.1-0.3,0-0.5L17.4,20.1C16.4,19.1,14.8,19.1,13.8,20.1z"/>
	</g>
</g>
<g>
	<g>
		<path d="M32.9,42h14.5c1.5,0,2.7,1.2,2.7,2.7v0c0,1.5-1.2,2.7-2.7,2.7H32.9c-1.5,0-2.7-1.2-2.7-2.7v0C30.2,43.2,31.5,42,32.9,42z"
			/>
	</g>
</g>
<g>
	<g>
		<path d="M0.4,6V58c0,1.3,1.1,2.4,2.4,2.4h58.4c1.3,0,2.4-1.1,2.4-2.4V6c0-1.3-1.1-2.4-2.4-2.4H2.8C1.5,3.6,0.4,4.6,0.4,6z
			 M57.5,55.4H6.5c-0.7,0-1.3-0.6-1.3-1.3V9.9c0-0.7,0.6-1.3,1.3-1.3h50.9c0.7,0,1.3,0.6,1.3,1.3l0,44.2
			C58.8,54.8,58.2,55.4,57.5,55.4z"/>
	</g>
</g>
</svg>
