<svg xmlns="http://www.w3.org/2000/svg" viewBox="0 0 16 16"><path fill="#a8deff" d="M5,9.5C4.7,9.5,4.5,9.3,4.5,9V2c0-0.3,0.2-0.5,0.5-0.5h9c0.3,0,0.5,0.2,0.5,0.5v7 c0,0.3-0.2,0.5-0.5,0.5H5z"></path><path fill="#788b9c" d="M14,2v7H5V2H14 M14,1H5C4.4,1,4,1.4,4,2v7c0,0.6,0.4,1,1,1h9c0.6,0,1-0.4,1-1V2C15,1.4,14.6,1,14,1 L14,1z"></path><path fill="#788b9c" d="M9 9H16V10H9z"></path><path fill="#f2faff" d="M3,13.5c-0.3,0-0.5-0.2-0.5-0.5V5c0-0.3,0.2-0.5,0.5-0.5h6c0.3,0,0.5,0.2,0.5,0.5v8 c0,0.3-0.2,0.5-0.5,0.5H3z"></path><path fill="#8b75a1" d="M9,5v8H3V5H9 M9,4H3C2.4,4,2,4.4,2,5v8c0,0.6,0.4,1,1,1h6c0.6,0,1-0.4,1-1V5C10,4.4,9.6,4,9,4L9,4z"></path><g><path fill="#f2faff" d="M1,15.5c-0.3,0-0.5-0.2-0.5-0.5V9c0-0.3,0.2-0.5,0.5-0.5h3c0.3,0,0.5,0.2,0.5,0.5v6 c0,0.3-0.2,0.5-0.5,0.5H1z"></path><path fill="#a16a4a" d="M4,9v6H1V9H4 M4,8H1C0.4,8,0,8.4,0,9v6c0,0.6,0.4,1,1,1h3c0.6,0,1-0.4,1-1V9C5,8.4,4.6,8,4,8L4,8z"></path></g></svg>