<?xml version="1.0" encoding="utf-8"?>
<!-- Generator: Adobe Illustrator 22.1.0, SVG Export Plug-In . SVG Version: 6.00 Build 0)  -->
<svg version="1.2" baseProfile="tiny" id="katman_1"
	 xmlns="http://www.w3.org/2000/svg" xmlns:xlink="http://www.w3.org/1999/xlink" x="0px" y="0px" viewBox="0 0 32 32"
	 xml:space="preserve">
<path d="M11.8,15.5L4.9,8.6c-0.5-0.5-0.5-1.3,0-1.7l0,0c0.5-0.5,1.3-0.5,1.7,0l8.6,8.6l-8.6,8.6c-0.5,0.5-1.3,0.5-1.7,0h0
	c-0.5-0.5-0.5-1.3,0-1.8L11.8,15.5z"/>
<path d="M23.8,15.5l-6.9-6.9c-0.5-0.5-0.5-1.3,0-1.7v0c0.5-0.5,1.3-0.5,1.8,0l8.6,8.6l-8.6,8.6c-0.5,0.5-1.3,0.5-1.8,0l0,0
	c-0.5-0.5-0.5-1.3,0-1.8L23.8,15.5z"/>
</svg>
