<?xml version="1.0" encoding="utf-8"?>
<!-- Generator: Adobe Illustrator 22.1.0, SVG Export Plug-In . SVG Version: 6.00 Build 0)  -->
<svg version="1.2" baseProfile="tiny" id="Capa_1" xmlns="http://www.w3.org/2000/svg" xmlns:xlink="http://www.w3.org/1999/xlink"
	 x="0px" y="0px" viewBox="0 0 32 32" xml:space="preserve">
<g>
	<g>
		<path d="M22.5,14l-6.4,6.4C19.6,20.3,22.4,17.5,22.5,14z"/>
		<path d="M31.6,14.4c-0.1-0.2-2-2.4-5-4.4l-2,2c1.9,1.3,3.4,2.7,4.2,3.5C27,17.3,22,21.9,16,21.9c-0.4,0-0.9,0-1.3-0.1l-2.4,2.4
			c1.2,0.3,2.4,0.5,3.7,0.5c8.6,0,15.3-7.8,15.6-8.1C32.1,16,32.1,15,31.6,14.4z"/>
		<path d="M29.5,4.6c0-0.1,0-0.2-0.1-0.2l-2.3-2.3c-0.1-0.1-0.3-0.1-0.5,0l-5.1,5.2c-1.7-0.6-3.5-1-5.5-1C7.4,6.2,0.7,14,0.4,14.4
			c-0.6,0.7-0.6,1.6,0,2.3c0.2,0.2,2.6,3,6.4,5.3l-4.2,4.2c-0.1,0.1-0.1,0.1-0.1,0.2c0,0.1,0,0.2,0.1,0.2l2.3,2.3
			C5,29,5.1,29,5.2,29c0.1,0,0.2,0,0.2-0.1l24-24C29.4,4.8,29.5,4.7,29.5,4.6z M3.2,15.5c1.2-1.2,3.9-3.7,7.3-5.2
			c-0.7,1-1.1,2.3-1.1,3.6c0,1.5,0.5,2.9,1.4,4l-2,2C6.2,18.4,4.2,16.5,3.2,15.5z"/>
	</g>
</g>
</svg>
