<?xml version="1.0" encoding="utf-8"?>
<!-- Generator: Adobe Illustrator 22.1.0, SVG Export Plug-In . SVG Version: 6.00 Build 0)  -->
<svg version="1.1" baseProfile="tiny" id="Capa_1" xmlns="http://www.w3.org/2000/svg" xmlns:xlink="http://www.w3.org/1999/xlink"
	 x="0px" y="0px" viewBox="0 0 64 64" xml:space="preserve">
<path fill="#656F75" d="M43.7,58.7H20.3c-0.2,0-0.3-0.3-0.1-0.5l2-1.4c2.1-1.5,3.1-4.2,2.5-6.8l0,0h14.8v0c-0.6,2.6,0.4,5.3,2.5,6.8
	l2,1.4C44.1,58.3,44,58.7,43.7,58.7z"/>
<path fill="#939FA0" d="M59.7,50H4.3c-2.1,0-3.8-1.7-3.8-3.8V5.9c0-2.1,1.7-3.8,3.8-3.8h55.5c2.1,0,3.8,1.7,3.8,3.8v40.3
	C63.6,48.2,61.8,50,59.7,50z"/>
<path fill="#39454C" d="M63.6,40.2H0.4V5.9c0-2.1,1.7-3.8,3.8-3.8h55.5c2.1,0,3.8,1.7,3.8,3.8V40.2z"/>
<g>
	<path fill="#839CAA" d="M4.8,11.9c0.3,0,0.6-0.1,0.8-0.3l4.4-4.4c0.4-0.4,0.4-1.1,0-1.5c-0.4-0.4-1.1-0.4-1.5,0L4,10
		c-0.4,0.4-0.4,1.1,0,1.5C4.2,11.8,4.5,11.9,4.8,11.9z"/>
	<path fill="#839CAA" d="M4.8,17.3c0.3,0,0.6-0.1,0.8-0.3l2.2-2.2c0.4-0.4,0.4-1.1,0-1.5c-0.4-0.4-1.1-0.4-1.5,0L4,15.5
		c-0.4,0.4-0.4,1.1,0,1.5C4.2,17.2,4.5,17.3,4.8,17.3z"/>
	<path fill="#839CAA" d="M8.4,11.1c-0.2,0.2-0.3,0.5-0.3,0.8c0,0.3,0.1,0.6,0.3,0.8C8.6,12.8,8.9,13,9.2,13c0.3,0,0.6-0.1,0.8-0.3
		c0.2-0.2,0.3-0.5,0.3-0.8c0-0.3-0.1-0.6-0.3-0.8C9.5,10.7,8.8,10.7,8.4,11.1z"/>
	<path fill="#839CAA" d="M10.6,10.5c0.2,0.2,0.5,0.3,0.8,0.3c0.3,0,0.6-0.1,0.8-0.3l3.3-3.3c0.4-0.4,0.4-1.1,0-1.5
		c-0.4-0.4-1.1-0.4-1.5,0l-3.3,3.3C10.1,9.4,10.1,10,10.6,10.5z"/>
	<path fill="#839CAA" d="M13.8,11.1L4,20.9c-0.4,0.4-0.4,1.1,0,1.5c0.2,0.2,0.5,0.3,0.8,0.3c0.3,0,0.6-0.1,0.8-0.3l9.8-9.8
		c0.4-0.4,0.4-1.1,0-1.5C14.9,10.7,14.2,10.7,13.8,11.1z"/>
	<path fill="#839CAA" d="M16,8.9c-0.2,0.2-0.3,0.5-0.3,0.8c0,0.3,0.1,0.6,0.3,0.8c0.2,0.2,0.5,0.3,0.8,0.3c0.3,0,0.6-0.1,0.8-0.3
		c0.2-0.2,0.3-0.5,0.3-0.8c0-0.3-0.1-0.6-0.3-0.8C17.1,8.5,16.4,8.5,16,8.9z"/>
	<path fill="#839CAA" d="M20.8,5.7c-0.4-0.4-1.1-0.4-1.5,0l-1.1,1.1c-0.4,0.4-0.4,1.1,0,1.5c0.2,0.2,0.5,0.3,0.8,0.3
		s0.6-0.1,0.8-0.3l1.1-1.1C21.2,6.8,21.2,6.1,20.8,5.7z"/>
</g>
<path fill="#939FA0" d="M44.5,61.9h-25c-0.9,0-1.6-0.7-1.6-1.6l0,0c0-0.9,0.7-1.6,1.6-1.6h25c0.9,0,1.6,0.7,1.6,1.6l0,0
	C46.1,61.2,45.4,61.9,44.5,61.9z"/>
</svg>
