<svg xmlns="http://www.w3.org/2000/svg" data-name="Слой 1" viewBox="0 0 16 16"><path fill="#b0c1d4" d="M6.57 14.5L6.94 11.5 9.06 11.5 9.43 14.5 6.57 14.5z"></path><path fill="#66798f" d="M8.62,12l.25,2H7.13l.25-2H8.62m.88-1h-3L6,15h4l-.5-4Z"></path><rect width="15" height="11" x=".5" y="1.5" fill="#c2e8ff" rx="1.5" ry="1.5"></rect><path fill="#66798f" d="M14,2a1,1,0,0,1,1,1v8a1,1,0,0,1-1,1H2a1,1,0,0,1-1-1V3A1,1,0,0,1,2,2H14m0-1H2A2,2,0,0,0,0,3v8a2,2,0,0,0,2,2H14a2,2,0,0,0,2-2V3a2,2,0,0,0-2-2Z"></path><path fill="#66798f" d="M0 10H16a0 0 0 0 1 0 0v1a2 2 0 0 1-2 2H2a2 2 0 0 1-2-2V10A0 0 0 0 1 0 10zM5 14H11V15H5z"></path><path fill="#36404d" d="M8 10.75A0.75 0.75 0 1 0 8 12.25A0.75 0.75 0 1 0 8 10.75Z"></path></svg>