<?xml version="1.0" encoding="utf-8"?>
<!-- Generator: Adobe Illustrator 22.1.0, SVG Export Plug-In . SVG Version: 6.00 Build 0)  -->
<svg version="1.1" baseProfile="tiny" id="Capa_1" xmlns="http://www.w3.org/2000/svg" xmlns:xlink="http://www.w3.org/1999/xlink"
	 x="0px" y="0px" viewBox="0 0 64 64" xml:space="preserve">
<path fill="#2F363C" d="M49.1,8.9v46.2c0,3.2-2.6,5.8-5.7,5.8H20.6c-3.1,0-5.7-2.6-5.7-5.8V8.9c0-3.2,2.6-5.8,5.7-5.8h22.7
	C46.5,3.1,49.1,5.7,49.1,8.9z"/>
<path fill="#3784C5" d="M20.6,58h22.7c1.6,0,2.8-1.3,2.8-2.9V8.9c0-1.6-1.3-2.9-2.8-2.9h-1.4c-0.8,0-1.4,0.6-1.4,1.4l0,0
	c0,1.6-1.3,2.9-2.8,2.9H26.3c-1.6,0-2.8-1.3-2.8-2.9l0,0c0-0.8-0.6-1.4-1.4-1.4h-1.4c-1.6,0-2.8,1.3-2.8,2.9v46.2
	C17.8,56.7,19.1,58,20.6,58z"/>
<g id="XMLID_1_">
	<path id="XMLID_3_" fill="#FFFFFF" d="M22.8,28.6c-2.1,3.7-0.7,9.2,1.6,12.6c1.2,1.6,2.3,3.2,4,3.2c0,0,0,0,0.1,0
		c0.7,0,1.3-0.3,1.8-0.4c0.6-0.3,1.2-0.6,2.2-0.6c0.9,0,1.5,0.3,2.1,0.4c0.6,0.3,1.2,0.4,1.9,0.4c1.8,0,2.9-1.6,4-3.1
		c1-1.5,1.5-2.9,1.8-3.5l0,0c0-0.1,0-0.1-0.1-0.3l0,0c-0.3-0.1-3.1-1.3-3.1-4.7c0-2.8,2.1-4.2,2.5-4.4l0,0l0.1-0.1V28
		c-1.5-2.2-3.7-2.5-4.7-2.5c-0.1,0-0.3,0-0.4,0c-1,0-2.1,0.4-2.9,0.7c-0.6,0.3-1,0.4-1.3,0.4c-0.4,0-0.9-0.1-1.5-0.4
		c-0.7-0.3-1.6-0.6-2.5-0.6l0,0C25.9,25.6,23.9,26.7,22.8,28.6z"/>
	<path id="XMLID_2_" fill="#FFFFFF" d="M37.8,18.5c-1.3,0-2.8,0.9-3.8,1.9c-0.7,0.9-1.6,2.5-1.3,4c0,0.1,0.1,0.1,0.1,0.1
		c0.1,0,0.1,0,0.3,0c1.3,0,2.6-0.7,3.5-1.8c1-1.2,1.5-2.6,1.3-4.1C38.1,18.7,37.9,18.5,37.8,18.5z"/>
</g>
</svg>
