<svg xmlns="http://www.w3.org/2000/svg" viewBox="0 0 16 16"><path fill="none" stroke="#64778c" stroke-miterlimit="10" d="M11.5,15.499h-7c-0.552,0-1-0.448-1-1v-13c0-0.552,0.448-1,1-1h7 c0.552,0,1,0.448,1,1v13C12.5,15.051,12.052,15.499,11.5,15.499z"></path><path fill="#aad9f6" d="M4 0.999H12V14.999H4z"></path><path fill="#f0f9fd" d="M6.5 1H9.5V1.498H6.5z"></path><path fill="#64778c" d="M10 0.5L6 0.5 6 1.999 10 1.999 10 0.5z"></path><path fill="#54a1d1" d="M8.032,5.37c0.169-0.203,0.439-0.338,0.675-0.371c0.034,0.27-0.068,0.54-0.203,0.709 C8.336,5.91,8.1,6.045,7.829,6.045C7.762,5.809,7.863,5.573,8.032,5.37z M9.484,8.78C9.281,9.05,9.011,9.422,8.707,9.422 S8.336,9.219,7.965,9.253c-0.405,0-0.473,0.203-0.777,0.169c-0.338,0-0.574-0.304-0.743-0.608C5.939,8.037,5.871,7.092,6.209,6.586 c0.236-0.338,0.574-0.54,0.912-0.54s0.574,0.203,0.844,0.203s0.439-0.203,0.844-0.203c0.304,0,0.608,0.169,0.844,0.439 C8.91,6.889,9.045,7.936,9.788,8.24C9.653,8.476,9.585,8.578,9.484,8.78z"></path></svg>