<?xml version="1.0" encoding="utf-8"?>
<!-- Generator: Adobe Illustrator 22.1.0, SVG Export Plug-In . SVG Version: 6.00 Build 0)  -->
<svg version="1.1" baseProfile="tiny" id="Capa_1" xmlns="http://www.w3.org/2000/svg" xmlns:xlink="http://www.w3.org/1999/xlink"
	 x="0px" y="0px" viewBox="0 0 64 64" xml:space="preserve">
<path fill="#2F363C" d="M50.4,7.2v49.6c0,3.4-2.8,6.2-6.1,6.2H19.8c-3.3,0-6.1-2.8-6.1-6.2V7.2c0-3.4,2.8-6.2,6.1-6.2h24.4
	C47.6,1,50.4,3.8,50.4,7.2z"/>
<path fill="#3784C5" d="M19.8,59.9h24.4c1.7,0,3-1.4,3-3.1V7.2c0-1.7-1.4-3.1-3-3.1h-1.5c-0.9,0-1.5,0.6-1.5,1.5l0,0
	c0,1.7-1.4,3.1-3,3.1H25.9c-1.7,0-3-1.4-3-3.1l0,0c0-0.9-0.6-1.5-1.5-1.5h-1.5c-1.7,0-3,1.4-3,3.1v49.6
	C16.7,58.5,18.1,59.9,19.8,59.9z"/>
<g id="XMLID_1_">
	<path id="XMLID_3_" fill="#FFFFFF" d="M22.1,28.3c-2.3,4-0.8,9.9,1.7,13.5c1.3,1.7,2.5,3.4,4.3,3.4c0,0,0,0,0.1,0
		c0.8,0,1.4-0.3,1.9-0.4c0.6-0.3,1.3-0.6,2.4-0.6c1,0,1.6,0.3,2.3,0.4c0.6,0.3,1.3,0.4,2,0.4c1.9,0,3.1-1.7,4.3-3.3
		c1.1-1.6,1.6-3.1,1.9-3.8l0,0c0-0.1,0-0.1-0.1-0.3l0,0c-0.3-0.1-3.3-1.4-3.3-5c0-3,2.3-4.5,2.7-4.7l0,0l0.1-0.1v-0.1
		c-1.6-2.4-4-2.7-5-2.7c-0.1,0-0.3,0-0.4,0c-1.1,0-2.3,0.4-3.1,0.8c-0.6,0.3-1.1,0.4-1.4,0.4c-0.4,0-1-0.1-1.6-0.4
		c-0.8-0.3-1.7-0.6-2.7-0.6l0,0C25.4,25.1,23.3,26.3,22.1,28.3z"/>
	<path id="XMLID_2_" fill="#FFFFFF" d="M38.2,17.5c-1.4,0-3,1-4.1,2c-0.8,1-1.7,2.7-1.4,4.3c0,0.1,0.1,0.1,0.1,0.1
		c0.1,0,0.1,0,0.3,0c1.4,0,2.8-0.8,3.8-1.9c1.1-1.3,1.6-2.8,1.4-4.4C38.6,17.7,38.3,17.5,38.2,17.5z"/>
</g>
</svg>
