<svg xmlns="http://www.w3.org/2000/svg" viewBox="0 0 16 16"><path fill="#f2faff" d="M1.5,13.5c-0.552,0-1-0.449-1-1v-10c0-0.551,0.448-1,1-1h13c0.552,0,1,0.449,1,1v10 c0,0.551-0.448,1-1,1H1.5z"></path><path fill="#66798f" d="M14.5,2C14.776,2,15,2.224,15,2.5v10c0,0.276-0.224,0.5-0.5,0.5h-13C1.224,13,1,12.776,1,12.5v-10 C1,2.224,1.224,2,1.5,2H14.5 M14.5,1h-13C0.672,1,0,1.672,0,2.5v10C0,13.328,0.672,14,1.5,14h13c0.828,0,1.5-0.672,1.5-1.5v-10 C16,1.672,15.328,1,14.5,1L14.5,1z"></path><path fill="#a8deff" d="M2.5 3.5H13.5V11.5H2.5z"></path><path fill="#788b9c" d="M13,4v7H3V4H13 M14,3H2v9h12V3L14,3z"></path><path fill="#66798f" d="M14.5 6.929A0.571 0.571 0 1 0 14.5 8.071A0.571 0.571 0 1 0 14.5 6.929Z"></path><path fill="#4da7db" d="M8.119,5.732c0.145-0.174,0.377-0.29,0.58-0.319C8.727,5.645,8.64,5.877,8.524,6.022 c-0.145,0.174-0.348,0.29-0.58,0.29C7.887,6.109,7.974,5.906,8.119,5.732z M9.365,8.66C9.191,8.891,8.959,9.21,8.698,9.21   S8.379,9.036,8.061,9.065c-0.348,0-0.406,0.174-0.667,0.145c-0.29,0-0.493-0.261-0.638-0.522C6.321,8.022,6.264,7.21,6.553,6.776    c0.203-0.29,0.493-0.464,0.783-0.464c0.29,0,0.493,0.174,0.725,0.174c0.232,0,0.377-0.174,0.725-0.174  c0.261,0,0.522,0.145,0.725,0.377C8.872,7.036,8.988,7.935,9.626,8.196C9.51,8.399,9.452,8.486,9.365,8.66z"></path></svg>