<?xml version="1.0" encoding="utf-8"?>
<!-- Generator: Adobe Illustrator 22.1.0, SVG Export Plug-In . SVG Version: 6.00 Build 0)  -->
<svg version="1.1" baseProfile="tiny" id="Capa_1" xmlns="http://www.w3.org/2000/svg" xmlns:xlink="http://www.w3.org/1999/xlink"
	 x="0px" y="0px" viewBox="0 0 64 64" xml:space="preserve">
<path fill="#2F363C" d="M54.8,62.8H9.2c-1.7,0-3.2-1.4-3.2-3.2V4.4c0-1.8,1.5-3.2,3.2-3.2h45.6c1.7,0,3.2,1.4,3.2,3.2v55.2
	C58,61.4,56.5,62.8,54.8,62.8z"/>
<path fill="#A25DB4" d="M53.3,59.8H10.7c-1.2,0-2.1-1-2.1-2.1V6.3c0-1.2,1-2.1,2.1-2.1h42.7c1.2,0,2.1,1,2.1,2.1v51.4
	C55.5,58.9,54.5,59.8,53.3,59.8z"/>
<g id="XMLID_1_">
	<path id="XMLID_3_" fill="#FFFFFF" d="M22.8,27.1c-2.1,3.7-0.7,9.2,1.6,12.6c1.2,1.6,2.3,3.2,4,3.2c0,0,0,0,0.1,0
		c0.7,0,1.3-0.3,1.8-0.4c0.6-0.3,1.2-0.6,2.2-0.6c0.9,0,1.5,0.3,2.1,0.4c0.6,0.3,1.2,0.4,1.9,0.4c1.8,0,2.9-1.6,4-3.1
		c1-1.5,1.5-2.9,1.8-3.5l0,0c0-0.1,0-0.1-0.1-0.3l0,0c-0.3-0.1-3.1-1.3-3.1-4.7c0-2.8,2.1-4.2,2.5-4.4l0,0l0.1-0.1v-0.1
		C40.2,24.3,38,24,37,24c-0.1,0-0.3,0-0.4,0c-1,0-2.1,0.4-2.9,0.7c-0.6,0.3-1,0.4-1.3,0.4c-0.4,0-0.9-0.1-1.5-0.4
		c-0.7-0.3-1.6-0.6-2.5-0.6l0,0C25.9,24.1,23.9,25.2,22.8,27.1z"/>
	<path id="XMLID_2_" fill="#FFFFFF" d="M37.8,17c-1.3,0-2.8,0.9-3.8,1.9c-0.7,0.9-1.6,2.5-1.3,4c0,0.1,0.1,0.1,0.1,0.1
		c0.1,0,0.1,0,0.3,0c1.3,0,2.6-0.7,3.5-1.8c1-1.2,1.5-2.6,1.3-4.1C38.1,17.2,37.9,17,37.8,17z"/>
</g>
</svg>
