<?xml version="1.0" encoding="utf-8"?>
<!-- Generator: Adobe Illustrator 22.1.0, SVG Export Plug-In . SVG Version: 6.00 Build 0)  -->
<svg version="1.1" id="Capa_1" xmlns="http://www.w3.org/2000/svg" xmlns:xlink="http://www.w3.org/1999/xlink" x="0px" y="0px"
	 viewBox="0 0 64 64" style="enable-background:new 0 0 64 64;" xml:space="preserve">
<style type="text/css">
	.st0{fill:#2F363C;}
	.st1{fill:#A25DB4;}
	.st2{fill:#FFFFFF;}
</style>
<path class="st0" d="M53.5,61h-43c-1.6,0-3-1.3-3-3V6c0-1.7,1.4-3,3-3h43c1.6,0,3,1.3,3,3v52C56.5,59.7,55.1,61,53.5,61z"/>
<path class="st1" d="M52.1,58.2H11.9c-1.1,0-2-0.9-2-2V7.8c0-1.1,0.9-2,2-2h40.2c1.1,0,2,0.9,2,2v48.4
	C54.1,57.3,53.2,58.2,52.1,58.2z"/>
<g id="XMLID_1_">
	<path id="XMLID_3_" class="st2" d="M22.8,27.1c-2.1,3.7-0.7,9.2,1.6,12.6c1.2,1.6,2.3,3.2,4,3.2c0,0,0,0,0.1,0
		c0.7,0,1.3-0.3,1.8-0.4c0.6-0.3,1.2-0.6,2.2-0.6c0.9,0,1.5,0.3,2.1,0.4c0.6,0.3,1.2,0.4,1.9,0.4c1.8,0,2.9-1.6,4-3.1
		c1-1.5,1.5-2.9,1.8-3.5l0,0c0-0.1,0-0.1-0.1-0.3l0,0c-0.3-0.1-3.1-1.3-3.1-4.7c0-2.8,2.1-4.2,2.5-4.4l0,0l0.1-0.1v-0.1
		C40.2,24.3,38,24,37,24c-0.1,0-0.3,0-0.4,0c-1,0-2.1,0.4-2.9,0.7c-0.6,0.3-1,0.4-1.3,0.4c-0.4,0-0.9-0.1-1.5-0.4
		c-0.7-0.3-1.6-0.6-2.5-0.6l0,0C25.9,24.1,23.9,25.2,22.8,27.1z"/>
	<path id="XMLID_2_" class="st2" d="M37.8,17c-1.3,0-2.8,0.9-3.8,1.9c-0.7,0.9-1.6,2.5-1.3,4c0,0.1,0.1,0.1,0.1,0.1
		c0.1,0,0.1,0,0.3,0c1.3,0,2.6-0.7,3.5-1.8c1-1.2,1.5-2.6,1.3-4.1C38.1,17.2,37.9,17,37.8,17z"/>
</g>
</svg>
