<?xml version="1.0" encoding="utf-8"?>
<!-- Generator: Adobe Illustrator 22.1.0, SVG Export Plug-In . SVG Version: 6.00 Build 0)  -->
<svg version="1.1" baseProfile="tiny" id="katman_1"
	 xmlns="http://www.w3.org/2000/svg" xmlns:xlink="http://www.w3.org/1999/xlink" x="0px" y="0px" viewBox="0 0 64 64"
	 xml:space="preserve">
<path stroke="#000000" stroke-width="0.5" stroke-miterlimit="10" d="M63.4,31.2L48.7,5.6c-0.4-0.8-1.3-1.3-2.2-1.3H17.4
	c-0.9,0-1.7,0.5-2.2,1.3L0.6,31.2c-0.4,0.8-0.4,1.7,0,2.5l14.6,25.7c0.4,0.8,1.3,1.3,2.2,1.3h29.2c0.9,0,1.7-0.5,2.2-1.3l14.6-25.7
	C63.8,33,63.8,32,63.4,31.2z M45.2,55.7H18.8L5.7,32.5L18.8,9.3h26.3l13.2,23.2L45.2,55.7z M28.9,27.7c-0.2-4.5-0.3-7.6-0.3-9.5
	s1.7-2.8,3.6-2.8c1.7,0,3.2,1,3.2,2.8c0,1.9,0,5-0.1,9.5c-0.1,4.5-0.1,7.6-0.1,9.5c0,1.4-1.7,2-2.9,2c-2,0-3-0.7-3-2
	C29.2,35.4,29.1,32.2,28.9,27.7z M35.6,46.1c0,1.9-1.5,3.6-3.4,3.6c-2.2,0-3.8-1.7-3.8-3.6c0-1.9,1.6-3.6,3.8-3.6
	C34.1,42.5,35.6,44.2,35.6,46.1z"/>
</svg>
