<?xml version="1.0" encoding="utf-8"?>
<!-- Generator: Adobe Illustrator 22.1.0, SVG Export Plug-In . SVG Version: 6.00 Build 0)  -->
<svg version="1.1" id="Capa_1" xmlns="http://www.w3.org/2000/svg" xmlns:xlink="http://www.w3.org/1999/xlink" x="0px" y="0px"
	 viewBox="0 0 32 32" style="enable-background:new 0 0 32 32;" xml:space="preserve">
<style type="text/css">
	.st0{stroke:#000000;stroke-width:0.5;stroke-miterlimit:10;}
</style>
<path class="st0" d="M30,8.2c0-0.1,0-0.2-0.1-0.3c-0.1-0.2-0.3-0.4-0.5-0.4L16.3,1.1c-0.2-0.1-0.5-0.1-0.7,0L2.4,7.5
	C2.2,7.6,2,7.9,2,8.1v0c0,0,0,0,0,0v16.1c0,0.3,0.2,0.6,0.4,0.7l13.2,6.4c0,0,0,0,0,0c0,0,0,0,0.1,0c0,0,0,0,0,0c0,0,0,0,0.1,0
	c0,0,0,0,0,0c0,0,0,0,0.1,0c0,0,0,0,0,0c0,0,0.1,0,0.1,0c0,0,0.1,0,0.1,0c0,0,0,0,0,0c0,0,0,0,0.1,0c0,0,0,0,0,0c0,0,0,0,0.1,0
	c0,0,0,0,0,0c0,0,0,0,0.1,0c0,0,0,0,0,0l13.2-6.4c0.3-0.1,0.4-0.4,0.4-0.7L30,8.2C30,8.2,30,8.2,30,8.2z M16,2.6l11.5,5.6l-4.2,2
	L11.8,4.7L16,2.6z M16,13.7L4.5,8.2L10,5.5l11.5,5.6L16,13.7z M3.5,9.4l11.7,5.7v14.3L3.5,23.7V9.4z M16.7,29.4V15.1l5.5-2.7v3.7
	c0,0.4,0.3,0.8,0.8,0.8c0.4,0,0.8-0.3,0.8-0.8v-4.5l4.7-2.3v14.3L16.7,29.4z"/>
</svg>
