<?xml version="1.0" encoding="utf-8"?>
<!-- Generator: Adobe Illustrator 22.1.0, SVG Export Plug-In . SVG Version: 6.00 Build 0)  -->
<svg version="1.1" baseProfile="tiny" xmlns="http://www.w3.org/2000/svg" xmlns:xlink="http://www.w3.org/1999/xlink" x="0px"
	 y="0px" viewBox="0 0 64 64" xml:space="preserve">
<g id="katman_2">
	<path fill="#D6E6ED" d="M23.3,46.9l0,6.3h19c0.1-2.1,0.2-4.1,0.3-6.2C36.2,46.9,29.7,46.9,23.3,46.9z"/>
</g>
<g id="Capa_1">
	<path fill="#21292D" d="M26.7,49.4c1.7,0,1.7,0,2.4,0h7.7c0.7,0,2,0,1.5,0h21.9V13.5c0-1.8-1.5-3.3-3.3-3.3H7
		c-1.8,0-3.3,1.5-3.3,3.3v35.9H26.7z"/>
	<rect x="6.9" y="13.5" fill="#4A5D66" width="50.1" height="32.7"/>
	<g>
		<path fill="#99B5C1" d="M12.4,24.4c0.3,0,0.6-0.1,0.8-0.3l4.4-4.4c0.4-0.4,0.4-1.1,0-1.5s-1.1-0.4-1.5,0l-4.4,4.4
			c-0.4,0.4-0.4,1.1,0,1.5C11.8,24.3,12.1,24.4,12.4,24.4z"/>
		<path fill="#99B5C1" d="M12.4,29.8c0.3,0,0.6-0.1,0.8-0.3l2.2-2.2c0.4-0.4,0.4-1.1,0-1.5s-1.1-0.4-1.5,0L11.6,28
			c-0.4,0.4-0.4,1.1,0,1.5C11.8,29.7,12.1,29.8,12.4,29.8z"/>
		<path fill="#99B5C1" d="M16,23.6c-0.2,0.2-0.3,0.5-0.3,0.8s0.1,0.6,0.3,0.8c0.2,0.2,0.5,0.3,0.8,0.3s0.6-0.1,0.8-0.3
			c0.2-0.2,0.3-0.5,0.3-0.8s-0.1-0.6-0.3-0.8C17.1,23.2,16.4,23.2,16,23.6z"/>
		<path fill="#99B5C1" d="M18.1,23c0.2,0.2,0.5,0.3,0.8,0.3s0.6-0.1,0.8-0.3l3.3-3.3c0.4-0.4,0.4-1.1,0-1.5s-1.1-0.4-1.5,0l-3.3,3.3
			C17.7,21.8,17.7,22.5,18.1,23z"/>
		<path fill="#99B5C1" d="M21.4,23.6l-9.8,9.8c-0.4,0.4-0.4,1.1,0,1.5c0.2,0.2,0.5,0.3,0.8,0.3s0.6-0.1,0.8-0.3l9.8-9.8
			c0.4-0.4,0.4-1.1,0-1.5C22.5,23.2,21.8,23.2,21.4,23.6z"/>
		<path fill="#99B5C1" d="M23.6,21.4c-0.2,0.2-0.3,0.5-0.3,0.8s0.1,0.6,0.3,0.8c0.2,0.2,0.5,0.3,0.8,0.3s0.6-0.1,0.8-0.3
			c0.2-0.2,0.3-0.5,0.3-0.8s-0.1-0.6-0.3-0.8C24.7,21,24,21,23.6,21.4z"/>
		<path fill="#99B5C1" d="M28.4,18.1c-0.4-0.4-1.1-0.4-1.5,0l-1.1,1.1c-0.4,0.4-0.4,1.1,0,1.5c0.2,0.2,0.5,0.3,0.8,0.3
			s0.6-0.1,0.8-0.3l1.1-1.1C28.8,19.3,28.8,18.6,28.4,18.1z"/>
	</g>
	<path fill="#7E9196" d="M38.4,49.4c-0.2,1.1-0.8,1.9-1.5,1.9h-8.7c-0.7,0-1.3-0.9-1.5-1.9H1c-0.3,0-0.6,0.5-0.6,1.1v5.4
		c0,0.5,0.3,1.1,0.6,1.1h62c0.3,0,0.6-0.5,0.6-1.1v-5.4c0-0.5-0.3-1.1-0.6-1.1H38.4z"/>
</g>
</svg>
