<svg xmlns="http://www.w3.org/2000/svg" data-name="Слой 1" viewBox="0 0 16 16"><path fill="#788b9c" d="M0,14H16a0,0,0,0,1,0,0v0a1,1,0,0,1-1,1H1a1,1,0,0,1-1-1v0a0,0,0,0,1,0,0Z"></path><path fill="#c5d4de" d="M0.74 13.5L2.34 9.5 13.66 9.5 15.26 13.5 0.74 13.5z"></path><path fill="#a3b7cc" d="M13.32,10l1.2,3h-13l1.2-3H13.32M14,9H2L0,14H16L14,9Z"></path><path fill="#dbf2ff" d="M2.5,8.5V2A.5.5,0,0,1,3,1.5H13a.5.5,0,0,1,.5.5V8.5Z"></path><path fill="#66798f" d="M13,2V8H3V2H13m0-1H3A1,1,0,0,0,2,2V9H14V2a1,1,0,0,0-1-1Z"></path><path fill="#788b9c" d="M9.63 11L6.35 11.02 6 13.02 10 13.02 9.63 11z"></path><path fill="#546e7a" d="M2.68 10L13.31 10 14.13 12 1.87 12.02 2.68 10z"></path></svg>