<?xml version="1.0" encoding="utf-8"?>
<!-- Generator: Adobe Illustrator 22.1.0, SVG Export Plug-In . SVG Version: 6.00 Build 0)  -->
<svg version="1.2" baseProfile="tiny" id="katman_1"
	 xmlns="http://www.w3.org/2000/svg" xmlns:xlink="http://www.w3.org/1999/xlink" x="0px" y="0px" viewBox="0 0 32 32"
	 xml:space="preserve">
<g>
	<rect x="7" y="7" fill="#FFFFFF" width="18" height="18"/>
	<path d="M24,8v16H8V8H24 M26,6H6v20h20V6L26,6z"/>
</g>
<g>
	<polyline fill="none" stroke="#000000" stroke-width="2" stroke-miterlimit="10" points="31,29 31,31 29,31 	"/>
	
		<line fill="none" stroke="#000000" stroke-width="2" stroke-miterlimit="10" stroke-dasharray="3.7143,3.7143" x1="25.3" y1="31" x2="4.9" y2="31"/>
	<polyline fill="none" stroke="#000000" stroke-width="2" stroke-miterlimit="10" points="3,31 1,31 1,29 	"/>
	
		<line fill="none" stroke="#000000" stroke-width="2" stroke-miterlimit="10" stroke-dasharray="3.7143,3.7143" x1="1" y1="25.3" x2="1" y2="4.9"/>
	<polyline fill="none" stroke="#000000" stroke-width="2" stroke-miterlimit="10" points="1,3 1,1 3,1 	"/>
	
		<line fill="none" stroke="#000000" stroke-width="2" stroke-miterlimit="10" stroke-dasharray="3.7143,3.7143" x1="6.7" y1="1" x2="27.1" y2="1"/>
	<polyline fill="none" stroke="#000000" stroke-width="2" stroke-miterlimit="10" points="29,1 31,1 31,3 	"/>
	
		<line fill="none" stroke="#000000" stroke-width="2" stroke-miterlimit="10" stroke-dasharray="3.7143,3.7143" x1="31" y1="6.7" x2="31" y2="27.1"/>
</g>
</svg>
