<?xml version="1.0" encoding="utf-8"?>
<!-- Generator: Adobe Illustrator 22.1.0, SVG Export Plug-In . SVG Version: 6.00 Build 0)  -->
<svg version="1.1" id="katman_1" xmlns="http://www.w3.org/2000/svg" xmlns:xlink="http://www.w3.org/1999/xlink" x="0px" y="0px"
	 viewBox="0 0 32 32" style="enable-background:new 0 0 32 32;" xml:space="preserve">
<path d="M0,16h12v3.5c0,0.3,0.2,0.5,0.5,0.5h7c0.3,0,0.5-0.2,0.5-0.5V16h12v12.5c0,0.3-0.2,0.5-0.5,0.5h-31C0.2,29,0,28.8,0,28.5V16
	z"/>
<path d="M14.5,14h3c0.3,0,0.5,0.2,0.5,0.5v3c0,0.3-0.2,0.5-0.5,0.5h-3c-0.3,0-0.5-0.2-0.5-0.5v-3C14,14.2,14.2,14,14.5,14z"/>
<path d="M22,7V5.5C22,4.1,20.9,3,19.5,3h-7C11.1,3,10,4.1,10,5.5V7H1.6C0.7,7,0,7.7,0,8.6V14h12v-1.5c0-0.3,0.2-0.5,0.5-0.5h7
	c0.3,0,0.5,0.2,0.5,0.5V14h12V8.6C32,7.7,31.3,7,30.4,7H22z M12,7V6c0-0.6,0.4-1,1-1h6c0.6,0,1,0.4,1,1v1H12z"/>
</svg>
