<?xml version="1.0" encoding="utf-8"?>
<!-- Generator: Adobe Illustrator 22.1.0, SVG Export Plug-In . SVG Version: 6.00 Build 0)  -->
<svg version="1.1" baseProfile="tiny" id="Layer_1" xmlns="http://www.w3.org/2000/svg" xmlns:xlink="http://www.w3.org/1999/xlink"
	 x="0px" y="0px" viewBox="0 0 64 64" xml:space="preserve">
<g>
	<g>
		<g>
			<path d="M9.8,6.6C9.8,6.6,9.8,6.6,9.8,6.6c-0.6,0-1.2,0.2-1.6,0.7c-0.4,0.4-0.7,1-0.7,1.6v34.3c0,1.3,1,2.3,2.3,2.3
				c5.3,0,14.3,1.1,20.4,7.6V17.1c0-0.4-0.1-0.8-0.3-1.2C24.9,7.8,15.1,6.6,9.8,6.6z"/>
			<path d="M56.5,43.2V8.8c0-0.6-0.2-1.2-0.7-1.6c-0.4-0.4-1-0.7-1.6-0.7c0,0,0,0,0,0c-5.3,0-15.1,1.3-20.1,9.4
				c-0.2,0.3-0.3,0.7-0.3,1.2V53c6.2-6.4,15.1-7.6,20.4-7.6C55.5,45.5,56.5,44.4,56.5,43.2z"/>
			<path d="M61.7,16.5H60v28.7c0,3.2-2.6,5.8-5.8,5.8c-4.5,0-12,0.9-17.3,5.9c9.1-2.2,18.8-0.8,24.2,0.5c0.7,0.2,1.4,0,1.9-0.4
				c0.5-0.4,0.9-1.1,0.9-1.8V18.8C64,17.5,63,16.5,61.7,16.5z"/>
			<path d="M4,45.2V16.5H2.3c-1.3,0-2.3,1-2.3,2.3v36.4c0,0.7,0.3,1.4,0.9,1.8c0.5,0.4,1.3,0.6,1.9,0.4c5.5-1.3,15.1-2.7,24.2-0.5
				c-5.3-5-12.7-5.9-17.3-5.9C6.6,51,4,48.4,4,45.2z"/>
		</g>
	</g>
</g>
</svg>
