<?xml version="1.0" encoding="utf-8"?>
<!-- Generator: Adobe Illustrator 22.1.0, SVG Export Plug-In . SVG Version: 6.00 Build 0)  -->
<svg version="1.1" baseProfile="tiny" id="katman_1"
	 xmlns="http://www.w3.org/2000/svg" xmlns:xlink="http://www.w3.org/1999/xlink" x="0px" y="0px" viewBox="0 0 64 64"
	 xml:space="preserve">
<g id="surface1">
	<path stroke="#000000" stroke-miterlimit="10" d="M53.7,0.7c-0.3,0-0.6,0.1-0.8,0.2c0,0-1.8,1.3-6.5,2.6S33.9,6.3,22.5,6.3
		c-0.5,0-1,0.3-1.2,0.7L1.1,47.5c-0.4,0.5-0.3,1.2,0.1,1.7c0,0,0,0,0.1,0.1c0,0,0,0,0.1,0.1c0,0,0,0,0,0c0,0,0,0,0.1,0.1
		c0.4,0.3,16.3,13.8,42.7,13.8c0.5,0,1-0.3,1.2-0.8l17.6-36c0.2-0.4,0.2-0.9,0-1.3c-0.2-0.4-0.6-0.6-1.1-0.7c-0.5,0-1,0.3-1.3,0.8
		L43.3,60.4c-8.5-0.1-15.8-1.6-21.8-3.6c4.8,0.7,10.3,0.8,16.4-0.3c0.4-0.1,0.8-0.3,1-0.7l21.7-44.3c0.2-0.4,0.2-1-0.1-1.4
		c-0.3-0.4-0.7-0.6-1.2-0.6c-0.5,0-0.9,0.3-1.1,0.8L36.8,53.9c-10.4,1.7-18.9-0.1-24.8-2.2c0.1,0,0.1,0,0.2,0
		c5.9,0.7,13.3,0.8,19.4-2.2c0.3-0.1,0.5-0.4,0.6-0.6L54.8,2.6C55,2.2,55,1.7,54.8,1.3C54.5,0.9,54.1,0.7,53.7,0.7z M50.8,4.8
		L30,47.2c-5.3,2.4-12,2.5-17.5,1.8c-4.1-0.5-6.8-1.2-8.3-1.6L23.4,9c11.1-0.1,18.8-1.4,23.7-2.8C48.7,5.7,49.7,5.2,50.8,4.8z"/>
</g>
</svg>
