<?xml version="1.0" encoding="utf-8"?>
<!-- Generator: Adobe Illustrator 22.1.0, SVG Export Plug-In . SVG Version: 6.00 Build 0)  -->
<svg version="1.2" baseProfile="tiny" id="Layer_1" xmlns="http://www.w3.org/2000/svg" xmlns:xlink="http://www.w3.org/1999/xlink"
	 x="0px" y="0px" viewBox="0 0 32 32" xml:space="preserve">
<g>
	<path d="M13.5,19.7c0.3,0.3,0.4,0.9,0,1.3L4.3,31.3c-0.3,0.4-0.8,0.4-1.2,0l-2.8-2.8c-0.3-0.3-0.3-0.9,0-1.2l10.3-9.3
		c0.4-0.3,1-0.3,1.3,0L13.5,19.7z"/>
	<path d="M31.7,12l-2.4,2.4c-0.4,0.4-1,0.4-1.4,0c-0.4-0.4-0.4-1,0-1.4l0.3-0.3c0,0,0,0,0,0c-0.6-0.4-2.3-2.1-2.9-1.8
		c-0.5,0.3-1.2-0.3-1.2-0.3l-0.4-0.4l-9.3,9.3c-0.1-0.1-0.2-0.2-0.3-0.4l-1.6-1.6c-0.1-0.1-0.2-0.2-0.4-0.3l9.3-9.3l-0.2-0.2
		c0,0-0.5-0.6-0.2-1.1c0.9-1.2,0.2-4.5-5.2-5.5c-0.8-0.1-0.9-0.3-0.2-0.5c1.8-0.6,5.6-0.8,11.3,5c0,0,2.3,2.7,2,3.8
		c-0.1,0.2,0.5,1,0.8,1.5l0.4-0.4c0.4-0.4,1-0.4,1.4,0C32.1,10.9,32.1,11.6,31.7,12z"/>
</g>
</svg>
