<?xml version="1.0" encoding="utf-8"?>
<!-- Generator: Adobe Illustrator 22.1.0, SVG Export Plug-In . SVG Version: 6.00 Build 0)  -->
<svg version="1.2" baseProfile="tiny" id="Capa_1" xmlns="http://www.w3.org/2000/svg" xmlns:xlink="http://www.w3.org/1999/xlink"
	 x="0px" y="0px" viewBox="0 0 32 32" xml:space="preserve">
<path fill="#010002" stroke="#000000" stroke-width="0.5" stroke-miterlimit="10" d="M16,31c-0.1,0-0.2,0-0.3-0.1L0,23.8l0.6-1.3
	l15.4,7l15.4-7l0.6,1.3l-15.7,7.1C16.2,31,16.1,31,16,31z"/>
<path fill="#010002" stroke="#000000" stroke-width="0.5" stroke-miterlimit="10" d="M16,24c-0.1,0-0.2,0-0.3-0.1L0,16.8l0.6-1.3
	l15.4,7l15.4-7l0.6,1.3l-15.7,7.1C16.2,24,16.1,24,16,24z"/>
<path fill="#010002" stroke="#000000" stroke-width="0.5" stroke-miterlimit="10" d="M16,16c-0.1,0-0.2,0-0.3-0.1L0.4,9
	C0.2,8.9,0,8.7,0,8.4s0.2-0.5,0.4-0.6l15.3-6.7c0.2-0.1,0.4-0.1,0.6,0l15.3,6.7C31.8,7.9,32,8.1,32,8.4c0,0.3-0.2,0.5-0.4,0.6
	l-15.3,6.9C16.2,16,16.1,16,16,16z M2.4,8.4L16,14.5l13.6-6.1L16,2.5L2.4,8.4z"/>
</svg>
