<?xml version="1.0" encoding="utf-8"?>
<!-- Generator: Adobe Illustrator 22.1.0, SVG Export Plug-In . SVG Version: 6.00 Build 0)  -->
<svg version="1.2" baseProfile="tiny" id="Layer_1" xmlns="http://www.w3.org/2000/svg" xmlns:xlink="http://www.w3.org/1999/xlink"
	 x="0px" y="0px" viewBox="0 0 32 32" xml:space="preserve">
<path d="M12.1,18.4c-0.3-0.4-0.9-0.4-1.3,0l-10,8.9c-0.4,0.3-0.4,0.9,0,1.2l2.7,2.8c0.3,0.4,0.9,0.3,1.2,0l8.9-10
	c0.3-0.4,0.3-1,0-1.3L12.1,18.4z"/>
<path d="M23.8,10.7c0,0,0.7,0.6,1.2,0.3c0.6-0.3,2.3,1.3,2.8,1.7l0,0L27.5,13c-0.4,0.4-0.4,1.1,0,1.4c0.4,0.4,1,0.4,1.4,0l2.3-2.4
	c0.4-0.4,0.4-1.1,0-1.4c-0.4-0.4-1-0.4-1.4,0L29.4,11c-0.3-0.5-0.9-1.3-0.8-1.4c0.3-1.2-1.9-3.8-1.9-3.8c-5.5-5.7-9.2-5.5-10.9-4.9
	c-0.7,0.3-0.6,0.4,0.2,0.6c5.3,1,6,4.1,5.1,5.4c-0.4,0.5,0.2,1.1,0.2,1.1l0.2,0.2l-8.9,9c0.1,0.1,0.2,0.2,0.4,0.3l1.5,1.5
	c0.1,0.1,0.2,0.2,0.3,0.4l8.8-9L23.8,10.7z"/>
</svg>
