<?xml version="1.0" encoding="utf-8"?>
<!-- Generator: Adobe Illustrator 22.1.0, SVG Export Plug-In . SVG Version: 6.00 Build 0)  -->
<svg version="1.1" baseProfile="tiny" id="katman_1"
	 xmlns="http://www.w3.org/2000/svg" xmlns:xlink="http://www.w3.org/1999/xlink" x="0px" y="0px" viewBox="0 0 64 64"
	 xml:space="preserve">
<g id="surface1">
	<path d="M26.8,5.3C14.8,5.3,5.2,15.4,6,27.5c0.8,11.8,11.4,20.7,23.2,19.3c3.6-0.4,7-1.7,9.8-3.8h0.1c0.7,0.7,12.6,12.6,15.5,15.5
		c0.3,0.3,0.9,0.3,1.3,0l2.1-2.1c0.3-0.3,0.3-0.9,0-1.3L42.6,39.6v-0.1c3.1-3.6,5-8.4,5-13.5C47.5,14.7,38.3,5.3,26.8,5.3z
		 M26.8,8.8c9.5,0,17.2,7.7,17.2,17.3s-7.6,17.4-17.2,17.4S9.5,35.8,9.5,26.2S17.1,8.8,26.8,8.8z"/>
</g>
</svg>
