<?xml version="1.0" encoding="utf-8"?>
<!-- Generator: Adobe Illustrator 22.1.0, SVG Export Plug-In . SVG Version: 6.00 Build 0)  -->
<svg version="1.2" baseProfile="tiny" id="katman_1"
	 xmlns="http://www.w3.org/2000/svg" xmlns:xlink="http://www.w3.org/1999/xlink" x="0px" y="0px" viewBox="0 0 26 26"
	 xml:space="preserve">
<path d="M25.3,25.2c0-0.1-0.4,0.5-1,0.5l-7-7c-0.4-0.4-0.4-1,0-1.4l0,0c0.4-0.4,1-0.4,1.4,0l7,7C25.7,24.8,25.2,25.2,25.3,25.2z"/>
<path d="M11,1C5.5,1,1,5.5,1,11s4.5,10,10,10s10-4.5,10-10S16.5,1,11,1z M11,19c-4.4,0-8-3.6-8-8s3.6-8,8-8s8,3.6,8,8S15.4,19,11,19
	z"/>
</svg>
