<?xml version="1.0" encoding="utf-8"?>
<!-- Generator: Adobe Illustrator 22.1.0, SVG Export Plug-In . SVG Version: 6.00 Build 0)  -->
<svg version="1.2" baseProfile="tiny" id="Layer_1" xmlns="http://www.w3.org/2000/svg" xmlns:xlink="http://www.w3.org/1999/xlink"
	 x="0px" y="0px" viewBox="0 0 32 32" xml:space="preserve">
<path d="M32,18v-4l-4.8-0.8C27,12.1,26.5,11,25.9,10l2.8-4l-2.8-2.8L22,6.1c-1-0.6-2-1-3.2-1.3L18,0h-4l-0.8,4.7C12.1,5,11,5.4,10,6
	L6.1,3.2L3.3,6.1L6,10c-0.6,1-1,2.1-1.3,3.2L0,14v4l4.7,0.8C5,19.9,5.4,21,6,22l-2.8,3.9l2.8,2.8L10,26c1,0.6,2,1,3.2,1.3L14,32h4
	l0.8-4.7c1.1-0.3,2.2-0.7,3.2-1.3l3.9,2.8l2.8-2.8L25.9,22c0.6-1,1-2,1.3-3.2L32,18z M16,24.7c-4.8,0-8.7-3.9-8.7-8.7
	s3.9-8.7,8.7-8.7s8.7,3.9,8.7,8.7S20.8,24.7,16,24.7z"/>
<path d="M16,6.4c-5.3,0-9.6,4.3-9.6,9.6s4.3,9.6,9.6,9.6s9.6-4.3,9.6-9.6S21.3,6.4,16,6.4z M16,22.5c-3.6,0-6.5-2.9-6.5-6.5
	s2.9-6.5,6.5-6.5c3.6,0,6.5,2.9,6.5,6.5S19.6,22.5,16,22.5z"/>
</svg>
