<?xml version="1.0" encoding="utf-8"?>
<!-- Generator: Adobe Illustrator 22.1.0, SVG Export Plug-In . SVG Version: 6.00 Build 0)  -->
<svg version="1.2" baseProfile="tiny" id="Layer_1" xmlns="http://www.w3.org/2000/svg" xmlns:xlink="http://www.w3.org/1999/xlink"
	 x="0px" y="0px" viewBox="0 0 32 32" xml:space="preserve">
<path d="M30.8,14.8h-0.2c-0.6,0-1.1-0.4-1.2-1c0-0.3-0.1-0.6-0.2-0.8c-0.1-0.6,0.2-1.1,0.7-1.4l0.2-0.1c0.6-0.3,0.9-1,0.7-1.6l0,0
	c-0.3-0.6-1-0.9-1.6-0.7L29,9.3c-0.5,0.2-1.2,0-1.5-0.5c-0.2-0.2-0.3-0.5-0.5-0.7c-0.3-0.5-0.3-1.1,0.2-1.6l0.2-0.2
	c0.5-0.5,0.5-1.3,0-1.7l0,0c-0.5-0.5-1.3-0.5-1.7,0l-0.1,0.2C25,5.3,24.3,5.3,23.9,5c-0.2-0.2-0.5-0.3-0.7-0.5
	c-0.5-0.3-0.7-1-0.5-1.5l0.1-0.2c0.3-0.6,0-1.3-0.7-1.6c-0.6-0.3-1.3,0-1.6,0.7l-0.1,0.2c-0.2,0.5-0.8,0.9-1.4,0.7
	c-0.3-0.1-0.6-0.1-0.8-0.2c-0.6-0.1-1-0.6-1-1.2V1.2C17.2,0.6,16.7,0,16,0s-1.2,0.6-1.2,1.2v0.2c0,0.6-0.4,1.1-1,1.2
	c-0.3,0-0.6,0.1-0.8,0.2c-0.6,0.1-1.1-0.2-1.4-0.7l-0.1-0.2c-0.3-0.6-1-0.9-1.6-0.7c-0.6,0.3-0.9,1-0.7,1.6L9.3,3
	c0.2,0.5,0,1.2-0.5,1.5C8.6,4.7,8.4,4.8,8.1,5C7.7,5.3,7,5.3,6.6,4.8L6.4,4.7c-0.5-0.5-1.3-0.5-1.7,0l0,0c-0.5,0.5-0.5,1.3,0,1.7
	l0.2,0.2C5.3,7,5.3,7.7,5,8.1C4.8,8.4,4.7,8.6,4.5,8.8C4.2,9.3,3.6,9.5,3,9.3L2.8,9.2C2.2,9,1.5,9.2,1.2,9.9l0,0
	c-0.3,0.6,0,1.3,0.7,1.6l0.2,0.1c0.5,0.2,0.9,0.8,0.7,1.4c-0.1,0.3-0.1,0.6-0.2,0.8c-0.1,0.6-0.6,1-1.2,1H1.2C0.6,14.8,0,15.3,0,16
	l0,0c0,0.7,0.6,1.2,1.2,1.2h0.2c0.6,0,1.1,0.4,1.2,1c0,0.3,0.1,0.6,0.2,0.8c0.1,0.6-0.2,1.1-0.7,1.4l-0.2,0.1
	c-0.6,0.3-0.9,1-0.7,1.6l0,0c0.3,0.6,1,0.9,1.6,0.7L3,22.7c0.5-0.2,1.2,0,1.5,0.5c0.2,0.2,0.3,0.5,0.5,0.7c0.3,0.5,0.3,1.1-0.2,1.6
	l-0.2,0.2c-0.5,0.5-0.5,1.3,0,1.7s1.3,0.5,1.7,0l0.2-0.2C7,26.8,7.7,26.7,8.1,27c0.2,0.2,0.5,0.3,0.7,0.5c0.5,0.3,0.7,1,0.5,1.5
	l-0.1,0.2c-0.3,0.6,0,1.3,0.7,1.6c0.6,0.3,1.3,0,1.6-0.7l0.1-0.2c0.2-0.5,0.8-0.9,1.4-0.7c0.3,0.1,0.6,0.1,0.8,0.2
	c0.6,0.1,1,0.6,1,1.2v0.2c0,0.7,0.6,1.2,1.2,1.2s1.2-0.6,1.2-1.2v-0.2c0-0.6,0.4-1.1,1-1.2c0.3,0,0.6-0.1,0.8-0.2
	c0.6-0.1,1.1,0.2,1.4,0.7l0.1,0.2c0.3,0.6,1,0.9,1.6,0.7c0.6-0.3,0.9-1,0.7-1.6L22.7,29c-0.2-0.5,0-1.2,0.5-1.5
	c0.2-0.2,0.5-0.3,0.7-0.5c0.5-0.3,1.1-0.3,1.6,0.2l0.2,0.2c0.5,0.5,1.3,0.5,1.7,0s0.5-1.3,0-1.7l-0.2-0.2c-0.4-0.4-0.5-1.1-0.2-1.6
	c0.2-0.2,0.3-0.5,0.5-0.7c0.3-0.5,1-0.7,1.5-0.5l0.2,0.1c0.6,0.3,1.3,0,1.6-0.7l0,0c0.3-0.6,0-1.3-0.7-1.6l-0.2-0.1
	c-0.5-0.2-0.9-0.8-0.7-1.4c0.1-0.3,0.1-0.6,0.2-0.8c0.1-0.6,0.6-1,1.2-1h0.2c0.7,0,1.2-0.6,1.2-1.2l0,0C32,15.3,31.4,14.8,30.8,14.8
	z M16,26.7c-5.9,0-10.7-4.8-10.7-10.7S10.1,5.3,16,5.3S26.7,10.1,26.7,16S21.9,26.7,16,26.7z"/>
<rect x="16" y="15" width="11.1" height="2"/>
<rect x="7.8" y="19.5" transform="matrix(0.5 -0.866 0.866 0.5 -11.0865 21.8562)" width="11.1" height="2"/>
<rect x="12.2" y="5.7" transform="matrix(0.866 -0.5 0.5 0.866 -3.829 8.1165)" width="2" height="11.1"/>
<circle cx="16" cy="16" r="2.5"/>
</svg>
