<?xml version="1.0" encoding="utf-8"?>
<!-- Generator: Adobe Illustrator 22.1.0, SVG Export Plug-In . SVG Version: 6.00 Build 0)  -->
<svg version="1.1" id="Layer_1" xmlns="http://www.w3.org/2000/svg" xmlns:xlink="http://www.w3.org/1999/xlink" x="0px" y="0px"
	 viewBox="0 0 32 32" style="enable-background:new 0 0 32 32;" xml:space="preserve">
<path d="M30.8,14.8h-0.2c-0.6,0-2.3,0.3-2.4-0.3c0-0.3-0.2-0.9-0.2-1.4c-0.1-0.6,1.3-1.1,1.8-1.4l0.2-0.1c0.6-0.3,0.9-1,0.7-1.6l0,0
	c-0.3-0.6-1-0.9-1.6-0.7L29,9.3c-0.5,0.2-1.9,1.1-2.2,0.6c-0.2-0.2-0.7-1.2-0.9-1.4c-0.3-0.5,0.9-1.5,1.4-2l0.2-0.2
	C28,5.8,28,5,27.5,4.6l0,0c-0.5-0.5-1.3-0.5-1.7,0l-0.1,0.2c-0.6,0.5-1.8,1.7-2.2,1.4c-0.2-0.2-1.1-0.8-1.3-1
	c-0.5-0.3,0.4-1.7,0.6-2.2l0.1-0.2c0.3-0.6,0-1.3-0.7-1.6c-0.6-0.3-1.3,0-1.6,0.7l-0.1,0.2c-0.2,0.5-0.9,2.4-1.5,2.2
	c-0.3-0.1-1.4-0.4-1.6-0.5c-0.6-0.1-0.1-1.9-0.1-2.5V1.2C17.2,0.6,16.7,0,16,0s-1.2,0.6-1.2,1.2v0.2c0,0.6,0.2,2.4-0.5,2.3
	C13.8,3.9,13.3,4,13,4c-0.6,0.1-1.1-1.4-1.4-1.9l-0.1-0.2c-0.3-0.6-1-0.9-1.6-0.7C9.3,1.5,9,2.2,9.2,2.8L9.3,3
	c0.2,0.5,1.1,2,0.6,2.3C9.7,5.5,8.7,6,8.4,6.2C8,6.5,7,5.3,6.6,4.8L6.4,4.7c-0.5-0.5-1.3-0.5-1.7,0l0,0C4.2,5.2,4.2,6,4.7,6.4
	l0.2,0.2C5.3,7,6.4,7.9,6.1,8.3C5.9,8.6,5.4,9.5,5.2,9.7C4.9,10.2,3.6,9.5,3,9.3L2.8,9.2C2.2,9,1.5,9.2,1.2,9.9l0,0
	c-0.3,0.6,0,1.3,0.7,1.6l0.2,0.1c0.5,0.2,1.7,0.4,1.7,1.1c0,0.4-0.1,1.6-0.2,1.8c-0.1,0.6-1.6,0.3-2.2,0.3H1.2C0.6,14.8,0,15.3,0,16
	l0,0c0,0.7,0.6,1.2,1.2,1.2h0.2c0.6,0,2.1-0.4,2.2,0.2c0,0.3,0.2,1.6,0.3,1.8c0.1,0.6-1.3,1-1.8,1.3l-0.2,0.1
	c-0.6,0.3-0.9,1-0.7,1.6l0,0c0.3,0.6,1,0.9,1.6,0.7L3,22.7c0.5-0.2,1.8-1,2.1-0.5c0.2,0.2,0.8,1.4,1,1.6c0.3,0.5-0.8,1.2-1.3,1.7
	l-0.2,0.2c-0.5,0.5-0.5,1.3,0,1.7s1.3,0.5,1.7,0l0.2-0.2c0.5-0.4,1.3-1.6,1.7-1.3c0.2,0.2,1.2,0.7,1.4,0.9c0.5,0.3-0.2,1.7-0.4,2.2
	l-0.1,0.2c-0.3,0.6,0,1.3,0.7,1.6c0.6,0.3,1.3,0,1.6-0.7l0.1-0.2c0.2-0.5,1-2.2,1.6-2c0.3,0.1,0.9,0.2,1.1,0.3
	c0.6,0.1,0.5,1.7,0.5,2.3v0.2c0,0.7,0.6,1.2,1.2,1.2c0.6,0,1.2-0.6,1.2-1.2v-0.2c0-0.6-0.2-2.3,0.4-2.4c0.3,0,1.2-0.2,1.4-0.3
	c0.6-0.1,1.1,1.5,1.4,2l0.1,0.2c0.3,0.6,1,0.9,1.6,0.7c0.6-0.3,0.9-1,0.7-1.6L22.7,29c-0.2-0.5-0.9-1.6-0.4-1.9
	c0.2-0.2,1.3-0.9,1.5-1.1c0.5-0.3,1.2,0.7,1.7,1.2l0.2,0.2c0.5,0.5,1.3,0.5,1.7,0s0.5-1.3,0-1.7l-0.2-0.2c-0.4-0.4-1.5-1.2-1.2-1.7
	c0.2-0.2,0.9-1.4,1.1-1.6c0.3-0.5,1.4,0.3,1.9,0.5l0.2,0.1c0.6,0.3,1.3,0,1.6-0.7l0,0c0.3-0.6,0-1.3-0.7-1.6l-0.2-0.1
	c-0.5-0.2-2.1-0.4-1.9-1c0.1-0.3,0.3-1.7,0.4-1.9c0.1-0.6,1.6-0.3,2.2-0.3h0.2c0.7,0,1.2-0.6,1.2-1.2l0,0
	C32,15.3,31.4,14.8,30.8,14.8z M16,26c-5.5,0-10-4.5-10-10S10.5,6,16,6s10,4.5,10,10S21.5,26,16,26z"/>
<rect x="16" y="15" width="11.1" height="2"/>
<rect x="7.8" y="19.5" transform="matrix(0.5 -0.866 0.866 0.5 -11.1136 21.7808)" width="11.1" height="2"/>
<rect x="12.2" y="5.7" transform="matrix(0.866 -0.5 0.5 0.866 -3.8641 8.1088)" width="2" height="11.1"/>
<circle cx="16" cy="16" r="2"/>
</svg>
