<?xml version="1.0" encoding="utf-8"?>
<!-- Generator: Adobe Illustrator 22.1.0, SVG Export Plug-In . SVG Version: 6.00 Build 0)  -->
<svg version="1.1" baseProfile="tiny" id="Capa_1" xmlns="http://www.w3.org/2000/svg" xmlns:xlink="http://www.w3.org/1999/xlink"
	 x="0px" y="0px" viewBox="0 0 64 64" xml:space="preserve">
<g>
	<path id="settings_1_" d="M61.7,27.3l-6.3-1.1c-0.5-1.9-1.1-3.7-2-5.4l4.1-5c0.9-1.1,0.8-2.6-0.1-3.6l-2.5-2.8
		c-0.9-1-2.4-1.2-3.6-0.5l-5.4,3.4c-2.4-1.7-5.1-2.9-8-3.6l-1.1-6.4C36.5,1,35.3,0,33.9,0h-3.8c-1.4,0-2.5,1-2.8,2.3l-1.1,6.4
		c-2.4,0.6-4.7,1.5-6.7,2.8l-5.2-3.7c-1.1-0.8-2.6-0.7-3.6,0.3l-2.7,2.7c-1,1-1.1,2.5-0.3,3.6l3.7,5.2c-1.2,2-2.2,4.3-2.8,6.7
		l-6.4,1.1C1,27.6,0,28.7,0,30.1v3.8c0,1.4,1,2.5,2.3,2.8l6.4,1.1c0.5,2,1.2,3.8,2.1,5.6l-4,5C6,49.4,6,50.9,6.9,51.9l2.5,2.8
		c0.9,1,2.4,1.2,3.6,0.5l5.5-3.5c2.3,1.6,5,2.8,7.8,3.5l1.1,6.4c0.2,1.3,1.4,2.3,2.8,2.3h3.8c1.4,0,2.5-1,2.8-2.3l1.1-6.4
		c2.4-0.6,4.6-1.5,6.7-2.8l5.4,3.8c1.1,0.8,2.6,0.7,3.6-0.3l2.7-2.7c1-1,1.1-2.5,0.3-3.6l-3.8-5.4c1.2-2.1,2.2-4.3,2.8-6.7l6.3-1.1
		c1.4-0.2,2.3-1.4,2.3-2.8v-3.8C64,28.7,63,27.6,61.7,27.3z M32.1,44c-6.6,0-12-5.4-12-12c0-6.6,5.4-12,12-12c6.6,0,12,5.4,12,12
		C44.1,38.6,38.7,44,32.1,44z"/>
</g>
</svg>
