<?xml version="1.0" encoding="utf-8"?>
<!-- Generator: Adobe Illustrator 22.1.0, SVG Export Plug-In . SVG Version: 6.00 Build 0)  -->
<svg version="1.2" baseProfile="tiny" id="Layer_1" xmlns="http://www.w3.org/2000/svg" xmlns:xlink="http://www.w3.org/1999/xlink"
	 x="0px" y="0px" viewBox="0 0 32 32" xml:space="preserve">
<rect x="15" y="15" width="13" height="2"/>
<rect x="6.6" y="19.9" transform="matrix(0.5 -0.866 0.866 0.5 -11.5303 21.8399)" width="13" height="2"/>
<polygon points="9.8,6.5 11.5,5.5 17,15.7 15.3,16.7 "/>
<ellipse cx="15.9" cy="15.8" rx="2" ry="2"/>
<path d="M31,14.7h-0.2c-0.5,0-1.9,0-2.2-0.4c-0.1-0.5-0.2-0.9-0.3-1.4c0.3-0.5,1.5-1.1,1.9-1.3l0.2-0.1c0.6-0.3,0.9-1,0.7-1.6
	c-0.3-0.6-1-0.9-1.6-0.7h-0.1c-0.4,0.2-1.9,1-2.3,0.7c-0.3-0.4-0.5-0.9-0.9-1.3c0.1-0.6,0.9-1.5,1.2-2l0.3-0.2
	c0.5-0.4,0.5-1.2,0-1.6c-0.5-0.5-1.3-0.5-1.7,0L25.8,5c-0.4,0.4-1.3,1-2,1.1c-0.4-0.4-1.2-0.8-1.7-1.1c0-0.5,0.3-1.3,0.6-2.1
	l0.1-0.2c0.4-0.8,0-1.3-0.7-1.6c-0.6-0.3-1.3,0-1.6,0.7L20.4,2c-0.2,0.4-0.5,1.2-1.2,1.9c-0.5-0.2-1.2-0.3-1.8-0.4
	c-0.3-0.6-0.2-1.7-0.2-2.2V1.2c0-1-0.5-1.2-1.1-1.2c-0.7,0-1.1,0.1-1.2,1.2v0.2c0,0.6,0.1,2.2-0.8,2.2c-0.4,0.1-0.6,0.1-1,0.2
	c0,0,0,0-0.1,0c-0.7-0.3-1.1-1.3-1.4-1.8l-0.1-0.2c-0.6-1.1-1-0.9-1.6-0.7s-1,0.5-0.7,1.4L9.4,3c0.2,0.4,0.7,1.7,0.4,2.2
	C9.4,5.4,9,5.6,8.7,5.9C8,6,6.9,5.2,6.5,4.8L6.3,4.7C5.8,4.1,5,4.1,4.6,4.7C4.1,5.2,4.1,6,4.6,6.4l0.2,0.2C5.2,6.9,6.1,8.2,6,8.7
	C5.8,9,5.6,9.2,5.4,9.6v0.1C5.1,10.2,3.6,9.5,3,9.3L2.7,9.1C2.1,9,1.3,9.1,1.1,9.9c-0.3,0.6,0,1.3,0.7,1.6L2,11.6
	c0.4,0.2,1.7,0.5,2,1.2c-0.1,0.4-0.2,0.9-0.3,1.4c-0.2,0.7-1.7,0.7-2.3,0.7H1.2C0.6,14.9,0,15.4,0,16s0.6,1.2,1.2,1.2h0.2
	c0.6,0,2.1-0.1,2.2,0.5c0.1,0.5,0.2,1.1,0.3,1.5c-0.1,0.5-1.4,1-1.9,1.3l-0.2,0.1c-0.6,0.3-0.9,1-0.7,1.6c0.3,0.6,1,0.9,1.6,0.7
	l0.4-0.2c0.5-0.2,1.7-1,2.1-0.4l0,0c0.2,0.4,0.4,0.7,0.7,1.1c-0.1,0.7-0.8,1.6-1.2,2.1l-0.2,0.2C4,26.2,4,27,4.5,27.4s1.3,0.5,1.7,0
	l0.2-0.2c0.5-0.4,1.4-1.3,1.9-1.3c0.5,0.4,1.1,0.8,1.6,1.1c0.2,0.5-0.6,1.6-0.8,2.1L9,29.2c-0.3,0.6,0,1.3,0.7,1.6
	c0.6,0.3,1.3,0,1.6-0.7l0.1-0.2c0.2-0.5,1.1-2,1.6-1.8c0.4,0.1,0.6,0.2,1,0.2c0.5,0.2,0.5,1.7,0.5,2.3v0.2c0,0.7,0.6,1.2,1.2,1.2
	c0.6,0,1.2-0.6,1.2-1.2v-0.2c0-0.6,0.1-2,0.6-2.2c0.5-0.1,0.9-0.2,1.3-0.3c0.5,0.2,1.3,1.4,1.5,1.9l0.1,0.2c0.3,0.6,1,0.9,1.6,0.7
	c0.6-0.3,0.9-1,0.7-1.6v-0.1c-0.2-0.5-0.5-1.6-0.5-2.4c0.4-0.3,0.8-0.4,1.2-0.7c0.5,0,1.3,0.8,1.8,1.2l0.2,0.2
	c0.5,0.5,1.3,0.5,1.7,0c0.4-0.5,0.5-1.3,0-1.7l-0.2-0.2c-0.4-0.4-1-1.1-1-1.7c0.3-0.4,0.9-1.2,1.2-1.7c0.4-0.3,1.4,0.2,1.8,0.3
	l0.2,0.1c1.1,0.2,1.5,0.2,1.8-0.5c0.3-0.7,0.1-1.4-0.9-1.8l-0.2-0.1c-0.4-0.2-1.2-0.5-1.4-1c0.2-0.5,0.1-1.2,0.2-1.8
	c0.4-0.4,1.8-0.5,2.3-0.5H31c0.6,0,0.9-0.3,1-1.1C32,15,31.5,14.8,31,14.7z M26.3,16.1c0,5.7-4.6,10.3-10.3,10.3S5.8,21.8,5.8,16.1
	S10.4,5.8,16.1,5.8S26.3,10.5,26.3,16.1z"/>
</svg>
