<?xml version="1.0" encoding="utf-8"?>
<!-- Generator: Adobe Illustrator 22.1.0, SVG Export Plug-In . SVG Version: 6.00 Build 0)  -->
<svg version="1.1" baseProfile="tiny" id="katman_1"
	 xmlns="http://www.w3.org/2000/svg" xmlns:xlink="http://www.w3.org/1999/xlink" x="0px" y="0px" viewBox="0 0 64 64"
	 xml:space="preserve">
<path stroke="#000000" stroke-width="1.6" stroke-miterlimit="10" d="M28.2,1c-0.7,0-1.2,0.5-1.3,1.1l-1.3,8
	c-1.6,0.5-3.1,1.1-4.5,1.8l-6.6-4.7c-0.5-0.4-1.3-0.3-1.7,0.1l-5.2,5.2C7,13.1,7,13.8,7.3,14.4L12,21c-0.8,1.4-1.4,2.9-1.9,4.5
	l-8,1.3C1.5,27,1,27.6,1,28.2v7.4c0,0.7,0.5,1.2,1.1,1.3l8,1.4c0.5,1.6,1.1,3.1,1.9,4.5l-4.7,6.6c-0.4,0.5-0.3,1.3,0.1,1.7l5.2,5.2
	c0.5,0.5,1.2,0.5,1.7,0.2l6.7-4.7c1.4,0.8,2.9,1.4,4.5,1.9l1.3,8c0.1,0.7,0.7,1.1,1.3,1.1h7.4c0.7,0,1.2-0.5,1.3-1.1l1.4-8.1
	c1.6-0.5,3.1-1.1,4.5-1.9l6.7,4.7c0.5,0.4,1.3,0.3,1.7-0.2l5.2-5.2c0.5-0.5,0.5-1.2,0.1-1.7l-4.8-6.7c0.8-1.4,1.4-2.9,1.8-4.5
	l8.1-1.4c0.6-0.1,1.1-0.7,1.1-1.3v-7.4c0-0.7-0.5-1.2-1.1-1.3l-8.1-1.3c-0.5-1.6-1.1-3.1-1.8-4.5l4.7-6.7c0.4-0.5,0.3-1.3-0.2-1.7
	l-5.2-5.2c-0.5-0.5-1.2-0.5-1.7-0.1l-6.6,4.8c-1.4-0.8-2.9-1.4-4.5-1.9L37,2.1C36.9,1.5,36.3,1,35.6,1H28.2z M29.4,3.7h5.1l1.3,7.7
	c0.1,0.5,0.5,0.9,1,1.1c2,0.5,3.8,1.3,5.5,2.3c0.5,0.3,1,0.3,1.5-0.1l6.3-4.5l3.6,3.6l-4.5,6.4c-0.3,0.4-0.3,1-0.1,1.5
	c1,1.7,1.8,3.5,2.3,5.5c0.1,0.5,0.6,0.9,1.1,1l7.7,1.3v5.1l-7.7,1.4c-0.5,0.1-0.9,0.5-1.1,1c-0.5,2-1.3,3.8-2.3,5.5
	c-0.3,0.5-0.3,1,0.1,1.5l4.6,6.3l-3.6,3.6l-6.4-4.5c-0.4-0.3-1-0.3-1.5,0c-1.7,1-3.5,1.8-5.5,2.3c-0.5,0.1-0.9,0.5-1,1.1l-1.4,7.7
	h-5.1l-1.3-7.6c-0.1-0.5-0.5-1-1-1.1c-2-0.5-3.8-1.3-5.5-2.3c-0.5-0.3-1-0.3-1.5,0.1l-6.3,4.4l-3.6-3.6l4.5-6.3
	c0.3-0.4,0.3-1,0.1-1.5c-1-1.7-1.8-3.6-2.3-5.5c-0.1-0.5-0.5-0.9-1.1-1l-7.6-1.3v-5.1l7.6-1.3c0.5-0.1,1-0.5,1.1-1
	c0.5-2,1.3-3.8,2.3-5.5c0.3-0.5,0.3-1,0-1.5l-4.4-6.3l3.6-3.6l6.3,4.5c0.4,0.3,1,0.3,1.5,0.1c1.7-1,3.6-1.8,5.5-2.3
	c0.5-0.1,0.9-0.6,1-1.1L29.4,3.7z M32,21.2c-5.9,0-10.8,4.8-10.8,10.8S26.1,42.8,32,42.8S42.8,37.9,42.8,32S37.9,21.2,32,21.2z
	 M32,23.9c4.5,0,8.1,3.6,8.1,8.1s-3.6,8.1-8.1,8.1s-8.1-3.6-8.1-8.1S27.5,23.9,32,23.9z"/>
</svg>
