<?xml version="1.0" encoding="utf-8"?>
<!-- Generator: Adobe Illustrator 22.1.0, SVG Export Plug-In . SVG Version: 6.00 Build 0)  -->
<svg version="1.2" baseProfile="tiny" id="katman_1"
	 xmlns="http://www.w3.org/2000/svg" xmlns:xlink="http://www.w3.org/1999/xlink" x="0px" y="0px" viewBox="0 0 24 24"
	 xml:space="preserve">
<rect y="22" width="24" height="2"/>
<path d="M20.6,0H3.4C2.6,0,2,0.6,2,1.4v17.1C2,19.4,2.6,20,3.4,20h17.1c0.8,0,1.4-0.6,1.4-1.4V1.4C22,0.6,21.4,0,20.6,0z M20,17.4
	c0,0.3-0.3,0.6-0.6,0.6H4.6C4.3,18,4,17.7,4,17.4V2.6C4,2.3,4.3,2,4.6,2h14.8C19.7,2,20,2.3,20,2.6V17.4z"/>
</svg>
