<?xml version="1.0" encoding="utf-8"?>
<!-- Generator: Adobe Illustrator 22.1.0, SVG Export Plug-In . SVG Version: 6.00 Build 0)  -->
<svg version="1.2" baseProfile="tiny" id="katman_1"
	 xmlns="http://www.w3.org/2000/svg" xmlns:xlink="http://www.w3.org/1999/xlink" x="0px" y="0px" viewBox="0 0 24 24"
	 xml:space="preserve">
<rect width="2" height="24"/>
<path d="M22.6,2H5.4C4.6,2,4,2.6,4,3.4v17.1C4,21.4,4.6,22,5.4,22h17.1c0.8,0,1.4-0.6,1.4-1.4V3.4C24,2.6,23.4,2,22.6,2z M22,19.4
	c0,0.3-0.3,0.6-0.6,0.6H6.6C6.3,20,6,19.7,6,19.4V4.6C6,4.3,6.3,4,6.6,4h14.8C21.7,4,22,4.3,22,4.6V19.4z"/>
</svg>
