<?xml version="1.0" encoding="utf-8"?>
<!-- Generator: Adobe Illustrator 22.1.0, SVG Export Plug-In . SVG Version: 6.00 Build 0)  -->
<svg version="1.2" baseProfile="tiny" id="katman_1"
	 xmlns="http://www.w3.org/2000/svg" xmlns:xlink="http://www.w3.org/1999/xlink" x="0px" y="0px" viewBox="0 0 24 24"
	 xml:space="preserve">
<rect x="22" width="2" height="24"/>
<path d="M18.6,2H1.4C0.6,2,0,2.6,0,3.4v17.1C0,21.4,0.6,22,1.4,22h17.1c0.8,0,1.4-0.6,1.4-1.4V3.4C20,2.6,19.4,2,18.6,2z M18,19.4
	c0,0.3-0.3,0.6-0.6,0.6H2.6C2.3,20,2,19.7,2,19.4V4.6C2,4.3,2.3,4,2.6,4h14.8C17.7,4,18,4.3,18,4.6V19.4z"/>
</svg>
