<?xml version="1.0" encoding="utf-8"?>
<!-- Generator: Adobe Illustrator 22.1.0, SVG Export Plug-In . SVG Version: 6.00 Build 0)  -->
<svg version="1.2" baseProfile="tiny" id="katman_1"
	 xmlns="http://www.w3.org/2000/svg" xmlns:xlink="http://www.w3.org/1999/xlink" x="0px" y="0px" viewBox="0 0 24 24"
	 xml:space="preserve">
<rect width="24" height="2"/>
<path d="M20.6,4H3.4C2.6,4,2,4.6,2,5.4v17.1C2,23.4,2.6,24,3.4,24h17.1c0.8,0,1.4-0.6,1.4-1.4V5.4C22,4.6,21.4,4,20.6,4z M20,21.4
	c0,0.3-0.3,0.6-0.6,0.6H4.6C4.3,22,4,21.7,4,21.4V6.6C4,6.3,4.3,6,4.6,6h14.8C19.7,6,20,6.3,20,6.6V21.4z"/>
</svg>
