<?xml version="1.0" encoding="utf-8"?>
<!-- Generator: Adobe Illustrator 22.1.0, SVG Export Plug-In . SVG Version: 6.00 Build 0)  -->
<svg version="1.2" baseProfile="tiny" id="katman_1"
	 xmlns="http://www.w3.org/2000/svg" xmlns:xlink="http://www.w3.org/1999/xlink" x="0px" y="0px" viewBox="0 0 24 24"
	 xml:space="preserve">
<rect y="11" width="24" height="2"/>
<path d="M20.6,2H3.4C2.6,2,2,2.6,2,3.4v17.1C2,21.4,2.6,22,3.4,22h17.1c0.8,0,1.4-0.6,1.4-1.4V3.4C22,2.6,21.4,2,20.6,2z M20,19.4
	c0,0.3-0.3,0.6-0.6,0.6H4.6C4.3,20,4,19.7,4,19.4V4.6C4,4.3,4.3,4,4.6,4h14.8C19.7,4,20,4.3,20,4.6V19.4z"/>
</svg>
