<?xml version="1.0" encoding="utf-8"?>
<!-- Generator: Adobe Illustrator 23.1.1, SVG Export Plug-In . SVG Version: 6.00 Build 0)  -->
<svg version="1.1" id="katman_1" xmlns="http://www.w3.org/2000/svg" xmlns:xlink="http://www.w3.org/1999/xlink" x="0px" y="0px"
	 viewBox="0 0 60 60" style="enable-background:new 0 0 60 60;" xml:space="preserve">
<style type="text/css">
	.st0{fill:#36404D;}
	.st1{fill:#FFFFFF;}
	.st2{fill:#788B9C;}
	.st3{fill:#D6E3ED;}
	.st4{fill:none;stroke:#788B9C;stroke-miterlimit:10;}
</style>
<path class="st0" d="M55.2,51H4.8C2.7,51,1,52.8,1,55l0,0c0,2.2,1.7,4,3.8,4h50.4c2.1,0,3.8-1.8,3.8-4l0,0C59,52.8,57.3,51,55.2,51z
	"/>
<g>
	<polygon class="st1" points="7.5,56.5 7.5,4.4 9.2,3.6 12.2,5.1 15.2,3.6 18.1,5.1 21.1,3.6 24.1,5.1 27,3.6 30,5.1 33,3.6 
		35.9,5.1 38.9,3.6 41.9,5.1 44.8,3.6 47.8,5.1 50.8,3.6 52.5,4.4 52.5,56.5 	"/>
	<path class="st2" d="M38.9,4.1l2.5,1.3l0.5,0.2l0.5-0.2l2.5-1.3l2.5,1.3l0.5,0.2l0.5-0.2l2.5-1.3L52,4.7V56H8V4.7l1.2-0.6l2.5,1.3
		l0.5,0.2l0.5-0.2l2.5-1.3l2.5,1.3l0.5,0.2l0.5-0.2l2.5-1.3l2.5,1.3l0.5,0.2l0.5-0.2L27,4.1l2.5,1.3L30,5.6l0.5-0.2L33,4.1l2.5,1.3
		l0.5,0.2l0.5-0.2L38.9,4.1 M50.8,3l-3,1.5l-3-1.5l-3,1.5l-3-1.5l-3,1.5L33,3l-3,1.5L27,3l-3,1.5l-3-1.5l-3,1.5l-3-1.5l-3,1.5L9.2,3
		L7,4.1V57h46V4.1L50.8,3L50.8,3z"/>
</g>
<path class="st3" d="M8,52h44v4H8V52z"/>
<path class="st4" d="M12,13.5h23 M12,19.5h20 M12,25.5h22 M45,25.5 M12,31.5h20 M44,31.5h4 M44,25.5h4 M44,19.5h4 M44,13.5h4
	 M32,46.5h16"/>
<path class="st2" d="M35.5,39c-0.3,0-0.5,0.2-0.5,0.5s0.2,0.5,0.5,0.5s0.5-0.2,0.5-0.5S35.8,39,35.5,39z M37.5,39
	c-0.3,0-0.5,0.2-0.5,0.5s0.2,0.5,0.5,0.5s0.5-0.2,0.5-0.5S37.8,39,37.5,39z M33.5,39c-0.3,0-0.5,0.2-0.5,0.5s0.2,0.5,0.5,0.5
	s0.5-0.2,0.5-0.5S33.8,39,33.5,39z M31.5,39c-0.3,0-0.5,0.2-0.5,0.5s0.2,0.5,0.5,0.5s0.5-0.2,0.5-0.5S31.8,39,31.5,39z M29.5,39
	c-0.3,0-0.5,0.2-0.5,0.5s0.2,0.5,0.5,0.5s0.5-0.2,0.5-0.5S29.8,39,29.5,39z M27.5,39c-0.3,0-0.5,0.2-0.5,0.5s0.2,0.5,0.5,0.5
	s0.5-0.2,0.5-0.5S27.8,39,27.5,39z M47.5,39c-0.3,0-0.5,0.2-0.5,0.5s0.2,0.5,0.5,0.5s0.5-0.2,0.5-0.5S47.8,39,47.5,39z M49.5,39
	c-0.3,0-0.5,0.2-0.5,0.5s0.2,0.5,0.5,0.5s0.5-0.2,0.5-0.5S49.8,39,49.5,39z M45.5,39c-0.3,0-0.5,0.2-0.5,0.5s0.2,0.5,0.5,0.5
	s0.5-0.2,0.5-0.5S45.8,39,45.5,39z M43.5,39c-0.3,0-0.5,0.2-0.5,0.5s0.2,0.5,0.5,0.5s0.5-0.2,0.5-0.5S43.8,39,43.5,39z M41.5,39
	c-0.3,0-0.5,0.2-0.5,0.5s0.2,0.5,0.5,0.5s0.5-0.2,0.5-0.5S41.8,39,41.5,39z M39.5,39c-0.3,0-0.5,0.2-0.5,0.5s0.2,0.5,0.5,0.5
	s0.5-0.2,0.5-0.5S39.8,39,39.5,39z M25.5,39c-0.3,0-0.5,0.2-0.5,0.5s0.2,0.5,0.5,0.5s0.5-0.2,0.5-0.5S25.8,39,25.5,39z M23.5,39
	c-0.3,0-0.5,0.2-0.5,0.5s0.2,0.5,0.5,0.5s0.5-0.2,0.5-0.5S23.8,39,23.5,39z M21.5,39c-0.3,0-0.5,0.2-0.5,0.5s0.2,0.5,0.5,0.5
	s0.5-0.2,0.5-0.5S21.8,39,21.5,39z M19.5,39c-0.3,0-0.5,0.2-0.5,0.5s0.2,0.5,0.5,0.5s0.5-0.2,0.5-0.5S19.8,39,19.5,39z M17.5,39
	c-0.3,0-0.5,0.2-0.5,0.5s0.2,0.5,0.5,0.5s0.5-0.2,0.5-0.5S17.8,39,17.5,39z M15.5,39c-0.3,0-0.5,0.2-0.5,0.5s0.2,0.5,0.5,0.5
	s0.5-0.2,0.5-0.5S15.8,39,15.5,39z M13.5,39c-0.3,0-0.5,0.2-0.5,0.5s0.2,0.5,0.5,0.5s0.5-0.2,0.5-0.5S13.8,39,13.5,39z M11.5,39
	c-0.3,0-0.5,0.2-0.5,0.5s0.2,0.5,0.5,0.5s0.5-0.2,0.5-0.5S11.8,39,11.5,39z M9.5,39C9.2,39,9,39.2,9,39.5S9.2,40,9.5,40
	s0.5-0.2,0.5-0.5S9.8,39,9.5,39z"/>
</svg>
