<svg xmlns="http://www.w3.org/2000/svg" viewBox="0 0 40 40"><path fill="#f78f8f" d="M4,30.5c-1.379,0-2.5-1.122-2.5-2.5V8c0-1.378,1.121-2.5,2.5-2.5h32c1.379,0,2.5,1.122,2.5,2.5v20 c0,1.378-1.121,2.5-2.5,2.5H4z"></path><path fill="#c74343" d="M36,6c1.103,0,2,0.897,2,2v20c0,1.103-0.897,2-2,2H4c-1.103,0-2-0.897-2-2V8c0-1.103,0.897-2,2-2H36 M36,5H4C2.343,5,1,6.343,1,8v20c0,1.657,1.343,3,3,3h32c1.657,0,3-1.343,3-3V8C39,6.343,37.657,5,36,5L36,5z"></path><path fill="#36404d" d="M1 10H39V14H1z"></path><path fill="#fff" d="M5 16H35V18H5z"></path><path fill="#f08181" d="M20,35.5c-6.341,0-11.5-5.159-11.5-11.5S13.659,12.5,20,12.5S31.5,17.659,31.5,24 S26.341,35.5,20,35.5z"></path><path fill="#66798f" d="M20,13c6.065,0,11,4.935,11,11s-4.935,11-11,11S9,30.065,9,24S13.935,13,20,13 M20,12 c-6.627,0-12,5.373-12,12s5.373,12,12,12s12-5.373,12-12S26.627,12,20,12L20,12z"></path><path fill="#ffc2c2" d="M20,14c5.514,0,10,4.486,10,10s-4.486,10-10,10s-10-4.486-10-10S14.486,14,20,14 M20,13 c-6.075,0-11,4.925-11,11s4.925,11,11,11s11-4.925,11-11S26.075,13,20,13L20,13z"></path><path fill="#fff" d="M9,24c0,1.413,0.276,2.759,0.761,4h20.477C30.724,26.759,31,25.413,31,24	c0-2.659-0.944-5.098-2.515-7H11.515C9.944,18.902,9,21.341,9,24z"></path><path fill="#e1ebf2" d="M12.864,17C11.094,18.804,10,21.273,10,24c0,1.423,0.302,2.774,0.838,4h18.325	C29.698,26.774,30,25.423,30,24c0-2.727-1.094-5.196-2.864-7H12.864z"></path><g><path fill="#36404d" d="M11.387,23.054c0,1.241,0.673,2.839,2.736,2.839c0.639,0,1.173-0.111,1.602-0.334v-0.875 c-0.395,0.254-0.861,0.382-1.4,0.382c-0.839,0-1.948-0.497-1.948-2.06c0-1.662,1.219-2.175,2.075-2.175 c0.464,0,0.888,0.114,1.272,0.342v-0.938C15.362,20.078,14.905,20,14.353,20C12.938,20,11.387,20.927,11.387,23.054z M19.733,24.446c-0.058,0.175-0.097,0.338-0.115,0.489h-0.016c-0.024-0.183-0.058-0.343-0.103-0.481l-1.408-4.326h-1.034 l2.012,5.702h1.058l2.048-5.702h-1.002L19.733,24.446z M27.479,20.128l-1.439,4.318c-0.058,0.175-0.097,0.338-0.115,0.489h-0.016 c-0.024-0.183-0.058-0.343-0.103-0.481l-1.408-4.326h-1.034l2.012,5.702h1.058l2.048-5.702H27.479z"></path></g></svg>