<?xml version="1.0" encoding="utf-8"?>
<!-- Generator: Adobe Illustrator 23.1.1, SVG Export Plug-In . SVG Version: 6.00 Build 0)  -->
<svg version="1.1" id="katman_1" xmlns="http://www.w3.org/2000/svg" xmlns:xlink="http://www.w3.org/1999/xlink" x="0px" y="0px"
	 viewBox="0 0 60 60" style="enable-background:new 0 0 60 60;" xml:space="preserve">
<style type="text/css">
	.st0{fill:#F78F8F;}
	.st1{fill:#C74343;}
	.st2{fill:#36404D;}
	.st3{fill:#FFFFFF;}
	.st4{fill:#F08181;}
	.st5{fill:#66798F;}
	.st6{fill:#FFC2C2;}
	.st7{fill:#E1EBF2;}
</style>
<g>
	<path class="st0" d="M5.8,45.5c-2.4,0-4.3-1.9-4.3-4.2V11.7c0-2.3,1.9-4.2,4.3-4.2h48.4c2.4,0,4.3,1.9,4.3,4.2v29.6
		c0,2.3-1.9,4.2-4.3,4.2H5.8z"/>
	<path class="st1" d="M54.2,8c2.1,0,3.8,1.7,3.8,3.7v29.6c0,2-1.7,3.7-3.8,3.7H5.8C3.7,45,2,43.3,2,41.3V11.7C2,9.7,3.7,8,5.8,8
		H54.2 M54.2,7H5.8C3.1,7,1,9.1,1,11.7v29.6C1,43.9,3.1,46,5.8,46h48.4c2.6,0,4.8-2.1,4.8-4.7V11.7C59,9.1,56.9,7,54.2,7L54.2,7z"/>
</g>
<path class="st2" d="M2,15h56v6H2V15z"/>
<path class="st3" d="M7,24h46v3H7V24z"/>
<g>
	<circle class="st4" cx="30" cy="35.8" r="17.8"/>
	<path class="st5" d="M30,18.5c9.5,0,17.2,7.7,17.2,17.2S39.5,53,30,53s-17.2-7.7-17.2-17.2S20.5,18.5,30,18.5 M30,17.5
		c-10.1,0-18.2,8.2-18.2,18.2S19.9,54,30,54s18.2-8.2,18.2-18.2S40.1,17.5,30,17.5L30,17.5z"/>
</g>
<g>
	<circle class="st4" cx="30" cy="35.8" r="16.8"/>
	<path class="st6" d="M30,19.5c9,0,16.2,7.3,16.2,16.2S39,52,30,52s-16.2-7.3-16.2-16.2S21,19.5,30,19.5 M30,18.5
		c-9.5,0-17.2,7.7-17.2,17.2S20.5,53,30,53s17.2-7.7,17.2-17.2S39.5,18.5,30,18.5L30,18.5z"/>
</g>
<path class="st3" d="M13.5,35.8c0,2.2,0.4,4.3,1.1,6.2h30.7c0.7-1.9,1.1-4,1.1-6.2c0-4.1-1.4-7.9-3.8-10.8H17.3
	C14.9,27.9,13.5,31.7,13.5,35.8z"/>
<path class="st7" d="M19.3,25c-2.7,2.8-4.3,6.6-4.3,10.8c0,2.2,0.5,4.3,1.3,6.2h27.5c0.8-1.9,1.3-4,1.3-6.2c0-4.2-1.6-8-4.3-10.8
	H19.3z"/>
<g>
	<path class="st2" d="M17,34.7c0,1.9,1,4.3,4.1,4.3c1,0,1.8-0.2,2.4-0.5v-1.3c-0.6,0.4-1.3,0.6-2.1,0.6c-1.3,0-2.9-0.8-2.9-3.1
		c0-2.5,1.8-3.3,3.1-3.3c0.7,0,1.3,0.2,1.9,0.5v-1.4C23,30.1,22.3,30,21.4,30C19.3,30,17,31.4,17,34.7z M29.5,36.8
		c-0.1,0.3-0.1,0.5-0.2,0.7h0c0-0.3-0.1-0.5-0.2-0.7l-2.1-6.6h-1.6l3,8.7h1.6l3.1-8.7h-1.5L29.5,36.8z M41.1,30.2L39,36.8
		c-0.1,0.3-0.1,0.5-0.2,0.7h0c0-0.3-0.1-0.5-0.2-0.7l-2.1-6.6H35l3,8.7h1.6l3.1-8.7C42.6,30.2,41.1,30.2,41.1,30.2z"/>
</g>
</svg>
