<?xml version="1.0" encoding="utf-8"?>
<!-- Generator: Adobe Illustrator 23.1.1, SVG Export Plug-In . SVG Version: 6.00 Build 0)  -->
<svg version="1.1" id="katman_1" xmlns="http://www.w3.org/2000/svg" xmlns:xlink="http://www.w3.org/1999/xlink" x="0px" y="0px"
	 viewBox="0 0 60 60" style="enable-background:new 0 0 60 60;" xml:space="preserve">
<style type="text/css">
	.st0{fill:#F5CE85;}
	.st1{fill:#967A44;}
	.st2{fill:#BAE0BD;}
	.st3{fill:#5E9C76;}
	.st4{fill:none;stroke:#66798F;stroke-miterlimit:10;}
	.st5{fill:#B0C1D4;}
	.st6{fill:#66798F;}
	.st7{fill:#BAE0BD;stroke:#5E9C76;stroke-miterlimit:10;}
</style>
<g>
	
		<rect x="31.4" y="7.9" transform="matrix(0.6949 -0.7191 0.7191 0.6949 -0.3712 35.9421)" class="st0" width="21.5" height="21.1"/>
	<path class="st1" d="M42.1,4.1l14.4,14L42.3,32.8l-14.4-14L42.1,4.1 M42.1,2.6l-0.7,0.7L27.1,18.1l-0.7,0.7l0.7,0.7l14.4,14
		l0.7,0.7l0.7-0.7l14.2-14.7l0.7-0.7l-0.7-0.7l-14.4-14L42.1,2.6L42.1,2.6z"/>
</g>
<g>
	
		<rect x="24.5" y="4.8" transform="matrix(0.6949 -0.7191 0.7191 0.6949 -2.6669 28.0421)" class="st0" width="14.4" height="24.8"/>
	<path class="st1" d="M27.8,4.1l17.1,16.5l-9.3,9.7L18.5,13.7L27.8,4.1 M27.8,2.6l-0.7,0.7L17.8,13l-0.7,0.7l0.7,0.7L34.9,31
		l0.7,0.7l0.7-0.7l9.3-9.7l0.7-0.7l-0.7-0.7L28.5,3.3L27.8,2.6L27.8,2.6z"/>
</g>
<g>
	<path class="st2" d="M19.5,38.5l-4.7-27.3l43.4,5.9l-5.4,19.3c-0.3,1.2-1.4,2.1-2.7,2.1H19.5z"/>
	<path class="st3" d="M15.4,11.7l42.2,5.8l-5.2,18.7c-0.3,1-1.2,1.8-2.2,1.8H19.9L15.4,11.7 M14.2,10.6l0.2,1.3l4.5,26.3L19,39h0.8
		h30.3c1.4,0,2.7-1,3.1-2.5l5.2-18.7l0.3-1.1l-1.1-0.2l-42.2-5.8L14.2,10.6L14.2,10.6z"/>
</g>
<path class="st4" d="M4.5,1.5h3.2c3.1,0,5.8,2.3,6.4,5.3l6.7,39.3c0.5,3.1,3.2,5.4,6.4,5.4H53"/>
<g>
	<circle class="st2" cx="4.5" cy="4.5" r="3"/>
	<path class="st3" d="M4.5,2C5.9,2,7,3.1,7,4.5S5.9,7,4.5,7S2,5.9,2,4.5S3.1,2,4.5,2 M4.5,1C2.6,1,1,2.6,1,4.5S2.6,8,4.5,8
		S8,6.4,8,4.5S6.4,1,4.5,1L4.5,1z"/>
</g>
<g>
	<circle class="st5" cx="47" cy="55" r="3.5"/>
	<path class="st6" d="M47,52c1.7,0,3,1.3,3,3s-1.3,3-3,3c-1.7,0-3-1.3-3-3S45.3,52,47,52 M47,51c-2.2,0-4,1.8-4,4s1.8,4,4,4
		s4-1.8,4-4S49.2,51,47,51L47,51z"/>
</g>
<g>
	<circle class="st5" cx="28" cy="55" r="3.5"/>
	<path class="st6" d="M28,52c1.7,0,3,1.3,3,3s-1.3,3-3,3s-3-1.3-3-3S26.3,52,28,52 M28,51c-2.2,0-4,1.8-4,4s1.8,4,4,4s4-1.8,4-4
		S30.2,51,28,51L28,51z"/>
</g>
<path class="st7" d="M27.5,33V21 M33.5,33V21 M39.5,33V21 M45.5,33V21"/>
</svg>
