<?xml version="1.0" encoding="utf-8"?>
<!-- Generator: Adobe Illustrator 22.1.0, SVG Export Plug-In . SVG Version: 6.00 Build 0)  -->
<svg version="1.2" baseProfile="tiny" id="katman_1"
	 xmlns="http://www.w3.org/2000/svg" xmlns:xlink="http://www.w3.org/1999/xlink" x="0px" y="0px" viewBox="0 0 32 32"
	 xml:space="preserve">
<path fill="#525252" stroke="#525252" stroke-width="0.5" stroke-miterlimit="10" d="M24,7c0.6-0.6,1.3-1.6,1.3-2.6
	c0-1.9-1.5-3.4-3.4-3.4c-1.4,0-4.7,2.1-6,4c-1.3-1.9-4.6-3.9-5.9-3.9c-1.8,0-3.4,1.5-3.4,3.4C6.7,5.4,7.5,6.4,8,7H24z M21.9,2.3
	c1.2,0,2.1,1,2.1,2.2c0,1.1-0.8,2-1.7,2.2h-5.2c-0.3-0.1-0.4-0.2-0.4-0.3C16.7,5.3,20.5,2.3,21.9,2.3z M10.1,2.3
	c1.3,0,5.2,3.1,5.2,4.2c0,0.1-0.2,0.2-0.4,0.3H9.7C8.7,6.5,8,5.6,8,4.5C8,3.3,8.9,2.3,10.1,2.3z"/>
<path fill="#525252" d="M24,7c0.6-0.6,1.3-1.6,1.3-2.6c0-1.9-1.5-3.4-3.4-3.4c-1.4,0-4.7,2.1-6,4c-1.3-1.9-4.6-3.9-5.9-3.9
	c-1.8,0-3.4,1.5-3.4,3.4C6.7,5.4,7.5,6.4,8,7H2.5C1.1,7,0,8.1,0,9.5V16h2v16h10h8h10V16h2V9.5C32,8.1,30.9,7,29.5,7H24z M21.9,2.3
	c1.2,0,2.1,1,2.1,2.2c0,1.1-0.8,2-1.7,2.2h-5.2c-0.3-0.1-0.4-0.2-0.4-0.3C16.7,5.3,20.5,2.3,21.9,2.3L21.9,2.3z M10.1,2.3
	c1.3,0,5.2,3.1,5.2,4.2c0,0.1-0.2,0.2-0.4,0.3H9.7C8.7,6.5,8,5.6,8,4.5C8,3.3,8.9,2.3,10.1,2.3L10.1,2.3z M12,30H4V16h8V30z M12,14
	H2v-4c0-0.6,0.4-1,1-1h9V14L12,14z M18,30h-4V9h4V30z M28,30h-8V16h8V30z M30,14H20V9h9c0.6,0,1,0.4,1,1V14L30,14z"/>
<rect x="14" y="9" fill="#B7B7B7" width="4" height="21"/>
</svg>
