<?xml version="1.0" encoding="utf-8"?>
<!-- Generator: Adobe Illustrator 22.1.0, SVG Export Plug-In . SVG Version: 6.00 Build 0)  -->
<svg version="1.2" baseProfile="tiny" id="Capa_1" xmlns="http://www.w3.org/2000/svg" xmlns:xlink="http://www.w3.org/1999/xlink"
	 x="0px" y="0px" viewBox="0 0 32 32" xml:space="preserve">
<path fill="#FFFFFF" d="M18.5,12.9c-0.7-0.9-0.3-4.4,0.2-7.1C19.4,2.5,18.5,0.1,16,0c-2.2,0.1-3.4,2.2-2.7,5.7
	c0.7,3.3,1.1,5.7,0.2,7.2c-0.8,0.5-5.4,1.4-6.5,1.9V31v1h1h17v-1v-1.2V23v-3v-4v-1C24.4,14.6,20.1,13.5,18.5,12.9z M23,30H8.5
	c0-0.2,0-0.4,0.3-0.7c0,0,1.6-1.5,3.2-2.4c1.9-1.1,2.1-1.6,3.6-0.3c1.9,1.5,1.9,0.3,3-2.1c0.4-0.9,0.7-1.5,1.1-1.6
	c0.9,0.1,1.4,0,2.7,3.9L23,30z M22,19H10c-1.3,0-1.3-3,0-3h12C23.3,16,23.3,19,22,19z"/>
</svg>
