<?xml version="1.0" encoding="utf-8"?>
<!-- Generator: Adobe Illustrator 22.1.0, SVG Export Plug-In . SVG Version: 6.00 Build 0)  -->
<svg version="1.2" baseProfile="tiny" id="Capa_1" xmlns="http://www.w3.org/2000/svg" xmlns:xlink="http://www.w3.org/1999/xlink"
	 x="0px" y="0px" viewBox="0 0 32 32" xml:space="preserve">
<g>
	<path fill="#8C8C8C" d="M28.8,9.2c-0.2-0.1-0.7-0.4-0.9-0.4c-0.7-0.1-1.4-0.3-2.2-0.3c-2.2,0-2.4-0.1-3.5,0.3
		c-0.2,0.1-0.3,0-0.3-0.3c0.3-1.2,0.6-2.1,0.6-3.9c0-0.7-0.2-1.1-0.3-1.7c0,0-0.6-0.5-0.7-0.5c-0.1-0.1-0.1-0.2-0.3-0.2
		C21,2,20.6,2.1,20.2,2c0,0-1.6,0-2.1,0h-5.3C12.4,2,12,2.3,12,2.8v4.9c1.5,0,2.6,0.6,3.4,1.4c1.1,0.5,2.7,1.5,3.1,2.6
		c2.5,2.9,0.6,8.7-4.3,8.7c-0.2,0-0.4,0-0.6,0c-0.4,0.1-0.9,0.2-1.3,0.2c-0.1,0-0.1,0-0.2,0v2.7c0,0.4,0.3,0.8,0.8,0.8h15.3
		c0.2,0,0.4-0.1,0.5-0.2c0.2-0.2,0.2-0.5,0.2-0.5C29,22.5,29,17.9,29,11.7V9.6C29,9.5,28.9,9.3,28.8,9.2z"/>
	<path fill="#FFFFFF" d="M27.3,4.1c-1.5-1.7-4-2.6-6.4-3.1h-9.2C11.3,1,11,1.3,11,1.7V8c0.1,0,1.8,0,2,0V3.7C13,3.3,13.3,3,13.7,3
		h4.6c0.4,0,1.9,0,1.9,0c0.4,0,0.7,0,1,0.1c0.1,0.1,0.2,0.1,0.2,0.2c0,0,0,0.1,0.1,0.1c0.1,0.6,0.2,1.1,0.2,1.8
		c0,1.7-0.5,3.2-0.8,4.3C20.8,9.8,21,10,21.2,9.9c1-0.3,2.1-0.5,4-0.5c0.7,0,1.4,0.1,2,0.1c0.2,0,0.3,0.1,0.5,0.1
		C27.8,9.8,28,9.9,28,10v12c0,0.1,0,0.6-0.2,0.8C27.7,22.9,27.2,23,27,23H14c-0.5,0.1-1.1-0.5-1-1v-2h-2v4.3c0,0.4,0.3,0.7,0.7,0.7
		h17.6c0.4,0,0.7-0.3,0.7-0.7V10.2c0,0,0,0,0-0.1C30,8,29.1,6.1,27.3,4.1z M25.5,7.8c-0.7,0-1.8,0.2-2.2,0.3c-0.1,0-0.3-0.2-0.2-0.3
		c0.3-0.7,0.3-2.2,0.3-2.5c0-0.8-0.2-1.6-0.3-2.1c0.8,0.3,1.9,1,2.9,1.9c0.9,0.9,1.7,2.2,2,3C27.3,8.1,26.4,7.8,25.5,7.8z"/>
	<path fill="#FFFFFF" d="M20,14c0,0.3,0,0.7,0,1h4v-1H20z"/>
	<path fill="#FFFFFF" d="M19.4,17c-0.1,0.4-0.2,0.7-0.4,1h5v-1H19.4z"/>
	<rect x="15" y="20" fill="#FFFFFF" width="11" height="1"/>
	<path fill="#FFFFFF" d="M17,11c0.1,0.1,0.1,0.2,0.1,0.3c0.2,0.2,0.4,0.4,0.6,0.7H26v-1H17z"/>
</g>
<g>
	<path fill="#969696" d="M19.8,29.3c0,0.1,0,0.4-0.2,0.5c-0.1,0.1-0.3,0.2-0.5,0.2H3.8C3.4,30,3,29.7,3,29.2V8.8C3,8.4,3.3,8,3.8,8
		c1.3,0,2.5,0,3.7,0C8,8,8.5,8,9,8c0.4,0,2.1,0,2.1,0c0.4,0,0.8,0,1.1,0.2c0.1,0.1,0.2,0.2,0.3,0.2L13,8.9c0.1,0.6,0.1,0.7,0.1,1.4
		c0,1.9-0.2,3.3-0.5,4.5c0.3,0.1,0.3-0.1,0.5,0.1c1.1-0.3,1.6-0.3,3.9-0.3c0.8,0,1.5,0.2,2.2,0.3c0.2,0,0.4,0.3,0.6,0.3
		c0.2,0.2,0.2,0.3,0.2,0.4c0,0.4,0,1.9,0,2.1C19.9,24.1,19.9,28.8,19.8,29.3z"/>
	<path fill="#FFFFFF" d="M21,18v-1.9l0,0c0,0,0,0,0-0.1c-0.3-2-1.1-4.1-3-5.8c-1.8-1.9-4.1-2.7-6.1-3.2l0,0h-2H7.6H2.7
		C2.3,7.1,2,7.4,2,7.8v22.5C2,30.7,2.3,31,2.7,31h17.6c0.4,0,0.7-0.3,0.7-0.7L21,18L21,18z M13.8,13.9c0.3-0.7,0.3-2,0.3-2.3
		c0-0.8-0.1-1.7-0.2-2.2c0.8,0.3,1.6,1,2.6,1.8c0.8,0.8,1.9,2,2.3,3c-0.5-0.1-1.8-0.3-2.7-0.3c-0.7,0-1.6,0.1-2,0.2
		C13.9,14.2,13.8,14,13.8,13.9z M19,28c0,0.1,0,0.6-0.2,0.8c-0.1,0.1-0.3,0.2-0.5,0.2H4.7C4.3,29,4,28.7,4,28.3V9.8C4,9.4,4.6,9,5,9
		c1.2,0,6,0,6,0c0.4,0,0.9,0.1,1.2,0.2c0.1,0.1,0.2,0.1,0.2,0.2c0,0,0,0.1,0.1,0.1c0.1,0.6,0.2,1.1,0.2,1.8c0,1.7-0.5,3.2-0.8,4.3
		c-0.1,0.2,0.1,0.4,0.3,0.3c1-0.3,2.1-0.6,4-0.5c0.7,0,0.7,0,1.4,0c0.6,0.1,0.7,0.3,0.9,0.4c0.5,0.4,0.5,1,0.5,1.1
		C19,17.3,19.1,27.5,19,28z"/>
	<rect x="6" y="20" fill="#FFFFFF" width="7" height="1"/>
	<rect x="6" y="23" fill="#FFFFFF" width="11" height="1"/>
	<rect x="6" y="26" fill="#FFFFFF" width="9" height="1"/>
	<rect x="6" y="17" fill="#FFFFFF" width="9" height="1"/>
</g>
</svg>
