<?xml version="1.0" encoding="utf-8"?>
<!-- Generator: Adobe Illustrator 22.1.0, SVG Export Plug-In . SVG Version: 6.00 Build 0)  -->
<svg version="1.2" baseProfile="tiny" id="Layer_1" xmlns="http://www.w3.org/2000/svg" xmlns:xlink="http://www.w3.org/1999/xlink"
	 x="0px" y="0px" viewBox="0 0 32 32" xml:space="preserve">
<path fill="#1374F1" d="M16,0L16,0c0.6,0,1,0.4,1,1v30c0,0.6-0.4,1-1,1l0,0c-0.6,0-1-0.4-1-1V1C15,0.4,15.4,0,16,0z"/>
<path fill="#1374F1" d="M29.7,7C29.9,7,30,7.1,30,7.3v17.4c0,0.2-0.1,0.3-0.3,0.3h-8.4c-0.2,0-0.3-0.1-0.3-0.3V7.3
	C21,7.1,21.1,7,21.3,7H29.7 M29.7,5h-8.4C20,5,19,6,19,7.3v17.4c0,1.3,1,2.3,2.3,2.3h8.4c1.3,0,2.3-1,2.3-2.3V7.3C32,6,31,5,29.7,5
	L29.7,5z"/>
<g>
	<rect x="23" y="17" fill="#1374F1" width="5" height="2"/>
	<rect x="23" y="21" fill="#1374F1" width="5" height="2"/>
	<rect x="23" y="13" fill="#1374F1" width="5" height="2"/>
	<rect x="23" y="9" fill="#1374F1" width="5" height="2"/>
</g>
<g>
	<path fill="#ABBDD6" d="M2.3,26C1.6,26,1,25.4,1,24.7V7.3C1,6.6,1.6,6,2.3,6h8.4C11.4,6,12,6.6,12,7.3v17.4c0,0.7-0.6,1.3-1.3,1.3
		H2.3z"/>
	<path fill="#1374F1" d="M10.7,7C10.9,7,11,7.1,11,7.3v17.4c0,0.2-0.1,0.3-0.3,0.3H2.3C2.1,25,2,24.9,2,24.7V7.3C2,7.1,2.1,7,2.3,7
		H10.7 M10.7,5H2.3C1,5,0,6,0,7.3v17.4C0,26,1,27,2.3,27h8.4c1.3,0,2.3-1,2.3-2.3V7.3C13,6,12,5,10.7,5L10.7,5z"/>
</g>
</svg>
