<?xml version="1.0" encoding="utf-8"?>
<!-- Generator: Adobe Illustrator 22.1.0, SVG Export Plug-In . SVG Version: 6.00 Build 0)  -->
<svg version="1.1" id="katman_1" xmlns="http://www.w3.org/2000/svg" xmlns:xlink="http://www.w3.org/1999/xlink" x="0px" y="0px"
	 viewBox="0 0 40 40" style="enable-background:new 0 0 40 40;" xml:space="preserve">
<style type="text/css">
	.st0{fill:none;stroke:#66798F;stroke-width:2;stroke-miterlimit:10;}
	.st1{fill:#F5CE85;}
	.st2{fill:#967A44;}
	.st3{fill:#FFEEA3;}
	.st4{fill:none;stroke:#967A44;stroke-width:2;stroke-miterlimit:10;}
</style>
<path class="st0" d="M29.8,10.2C29,5.6,24.9,2,20,2c-5.5,0-10,4.5-10,10c0,0.4,0,5.7,0,5.7"/>
<path class="st1" d="M2.5,37.5V19c0-1.9,1.6-3.5,3.5-3.5h28c1.9,0,3.5,1.6,3.5,3.5v18.5H2.5z"/>
<path class="st2" d="M34,16c1.7,0,3,1.3,3,3v18H3V19c0-1.7,1.3-3,3-3H34 M34,15H6c-2.2,0-4,1.8-4,4v19h36V19C38,16.8,36.2,15,34,15
	L34,15z"/>
<path class="st3" d="M3,31h34v3H3V31z M3,25h34v3H3V25z M3,19h34v3H3V19z"/>
<path class="st2" d="M20,31c-0.8,0-1.5,0.7-1.5,1.5S19.2,34,20,34s1.5-0.7,1.5-1.5S20.8,31,20,31z"/>
<path class="st4" d="M17,23c0-1.7,1.3-3,3-3s3,1.3,3,3c0,1-0.5,1.9-1.2,2.4c-1,0.8-1.8,1.9-1.8,3.2V29"/>
</svg>
