<?xml version="1.0" encoding="utf-8"?>
<!-- Generator: Adobe Illustrator 23.1.1, SVG Export Plug-In . SVG Version: 6.00 Build 0)  -->
<svg version="1.1" id="katman_1" xmlns="http://www.w3.org/2000/svg" xmlns:xlink="http://www.w3.org/1999/xlink" x="0px" y="0px"
	 viewBox="0 0 60 60" style="enable-background:new 0 0 60 60;" xml:space="preserve">
<style type="text/css">
	.st0{fill:url(#SVGID_1_);stroke:#333C47;stroke-miterlimit:10;}
	.st1{fill:none;stroke:#718799;stroke-width:0.5;stroke-miterlimit:10;}
	.st2{fill:url(#SVGID_2_);stroke:#8CA0AD;stroke-miterlimit:10;}
	.st3{fill:#B0C1D4;stroke:#637689;stroke-miterlimit:10;}
</style>
<g>
	
		<linearGradient id="SVGID_1_" gradientUnits="userSpaceOnUse" x1="11.0936" y1="-5.6514" x2="17.4639" y2="0.7187" gradientTransform="matrix(1 0 0 1 0 48)">
		<stop  offset="0" style="stop-color:#607184"/>
		<stop  offset="1" style="stop-color:#506174"/>
	</linearGradient>
	<path class="st0" d="M8,57.9c-0.3,0-0.6-0.2-0.8-0.3l-5.1-5.1H2c0,0-0.2-0.2-0.2-0.3c0-0.3,0.2-0.6,0.3-0.9l18.6-16.5
		c0.3-0.3,0.6-0.5,0.9-0.5c0.3,0,0.6,0.2,0.9,0.3l2.6,2.6c0.3,0.3,0.3,0.6,0.3,0.9s-0.2,0.6-0.3,0.9L8.6,57.8l0,0
		C8.3,57.9,8.2,57.9,8,57.9z"/>
	<line class="st1" x1="4.4" y1="52.1" x2="21.9" y2="36.7"/>
</g>
<linearGradient id="SVGID_2_" gradientUnits="userSpaceOnUse" x1="32.2851" y1="63.9842" x2="35.9258" y2="60.3435" gradientTransform="matrix(1 0 0 -1 0 88)">
	<stop  offset="0" style="stop-color:#E1EBF2"/>
	<stop  offset="1" style="stop-color:#D1DBE2"/>
</linearGradient>
<polygon class="st2" points="24,32.4 40.8,15.9 44,19.2 27.6,36 "/>
<path class="st3" d="M58.2,22.5l-4.4,4.4c-0.8,0.8-1.8,0.8-2.6,0c-0.8-0.3-0.8-1.8,0-2.6l0.8-0.8c-1.1-0.8-3.9-3.6-5.4-2.9
	c-0.8,0.3-2.1-0.8-2.1-0.8l-4.7-4.7c0,0-1.1-1.1-0.3-2.1c1.8-2.6,0.3-8.3-9.3-10.1C28.8,2.8,28.5,2.3,30,2c3.3-1.1,10.1-1.4,20.1,9
	c0,0,4.4,5,3.6,7.2c-0.3,0,0.8,1.5,1.5,2.6l0.8-0.8c0.8-0.8,1.8-0.8,2.6,0C58.8,20.2,58.8,21.7,58.2,22.5z"/>
</svg>
