<?xml version="1.0" encoding="utf-8"?>
<!-- Generator: Adobe Illustrator 23.1.1, SVG Export Plug-In . SVG Version: 6.00 Build 0)  -->
<svg version="1.1" id="katman_1" xmlns="http://www.w3.org/2000/svg" xmlns:xlink="http://www.w3.org/1999/xlink" x="0px" y="0px"
	 viewBox="0 0 60 60" style="enable-background:new 0 0 60 60;" xml:space="preserve">
<style type="text/css">
	.st0{fill:none;stroke:#66798F;stroke-width:2;stroke-miterlimit:10;}
	.st1{fill:#99C99E;}
	.st2{fill:#FFFFFF;}
	.st3{fill:#5E9C76;}
</style>
<path class="st0" d="M45,26.6c0,0,0-8,0-8.6c0-8.3-6.7-15-15-15S15,9.7,15,18c0,0.6,0,8.6,0,8.6"/>
<path class="st1" d="M3.8,56.2V28.5c0-2.9,2.4-5.2,5.2-5.2h42c2.9,0,5.2,2.4,5.2,5.2v27.8H3.8z"/>
<path class="st2" d="M21,40.5c0,1.7-1.3,3-3,3s-3-1.3-3-3s1.3-3,3-3S21,38.8,21,40.5z M42,37.5c-1.7,0-3,1.3-3,3s1.3,3,3,3
	s3-1.3,3-3S43.7,37.5,42,37.5z M30,37.5c-1.7,0-3,1.3-3,3s1.3,3,3,3s3-1.3,3-3S31.7,37.5,30,37.5z"/>
<path class="st3" d="M51.5,24c2.6,0,4.5,1.9,4.5,4.5V56H4V28.5C4,25.9,6,24,8.5,24H51 M51.5,23h-43C5.2,23,3,25.2,3,28.5V57h54V28.5
	C57,25.2,54.8,23,51.5,23L51.5,23z"/>
</svg>
