<?xml version="1.0" encoding="utf-8"?>
<!-- Generator: Adobe Illustrator 22.1.0, SVG Export Plug-In . SVG Version: 6.00 Build 0)  -->
<svg version="1.1" id="katman_1" xmlns="http://www.w3.org/2000/svg" xmlns:xlink="http://www.w3.org/1999/xlink" x="0px" y="0px"
	 viewBox="0 0 40 40" style="enable-background:new 0 0 40 40;" xml:space="preserve">
<style type="text/css">
	.st0{fill:#8BB7F0;}
	.st1{fill:#4E7AB5;}
	.st2{fill:#FFC49C;}
	.st3{fill:#967A44;}
	.st4{fill:none;stroke:#967A44;stroke-miterlimit:10;}
</style>
<path class="st0" d="M6.5,3.5h26v32h-26V3.5z"/>
<path class="st1" d="M32,4v31H7V4H32 M33,3H6v33h27V3L33,3z"/>
<path class="st1" d="M11,5h1v1h-1V5z M11,7h1v1h-1V7z M11,9h1v1h-1V9z M11,11h1v1h-1V11z M11,13h1v1h-1V13z M11,15h1v1h-1V15z
	 M11,17h1v1h-1V17z M11,19h1v1h-1V19z M15,5h1v1h-1V5z M15,9h1v1h-1V9z M15,11h1v1h-1V11z M15,13h1v1h-1V13z M15,15h1v1h-1V15z
	 M15,17h1v1h-1V17z M15,19h1v1h-1V19z M19,5h1v1h-1V5z M19,9h1v1h-1V9z M19,11h1v1h-1V11z M19,13h1v1h-1V13z M19,15h1v1h-1V15z
	 M19,17h1v1h-1V17z M19,19h1v1h-1V19z M23,5h1v1h-1V5z M23,9h1v1h-1V9z M23,11h1v1h-1V11z M23,13h1v1h-1V13z M23,15h1v1h-1V15z
	 M23,17h1v1h-1V17z M23,19h1v1h-1V19z M27,5h1v1h-1V5z M27,9h1v1h-1V9z M27,11h1v1h-1V11z M27,13h1v1h-1V13z M27,15h1v1h-1V15z
	 M27,17h1v1h-1V17z M27,19h1v1h-1V19z M28,21h1v1h-1V21z M9,7h1v1H9V7z M17,7h1v1h-1V7z M15,7h1v1h-1V7z M13,7h1v1h-1V7z M23,7h1v1
	h-1V7z M21,7h1v1h-1V7z M19,7h1v1h-1V7z M29,7h1v1h-1V7z M27,7h1v1h-1V7z M25,7h1v1h-1V7z M11,21h1v1h-1V21z M11,23h1v1h-1V23z
	 M15,21h1v1h-1V21z M19,21h1v1h-1V21z M23,21h1v1h-1V21z M27,21h1v1h-1V21z M9,23h1v1H9V23z M17,23h1v1h-1V23z M15,23h1v1h-1V23z
	 M13,23h1v1h-1V23z M23,23h1v1h-1V23z M21,23h1v1h-1V23z M19,23h1v1h-1V23z M29,23h1v1h-1V23z M27,23h1v1h-1V23z M25,23h1v1h-1V23z
	 M9,11h1v1H9V11z M17,11h1v1h-1V11z M13,11h1v1h-1V11z M21,11h1v1h-1V11z M29,11h1v1h-1V11z M25,11h1v1h-1V11z M9,15h1v1H9V15z
	 M17,15h1v1h-1V15z M13,15h1v1h-1V15z M21,15h1v1h-1V15z M29,15h1v1h-1V15z M25,15h1v1h-1V15z M9,19h1v1H9V19z M17,19h1v1h-1V19z
	 M13,19h1v1h-1V19z M21,19h1v1h-1V19z M29,19h1v1h-1V19z M25,19h1v1h-1V19z M11,25h1v1h-1V25z M11,27h1v1h-1V27z M15,25h1v1h-1V25z
	 M19,25h1v1h-1V25z M23,25h1v1h-1V25z M27,25h1v1h-1V25z M9,27h1v1H9V27z M17,27h1v1h-1V27z M15,27h1v1h-1V27z M13,27h1v1h-1V27z
	 M23,27h1v1h-1V27z M21,27h1v1h-1V27z M19,27h1v1h-1V27z M29,27h1v1h-1V27z M27,27h1v1h-1V27z M25,27h1v1h-1V27z M11,29h1v1h-1V29z
	 M11,31h1v1h-1V31z M15,29h1v1h-1V29z M19,29h1v1h-1V29z M23,29h1v1h-1V29z M27,29h1v1h-1V29z M11,33h1v1h-1V33z M15,33h1v1h-1V33z
	 M19,33h1v1h-1V33z M23,33h1v1h-1V33z M27,33h1v1h-1V33z M9,31h1v1H9V31z M17,31h1v1h-1V31z M15,31h1v1h-1V31z M13,31h1v1h-1V31z
	 M23,31h1v1h-1V31z M21,31h1v1h-1V31z M19,31h1v1h-1V31z M29,31h1v1h-1V31z M27,31h1v1h-1V31z M25,31h1v1h-1V31z"/>
<path class="st2" d="M39.3,20L20,39.3L13.7,33L33,13.7L39.3,20z"/>
<path class="st3" d="M33,14.4l5.6,5.6L20,38.6L14.4,33L33,14.4 M33,13L13,33l7,7l20-20L33,13L33,13z"/>
<path class="st4" d="M25,25l-2-2 M24,29l-3-3 M19,34l-3-3 M20,30l-2-2 M34,19l-3-3 M30,20l-2-2 M29,24l-3-3"/>
</svg>
