<?xml version="1.0" encoding="utf-8"?>
<!-- Generator: Adobe Illustrator 23.0.1, SVG Export Plug-In . SVG Version: 6.00 Build 0)  -->
<svg version="1.1" id="katman_1" xmlns="http://www.w3.org/2000/svg" xmlns:xlink="http://www.w3.org/1999/xlink" x="0px" y="0px"
	 viewBox="0 0 40 40" style="enable-background:new 0 0 40 40;" xml:space="preserve">
<style type="text/css">
	.st0{fill:#8BB7F0;}
	.st1{fill:#4E7AB5;}
	.st2{fill:#DEB974;}
	.st3{fill:#967A44;}
	.st4{fill:#F5CE85;}
	.st5{fill:#36404D;}
	.st6{fill:#F78F8F;}
	.st7{fill:#C74343;}
	.st8{fill:#FFEEA3;}
	.st9{fill:#BA9B48;}
	.st10{fill:#D9E7F5;}
	.st11{fill:#788B9C;}
	.st12{fill:#A6714E;}
	.st13{fill:#7A4F34;}
</style>
<path class="st0" d="M5.5,35.5c0.3-5.6,5-10,10.7-10h7.5c3.6,0,5.9,1.7,7.9,4.6l-5.5,5.4H5.5z"/>
<path class="st1" d="M23.8,26c3.3,0,5.4,1.5,7.3,4.1L25.9,35H6.1c0.5-5,4.9-9,10.2-9H23.8 M23.8,25h-7.5C10,25,5,29.9,5,36h21.4
	l5.9-5.8C30.3,27.1,27.8,25,23.8,25L23.8,25z"/>
<path class="st2" d="M20,28.5c-3.1,0-4.3-2.6-4.5-3.1v-5.5h9v5.5C24.3,25.9,23.1,28.5,20,28.5z"/>
<path class="st3" d="M24,20.4v4.9c-0.3,0.6-1.4,2.7-4,2.7c-2.6,0-3.7-2.1-4-2.7v-4.9H24 M25,19.4H15v6.1c0,0,1.3,3.5,5,3.5
	s5-3.5,5-3.5V19.4L25,19.4z"/>
<path class="st4" d="M22.2,33.7l1.7-1.7l3.3,2.9l-1.9,1.9L20,39L22.2,33.7z"/>
<path class="st3" d="M24,32.7l2.5,2.2L25,36.3l-4.1,1.8l1.8-4.1L24,32.7 M23.9,31.3l-2.1,2.1L19,40l6.6-2.8l2.3-2.3L23.9,31.3
	L23.9,31.3z"/>
<path class="st5" d="M20.6,36.3L19,40l3.7-1.6L20.6,36.3z"/>
<path class="st6" d="M34.9,21l0.9-0.9c0.4-0.4,1-0.6,1.5-0.6s1.1,0.2,1.5,0.6c0.8,0.8,0.8,2.2,0,3.1L38,24.1L34.9,21z"/>
<path class="st7" d="M37.3,20c0.4,0,0.9,0.2,1.2,0.5c0.7,0.7,0.7,1.7,0,2.4L38,23.4L35.6,21l0.5-0.5C36.5,20.2,36.9,20,37.3,20
	 M37.3,19c-0.7,0-1.4,0.3-1.9,0.8L34.2,21l3.8,3.8l1.2-1.2c1-1,1-2.7,0-3.8C38.7,19.3,38,19,37.3,19L37.3,19z"/>
<path class="st8" d="M25.9,36.2c0-0.1-0.1-0.1-0.1-0.2c-0.2-0.3-0.5-0.4-0.9-0.5c-0.2-0.8-0.8-1.2-1.4-1.4c-0.1-0.5-0.4-0.8-0.7-1
	l10.5-10.5l3.1,3.1L25.9,36.2z"/>
<path class="st9" d="M33.3,23.3l2.4,2.4l-9.7,9.8c-0.2-0.1-0.4-0.3-0.6-0.3c-0.3-0.7-0.8-1.1-1.4-1.3c-0.1-0.2-0.2-0.5-0.4-0.6
	L33.3,23.3 M33.3,21.9L21.8,33.4c0,0,0,0,0,0c0.1,0,1.2,0,1.2,1.2c0,0,1.4,0,1.4,1.4c1.4,0,1.2,1.2,1.2,1.2l11.5-11.5L33.3,21.9
	L33.3,21.9z"/>
<g>
	<path class="st10" d="M32.8,23.1l2.3-2.3l3.1,3.1l-2.3,2.3L32.8,23.1z"/>
	<path class="st11" d="M35.1,21.5l2.4,2.4l-1.6,1.6l-2.4-2.4L35.1,21.5 M35.1,20.1l-3,3l3.8,3.8l3-3L35.1,20.1L35.1,20.1z"/>
</g>
<g>
	<path class="st2" d="M26.4,17.6c-1.1,0-2.1-0.9-2.1-2.1s0.9-2.1,2.1-2.1c1.7,0,2.1,0.5,2.1,1.2C28.5,16,27.5,17.6,26.4,17.6z
		 M13.6,17.6c-1,0-2.1-1.7-2.1-2.9c0-0.7,0.3-1.2,2.1-1.2c1.1,0,2.1,0.9,2.1,2.1S14.7,17.6,13.6,17.6z"/>
	<path class="st3" d="M26.4,14c1.6,0,1.6,0.4,1.6,0.7c0,1-0.9,2.4-1.6,2.4c-0.9,0-1.6-0.7-1.6-1.6S25.6,14,26.4,14 M13.6,14
		c0.9,0,1.6,0.7,1.6,1.6s-0.7,1.6-1.6,1.6c-0.7,0-1.6-1.4-1.6-2.4C12,14.4,12,14,13.6,14 M26.4,13c-1.4,0-2.6,1.2-2.6,2.6
		s1.2,2.6,2.6,2.6s2.6-2,2.6-3.4S27.8,13,26.4,13L26.4,13z M13.6,13c-1.4,0-2.6,0.3-2.6,1.7s1.2,3.4,2.6,3.4s2.6-1.2,2.6-2.6
		S15,13,13.6,13L13.6,13z"/>
</g>
<g>
	<path class="st4" d="M20,24.5c-0.6,0-1.1-0.2-1.6-0.6l-0.1-0.1l-0.1,0c-2.8-0.8-4.7-3.4-4.7-6.2V9.4c0-1.6,1.3-2.8,2.8-2.8h7.3
		c1.6,0,2.8,1.3,2.8,2.8v8.1c0,2.9-1.9,5.5-4.7,6.2l-0.1,0l-0.1,0.1C21.1,24.3,20.6,24.5,20,24.5z"/>
	<path class="st3" d="M23.7,7C25,7,26,8.1,26,9.4v8.1c0,2.7-1.8,5-4.4,5.8l-0.2,0.1l-0.2,0.2C20.9,23.8,20.5,24,20,24
		s-0.9-0.2-1.2-0.5l-0.2-0.2l-0.2-0.1c-2.6-0.7-4.4-3.1-4.4-5.8V9.4C14,8.1,15,7,16.3,7L23.7,7 M23.7,6h-7.3C14.5,6,13,7.5,13,9.4
		v8.1c0,3.2,2.2,5.9,5.1,6.7c0.5,0.5,1.2,0.8,1.9,0.8s1.4-0.3,1.9-0.8c2.9-0.8,5.1-3.5,5.1-6.7V9.4C27,7.5,25.5,6,23.7,6L23.7,6z"/>
</g>
<g>
	<path class="st12" d="M26.5,15.5V12c0-3.5-2.2-4.4-2.3-4.5l-0.3-0.1l-0.2,0.3c0,0-2.3,2.8-5.6,2.8c-0.3,0-0.5,0-0.8,0
		c-0.3,0-0.5,0-0.8,0c-0.9,0-2.9,0-2.9,2.5v2.5h-0.2c-0.4-0.8-1.8-3.3-1.8-5.9c0-4.8,3.5-8.1,8.5-8.1c3.1,0,4.5,2.6,4.6,2.7l0.1,0.2
		l0.3,0c1.5,0.2,3.6,1,3.6,5.5c0,2.3-1.3,4.8-1.8,5.5H26.5z"/>
	<path class="st13" d="M20,2c2.8,0,4.1,2.4,4.1,2.5l0.2,0.5L24.9,5c1.5,0.2,3.1,1,3.1,5c0,1.4-0.5,2.8-1,3.9V12
		c0-3.8-2.5-4.9-2.6-4.9l-0.7-0.3l-0.5,0.6c0,0-2.2,2.6-5.2,2.6c-0.3,0-0.5,0-0.8,0c-0.3,0-0.5,0-0.8,0c-0.8,0-3.4,0-3.4,3v0.8
		c-0.5-1.1-1-2.7-1-4.2C12,5.1,15.3,2,20,2 M20,1c-5.4,0-9,3.7-9,8.6c0,3.3,2,6.4,2,6.4h1c0,0,0-2.1,0-3c0-1.8,1.1-2,2.4-2
		c0.5,0,1,0,1.6,0c3.6,0,6-3,6-3s2,0.8,2,4c0,1,0,4,0,4h1c0,0,2-3,2-6c0-4.2-1.7-5.7-4-6C25,4,23.4,1,20,1L20,1z"/>
</g>
</svg>
