<?xml version="1.0" encoding="utf-8"?>
<!-- Generator: Adobe Illustrator 23.1.1, SVG Export Plug-In . SVG Version: 6.00 Build 0)  -->
<svg version="1.1" id="katman_1" xmlns="http://www.w3.org/2000/svg" xmlns:xlink="http://www.w3.org/1999/xlink" x="0px" y="0px"
	 viewBox="0 0 60 60" style="enable-background:new 0 0 60 60;" xml:space="preserve">
<style type="text/css">
	.st0{fill:#8BB7F0;}
	.st1{fill:#4E7AB5;}
	.st2{fill:#DEB974;}
	.st3{fill:#967A44;}
	.st4{fill:#F5CE85;}
	.st5{fill:#36404D;}
	.st6{fill:#F78F8F;}
	.st7{fill:#C74343;}
	.st8{fill:#FFEEA3;}
	.st9{fill:#BA9B48;}
	.st10{fill:#D9E7F5;}
	.st11{fill:#788B9C;}
	.st12{fill:#A6714E;}
	.st13{fill:#7A4F34;}
</style>
<g>
	<path class="st0" d="M6.5,53.5l0-0.5C7,44.3,14.2,37.5,23,37.5h11.2c5.1,0,8.8,2.2,12.2,7.1l0.2,0.3L38,53.5H6.5z"/>
	<path class="st1" d="M34.2,38c5.4,0,8.8,2.5,11.8,6.9L37.8,53H7c0.4-8.4,7.5-15,16-15H34.2 M34.2,37H23c-9,0-16.5,7-17,15.9L5.9,54
		H7h30.8h0.4l0.3-0.3l8.2-8.1l0.6-0.6l-0.5-0.7C43.3,39.3,39.4,37,34.2,37L34.2,37z"/>
</g>
<g>
	<path class="st2" d="M29,42.5c-5.1,0-7.1-3.8-7.5-4.6l0-0.1v-8.3h15v8.3l0,0.1C36.1,38.7,34.1,42.5,29,42.5z"/>
	<path class="st3" d="M36,30v7.7c-0.3,0.7-2.2,4.3-7,4.3s-6.7-3.6-7-4.3V30H36 M37,29h-1H22h-1v1v7.7v0.2l0.1,0.2
		c0.4,0.8,2.5,4.9,7.9,4.9s7.5-4.1,7.9-4.9l0.1-0.2v-0.2V30V29L37,29z"/>
</g>
<g>
	<polygon class="st4" points="31.6,49.8 34.6,46.9 40.2,51.9 37,55.2 27.9,58.9 	"/>
	<path class="st3" d="M34.6,47.6l4.9,4.3l-2.8,2.8L28.8,58l3.3-7.9L34.6,47.6 M34.6,46.2l-0.7,0.7l-2.5,2.5l-0.1,0.1l-0.1,0.2
		l-3.3,7.9l-0.9,2.2l2.2-0.9l7.9-3.3l0.2-0.1l0.1-0.1l2.8-2.8l0.8-0.8l-0.8-0.7l-4.9-4.3L34.6,46.2L34.6,46.2z"/>
</g>
<path class="st5" d="M29.7,54l-2.4,5.5l5.5-2.4L29.7,54z"/>
<g>
	<path class="st6" d="M50.3,31.2l1.7-1.7c0.6-0.6,1.6-1,2.6-1s1.9,0.4,2.6,1c1.4,1.4,1.4,3.8,0,5.3l-1.5,1.7L50.3,31.2z"/>
	<path class="st7" d="M54.5,29c0.7,0,1.6,0.3,2.2,0.9c1.2,1.2,1.2,3.3,0,4.6l-1.2,1.3L51,31.2l1.3-1.3C52.9,29.3,53.8,29,54.5,29
		 M54.5,28c-1.1,0-2.2,0.5-2.9,1.2l-1.3,1.3l-0.7,0.7l0.7,0.7l4.6,4.6l0.7,0.7l0.7-0.8l1.2-1.3c1.5-1.7,1.5-4.4,0-6
		C56.7,28.5,55.6,28,54.5,28L54.5,28z"/>
</g>
<g>
	<path class="st8" d="M37.1,54c0-0.1-0.1-0.1-0.1-0.2c-0.2-0.2-0.5-0.3-1-0.5l-0.3-0.1l-0.1-0.3c-0.2-0.8-0.8-1.4-1.8-1.7l-0.3-0.1
		l-0.1-0.3c-0.1-0.5-0.4-0.9-0.8-1.2l-0.5-0.3l16.4-16.4l5.3,5.3L37.1,55.1V54z"/>
	<path class="st9" d="M48.6,33.6l4.6,4.6L37.6,53.8c0-0.1-0.1-0.1-0.1-0.3c-0.3-0.4-0.7-0.6-1.3-0.7c-0.3-1.2-1.2-1.8-2.1-2.1
		c-0.1-0.7-0.6-1.2-1-1.5L48.6,33.6 M48.6,32.2l-0.7,0.7L32.3,48.5l-0.9,0.9l1,0.7c0.4,0.2,0.5,0.5,0.6,0.9l0.1,0.6l0.6,0.2
		c0.8,0.3,1.3,0.7,1.4,1.4l0.1,0.6l0.6,0.1c0.4,0.1,0.6,0.2,0.7,0.3c0,0,0,0.1,0,0.1v2.1l1.7-1.7l15.6-15.6l0.7-0.7l-0.7-0.7
		l-4.6-4.6L48.6,32.2L48.6,32.2z"/>
</g>
<g>
	
		<rect x="48.9" y="31.2" transform="matrix(0.7073 -0.7069 0.7069 0.7073 -9.5366 46.8918)" class="st10" width="5.8" height="7.5"/>
	<path class="st11" d="M51.3,30.9l4.6,4.6L52.4,39l-4.6-4.6L51.3,30.9 M51.3,29.5l-0.7,0.7l-3.4,3.4l-0.7,0.7l0.7,0.7l4.6,4.6
		l0.7,0.7l0.7-0.7l3.4-3.4l0.7-0.7l-0.7-0.7L52,30.2L51.3,29.5L51.3,29.5z"/>
</g>
<g>
	<path class="st2" d="M39,26.5c-1.9,0-3.5-1.6-3.5-3.5c0-2,1.5-3.5,3.5-3.5c1.5,0,3.5,0.2,3.5,2.2C42.5,23.9,40.9,26.5,39,26.5z
		 M19,26.5c-1.7,0-3.5-2.8-3.5-4.7c0-1.6,1-2.3,3.5-2.3c1.9,0,3.5,1.6,3.5,3.6C22.5,25,21,26.5,19,26.5z"/>
	<path class="st3" d="M39,20c2.4,0,3,0.7,3,1.7c0,2-1.4,4.3-3,4.3s-3-1.3-3-3S37.3,20,39,20 M19,20c1.6,0,3,1.3,3,3.1S20.6,26,19,26
		c-1.4,0-3-2.5-3-4.2C16,20.7,16.4,20,19,20 M39,19c-2.3,0-4,1.7-4,4c0,2.2,1.8,4,4,4c2.3,0,4-2.8,4-5.3C43,19,40,19,39,19L39,19z
		 M19,19c-1.7,0-4,0.3-4,2.8c0,2.1,1.8,5.2,4,5.2c2.2,0,4-1.7,4-3.9C23,20.8,21.2,19,19,19L19,19z"/>
</g>
<g>
	<path class="st4" d="M29.1,36.5c-0.9,0-1.7-0.3-2.6-1l0,0l-0.1,0c-4.1-1.2-6.9-5.1-6.9-9.5V14.1c0-2.5,2-4.6,4.4-4.6h10.2
		c2.4,0,4.4,2,4.4,4.6v11.8c0,4.5-2.9,8.4-6.9,9.5l0,0C30.9,36.1,30.1,36.5,29.1,36.5z"/>
	<path class="st3" d="M34.1,10c2.2,0,3.9,1.9,3.9,4.1v11.8c0,4.2-2.7,8-6.6,9h-0.1L31.2,35c-0.6,0.7-1.3,1-2.1,1
		c-0.8,0-1.5-0.3-2.2-0.9L26.7,35h-0.1C22.7,33.8,20,30,20,26V14.1c0-2.3,1.8-4.1,3.9-4.1H34.1 M34.1,9H23.9c-2.7,0-4.9,2.3-4.9,5.1
		V26c0,4.6,3,8.7,7.2,10c0.9,0.7,1.8,1.1,2.8,1.1c1.1,0,2-0.4,2.7-1.2c4.2-1.2,7.2-5.2,7.2-9.9V14.1C39,11.3,36.8,9,34.1,9L34.1,9z"
		/>
</g>
<g>
	<path class="st12" d="M18.4,23.5l-0.3-0.6c-0.8-1.5-2.6-5-2.6-8.7c0-7.4,5.5-12.6,13.4-12.6c2.9,0,5.5,1.5,7.3,4.1l0.1,0.1l0.1,0.1
		l0,0l0,0h0.1c4,0.5,6,3.4,6,8.8c0,3.5-1.9,7.3-2.8,8.5l-0.2,0.2h-0.9V23h-0.5v-5.2c0-2-0.5-4.8-3.1-6.2c0,0-0.1,0-0.1-0.1l0,0
		l-0.1,0.1c-0.2,0.2-3.7,4.4-8.9,4.4h-2.4c-1.9,0-3.9,0.3-3.9,3.2v4.2H18.4z"/>
	<path class="st13" d="M28.9,2c4.7,0,6.8,3.9,7,4l0.2,0.3h0.5c2.3,0.3,5.5,1.5,5.5,8.2c0,3.5-2,7.2-2.7,8.3h-0.6v-5.1
		c0-5.2-3.3-6.6-3.5-6.8l-0.5-0.2l-0.3,0.5c0,0-3.5,4.2-8.5,4.2c-0.5,0-0.8,0-1.2,0c-0.5,0-0.8,0-1.2,0c-1.4,0-4.4,0-4.4,3.8V23
		h-0.3c-0.6-1.2-2.7-5-2.7-8.8C16,7,21.3,2,28.9,2 M38.7,22.9V23V22.9 M28.9,1C20.7,1,15,6.4,15,14.2c0,3.8,1.9,7.4,2.7,9l0.2,0.3
		l0.3,0.5h0.6H19h1v-1v-3.8c0-2.5,1.6-2.8,3.4-2.8h1.2h1.2c4.9,0,8.4-3.6,9.1-4.4c2.2,1.4,2.6,3.8,2.6,5.7v5.1v1h1h0.6h0.5l0.3-0.4
		c1-1.3,2.9-5.2,2.9-8.8c0-5.6-2.1-8.7-6.3-9.2l0,0l0,0C34.8,2.5,32,1,28.9,1L28.9,1z"/>
</g>
</svg>
