<?xml version="1.0" encoding="utf-8"?>
<!-- Generator: Adobe Illustrator 23.1.1, SVG Export Plug-In . SVG Version: 6.00 Build 0)  -->
<svg version="1.1" id="katman_1" xmlns="http://www.w3.org/2000/svg" xmlns:xlink="http://www.w3.org/1999/xlink" x="0px" y="0px"
	 viewBox="0 0 60 60" style="enable-background:new 0 0 60 60;" xml:space="preserve">
<style type="text/css">
	.st0{fill:#DCD5F2;}
	.st1{fill:#8B75A1;}
	.st2{fill:#EEEBF7;}
</style>
<g>
	<path class="st0" d="M26.1,58.5l-1.7-6.9l-0.1,0c-3.8-1-7.3-3-10-5.8l-0.1-0.1l-6.8,2l-3.9-6.8l5.1-4.9l0-0.1
		c-0.5-1.9-0.8-3.9-0.8-5.8c0-1.9,0.3-3.8,0.8-5.8l0-0.1l-5.1-4.9l3.9-6.8l6.8,2l0.1-0.1c2.8-2.8,6.2-4.7,10-5.8l0.1,0l1.7-6.9h7.8
		l1.7,6.9l0.1,0c3.8,1,7.3,3,10,5.8l0.1,0.1l6.8-2l3.9,6.8l-5.1,4.9l0,0.1c0.5,1.9,0.8,3.9,0.8,5.8c0,1.9-0.3,3.8-0.8,5.8l0,0.1
		l5.1,4.9l-3.9,6.8l-6.8-2l-0.1,0.1c-2.8,2.8-6.2,4.7-10,5.8l-0.1,0l-1.7,6.9H26.1z M30,18.4c-6.4,0-11.6,5.2-11.6,11.6
		c0,6.4,5.2,11.6,11.6,11.6c6.4,0,11.5-5.2,11.5-11.6C41.6,23.6,36.4,18.4,30,18.4z"/>
	<path class="st1" d="M33.5,2l1.7,6.8l0.4,0.1c3.7,1,7.1,2.9,9.8,5.6l0.3,0.3l6.7-1.9L56,19l-5,4.9l0.1,0.4c0.5,1.9,0.8,3.8,0.8,5.6
		c0,1.8-0.3,3.7-0.8,5.6L51,36.1l5,4.9L52.5,47l-6.7-1.9l-0.3,0.3c-2.7,2.7-6.1,4.6-9.8,5.6l-0.4,0.1L33.5,58h-7l-1.7-6.8l-0.4-0.1
		c-3.7-1-7.1-2.9-9.8-5.6l-0.3-0.3L7.5,47L4,41l5-4.9l-0.1-0.4c-0.5-1.9-0.8-3.8-0.8-5.6s0.3-3.7,0.8-5.6L9,23.9L4,19L7.5,13
		l6.7,1.9l0.3-0.3c2.7-2.7,6.1-4.6,9.8-5.6l0.4-0.1L26.5,2H33.5 M30,42.1c6.6,0,12.1-5.4,12.1-12.1S36.6,17.9,30,17.9
		C23.4,17.9,18,23.4,18,30S23.4,42.1,30,42.1 M34.3,1h-0.8h-7h-0.8l-0.2,0.8L24,8c-3.8,1-7.2,3-10,5.8L7.8,12L7,11.8l-0.4,0.7
		l-3.5,6.1l-0.4,0.7l0.6,0.5l4.6,4.5c-0.5,1.9-0.8,3.9-0.8,5.8c0,1.9,0.3,3.8,0.8,5.8l-4.6,4.5l-0.6,0.5l0.4,0.7l3.5,6.1L7,48.2
		L7.8,48l6.2-1.8C16.7,49,20.2,51,24,52l1.6,6.2l0.2,0.8h0.8h7h0.8l0.2-0.8L36,52c3.8-1,7.2-3,10-5.8l6.2,1.8l0.8,0.2l0.4-0.7
		l3.5-6.1l0.4-0.7l-0.6-0.5l-4.6-4.5c0.5-1.9,0.8-3.9,0.8-5.8c0-1.9-0.3-3.8-0.8-5.8l4.6-4.5l0.6-0.5l-0.4-0.7l-3.5-6.1L53,11.8
		L52.2,12L46,13.8C43.3,11,39.8,9,36,8l-1.6-6.2L34.3,1L34.3,1z M30,41.1c-6.1,0-11.1-5-11.1-11.1s5-11.1,11.1-11.1
		s11.1,5,11.1,11.1S36.1,41.1,30,41.1L30,41.1z"/>
</g>
<g>
	<path class="st2" d="M30,44.5c-8,0-14.5-6.5-14.5-14.5S22,15.5,30,15.5S44.5,22,44.5,30S38,44.5,30,44.5z M30,23.1
		c-3.8,0-6.9,3.1-6.9,6.9s3.1,6.9,6.9,6.9s6.9-3.1,6.9-6.9S33.8,23.1,30,23.1z"/>
	<path class="st1" d="M30,16c7.7,0,14,6.3,14,14s-6.3,14-14,14s-14-6.3-14-14S22.3,16,30,16 M30,37.4c4.1,0,7.4-3.3,7.4-7.4
		s-3.3-7.4-7.4-7.4s-7.4,3.3-7.4,7.4S25.9,37.4,30,37.4 M30,15c-8.3,0-15,6.7-15,15s6.7,15,15,15s15-6.7,15-15S38.3,15,30,15L30,15z
		 M30,36.4c-3.5,0-6.4-2.9-6.4-6.4s2.9-6.4,6.4-6.4c3.5,0,6.4,2.9,6.4,6.4S33.5,36.4,30,36.4L30,36.4z"/>
</g>
</svg>
