<?xml version="1.0" encoding="utf-8"?>
<!-- Generator: Adobe Illustrator 23.1.1, SVG Export Plug-In . SVG Version: 6.00 Build 0)  -->
<svg version="1.1" id="katman_1" xmlns="http://www.w3.org/2000/svg" xmlns:xlink="http://www.w3.org/1999/xlink" x="0px" y="0px"
	 viewBox="0 0 60 60" style="enable-background:new 0 0 60 60;" xml:space="preserve">
<style type="text/css">
	.st0{fill:none;stroke:#778B9D;stroke-miterlimit:10;}
	.st1{fill:#DBB065;}
	.st2{fill:#967A44;}
</style>
<path class="st0" d="M30.5,26.5v-5.3c0,0,5-3.2,5-7.4S31.9,8.5,30,8.5c-2.1,0-4.5,1.3-5.6,4.5"/>
<g>
	<path class="st1" d="M1.7,49.9c-0.9-0.8-1.3-2.2-1.2-3.6c0.1-1.8,1.1-3.5,2.6-4.6c1.1-0.8,4-2.4,7.4-4.2c4.5-2.4,10.6-5.7,12.1-7.2
		c2.1-2.1,2.2-3.6,2.2-3.6l0-1.2l1.2,0h9.1v1.2c0,0,0.1,1.5,2.2,3.6c1.4,1.4,7.6,4.7,12.1,7.2c3.4,1.8,6.3,3.4,7.4,4.2
		c1.6,1.1,2.5,2.8,2.6,4.6c0.1,1.4-0.3,2.8-1.2,3.6l-0.7,0.7l-0.9-0.6c-0.8-0.6-1.9-1.4-3.1-2.4l-0.2-0.1C47.7,43.2,37.1,35,30,35
		c-7.1,0-17.7,8.2-23.4,12.6l-0.1,0.1c-1.3,1-2.4,1.8-3.2,2.4l-0.9,0.6L1.7,49.9z"/>
	<path class="st2" d="M34.7,26v0.7c0,0,0.1,1.7,2.4,4c1.5,1.5,7.4,4.7,12.2,7.2c3.3,1.8,6.2,3.4,7.3,4.2c1.4,1.1,2.3,2.6,2.4,4.2
		c0.1,1.3-0.3,2.5-1.1,3.2L57.5,50L57,49.6c-0.8-0.6-2-1.5-3.3-2.5C47.9,42.7,37.2,34.5,30,34.5S12.1,42.7,6.3,47.2
		c-1.3,1-2.5,1.9-3.3,2.5L2.5,50l-0.4-0.4c-0.8-0.7-1.2-1.9-1.1-3.2c0.1-1.6,1-3.2,2.4-4.2c1.1-0.8,4-2.4,7.3-4.2
		c4.8-2.6,10.7-5.8,12.2-7.2c2.3-2.3,2.4-3.9,2.4-4l0-0.7l0.7,0H34.7 M35.7,25h-1h-8.6l-0.7,0l-1,0l0,1l0,0.7c0,0,0,0,0,0
		c0,0-0.1,1.4-2.1,3.3c-1.4,1.4-7.5,4.7-12,7.1c-3.4,1.8-6.3,3.4-7.4,4.2c-1.7,1.2-2.7,3-2.9,5c-0.1,1.6,0.4,3.1,1.4,4l0.4,0.4
		l0.6,0.6l0.7-0.5l0.5-0.4c0.8-0.6,2-1.5,3.3-2.5l0.1,0c5.7-4.4,16.2-12.5,23.1-12.5c6.9,0,17.4,8.1,23.1,12.5l0.1,0
		c1.3,1,2.4,1.9,3.3,2.5l0.5,0.4l0.7,0.5l0.6-0.6l0.4-0.4c1-0.9,1.5-2.4,1.4-4c-0.1-1.9-1.2-3.8-2.9-5c-1.1-0.8-4-2.4-7.4-4.2
		l-0.1,0c-4.5-2.4-10.6-5.7-12-7.1c-1.8-1.8-2.1-3.1-2.1-3.3V26V25L35.7,25z"/>
</g>
</svg>
