<svg xmlns="http://www.w3.org/2000/svg" viewBox="0 0 40 40"><path fill="none" stroke="#778b9d" stroke-miterlimit="10" d="M20.063,14v-3.529c0,0,3.032-2.118,3.032-4.941S20.813,2,19.565,2    c-1.412,0-2.824,0.706-3.529,2.824"></path><path fill="#dbb065" d="M38.133,29.76c-0.56-0.4-1.324-1.004-2.209-1.703C32.06,25.005,24.867,19.325,20,19.325 s-12.06,5.68-15.924,8.732c-0.885,0.699-1.649,1.303-2.209,1.703l-0.345,0.247l-0.3-0.3c-0.51-0.51-0.776-1.34-0.713-2.222 c0.08-1.131,0.679-2.195,1.644-2.918c0.728-0.545,2.671-1.622,4.921-2.868c3.199-1.771,7.18-3.976,8.186-4.981 c1.556-1.556,1.608-2.713,1.608-2.725l0.015-0.485l0.485-0.008h5.764V14c0,0.004,0.053,1.161,1.608,2.717 c1.006,1.005,4.986,3.209,8.186,4.981c2.25,1.247,4.193,2.323,4.921,2.868c0.965,0.723,1.563,1.787,1.644,2.918 c0.063,0.881-0.203,1.712-0.713,2.222l-0.3,0.3L38.133,29.76z"></path><path fill="#967a44" d="M22.632,14c0,0,0,1.316,1.755,3.071c1.755,1.755,11.405,6.58,13.16,7.896 c1.755,1.316,1.755,3.509,0.877,4.387C35.353,27.16,26.141,18.825,20,18.825S4.647,27.16,1.576,29.353 c-0.877-0.877-0.877-3.071,0.877-4.387c1.755-1.316,11.405-6.141,13.16-7.896C17.368,15.316,17.368,14,17.368,14H20H22.632 M23.631,12.97L22.632,13H20h-2.632h-1v1v0c-0.002,0-0.092,0.994-1.462,2.364c-0.956,0.955-5.07,3.234-8.073,4.897 c-2.267,1.255-4.224,2.34-4.979,2.906c-1.081,0.811-1.753,2.007-1.843,3.283c-0.074,1.039,0.239,1.991,0.859,2.61l0.599,0.599 l0.689-0.492c0.57-0.407,1.339-1.015,2.23-1.718c3.816-3.014,10.92-8.624,15.613-8.624c4.693,0,11.796,5.61,15.612,8.624 c0.891,0.703,1.66,1.311,2.23,1.718l0.689,0.492l0.599-0.599c0.62-0.62,0.933-1.571,0.859-2.61 c-0.091-1.276-0.763-2.473-1.843-3.283c-0.755-0.566-2.713-1.65-4.979-2.906c-3.004-1.664-7.118-3.942-8.073-4.897 c-1.383-1.383-1.462-2.384-1.462-2.394V12.97L23.631,12.97z"></path></svg>