<?xml version="1.0" encoding="utf-8"?>
<!-- Generator: Adobe Illustrator 23.1.1, SVG Export Plug-In . SVG Version: 6.00 Build 0)  -->
<svg version="1.1" id="katman_1" xmlns="http://www.w3.org/2000/svg" xmlns:xlink="http://www.w3.org/1999/xlink" x="0px" y="0px"
	 viewBox="0 0 60 60" style="enable-background:new 0 0 60 60;" xml:space="preserve">
<style type="text/css">
	.st0{fill:none;stroke:#C29653;stroke-linecap:round;stroke-linejoin:round;stroke-miterlimit:10;}
	.st1{fill:none;stroke:#8BB7F0;stroke-linecap:round;stroke-linejoin:round;stroke-miterlimit:10;}
	.st2{fill:none;stroke:#C29653;stroke-linecap:round;stroke-miterlimit:10;}
	.st3{fill:#C2E8FF;}
	.st4{fill:#788B9C;}
</style>
<path class="st0" d="M13.6,25.5c-1.6,3-2.4,6.4-2.4,9.9 M28,11.6c-4.9,0.9-9.3,3.2-12.8,6.7c-0.4,0.4-2.7,2.6-4.3,5.8
	c-1.8,3.7-2.7,7.4-2.7,11.2"/>
<path class="st0" d="M18.7,28.7c-1,2-1.5,4.3-1.5,6.6 M47.3,35.3c0-0.1-0.1-0.3-0.1-0.6l-0.1-1.2c-0.9-7.5-7.2-13.3-14.9-13.3l0,0h0
	c-4.1,0-7.9,1.6-10.7,4.5"/>
<path class="st0" d="M37,17.9c4.9,1.4,8.9,4.7,11.2,9.1c1.1,2,1.7,4.3,2,6.7"/>
<path class="st0" d="M52.5,29.8c-0.4-1.4-0.9-2.9-1.6-4.2c-2.7-5.2-7.4-9-13-10.6 M14.2,34.9c0.1-3.8,1.3-7.5,3.6-10.5
	c0.5-0.6,1-1.2,1.6-1.8c3.4-3.4,7.9-5.3,12.8-5.4"/>
<path class="st1" d="M14.6,39.6c0.3,2.2,1,5.1,2.2,8.2 M11.2,35.4c0,1.3,0.2,4.9,1.4,9.4"/>
<path class="st0" d="M45.8,19.2c-3.7-3.1-8.4-5-13.6-5l0,0h0h0c-5.7,0-11,2.3-14.9,6.3"/>
<path class="st1" d="M8.2,35.4c0,1,0.1,3,0.5,5.8"/>
<path class="st0" d="M47.7,16.9c-4.3-3.7-9.9-5.7-15.5-5.7l0,0h0h0"/>
<path class="st2" d="M8.2,22.8c1.7-3.5,4.2-6,4.9-6.7c5-5.1,11.8-7.9,19-7.9c6.4,0,12.6,2.3,17.5,6.4"/>
<path class="st1" d="M42.7,49.7c-2.1-0.5-3.7-1.4-5.1-2.5 M31.6,44.2c1.4,2.8,3.7,5.6,7.4,7.3"/>
<path class="st0" d="M35.2,35.1c0-1.6-1.4-3-3-3l0,0h0c-0.8,0-1.6,0.3-2.1,0.9c-0.6,0.6-0.9,1.3-0.9,2.1"/>
<path class="st1" d="M44.2,34.9c0.1,2.1,1,3.2,2.4,3.3c1.4,0.1,2.6,0.6,3.7,1.2"/>
<path class="st0" d="M32.2,29.2L32.2,29.2L32.2,29.2c-1.6,0-3.1,0.6-4.3,1.8s-1.7,2.7-1.7,4.3 M38.2,35.1c0-1.3-0.5-2.6-1.2-3.6
	 M23.6,32.8c-0.2,0.8-0.3,1.6-0.3,2.4"/>
<path class="st0" d="M41.2,35.1c-0.1-4.9-4.1-8.9-9-8.9l0,0h0c-2.4,0-4.7,1-6.4,2.7"/>
<path class="st1" d="M47.2,41.2c-3.9,0-6-2-6-6.1 M22.5,45.8c0.7,1.7,1.6,3.4,2.6,5.1"/>
<path class="st0" d="M29.2,23.6c-2.1,0.5-4,1.6-5.5,3.2c-2.2,2.3-3.5,5.3-3.5,8.5 M38.2,24.7c-1.8-1-3.8-1.6-5.9-1.6l0,0 M44.2,35.1
	c0-2.1-0.6-4.1-1.6-5.8 M38.6,12.1c6.4,1.8,11.8,6.2,14.9,12.1"/>
<path class="st1" d="M17.2,35.3c0,3.4,1,9,3.7,14.5 M20.2,35.3c0,1.9,0.4,4.6,1.2,7.5 M26.2,35.2c0,1.7,0.4,4.2,1.3,6.9
	c1.2,3.5,3.3,7.3,7,10.1 M23.2,35.2c0,3.9,1.6,11.4,6.7,17 M35.7,45.2c-3.4-4.3-3.4-10-3.4-10s0,0,0,0 M29.2,35.2
	c0,0.1,0.1,2.7,1.1,6 M45.8,47.2c-9.7-1-10.5-10.9-10.5-12.1 M47.2,44.2c-8.3,0-9-6.9-9-9.1 M52,37c-1.4-0.9-3-1.4-4.7-1.7"/>
<path class="st3" d="M3,35h54v1H3V35z"/>
<path class="st4" d="M4,12V4h8V3H3v9H4z M56,12h1V3h-9v1h8V12z M56,48v8h-8v1h9v-9H56z M4,48H3v9h9v-1H4V48z"/>
</svg>
