<?xml version="1.0" encoding="utf-8"?>
<!-- Generator: Adobe Illustrator 22.1.0, SVG Export Plug-In . SVG Version: 6.00 Build 0)  -->
<svg version="1.2" baseProfile="tiny" id="Layer_1" xmlns="http://www.w3.org/2000/svg" xmlns:xlink="http://www.w3.org/1999/xlink"
	 x="0px" y="0px" viewBox="0 0 16 16" xml:space="preserve">
<path d="M6,9.2C5.8,9,5.5,9,5.3,9.2l-5.2,4.6c-0.2,0.2-0.2,0.5,0,0.6l1.4,1.4c0.2,0.2,0.5,0.2,0.6,0l4.6-5.2c0.2-0.2,0.2-0.5,0-0.7
	L6,9.2z"/>
<path d="M12,5.2c0,0,0.4,0.3,0.6,0.2C13,5.2,13.8,6,14.1,6.2l0,0l-0.2,0.2c-0.2,0.2-0.2,0.6,0,0.7c0.2,0.2,0.5,0.2,0.7,0l1.2-1.2
	c0.2-0.2,0.2-0.6,0-0.7c-0.2-0.2-0.5-0.2-0.7,0l-0.2,0.2c-0.2-0.3-0.5-0.7-0.4-0.7c0.2-0.6-1-2-1-2c-2.8-2.9-4.7-2.8-5.6-2.5
	C7.5,0.3,7.6,0.4,8,0.5c2.7,0.5,3.1,2.1,2.6,2.8c-0.2,0.3,0.1,0.6,0.1,0.6l0.1,0.1L6.2,8.6c0.1,0.1,0.1,0.1,0.2,0.2l0.8,0.8
	c0.1,0.1,0.1,0.1,0.2,0.2l4.5-4.7L12,5.2z"/>
</svg>
