<?xml version="1.0" encoding="utf-8"?>
<!-- Generator: Adobe Illustrator 22.1.0, SVG Export Plug-In . SVG Version: 6.00 Build 0)  -->
<svg version="1.2" baseProfile="tiny" id="Layer_1" xmlns="http://www.w3.org/2000/svg" xmlns:xlink="http://www.w3.org/1999/xlink"
	 x="0px" y="0px" viewBox="0 0 16 16" xml:space="preserve">
<rect x="7.5" y="7.5" width="6.5" height="1"/>
<rect x="3.3" y="10" transform="matrix(0.5 -0.866 0.866 0.5 -5.7898 10.9169)" width="6.5" height="1"/>
<polygon points="4.9,3.2 5.8,2.8 8.5,7.8 7.7,8.4 "/>
<ellipse cx="7.9" cy="7.9" rx="1" ry="1"/>
<path d="M15.5,7.3h-0.1c-0.2,0-0.9,0-1.1-0.2c-0.1-0.2-0.1-0.4-0.1-0.7c0.1-0.2,0.8-0.6,0.9-0.7l0.1-0.1c0.3-0.2,0.4-0.5,0.4-0.8
	c-0.1-0.3-0.5-0.4-0.8-0.3h-0.1c-0.2,0.1-0.9,0.5-1.1,0.3c-0.1-0.2-0.2-0.4-0.4-0.7c0.1-0.3,0.4-0.8,0.6-1l0.1-0.1
	c0.2-0.2,0.2-0.6,0-0.8c-0.2-0.2-0.6-0.2-0.9,0l-0.1,0.1c-0.2,0.2-0.6,0.5-1,0.5c-0.2-0.2-0.6-0.4-0.9-0.5c0-0.2,0.1-0.6,0.3-1
	l0.1-0.1c0.2-0.4,0-0.6-0.4-0.8c-0.3-0.2-0.6,0-0.8,0.3l0,0.1c-0.1,0.2-0.2,0.6-0.6,1C9.3,1.9,9,1.8,8.7,1.8
	C8.6,1.5,8.6,0.9,8.6,0.6v0C8.6,0.1,8.3,0,8,0C7.7,0,7.5,0.1,7.4,0.6v0.1C7.4,1,7.5,1.8,7,1.8c-0.2,0-0.3,0-0.5,0.1c0,0,0,0-0.1,0
	C6.1,1.8,5.9,1.3,5.8,1L5.7,0.9C5.4,0.4,5.2,0.5,4.9,0.6S4.4,0.8,4.6,1.2l0.1,0.2C4.8,1.7,5,2.3,4.9,2.6C4.7,2.7,4.5,2.8,4.3,3
	C4,3,3.5,2.6,3.2,2.4L3.2,2.3C2.9,2,2.5,2,2.3,2.3C2,2.6,2,3,2.3,3.2l0.1,0.1C2.6,3.5,3,4.1,3,4.3C2.9,4.5,2.8,4.6,2.7,4.8v0.1
	C2.5,5.1,1.8,4.8,1.5,4.7L1.4,4.6C1,4.5,0.6,4.6,0.6,4.9c-0.2,0.3,0,0.7,0.3,0.8L1,5.8c0.2,0.1,0.9,0.2,1,0.6c0,0.2-0.1,0.4-0.1,0.7
	C1.8,7.4,1,7.4,0.7,7.4H0.6C0.3,7.4,0,7.7,0,8s0.3,0.6,0.6,0.6h0.1c0.3,0,1-0.1,1.1,0.2c0,0.2,0.1,0.6,0.1,0.8c0,0.2-0.7,0.5-1,0.6
	l-0.1,0.1c-0.3,0.1-0.4,0.5-0.4,0.8c0.1,0.3,0.5,0.4,0.8,0.4l0.2-0.1c0.2-0.1,0.9-0.5,1-0.2l0,0c0.1,0.2,0.2,0.4,0.3,0.6
	c0,0.4-0.4,0.8-0.6,1.1l-0.1,0.1c-0.2,0.2-0.2,0.6,0,0.8s0.7,0.2,0.8,0l0.1-0.1c0.2-0.2,0.7-0.6,0.9-0.6c0.2,0.2,0.6,0.4,0.8,0.6
	c0.1,0.2-0.3,0.8-0.4,1.1l0,0.1c-0.2,0.3,0,0.6,0.3,0.8c0.3,0.1,0.7,0,0.8-0.4l0.1-0.1c0.1-0.2,0.6-1,0.8-0.9
	c0.2,0.1,0.3,0.1,0.5,0.1c0.2,0.1,0.2,0.9,0.2,1.1v0.1c0,0.4,0.3,0.6,0.6,0.6c0.3,0,0.6-0.3,0.6-0.6v-0.1c0-0.3,0.1-1,0.3-1.1
	C9,14.1,9.2,14.1,9.4,14c0.2,0.1,0.6,0.7,0.8,0.9l0.1,0.1c0.1,0.3,0.5,0.4,0.8,0.4c0.3-0.1,0.4-0.5,0.4-0.8v-0.1
	c-0.1-0.2-0.2-0.8-0.2-1.2c0.2-0.1,0.4-0.2,0.6-0.4c0.2,0,0.6,0.4,0.9,0.6l0.1,0.1c0.2,0.2,0.6,0.2,0.9,0c0.2-0.2,0.2-0.6,0-0.9
	l-0.1-0.1c-0.2-0.2-0.5-0.6-0.5-0.9c0.1-0.2,0.4-0.6,0.6-0.9c0.2-0.1,0.7,0.1,0.9,0.1l0.1,0.1c0.6,0.1,0.8,0.1,0.9-0.2
	s0.1-0.7-0.4-0.9l-0.1-0.1c-0.2-0.1-0.6-0.2-0.7-0.5c0.1-0.2,0.1-0.6,0.1-0.9c0.2-0.2,0.9-0.2,1.1-0.2h0c0.3,0,0.4-0.1,0.5-0.6
	C16,7.5,15.8,7.4,15.5,7.3z M13.1,8.1c0,2.8-2.3,5.2-5.2,5.2s-5.1-2.3-5.1-5.2s2.3-5.2,5.2-5.2S13.1,5.2,13.1,8.1z"/>
</svg>
