<?xml version="1.0" encoding="utf-8"?>
<!-- Generator: Adobe Illustrator 22.1.0, SVG Export Plug-In . SVG Version: 6.00 Build 0)  -->
<svg version="1.2" baseProfile="tiny" id="katman_1"
	 xmlns="http://www.w3.org/2000/svg" xmlns:xlink="http://www.w3.org/1999/xlink" x="0px" y="0px" viewBox="0 0 16 16"
	 xml:space="preserve">
<path fill="#927DB2" d="M14.9,7.4h-1.1c0,1.5-0.8,4.5-4.6,5.1L8.9,7H11V6H8.8L8.7,3.2H7.3L7.2,6H5v1h2.1l-0.3,5.5
	C3.1,12,2.3,9,2.3,7.4H1.1c0,3.2,1.3,6.8,5.8,7.4L8,16l1.1-1.2C13.5,14.3,14.9,10.6,14.9,7.4z"/>
<path fill="#6C5E7F" d="M8,1c0.6,0,1,0.4,1,1S8.6,3,8,3S7,2.6,7,2S7.4,1,8,1 M8,0C6.9,0,6,0.9,6,2s0.9,2,2,2s2-0.9,2-2S9.1,0,8,0
	L8,0z"/>
<path fill="#6C5E7F" d="M1.8,6c0,0,1.8,1.2,1.8,3C2.5,9,1.8,8.7,1.8,8.7S1.2,9,0,9C0,7.2,1.8,6,1.8,6z M14.2,6c0,0-1.8,1.2-1.8,3
	c1.1,0,1.8-0.3,1.8-0.3S14.8,9,16,9C16,7.2,14.2,6,14.2,6z"/>
</svg>
