<svg xmlns="http://www.w3.org/2000/svg" viewBox="0 0 16 16"><path fill="#f5ce85" d="M4.286,15.5c-2.087,0-3.786-1.698-3.786-3.786c0-0.417,0.043-0.817,0.131-1.214H5.5v4.899 C5.134,15.465,4.721,15.5,4.286,15.5z"></path><path fill="#c29653" d="M5,11v3.965C4.774,14.988,4.535,15,4.286,15C2.474,15,1,13.526,1,11.714 c0-0.243,0.016-0.48,0.049-0.714H5 M6,10H0.243C0.088,10.535,0,11.099,0,11.714C0,14.081,1.919,16,4.286,16 C4.893,16,5.49,15.937,6,15.8V10L6,10z"></path><path fill="#839cb2" d="M4.72 10.013L8.34 6.652 14.981 0.688 15.312 1.019 9.342 7.666 5.987 11.28z"></path><path fill="#66798f" d="M11.629,4.371L8.981,7.32l-3.008,3.24l-0.532-0.532L8.668,7.03L11.629,4.371 M15,0L8,6.286L4,10l2,2 l3.714-4L16,1L15,0L15,0z"></path><g><path fill="#dcd5f2" d="M4.72 10.013L7.987 6.98 9.02 8.013 5.987 11.28z"></path><path fill="#8b75a1" d="M7.974,7.674l0.351,0.351l-2.352,2.533l-0.532-0.532L7.974,7.674 M8,6.286L4,10l2,2l3.714-4L8,6.286 L8,6.286z"></path></g><path fill="#c29653" d="M1 12L3 12 1 13z"></path></svg>