<?xml version="1.0" encoding="utf-8"?>
<!-- Generator: Adobe Illustrator 23.1.1, SVG Export Plug-In . SVG Version: 6.00 Build 0)  -->
<svg version="1.1" id="katman_1" xmlns="http://www.w3.org/2000/svg" xmlns:xlink="http://www.w3.org/1999/xlink" x="0px" y="0px"
	 viewBox="0 0 16 16" style="enable-background:new 0 0 16 16;" xml:space="preserve">
<style type="text/css">
	.st0{fill:#DCD5F2;}
	.st1{fill:#8B75A1;}
	.st2{fill:#A59DD1;}
</style>
<path class="st0" d="M2.9,14.4c0.3-0.5,0.6-1.1,0.9-1.7L4,12.4l-0.3-0.3c-1.4-1-2.2-2.5-2.2-4.1c0-3,2.9-5.5,6.5-5.5S14.5,5,14.5,8
	s-2.9,5.5-6.5,5.5c-0.5,0-1,0-1.5-0.1l-0.2,0l-0.1,0.1C5.2,13.9,3.9,14.3,2.9,14.4z"/>
<path class="st1" d="M8,3c3.3,0,6,2.2,6,5s-2.7,5-6,5c-0.4,0-0.9,0-1.4-0.1l-0.3-0.1L6,12.9c-0.7,0.3-1.4,0.6-2.1,0.8
	C4,13.5,4.1,13.2,4.3,13l0.4-0.8L4,11.7c-1.3-1-2-2.3-2-3.7C2,5.2,4.7,3,8,3 M8,2C4.1,2,1,4.7,1,8c0,1.8,0.9,3.4,2.4,4.5
	c-0.5,0.9-1,1.9-1.4,2.5c1.2,0,3-0.5,4.4-1.2C6.9,13.9,7.5,14,8,14c3.9,0,7-2.7,7-6S11.9,2,8,2L8,2z"/>
<path class="st2" d="M4,6h8v1H4V6z"/>
<path class="st1" d="M12,6H4v1h8V6z"/>
<g>
	<path class="st2" d="M4,8h5v1H4V8z"/>
	<path class="st1" d="M9,8H4v1h5V8z"/>
</g>
</svg>
