<svg xmlns="http://www.w3.org/2000/svg" viewBox="0 0 16 16"><path fill="#bdb2de" d="M12.548,14.5c-0.395,0-0.781-0.16-1.061-0.439l-7.76-7.76l1.573-1.573l9.771,9.772H12.548z"></path><path fill="#8b75a1" d="M5.301,5.435L13.866,14h-1.317c-0.267,0-0.518-0.104-0.707-0.293L4.435,6.301L5.301,5.435 M5.301,4.021l-2.28,2.28l8.113,8.113C11.509,14.789,12.018,15,12.548,15H16v-0.28L5.301,4.021L5.301,4.021z"></path><path fill="#8b75a1" d="M8.86,12.14l2.28-2.28l-3-3C7.355,7.645,6.487,8.513,5.86,9.14L8.86,12.14z"></path><path fill="#c74343" d="M3,1C1.343,1,0,2.343,0,4s1.343,3,3,3s3-1.343,3-3S4.657,1,3,1z M3,5.5C2.172,5.5,1.5,4.828,1.5,4 c0-0.828,0.672-1.5,1.5-1.5S4.5,3.172,4.5,4C4.5,4.828,3.828,5.5,3,5.5z"></path><path fill="#dcd5f2" d="M3.728,10.699l7.76-7.76C11.767,2.66,12.153,2.5,12.548,2.5h2.524l-9.771,9.772L3.728,10.699z"></path><path fill="#8b75a1" d="M13.866,3l-8.565,8.565l-0.866-0.866l7.406-7.406C12.03,3.104,12.281,3,12.548,3H13.866 M16,2 h-3.452c-0.53,0-1.039,0.211-1.414,0.586l-8.113,8.113l2.28,2.28L16,2.28V2L16,2z"></path><g><path fill="#c74343" d="M6,13c0-1.657-1.343-3-3-3s-3,1.343-3,3s1.343,3,3,3S6,14.657,6,13z M4.5,13 c0,0.828-0.672,1.5-1.5,1.5S1.5,13.828,1.5,13c0-0.828,0.672-1.5,1.5-1.5S4.5,12.172,4.5,13z"></path></g></svg>