<?xml version="1.0" encoding="utf-8"?>
<!-- Generator: Adobe Illustrator 22.1.0, SVG Export Plug-In . SVG Version: 6.00 Build 0)  -->
<svg version="1.2" baseProfile="tiny" id="katman_1"
	 xmlns="http://www.w3.org/2000/svg" xmlns:xlink="http://www.w3.org/1999/xlink" x="0px" y="0px" viewBox="0 0 16 16"
	 xml:space="preserve">
<path fill="#F78F8F" d="M4,4h10.5C14.8,4,15,4.2,15,4.5v7c0,0.3-0.2,0.5-0.5,0.5H4c-0.3,0-0.7-0.2-0.9-0.4L1.1,8l2-3.6
	C3.4,4.2,3.7,4,4,4z"/>
<path fill="#C74343" d="M3.8,3c-0.5,0-1,0.2-1.3,0.6L0.1,7.7C0,7.9,0,8.1,0.1,8.3l2.4,4.1C2.8,12.8,3.3,13,3.8,13h11.5
	c0.4,0,0.7-0.3,0.7-0.7V3.7C16,3.3,15.7,3,15.3,3H3.8z M4,4h10.5C14.8,4,15,4.2,15,4.5v7c0,0.3-0.2,0.5-0.5,0.5H4
	c-0.3,0-0.7-0.2-0.9-0.4L1.1,8l2-3.6C3.4,4.2,3.7,4,4,4z"/>
<polygon fill="#FFFFFF" points="7.3,5.6 6.6,6.3 8.3,8 6.6,9.6 7.3,10.3 9,8.7 10.7,10.3 11.4,9.6 9.7,8 11.4,6.3 10.7,5.6 9,7.3 
	"/>
</svg>
