<?xml version="1.0" encoding="utf-8"?>
<!-- Generator: Adobe Illustrator 23.1.1, SVG Export Plug-In . SVG Version: 6.00 Build 0)  -->
<svg version="1.1" id="katman_1" xmlns="http://www.w3.org/2000/svg" xmlns:xlink="http://www.w3.org/1999/xlink" x="0px" y="0px"
	 viewBox="0 0 16 16" style="enable-background:new 0 0 16 16;" xml:space="preserve">
<style type="text/css">
	.st0{fill:#BBDFBE;}
	.st1{fill:#609B77;}
	.st2{fill:#FFFFFF;}
</style>
<path class="st0" d="M8,0.5C3.9,0.5,0.5,3.9,0.5,8s3.4,7.5,7.5,7.5s7.5-3.4,7.5-7.5S12.1,0.5,8,0.5z"/>
<path class="st1" d="M8,1c3.9,0,7,3.1,7,7s-3.1,7-7,7s-7-3.1-7-7S4.1,1,8,1 M8,0C3.6,0,0,3.6,0,8s3.6,8,8,8s8-3.6,8-8S12.4,0,8,0
	L8,0z"/>
<path class="st1" d="M8,2C4.7,2,2,4.7,2,8s2.7,6,6,6s6-2.7,6-6S11.3,2,8,2z"/>
<path class="st2" d="M7.7,8.4C4.5,5.9,5.4,3,5.4,2.8l1,0.3c0,0.1-0.7,2.4,1.9,4.5L7.7,8.4z M10.6,13.2l-1-0.3l0.5,0.2L9.6,13
	c0-0.1,0.7-2.4-1.9-4.5l0.6-0.8C11.5,10.1,10.6,13,10.6,13.2z"/>
<path class="st2" d="M8.4,8.3L7.6,7.7c2.5-3.2,5.4-2.3,5.6-2.2l-0.3,1L13,5.9l-0.1,0.5C12.8,6.4,10.4,5.7,8.4,8.3z"/>
<path class="st2" d="M3.9,10.7c-0.6,0-1.1-0.1-1.1-0.1l0.3-1c0.1,0,2.4,0.7,4.5-1.9l0.8,0.6C6.8,10.3,5.1,10.7,3.9,10.7z"/>
<path class="st2" d="M7.5,8.1C7,4.1,9.7,2.6,9.8,2.5l0.5,0.9L10.1,3l0.2,0.4c-0.1,0-2.2,1.2-1.8,4.5L7.5,8.1z M6.2,13.5l-0.5-0.9
	L5.9,13l-0.2-0.4c0.1,0,2.2-1.2,1.8-4.5l1-0.1C9,11.9,6.3,13.4,6.2,13.5z"/>
<path class="st2" d="M12.6,10.3c0-0.1-1.2-2.2-4.5-1.8L8,7.5c4-0.5,5.5,2.2,5.5,2.3L12.6,10.3l0.4-0.2L12.6,10.3z M7.1,8.6
	c-3.3,0-4.5-2.3-4.6-2.4l0.9-0.5L3,5.9l0.4-0.2c0,0.1,1.2,2.2,4.5,1.8l0.1,1C7.7,8.5,7.4,8.6,7.1,8.6z"/>
<g>
	<path class="st0" d="M8,6.5C7.2,6.5,6.5,7.2,6.5,8S7.2,9.5,8,9.5S9.5,8.8,9.5,8S8.8,6.5,8,6.5z"/>
	<path class="st1" d="M8,7c0.6,0,1,0.4,1,1S8.6,9,8,9S7,8.6,7,8S7.4,7,8,7 M8,6C6.9,6,6,6.9,6,8s0.9,2,2,2s2-0.9,2-2S9.1,6,8,6L8,6z
		"/>
</g>
</svg>
