<svg xmlns="http://www.w3.org/2000/svg" viewBox="0 0 16 16"><path fill="#f78f8f" d="M8 0.5A7.5 7.5 0 1 0 8 15.5A7.5 7.5 0 1 0 8 0.5Z"></path><path fill="#c74343" d="M8,1c3.9,0,7,3.1,7,7s-3.1,7-7,7s-7-3.1-7-7S4.1,1,8,1 M8,0C3.6,0,0,3.6,0,8s3.6,8,8,8s8-3.6,8-8 S12.4,0,8,0L8,0z"></path><path fill="#c74343" d="M8 2A6 6 0 1 0 8 14A6 6 0 1 0 8 2Z"></path><path fill="#ffeea3" d="M7.7 8.4C4.5 5.9 5.4 3 5.4 2.8l1 .3c0 .1-.7 2.4 1.9 4.5L7.7 8.4zM10.6 13.2l-1-.3.5.2-.5-.1c0-.1.7-2.4-1.9-4.5l.6-.8C11.5 10.1 10.6 13 10.6 13.2z"></path><path fill="#ffeea3" d="M8.4,8.3L7.6,7.7c2.5-3.2,5.4-2.3,5.6-2.2l-0.3,1L13,5.9l-0.1,0.5C12.8,6.4,10.4,5.7,8.4,8.3z"></path><path fill="#ffeea3" d="M3.9,10.7c-0.6,0-1.1-0.1-1.1-0.1l0.3-1c0.1,0,2.4,0.7,4.5-1.9l0.8,0.6C6.8,10.3,5.1,10.7,3.9,10.7z"></path><path fill="#ffeea3" d="M7.5 8.1C7 4.1 9.7 2.6 9.8 2.5l.5.9L10.1 3l.2.4c-.1 0-2.2 1.2-1.8 4.5L7.5 8.1zM6.2 13.5l-.5-.9L5.9 13l-.2-.4c.1 0 2.2-1.2 1.8-4.5l1-.1C9 11.9 6.3 13.4 6.2 13.5z"></path><path fill="#ffeea3" d="M12.6 10.3c0-.1-1.2-2.2-4.5-1.8l-.1-1c4-.5 5.5 2.2 5.5 2.3L12.6 10.3l.4-.2L12.6 10.3zM7.1 8.6c-3.3 0-4.5-2.3-4.6-2.4l.9-.5L3 5.9l.4-.2c0 .1 1.2 2.2 4.5 1.8l.1 1C7.7 8.5 7.4 8.6 7.1 8.6z"></path><g><path fill="#f78f8f" d="M8 6.5A1.5 1.5 0 1 0 8 9.5A1.5 1.5 0 1 0 8 6.5Z"></path><path fill="#c74343" d="M8,7c0.6,0,1,0.4,1,1S8.6,9,8,9S7,8.6,7,8S7.4,7,8,7 M8,6C6.9,6,6,6.9,6,8s0.9,2,2,2s2-0.9,2-2 S9.1,6,8,6L8,6z"></path></g></svg>