<?xml version="1.0" encoding="utf-8"?>
<!-- Generator: Adobe Illustrator 22.1.0, SVG Export Plug-In . SVG Version: 6.00 Build 0)  -->
<svg version="1.2" baseProfile="tiny" id="katman_1"
	 xmlns="http://www.w3.org/2000/svg" xmlns:xlink="http://www.w3.org/1999/xlink" x="0px" y="0px" viewBox="0 0 16 16"
	 xml:space="preserve">
<path fill="#FFF9DE" d="M1.4,2.4h13.2v10.2H1.4V2.4z"/>
<path fill="#BA9B48" d="M14.2,2.8v9.5H1.8V2.8H14.2 M15,2H1v11h14V2L15,2z"/>
<path fill="#FFF9DE" d="M4,2v11H3V2H4z"/>
<path fill="#FFF9DE" d="M7,2v11H6V2H7z"/>
<path fill="#FFF9DE" d="M10,2v11H9V2H10z"/>
<path fill="#FFF9DE" d="M13,2v11h-1V2H13z"/>
<path fill="#FFF9DE" d="M15,5H1V4h14V5z"/>
<path fill="#FFF9DE" d="M15,8H1V7h14V8z"/>
<path fill="#FFF9DE" d="M15,11H1v-1h14V11z"/>
<path fill="#C29653" d="M8.7,9.9h-1L7.3,8.5H5.1L4.7,9.9h-1l2-5.4h1L8.7,9.9z M7,7.8L6.3,5.7c0-0.1,0-0.2-0.1-0.3h0
	c0,0.1,0,0.3-0.1,0.3L5.4,7.8H7z M12.3,9.9h-0.8V9.3h0c-0.3,0.5-0.7,0.7-1.2,0.7c-0.4,0-0.7-0.1-0.9-0.3C9.2,9.5,9.1,9.2,9.1,8.9
	c0-0.7,0.4-1.1,1.2-1.3l1.1-0.2c0-0.5-0.3-0.8-0.8-0.8c-0.5,0-0.9,0.2-1.2,0.5V6.3C9.8,6.1,10.3,6,10.8,6c1,0,1.4,0.5,1.4,1.4V9.9z
	 M11.4,8l-0.8,0.1c-0.2,0-0.4,0.1-0.6,0.2C10,8.4,9.9,8.5,9.9,8.8c0,0.2,0.1,0.3,0.2,0.4c0.1,0.1,0.3,0.2,0.5,0.2
	c0.3,0,0.5-0.1,0.7-0.3c0.2-0.2,0.3-0.4,0.3-0.7V8z"/>
<path fill="#F2FAFF" d="M9.7,15.5c0,0-0.1,0-0.2-0.1l-2.7-2.7c-0.1-0.1-0.1-0.1-0.1-0.2c0,0,0-0.1,0.1-0.2l5.6-5.6
	c0.1-0.1,0.1-0.1,0.2-0.1s0.1,0,0.2,0.1l2.7,2.7c0.1,0.1,0.1,0.1,0.1,0.2s0,0.1-0.1,0.2l-5.6,5.6C9.8,15.5,9.7,15.5,9.7,15.5z"/>
<path fill="#788B9C" d="M12.6,7.4l2.3,2.3l-5.2,5.2l-2.3-2.3L12.6,7.4 M12.6,6.3c-0.2,0-0.4,0.1-0.5,0.2l-5.6,5.6
	c-0.3,0.3-0.3,0.8,0,1l2.7,2.7C9.3,15.9,9.5,16,9.7,16s0.4-0.1,0.5-0.2l5.6-5.6c0.3-0.3,0.3-0.8,0-1l-2.7-2.7
	C13,6.4,12.8,6.3,12.6,6.3L12.6,6.3z"/>
<g>
	<path fill="#B0C1D4" d="M9.9,9.4l2.5-2.5c0.1-0.1,0.1-0.1,0.2-0.1s0.1,0,0.2,0.1l2.7,2.7c0.1,0.1,0.1,0.2,0,0.3l-2.5,2.5L9.9,9.4z"
		/>
	<path fill="#66798F" d="M12.6,7.4l2.3,2.3l-2,2l-2.3-2.3L12.6,7.4 M12.6,6.3c-0.2,0-0.4,0.1-0.5,0.2L9.2,9.4l3.7,3.7l2.9-2.9
		c0.3-0.3,0.3-0.8,0-1l-2.7-2.7C13,6.4,12.8,6.3,12.6,6.3L12.6,6.3z"/>
</g>
<path fill="#CAD5E3" d="M12.7,7.5C12.7,7.5,12.6,7.5,12.7,7.5c-0.1,0-0.2,0-0.2,0L12,8l2.3,2.3l0.5-0.5c0.1-0.1,0.1-0.1,0-0.2
	L12.7,7.5z"/>
</svg>
