<?xml version="1.0" encoding="utf-8"?>
<!-- Generator: Adobe Illustrator 22.1.0, SVG Export Plug-In . SVG Version: 6.00 Build 0)  -->
<svg version="1.2" baseProfile="tiny" id="katman_1"
	 xmlns="http://www.w3.org/2000/svg" xmlns:xlink="http://www.w3.org/1999/xlink" x="0px" y="0px" viewBox="0 0 16 16"
	 xml:space="preserve">
<path fill="#FFFFFF" d="M0.5,0.5h15v15h-15V0.5z"/>
<path fill="#788B9C" d="M15,1v14H1V1H15 M16,0H0v16h16V0L16,0z"/>
<path fill="#C8D1DB" d="M0.5,0.5h15v3h-15V0.5z"/>
<path fill="#788B9C" d="M15,1v2H1V1H15 M16,0H0v4h16V0L16,0z"/>
<path fill="#788B9C" d="M8,5h6v1H8V5z M8,7h6v1H8V7z M8,9h6v1H8V9z M8,11h6v1H8V11z M8,13h6v1H8V13z"/>
<g>
	<path fill="#DCD5F2" d="M2.5,5.5h4v8h-4V5.5z"/>
	<path fill="#8B75A1" d="M6,6v7H3V6H6 M7,5H2v9h5V5L7,5z"/>
</g>
</svg>
