<?xml version="1.0" encoding="utf-8"?>
<!-- Generator: Adobe Illustrator 23.1.1, SVG Export Plug-In . SVG Version: 6.00 Build 0)  -->
<svg version="1.1" id="katman_1" xmlns="http://www.w3.org/2000/svg" xmlns:xlink="http://www.w3.org/1999/xlink" x="0px" y="0px"
	 viewBox="0 0 16 16" style="enable-background:new 0 0 16 16;" xml:space="preserve">
<style type="text/css">
	.st0{fill:#DBB065;}
	.st1{fill:#967A44;}
	.st2{fill:#F5CE85;}
	.st3{fill:#E5BD7F;}
	.st4{fill:#FFEEA3;}
	.st5{fill:#BA9B48;}
</style>
<path class="st0" d="M0.5,13.5v-13h4.293l2,2H14.5v11H0.5z"/>
<path class="st1" d="M4.586,1l1.707,1.707L6.586,3H7h7v10H1V1H4.586 M5,0H0v14h15V2H7L5,0L5,0z"/>
<g>
	<path class="st2" d="M0.566,13.5l0.875-7h4.677l2-1h7.323l-0.889,8H0.566z"/>
	<path class="st3" d="M14.883,6l-0.778,7H1.133l0.75-6H6h0.236l0.211-0.106L8.236,6H14.883 M16,5H8L6,6H1l-1,8h15L16,5L16,5z"/>
</g>
<g>
	<polygon class="st1" points="7.82489,13.52972 6.78174,13 1.133,13 1.883,7 6,7 6.23602,7 6.44702,6.89398 8.23602,6 14.883,6 
		14.5119,9.33899 15.46417,9.82257 16,5 8,5 6,6 1,6 0,14 7.91119,14 	"/>
</g>
<g>
	<path class="st4" d="M11.183,14.514l-1.126,0.159l-0.196-1.119l-1.004-0.533L9.356,12l-0.499-1.021l1.004-0.533l0.196-1.119
		l1.126,0.159L12,8.696l0.817,0.79l1.125-0.159l0.197,1.119l1.004,0.533L14.643,12l0.5,1.021l-1.004,0.533l-0.197,1.119
		l-1.125-0.159L12,15.304L11.183,14.514z"/>
	<path class="st5" d="M12,9.391l0.294,0.284l0.351,0.34l0.484-0.069l0.404-0.057l0.071,0.402l0.084,0.481l0.432,0.229l0.361,0.191
		l-0.179,0.367L14.087,12l0.215,0.439l0.18,0.367l-0.361,0.191l-0.432,0.229l-0.084,0.481l-0.071,0.402l-0.404-0.057l-0.484-0.069
		l-0.351,0.34l-0.293,0.284l-0.294-0.284l-0.351-0.34l-0.484,0.069l-0.404,0.057l-0.071-0.402l-0.084-0.481l-0.432-0.229
		l-0.363-0.191l0.179-0.367L9.913,12l-0.215-0.439l-0.18-0.367l0.361-0.191l0.432-0.229l0.084-0.481l0.071-0.402l0.404,0.057
		l0.484,0.069l0.351-0.34L12,9.391 M12,8l-0.989,0.956L9.649,8.764l-0.238,1.355l-1.216,0.645L8.8,12l-0.604,1.236l1.216,0.645
		l0.238,1.355l1.362-0.193L12,16l0.989-0.956l1.362,0.193l0.238-1.355l1.216-0.645L15.2,12l0.604-1.236l-1.216-0.645L14.35,8.764
		l-1.361,0.193L12,8L12,8z"/>
</g>
</svg>
