<?xml version="1.0" encoding="utf-8"?>
<!-- Generator: Adobe Illustrator 22.1.0, SVG Export Plug-In . SVG Version: 6.00 Build 0)  -->
<svg version="1.1" id="katman_1" xmlns="http://www.w3.org/2000/svg" xmlns:xlink="http://www.w3.org/1999/xlink" x="0px" y="0px"
	 viewBox="0 0 16 16" style="enable-background:new 0 0 16 16;" xml:space="preserve">
<style type="text/css">
	.st0{fill:#BAE0BD;}
	.st1{fill:#5E9C76;}
</style>
<path class="st0" d="M8.5,13.5c2.8,0,5-2.2,5-5c0-1-0.3-2-1-2.9l-0.3-0.5l-0.7,0.7V2.5h3.3l-1.2,1.2L13.9,4c1,1.3,1.6,2.8,1.6,4.5
	c0,3.9-3.1,7-7,7V13.5z"/>
<path class="st1" d="M13.6,3L13.6,3l-0.7,0.7l0.6,0.7C14.5,5.5,15,7,15,8.5c0,3.4-2.6,6.2-6,6.5v-1c2.8-0.3,5-2.6,5-5.5
	c0-1.1-0.4-2.2-1.1-3.2l-0.7-0.9L12,4.6V3H13.6 M16,2h-5v5l1.1-1.1C12.7,6.6,13,7.5,13,8.5C13,11,11,13,8.5,13c-0.2,0-0.3,0-0.5-0.1
	v3c0.2,0,0.3,0,0.5,0c4.1,0,7.5-3.4,7.5-7.5c0-1.8-0.6-3.5-1.7-4.8L16,2L16,2z"/>
<g>
	<path class="st0" d="M1.2,13.5l1.2-1.2L2.1,12C1,10.7,0.5,9.2,0.5,7.5c0-3.9,3.1-7,7-7v2c-2.8,0-5,2.2-5,5c0,1,0.3,2,1,2.9l0.3,0.5
		l0.7-0.7v3.3H1.2z"/>
	<path class="st1" d="M7,1v1C4.2,2.3,2,4.6,2,7.5c0,1.1,0.4,2.2,1.1,3.2l0.7,0.9L4,11.4V13H2.4l0,0L3,12.4l-0.6-0.7
		C1.5,10.4,1,9,1,7.5C1,4.1,3.6,1.3,7,1 M7.5,0C3.4,0,0,3.4,0,7.5c0,1.8,0.7,3.5,1.7,4.8L0,14h5V9l-1.1,1.1C3.3,9.4,3,8.5,3,7.5
		C3,5,5,3,7.5,3C7.7,3,7.8,3,8,3V0C7.8,0,7.7,0,7.5,0L7.5,0z"/>
</g>
</svg>
