<?xml version="1.0" encoding="utf-8"?>
<!-- Generator: Adobe Illustrator 23.1.1, SVG Export Plug-In . SVG Version: 6.00 Build 0)  -->
<svg version="1.1" id="katman_1" xmlns="http://www.w3.org/2000/svg" xmlns:xlink="http://www.w3.org/1999/xlink" x="0px" y="0px"
	 viewBox="0 0 16 16" style="enable-background:new 0 0 16 16;" xml:space="preserve">
<style type="text/css">
	.st0{fill:#F5CE85;}
	.st1{fill:#967A44;}
	.st2{fill:#36404D;}
	.st3{fill:#FFEEA3;}
	.st4{fill:#BA9B48;}
	.st5{fill:#F78F8F;}
	.st6{fill:#C74343;}
</style>
<g>
	<path class="st0" d="M4.4,10.3l0.7-0.7l1.5,1.3l-0.8,0.8l-2.1,0.7L4.4,10.3z"/>
	<path class="st1" d="M5.1,10.1L6,10.9l-0.5,0.5l-1.3,0.5l0.5-1.4L5.1,10.1 M5.1,9.1l-1,1l-1,2.9L6,12l1.2-1.2L5.1,9.1L5.1,9.1z"/>
</g>
<g>
	<path class="st2" d="M3.5,11.6L3,13l1.4-0.5L3.5,11.6z"/>
</g>
<g>
	<path class="st3" d="M6.1,11.3c-0.1-0.1-0.2-0.2-0.4-0.2c-0.1-0.4-0.4-0.6-0.7-0.7c-0.1-0.2-0.2-0.3-0.3-0.4l5.6-5.6l1.4,1.3
		L6.1,11.3z"/>
	<path class="st4" d="M10.4,4.9l0.8,0.8l-5.1,5.1c0,0-0.1,0-0.1-0.1c-0.1-0.3-0.4-0.5-0.7-0.7c0,0,0-0.1-0.1-0.1L10.4,4.9 M10.4,3.8
		l-6.3,6.3l0,0c0,0,0.6,0,0.6,0.6c0,0,0.7,0,0.7,0.7C6.1,11.4,6,12,6,12l6.3-6.3L10.4,3.8L10.4,3.8z"/>
</g>
<g>
	<path class="st5" d="M10.2,4.7l0.9-0.9c0.2-0.2,0.4-0.2,0.6-0.2c0.2,0,0.4,0.1,0.6,0.2c0.3,0.3,0.3,0.9,0,1.2l-0.9,0.9L10.2,4.7z"
		/>
	<path class="st6" d="M11.7,4c0.1,0,0.2,0,0.2,0.1C12,4.2,12,4.3,12,4.3s0,0.2-0.1,0.2L11.4,5l-0.5-0.5l0.5-0.4
		C11.5,4,11.6,4,11.7,4 M11.7,3c-0.3,0-0.7,0.1-1,0.4L9.4,4.7l1.9,1.9l1.3-1.3c0.5-0.5,0.5-1.4,0-1.9C12.4,3.1,12,3,11.7,3L11.7,3z"
		/>
</g>
</svg>
