<?xml version="1.0" encoding="utf-8"?>
<!-- Generator: Adobe Illustrator 23.1.1, SVG Export Plug-In . SVG Version: 6.00 Build 0)  -->
<svg version="1.1" id="katman_1" xmlns="http://www.w3.org/2000/svg" xmlns:xlink="http://www.w3.org/1999/xlink" x="0px" y="0px"
	 viewBox="0 0 16 16" style="enable-background:new 0 0 16 16;" xml:space="preserve">
<style type="text/css">
	.st0{fill:#A3BFA3;}
	.st1{fill:#BADFBD;}
	.st2{fill:#5D9C76;}
	.st3{fill:#788B9C;}
</style>
<rect x="10" y="4" class="st0" width="1" height="8"/>
<rect x="1" y="5" class="st1" width="14" height="6"/>
<g>
	<polygon class="st2" points="10,11 1,11 1,5 10,5 10,4 0,4 0,12 10,12 	"/>
	<polygon class="st2" points="11,4 11,5 15,5 15,11 11,11 11,12 16,12 16,4 	"/>
</g>
<path class="st3" d="M12,3c1,0,0.94214-0.73578,2-1V1c-0.99823,0.12982-1,1-2,1h-1c-1,0-1.14514-0.96191-2-1v1
	c1.00659,0.36157,1,1,2,1v1v9c-1,0-0.94214,0.73578-2,1v1c0.99823-0.12982,1-1,2-1h1c1,0,1.14514,0.96185,2,1v-1
	c-1.00659-0.36157-1-1-2-1v-1V3z"/>
<g>
</g>
<g>
</g>
<g>
</g>
<g>
</g>
<g>
</g>
<g>
</g>
</svg>
