<?xml version="1.0" encoding="utf-8"?>
<!-- Generator: Adobe Illustrator 23.1.1, SVG Export Plug-In . SVG Version: 6.00 Build 0)  -->
<svg version="1.1" id="katman_1" xmlns="http://www.w3.org/2000/svg" xmlns:xlink="http://www.w3.org/1999/xlink" x="0px" y="0px"
	 viewBox="0 0 16 16" style="enable-background:new 0 0 16 16;" xml:space="preserve">
<style type="text/css">
	.st0{fill:#A59DD1;}
	.st1{fill:#8B75A1;}
	.st2{fill:#FFFFFF;}
</style>
<path class="st0" d="M0.5,11.6V4.4c0-2.1,1.7-3.9,3.9-3.9h7.3c2.1,0,3.9,1.7,3.9,3.9v7.3c0,2.1-1.7,3.9-3.9,3.9H4.4
	C2.2,15.5,0.5,13.8,0.5,11.6z"/>
<path class="st1" d="M15,4.1v7.8c0,1.7-1.4,3.1-3.1,3.1H4.1C2.4,15,1,13.6,1,11.9V4.1C1,2.4,2.4,1,4.1,1h7.8C13.6,1,15,2.4,15,4.1z
	 M3.9,16h8.3c2.1,0,3.9-1.7,3.9-3.9V3.9C16,1.7,14.3,0,12.1,0H3.9C1.7,0,0,1.7,0,3.9v8.3C0,14.3,1.7,16,3.9,16z"/>
<path class="st2" d="M8.6,8l-2.2,2.2c-0.4,0.4-0.4,1.1,0,1.5l0,0c0.4,0.4,1.1,0.4,1.5,0L11.5,8L7.8,4.3c-0.4-0.4-1.1-0.4-1.5,0l0,0
	c-0.4,0.4-0.4,1.1,0,1.5L8.6,8z"/>
</svg>
