<?xml version="1.0" encoding="utf-8"?>
<!-- Generator: Adobe Illustrator 22.1.0, SVG Export Plug-In . SVG Version: 6.00 Build 0)  -->
<svg version="1.1" id="katman_1" xmlns="http://www.w3.org/2000/svg" xmlns:xlink="http://www.w3.org/1999/xlink" x="0px" y="0px"
	 viewBox="0 0 16 16" style="enable-background:new 0 0 16 16;" xml:space="preserve">
<style type="text/css">
	.st0{fill:#D5E7EF;}
	.st1{fill:#3B6AA3;}
</style>
<path class="st0" d="M7.4,15.5l-0.5-2.1l-0.3-0.1c-0.9-0.2-1.8-0.7-2.5-1.4l-0.2-0.2l-2.1,0.6l-0.6-1.1l1.6-1.5L2.7,9.4
	C2.6,8.9,2.5,8.5,2.5,8s0.1-0.9,0.2-1.4l0.1-0.3L1.2,4.8l0.6-1.1l2.1,0.6l0.2-0.2c0.7-0.7,1.5-1.2,2.5-1.4l0.3-0.1l0.5-2.1h1.2
	l0.5,2.1l0.3,0.1c0.9,0.3,1.8,0.7,2.5,1.4l0.2,0.2l2.1-0.6l0.6,1.1l-1.6,1.5l0.1,0.3c0.1,0.5,0.2,1,0.2,1.4s-0.1,0.9-0.2,1.4
	l-0.1,0.3l1.6,1.5l-0.6,1.1l-2.1-0.6l-0.2,0.2c-0.7,0.7-1.5,1.2-2.5,1.4l-0.3,0.1l-0.5,2.1H7.4z M8,5.5C6.6,5.5,5.5,6.6,5.5,8
	s1.1,2.5,2.5,2.5s2.5-1.1,2.5-2.5S9.4,5.5,8,5.5z"/>
<path class="st1" d="M8.2,1l0.4,1.5L8.7,3l0.6,0.2c0.9,0.2,1.6,0.7,2.2,1.3L12,4.9l0.6-0.2L14,4.3l0.2,0.4l-1.1,1l-0.4,0.4l0.2,0.6
	C12.9,7.1,13,7.6,13,8c0,0.4-0.1,0.9-0.2,1.3l-0.2,0.6l0.4,0.4l1.1,1L14,11.7l-1.4-0.4L12,11.1l-0.4,0.4c-0.6,0.6-1.4,1.1-2.2,1.3
	L8.7,13l-0.1,0.6L8.2,15H7.8l-0.4-1.5L7.3,13l-0.6-0.2c-0.9-0.2-1.6-0.7-2.2-1.3L4,11.1l-0.6,0.2L2,11.7l-0.2-0.4l1.1-1l0.4-0.4
	L3.2,9.3C3.1,8.9,3,8.4,3,8s0.1-0.9,0.2-1.3l0.2-0.6L2.9,5.7l-1.1-1L2,4.3l1.4,0.4L4,4.9l0.4-0.4c0.6-0.6,1.4-1.1,2.2-1.3L7.3,3
	l0.1-0.6L7.8,1H8.2 M8,11c1.7,0,3-1.3,3-3S9.7,5,8,5S5,6.3,5,8S6.3,11,8,11 M9,0H7L6.4,2.2c-1,0.3-2,0.8-2.7,1.5L1.6,3.1l-1,1.7
	l1.6,1.6C2.1,6.9,2,7.5,2,8s0.1,1.1,0.2,1.6l-1.6,1.6l1,1.7l2.2-0.6c0.7,0.7,1.7,1.3,2.7,1.5L7,16h2l0.6-2.2c1-0.3,2-0.8,2.7-1.5
	l2.2,0.6l1-1.7l-1.6-1.6C13.9,9.1,14,8.5,14,8s-0.1-1.1-0.2-1.6l1.6-1.6l-1-1.7l-2.2,0.6C11.5,3,10.6,2.5,9.6,2.2L9,0L9,0z M8,10
	c-1.1,0-2-0.9-2-2s0.9-2,2-2s2,0.9,2,2S9.1,10,8,10L8,10z"/>
</svg>
