<svg xmlns="http://www.w3.org/2000/svg" viewBox="0 0 16 16"><path fill="#f2faff" d="M1.5 1.5H14.5V14.5H1.5z"></path><path fill="#788b9c" d="M14,2v12H2V2H14 M15,1H1v14h14V1L15,1z"></path><path fill="#f2faff" d="M-3.5 7.5H10.5V8.5H-3.5z" transform="rotate(90 3.5 8)"></path><path fill="#f2faff" d="M-0.5 7.5H13.5V8.5H-0.5z" transform="rotate(90 6.5 8)"></path><path fill="#f2faff" d="M2.5 7.5H16.5V8.5H2.5z" transform="rotate(90 9.5 8)"></path><path fill="#f2faff" d="M5.5 7.5H19.5V8.5H5.5z" transform="rotate(90 12.5 8)"></path><path fill="#f2faff" d="M1 3H15V4H1z" transform="rotate(-180 8 3.5)"></path><path fill="#f2faff" d="M1 6H15V7H1z" transform="rotate(-180 8 6.5)"></path><path fill="#f2faff" d="M1 9H15V10H1z" transform="rotate(-180 8 9.5)"></path><path fill="#f2faff" d="M1 12H15V13H1z" transform="rotate(-180 8 12.5)"></path><path fill="#4e7ab5" d="M4 5H12V6H4zM4 9H12V10H4zM4 7H10V8H4z"></path></svg>