<?xml version="1.0" encoding="utf-8"?>
<!-- Generator: Adobe Illustrator 22.1.0, SVG Export Plug-In . SVG Version: 6.00 Build 0)  -->
<svg version="1.2" baseProfile="tiny" id="katman_1"
	 xmlns="http://www.w3.org/2000/svg" xmlns:xlink="http://www.w3.org/1999/xlink" x="0px" y="0px" viewBox="0 0 16 16"
	 xml:space="preserve">
<path fill="#C2E8FF" d="M8.5,0C4.4,0,1,3.4,1,7.5S4.4,15,8.5,15S16,11.6,16,7.5S12.6,0,8.5,0z"/>
<path fill="#8BB8F0" d="M2.5,11.2l5.9-2.9l-5.9-4c0,0-1,0.9-1,3.4S2.5,11.2,2.5,11.2z"/>
<path fill="#788B9C" d="M8.6,6.8h0.6V8H8.6V6.8z M8,7.4h0.6v1.2H8V7.4z M9.2,7.4h0.6v1.2H9.2V7.4z M10,7h5v2h-5V7z M8,8.6l-5.1,3.5
	l-0.6-0.8l5.1-3.5L8,8.6z"/>
<path fill="#788B9C" d="M7.8,8.6L2.3,4.5l0.6-0.8l5.6,4.1L7.8,8.6z"/>
<path fill="#FFEEA3" d="M7,6h4v4H7V6z"/>
<path fill="#D9B675" d="M8.5,11.5V7.8c0-0.3,0.4-0.3,0.5-0.3c0.3,0,0.5,0.1,0.5,0.3v3.7H8.5z"/>
<path fill="#BA9B48" d="M9,8v3V8 M9,7C8.4,7,8,7.3,8,7.8V12h2V7.8C10,7.3,9.6,7,9,7L9,7z"/>
<path fill="#B6C9D6" d="M0,16h0.8L4,12.8l-0.7-0.7L0,15.3V16z"/>
<path fill="#788B9C" d="M2.4,11.3L0,13.8l0,1.6l3.1-3.1C2.9,12.1,2.5,11.5,2.4,11.3z M3.8,13l-3,3l1.5,0l2.3-2.3
	C4.5,13.6,4,13.1,3.8,13z"/>
<g>
	<path fill="#788B9C" d="M8.5,1C12.1,1,15,3.9,15,7.5S12.1,14,8.5,14S2,11.1,2,7.5S4.9,1,8.5,1 M8.5,0C4.4,0,1,3.4,1,7.5
		S4.4,15,8.5,15S16,11.6,16,7.5S12.6,0,8.5,0L8.5,0z"/>
</g>
<g>
	<path fill="#FFFFFF" d="M8.5,2c3,0,5.5,2.5,5.5,5.5S11.5,13,8.5,13S3,10.5,3,7.5S5.5,2,8.5,2 M8.5,1C4.9,1,2,3.9,2,7.5
		S4.9,14,8.5,14S15,11.1,15,7.5S12.1,1,8.5,1L8.5,1z"/>
</g>
</svg>
