<svg xmlns="http://www.w3.org/2000/svg" viewBox="0 0 16 16"><path fill="#dbf2ff" d="M1.5 14.5L1.5 5.587 7.999 1.587 14.5 5.587 14.5 14.5z"></path><path fill="#7496c4" d="M7.999,2.174L14,5.867V14H2V5.866L7.999,2.174 M7.999,1L1,5.308V15h14V5.308L7.999,1L7.999,1z"></path><path fill="#b5ddf5" d="M2 13H14V14H2z"></path><path fill="#f78f8f" d="M7.999 2.831L0.5 7.446 0.5 5.202 7.999 0.587 15.5 5.202 15.5 7.446z"></path><path fill="#c74343" d="M7.999,1.174L15,5.482v1.069L8.523,2.566L7.999,2.243L7.474,2.566L1,6.551V5.482L7.999,1.174 M7.999,0L0,4.923v3.418l7.999-4.923L16,8.341V4.923L7.999,0L7.999,0z"></path><g><path fill="#ffc49c" d="M6.5 8.5H9.5V14.5H6.5z"></path><path fill="#a16a4a" d="M9,9v5H7V9H9 M10,8H6v7h4V8L10,8z"></path></g></svg>