<?xml version="1.0" encoding="utf-8"?>
<!-- Generator: Adobe Illustrator 23.0.1, SVG Export Plug-In . SVG Version: 6.00 Build 0)  -->
<svg version="1.1" id="katman_1" xmlns="http://www.w3.org/2000/svg" xmlns:xlink="http://www.w3.org/1999/xlink" x="0px" y="0px"
	 viewBox="0 0 16 16" style="enable-background:new 0 0 16 16;" xml:space="preserve">
<path d="M5.6,7.5L2.2,4c-0.2-0.2-0.2-0.7,0-0.8l0,0c0.2-0.2,0.6-0.2,0.9,0l4.3,4.3L3,11.8c-0.2,0.2-0.7,0.2-0.8,0l0,0
	c-0.2-0.2-0.2-0.6,0-0.9L5.6,7.5z"/>
<path d="M11.6,7.5L8.2,4c-0.2-0.2-0.2-0.7,0-0.8l0,0c0.2-0.2,0.6-0.2,0.9,0l4.3,4.3l-4.3,4.3c-0.2,0.2-0.6,0.2-0.9,0l0,0
	c-0.2-0.2-0.2-0.6,0-0.9L11.6,7.5z"/>
</svg>
