<?xml version="1.0" encoding="utf-8"?>
<!-- Generator: Adobe Illustrator 23.1.1, SVG Export Plug-In . SVG Version: 6.00 Build 0)  -->
<svg version="1.1" id="katman_1" xmlns="http://www.w3.org/2000/svg" xmlns:xlink="http://www.w3.org/1999/xlink" x="0px" y="0px"
	 viewBox="0 0 16 16" style="enable-background:new 0 0 16 16;" xml:space="preserve">
<style type="text/css">
	.st0{fill:#797F7F;}
	.st1{fill:#C1C6C6;}
	.st2{fill:#989D9E;}
	.st3{fill:#BEC5C5;}
	.st4{fill:#FFFFFF;}
	.st5{fill:#D87611;}
	.st6{fill:url(#SVGID_1_);}
</style>
<path class="st0" d="M8.125,14h-0.25C7.39175,14,7,13.60825,7,13.125V13h2v0.125C9,13.60825,8.60825,14,8.125,14z"/>
<path class="st1" d="M9.125,13h-2.25C6.39175,13,6,12.60825,6,12.125V12h4v0.125C10,12.60825,9.60825,13,9.125,13z"/>
<rect x="6" y="11" class="st2" width="4" height="1"/>
<path class="st3" d="M5.87947,10c0.05052,0.31091,0.09415,0.63861,0.12054,1h3.99999c0.02638-0.36139,0.07001-0.68909,0.12054-1
	H5.87947z"/>
<path class="st4" d="M5.02747,9.1C4.76778,8.90742,3.00343,7.55709,3,5.5C2.99592,3.05654,5.47867,1,8,1
	c2.51922,0,5.00408,2.0555,5,4.5c-0.00343,2.05709-1.77282,3.4008-2.02747,3.6c-0.27498,0.21511-0.55789,0.50488-0.852,0.9
	c-1.41369,0-2.82737,0-4.24106,0C5.63491,9.67695,5.35229,9.37615,5.02747,9.1z"/>
<path class="st5" d="M6.49219,6.4587c0.90311,0.63965,1.9067,0.80032,3.01562,0V5.53682c-1.16146,0.63081-1.93809,0.64077-3.01562,0
	V6.4587z"/>
<radialGradient id="SVGID_1_" cx="8" cy="5.71429" r="5.71429" fx="8.00695" fy="2.66128" gradientTransform="matrix(0.875 0 0 0.75707 1 1.17386)" gradientUnits="userSpaceOnUse">
	<stop  offset="0" style="stop-color:#FFFF99;stop-opacity:0.1"/>
	<stop  offset="0.10818" style="stop-color:#FFF975;stop-opacity:0.22621"/>
	<stop  offset="0.2613" style="stop-color:#FFF34B;stop-opacity:0.40485"/>
	<stop  offset="0.39974" style="stop-color:#FFEE2D;stop-opacity:0.56636"/>
	<stop  offset="0.51733" style="stop-color:#FFEB1A;stop-opacity:0.70355"/>
	<stop  offset="0.6" style="stop-color:#FFEA16;stop-opacity:0.8"/>
	<stop  offset="0.72852" style="stop-color:#FAE217;stop-opacity:0.87711"/>
	<stop  offset="0.85" style="stop-color:#F1D318;stop-opacity:0.95"/>
	<stop  offset="1" style="stop-color:#C98F1B"/>
</radialGradient>
<path class="st6" d="M5.02747,9.1C4.76778,8.90742,3.00343,7.55709,3,5.5C2.99592,3.05654,5.47867,1,8,1
	c2.51922,0,5.00408,2.0555,5,4.5c-0.00343,2.05709-1.77282,3.4008-2.02747,3.6c-0.27498,0.21511-0.55789,0.50488-0.852,0.9
	c-1.41369,0-2.82737,0-4.24106,0C5.63491,9.67695,5.35229,9.37615,5.02747,9.1z"/>
<path class="st4" d="M9.1093,3.03245c1.23347,0.3512,1.88885,1.10825,2.0376,2.20186l0.73395-0.6792
	c-0.26535-1.07823-0.92148-1.82682-2.0376-2.20186L9.1093,3.03245z"/>
<g>
</g>
<g>
</g>
<g>
</g>
<g>
</g>
<g>
</g>
<g>
</g>
</svg>
