<?xml version="1.0" encoding="utf-8"?>
<!-- Generator: Adobe Illustrator 22.1.0, SVG Export Plug-In . SVG Version: 6.00 Build 0)  -->
<svg version="1.1" id="katman_1" xmlns="http://www.w3.org/2000/svg" xmlns:xlink="http://www.w3.org/1999/xlink" x="0px" y="0px"
	 viewBox="0 0 160 80" style="enable-background:new 0 0 160 80;" xml:space="preserve">
<style type="text/css">
	.st0{fill:#2F3D44;}
	.st1{fill:#0094D9;}
	.st2{fill:#2E3A41;}
</style>
<g>
	<g>
		<path class="st0" d="M47.5,46.9c0.1-1.2,0.2-2.5,0.2-4c0-1.5,0.1-3.3,0.1-5.3c0-2.4,0-4-0.1-4.8c-0.1-0.8-0.3-1.4-0.5-1.9
			c0.4-0.2,0.7-0.3,1-0.4c0.3-0.1,0.5-0.1,0.7-0.1c0.4,0,0.6,0.1,0.7,0.3c0.1,0.2,0.2,0.6,0.2,1.2c0,0.1,0,0.8-0.1,2
			c0,1.2-0.1,2.4-0.1,3.5c0.7-0.5,1.3-0.8,2-1c0.6-0.2,1.3-0.3,1.9-0.3c1.5,0,2.7,0.5,3.7,1.5c1,1,1.5,2.3,1.5,3.9
			c0,1.9-0.6,3.4-1.9,4.7C55.5,47.4,53.9,48,52,48c-0.7,0-1.4-0.1-2.1-0.3C49.1,47.6,48.3,47.3,47.5,46.9z M49.7,45.6
			c0.5,0.3,1,0.5,1.4,0.6c0.4,0.1,0.9,0.2,1.3,0.2c1.2,0,2.3-0.4,3.1-1.3c0.8-0.9,1.2-2,1.2-3.4c0-1.2-0.3-2.2-1-2.9
			C55,38,54.1,37.7,53,37.7c-0.5,0-1,0.1-1.6,0.3c-0.5,0.2-1.1,0.5-1.8,0.9V39c0,1.5,0,2.6,0,3.3c0,0.4,0,0.8,0,1.3
			C49.6,44,49.6,44.7,49.7,45.6z"/>
		<path class="st0" d="M61.2,36.5c0.3-0.2,0.6-0.3,0.9-0.4C62.5,36,62.7,36,63,36c0.4,0,0.7,0.1,0.8,0.4c0.1,0.2,0.2,0.8,0.2,1.7
			v0.4c0,3.2-0.1,5.6-0.2,7.1c-0.2,1.5-0.4,2.6-0.8,3.4c-0.4,0.9-1,1.8-1.8,2.5c-0.8,0.7-1.4,1.1-1.8,1.1c-0.2,0-0.4-0.1-0.5-0.2
			c-0.1-0.1-0.2-0.3-0.2-0.5c0-0.2,0.2-0.5,0.6-0.8c0.2-0.2,0.4-0.3,0.5-0.5c0.7-0.8,1.2-1.7,1.5-2.9c0.3-1.2,0.4-3,0.4-5.3
			c0-1.6-0.1-2.8-0.2-3.7C61.6,37.6,61.5,36.9,61.2,36.5z M64.3,32.3c0,0.5-0.2,0.8-0.5,1.1c-0.3,0.3-0.7,0.5-1.2,0.5
			c-0.4,0-0.7-0.1-1-0.4c-0.3-0.2-0.4-0.6-0.4-1c0-0.4,0.2-0.8,0.5-1.1c0.3-0.3,0.7-0.5,1.2-0.5c0.4,0,0.7,0.1,1,0.4
			C64.2,31.6,64.3,32,64.3,32.3z"/>
		<path class="st0" d="M76,45.3c0.2,0.2,0.3,0.4,0.4,0.6c0.1,0.2,0.1,0.4,0.1,0.5c0,0.4-0.3,0.8-1,1.1C74.9,47.8,74,48,73,48
			c-1.9,0-3.4-0.5-4.5-1.6c-1.1-1-1.6-2.5-1.6-4.3c0-1.8,0.5-3.4,1.6-4.5c1.1-1.2,2.5-1.8,4.2-1.8c1.3,0,2.4,0.4,3.2,1.1
			c0.8,0.7,1.3,1.7,1.3,2.9c0,0.9-0.3,1.6-1.1,2c-0.7,0.4-1.9,0.6-3.6,0.6c-0.6,0-1.3,0-1.9-0.1c-0.6,0-1.2-0.1-1.9-0.2v0.2
			c0,1.2,0.4,2.2,1.1,2.9c0.7,0.7,1.7,1.1,3,1.1c0.6,0,1.1-0.1,1.6-0.2C75.1,45.9,75.6,45.7,76,45.3z M69,40.7
			c0.5,0.1,1.1,0.2,1.7,0.2c0.6,0,1.3,0.1,2,0.1c1,0,1.7-0.1,2-0.3c0.3-0.2,0.5-0.5,0.5-1c0-0.7-0.3-1.3-0.8-1.7
			c-0.5-0.4-1.2-0.6-2.1-0.6c-0.9,0-1.7,0.3-2.3,0.9C69.6,38.8,69.2,39.6,69,40.7z"/>
		<path class="st0" d="M87.1,38.2c-0.3-0.2-0.6-0.3-0.9-0.4c-0.3-0.1-0.6-0.1-1-0.1c-1.2,0-2.2,0.4-3,1.3c-0.8,0.9-1.2,2-1.2,3.3
			c0,1.2,0.4,2.2,1.1,2.9c0.7,0.7,1.7,1.1,2.9,1.1c0.5,0,1-0.1,1.4-0.2c0.4-0.1,0.8-0.4,1.2-0.7c0.1,0.2,0.3,0.4,0.3,0.6
			c0.1,0.2,0.1,0.4,0.1,0.5c0,0.5-0.3,0.9-0.9,1.2c-0.6,0.3-1.4,0.4-2.4,0.4c-1.7,0-3.2-0.5-4.2-1.5c-1.1-1-1.6-2.3-1.6-3.9
			c0-1.9,0.7-3.6,2-4.9c1.3-1.3,2.9-2,4.8-2c0.7,0,1.2,0.1,1.5,0.3c0.3,0.2,0.5,0.5,0.5,0.9c0,0.2-0.1,0.4-0.2,0.6
			C87.5,37.8,87.3,38,87.1,38.2z"/>
		<path class="st0" d="M90.9,38.3c-0.1,0-0.3,0-0.6,0c-0.2,0-0.4,0-0.5,0c-0.3,0-0.6,0-0.7-0.1c-0.1-0.1-0.2-0.2-0.2-0.5
			c0-0.1,0-0.2,0.1-0.4c0-0.1,0.1-0.3,0.2-0.5c0.1,0,0.2,0,0.3,0c0.2,0,0.3,0,0.4,0c0.2,0,0.5,0,1,0c0.1,0,0.1,0,0.1,0
			c0-0.1,0-0.2,0-0.4c0-0.2,0-0.3,0-0.4c0-0.6,0-1.2-0.1-1.6c-0.1-0.5-0.2-0.9-0.4-1.2c0.3-0.2,0.6-0.3,0.9-0.4
			c0.3-0.1,0.5-0.1,0.7-0.1c0.3,0,0.6,0.1,0.7,0.3c0.1,0.2,0.2,0.5,0.2,1c0,0.2,0,0.8-0.1,1.9c0,0.4,0,0.7-0.1,0.9
			c0.5-0.1,0.9-0.1,1.2-0.1c0.4,0,0.7,0,1,0c0.3,0,0.5,0,0.6,0.1c0.1,0.1,0.2,0.3,0.2,0.5c0,0.1,0,0.3-0.1,0.4
			c-0.1,0.2-0.2,0.4-0.3,0.6c-0.2,0-0.4-0.1-0.7-0.1c-0.2,0-0.5,0-0.8,0c-0.1,0-0.2,0-0.5,0c-0.3,0-0.5,0-0.7,0
			c-0.1,1.2-0.1,2.3-0.2,3.1c0,0.8,0,1.5,0,2c0,1.1,0.1,1.9,0.3,2.3c0.2,0.4,0.5,0.7,1,0.7c0.1,0,0.3,0,0.4-0.1
			c0.1,0,0.3-0.1,0.4-0.2c0.1,0.2,0.1,0.3,0.2,0.4c0,0.1,0,0.2,0,0.3c0,0.4-0.2,0.7-0.5,1C94,47.8,93.6,48,93.1,48
			c-0.9,0-1.5-0.3-1.9-0.9c-0.4-0.6-0.6-1.4-0.6-2.6c0-0.3,0-1.2,0.1-2.7C90.8,40.4,90.8,39.2,90.9,38.3z"/>
		<path class="st1" d="M96.6,37.1c0.3-0.4,0.5-0.6,0.8-0.8c0.3-0.2,0.5-0.3,0.8-0.3c0.5,0,1,0.9,1.5,2.6c0.2,0.7,0.4,1.2,0.5,1.6
			c0.5,1.6,1,2.9,1.4,3.9c0.4,1,0.7,1.5,0.9,1.5c0.2,0,0.5-0.6,1.1-1.8c0.6-1.2,1.1-2.5,1.5-4c0.1-0.5,0.3-1.1,0.4-1.8
			c0.2-1.2,0.6-1.9,1.2-1.9c0.5,0,0.9,0.8,1.3,2.4c0.1,0.5,0.2,0.9,0.3,1.1c0.4,1.6,0.8,3,1.3,4.2c0.5,1.2,0.8,1.8,1,1.8
			c0.1,0,0.2-0.2,0.4-0.5c0.2-0.3,0.5-0.7,0.8-1.2c0.7-1.3,1.3-2.5,1.6-3.5c0.4-1.1,0.5-2,0.5-2.9c0-0.3,0-0.5-0.1-0.7
			c0-0.2-0.1-0.5-0.2-0.7c0.2-0.1,0.4-0.1,0.6-0.1c0.2,0,0.3,0,0.5,0c0.5,0,0.8,0.1,1,0.3c0.2,0.2,0.3,0.6,0.3,1
			c0,0.9-0.3,2-0.9,3.5c-0.6,1.5-1.5,3-2.6,4.7c-0.5,0.8-1,1.4-1.4,1.9c-0.4,0.4-0.8,0.6-1,0.6c-0.5,0-1-0.6-1.5-1.9
			c-0.5-1.3-1.2-3.3-1.9-6.1c-0.8,2.4-1.6,4.3-2.4,5.8c-0.8,1.5-1.5,2.2-2,2.2c-0.2,0-0.6-0.3-0.9-0.9c-0.4-0.6-0.8-1.5-1.3-2.6
			c-0.4-0.9-0.9-2.1-1.5-3.7C97.6,38.7,97,37.4,96.6,37.1z"/>
		<path class="st1" d="M120.9,47.4c-0.3,0.2-0.6,0.3-0.9,0.4c-0.3,0.1-0.6,0.1-0.8,0.1c-0.4,0-0.6-0.1-0.8-0.3
			c-0.1-0.2-0.2-0.6-0.2-1.2c0-0.2,0.1-1.3,0.2-3.5c0.1-2.2,0.2-4.3,0.2-6.4c0-2,0-3.3-0.1-4c-0.1-0.7-0.2-1.2-0.5-1.6
			c0.3-0.2,0.7-0.3,0.9-0.4c0.3-0.1,0.5-0.1,0.8-0.1c0.4,0,0.6,0.1,0.8,0.3c0.1,0.2,0.2,0.6,0.2,1.3c0,0.1,0,0.7-0.1,1.9
			c-0.1,1.2-0.1,2.3-0.1,3.4c0.6-0.4,1.2-0.8,1.9-1c0.6-0.2,1.2-0.3,1.8-0.3c1.3,0,2.4,0.4,3.1,1.2c0.7,0.8,1.1,2,1.1,3.4
			c0,0.3,0,0.8,0,1.4c0,0.7,0,1.2,0,1.6c0,1.1,0,1.9,0.1,2.4c0.1,0.5,0.2,1,0.5,1.4c-0.4,0.2-0.7,0.3-1,0.4
			c-0.3,0.1-0.5,0.1-0.7,0.1c-0.4,0-0.6-0.1-0.8-0.3c-0.1-0.2-0.2-0.6-0.2-1.1c0-0.4,0-1.1,0.1-2.1c0-1,0.1-1.8,0.1-2.5
			c0-1.6-0.2-2.8-0.6-3.4c-0.4-0.7-1.1-1-2-1c-0.5,0-1,0.1-1.5,0.3c-0.5,0.2-1.1,0.5-1.8,0.9c0,0.6-0.1,1.3-0.1,2c0,0.7,0,1.4,0,2.1
			c0,1.3,0,2.3,0.1,3C120.6,46.4,120.7,46.9,120.9,47.4z"/>
		<path class="st1" d="M140,45.3c0.2,0.2,0.3,0.4,0.4,0.6c0.1,0.2,0.1,0.4,0.1,0.5c0,0.4-0.3,0.8-1,1.1c-0.6,0.3-1.5,0.4-2.5,0.4
			c-1.9,0-3.4-0.5-4.5-1.6c-1.1-1-1.6-2.5-1.6-4.3c0-1.8,0.5-3.4,1.6-4.5c1.1-1.2,2.5-1.8,4.2-1.8c1.3,0,2.4,0.4,3.2,1.1
			c0.8,0.7,1.3,1.7,1.3,2.9c0,0.9-0.4,1.6-1,2c-0.7,0.4-1.9,0.6-3.6,0.6c-0.6,0-1.3,0-1.9-0.1c-0.6,0-1.2-0.1-1.9-0.2v0.2
			c0,1.2,0.4,2.2,1.1,2.9c0.7,0.7,1.7,1.1,3,1.1c0.6,0,1.1-0.1,1.6-0.2C139.1,45.9,139.6,45.7,140,45.3z M133,40.7
			c0.5,0.1,1.1,0.2,1.7,0.2c0.6,0,1.3,0.1,2,0.1c1,0,1.7-0.1,2-0.3c0.3-0.2,0.5-0.5,0.5-1c0-0.7-0.3-1.3-0.8-1.7
			c-0.5-0.4-1.2-0.6-2.1-0.6c-0.9,0-1.7,0.3-2.3,0.9C133.6,38.8,133.2,39.6,133,40.7z"/>
		<path class="st1" d="M152,45.3c0.2,0.2,0.3,0.4,0.4,0.6c0.1,0.2,0.1,0.4,0.1,0.5c0,0.4-0.3,0.8-1,1.1c-0.6,0.3-1.5,0.4-2.5,0.4
			c-1.9,0-3.4-0.5-4.5-1.6c-1.1-1-1.6-2.5-1.6-4.3c0-1.8,0.5-3.4,1.6-4.5c1.1-1.2,2.5-1.8,4.2-1.8c1.3,0,2.4,0.4,3.2,1.1
			c0.8,0.7,1.3,1.7,1.3,2.9c0,0.9-0.4,1.6-1,2c-0.7,0.4-1.9,0.6-3.6,0.6c-0.6,0-1.3,0-1.9-0.1c-0.6,0-1.2-0.1-1.9-0.2v0.2
			c0,1.2,0.4,2.2,1.1,2.9c0.7,0.7,1.7,1.1,3,1.1c0.6,0,1.1-0.1,1.6-0.2C151.1,45.9,151.6,45.7,152,45.3z M145,40.7
			c0.5,0.1,1.1,0.2,1.7,0.2c0.6,0,1.3,0.1,2,0.1c1,0,1.7-0.1,2-0.3c0.3-0.2,0.5-0.5,0.5-1c0-0.7-0.3-1.3-0.8-1.7
			c-0.5-0.4-1.2-0.6-2.1-0.6c-0.9,0-1.7,0.3-2.3,0.9C145.6,38.8,145.2,39.6,145,40.7z"/>
		<path class="st1" d="M158.7,47.3c-0.3,0.2-0.6,0.3-0.9,0.4c-0.3,0.1-0.6,0.1-0.8,0.1c-0.4,0-0.6-0.1-0.8-0.3
			c-0.1-0.2-0.2-0.6-0.2-1.2c0-0.8,0-2.2,0.1-4.3c0.1-2.1,0.1-3.9,0.1-5.2c0-1.7-0.1-3-0.2-3.9c-0.1-0.9-0.3-1.6-0.5-2
			c0.3-0.2,0.6-0.3,0.9-0.4c0.3-0.1,0.6-0.1,0.8-0.1c0.4,0,0.7,0.1,0.8,0.3c0.1,0.2,0.2,0.6,0.2,1.2c0,0.5,0,1.8-0.1,4
			c-0.1,2.2-0.1,4.1-0.1,5.7c0,1.8,0,3.1,0.1,3.9C158.3,46.2,158.5,46.9,158.7,47.3z"/>
	</g>
	<g>
		<path class="st1" d="M43,38.7c0,6-4.9,10.9-10.9,10.9c-6,0-10.9-4.9-10.9-10.9c0-6,4.6-11.4,10.6-11.4C37.9,27.3,43,32.7,43,38.7z
			"/>
		<path class="st1" d="M49.7,14.1c-1.5,3.4-5.5,4.9-8.9,3.4c-3.4-1.5-4.9-5.5-3.4-8.9c1.5-3.4,5.5-4.9,8.9-3.4
			C49.7,6.7,51.2,10.7,49.7,14.1z"/>
		<path class="st1" d="M21.5,9.9c-0.7,3.6-4.3,6-7.9,5.2c-3.6-0.7-6-4.3-5.2-7.9c0.7-3.6,4.3-6,7.9-5.2C19.9,2.7,22.3,6.3,21.5,9.9z
			"/>
		<path class="st1" d="M45.8,70.6c0.9,3.6-1.3,7.3-4.9,8.2c-3.6,0.9-7.3-1.3-8.2-4.9c-0.9-3.6,1.3-7.3,4.9-8.2
			C41.2,64.8,44.9,67,45.8,70.6z"/>
		<path class="st1" d="M14.6,37.8c0,3.7-3,6.7-6.7,6.7c-3.7,0-6.7-3-6.7-6.7c0-3.7,3-6.7,6.7-6.7C11.6,31.1,14.6,34.1,14.6,37.8z"/>
		<path class="st1" d="M20,61c0,3.7-3,6.7-6.7,6.7c-3.7,0-6.7-3-6.7-6.7c0-3.7,3-6.7,6.7-6.7C16.9,54.3,20,57.3,20,61z"/>
		<path class="st0" d="M35.8,27.3l3.9-10.5c0,0,0.4,0.3,1.1,0.6c0.5,0.2,1.3,0.4,1.3,0.4l-5.2,10.1L35.8,27.3z"/>
		<path class="st0" d="M33.1,49.9l3.4,16.3c0,0,0.5-0.2,1.2-0.4c0.5-0.1,1.4-0.2,1.4-0.2l-4.7-16L33.1,49.9z"/>
		<path class="st0" d="M23.1,38.5l-8.7,0.7c0,0,0.1-0.5,0.1-1.3c0-0.6-0.2-1.4-0.2-1.4l8.7,0.7V38.5z"/>
		<path class="st0" d="M26,48.9l-7.3,8.2c0,0-0.3-0.4-0.8-1c-0.4-0.4-1.1-0.9-1.1-0.9l8.3-7.3L26,48.9z"/>
		<path class="st0" d="M27.6,27.8l-9.8-13.3c0,0,0.5-0.2,1.1-0.6c0.5-0.3,1.1-0.9,1.1-0.9l8.6,14.3L27.6,27.8z"/>
		<path class="st2" d="M26.7,28.7l-0.6,3.7c1.8-2.1,3.9-3.1,6.9-3.1c5.4,0,9.3,4.3,9.3,9.7c0,5.4-3.9,9.7-9.3,9.7
			c-5.4,0-9.7-4.3-9.7-9.7c0-1.1,0.2-2.2,0.5-3.2l1.6,1l-0.5-6.3l-6.5,1.3l1.9,0.7c-1.1,1.9-1.5,4.1-1.5,6.4c0,7,5.6,12.6,12.6,12.6
			c7,0,12.6-5.6,12.6-12.6c0-7-5.6-12.6-12.6-12.6c-3.6,0-7.3,0.9-9.5,3.6L26.7,28.7z"/>
	</g>
</g>
</svg>
