<?xml version="1.0" encoding="utf-8"?>
<!-- Generator: Adobe Illustrator 23.1.1, SVG Export Plug-In . SVG Version: 6.00 Build 0)  -->
<svg version="1.1" id="katman_1" xmlns="http://www.w3.org/2000/svg" xmlns:xlink="http://www.w3.org/1999/xlink" x="0px" y="0px"
	 viewBox="0 0 160 80" style="enable-background:new 0 0 160 80;" xml:space="preserve">
<style type="text/css">
	.st0{fill:#2F3D44;}
	.st1{fill:#1793EB;}
	.st2{fill:url(#SVGID_1_);}
	.st3{fill:#228BE0;}
	.st4{fill:url(#SVGID_2_);}
	.st5{fill:url(#SVGID_3_);}
	.st6{fill:url(#SVGID_4_);}
	.st7{fill:url(#SVGID_5_);}
	.st8{fill:url(#SVGID_6_);}
	.st9{fill:#2E3A41;}
</style>
<g>
	<g>
		<path class="st0" d="M47.5,46.9c0.1-1.2,0.2-2.5,0.2-4s0.1-3.3,0.1-5.3c0-2.4,0-4-0.1-4.8s-0.3-1.4-0.5-1.9c0.4-0.2,0.7-0.3,1-0.4
			s0.5-0.1,0.7-0.1c0.4,0,0.6,0.1,0.7,0.3c0.1,0.2,0.2,0.6,0.2,1.2c0,0.1,0,0.8-0.1,2c0,1.2-0.1,2.4-0.1,3.5c0.7-0.5,1.3-0.8,2-1
			c0.6-0.2,1.3-0.3,1.9-0.3c1.5,0,2.7,0.5,3.7,1.5s1.5,2.3,1.5,3.9c0,1.9-0.6,3.4-1.9,4.7C55.5,47.4,53.9,48,52,48
			c-0.7,0-1.4-0.1-2.1-0.3C49.1,47.6,48.3,47.3,47.5,46.9z M49.7,45.6c0.5,0.3,1,0.5,1.4,0.6s0.9,0.2,1.3,0.2c1.2,0,2.3-0.4,3.1-1.3
			c0.8-0.9,1.2-2,1.2-3.4c0-1.2-0.3-2.2-1-2.9C55,38,54.1,37.7,53,37.7c-0.5,0-1,0.1-1.6,0.3c-0.5,0.2-1.1,0.5-1.8,0.9V39
			c0,1.5,0,2.6,0,3.3c0,0.4,0,0.8,0,1.3C49.6,44,49.6,44.7,49.7,45.6z"/>
		<path class="st0" d="M61.2,36.5c0.3-0.2,0.6-0.3,0.9-0.4C62.5,36,62.7,36,63,36c0.4,0,0.7,0.1,0.8,0.4c0.1,0.2,0.2,0.8,0.2,1.7
			v0.4c0,3.2-0.1,5.6-0.2,7.1c-0.2,1.5-0.4,2.6-0.8,3.4c-0.4,0.9-1,1.8-1.8,2.5s-1.4,1.1-1.8,1.1c-0.2,0-0.4-0.1-0.5-0.2
			c-0.1-0.1-0.2-0.3-0.2-0.5s0.2-0.5,0.6-0.8c0.2-0.2,0.4-0.3,0.5-0.5c0.7-0.8,1.2-1.7,1.5-2.9s0.4-3,0.4-5.3c0-1.6-0.1-2.8-0.2-3.7
			C61.6,37.6,61.5,36.9,61.2,36.5z M64.3,32.3c0,0.5-0.2,0.8-0.5,1.1c-0.3,0.3-0.7,0.5-1.2,0.5c-0.4,0-0.7-0.1-1-0.4
			c-0.3-0.2-0.4-0.6-0.4-1s0.2-0.8,0.5-1.1c0.3-0.3,0.7-0.5,1.2-0.5c0.4,0,0.7,0.1,1,0.4C64.2,31.6,64.3,32,64.3,32.3z"/>
		<path class="st0" d="M76,45.3c0.2,0.2,0.3,0.4,0.4,0.6c0.1,0.2,0.1,0.4,0.1,0.5c0,0.4-0.3,0.8-1,1.1C74.9,47.8,74,48,73,48
			c-1.9,0-3.4-0.5-4.5-1.6c-1.1-1-1.6-2.5-1.6-4.3s0.5-3.4,1.6-4.5c1.1-1.2,2.5-1.8,4.2-1.8c1.3,0,2.4,0.4,3.2,1.1
			c0.8,0.7,1.3,1.7,1.3,2.9c0,0.9-0.3,1.6-1.1,2c-0.7,0.4-1.9,0.6-3.6,0.6c-0.6,0-1.3,0-1.9-0.1c-0.6,0-1.2-0.1-1.9-0.2v0.2
			c0,1.2,0.4,2.2,1.1,2.9s1.7,1.1,3,1.1c0.6,0,1.1-0.1,1.6-0.2C75.1,45.9,75.6,45.7,76,45.3z M69,40.7c0.5,0.1,1.1,0.2,1.7,0.2
			s1.3,0.1,2,0.1c1,0,1.7-0.1,2-0.3s0.5-0.5,0.5-1c0-0.7-0.3-1.3-0.8-1.7s-1.2-0.6-2.1-0.6s-1.7,0.3-2.3,0.9
			C69.6,38.8,69.2,39.6,69,40.7z"/>
		<path class="st0" d="M87.1,38.2c-0.3-0.2-0.6-0.3-0.9-0.4c-0.3-0.1-0.6-0.1-1-0.1c-1.2,0-2.2,0.4-3,1.3c-0.8,0.9-1.2,2-1.2,3.3
			c0,1.2,0.4,2.2,1.1,2.9s1.7,1.1,2.9,1.1c0.5,0,1-0.1,1.4-0.2c0.4-0.1,0.8-0.4,1.2-0.7c0.1,0.2,0.3,0.4,0.3,0.6
			c0.1,0.2,0.1,0.4,0.1,0.5c0,0.5-0.3,0.9-0.9,1.2s-1.4,0.4-2.4,0.4c-1.7,0-3.2-0.5-4.2-1.5c-1.1-1-1.6-2.3-1.6-3.9
			c0-1.9,0.7-3.6,2-4.9c1.3-1.3,2.9-2,4.8-2c0.7,0,1.2,0.1,1.5,0.3s0.5,0.5,0.5,0.9c0,0.2-0.1,0.4-0.2,0.6
			C87.5,37.8,87.3,38,87.1,38.2z"/>
		<path class="st0" d="M90.9,38.3c-0.1,0-0.3,0-0.6,0c-0.2,0-0.4,0-0.5,0c-0.3,0-0.6,0-0.7-0.1s-0.2-0.2-0.2-0.5
			c0-0.1,0-0.2,0.1-0.4c0-0.1,0.1-0.3,0.2-0.5c0.1,0,0.2,0,0.3,0c0.2,0,0.3,0,0.4,0c0.2,0,0.5,0,1,0c0.1,0,0.1,0,0.1,0
			c0-0.1,0-0.2,0-0.4s0-0.3,0-0.4c0-0.6,0-1.2-0.1-1.6c-0.1-0.5-0.2-0.9-0.4-1.2c0.3-0.2,0.6-0.3,0.9-0.4c0.3-0.1,0.5-0.1,0.7-0.1
			c0.3,0,0.6,0.1,0.7,0.3s0.2,0.5,0.2,1c0,0.2,0,0.8-0.1,1.9c0,0.4,0,0.7-0.1,0.9c0.5-0.1,0.9-0.1,1.2-0.1c0.4,0,0.7,0,1,0
			s0.5,0,0.6,0.1s0.2,0.3,0.2,0.5c0,0.1,0,0.3-0.1,0.4c-0.1,0.2-0.2,0.4-0.3,0.6c-0.2,0-0.4-0.1-0.7-0.1c-0.2,0-0.5,0-0.8,0
			c-0.1,0-0.2,0-0.5,0s-0.5,0-0.7,0c-0.1,1.2-0.1,2.3-0.2,3.1c0,0.8,0,1.5,0,2c0,1.1,0.1,1.9,0.3,2.3c0.2,0.4,0.5,0.7,1,0.7
			c0.1,0,0.3,0,0.4-0.1c0.1,0,0.3-0.1,0.4-0.2c0.1,0.2,0.1,0.3,0.2,0.4c0,0.1,0,0.2,0,0.3c0,0.4-0.2,0.7-0.5,1
			C94,47.8,93.6,48,93.1,48c-0.9,0-1.5-0.3-1.9-0.9c-0.4-0.6-0.6-1.4-0.6-2.6c0-0.3,0-1.2,0.1-2.7C90.8,40.4,90.8,39.2,90.9,38.3z"
			/>
		<path class="st1" d="M96.6,37.1c0.3-0.4,0.5-0.6,0.8-0.8s0.5-0.3,0.8-0.3c0.5,0,1,0.9,1.5,2.6c0.2,0.7,0.4,1.2,0.5,1.6
			c0.5,1.6,1,2.9,1.4,3.9s0.7,1.5,0.9,1.5c0.2,0,0.5-0.6,1.1-1.8s1.1-2.5,1.5-4c0.1-0.5,0.3-1.1,0.4-1.8c0.2-1.2,0.6-1.9,1.2-1.9
			c0.5,0,0.9,0.8,1.3,2.4c0.1,0.5,0.2,0.9,0.3,1.1c0.4,1.6,0.8,3,1.3,4.2s0.8,1.8,1,1.8c0.1,0,0.2-0.2,0.4-0.5
			c0.2-0.3,0.5-0.7,0.8-1.2c0.7-1.3,1.3-2.5,1.6-3.5c0.4-1.1,0.5-2,0.5-2.9c0-0.3,0-0.5-0.1-0.7c0-0.2-0.1-0.5-0.2-0.7
			c0.2-0.1,0.4-0.1,0.6-0.1s0.3,0,0.5,0c0.5,0,0.8,0.1,1,0.3s0.3,0.6,0.3,1c0,0.9-0.3,2-0.9,3.5s-1.5,3-2.6,4.7
			c-0.5,0.8-1,1.4-1.4,1.9c-0.4,0.4-0.8,0.6-1,0.6c-0.5,0-1-0.6-1.5-1.9c-0.5-1.3-1.2-3.3-1.9-6.1c-0.8,2.4-1.6,4.3-2.4,5.8
			s-1.5,2.2-2,2.2c-0.2,0-0.6-0.3-0.9-0.9c-0.4-0.6-0.8-1.5-1.3-2.6c-0.4-0.9-0.9-2.1-1.5-3.7C97.6,38.7,97,37.4,96.6,37.1z"/>
		<path class="st1" d="M120.9,47.4c-0.3,0.2-0.6,0.3-0.9,0.4c-0.3,0.1-0.6,0.1-0.8,0.1c-0.4,0-0.6-0.1-0.8-0.3
			c-0.1-0.2-0.2-0.6-0.2-1.2c0-0.2,0.1-1.3,0.2-3.5s0.2-4.3,0.2-6.4c0-2,0-3.3-0.1-4s-0.2-1.2-0.5-1.6c0.3-0.2,0.7-0.3,0.9-0.4
			c0.3-0.1,0.5-0.1,0.8-0.1c0.4,0,0.6,0.1,0.8,0.3c0.1,0.2,0.2,0.6,0.2,1.3c0,0.1,0,0.7-0.1,1.9s-0.1,2.3-0.1,3.4
			c0.6-0.4,1.2-0.8,1.9-1c0.6-0.2,1.2-0.3,1.8-0.3c1.3,0,2.4,0.4,3.1,1.2s1.1,2,1.1,3.4c0,0.3,0,0.8,0,1.4c0,0.7,0,1.2,0,1.6
			c0,1.1,0,1.9,0.1,2.4s0.2,1,0.5,1.4c-0.4,0.2-0.7,0.3-1,0.4c-0.3,0.1-0.5,0.1-0.7,0.1c-0.4,0-0.6-0.1-0.8-0.3
			c-0.1-0.2-0.2-0.6-0.2-1.1c0-0.4,0-1.1,0.1-2.1c0-1,0.1-1.8,0.1-2.5c0-1.6-0.2-2.8-0.6-3.4c-0.4-0.7-1.1-1-2-1
			c-0.5,0-1,0.1-1.5,0.3s-1.1,0.5-1.8,0.9c0,0.6-0.1,1.3-0.1,2s0,1.4,0,2.1c0,1.3,0,2.3,0.1,3C120.6,46.4,120.7,46.9,120.9,47.4z"/>
		<path class="st1" d="M140,45.3c0.2,0.2,0.3,0.4,0.4,0.6c0.1,0.2,0.1,0.4,0.1,0.5c0,0.4-0.3,0.8-1,1.1c-0.6,0.3-1.5,0.4-2.5,0.4
			c-1.9,0-3.4-0.5-4.5-1.6c-1.1-1-1.6-2.5-1.6-4.3s0.5-3.4,1.6-4.5c1.1-1.2,2.5-1.8,4.2-1.8c1.3,0,2.4,0.4,3.2,1.1
			c0.8,0.7,1.3,1.7,1.3,2.9c0,0.9-0.4,1.6-1,2c-0.7,0.4-1.9,0.6-3.6,0.6c-0.6,0-1.3,0-1.9-0.1c-0.6,0-1.2-0.1-1.9-0.2v0.2
			c0,1.2,0.4,2.2,1.1,2.9c0.7,0.7,1.7,1.1,3,1.1c0.6,0,1.1-0.1,1.6-0.2C139.1,45.9,139.6,45.7,140,45.3z M133,40.7
			c0.5,0.1,1.1,0.2,1.7,0.2c0.6,0,1.3,0.1,2,0.1c1,0,1.7-0.1,2-0.3s0.5-0.5,0.5-1c0-0.7-0.3-1.3-0.8-1.7s-1.2-0.6-2.1-0.6
			c-0.9,0-1.7,0.3-2.3,0.9C133.6,38.8,133.2,39.6,133,40.7z"/>
		<path class="st1" d="M152,45.3c0.2,0.2,0.3,0.4,0.4,0.6c0.1,0.2,0.1,0.4,0.1,0.5c0,0.4-0.3,0.8-1,1.1c-0.6,0.3-1.5,0.4-2.5,0.4
			c-1.9,0-3.4-0.5-4.5-1.6c-1.1-1-1.6-2.5-1.6-4.3s0.5-3.4,1.6-4.5c1.1-1.2,2.5-1.8,4.2-1.8c1.3,0,2.4,0.4,3.2,1.1
			c0.8,0.7,1.3,1.7,1.3,2.9c0,0.9-0.4,1.6-1,2c-0.7,0.4-1.9,0.6-3.6,0.6c-0.6,0-1.3,0-1.9-0.1c-0.6,0-1.2-0.1-1.9-0.2v0.2
			c0,1.2,0.4,2.2,1.1,2.9c0.7,0.7,1.7,1.1,3,1.1c0.6,0,1.1-0.1,1.6-0.2C151.1,45.9,151.6,45.7,152,45.3z M145,40.7
			c0.5,0.1,1.1,0.2,1.7,0.2c0.6,0,1.3,0.1,2,0.1c1,0,1.7-0.1,2-0.3s0.5-0.5,0.5-1c0-0.7-0.3-1.3-0.8-1.7s-1.2-0.6-2.1-0.6
			c-0.9,0-1.7,0.3-2.3,0.9C145.6,38.8,145.2,39.6,145,40.7z"/>
		<path class="st1" d="M158.7,47.3c-0.3,0.2-0.6,0.3-0.9,0.4c-0.3,0.1-0.6,0.1-0.8,0.1c-0.4,0-0.6-0.1-0.8-0.3
			c-0.1-0.2-0.2-0.6-0.2-1.2c0-0.8,0-2.2,0.1-4.3s0.1-3.9,0.1-5.2c0-1.7-0.1-3-0.2-3.9c-0.1-0.9-0.3-1.6-0.5-2
			c0.3-0.2,0.6-0.3,0.9-0.4c0.3-0.1,0.6-0.1,0.8-0.1c0.4,0,0.7,0.1,0.8,0.3c0.1,0.2,0.2,0.6,0.2,1.2c0,0.5,0,1.8-0.1,4
			S158,40,158,41.6c0,1.8,0,3.1,0.1,3.9C158.3,46.2,158.5,46.9,158.7,47.3z"/>
	</g>
	<g>
		<g>
			<linearGradient id="SVGID_1_" gradientUnits="userSpaceOnUse" x1="31.8931" y1="49.4773" x2="32.3163" y2="27.437">
				<stop  offset="0" style="stop-color:#2592F9"/>
				<stop  offset="1" style="stop-color:#5BC5F8"/>
			</linearGradient>
			<path class="st2" d="M32.1,49.7c-6.1,0-11-4.9-11-11c0-6.2,4.9-11.5,10.7-11.5c6,0,11.3,5.4,11.3,11.5
				C43.1,44.8,38.2,49.7,32.1,49.7z"/>
			<path class="st3" d="M31.8,27.3c6.1,0,11.2,5.4,11.2,11.4s-4.9,10.9-10.9,10.9s-10.9-4.9-10.9-10.9S25.8,27.3,31.8,27.3 M31.8,27
				c-5.9,0-10.9,5.3-10.9,11.7c0,6.1,5,11.2,11.1,11.2s11.2-5,11.2-11.2C43.2,32.5,37.9,27,31.8,27L31.8,27z"/>
		</g>
		<g>
			<linearGradient id="SVGID_2_" gradientUnits="userSpaceOnUse" x1="43.5695" y1="5.7811" x2="43.5274" y2="17.8287">
				<stop  offset="0" style="stop-color:#5BC5F8"/>
				<stop  offset="1" style="stop-color:#2592F9"/>
			</linearGradient>
			<path class="st4" d="M43.5,18.2c-1,0-1.9-0.2-2.8-0.6c-1.7-0.7-3-2.1-3.6-3.8c-0.7-1.7-0.6-3.6,0.1-5.3c1.1-2.5,3.5-4.1,6.3-4.1
				c1,0,1.9,0.2,2.8,0.6c1.7,0.7,3,2.1,3.6,3.8c0.7,1.7,0.6,3.6-0.1,5.3C48.7,16.6,46.3,18.2,43.5,18.2z"/>
			<path class="st3" d="M43.6,4.6c0.9,0,1.9,0.2,2.7,0.6c3.4,1.5,4.9,5.5,3.4,8.9c-1.1,2.5-3.6,4-6.2,4c-0.9,0-1.9-0.2-2.7-0.6
				c-3.4-1.5-4.9-5.5-3.4-8.9C38.5,6.1,41,4.6,43.6,4.6 M43.6,4.4L43.6,4.4c-2.8,0-5.3,1.6-6.4,4.1c-0.8,1.7-0.8,3.6-0.1,5.4
				c0.7,1.7,2,3.1,3.7,3.9c0.9,0.4,1.9,0.6,2.8,0.6c2.8,0,5.3-1.6,6.4-4.1c0.8-1.7,0.8-3.6,0.1-5.4c-0.7-1.7-2-3.1-3.7-3.9
				C45.5,4.6,44.5,4.4,43.6,4.4L43.6,4.4z"/>
		</g>
		<g>
			<linearGradient id="SVGID_3_" gradientUnits="userSpaceOnUse" x1="14.9348" y1="4.1977" x2="14.9713" y2="14.6703">
				<stop  offset="0" style="stop-color:#5BC5F8"/>
				<stop  offset="1" style="stop-color:#2592F9"/>
			</linearGradient>
			<path class="st5" d="M15,15.4c-0.5,0-1-0.1-1.4-0.2c-1.8-0.3-3.3-1.4-4.3-2.9c-1-1.5-1.3-3.4-1-5.1c0.6-3.2,3.4-5.5,6.6-5.5
				c0.5,0,1,0.1,1.4,0.2c1.8,0.3,3.3,1.4,4.3,2.9c1,1.5,1.3,3.3,1,5.1C21,13.1,18.2,15.4,15,15.4z"/>
			<path class="st3" d="M14.9,1.8c0.5,0,0.9,0,1.4,0.2c3.6,0.7,6,4.3,5.2,7.9c-0.6,3.1-3.4,5.4-6.5,5.4c-0.5,0-0.9,0-1.4-0.2
				c-3.6-0.7-6-4.3-5.2-7.9C9,4.1,11.8,1.8,14.9,1.8 M14.9,1.6c-3.3,0-6.1,2.3-6.7,5.6c-0.4,1.8-0.1,3.6,1,5.2c1,1.6,2.6,2.6,4.4,3
				c0.5,0.1,1,0.2,1.4,0.2c3.3,0,6.1-2.3,6.7-5.6c0.4-1.8,0.1-3.6-1-5.2c-1-1.6-2.6-2.6-4.4-3C15.9,1.6,15.4,1.6,14.9,1.6L14.9,1.6z
				"/>
		</g>
		<g>
			<linearGradient id="SVGID_4_" gradientUnits="userSpaceOnUse" x1="39.2781" y1="66.8808" x2="39.22" y2="77.9758">
				<stop  offset="0" style="stop-color:#5BC5F8"/>
				<stop  offset="1" style="stop-color:#2592F9"/>
			</linearGradient>
			<path class="st6" d="M39.3,79.1c-3.2,0-5.9-2.1-6.7-5.2c-0.4-1.8-0.2-3.6,0.8-5.2c0.9-1.6,2.4-2.7,4.2-3.1
				c0.5-0.1,1.1-0.2,1.7-0.2c3.2,0,5.9,2.1,6.7,5.2c0.4,1.8,0.2,3.6-0.8,5.2c-0.9,1.6-2.4,2.7-4.2,3.1
				C40.4,79.1,39.8,79.1,39.3,79.1z"/>
			<path class="st3" d="M39.2,65.5c3,0,5.8,2,6.6,5.1c0.9,3.6-1.3,7.3-4.9,8.2c-0.5,0.1-1.1,0.2-1.6,0.2c-3,0-5.8-2-6.6-5.1
				c-0.9-3.6,1.3-7.3,4.9-8.2C38.1,65.6,38.7,65.5,39.2,65.5 M39.2,65.2L39.2,65.2c-0.6,0-1.1,0.1-1.7,0.2c-1.8,0.5-3.3,1.6-4.3,3.2
				c-1,1.6-1.2,3.5-0.8,5.3c0.8,3.1,3.6,5.3,6.8,5.3c0.6,0,1.1-0.1,1.7-0.2c1.8-0.5,3.3-1.6,4.3-3.2c1-1.6,1.2-3.5,0.8-5.3
				C45.3,67.4,42.5,65.2,39.2,65.2L39.2,65.2z"/>
		</g>
		<g>
			<linearGradient id="SVGID_5_" gradientUnits="userSpaceOnUse" x1="7.9001" y1="33.4783" x2="7.9001" y2="43.5932">
				<stop  offset="0" style="stop-color:#5BC5F8"/>
				<stop  offset="1" style="stop-color:#2592F9"/>
			</linearGradient>
			<path class="st7" d="M7.9,44.6c-3.8,0-6.8-3.1-6.8-6.8C1.1,34,4.1,31,7.9,31c3.8,0,6.8,3.1,6.8,6.8C14.7,41.6,11.7,44.6,7.9,44.6
				z"/>
			<path class="st3" d="M7.9,31.1c3.7,0,6.7,3,6.7,6.7s-3,6.7-6.7,6.7s-6.7-3-6.7-6.7S4.2,31.1,7.9,31.1 M7.9,30.8
				c-3.8,0-6.9,3.1-6.9,7s3.1,7,6.9,7s6.9-3.1,6.9-7S11.7,30.8,7.9,30.8L7.9,30.8z"/>
		</g>
		<g>
			<linearGradient id="SVGID_6_" gradientUnits="userSpaceOnUse" x1="13.2238" y1="55.5401" x2="13.3728" y2="66.2117">
				<stop  offset="0" style="stop-color:#5BC5F8"/>
				<stop  offset="1" style="stop-color:#2592F9"/>
			</linearGradient>
			<path class="st8" d="M13.3,67.8c-3.8,0-6.8-3.1-6.8-6.8s3.1-6.8,6.8-6.8c3.7,0,6.8,3.1,6.8,6.8C20.1,64.8,17.1,67.8,13.3,67.8z"
				/>
			<path class="st3" d="M13.3,54.3c3.6,0,6.7,3,6.7,6.7s-3,6.7-6.7,6.7s-6.7-3-6.7-6.7S9.6,54.3,13.3,54.3 M13.3,54
				c-3.8,0-6.9,3.1-6.9,7s3.1,7,6.9,7s6.9-3.1,6.9-7C20.2,57.2,17.1,54,13.3,54L13.3,54z"/>
		</g>
		<path class="st0" d="M35.8,27.3l3.9-10.5c0,0,0.4,0.3,1.1,0.6c0.5,0.2,1.3,0.4,1.3,0.4l-5.2,10.1L35.8,27.3z"/>
		<path class="st0" d="M33.1,49.9l3.4,16.3c0,0,0.5-0.2,1.2-0.4c0.5-0.1,1.4-0.2,1.4-0.2l-4.7-16L33.1,49.9z"/>
		<path class="st0" d="M23.1,38.5l-8.7,0.7c0,0,0.1-0.5,0.1-1.3c0-0.6-0.2-1.4-0.2-1.4l8.7,0.7v1.3H23.1z"/>
		<path class="st0" d="M26,48.9l-7.3,8.2c0,0-0.3-0.4-0.8-1c-0.4-0.4-1.1-0.9-1.1-0.9l8.3-7.3L26,48.9z"/>
		<path class="st0" d="M27.6,27.8l-9.8-13.3c0,0,0.5-0.2,1.1-0.6C19.4,13.6,20,13,20,13l8.6,14.3L27.6,27.8z"/>
		<path class="st9" d="M26.7,28.7l-0.6,3.7c1.8-2.1,3.9-3.1,6.9-3.1c5.4,0,9.3,4.3,9.3,9.7s-3.9,9.7-9.3,9.7s-9.7-4.3-9.7-9.7
			c0-1.1,0.2-2.2,0.5-3.2l1.6,1l-0.5-6.3l-6.5,1.3l1.9,0.7c-1.1,1.9-1.5,4.1-1.5,6.4c0,7,5.6,12.6,12.6,12.6S44,45.9,44,38.9
			s-5.6-12.6-12.6-12.6c-3.6,0-7.3,0.9-9.5,3.6L26.7,28.7z"/>
	</g>
</g>
</svg>
