<?xml version="1.0" encoding="utf-8"?>
<!-- Generator: Adobe Illustrator 23.0.1, SVG Export Plug-In . SVG Version: 6.00 Build 0)  -->
<svg version="1.1" id="katman_1" xmlns="http://www.w3.org/2000/svg" xmlns:xlink="http://www.w3.org/1999/xlink" x="0px" y="0px"
	 viewBox="0 0 16 16" style="enable-background:new 0 0 16 16;" xml:space="preserve">
<path d="M8.1,2.6c1.8,0,3.1,1.1,3.1,2.7c0,1.1-0.6,2-1.5,2.5s-1.2,1-1.2,1.7V10H7.2V9.3c0-1,0.5-1.6,1.5-2.2c0.8-0.5,1.2-1,1.2-1.8
	c0-0.9-0.7-1.6-1.8-1.6c-1.2,0-1.9,0.7-1.9,1.7H4.9C5,3.9,6,2.6,8.1,2.6z M6.9,12.4c0-0.6,0.4-1,1-1s1,0.4,1,1s-0.4,1-1,1
	S6.9,13,6.9,12.4z"/>
</svg>
