<?xml version="1.0" encoding="utf-8"?>
<!-- Generator: Adobe Illustrator 23.0.1, SVG Export Plug-In . SVG Version: 6.00 Build 0)  -->
<svg version="1.1" id="katman_1" xmlns="http://www.w3.org/2000/svg" xmlns:xlink="http://www.w3.org/1999/xlink" x="0px" y="0px"
	 viewBox="0 0 16 16" style="enable-background:new 0 0 16 16;" xml:space="preserve">
<path d="M14.3,14.3c-0.1,0-0.2,0.2-0.5,0.2L10.3,11c-0.2-0.2-0.2-0.5,0-0.7l0,0c0.2-0.2,0.5-0.2,0.7,0l3.5,3.5
	C14.5,14.1,14.4,14.2,14.3,14.3z"/>
<path d="M7.2,2.2c-2.8,0-5,2.3-5,5s2.3,5,5,5s5-2.2,5-5S9.9,2.2,7.2,2.2z M7.2,11.2c-2.2,0-4-1.8-4-4s1.8-4,4-4s4,1.8,4,4
	S9.4,11.2,7.2,11.2z"/>
</svg>
