<svg xmlns="http://www.w3.org/2000/svg" viewBox="0 0 16 16"><path fill="#f78f8f" d="M7.5,14.5c-3.859,0-7-3.14-7-7s3.141-7,7-7s7,3.14,7,7S11.359,14.5,7.5,14.5z M4.834,11.782 l0.671,0.294C6.147,12.357,6.818,12.5,7.5,12.5c2.757,0,5-2.243,5-5c0-0.754-0.175-1.554-0.445-2.039l-0.322-0.578L4.834,11.782z M7.5,2.5c-2.757,0-5,2.243-5,5c0,0.679,0.143,1.351,0.424,1.995l0.293,0.672l6.949-6.949L9.495,2.924 C8.853,2.643,8.182,2.5,7.5,2.5z"></path><path fill="#c74343" d="M7.5,1C11.084,1,14,3.916,14,7.5S11.084,14,7.5,14S1,11.084,1,7.5S3.916,1,7.5,1 M3.054,11.038 l1.036-1.036l5.913-5.913l1.036-1.036L9.696,2.466C8.989,2.157,8.251,2,7.5,2C4.467,2,2,4.467,2,7.5 c0,0.751,0.157,1.489,0.466,2.196L3.054,11.038 M7.5,13c3.033,0,5.5-2.467,5.5-5.5c0-0.663-0.134-1.611-0.509-2.283l-0.645-1.154 l-0.935,0.935l-5.913,5.913l-1.036,1.036l1.342,0.587C6.011,12.843,6.749,13,7.5,13 M7.5,0C3.358,0,0,3.358,0,7.5 C0,11.642,3.358,15,7.5,15S15,11.642,15,7.5C15,3.358,11.642,0,7.5,0L7.5,0z M3.382,9.295C3.141,8.744,3,8.14,3,7.5 C3,5.015,5.015,3,7.5,3c0.64,0,1.244,0.141,1.795,0.382L3.382,9.295L3.382,9.295z M7.5,12c-0.64,0-1.244-0.141-1.795-0.382 l5.913-5.913C11.858,6.135,12,6.86,12,7.5C12,9.985,9.985,12,7.5,12L7.5,12z"></path></svg>