<?xml version="1.0" encoding="utf-8"?>
<!-- Generator: Adobe Illustrator 23.1.1, SVG Export Plug-In . SVG Version: 6.00 Build 0)  -->
<svg version="1.1" id="katman_1" xmlns="http://www.w3.org/2000/svg" xmlns:xlink="http://www.w3.org/1999/xlink" x="0px" y="0px"
	 viewBox="0 0 16 16" style="enable-background:new 0 0 16 16;" xml:space="preserve">
<style type="text/css">
	.st0{fill:#525252;}
	.st1{fill:#B7B7B7;}
</style>
<g>
	<path class="st0" d="M12.1,3c0,0,0.7-0.2,0.9-1.3c0.1-1-1.2-1.7-2.1-1.7C9.8,0,8.3,0.7,8.1,1.7C8.1,0.6,6.4,0,5,0
		C4.1,0,2.9,0.8,3,1.8C3.2,2.7,3.8,3,3.9,3L12.1,3z M11,1C11.6,1.1,12,1.1,12,1.7c0,0.4-1,1.1-1.3,1.3H8.7c-0.1,0,0-0.6,0-0.7
		C9,1.7,9.7,0.8,11,1z M5.1,1c0.6,0,1.7,0,2.3,1.4c0,0,0.2,0.5,0.1,0.6H5.2C4.8,2.6,4,2.3,4.1,1.8C4.1,1.6,4.4,0.9,5.1,1z"/>
</g>
<path class="st0" d="M15,3H1C0.4,3,0,3.4,0,4v3h1v9h14V7h1V4.2C16,3.6,15.7,3,15,3z M6,15H2V7h4V15z M6,6H1V4.5C1,4.2,1.2,4,1.5,4H6
	V6z M9,14.5H7V4h2V14.5z M14,15h-4V7h4V15z M15,6h-5V4h4.5C14.8,4,15,4.2,15,4.5V6z"/>
<rect x="7" y="4" class="st1" width="2" height="11"/>
</svg>
