<?xml version="1.0" encoding="utf-8"?>
<!-- Generator: Adobe Illustrator 23.1.1, SVG Export Plug-In . SVG Version: 6.00 Build 0)  -->
<svg version="1.1" id="Capa_1" xmlns="http://www.w3.org/2000/svg" xmlns:xlink="http://www.w3.org/1999/xlink" x="0px" y="0px"
	 viewBox="0 0 16 16" style="enable-background:new 0 0 16 16;" xml:space="preserve">
<style type="text/css">
	.st0{fill:#525252;}
</style>
<path class="st0" d="M8.8,6.5C7.9,6,8.1,4.3,8.9,2.9C9.2,1.2,8.8,0.1,7.5,0C6.4,0.1,5.8,1.1,6.2,2.9c0.7,1.7,0.9,2.9,0.1,3.6
	C5.8,6.7,3.6,7.1,3,7.4v8.1V16h0.5H12v-0.5v-0.6v-3.4V10V8V7.5C11.7,7.3,9.6,6.8,8.8,6.5z M11,15H4c0-0.1,0-0.2,0.2-0.4
	c-0.1,0,0.5-0.6,1.3-1.5c0.9-0.8,1.1-0.8,1.6,0.1c0.4,1,1.1,0.7,1.8-1c0.2-0.5,0.4-0.8,0.6-0.8c0.4,0.1,0.7,0,1.4,1.9L11,15z
	 M10.5,10h-6c-0.7,0-0.7-1,0-1h6C11.2,9,11.2,10,10.5,10z"/>
</svg>
