<?xml version="1.0" encoding="utf-8"?>
<!-- Generator: Adobe Illustrator 22.1.0, SVG Export Plug-In . SVG Version: 6.00 Build 0)  -->
<svg version="1.2" baseProfile="tiny" id="Layer_1" xmlns="http://www.w3.org/2000/svg" xmlns:xlink="http://www.w3.org/1999/xlink"
	 x="0px" y="0px" viewBox="0 0 32 32" xml:space="preserve">
<g>
	<path fill="#B7B7B7" d="M30,22c0,0,0,1-1,1h-5v-2h3v-2H5v2h3c0,0.5,0,2,0,2H3c-0.5,0-1-0.5-1-1V9c0-0.5,0.5-1,1-1h1v2
		c0,2,1.6,2,2,2h20c2,0,2-1.6,2-2V8h0.9C29.5,8,30,8.5,30,9.1V22z"/>
	<path fill="#525252" d="M29.7,6H24V5V1c0-0.4-0.6-1-1-1H9C8.6,0,8,0.6,8,1v4v1H2.3C1,6,0,7.1,0,8.3v14.8C0,24.3,0.8,25,2,25h6v6
		c0,0.4,0.5,1,0.9,1h14.2c0.4,0,0.9-0.6,0.9-1v-3v-3h6c1.2,0,2-0.7,2-1.9V8.3C32,7.1,31,6,29.7,6z M24,8h2v2h-2V8z M10,2h12v7H10V2z
		 M6,8h2v2H6V8z M22,30H10v-8h12V30z M30,22c0,0,0,1-1,1h-5v-2h3v-2H5v2h3c0,0.5,0,2,0,2H3c-0.5,0-1-0.5-1-1V9c0-0.5,0.5-1,1-1h1v2
		c0,2,1.6,2,2,2h20c2,0,2-1.6,2-2V8h0.9C29.5,8,30,8.5,30,9.1V22z"/>
	<circle fill="#525252" cx="4.3" cy="15.7" r="1.3"/>
	<path fill="#525252" d="M18,27h-6c-0.6,0-1,0.5-1,1c0,0.6,0.5,1,1,1h6c0.6,0,1-0.4,1-1S18.5,27,18,27z"/>
	<path fill="#525252" d="M15,23h-3c-0.6,0-1,0.5-1,1c0,0.6,0.5,1,1,1h3c0.6,0,1-0.4,1-1S15.5,23,15,23z"/>
</g>
</svg>
