<?xml version="1.0" encoding="utf-8"?>
<!-- Generator: Adobe Illustrator 23.1.1, SVG Export Plug-In . SVG Version: 6.00 Build 0)  -->
<svg version="1.1" id="Layer_1" xmlns="http://www.w3.org/2000/svg" xmlns:xlink="http://www.w3.org/1999/xlink" x="0px" y="0px"
	 viewBox="0 0 16 16" style="enable-background:new 0 0 16 16;" xml:space="preserve">
<style type="text/css">
	.st0{fill:#B7B7B7;}
	.st1{fill:#525252;}
</style>
<g>
	<path class="st0" d="M15,4.5V11c0,0,0,0.5-0.5,0.5H12V10h1V9H3v1h1c0,0.2,0,1.5,0,1.5H1.5C1.2,11.5,1,11.2,1,11V4.5
		C1,4.2,1.2,4,1.5,4H2v1c0,1,0.8,1,1,1h10c1,0,1-0.8,1-1V4h0.5C14.8,4,15,4.2,15,4.5z"/>
	<path class="st1" d="M14.9,3H12V2.5v-2C12,0.3,11.7,0,11.5,0h-7C4.3,0,4,0.3,4,0.5v2V3H1.2C0.5,3,0,3.6,0,4.2V11c0,0.6,0.4,1,1,1
		l3,0v3.5C4,15.7,4.3,16,4.5,16h7.1c0.2,0,0.4-0.3,0.4-0.5V14v-2h3c0.6,0,1-0.4,1-1V4.2C16,3.6,15.5,3,14.9,3z M12,4h1v1h-1V4z M5,1
		h6l0,4H5L5,1z M3,4h1v1H3V4z M11,15H5v-4h6V15z M15,10.5c0,0,0,0.5-0.5,0.5H12l0-1h1V9L3,9l0,1h1c0,0.2,0,1,0,1l-2.5,0
		C1.3,11,1,10.8,1,10.5v-6C1,4.3,1.3,4,1.5,4H2v1c0,1,0.8,1,1,1h10c1,0,1-0.8,1-1V4h0.4C14.8,4,15,4.3,15,4.6V10.5z"/>
	<circle class="st1" cx="2.5" cy="7.5" r="0.5"/>
	<path class="st1" d="M9,14H6c-0.3,0-0.5,0.2-0.5,0.5C5.5,14.8,5.8,15,6,15h3c0.3,0,0.5-0.2,0.5-0.5S9.3,14,9,14z"/>
	<path class="st1" d="M7.7,12H6.2c-0.3,0-0.5,0.2-0.5,0.5c0,0.3,0.2,0.5,0.5,0.5h1.5c0.3,0,0.5-0.2,0.5-0.5S7.9,12,7.7,12z"/>
	<path class="st1" d="M7.7,3H6.2C5.9,3,5.7,3.3,5.7,3.5C5.7,3.8,5.9,4,6.2,4h1.5C8,4,8.2,3.8,8.2,3.5S7.9,3,7.7,3z"/>
</g>
</svg>
