<?xml version="1.0" encoding="utf-8"?>
<!-- Generator: Adobe Illustrator 23.1.1, SVG Export Plug-In . SVG Version: 6.00 Build 0)  -->
<svg version="1.1" id="Capa_1" xmlns="http://www.w3.org/2000/svg" xmlns:xlink="http://www.w3.org/1999/xlink" x="0px" y="0px"
	 viewBox="0 0 16 16" style="enable-background:new 0 0 16 16;" xml:space="preserve">
<style type="text/css">
	.st0{fill:#AFAFAF;}
	.st1{fill:#525252;}
	.st2{fill:#CFCFCF;}
</style>
<g>
	<path class="st0" d="M13.4,5.1C13.3,5,13.1,4.9,13,4.9c-0.3-0.1-0.7-0.2-1-0.2c-1,0-1.1-0.1-1.7,0.2c-0.1,0.1-0.1,0-0.1-0.2
		c0.1-0.6,0.3-1,0.3-2c0-0.4-0.1-0.5-0.1-0.9l-0.3-0.2c0,0,0-0.1-0.1-0.1c-0.1-0.1-0.3,0-0.5-0.1c0,0-0.8,0-1,0H5.9
		c-0.2,0-0.4,0.1-0.4,0.4v2.4c0.7,0,1.2,0.3,1.6,0.7C7.6,5.3,9,6,8.6,6.3c2.4,1.7,0.3,4.3-2,4.3c-0.1,0-0.2,0-0.3,0
		c-0.2,0.1-0.4,0.1-0.6,0.1c0,0,0,0-0.1,0v1.4c0,0.2,0.1,0.4,0.4,0.4h7.2c0.1,0,0.2-0.1,0.2-0.1c0.1-0.1,0.1-0.2,0.1-0.2
		c0-0.4,0-2.7,0-5.8v-1C13.5,5.2,13.5,5.2,13.4,5.1z"/>
	<path class="st1" d="M12.7,2.5C12,1.7,10.8,1.2,9.7,1H5.3C5.1,1,5,1.1,5,1.4v3.2c0,0,0.9,0,1,0V2.3C6,2.2,6.1,2,6.3,2h2.2
		c0.2,0,0.9,0,0.9,0c0.2,0,0.3,0,0.5,0c0,0,0.1,0,0.1,0.1l0,0c0,0.3,0.1,0.6,0.1,0.9c0,0.8-0.2,1.6-0.4,2.2c0,0.2,0,0.2,0.1,0.2
		c0.5-0.2,1-0.2,1.9-0.2c0.3,0,0.7,0.1,0.9,0.1c0.1,0,0.1,0.1,0.2,0.1c0.2,0,0.2,0,0.2,0.1v6c0,0.1,0,0.3-0.1,0.4
		c0,0.1-0.2,0.1-0.3,0.1H6.4c-0.2,0.1-0.5-0.2-0.5-0.5v-1H5v2.1C5,12.8,5.1,13,5.3,13h8.3c0.2,0,0.4-0.1,0.4-0.4v-7c0,0,0,0,0-0.1
		C14.1,4.5,13.6,3.5,12.7,2.5z M11.9,4.4c-0.3,0-0.9,0.1-1,0.2c0,0-0.1-0.1-0.1-0.2c0.1-0.3,0.1-1.1,0.1-1.2c0-0.4-0.1-0.8-0.1-1
		c0.4,0.1,0.9,0.5,1.4,1c0.4,0.5,0.8,1.1,0.9,1.5C12.7,4.6,12.3,4.4,11.9,4.4z"/>
	<path class="st1" d="M9,8c0,0.1,0,0.9,0,1h3V8H9z"/>
	<path class="st1" d="M9,6c0,0.2,0.3,0.8,0.3,1H12V6H9z"/>
	<rect x="10" y="10" class="st1" width="2" height="1"/>
</g>
<g>
	<path class="st2" d="M9.4,15.1c0,0.1,0,0.2-0.1,0.2c-0.1,0.1-0.1,0.1-0.2,0.1H1.9c-0.2,0-0.4-0.1-0.4-0.4V4.9
		c0-0.2,0.1-0.4,0.4-0.4c0.6,0,0.8,0,1.4,0c0.2,0,0.5,0,0.8,0c0.2,0,1.1,0,1.1,0c0.2,0,0.4,0,0.6,0.1C5.9,4.7,5.9,4.7,6,4.7l0,0.2
		c0.1,0.3,0.1,0.3,0.1,0.7c0,0.9-0.1,1.7-0.2,2.2C6,7.9,6,7.8,6.1,7.9C6.6,7.8,6.9,7.8,8,7.8c0.4,0,0.8,0.1,1.1,0.2
		c0.1,0,0.2,0.2,0.3,0.2c0.1,0.1,0.1,0.1,0.1,0.2c0,0.2,0,1,0,1.1C9.4,12.6,9.4,14.9,9.4,15.1z"/>
	<path class="st1" d="M10,9.5V8.6l0,0c0,0,0,0,0-0.1c-0.1-1-0.6-2.1-1.5-2.9C7.6,4.7,6.4,4.2,5.4,4l0,0h-1H3.3H1.4
		C1.1,4.1,1,4.2,1,4.4v11.2C1,15.9,1.1,16,1.4,16h8.3c0.2,0,0.3-0.1,0.3-0.4V9.5L10,9.5z M6.4,7.4c0.2-0.3,0.2-1,0.2-1.2
		c0-0.4-0.1-0.8-0.1-1.1C6.9,5.3,7.3,5.6,7.8,6c0.4,0.4,0.9,1,1.1,1.5C8.6,7.5,8,7.4,7.5,7.4C7.2,7.4,6.7,7.5,6.4,7.4
		C6.4,7.6,6.4,7.5,6.4,7.4z M9,14.5c0,0.1,0,0.3-0.1,0.4c-0.1,0-0.1,0.1-0.3,0.1H2.3C2.2,15,2,14.9,2,14.6V5.4C2,5.2,2.3,5,2.5,5
		C3.1,5,5,5,5,5c0.2,0,0.4,0.1,0.6,0.1c0.1,0.1,0.1,0.1,0.1,0.1s0,0.1,0.1,0.1c0.1,0.3,0.1,0.6,0.1,0.9c0,0.8-0.2,1.6-0.4,2.2
		c-0.1,0,0,0.1,0.1,0.1c0.5-0.2,1-0.3,2-0.2c0.4,0,0.4,0,0.7,0s0.4,0.1,0.4,0.2C9,8.6,9,8.9,9,8.9C9,9.1,9.1,14.2,9,14.5z"/>
	<rect x="3" y="13" class="st1" width="3.9" height="1"/>
	<rect x="3" y="11" class="st1" width="5" height="1"/>
	<rect x="3" y="9" class="st1" width="1.9" height="1"/>
</g>
</svg>
