<?xml version="1.0" encoding="utf-8"?>
<!-- Generator: Adobe Illustrator 23.1.1, SVG Export Plug-In . SVG Version: 6.00 Build 0)  -->
<svg version="1.1" id="Layer_1" xmlns="http://www.w3.org/2000/svg" xmlns:xlink="http://www.w3.org/1999/xlink" x="0px" y="0px"
	 viewBox="0 0 16 16" style="enable-background:new 0 0 16 16;" xml:space="preserve">
<style type="text/css">
	.st0{fill:#B7B7B7;}
	.st1{fill:#525252;}
</style>
<g>
	<rect x="0.5" y="1.5" class="st0" width="5" height="12"/>
	<path class="st1" d="M5,2v11H1V2H5 M6,1H5H1H0v1v11v1h1h4h1v-1V2V1L6,1z"/>
</g>
<rect x="7" class="st1" width="1" height="15"/>
<path class="st1" d="M9,1v13h6V1H9z M14,13h-4V2h4V13z"/>
<rect x="11" y="3" class="st1" width="2" height="1"/>
<rect x="11" y="5" class="st1" width="2" height="1"/>
<rect x="11" y="7" class="st1" width="2" height="1"/>
<rect x="11" y="9" class="st1" width="2" height="1"/>
<rect x="11" y="11" class="st1" width="2" height="1"/>
</svg>
