<svg xmlns="http://www.w3.org/2000/svg" xmlns:xlink="http://www.w3.org/1999/xlink" width="356" height="736" style="background:#fff" viewBox="0 0 356 736">
  <defs>
    <rect id="phn0-a" width="350" height="730" rx="60"/>
    <radialGradient id="phn0-e" cx="27.147%" cy="24.561%" r="76.898%" fx="27.147%" fy="24.561%">
      <stop offset="0%" stop-color="#0F66AA"/>
      <stop offset="55.086%" stop-color="#011437"/>
      <stop offset="72.294%" stop-color="#011437"/>
      <stop offset="100%" stop-color="#0A5397"/>
    </radialGradient>
    <radialGradient id="phn0-f" cx="15.855%" cy="71.108%" r="94.777%" fx="15.855%" fy="71.108%" gradientTransform="rotate(-39.211 .12 .725) scale(1 1.03842)">
      <stop offset="0%" stop-color="#2A9EC4" stop-opacity=".801"/>
      <stop offset="22.622%" stop-color="#2A9EC4" stop-opacity="0"/>
      <stop offset="77.054%" stop-color="#2A9EC4" stop-opacity="0"/>
      <stop offset="100%" stop-color="#2A9EC4" stop-opacity=".803"/>
    </radialGradient>
    <path id="phn0-d" d="M11.5,16 C13.9852815,16 16,13.9852815 16,11.5 C16,9.0147185 13.9852815,7 11.5,7 C9.0147185,7 7,9.0147185 7,11.5 C7,13.9852815 9.0147185,16 11.5,16 Z"/>
    <filter id="phn0-c" width="266.7%" height="266.7%" x="-83.3%" y="-72.2%" filterUnits="objectBoundingBox">
      <feMorphology in="SourceAlpha" operator="dilate" radius="1" result="shadowSpreadOuter1"/>
      <feOffset dy="1" in="shadowSpreadOuter1" result="shadowOffsetOuter1"/>
      <feGaussianBlur in="shadowOffsetOuter1" result="shadowBlurOuter1" stdDeviation="2"/>
      <feComposite in="shadowBlurOuter1" in2="SourceAlpha" operator="out" result="shadowBlurOuter1"/>
      <feColorMatrix in="shadowBlurOuter1" values="0 0 0 0 0   0 0 0 0 0   0 0 0 0 0  0 0 0 1 0"/>
    </filter>
    <filter id="phn0-g" width="233.3%" height="233.3%" x="-66.7%" y="-55.6%" filterUnits="objectBoundingBox">
      <feGaussianBlur in="SourceAlpha" result="shadowBlurInner1" stdDeviation=".5"/>
      <feOffset dy="1" in="shadowBlurInner1" result="shadowOffsetInner1"/>
      <feComposite in="shadowOffsetInner1" in2="SourceAlpha" k2="-1" k3="1" operator="arithmetic" result="shadowInnerInner1"/>
      <feColorMatrix in="shadowInnerInner1" values="0 0 0 0 0.164705882   0 0 0 0 0.619607843   0 0 0 0 0.768627451  0 0 0 0.198443244 0"/>
    </filter>
    <linearGradient id="phn0-h" x1="50%" x2="50%" y1="0%" y2="100%">
      <stop offset="0%" stop-color="#C34EF8"/>
      <stop offset="100%" stop-color="#5959D3"/>
    </linearGradient>
  </defs>
  <g fill="none" fill-rule="evenodd" transform="translate(2)">
    <g transform="translate(1)">
      <rect width="6" height="123" x="347" y="182" fill="#3F3F3F" rx="3"/>
      <rect width="52" height="4" x="220" fill="#22292C" rx="2"/>
      <g transform="translate(0 3)">
        <mask id="phn0-b" fill="#fff">
          <use xlink:href="#phn0-a"/>
        </mask>
        <use fill="#000" xlink:href="#phn0-a"/>
        <rect width="342" height="722" x="4" y="4" stroke="#979797" stroke-width="8" rx="60"/>
        <rect width="342" height="722" x="4" y="4" stroke="#000" stroke-width="8" rx="60"/>
        <rect width="351" height="731" x="-.5" y="-.5" stroke="#000" rx="60"/>
        <path fill="#3B3B3B" d="M-.5 58L-.5 58 348.5 58 348.5 58 348.5 58C348.5 27.6243388 323.875661 3 293.5 3L54.5 3 54.5 3C24.1243388 3-.5 27.6243388-.5 58zM3.5 672L3.5 672 3.5 672C3.5 702.375661 28.1243388 727 58.5 727L292 727 292 727C322.375661 727 347 702.375661 347 672L347 672 3.5 672z" mask="url(#phn0-b)"/>
      </g>
      <rect width="343" height="723" x="3.5" y="6.5" stroke="#7F7F7F" stroke-width="7" rx="60"/>
    </g>
    <g fill="#000" transform="translate(78 692)">
      <circle cx="149" cy="13" r="1"/>
      <circle cx="145" cy="13" r="1"/>
      <circle cx="141" cy="13" r="1"/>
      <circle cx="137" cy="13" r="1"/>
      <circle cx="133" cy="13" r="1"/>
      <circle cx="129" cy="13" r="1"/>
      <circle cx="125" cy="13" r="1"/>
      <circle cx="121" cy="13" r="1"/>
      <circle cx="117" cy="13" r="1"/>
      <circle cx="113" cy="13" r="1"/>
      <circle cx="109" cy="13" r="1"/>
      <circle cx="105" cy="13" r="1"/>
      <circle cx="101" cy="13" r="1"/>
      <circle cx="97" cy="13" r="1"/>
      <circle cx="93" cy="13" r="1"/>
      <circle cx="89" cy="13" r="1"/>
      <circle cx="85" cy="13" r="1"/>
      <circle cx="81" cy="13" r="1"/>
      <circle cx="77" cy="13" r="1"/>
      <circle cx="73" cy="13" r="1"/>
      <circle cx="69" cy="13" r="1"/>
      <circle cx="65" cy="13" r="1"/>
      <circle cx="61" cy="13" r="1"/>
      <circle cx="57" cy="13" r="1"/>
      <circle cx="53" cy="13" r="1"/>
      <circle cx="49" cy="13" r="1"/>
      <circle cx="45" cy="13" r="1"/>
      <circle cx="41" cy="13" r="1"/>
      <circle cx="37" cy="13" r="1"/>
      <circle cx="33" cy="13" r="1"/>
      <circle cx="29" cy="13" r="1"/>
      <circle cx="25" cy="13" r="1"/>
      <circle cx="21" cy="13" r="1"/>
      <circle cx="17" cy="13" r="1"/>
      <circle cx="13" cy="13" r="1"/>
      <circle cx="9" cy="13" r="1"/>
      <circle cx="5" cy="13" r="1"/>
      <circle cx="1" cy="13" r="1"/>
      <circle cx="149" cy="9" r="1"/>
      <circle cx="145" cy="9" r="1"/>
      <circle cx="141" cy="9" r="1"/>
      <circle cx="137" cy="9" r="1"/>
      <circle cx="133" cy="9" r="1"/>
      <circle cx="129" cy="9" r="1"/>
      <circle cx="125" cy="9" r="1"/>
      <circle cx="121" cy="9" r="1"/>
      <circle cx="117" cy="9" r="1"/>
      <circle cx="113" cy="9" r="1"/>
      <circle cx="109" cy="9" r="1"/>
      <circle cx="105" cy="9" r="1"/>
      <circle cx="101" cy="9" r="1"/>
      <circle cx="97" cy="9" r="1"/>
      <circle cx="93" cy="9" r="1"/>
      <circle cx="89" cy="9" r="1"/>
      <circle cx="85" cy="9" r="1"/>
      <circle cx="81" cy="9" r="1"/>
      <circle cx="77" cy="9" r="1"/>
      <circle cx="73" cy="9" r="1"/>
      <circle cx="69" cy="9" r="1"/>
      <circle cx="65" cy="9" r="1"/>
      <circle cx="61" cy="9" r="1"/>
      <circle cx="57" cy="9" r="1"/>
      <circle cx="53" cy="9" r="1"/>
      <circle cx="49" cy="9" r="1"/>
      <circle cx="45" cy="9" r="1"/>
      <circle cx="41" cy="9" r="1"/>
      <circle cx="37" cy="9" r="1"/>
      <circle cx="33" cy="9" r="1"/>
      <circle cx="29" cy="9" r="1"/>
      <circle cx="25" cy="9" r="1"/>
      <circle cx="21" cy="9" r="1"/>
      <circle cx="17" cy="9" r="1"/>
      <circle cx="13" cy="9" r="1"/>
      <circle cx="9" cy="9" r="1"/>
      <circle cx="5" cy="9" r="1"/>
      <circle cx="1" cy="9" r="1"/>
      <circle cx="149" cy="5" r="1"/>
      <circle cx="145" cy="5" r="1"/>
      <circle cx="141" cy="5" r="1"/>
      <circle cx="137" cy="5" r="1"/>
      <circle cx="133" cy="5" r="1"/>
      <circle cx="129" cy="5" r="1"/>
      <circle cx="125" cy="5" r="1"/>
      <circle cx="121" cy="5" r="1"/>
      <circle cx="117" cy="5" r="1"/>
      <circle cx="113" cy="5" r="1"/>
      <circle cx="109" cy="5" r="1"/>
      <circle cx="105" cy="5" r="1"/>
      <circle cx="101" cy="5" r="1"/>
      <circle cx="97" cy="5" r="1"/>
      <circle cx="93" cy="5" r="1"/>
      <circle cx="89" cy="5" r="1"/>
      <circle cx="85" cy="5" r="1"/>
      <circle cx="81" cy="5" r="1"/>
      <circle cx="77" cy="5" r="1"/>
      <circle cx="73" cy="5" r="1"/>
      <circle cx="69" cy="5" r="1"/>
      <circle cx="65" cy="5" r="1"/>
      <circle cx="61" cy="5" r="1"/>
      <circle cx="57" cy="5" r="1"/>
      <circle cx="53" cy="5" r="1"/>
      <circle cx="49" cy="5" r="1"/>
      <circle cx="45" cy="5" r="1"/>
      <circle cx="41" cy="5" r="1"/>
      <circle cx="37" cy="5" r="1"/>
      <circle cx="33" cy="5" r="1"/>
      <circle cx="29" cy="5" r="1"/>
      <circle cx="25" cy="5" r="1"/>
      <circle cx="21" cy="5" r="1"/>
      <circle cx="17" cy="5" r="1"/>
      <circle cx="13" cy="5" r="1"/>
      <circle cx="9" cy="5" r="1"/>
      <circle cx="5" cy="5" r="1"/>
      <circle cx="1" cy="5" r="1"/>
      <circle cx="149" cy="1" r="1"/>
      <circle cx="145" cy="1" r="1"/>
      <circle cx="141" cy="1" r="1"/>
      <circle cx="137" cy="1" r="1"/>
      <circle cx="133" cy="1" r="1"/>
      <circle cx="129" cy="1" r="1"/>
      <circle cx="125" cy="1" r="1"/>
      <circle cx="121" cy="1" r="1"/>
      <circle cx="117" cy="1" r="1"/>
      <circle cx="113" cy="1" r="1"/>
      <circle cx="109" cy="1" r="1"/>
      <circle cx="193" cy="13" r="1"/>
      <circle cx="189" cy="13" r="1"/>
      <circle cx="185" cy="13" r="1"/>
      <circle cx="181" cy="13" r="1"/>
      <circle cx="177" cy="13" r="1"/>
      <circle cx="173" cy="13" r="1"/>
      <circle cx="169" cy="13" r="1"/>
      <circle cx="165" cy="13" r="1"/>
      <circle cx="161" cy="13" r="1"/>
      <circle cx="157" cy="13" r="1"/>
      <circle cx="153" cy="13" r="1"/>
      <circle cx="193" cy="9" r="1"/>
      <circle cx="189" cy="9" r="1"/>
      <circle cx="185" cy="9" r="1"/>
      <circle cx="181" cy="9" r="1"/>
      <circle cx="177" cy="9" r="1"/>
      <circle cx="173" cy="9" r="1"/>
      <circle cx="169" cy="9" r="1"/>
      <circle cx="165" cy="9" r="1"/>
      <circle cx="161" cy="9" r="1"/>
      <circle cx="157" cy="9" r="1"/>
      <circle cx="153" cy="9" r="1"/>
      <circle cx="193" cy="5" r="1"/>
      <circle cx="189" cy="5" r="1"/>
      <circle cx="185" cy="5" r="1"/>
      <circle cx="181" cy="5" r="1"/>
      <circle cx="177" cy="5" r="1"/>
      <circle cx="173" cy="5" r="1"/>
      <circle cx="169" cy="5" r="1"/>
      <circle cx="165" cy="5" r="1"/>
      <circle cx="161" cy="5" r="1"/>
      <circle cx="157" cy="5" r="1"/>
      <circle cx="153" cy="5" r="1"/>
      <circle cx="193" cy="1" r="1"/>
      <circle cx="189" cy="1" r="1"/>
      <circle cx="185" cy="1" r="1"/>
      <circle cx="181" cy="1" r="1"/>
      <circle cx="177" cy="1" r="1"/>
      <circle cx="173" cy="1" r="1"/>
      <circle cx="169" cy="1" r="1"/>
      <circle cx="165" cy="1" r="1"/>
      <circle cx="161" cy="1" r="1"/>
      <circle cx="157" cy="1" r="1"/>
      <circle cx="153" cy="1" r="1"/>
      <circle cx="105" cy="1" r="1"/>
      <circle cx="101" cy="1" r="1"/>
      <circle cx="97" cy="1" r="1"/>
      <circle cx="93" cy="1" r="1"/>
      <circle cx="89" cy="1" r="1"/>
      <circle cx="85" cy="1" r="1"/>
      <circle cx="81" cy="1" r="1"/>
      <circle cx="77" cy="1" r="1"/>
      <circle cx="73" cy="1" r="1"/>
      <circle cx="69" cy="1" r="1"/>
      <circle cx="65" cy="1" r="1"/>
      <circle cx="61" cy="1" r="1"/>
      <circle cx="57" cy="1" r="1"/>
      <circle cx="53" cy="1" r="1"/>
      <circle cx="49" cy="1" r="1"/>
      <circle cx="45" cy="1" r="1"/>
      <circle cx="41" cy="1" r="1"/>
      <circle cx="37" cy="1" r="1"/>
      <circle cx="33" cy="1" r="1"/>
      <circle cx="29" cy="1" r="1"/>
      <circle cx="25" cy="1" r="1"/>
      <circle cx="21" cy="1" r="1"/>
      <circle cx="17" cy="1" r="1"/>
      <circle cx="13" cy="1" r="1"/>
      <circle cx="9" cy="1" r="1"/>
      <circle cx="5" cy="1" r="1"/>
      <circle cx="1" cy="1" r="1"/>
    </g>
    <g transform="translate(78 29)">
      <g fill="#000" transform="translate(0 6)">
        <circle cx="149" cy="13" r="1"/>
        <circle cx="145" cy="13" r="1"/>
        <circle cx="141" cy="13" r="1"/>
        <circle cx="137" cy="13" r="1"/>
        <circle cx="133" cy="13" r="1"/>
        <circle cx="129" cy="13" r="1"/>
        <circle cx="125" cy="13" r="1"/>
        <circle cx="121" cy="13" r="1"/>
        <circle cx="117" cy="13" r="1"/>
        <circle cx="113" cy="13" r="1"/>
        <circle cx="109" cy="13" r="1"/>
        <circle cx="105" cy="13" r="1"/>
        <circle cx="101" cy="13" r="1"/>
        <circle cx="97" cy="13" r="1"/>
        <circle cx="93" cy="13" r="1"/>
        <circle cx="89" cy="13" r="1"/>
        <circle cx="85" cy="13" r="1"/>
        <circle cx="81" cy="13" r="1"/>
        <circle cx="77" cy="13" r="1"/>
        <circle cx="73" cy="13" r="1"/>
        <circle cx="69" cy="13" r="1"/>
        <circle cx="65" cy="13" r="1"/>
        <circle cx="61" cy="13" r="1"/>
        <circle cx="57" cy="13" r="1"/>
        <circle cx="53" cy="13" r="1"/>
        <circle cx="49" cy="13" r="1"/>
        <circle cx="45" cy="13" r="1"/>
        <circle cx="41" cy="13" r="1"/>
        <circle cx="37" cy="13" r="1"/>
        <circle cx="33" cy="13" r="1"/>
        <circle cx="29" cy="13" r="1"/>
        <circle cx="25" cy="13" r="1"/>
        <circle cx="21" cy="13" r="1"/>
        <circle cx="17" cy="13" r="1"/>
        <circle cx="13" cy="13" r="1"/>
        <circle cx="9" cy="13" r="1"/>
        <circle cx="5" cy="13" r="1"/>
        <circle cx="1" cy="13" r="1"/>
        <circle cx="149" cy="9" r="1"/>
        <circle cx="145" cy="9" r="1"/>
        <circle cx="141" cy="9" r="1"/>
        <circle cx="137" cy="9" r="1"/>
        <circle cx="133" cy="9" r="1"/>
        <circle cx="129" cy="9" r="1"/>
        <circle cx="125" cy="9" r="1"/>
        <circle cx="121" cy="9" r="1"/>
        <circle cx="117" cy="9" r="1"/>
        <circle cx="113" cy="9" r="1"/>
        <circle cx="109" cy="9" r="1"/>
        <circle cx="105" cy="9" r="1"/>
        <circle cx="101" cy="9" r="1"/>
        <circle cx="97" cy="9" r="1"/>
        <circle cx="93" cy="9" r="1"/>
        <circle cx="89" cy="9" r="1"/>
        <circle cx="85" cy="9" r="1"/>
        <circle cx="81" cy="9" r="1"/>
        <circle cx="77" cy="9" r="1"/>
        <circle cx="73" cy="9" r="1"/>
        <circle cx="69" cy="9" r="1"/>
        <circle cx="65" cy="9" r="1"/>
        <circle cx="61" cy="9" r="1"/>
        <circle cx="57" cy="9" r="1"/>
        <circle cx="53" cy="9" r="1"/>
        <circle cx="49" cy="9" r="1"/>
        <circle cx="45" cy="9" r="1"/>
        <circle cx="41" cy="9" r="1"/>
        <circle cx="37" cy="9" r="1"/>
        <circle cx="33" cy="9" r="1"/>
        <circle cx="29" cy="9" r="1"/>
        <circle cx="25" cy="9" r="1"/>
        <circle cx="21" cy="9" r="1"/>
        <circle cx="17" cy="9" r="1"/>
        <circle cx="13" cy="9" r="1"/>
        <circle cx="9" cy="9" r="1"/>
        <circle cx="5" cy="9" r="1"/>
        <circle cx="1" cy="9" r="1"/>
        <circle cx="149" cy="5" r="1"/>
        <circle cx="145" cy="5" r="1"/>
        <circle cx="141" cy="5" r="1"/>
        <circle cx="137" cy="5" r="1"/>
        <circle cx="133" cy="5" r="1"/>
        <circle cx="129" cy="5" r="1"/>
        <circle cx="125" cy="5" r="1"/>
        <circle cx="121" cy="5" r="1"/>
        <circle cx="117" cy="5" r="1"/>
        <circle cx="113" cy="5" r="1"/>
        <circle cx="109" cy="5" r="1"/>
        <circle cx="105" cy="5" r="1"/>
        <circle cx="101" cy="5" r="1"/>
        <circle cx="97" cy="5" r="1"/>
        <circle cx="93" cy="5" r="1"/>
        <circle cx="89" cy="5" r="1"/>
        <circle cx="85" cy="5" r="1"/>
        <circle cx="81" cy="5" r="1"/>
        <circle cx="77" cy="5" r="1"/>
        <circle cx="73" cy="5" r="1"/>
        <circle cx="69" cy="5" r="1"/>
        <circle cx="65" cy="5" r="1"/>
        <circle cx="61" cy="5" r="1"/>
        <circle cx="57" cy="5" r="1"/>
        <circle cx="53" cy="5" r="1"/>
        <circle cx="49" cy="5" r="1"/>
        <circle cx="45" cy="5" r="1"/>
        <circle cx="41" cy="5" r="1"/>
        <circle cx="37" cy="5" r="1"/>
        <circle cx="33" cy="5" r="1"/>
        <circle cx="29" cy="5" r="1"/>
        <circle cx="25" cy="5" r="1"/>
        <circle cx="21" cy="5" r="1"/>
        <circle cx="17" cy="5" r="1"/>
        <circle cx="13" cy="5" r="1"/>
        <circle cx="9" cy="5" r="1"/>
        <circle cx="5" cy="5" r="1"/>
        <circle cx="1" cy="5" r="1"/>
        <circle cx="149" cy="1" r="1"/>
        <circle cx="145" cy="1" r="1"/>
        <circle cx="141" cy="1" r="1"/>
        <circle cx="137" cy="1" r="1"/>
        <circle cx="133" cy="1" r="1"/>
        <circle cx="129" cy="1" r="1"/>
        <circle cx="125" cy="1" r="1"/>
        <circle cx="121" cy="1" r="1"/>
        <circle cx="117" cy="1" r="1"/>
        <circle cx="113" cy="1" r="1"/>
        <circle cx="109" cy="1" r="1"/>
        <circle cx="105" cy="1" r="1"/>
        <circle cx="101" cy="1" r="1"/>
        <circle cx="97" cy="1" r="1"/>
        <circle cx="93" cy="1" r="1"/>
        <circle cx="89" cy="1" r="1"/>
        <circle cx="85" cy="1" r="1"/>
        <circle cx="81" cy="1" r="1"/>
        <circle cx="77" cy="1" r="1"/>
        <circle cx="73" cy="1" r="1"/>
        <circle cx="69" cy="1" r="1"/>
        <circle cx="65" cy="1" r="1"/>
        <circle cx="61" cy="1" r="1"/>
        <circle cx="57" cy="1" r="1"/>
        <circle cx="53" cy="1" r="1"/>
        <circle cx="49" cy="1" r="1"/>
        <circle cx="45" cy="1" r="1"/>
        <circle cx="41" cy="1" r="1"/>
        <circle cx="37" cy="1" r="1"/>
        <circle cx="33" cy="1" r="1"/>
        <circle cx="29" cy="1" r="1"/>
        <circle cx="25" cy="1" r="1"/>
        <circle cx="21" cy="1" r="1"/>
        <circle cx="17" cy="1" r="1"/>
        <circle cx="13" cy="1" r="1"/>
        <circle cx="9" cy="1" r="1"/>
        <circle cx="5" cy="1" r="1"/>
        <circle cx="1" cy="1" r="1"/>
      </g>
      <g transform="translate(176)">
        <circle cx="11.5" cy="11.5" r="11.5" fill="#157EFB"/>
        <circle cx="11.5" cy="11.5" r="11.5" fill="#020612"/>
        <circle cx="11.5" cy="11.5" r="8.5" fill="#242424"/>
        <circle cx="11.5" cy="11.5" r="5.5" fill="#1F1F1F"/>
        <use fill="#000" filter="url(#phn0-c)" xlink:href="#phn0-d"/>
        <use fill="url(#phn0-e)" xlink:href="#phn0-d"/>
        <use fill="url(#phn0-f)" xlink:href="#phn0-d"/>
        <use fill="#000" filter="url(#phn0-g)" xlink:href="#phn0-d"/>
        <path stroke="#000" stroke-opacity=".195" d="M11.5,16.5 C8.73857613,16.5 6.5,14.2614239 6.5,11.5 C6.5,8.73857613 8.73857613,6.5 11.5,6.5 C14.2614239,6.5 16.5,8.73857613 16.5,11.5 C16.5,14.2614239 14.2614239,16.5 11.5,16.5 Z"/>
      </g>
      <rect width="5" height="18" x="159" y="4" fill="#131313" rx="2.5"/>
    </g>
    <g fill="#22292C" transform="translate(0 2)">
      <path d="M343.75271,675 C343.612327,677.424993 343,681 343,681 L351.268467,681 C351.268467,681 351.91381,676.504474 352,675 C351.161859,675.009602 346.055879,675 343.75271,675 Z"/>
      <path d="M0.775008341,675 C0.636341533,677.420044 4.19570974e-16,681 4.19570974e-16,681 L8.44056862,680.965723 L9,675 L0.775008341,675 Z" transform="matrix(-1 0 0 1 9 0)"/>
      <g transform="rotate(-180 176 32.5)">
        <path d="M344 0C344 2.36817789 344 6 344 6L352 6C352 6 351.873452 1.50140381 352 0 350.7694.00958251953 347.381626 0 344 0zM8 .0751953125L8 6 0 6C0 6 .0794523058 1.50140381 0 0 .772625784.00958251953 5.87686456.0751953125 8 .0751953125L8 .0751953125z"/>
      </g>
      <path d="M294.879019,2 C294.879019,2 294.622931,5.21795654 294,8 L302.225636,8 C302.225636,8 303.189359,2.75177002 302.966571,2 C300.843179,2.00000001 294.879019,2 294.879019,2 Z" transform="rotate(-90 298.5 5)"/>
    </g>
    <g fill="url(#phn0-h)" transform="translate(21 74)">
      <rect width="310" height="588"/>
    </g>
  </g>
</svg>
