<svg xmlns="http://www.w3.org/2000/svg" viewBox="0 0 16 16"><path fill="#ffeea3" d="M2.673 10.966L11.037 0.744 14.256 3.963 4.034 12.327z"></path><path fill="#f5c276" d="M11.074,1.488l2.437,2.437l-9.444,7.727l-0.72-0.72L11.074,1.488 M11,0L2,11l2,2l11-9L11,0L11,0z"></path><path fill="#b0c1d4" d="M4.019,13.505c-0.159,0-0.307-0.061-0.418-0.172l-1.929-1.929c-0.23-0.23-0.23-0.605,0-0.836 l1.189-1.189l2.765,2.765l-1.19,1.19C4.326,13.444,4.177,13.505,4.019,13.505z"></path><path fill="#66798f" d="M2.861,10.086l2.058,2.058l-0.836,0.836c-0.017,0.017-0.039,0.025-0.064,0.025 s-0.048-0.009-0.064-0.025L2.025,11.05c-0.034-0.034-0.034-0.095,0-0.129L2.861,10.086 M2.861,8.671l-1.543,1.543 c-0.424,0.424-0.424,1.119,0,1.543l1.929,1.929c0.212,0.212,0.492,0.318,0.772,0.318s0.559-0.106,0.772-0.318l1.543-1.543 L2.861,8.671L2.861,8.671z"></path><path fill="#66798f" d="M2 12H3V16H2z"></path><path fill="#66798f" d="M1 15H4V16H1z"></path></svg>