<svg xmlns="http://www.w3.org/2000/svg" viewBox="0 0 16 16"><path fill="#e1ebf2" d="M6.5,9.5c-1.103,0-2-0.897-2-2v-5c0-1.103,0.897-2,2-2s2,0.897,2,2v5C8.5,8.603,7.603,9.5,6.5,9.5z"></path><path fill="#788b9c" d="M6.5,1C7.327,1,8,1.673,8,2.5v5C8,8.327,7.327,9,6.5,9S5,8.327,5,7.5v-5C5,1.673,5.673,1,6.5,1 M6.5,0C5.125,0,4,1.125,4,2.5v5C4,8.875,5.125,10,6.5,10S9,8.875,9,7.5v-5C9,1.125,7.875,0,6.5,0L6.5,0z"></path><path fill="#f78f8f" d="M6.5,15.5c-1.654,0-3-1.346-3-3c0-0.786,0.305-1.529,0.857-2.095L4.5,10.26V5.5h4v4.76l0.143,0.146 C9.195,10.971,9.5,11.714,9.5,12.5C9.5,14.154,8.154,15.5,6.5,15.5z"></path><path fill="#c74343" d="M8 6v4.056.408l.285.291C8.746 11.226 9 11.846 9 12.5 9 13.878 7.879 15 6.5 15S4 13.878 4 12.5c0-.654.254-1.274.715-1.745L5 10.463v-.408V6H8M9 5H4v5.056c-.617.631-1 1.492-1 2.444C3 14.433 4.567 16 6.5 16s3.5-1.567 3.5-3.5c0-.952-.383-1.813-1-2.444V5L9 5zM11 3H14V4H11zM11 1H14V2H11zM11 5H14V6H11z"></path><path fill="#4e7ab5" d="M11 7H14V8H11zM11 9H14V10H11zM11 11H14V12H11z"></path></svg>