<svg xmlns="http://www.w3.org/2000/svg" viewBox="0 0 16 16"><path fill="#839cb2" d="M8,14.5c-3.032,0-5.5-2.467-5.5-5.5c0-0.959,0.256-1.909,0.739-2.746L3.75,5.371L2.739,5.508 c-0.142,0.02-0.282,0.029-0.42,0.029c-0.59,0-1.105-0.178-1.416-0.488c-0.738-0.738-0.424-2.3,0.687-3.411 c0.683-0.683,1.551-1.09,2.322-1.09c0.313,0,0.755,0.07,1.089,0.404c0.482,0.483,0.626,1.412,0.356,2.313L5.066,4.242l0.951-0.368 C6.66,3.626,7.327,3.5,8,3.5c0.682,0,1.354,0.128,2,0.381l0.974,0.382l-0.314-0.998c-0.289-0.919-0.153-1.868,0.34-2.362 C11.333,0.57,11.775,0.5,12.088,0.5c0.771,0,1.64,0.407,2.322,1.09c1.11,1.11,1.425,2.673,0.687,3.411 c-0.31,0.31-0.825,0.487-1.414,0.487c-0.147,0-0.299-0.011-0.45-0.033l-1.036-0.151l0.534,0.901C13.233,7.054,13.5,8.021,13.5,9 C13.5,12.033,11.032,14.5,8,14.5z"></path><path fill="#66798f" d="M12.088,1c0.642,0,1.378,0.353,1.969,0.944c0.999,0.999,1.163,2.227,0.686,2.704 c-0.214,0.214-0.61,0.341-1.06,0.341c-0.124,0-0.251-0.009-0.378-0.028l-1.663-0.242l-0.506-1.603 c-0.228-0.723-0.137-1.504,0.217-1.857C11.565,1.045,11.87,1,12.088,1 M3.912,1.049c0.218,0,0.523,0.045,0.735,0.257 c0.351,0.351,0.446,1.098,0.231,1.817L4.384,4.78L2.672,5.013C2.553,5.029,2.435,5.037,2.319,5.037 c-0.451,0-0.848-0.128-1.062-0.342C0.78,4.219,0.945,2.991,1.943,1.992C2.534,1.401,3.27,1.049,3.912,1.049 M8,4 c0.618,0,1.23,0.117,1.818,0.347l1.601,0.627L12.3,6.46C12.758,7.233,13,8.111,13,9c0,2.757-2.243,5-5,5s-5-2.243-5-5 c0-0.872,0.233-1.735,0.673-2.496l0.883-1.528l1.642-0.636C6.782,4.115,7.388,4,8,4 M12.088,0c-0.562,0-1.071,0.179-1.442,0.55 c-0.633,0.633-0.806,1.778-0.463,2.865C9.505,3.151,8.771,3,8,3C7.236,3,6.509,3.148,5.837,3.408 c0.319-1.07,0.14-2.187-0.483-2.81c-0.371-0.371-0.881-0.55-1.442-0.55c-0.871,0-1.869,0.43-2.676,1.236 C-0.09,2.612-0.398,4.455,0.55,5.403c0.42,0.42,1.065,0.635,1.769,0.635c0.16,0,0.324-0.011,0.488-0.034C2.297,6.886,2,7.907,2,9 c0,3.314,2.686,6,6,6s6-2.686,6-6c0-1.115-0.31-2.156-0.84-3.05c0.176,0.026,0.351,0.038,0.522,0.038 c0.703,0,1.348-0.215,1.768-0.634c0.948-0.948,0.64-2.791-0.686-4.118C13.957,0.43,12.959,0,12.088,0L12.088,0z"></path><path fill="#fff9de" d="M11.934,10.745c0-0.002,0.001-0.004,0-0.006l-0.001-0.003C11.926,10.329,11.6,10,11.197,10   c-0.18,0-0.343,0.068-0.471,0.177c0.301-0.691,0.578-1.497,0.676-2.055c0.004-0.017,0.006-0.034,0.009-0.051    c0.019-0.116,0.032-0.224,0.032-0.312c0-0.001-0.001-0.003-0.001-0.004c0-0.002,0.001-0.003,0.001-0.005    c0-0.966-0.771-1.75-1.721-1.75S8,6.784,8,7.75C8,6.784,7.229,6,6.279,6S4.557,6.784,4.557,7.75c0,0.002,0.001,0.003,0.001,0.005    c0,0.002-0.001,0.003-0.001,0.004c0,0.497,0.269,1.503,0.622,2.348C5.069,10.041,4.941,10,4.803,10c-0.407,0-0.738,0.336-0.738,0.75 v0v0C4.053,11.892,5.438,14,8,14s3.887-2.044,3.93-3.2c0.001-0.017,0.005-0.033,0.005-0.05 C11.935,10.748,11.934,10.747,11.934,10.745z"></path><path fill="#bdccd4" d="M8 11A1 0.5 0 1 0 8 12A1 0.5 0 1 0 8 11Z"></path><path fill="#36404d" d="M8,11c-0.552,0-1,0.224-1,0.5S7.448,12,8,12s1-0.224,1-0.5S8.552,11,8,11L8,11z"></path><g><path fill="#4b6477" d="M9.5 8A0.5 1 0 1 0 9.5 10A0.5 1 0 1 0 9.5 8Z"></path><path fill="#36404d" d="M9.5,8C9.224,8,9,8.448,9,9s0.224,1,0.5,1S10,9.552,10,9S9.776,8,9.5,8L9.5,8z"></path></g><g><path fill="#4b6477" d="M6.508 8A0.5 1 0 1 0 6.508 10A0.5 1 0 1 0 6.508 8Z"></path><path fill="#36404d" d="M6.508,8c-0.276,0-0.5,0.448-0.5,1s0.224,1,0.5,1s0.5-0.448,0.5-1S6.784,8,6.508,8L6.508,8z"></path></g></svg>