<svg xmlns="http://www.w3.org/2000/svg" viewBox="0 0 16 16"><path fill="#8b75a1" d="M2 1H7V3H2z"></path><path fill="#dcd5f2" d="M1,15.5c-0.276,0-0.5-0.225-0.5-0.5V3c0-0.275,0.224-0.5,0.5-0.5h7c0.276,0,0.5,0.225,0.5,0.5v12 c0,0.275-0.224,0.5-0.5,0.5H1z"></path><path fill="#8b75a1" d="M8,3v12H1V3H8 M8,2H1C0.45,2,0,2.45,0,3v12c0,0.55,0.45,1,1,1h7c0.55,0,1-0.45,1-1V3 C9,2.45,8.55,2,8,2L8,2z"></path><path fill="#8bb7f0" d="M4.5 6.5H14.5V11.5H4.5z"></path><path fill="#4e7ab5" d="M14,7v4H5V7H14 M15,6H4v6h11V6L15,6z"></path><path fill="#4e7ab5" d="M14 5v1H5V5H14M15 4H4v3h11V4L15 4zM14 12v1H5v-1H14M15 11H4v3h11V11L15 11z"></path><path fill="#4e7ab5" d="M6 4H7V7H6zM8 4H9V7H8zM10 4H11V7H10zM12 4H13V7H12zM14 4H15V7H14zM14 11H15V14H14zM6 11H7V14H6zM8 11H9V14H8zM10 11H11V14H10zM12 11H13V14H12z"></path><path fill="#8b75a1" d="M4 4H5V14H4z"></path></svg>