<?xml version="1.0" encoding="utf-8"?>
<!-- Generator: Adobe Illustrator 22.1.0, SVG Export Plug-In . SVG Version: 6.00 Build 0)  -->
<svg version="1.2" baseProfile="tiny" id="katman_1"
	 xmlns="http://www.w3.org/2000/svg" xmlns:xlink="http://www.w3.org/1999/xlink" x="0px" y="0px" viewBox="0 0 16 16"
	 xml:space="preserve">
<path fill="#FFC49C" d="M0.5,1.5h15v13h-15V1.5z"/>
<path fill="#A16A4A" d="M15,2v12H1V2H15 M16,1H0v14h16V1L16,1z"/>
<path fill="#C2805A" d="M10.9,7.8L8,10.2l4,3.8h3v-2.4L10.9,7.8z"/>
<path fill="#FFFFFF" d="M12,4c-0.6,0-1,0.4-1,1s0.4,1,1,1s1-0.4,1-1S12.6,4,12,4z"/>
<path fill="#E09367" d="M12.8,14H1v-3l4.7-4.1L12.8,14z"/>
<g>
	<path fill="#FFFFFF" d="M14,3v10H2V3H14 M15,2H1v12h14V2L15,2z"/>
</g>
<g>
	<path fill="#8BB7F0" d="M8.5,7.9l6.5,3.6l-6.5,3.6V7.9z"/>
	<path fill="#4E7AB5" d="M9,8.7l5,2.8l-5,2.8V8.7 M8,7v9l8-4.5L8,7L8,7z"/>
</g>
</svg>
