<?xml version="1.0" encoding="utf-8"?>
<!-- Generator: Adobe Illustrator 22.1.0, SVG Export Plug-In . SVG Version: 6.00 Build 0)  -->
<svg version="1.1" id="katman_1" xmlns="http://www.w3.org/2000/svg" xmlns:xlink="http://www.w3.org/1999/xlink" x="0px" y="0px"
	 viewBox="0 0 16 16" style="enable-background:new 0 0 16 16;" xml:space="preserve">
<style type="text/css">
	.st0{fill:#C8D1DB;}
	.st1{fill:#788B9C;}
	.st2{fill:#FFFFFF;}
	.st3{fill:#8BB7F0;}
	.st4{fill:#4E7AB5;}
</style>
<path class="st0" d="M0.5,3.5h15.1v12H0.5V3.5z"/>
<path class="st1" d="M15,3v12H1V3H15 M16,2H0v14h16V2L16,2z"/>
<path class="st1" d="M0,0h16v4H0V0z"/>
<path class="st0" d="M7,1h8v2H7V1z"/>
<path class="st0" d="M2,1C1.4,1,1,1.4,1,2s0.4,1,1,1s1-0.4,1-1S2.6,1,2,1z M5,1C4.4,1,4,1.4,4,2s0.4,1,1,1s1-0.4,1-1S5.6,1,5,1z"/>
<path class="st2" d="M6,5h8v2H6V5z"/>
<path class="st1" d="M2,6h3v1H2V6z"/>
<path class="st2" d="M6,8h8v2H6V8z"/>
<path class="st1" d="M2,9h3v1H2V9z"/>
<g>
	<path class="st3" d="M6.7,11.5h6.7v1H6.7V11.5z"/>
	<path class="st4" d="M14,11H6v2h8V11z"/>
</g>
</svg>
