<svg xmlns="http://www.w3.org/2000/svg" viewBox="0 0 16 16"><path fill="#b0c1d4" d="M3.7,11.5H1c-0.3,0-0.5-0.2-0.5-0.5V5c0-0.3,0.2-0.5,0.5-0.5h2.7L8.5,1v14L3.7,11.5z"></path><path fill="#66798f" d="M8,2V14l-3.9-2.8L3.8,11H3.5H1V5h2.5h0.3l0.3-0.2L8,2 M9,0L3.5,4H1C0.4,4,0,4.4,0,5v6 c0,0.6,0.4,1,1,1h2.5L9,16V0L9,0z"></path><path fill="#66798f" d="M3 4H4V12H3z"></path><path fill="#8bb7f0" d="M10.8,14.8l-0.3-1C13.2,13.1,15,10.7,15,8c0-2.7-1.8-5.1-4.5-5.8l0.3-1C13.9,2.1,16,4.8,16,8 S13.9,13.9,10.8,14.8z"></path><path fill="#8bb7f0" d="M10.3,12.8l-0.3-1c1.8-0.5,3-2,3-3.9s-1.2-3.4-3-3.9l0.3-1C12.5,3.8,14,5.7,14,8S12.5,12.2,10.3,12.8 z"></path><path fill="#8bb7f0" d="M9.7,10.9l-0.2-1C10.4,9.7,11,8.9,11,8c0-0.9-0.6-1.7-1.5-1.9l0.2-1C11.1,5.4,12,6.6,12,8 C12,9.4,11.1,10.6,9.7,10.9z"></path></svg>