<svg xmlns="http://www.w3.org/2000/svg" viewBox="0 0 16 16"><path fill="#ffeea3" d="M12 1.5A2.5 2.5 0 1 0 12 6.5A2.5 2.5 0 1 0 12 1.5Z"></path><path fill="#ba9b48" d="M12,2c1.103,0,2,0.897,2,2s-0.897,2-2,2s-2-0.897-2-2S10.897,2,12,2 M12,1c-1.657,0-3,1.343-3,3 s1.343,3,3,3s3-1.343,3-3S13.657,1,12,1L12,1z"></path><path fill="#f78f8f" d="M4 1.5A2.5 2.5 0 1 0 4 6.5A2.5 2.5 0 1 0 4 1.5Z"></path><path fill="#c74343" d="M4,2c1.103,0,2,0.897,2,2S5.103,6,4,6S2,5.103,2,4S2.897,2,4,2 M4,1C2.343,1,1,2.343,1,4 s1.343,3,3,3s3-1.343,3-3S5.657,1,4,1L4,1z"></path><g><path fill="#bae0bd" d="M12 9.5A2.5 2.5 0 1 0 12 14.5A2.5 2.5 0 1 0 12 9.5Z"></path><path fill="#5e9c76" d="M12,10c1.103,0,2,0.897,2,2s-0.897,2-2,2s-2-0.897-2-2S10.897,10,12,10 M12,9c-1.657,0-3,1.343-3,3 s1.343,3,3,3s3-1.343,3-3S13.657,9,12,9L12,9z"></path></g><g><path fill="#8bb7f0" d="M4 9.5A2.5 2.5 0 1 0 4 14.5A2.5 2.5 0 1 0 4 9.5Z"></path><path fill="#4e7ab5" d="M4,10c1.103,0,2,0.897,2,2s-0.897,2-2,2s-2-0.897-2-2S2.897,10,4,10 M4,9c-1.657,0-3,1.343-3,3 s1.343,3,3,3s3-1.343,3-3S5.657,9,4,9L4,9z"></path></g></svg>