<?xml version="1.0" encoding="utf-8"?>
<!-- Generator: Adobe Illustrator 22.1.0, SVG Export Plug-In . SVG Version: 6.00 Build 0)  -->
<svg version="1.2" baseProfile="tiny" id="katman_1"
	 xmlns="http://www.w3.org/2000/svg" xmlns:xlink="http://www.w3.org/1999/xlink" x="0px" y="0px" viewBox="0 0 16 16"
	 xml:space="preserve">
<path fill="#4E7AB5" d="M5.6,16H4V9.7l-3.1,3.1l-0.7-0.7L4,8.3V7.7L0.1,3.9l0.7-0.7L4,6.3V0h1.6l3.6,4.5L5.7,8l3.5,3.5L5.6,16z
	 M5,15L5,15l2.8-3.5L5,8.7V15z M5,7.3l2.8-2.8L5.1,1H5V7.3z"/>
<path fill="#8BB7F0" d="M11.3,8c0-0.6-0.4-1-1-1c-0.6,0-1,0.4-1,1c0,0.6,0.4,1,1,1C10.8,9,11.3,8.5,11.3,8z"/>
<path fill="#4E7AB5" d="M10.8,8c0,0.3-0.2,0.5-0.5,0.5S9.8,8.3,9.8,8c0-0.3,0.2-0.5,0.5-0.5S10.8,7.7,10.8,8 M11.8,8
	c0-0.8-0.7-1.5-1.5-1.5C9.5,6.5,8.8,7.2,8.8,8c0,0.8,0.7,1.5,1.5,1.5C11.1,9.5,11.8,8.8,11.8,8L11.8,8z"/>
<path fill="#4E7AB5" d="M11.3,10.6c0.9-0.6,1.5-1.5,1.5-2.6c0-1.1-0.6-2-1.5-2.6l0.5-0.8c1.3,0.7,2,2,2,3.4c0,1.4-0.8,2.8-2,3.4
	L11.3,10.6z"/>
<path fill="#4E7AB5" d="M12.3,12.6c1.6-1,2.5-2.7,2.5-4.6c0-1.9-0.9-3.6-2.5-4.6l0.6-0.8c1.8,1.2,2.9,3.2,2.9,5.4
	c0,2.2-1.1,4.2-2.9,5.4L12.3,12.6z"/>
</svg>
