<svg xmlns="http://www.w3.org/2000/svg" viewBox="0 0 16 16"><path fill="#8bb7f0" d="M8,15.5c-2.7,0-5.5-0.9-5.5-7.5S5.3,0.5,8,0.5s5.5,0.9,5.5,7.5S10.7,15.5,8,15.5z"></path><path fill="#4e7ab5" d="M8,1c2.4,0,5,0.5,5,7c0,3.4-0.4,7-5,7c-2.4,0-5-0.5-5-7C3,4.6,3.4,1,8,1 M8,0C4.4,0,2,1.7,2,8 s2.4,8,6,8c3.6,0,6-1.7,6-8S11.6,0,8,0L8,0z"></path><path fill="#fff" d="M8.2,14H7V9.8l-1.1,1.2l-0.7-0.7L7,8.3V7.7L5.1,5.9l0.7-0.7L7,6.3V2h1.2l2.9,3.5L8.7,8l2.5,2.5 L8.2,14z M8,8.7v4l1.8-2.2L8,8.7L8,8.7z M8,7.3L8,7.3l1.8-1.8L8,3.3V7.3z"></path></svg>