<?xml version="1.0" encoding="utf-8"?>
<!-- Generator: Adobe Illustrator 22.1.0, SVG Export Plug-In . SVG Version: 6.00 Build 0)  -->
<svg version="1.2" baseProfile="tiny" id="katman_1"
	 xmlns="http://www.w3.org/2000/svg" xmlns:xlink="http://www.w3.org/1999/xlink" x="0px" y="0px" viewBox="0 0 16 16"
	 xml:space="preserve">
<path fill="#B0C1D4" d="M3,1.5h10c0.8,0,1.5,0.7,1.5,1.5v10c0,0.8-0.7,1.5-1.5,1.5H3c-0.8,0-1.5-0.7-1.5-1.5V3
	C1.5,2.2,2.2,1.5,3,1.5z"/>
<path fill="#66798F" d="M13,2c0.6,0,1,0.4,1,1v10c0,0.6-0.4,1-1,1H3c-0.6,0-1-0.4-1-1V3c0-0.6,0.4-1,1-1H13 M13,1H3C1.9,1,1,1.9,1,3
	v10c0,1.1,0.9,2,2,2h10c1.1,0,2-0.9,2-2V3C15,1.9,14.1,1,13,1z"/>
<path fill="#D8E2ED" d="M3,2h10c0.6,0,1,0.4,1,1v9c0,0.6-0.4,1-1,1H3c-0.6,0-1-0.4-1-1V3C2,2.4,2.5,2,3,2z"/>
<g>
	<path fill="#36404D" d="M3,10.9V6h1.9c0.8,0,1.4,0.5,1.4,1.2c0,0.5-0.4,1-0.9,1.1v0c0.7,0.1,1.1,0.6,1.1,1.2c0,0.9-0.6,1.4-1.7,1.4
		H3z M3.6,8.1h0.9c0.7,0,1.1-0.3,1.1-0.8c0-0.5-0.3-0.8-0.9-0.8H3.6V8.1z M4.8,10.4c0.7,0,1.1-0.3,1.1-0.9c0-0.6-0.4-0.9-1.2-0.9
		H3.6v1.7H4.8z"/>
	<path fill="#36404D" d="M7.8,6.4v0.9h0.7v0.5H7.8v2.1c0,0.3,0.1,0.5,0.4,0.5c0.1,0,0.2,0,0.2,0v0.5c-0.1,0-0.2,0-0.4,0
		c-0.7,0-0.9-0.3-0.9-1V7.8H6.7V7.3h0.5V6.4H7.8z"/>
	<path fill="#36404D" d="M9,7.3h0.6v0.6h0c0.2-0.4,0.6-0.6,1.1-0.6c0.8,0,1.2,0.5,1.2,1.3v2.3h-0.6V8.7c0-0.6-0.3-0.9-0.8-0.9
		c-0.6,0-0.9,0.4-0.9,1v2.1H9V7.3z"/>
</g>
</svg>
