<svg xmlns="http://www.w3.org/2000/svg" viewBox="0 0 16 16"><path fill="#788b9c" d="M10.2 9.9H11.2V15.4H10.2z" transform="rotate(-29.05 10.668 12.6)"></path><path fill="#36404d" d="M12,14C12.1,14,11.9,14,12,14c0.6,0,1,0.4,1,1s-0.4,1-1,1c-0.1,0,0.1,0,0,0c-0.6,0-1-0.4-1-1 S11.4,14,12,14z"></path><path fill="#788b9c" d="M2.6 12.1H8.1V13.1H2.6z" transform="rotate(-60.908 5.334 12.6)"></path><path fill="#36404d" d="M4,14C3.9,14,4.1,14,4,14c-0.6,0-1,0.4-1,1s0.4,1,1,1c0.1,0-0.1,0,0,0c0.6,0,1-0.4,1-1S4.6,14,4,14z"></path><path fill="#66798f" d="M7 0H9V14H7z"></path><path fill="#c2e8ff" d="M1.5 1.5H14.5V11.5H1.5z"></path><path fill="#7496c4" d="M14,2v9H2V2H14 M15,1H1v11h14V1L15,1z"></path><path fill="#c74343" d="M3.9 10.2L3.1 9.6 5.3 6.6 6.7 7.6 8.1 5.2 9.6 6.3 10.4 5.1 11.3 5.3 12.1 3.8 13 4.3 11.8 6.5 10.8 6.2 9.8 7.7 8.4 6.7 7 9.1 5.5 8z"></path><g><path fill="#e1ebf2" d="M0 1H16V2H0z"></path><path fill="#788b9c" d="M16 1L0 1 0 2 16 2z"></path></g></svg>