<svg xmlns="http://www.w3.org/2000/svg" viewBox="0 0 16 16"><path fill="#b53838" d="M13.657,2.343C12.209,0.895,10.209,0,8,0v8L13.657,2.343z"></path><path fill="#b86e3e" d="M16,8c0-2.047-0.781-4.095-2.343-5.657L8,8H16z"></path><path fill="#b88f28" d="M13.657,13.657C15.105,12.209,16,10.209,16,8H8L13.657,13.657z"></path><path fill="#51966c" d="M8,16c2.047,0,4.095-0.781,5.657-2.343L8,8V16z"></path><path fill="#5682ba" d="M2.343,13.657C3.791,15.105,5.791,16,8,16V8L2.343,13.657z"></path><path fill="#4965a8" d="M0,8c0,2.047,0.781,4.095,2.343,5.657L8,8H0z"></path><path fill="#7e5d9e" d="M2.343,2.343C0.895,3.791,0,5.791,0,8h8L2.343,2.343z"></path><path fill="#914683" d="M8,0C5.953,0,3.905,0.781,2.343,2.343L8,8V0z"></path><path fill="#eb6060" d="M12.95,3.05C11.683,1.784,9.933,1,8,1v7L12.95,3.05z"></path><path fill="#f08a48" d="M15,8c0-1.791-0.683-3.583-2.05-4.95L8,8H15z"></path><path fill="#ffdf59" d="M12.95,12.95C14.216,11.683,15,9.933,15,8H8L12.95,12.95z"></path><path fill="#76d67d" d="M8,15c1.791,0,3.583-0.683,4.95-2.05L8,8V15z"></path><path fill="#669fed" d="M3.05,12.95C4.317,14.216,6.067,15,8,15V8L3.05,12.95z"></path><path fill="#6f85e8" d="M1,8c0,1.791,0.683,3.583,2.05,4.95L8,8H1z"></path><path fill="#b05de3" d="M3.05,3.05C1.784,4.317,1,6.067,1,8h7L3.05,3.05z"></path><path fill="#dc5de3" d="M8,1C6.209,1,4.417,1.683,3.05,3.05L8,8V1z"></path></svg>