<svg xmlns="http://www.w3.org/2000/svg" viewBox="0 0 16 16"><path fill="#66798f" d="M12 -0.7H13V3.8H12z" transform="rotate(-63.435 12.5 1.5)"></path><path fill="#66798f" d="M14,16h-1c0-2.2-1.8-4-4-4H4c-2.2,0-4-1.8-4-4c0-2.2,1.8-4,4-4h5.5v1H4C2.3,5,1,6.3,1,8s1.3,3,3,3h5 C11.8,11,14,13.2,14,16z"></path><path fill="#e1ebf2" d="M10.2,6.5C10,6.5,9.7,6.3,9.7,6V5.5H9C8.7,5.5,8.5,5.3,8.5,5V4c0-0.3,0.2-0.5,0.5-0.5h0.7V3 c0-0.3,0.2-0.5,0.5-0.5H15c0.3,0,0.5,0.2,0.5,0.5v3c0,0.3-0.2,0.5-0.5,0.5H10.2z"></path><path fill="#66798f" d="M15,3v3h-4.8V5h-1H9V4h0.2h1V3H15 M15,2h-4.8c-0.6,0-1,0.4-1,1H9C8.4,3,8,3.4,8,4v1 c0,0.6,0.4,1,1,1h0.2c0,0.6,0.4,1,1,1H15c0.6,0,1-0.4,1-1V3C16,2.4,15.6,2,15,2L15,2z"></path><path fill="#b0c1d4" d="M12 5H15V6H12z"></path></svg>