<svg xmlns="http://www.w3.org/2000/svg" viewBox="0 0 16 16"><path fill="#bae0bd" d="M0.5,13.5v-10h1c0.2,0,0.4,0.2,0.5,0.4l0.2,0.6h11.8L14,3.9c0.1-0.2,0.3-0.4,0.5-0.4h1v10H0.5z"></path><path fill="#5e9c76" d="M1.5,4l0.1,0.2L1.7,5h0.8h11h0.8l0.2-0.8L14.5,4H15v2v7H1V6V4l0,0H1.5 M16,3h-1.5 c-0.5,0-0.9,0.3-1,0.8L13.5,4h-11L2.4,3.8C2.3,3.3,1.9,3,1.5,3H0v1v2v8h16V6V4V3L16,3z"></path><path fill="#a3d6a7" d="M2 6H14V12H2z"></path><path fill="#5e9c76" d="M13 6H14V12H13zM11 6H12V12H11zM2 6H3V12H2zM4 6H5V12H4zM6 6H7V12H6zM9 6H10V12H9z"></path></svg>