<?xml version="1.0" encoding="utf-8"?>
<!-- Generator: Adobe Illustrator 22.1.0, SVG Export Plug-In . SVG Version: 6.00 Build 0)  -->
<svg version="1.2" baseProfile="tiny" id="katman_1"
	 xmlns="http://www.w3.org/2000/svg" xmlns:xlink="http://www.w3.org/1999/xlink" x="0px" y="0px" viewBox="0 0 16 16"
	 xml:space="preserve">
<path fill="#B6C9D6" d="M1.8,13.5c-0.5,0-1.3-1.9-1.3-5.5s0.9-5.5,1.3-5.5h12.3c0.5,0,1.3,1.9,1.3,5.5s-0.9,5.5-1.3,5.5H1.8z"/>
<path fill="#788B9C" d="M14,3c0.4,0.4,1,2.1,1,5s-0.6,4.6-1,5H2c-0.4-0.4-1-2.1-1-5s0.6-4.6,1-5H14 M14.2,2H1.8C0.8,2,0,4.7,0,8
	s0.8,6,1.8,6h12.3c1,0,1.8-2.7,1.8-6S15.2,2,14.2,2L14.2,2z"/>
</svg>
