<svg xmlns="http://www.w3.org/2000/svg" viewBox="0 0 16 16"><path fill="#fff" d="M0.5 0.5H15.5V15.5H0.5z"></path><path fill="#788b9c" d="M15,1v14H1V1H15 M16,0H0v16h16V0L16,0z"></path><path fill="#c5d4de" d="M-2 9H9V10H-2z" transform="rotate(90 3.5 9.5)"></path><path fill="#c5d4de" d="M1 9H12V10H1z" transform="rotate(90 6.5 9.5)"></path><path fill="#c5d4de" d="M4 9H15V10H4z" transform="rotate(90 9.5 9.5)"></path><path fill="#c5d4de" d="M7 9H18V10H7z" transform="rotate(90 12.5 9.5)"></path><path fill="#c2e8ff" d="M0.5 0.5H3.5V3.5H0.5z"></path><path fill="#7496c4" d="M3,1v2H1V1H3 M4,0H0v4h4V0L4,0z"></path><path fill="#c2e8ff" d="M3.5 0.5H6.5V3.5H3.5z"></path><path fill="#7496c4" d="M6,1v2H4V1H6 M7,0H3v4h4V0L7,0z"></path><g><path fill="#c2e8ff" d="M6.5 0.5H9.5V3.5H6.5z"></path><path fill="#7496c4" d="M9,1v2H7V1H9 M10,0H6v4h4V0L10,0z"></path></g><g><path fill="#c2e8ff" d="M9.5 0.5H12.5V3.5H9.5z"></path><path fill="#7496c4" d="M12,1v2h-2V1H12 M13,0H9v4h4V0L13,0z"></path></g><g><path fill="#c2e8ff" d="M12.5 0.5H15.5V3.5H12.5z"></path><path fill="#7496c4" d="M15,1v2h-2V1H15 M16,0h-4v4h4V0L16,0z"></path></g></svg>