<?xml version="1.0" encoding="utf-8"?>
<!-- Generator: Adobe Illustrator 22.1.0, SVG Export Plug-In . SVG Version: 6.00 Build 0)  -->
<svg version="1.2" baseProfile="tiny" id="katman_1"
	 xmlns="http://www.w3.org/2000/svg" xmlns:xlink="http://www.w3.org/1999/xlink" x="0px" y="0px" viewBox="0 0 16 16"
	 xml:space="preserve">
<path fill="#545454" d="M6,9h3l-1.5,2L6,9z"/>
<path fill="#F78F8F" d="M7,0.5C6.2,0.5,5.5,1.2,5.5,2S6.2,3.5,7,3.5S8.5,2.8,8.5,2S7.8,0.5,7,0.5z"/>
<path fill="#C74343" d="M7,1c0.6,0,1,0.4,1,1S7.6,3,7,3S6,2.6,6,2S6.4,1,7,1 M7,0C5.9,0,5,0.9,5,2s0.9,2,2,2s2-0.9,2-2S8.1,0,7,0
	L7,0z"/>
<path fill="#F79494" d="M2.5,3.5c-0.6,0-1,0.4-1,1s0.4,1,1,1s1-0.4,1-1S3.1,3.5,2.5,3.5z"/>
<path fill="#C74343" d="M2.5,4C2.8,4,3,4.2,3,4.5S2.8,5,2.5,5S2,4.8,2,4.5S2.2,4,2.5,4 M2.5,3C1.7,3,1,3.7,1,4.5S1.7,6,2.5,6
	S4,5.3,4,4.5S3.3,3,2.5,3L2.5,3z"/>
<path fill="#F7B7B7" d="M1.3,7.8c-0.5,0-0.8,0.4-0.8,0.8c0,0.5,0.4,0.8,0.8,0.8c0,0,0,0,0,0c0.5,0,0.8-0.4,0.8-0.8
	C2.2,8.2,1.8,7.8,1.3,7.8C1.3,7.8,1.3,7.8,1.3,7.8z"/>
<path fill="#D46565" d="M1.3,8.3c0.2,0,0.3,0.1,0.3,0.3S1.5,9,1.3,9C1.1,9,1,8.9,1,8.7S1.1,8.3,1.3,8.3 M1.3,7.3
	C0.6,7.3,0,7.9,0,8.7S0.6,10,1.3,10s1.3-0.6,1.3-1.3S2.1,7.3,1.3,7.3L1.3,7.3z"/>
<path fill="#F7B7B7" d="M3,12.5c-0.3,0-0.5,0.2-0.5,0.5s0.2,0.5,0.5,0.5s0.5-0.2,0.5-0.5S3.3,12.5,3,12.5z"/>
<path fill="#DE7C7C" d="M3,12c-0.6,0-1,0.4-1,1s0.4,1,1,1s1-0.4,1-1S3.6,12,3,12L3,12z"/>
<g>
	<path fill="#F7B7B7" d="M6.3,15.2c-0.1,0-0.2,0.1-0.2,0.2c0,0.1,0.1,0.2,0.2,0.2c0,0,0,0,0,0c0.1,0,0.2-0.1,0.2-0.2
		C6.5,15.2,6.4,15.2,6.3,15.2C6.3,15.2,6.3,15.2,6.3,15.2z"/>
	<path fill="#F08D8D" d="M6.3,14.7c-0.4,0-0.7,0.3-0.7,0.7S6,16,6.3,16C6.7,16,7,15.7,7,15.3S6.7,14.7,6.3,14.7L6.3,14.7z"/>
</g>
<g>
	<path fill="#CCCCCC" d="M12.5,2.5c-1.1,0-2,0.9-2,2s0.9,2,2,2s2-0.9,2-2S13.6,2.5,12.5,2.5z"/>
	<path fill="#666666" d="M12.5,3C13.3,3,14,3.7,14,4.5S13.3,6,12.5,6S11,5.3,11,4.5S11.7,3,12.5,3 M12.5,2C11.1,2,10,3.1,10,4.5
		S11.1,7,12.5,7S15,5.9,15,4.5S13.9,2,12.5,2L12.5,2z"/>
</g>
<g>
	<path fill="#999999" d="M13,9.5c-1.4,0-2.5,1.1-2.5,2.5s1.1,2.5,2.5,2.5s2.5-1.1,2.5-2.5S14.4,9.5,13,9.5z"/>
	<path fill="#545454" d="M13,10c1.1,0,2,0.9,2,2s-0.9,2-2,2s-2-0.9-2-2S11.9,10,13,10 M13,9c-1.7,0-3,1.3-3,3s1.3,3,3,3s3-1.3,3-3
		S14.7,9,13,9L13,9z"/>
</g>
<rect x="7" y="6" fill="#545454" width="1" height="4"/>
</svg>
