<?xml version="1.0" encoding="utf-8"?>
<!-- Generator: Adobe Illustrator 22.1.0, SVG Export Plug-In . SVG Version: 6.00 Build 0)  -->
<svg version="1.2" baseProfile="tiny" id="katman_1"
	 xmlns="http://www.w3.org/2000/svg" xmlns:xlink="http://www.w3.org/1999/xlink" x="0px" y="0px" viewBox="0 0 16 16"
	 xml:space="preserve">
<path fill="#798B9B" d="M8,1L8,1c3.8,0,6.9,3,7,6.8c0.1,3.9-3,7.1-6.8,7.2H8c-3.8,0-6.9-3-7-6.8C0.9,4.3,4,1.1,7.8,1H8 M8,0
	C7.9,0,7.9,0,7.8,0C3.4,0.1-0.1,3.8,0,8.2S3.7,16,8,16c0.1,0,0.1,0,0.2,0c4.4-0.1,7.9-3.8,7.8-8.2S12.3,0,8,0L8,0z"/>
<polygon fill="#3B4851" points="8,2 5,7 11,7 "/>
<g>
	<path fill="#BBDFBE" d="M8,11.4c-1.9,0-3.4-1.5-3.4-3.4S6.1,4.6,8,4.6s3.4,1.5,3.4,3.4S9.9,11.4,8,11.4z"/>
	<path fill="#609B77" d="M8,5c1.7,0,3,1.3,3,3s-1.3,3-3,3S5,9.7,5,8S6.3,5,8,5 M8,4.2C5.9,4.2,4.2,5.9,4.2,8s1.7,3.8,3.8,3.8
		s3.8-1.7,3.8-3.8S10.1,4.2,8,4.2L8,4.2z"/>
</g>
</svg>
