<?xml version="1.0" encoding="utf-8"?>
<!-- Generator: Adobe Illustrator 22.1.0, SVG Export Plug-In . SVG Version: 6.00 Build 0)  -->
<svg version="1.2" baseProfile="tiny" id="katman_1"
	 xmlns="http://www.w3.org/2000/svg" xmlns:xlink="http://www.w3.org/1999/xlink" x="0px" y="0px" viewBox="0 0 16 16"
	 xml:space="preserve">
<path fill="#8BB7F0" d="M5,15.5c-2.5,0-4.5-2-4.5-4.5C0.5,9,3.4,3.6,5,1c1.6,2.7,4.5,8.1,4.5,10C9.5,13.5,7.5,15.5,5,15.5z"/>
<path fill="#4E7AB5" d="M5,2c1.8,3.2,4,7.5,4,9c0,2.2-1.8,4-4,4s-4-1.8-4-4C1,9.4,3.2,5.1,5,2 M5,0c0,0-5,8.2-5,11s2.2,5,5,5
	s5-2.2,5-5S5,0,5,0L5,0z"/>
<path fill="#FFFFFF" d="M5,14v-1c1.1,0,2-0.9,2-2h1C8,12.7,6.7,14,5,14z"/>
<g>
	<path fill="#FFEEA3" d="M12.8,11.5l1.2,0l-3.1,3.8L12.8,11.5z M10.3,11.5l2-4l2.7,0l-2.4,4l0.2,0H10.3z"/>
	<path fill="#C29653" d="M12.6,8l1.5,0l-1.5,2.5L12.3,11H12h-0.9L12.6,8 M12,7l-2.5,5H12l-2,4h1l4-5l-1.5,0l2.4-4L12,7L12,7z"/>
</g>
</svg>
