<?xml version="1.0" encoding="utf-8"?>
<!-- Generator: Adobe Illustrator 22.1.0, SVG Export Plug-In . SVG Version: 6.00 Build 0)  -->
<svg version="1.2" baseProfile="tiny" id="katman_1"
	 xmlns="http://www.w3.org/2000/svg" xmlns:xlink="http://www.w3.org/1999/xlink" x="0px" y="0px" viewBox="0 0 16 16"
	 xml:space="preserve">
<path fill="#F2FAFF" d="M15.5,13.5c0,1.1-0.9,2-2,2h-11c-1.1,0-2-0.9-2-2v-11c0-1.1,0.9-2,2-2h11c1.1,0,2,0.9,2,2V13.5z"/>
<path fill="#788B9C" d="M1,2.5C1,1.7,1.7,1,2.5,1h11C14.3,1,15,1.7,15,2.5v11c0,0.8-0.7,1.5-1.5,1.5h-11C1.7,15,1,14.3,1,13.5V2.5
	 M0,2.5v11C0,14.9,1.1,16,2.5,16h11c1.4,0,2.5-1.1,2.5-2.5v-11C16,1.1,14.9,0,13.5,0h-11C1.1,0,0,1.1,0,2.5L0,2.5z"/>
<path fill="#E1EBF2" d="M3.5,8.5V6c0-2.5,2-4.5,4.5-4.5s4.5,2,4.5,4.5v2.5H3.5z"/>
<path fill="#A3B7CC" d="M8,2c2.2,0,4,1.8,4,4v2H4V6C4,3.8,5.8,2,8,2 M8,1C5.2,1,3,3.2,3,6v3h10V6C13,3.2,10.8,1,8,1z"/>
<path fill="#B0C1D4" d="M8,14.5c-2.5,0-4.5-2-4.5-4.5V7.5h9V10C12.5,12.5,10.5,14.5,8,14.5z"/>
<path fill="#66798F" d="M12,8v2c0,2.2-1.8,4-4,4s-4-1.8-4-4V8H12 M13,7H3v3c0,2.8,2.2,5,5,5s5-2.2,5-5V7z"/>
<path fill="#AB3434" d="M8,2L7,4h2L8,2z M8,7L7,5h2L8,7z"/>
</svg>
