<svg xmlns="http://www.w3.org/2000/svg" viewBox="0 0 16 16"><path fill="#e1ebf2" d="M1.725,10.982c-0.951-0.329-1.448-1.347-1.128-2.278c0.241-0.699,0.902-1.182,1.645-1.203L4.016,7.5 l4.479,0.805l1.439,0.191l4.765,1.596l-6.723,3.362L1.725,10.982z"></path><path fill="#788b9c" d="M3.928,8l4.524,0.804l1.322,0.175l3.619,1.206l-5.441,2.721l-6.086-2.405 C1.196,10.27,0.839,9.537,1.07,8.867c0.173-0.503,0.65-0.851,1.158-0.866l0.682,0L3.928,8 M4.016,7 C3.357,7,2.627,7.001,2.227,7.001c-0.925,0.026-1.785,0.617-2.103,1.54c-0.409,1.189,0.228,2.496,1.417,2.906L8,14l8-4l-6-2 L8.583,7.813L4.016,7L4.016,7z"></path><path fill="#b6c9d6" d="M3.051,7.66C2.814,7.579,2.553,7.506,2.177,7.506C2.169,7.5,2.118,7.476,2.064,7.454 c0.904-0.346,2.833-1.053,4.118-1.519l3.501-1.4l-0.07-0.087l3.474-0.823c0.28-0.086,0.52-0.125,0.746-0.125 c0.744,0,1.316,0.424,1.571,1.163c0.315,0.918-0.177,1.917-1.121,2.275L7.991,9.464L3.051,7.66z"></path><path fill="#788b9c" d="M13.833,4c0.673,0,0.969,0.449,1.099,0.826c0.227,0.661-0.135,1.383-0.844,1.652L7.983,8.929 L3.715,7.37C4.52,7.073,5.475,6.723,6.383,6.393L9.24,5.25l1.23-0.492l2.732-0.647l0.034-0.008l0.034-0.01 C13.468,4.031,13.657,4,13.833,4 M13.833,3c-0.272,0-0.56,0.045-0.861,0.139L8.726,4.144l0.143,0.178L6.012,5.465 c0,0-4.353,1.579-4.661,1.739L1.269,7.911l0.217-0.08c0.018-0.006,0.038-0.009,0.06-0.009c0.178,0,0.468,0.185,0.631,0.185 c0.321,0,0.536,0.066,0.702,0.123L8,10l6.46-2.594c1.178-0.446,1.826-1.717,1.417-2.906C15.557,3.572,14.804,3,13.833,3L13.833,3z"></path><g><path fill="#e1ebf2" d="M2.135,4.168l4.315-1.45C6.895,2.574,7.361,2.5,7.834,2.5c0.324,0,0.648,0.035,0.965,0.104 l4.577,0.8L13.168,3.6L7.969,5.48L2.135,4.168z"></path><path fill="#788b9c" d="M7.834,3L7.834,3c0.288,0,0.576,0.031,0.9,0.101l2.928,0.512L7.935,4.96L3.989,4.072L6.6,3.195 C6.999,3.066,7.414,3,7.834,3 M7.834,2C7.312,2,6.792,2.082,6.291,2.244l-6.01,2.019L8.001,6l5.435-1.965l1.011-0.951l-5.54-0.968 C8.553,2.039,8.193,2,7.834,2L7.834,2z"></path></g></svg>