<?xml version="1.0" encoding="utf-8"?>
<!-- Generator: Adobe Illustrator 22.1.0, SVG Export Plug-In . SVG Version: 6.00 Build 0)  -->
<svg version="1.2" baseProfile="tiny" id="katman_1"
	 xmlns="http://www.w3.org/2000/svg" xmlns:xlink="http://www.w3.org/1999/xlink" x="0px" y="0px" viewBox="0 0 16 16"
	 xml:space="preserve">
<path fill="#8BB7F0" d="M5,15.5c-2.5,0-4.5-2-4.5-4.5C0.5,9,3.4,3.6,5,1c1.6,2.7,4.5,8.1,4.5,10C9.5,13.5,7.5,15.5,5,15.5z"/>
<path fill="#4E7AB5" d="M5,2c1.8,3.2,4,7.5,4,9c0,2.2-1.8,4-4,4s-4-1.8-4-4C1,9.4,3.2,5.1,5,2 M5,0c0,0-5,8.2-5,11s2.2,5,5,5
	s5-2.2,5-5S5,0,5,0L5,0z"/>
<path fill="#FFFFFF" d="M5,14v-1c1.1,0,2-0.9,2-2h1C8,12.7,6.7,14,5,14z"/>
<g>
	<path fill="#7C4141" d="M12.6,15.1c-1.5,0-2.4-1-2.4-2.6c0-1.6,0.9-2.5,2.4-2.5c1.2,0,2,0.7,2.2,1.7h-1c-0.2-0.5-0.6-0.8-1.1-0.8
		c-0.8,0-1.3,0.6-1.3,1.7c0,1.1,0.5,1.7,1.3,1.7c0.7,0,1.1-0.4,1.2-1l0-0.1h-1.1v-0.8h2.1v0.6C14.8,14.3,14,15.1,12.6,15.1z"/>
</g>
</svg>
