<svg xmlns="http://www.w3.org/2000/svg" viewBox="0 0 16 16"><path fill="#c2e8ff" d="M1,14.5c-0.275,0-0.5-0.225-0.5-0.5V1c0-0.275,0.225-0.5,0.5-0.5h13c0.275,0,0.5,0.225,0.5,0.5v13 c0,0.275-0.225,0.5-0.5,0.5H1z"></path><path fill="#7496c4" d="M14,1v13H1V1H14 M14,0H1C0.448,0,0,0.448,0,1v13c0,0.552,0.448,1,1,1h13c0.552,0,1-0.448,1-1V1 C15,0.448,14.552,0,14,0L14,0z"></path><path fill="#bae0bd" d="M2.5 2.5H4.5V4.5H2.5z"></path><path fill="#5e9c76" d="M4,3v1H3V3H4 M4.5,2h-2C2.224,2,2,2.224,2,2.5v2C2,4.776,2.224,5,2.5,5h2C4.776,5,5,4.776,5,4.5v-2 C5,2.224,4.776,2,4.5,2L4.5,2z"></path><path fill="#bae0bd" d="M6.5 2.5H8.5V4.5H6.5z"></path><path fill="#5e9c76" d="M8,3v1H7V3H8 M8.5,2h-2C6.224,2,6,2.224,6,2.5v2C6,4.776,6.224,5,6.5,5h2C8.776,5,9,4.776,9,4.5v-2 C9,2.224,8.776,2,8.5,2L8.5,2z"></path><path fill="#bae0bd" d="M10.5 2.5H12.5V4.5H10.5z"></path><path fill="#5e9c76" d="M12,3v1h-1V3H12 M12.5,2h-2C10.224,2,10,2.224,10,2.5v2C10,4.776,10.224,5,10.5,5h2 C12.776,5,13,4.776,13,4.5v-2C13,2.224,12.776,2,12.5,2L12.5,2z"></path><path fill="#bae0bd" d="M2.5 6.5H4.5V8.5H2.5z"></path><path fill="#5e9c76" d="M4,7v1H3V7H4 M4.5,6h-2C2.224,6,2,6.224,2,6.5v2C2,8.776,2.224,9,2.5,9h2C4.776,9,5,8.776,5,8.5v-2 C5,6.224,4.776,6,4.5,6L4.5,6z"></path><g><path fill="#bae0bd" d="M6.5 6.5H8.5V8.5H6.5z"></path><path fill="#5e9c76" d="M8,7v1H7V7H8 M8.5,6h-2C6.224,6,6,6.224,6,6.5v2C6,8.776,6.224,9,6.5,9h2C8.776,9,9,8.776,9,8.5v-2 C9,6.224,8.776,6,8.5,6L8.5,6z"></path></g><g><path fill="#bae0bd" d="M10.5 6.5H12.5V8.5H10.5z"></path><path fill="#5e9c76" d="M12,7v1h-1V7H12 M12.5,6h-2C10.224,6,10,6.224,10,6.5v2C10,8.776,10.224,9,10.5,9h2 C12.776,9,13,8.776,13,8.5v-2C13,6.224,12.776,6,12.5,6L12.5,6z"></path></g><g><path fill="#bae0bd" d="M2.5 10.5H4.5V12.5H2.5z"></path><path fill="#5e9c76" d="M4,11v1H3v-1H4 M4.5,10h-2C2.224,10,2,10.224,2,10.5v2C2,12.776,2.224,13,2.5,13h2 C4.776,13,5,12.776,5,12.5v-2C5,10.224,4.776,10,4.5,10L4.5,10z"></path></g><g><path fill="#bae0bd" d="M6.5 10.5H8.5V12.5H6.5z"></path><path fill="#5e9c76" d="M8,11v1H7v-1H8 M8.5,10h-2C6.224,10,6,10.224,6,10.5v2C6,12.776,6.224,13,6.5,13h2 C8.776,13,9,12.776,9,12.5v-2C9,10.224,8.776,10,8.5,10L8.5,10z"></path></g><g><path fill="#bae0bd" d="M10.5 10.5H12.5V12.5H10.5z"></path><path fill="#5e9c76" d="M12,11v1h-1v-1H12 M12.5,10h-2c-0.276,0-0.5,0.224-0.5,0.5v2c0,0.276,0.224,0.5,0.5,0.5h2 c0.276,0,0.5-0.224,0.5-0.5v-2C13,10.224,12.776,10,12.5,10L12.5,10z"></path></g></svg>