<?xml version="1.0" encoding="utf-8"?>
<!-- Generator: Adobe Illustrator 22.1.0, SVG Export Plug-In . SVG Version: 6.00 Build 0)  -->
<svg version="1.2" baseProfile="tiny" id="katman_1"
	 xmlns="http://www.w3.org/2000/svg" xmlns:xlink="http://www.w3.org/1999/xlink" x="0px" y="0px" viewBox="0 0 16 16"
	 xml:space="preserve">
<path fill="#66798F" d="M15,3v11H1V3h12 M14,2H0v13h16V2H14z"/>
<path fill="#DCD5F2" d="M7.5,8.5h4v4h-4V8.5z"/>
<path fill="#8B75A1" d="M11,9v3H8V9H11 M12,8H7v5h5V8L12,8z"/>
<g>
	<path fill="#F2FAFF" d="M4.5,5.5h4v4h-4V5.5z"/>
	<path fill="#788B9C" d="M8,6v3H5V6H8 M9,5H4v5h5V5L9,5z"/>
</g>
<rect x="2" y="1" fill="#66798F" width="7" height="3"/>
<rect x="3" y="2" fill="#FDFEFF" width="1" height="1"/>
<rect x="5" y="2" fill="#FDFEFF" width="1" height="1"/>
<rect x="7" y="2" fill="#FDFEFF" width="1" height="1"/>
</svg>
