<svg xmlns="http://www.w3.org/2000/svg" viewBox="0 0 16 16"><path fill="#36404d" d="M3.5 1C3.771 1 4 1.229 4 1.5v8.262c0 .271-.229.5-.5.5S3 10.033 3 9.762V1.5C3 1.229 3.229 1 3.5 1M3.5 0C2.675 0 2 .675 2 1.5v8.262c0 .825.675 1.5 1.5 1.5S5 10.587 5 9.762V1.5C5 .675 4.325 0 3.5 0L3.5 0zM8.5 1C8.771 1 9 1.229 9 1.5v8.262c0 .271-.229.5-.5.5S8 10.033 8 9.762V1.5C8 1.229 8.229 1 8.5 1M8.5 0C7.675 0 7 .675 7 1.5v8.262c0 .825.675 1.5 1.5 1.5s1.5-.675 1.5-1.5V1.5C10 .675 9.325 0 8.5 0L8.5 0z"></path><path fill="#c2e8ff" d="M6.044,15.493H3.279c-1.61,0-2.779-1.229-2.779-2.921l0.992-5.483L1.497,6.5H10.5V7l1.008,5.66 c-0.008,1.608-1.173,2.839-2.78,2.84L6.044,15.493z"></path><path fill="#8bb7f0" d="M10,7v0.089l0.016,0.088l0.983,5.478C10.963,14.04,10.039,15,8.73,15l-2.688-0.007H3.279 c-1.316,0-2.242-0.957-2.278-2.338l0.983-5.478L2,7.089V7H10 M11,6H1v1l-1,5.572c0,1.983,1.386,3.421,3.279,3.421h2.763L8.727,16 C10.621,16,12,14.555,12,12.572L11,7V6L11,6z"></path><path fill="#4e7ab5" d="M6,4.645c-2.815,0-4.621-0.36-5.282-0.634C1.389,3.766,3.178,3.5,6,3.5s4.611,0.266,5.282,0.511 C10.621,4.285,8.815,4.645,6,4.645z"></path><path fill="#7496c4" d="M6,4c0.839,0,1.577,0.023,2.214,0.061C7.568,4.113,6.827,4.145,6,4.145S4.432,4.113,3.786,4.061 C4.423,4.023,5.161,4,6,4 M6,3C2.686,3,0,3.369,0,4c0,0.631,2.686,1.145,6,1.145S12,4.631,12,4C12,3.369,9.314,3,6,3L6,3z"></path><path fill="#8bb7f0" d="M6,7.501c-2.733,0-4.049-0.539-4.5-0.778V5.882L0.591,4.063C1.139,3.805,2.977,3.5,6,3.5 s4.861,0.305,5.409,0.563L10.5,5.882v0.846C10.067,6.962,8.77,7.501,6,7.501z"></path><path fill="#7496c4" d="M6,4c2.363,0,3.917,0.183,4.7,0.364l-0.594,1.189L10,5.764V6v0.411c-0.552,0.232-1.767,0.59-4,0.59 c-2.224,0-3.45-0.364-4-0.592V6V5.764L1.894,5.553L1.3,4.364C2.083,4.183,3.637,4,6,4 M6,3C2.686,3,0,3.369,0,4l1,2v1 c0,0,1.207,1.002,5,1.002C9.837,8.002,11,7,11,7V6l1-2C12,3.369,9.314,3,6,3L6,3z"></path><path fill="#4e7ab5" d="M6,5c4.884,0,4.688-0.609,4.688-0.609C10.187,4.114,9.07,4,6,4C2.93,4,1.782,4.098,1.281,4.375 C1.281,4.375,1.068,5,6,5z"></path><path fill="#36404d" d="M16,15.016c-0.02,0-1.979-0.066-1.979-1.537c0-0.676,0.202-1.173,0.437-1.748  C14.712,11.106,15,10.398,15,9.417c0-0.949-0.305-1.728-0.907-2.316c-1.161-1.134-3-1.097-3.084-1.101l-0.144,0.005l-0.118,0.077    C10.732,6.091,9.256,7.021,6,7.021c-3.393,0-4.628-0.964-4.656-0.986C1.136,5.859,0.822,5.881,0.643,6.089  C0.462,6.298,0.485,6.614,0.694,6.794C0.751,6.845,2.155,8.021,6,8.021c3.039,0,4.678-0.758,5.153-1.019    c0.375,0.015,1.532,0.118,2.245,0.817C13.803,8.217,14,8.74,14,9.417c0,0.786-0.228,1.345-0.469,1.938  c-0.251,0.616-0.51,1.253-0.51,2.125c0,1.848,1.827,2.537,2.979,2.537V15.016z"></path><path fill="#c2e8ff" d="M7 6H9V9H7zM3 6H5V9H3z"></path></svg>