<svg xmlns="http://www.w3.org/2000/svg" viewBox="0 0 16 16"><path fill="#fff" d="M6.5 0.5A6 6 0 1 0 6.5 12.5A6 6 0 1 0 6.5 0.5Z"></path><path fill="#4e7ab5" d="M6.5,1C9.533,1,12,3.467,12,6.5S9.533,12,6.5,12S1,9.533,1,6.5S3.467,1,6.5,1 M6.5,0 C2.91,0,0,2.91,0,6.5S2.91,13,6.5,13S13,10.09,13,6.5S10.09,0,6.5,0L6.5,0z"></path><path fill="#36404d" d="M7.597 8.158L7.099 8.396 4.6 3.145 4.708 2.703 5.098 2.907z"></path><path fill="#c2e8ff" d="M13,15.5c-1.378,0-2.5-1.081-2.5-2.409c0-0.923,1.406-2.963,2.5-4.311 c1.094,1.348,2.5,3.388,2.5,4.311C15.5,14.419,14.378,15.5,13,15.5z"></path><path fill="#7496c4" d="M13,9.585c1.064,1.382,2,2.908,2,3.506C15,14.144,14.103,15,13,15s-2-0.856-2-1.909 C11,12.494,11.936,10.967,13,9.585 M13,8c0,0-3,3.484-3,5.091S11.343,16,13,16c1.657,0,3-1.302,3-2.909S13,8,13,8L13,8z"></path><path fill="#8bb7f0" d="M3.32,9.68C2.505,8.866,2,7.741,2,6.5C2,4.019,4.019,2,6.5,2S11,4.019,11,6.5    c0,1.241-0.505,2.366-1.32,3.18l0.709,0.709C11.384,9.394,12,8.019,12,6.5C12,3.462,9.538,1,6.5,1S1,3.462,1,6.5    c0,1.519,0.616,2.894,1.611,3.889L3.32,9.68z"></path><g><path fill="#36404d" d="M7.912 8.262L7 8.673 4.302 3.121 4.533 2.452 5.202 2.684z"></path></g><g><path fill="#8bb7f0" d="M6.5 5.5A1 1 0 1 0 6.5 7.5A1 1 0 1 0 6.5 5.5Z"></path><path fill="#4e7ab5" d="M6.5,6C6.776,6,7,6.224,7,6.5S6.776,7,6.5,7S6,6.776,6,6.5S6.224,6,6.5,6 M6.5,5 C5.673,5,5,5.673,5,6.5S5.673,8,6.5,8S8,7.327,8,6.5S7.327,5,6.5,5L6.5,5z"></path></g></svg>