<?xml version="1.0" encoding="utf-8"?>
<!-- Generator: Adobe Illustrator 22.1.0, SVG Export Plug-In . SVG Version: 6.00 Build 0)  -->
<svg version="1.2" baseProfile="tiny" id="katman_1"
	 xmlns="http://www.w3.org/2000/svg" xmlns:xlink="http://www.w3.org/1999/xlink" x="0px" y="0px" viewBox="0 0 16 16"
	 xml:space="preserve">
<path fill="#B54E7A" d="M3.5,13.6L2.1,8H0V7h2.9l0.6,2.4l2-8L6.9,7L10,7v1H6.1L5.5,5.6L3.5,13.6z M10,5.1v1c0.6,0.2,1,0.8,1,1.4
	s-0.4,1.2-1,1.4v1c1.1-0.2,2-1.2,2-2.4S11.1,5.3,10,5.1z"/>
<path fill="#C47496" d="M10,3.1v1c1.7,0.2,3,1.7,3,3.4s-1.3,3.2-3,3.4v1c2.2-0.3,4-2.1,4-4.4S12.2,3.3,10,3.1z"/>
<path fill="#F08BB7" d="M10,1v1c2.8,0.3,5,2.6,5,5.5s-2.2,5.2-5,5.5v1c3.4-0.3,6-3.1,6-6.5S13.4,1.3,10,1z"/>
</svg>
