<?xml version="1.0" encoding="utf-8"?>
<!-- Generator: Adobe Illustrator 22.1.0, SVG Export Plug-In . SVG Version: 6.00 Build 0)  -->
<svg version="1.2" baseProfile="tiny" id="katman_1"
	 xmlns="http://www.w3.org/2000/svg" xmlns:xlink="http://www.w3.org/1999/xlink" x="0px" y="0px" viewBox="0 0 16 16"
	 xml:space="preserve">
<path fill="#66798F" d="M14,2v12H2V2H14 M15,1H1v14h14V1L15,1z"/>
<path fill="#4E7AB5" d="M13,0h3v3h-3V0z M0,0h3v3H0V0z M13,13h3v3h-3V13z M0,13h3v3H0V13z"/>
<g>
	<path fill="#66798F" d="M11.8,9.2L11.5,12H4.4v-0.2h0.3c0.2,0,0.4,0,0.6-0.1c0.1-0.1,0.2-0.1,0.2-0.3c0-0.1,0.1-0.3,0.1-0.7V5.4
		c0-0.4,0-0.7-0.1-0.8S5.3,4.4,5.2,4.3S4.9,4.2,4.7,4.2H4.4V4h4.2v0.2H8.3c-0.2,0-0.4,0-0.6,0.1C7.6,4.4,7.6,4.5,7.5,4.6
		c0,0.1-0.1,0.3-0.1,0.7v5.1c0,0.4,0,0.7,0.1,0.8s0.1,0.2,0.3,0.2c0.1,0,0.3,0.1,0.7,0.1h0.7c0.4,0,0.8-0.1,1.1-0.2s0.5-0.4,0.7-0.7
		s0.4-0.8,0.6-1.4H11.8z"/>
</g>
</svg>
