<svg xmlns="http://www.w3.org/2000/svg" viewBox="0 0 16 16"><path fill="#fff" d="M0.5 3.5H15.5V14.5H0.5z"></path><path fill="#788b9c" d="M15,4v10H1V4H15 M16,3H0v12h16V3L16,3z"></path><path fill="#c8d1db" d="M0.5,3.5V2c0-0.3,0.2-0.5,0.5-0.5h14c0.3,0,0.5,0.2,0.5,0.5v1.5H0.5z"></path><path fill="#66798f" d="M15,2v1H1V2H15 M15,1H1C0.4,1,0,1.4,0,2v2h16V2C16,1.4,15.6,1,15,1L15,1z"></path><path fill="#9fb1c2" d="M7 5H8V11H7z"></path><path fill="#7496c4" d="M8.5,8h-2C6.2,8,6,7.8,6,7.5v-1C6,6.2,6.2,6,6.5,6h2C8.8,6,9,6.2,9,6.5v1C9,7.8,8.8,8,8.5,8z"></path><path fill="#4e7ab5" d="M7 8H8V13H7z"></path><path fill="#9fb1c2" d="M12 5H13V12H12z"></path><path fill="#7496c4" d="M13.5,10h-2C11.2,10,11,9.8,11,9.5v-1C11,8.2,11.2,8,11.5,8h2C13.8,8,14,8.2,14,8.5v1 C14,9.8,13.8,10,13.5,10z"></path><path fill="#4e7ab5" d="M12 10H13V13H12z"></path><path fill="#9fb1c2" d="M3 5H4V12H3z"></path><g><path fill="#7496c4" d="M4.5,12h-2C2.2,12,2,11.8,2,11.5v-1C2,10.2,2.2,10,2.5,10h2C4.8,10,5,10.2,5,10.5v1 C5,11.8,4.8,12,4.5,12z"></path></g><path fill="#4e7ab5" d="M3 12H4V13H3z"></path></svg>