<svg xmlns="http://www.w3.org/2000/svg" viewBox="0 0 16 16"><path fill="#ffc49c" d="M0.5 0.5H5.5V5.5H0.5z"></path><path fill="#a16a4a" d="M5,1v4H1V1H5 M6,0H0v6h6V0L6,0z"></path><path fill="#a16a4a" d="M3.828 2.97L3 3.738 4.139 5 5 5 5 4.061z"></path><path fill="#e09367" d="M4.385 5L1 5 1 4 2.333 2.667z"></path><path fill="#788b9c" d="M13 3H16V4H13zM8 3H11V4H8zM13 8H16V9H13zM8 8H11V9H8zM13 13H16V14H13zM8 13H11V14H8z"></path><path fill="#bae0bd" d="M0.5 5.5H5.5V10.5H0.5z"></path><path fill="#5e9c76" d="M5,6v4H1V6H5 M6,5H0v6h6V5L6,5z"></path><path fill="#fff" d="M3 8L2.417 7.029C2.146 6.576 2.472 6 3 6h0c.528 0 .854.576.583 1.029L3 8zM3 8l.583.971C3.854 9.424 3.528 10 3 10h0c-.528 0-.854-.576-.583-1.029L3 8z"></path><path fill="#fff" d="M3 8L1.868 8.019C1.34 8.028 1.004 7.457 1.268 7l0 0C1.532 6.543 2.194 6.548 2.45 7.01L3 8zM3 8l1.132-.019C4.66 7.972 4.996 8.543 4.732 9l0 0C4.468 9.457 3.806 9.452 3.55 8.99L3 8z"></path><path fill="#fff" d="M3 8L2.45 8.99C2.194 9.452 1.532 9.457 1.268 9l0 0c-.264-.457.072-1.028.6-1.019L3 8zM3 8l.55-.99C3.806 6.548 4.468 6.543 4.732 7l0 0c.264.457-.072 1.028-.6 1.019L3 8z"></path><path fill="#ffeea3" d="M3 7.2A0.8 0.8 0 1 0 3 8.8A0.8 0.8 0 1 0 3 7.2Z"></path><path fill="#8bb7f0" d="M0.5 10.5H5.5V15.5H0.5z"></path><path fill="#4e7ab5" d="M5,11v4H1v-4H5 M6,10H0v6h6V10L6,10z"></path><g><path fill="#ffeea3" d="M1.821 11.821H4.178V14.178H1.821z" transform="rotate(-45.001 3 13)"></path></g><g><path fill="#ffeea3" d="M1.821 11.821H4.178V14.178H1.821z"></path></g><path fill="#fff" d="M3 12.333A0.667 0.667 0 1 0 3 13.667A0.667 0.667 0 1 0 3 12.333Z"></path></svg>