<svg xmlns="http://www.w3.org/2000/svg" viewBox="0 0 16 16"><path fill="#fff" d="M2.5,14.5v-14h11v13.616c0,0.211-0.172,0.384-0.384,0.384H2.5z"></path><path fill="#788b9c" d="M13,1v13H3V1H13 M14,0H2v15h11.116C13.604,15,14,14.604,14,14.116V0L14,0z"></path><path fill="#d6e3ed" d="M8 2H12V6H8zM4 2H7V6H4z"></path><path fill="#fff" d="M4.5 7.5H11.5V12.5H4.5z"></path><path fill="#b7c5cf" d="M11,8v4H5V8H11 M12,7H4v6h8V7L12,7z"></path><path fill="#d6e3ed" d="M11 8.995L11 12 8.112 12 9.028 13 12 13 12 8.995z"></path><path fill="#d6e3ed" d="M13 14L9.693 14 10.693 15 14 15 14 15 14 8 13 8z"></path><g><path fill="#4e7ab5" d="M14 13L14 10 12 10 12 13 10.429 13 13 16 15.571 13z"></path></g></svg>