<svg xmlns="http://www.w3.org/2000/svg" viewBox="0 0 16 16"><path fill="#f78f8f" d="M6.707,12.405l5.7-5.7c0.862-0.863,0.862-2.267,0-3.128c-0.418-0.418-0.974-0.648-1.564-0.648 s-1.146,0.23-1.564,0.648l-5.7,5.699L1.864,7.562l5.7-5.7c0.875-0.876,2.04-1.357,3.278-1.357c1.239,0,2.403,0.481,3.279,1.357 c1.808,1.808,1.808,4.749,0,6.557l-5.7,5.7L6.707,12.405z"></path><path fill="#c74343" d="M10.842,1.005c1.105,0,2.144,0.43,2.925,1.212c0.781,0.781,1.212,1.82,1.212,2.925 c0,1.105-0.43,2.144-1.212,2.925l-5.346,5.346l-1.007-1.007l5.346-5.346c0.512-0.512,0.794-1.193,0.794-1.918 c0-0.724-0.282-1.406-0.794-1.918c-0.512-0.512-1.193-0.794-1.918-0.794c-0.724,0-1.406,0.282-1.918,0.794L3.578,8.569L2.571,7.562 l5.346-5.346C8.698,1.435,9.737,1.005,10.842,1.005 M10.842,0.005c-1.315,0-2.629,0.501-3.632,1.504L1.157,7.562l2.421,2.421 L9.631,3.93c0.334-0.334,0.772-0.501,1.211-0.501s0.876,0.167,1.211,0.501v0c0.669,0.669,0.669,1.753,0,2.421l-6.053,6.053 l2.421,2.421l6.053-6.053c2.006-2.006,2.006-5.258,0-7.264v0C13.471,0.506,12.156,0.005,10.842,0.005L10.842,0.005z"></path><path fill="#4e7ab5" d="M11.392 15.947L14.654 14.643 14.327 13.012 15.958 11.382 12.706 12.677 13.023 14.317zM.007 4.533L3.268 3.229 2.942 1.598 4.573-.032 1.321 1.263 1.638 2.903z"></path><g><path fill="#8bb7f0" d="M6.065 12.33H8.502V14.754H6.065z" transform="rotate(-44.992 7.284 13.542)"></path><path fill="#4e7ab5" d="M7.288,12.53l1.007,1.007l-1.016,1.016l-1.007-1.007L7.288,12.53 M7.288,11.116l-2.43,2.43 l2.421,2.421l2.43-2.43L7.288,11.116L7.288,11.116z"></path><g><path fill="#8bb7f0" d="M1.222 7.487H3.66V9.911H1.222z" transform="rotate(-45.001 2.441 8.7)"></path><path fill="#4e7ab5" d="M2.446,7.688l1.007,1.007L2.437,9.711L1.43,8.704L2.446,7.688 M2.446,6.273l-2.43,2.43l2.421,2.421 l2.43-2.43L2.446,6.273L2.446,6.273z"></path></g></g></svg>