<svg xmlns="http://www.w3.org/2000/svg" viewBox="0 0 16 16"><path fill="#ffeea3" d="M6.018 12.973L1.5 14.328 1.5 2.872 5.982 1.527 9.982 3.027 14.5 1.672 14.5 13.128 10.018 14.473z"></path><path fill="#ba9b48" d="M5.964,2.055l3.684,1.382l0.316,0.118l0.323-0.097L14,2.344v10.412l-3.964,1.189l-3.684-1.382 l-0.316-0.118l-0.323,0.097L2,13.656V3.244L5.964,2.055 M15,1l-5,1.5L6,1L1,2.5V15l5-1.5l4,1.5l5-1.5V1L15,1z"></path><path fill="#fff" d="M10,13.928l-4-1.513V2.059l4,1.507V13.928z"></path><path fill="#f78f8f" d="M10.002,12.194C9.218,11.164,7.5,8.709,7.5,7c0-1.425,1.075-2.5,2.5-2.5s2.5,1.075,2.5,2.5 C12.5,8.585,10.941,10.962,10.002,12.194z"></path><path fill="#c74343" d="M10,5c1.14,0,2,0.86,2,2c0,1.253-1.115,3.11-2,4.354C9.115,10.11,8,8.253,8,7C8,5.86,8.86,5,10,5 M10,4C8.343,4,7,5.26,7,7c0,2.414,3,6,3,6s3-3.586,3-6C13,5.26,11.657,4,10,4L10,4z"></path><g><path fill="#c74343" d="M10 6A1 1 0 1 0 10 8A1 1 0 1 0 10 6Z"></path></g></svg>