<?xml version="1.0" encoding="utf-8"?>
<!-- Generator: Adobe Illustrator 22.1.0, SVG Export Plug-In . SVG Version: 6.00 Build 0)  -->
<svg version="1.2" baseProfile="tiny" id="katman_1"
	 xmlns="http://www.w3.org/2000/svg" xmlns:xlink="http://www.w3.org/1999/xlink" x="0px" y="0px" viewBox="0 0 16 16"
	 xml:space="preserve">
<path fill="#8BB7F0" d="M5,15.5c-2.5,0-4.5-2-4.5-4.5C0.5,9,3.4,3.6,5,1c1.6,2.7,4.5,8.1,4.5,10C9.5,13.5,7.5,15.5,5,15.5z"/>
<path fill="#4E7AB5" d="M5,2c1.8,3.2,4,7.5,4,9c0,2.2-1.8,4-4,4s-4-1.8-4-4C1,9.4,3.2,5.1,5,2 M5,0c0,0-5,8.2-5,11s2.2,5,5,5
	s5-2.2,5-5S5,0,5,0L5,0z"/>
<path fill="#FFFFFF" d="M5,14v-1c1.1,0,2-0.9,2-2h1C8,12.7,6.7,14,5,14z"/>
<path fill="#FFEEA3" d="M10.5,15.6c-0.2,0-0.3,0-0.3,0c-0.7-0.2-2.4-2.7-2-4l1.4-4.1c0.2,0,0.6-0.1,1-0.1c0.7,0,1.5,0.1,2.2,0.4
	c1.6,0.6,2.5,1.4,2.7,1.8l-1.4,4.1C13.8,14.7,11.6,15.6,10.5,15.6z"/>
<path fill="#F5C276" d="M10.6,7.8L10.6,7.8c0.7,0,1.4,0.1,2.1,0.4c1.3,0.5,2.1,1.1,2.4,1.5l-1.3,3.9c-0.3,0.9-2.3,1.8-3.4,1.8
	c-0.1,0-0.2,0-0.2,0l0,0c-0.5-0.2-2.1-2.5-1.7-3.6l1.3-3.9C10.1,7.8,10.3,7.8,10.6,7.8 M10.6,7C9.8,7,9.3,7.2,9.3,7.2
	s-0.9,2.8-1.5,4.3c-0.5,1.5,1.3,4.2,2.2,4.5c0.1,0,0.3,0.1,0.4,0.1c1.2,0,3.6-0.9,4.1-2.3c0.5-1.5,1.5-4.3,1.5-4.3s-0.9-1.3-3-2.1
	C12,7.1,11.3,7,10.6,7L10.6,7z"/>
<g>
	<path fill="#F5C276" d="M13,7.4c-2.2-0.7-3.7-0.2-3.7-0.2s-0.9,2.8-1.5,4.3c-0.5,1.5,1.3,4.2,2.2,4.5L13,7.4z"/>
</g>
<g>
	<path fill="#B08159" d="M11.5,13.4c-0.2,0-0.4,0-0.5-0.1c-0.4-0.1-0.6-0.4-0.8-0.6c0.2,0.2,0.5,0.3,0.9,0.4c0.3,0.1,0.6,0.2,1,0.2
		C11.8,13.4,11.6,13.4,11.5,13.4L11.5,13.4z"/>
	<path fill="#A16A4A" d="M9.6,11.6c0,0-0.3,1.5,1.2,2c0.2,0.1,0.5,0.1,0.7,0.1c1,0,1.6-0.9,1.6-0.9s-0.2,0-0.6,0
		c-0.4,0-0.8,0-1.3-0.2C10.1,12.4,9.6,11.6,9.6,11.6L9.6,11.6z"/>
</g>
<g>
	<path fill="#B08159" d="M13,10.5c0.2-0.1,0.3-0.2,0.5-0.2c0.1,0,0.1,0,0.2,0c0.2,0.1,0.3,0.3,0.4,0.5L13,10.5z"/>
	<path fill="#A16A4A" d="M13.5,10c-0.7,0-1.3,0.7-1.3,0.7s0.7,0.3,1.1,0.4c0.4,0.2,1.1,0.4,1.1,0.4s0.1-1.1-0.7-1.4
		C13.7,10,13.6,10,13.5,10L13.5,10z"/>
</g>
<g>
	<path fill="#B08159" d="M9.9,9.4c0.1-0.1,0.3-0.2,0.5-0.2c0.1,0,0.1,0,0.2,0c0.2,0.1,0.4,0.3,0.5,0.6L9.9,9.4z"/>
	<path fill="#A16A4A" d="M10.4,8.8c-0.6,0-1.1,0.7-1.1,0.7s0.7,0.3,1.1,0.4c0.4,0.1,1.1,0.4,1.1,0.4s0-1.2-0.8-1.5
		C10.6,8.8,10.5,8.8,10.4,8.8L10.4,8.8z"/>
</g>
</svg>
