<?xml version="1.0" encoding="utf-8"?>
<!-- Generator: Adobe Illustrator 22.1.0, SVG Export Plug-In . SVG Version: 6.00 Build 0)  -->
<svg version="1.2" baseProfile="tiny" id="katman_1"
	 xmlns="http://www.w3.org/2000/svg" xmlns:xlink="http://www.w3.org/1999/xlink" x="0px" y="0px" viewBox="0 0 16 16"
	 xml:space="preserve">
<path fill="#8BB7F0" d="M0.5,0.5h15v3h-15V0.5z"/>
<path fill="#4E7AB5" d="M15,1v2H1V1H15 M16,0H0v4h16V0L16,0z"/>
<path fill="#C2E8FF" d="M2,1C1.4,1,1,1.4,1,2s0.4,1,1,1s1-0.4,1-1S2.6,1,2,1z"/>
<path fill="#C2E8FF" d="M5,1C4.4,1,4,1.4,4,2s0.4,1,1,1s1-0.4,1-1S5.6,1,5,1z"/>
<path fill="#C2E8FF" d="M8,1C7.4,1,7,1.4,7,2s0.4,1,1,1s1-0.4,1-1S8.6,1,8,1z"/>
<path fill="#C2E8FF" d="M0.5,4.5h9v11h-9V4.5z"/>
<path fill="#7496C4" d="M9,5v10H1V5h6 M8,4H0v12h10V4H8z"/>
<path fill="#7496C4" d="M2,6h6v1H2V6z M2,8h6v1H2V8z M2,10h6v1H2V10z"/>
<rect x="2" y="12" fill="#7496C4" width="6" height="1"/>
</svg>
