<svg xmlns="http://www.w3.org/2000/svg" viewBox="0 0 16 16"><path fill="#f2faff" d="M7.5,15.5c-0.6,0-1-0.4-1-1v-13c0-0.6,0.4-1,1-1h7c0.6,0,1,0.4,1,1v13c0,0.6-0.4,1-1,1H7.5z"></path><path fill="#788b9c" d="M14.5,1C14.8,1,15,1.2,15,1.5v13c0,0.3-0.2,0.5-0.5,0.5h-7C7.2,15,7,14.8,7,14.5v-13 C7,1.2,7.2,1,7.5,1H14.5 M14.5,0h-7C6.7,0,6,0.7,6,1.5v13C6,15.3,6.7,16,7.5,16h7c0.8,0,1.5-0.7,1.5-1.5v-13C16,0.7,15.3,0,14.5,0 L14.5,0z"></path><path fill="#f2faff" d="M6 2H9V7H6z"></path><path fill="#4e7ab5" d="M0 9L2.6 12.1 5.1 9z"></path><path fill="#4e7ab5" d="M3,10.5H2v-4C2,5.1,3.1,4,4.5,4h4v1h-4C3.7,5,3,5.7,3,6.5V10.5z"></path></svg>