<svg xmlns="http://www.w3.org/2000/svg" viewBox="0 0 16 16"><path fill="#8bb7f0" d="M8 6.5A1.5 1.5 0 1 0 8 9.5A1.5 1.5 0 1 0 8 6.5Z"></path><path fill="#4e7ab5" d="M8,7c0.551,0,1,0.449,1,1S8.551,9,8,9S7,8.551,7,8S7.449,7,8,7 M8,6C6.895,6,6,6.895,6,8 s0.895,2,2,2s2-0.895,2-2S9.105,6,8,6L8,6z"></path><path fill="#8bb7f0" d="M14 6.5A1.5 1.5 0 1 0 14 9.5A1.5 1.5 0 1 0 14 6.5Z"></path><path fill="#4e7ab5" d="M14,7c0.551,0,1,0.449,1,1s-0.449,1-1,1s-1-0.449-1-1S13.449,7,14,7 M14,6c-1.105,0-2,0.895-2,2 s0.895,2,2,2s2-0.895,2-2S15.105,6,14,6L14,6z"></path><g><path fill="#8bb7f0" d="M2 6.5A1.5 1.5 0 1 0 2 9.5A1.5 1.5 0 1 0 2 6.5Z"></path><path fill="#4e7ab5" d="M2,7c0.551,0,1,0.449,1,1S2.551,9,2,9S1,8.551,1,8S1.449,7,2,7 M2,6C0.895,6,0,6.895,0,8 s0.895,2,2,2s2-0.895,2-2S3.105,6,2,6L2,6z"></path></g></svg>