<?xml version="1.0" encoding="utf-8"?>
<!-- Generator: Adobe Illustrator 22.1.0, SVG Export Plug-In . SVG Version: 6.00 Build 0)  -->
<svg version="1.2" baseProfile="tiny" id="katman_1"
	 xmlns="http://www.w3.org/2000/svg" xmlns:xlink="http://www.w3.org/1999/xlink" x="0px" y="0px" viewBox="0 0 16 16"
	 xml:space="preserve">
<path fill="#C2E8FF" d="M1.4,15.3c-0.3,0-0.7-0.3-0.7-0.7V1.4c0-0.3,0.3-0.7,0.7-0.7h13.2c0.3,0,0.7,0.3,0.7,0.7v13.2
	c0,0.3-0.3,0.7-0.7,0.7H1.4z"/>
<path fill="#7496C4" d="M15,1C15.1,1,15.1,1,15,1v13.9c0,0,0,0.1-0.1,0.1H1.1C1,15,1,15,1,14.9V1.1C1,1,1,1,1.1,1h13.8 M14.7,0H1.3
	C0.6,0,0,0.6,0,1.3v13.5C0,15.4,0.6,16,1.3,16h13.5c0.7,0,1.3-0.6,1.3-1.3V1.3C16,0.6,15.4,0,14.7,0L14.7,0z"/>
<path fill="#C74343" d="M11.5,5.3l-0.6-0.6L9,6.6L8.3,6v1.9h1.9L9.6,7.3L11.5,5.3z"/>
<path fill="#C74343" d="M7.6,8.3H5.8L6.4,9l-1.9,1.9l0.6,0.6L7,9.6l0.6,0.6V8.3z"/>
<path fill="#8BB7F0" d="M12,1.9c-1.2,0-2.1,0.9-2.1,2.1s0.9,2.1,2.1,2.1s2.1-0.9,2.1-2.1S13.2,1.9,12,1.9z"/>
<path fill="#4E7AB5" d="M12,2.3c0.9,0,1.7,0.7,1.7,1.7S12.9,5.7,12,5.7S10.3,4.9,10.3,4S11.1,2.3,12,2.3 M12,1.5
	c-1.4,0-2.5,1.1-2.5,2.5s1.1,2.5,2.5,2.5s2.5-1.1,2.5-2.5S13.4,1.5,12,1.5L12,1.5z"/>
<path fill="#8BB7F0" d="M4,9.9c-1.2,0-2.1,0.9-2.1,2.1s0.9,2.1,2.1,2.1s2.1-0.9,2.1-2.1S5.1,9.9,4,9.9z"/>
<path fill="#4E7AB5" d="M4,10.3c0.9,0,1.7,0.7,1.7,1.7S4.9,13.6,4,13.6S2.3,12.9,2.3,12S3,10.3,4,10.3 M4,9.5
	c-1.4,0-2.5,1.1-2.5,2.5s1.1,2.5,2.5,2.5s2.5-1.1,2.5-2.5S5.3,9.5,4,9.5L4,9.5z"/>
</svg>
