<?xml version="1.0" encoding="utf-8"?>
<!-- Generator: Adobe Illustrator 22.1.0, SVG Export Plug-In . SVG Version: 6.00 Build 0)  -->
<svg version="1.2" baseProfile="tiny" id="katman_1"
	 xmlns="http://www.w3.org/2000/svg" xmlns:xlink="http://www.w3.org/1999/xlink" x="0px" y="0px" viewBox="0 0 16 16"
	 xml:space="preserve">
<path fill="#788B9C" d="M8.9,10.5L9.8,10l2.7,4.8l-0.9,0.5L8.9,10.5z"/>
<path fill="#36404D" d="M12,14C12.1,14,11.9,14,12,14c0.6,0,1,0.4,1,1s-0.4,1-1,1c-0.1,0,0.1,0,0,0c-0.6,0-1-0.4-1-1S11.4,14,12,14z
	"/>
<path fill="#788B9C" d="M3.6,14.7l2.7-4.8l0.9,0.5l-2.7,4.8L3.6,14.7z"/>
<path fill="#36404D" d="M4,14C3.9,14,4.1,14,4,14c-0.6,0-1,0.4-1,1s0.4,1,1,1c0.1,0-0.1,0,0,0c0.6,0,1-0.4,1-1S4.6,14,4,14z"/>
<path fill="#66798F" d="M7,0h2v14H7V0z"/>
<path fill="#C2E8FF" d="M1.5,1.5h13v10h-13V1.5z"/>
<path fill="#7496C4" d="M14,2v9H2V2H14 M15,1H1v11h14V1L15,1z"/>
<g>
	<path fill="#E1EBF2" d="M0,1h16v1H0V1z"/>
	<path fill="#788B9C" d="M16,1H0v1h16V1z"/>
</g>
<path fill="#66798F" d="M10,10.4h-5l1.2-3L3.9,4.5l4.3-1.8l3.6,1.8v3L10,10.4z M5.8,9.9h3.9l1.6-2.6V4.8L8.2,3.3L4.8,4.7l2.1,2.6
	L5.8,9.9z"/>
<path fill="#BAE0BD" d="M6.6,6.8C6.2,6.8,6,7.1,6,7.4c0,0.3,0.2,0.6,0.6,0.6s0.6-0.2,0.6-0.6C7.1,7.1,6.9,6.8,6.6,6.8z"/>
<path fill="#5E9C76" d="M6.6,7.1c0.2,0,0.3,0.1,0.3,0.3c0,0.2-0.1,0.3-0.3,0.3S6.3,7.5,6.3,7.4C6.3,7.2,6.4,7.1,6.6,7.1 M6.6,6.5
	c-0.4,0-0.8,0.4-0.8,0.8c0,0.4,0.4,0.8,0.8,0.8s0.8-0.4,0.8-0.8C7.4,6.9,7,6.5,6.6,6.5L6.6,6.5z"/>
<path fill="#BAE0BD" d="M8.2,2.4c-0.3,0-0.6,0.2-0.6,0.6s0.2,0.6,0.6,0.6c0.3,0,0.6-0.2,0.6-0.6S8.5,2.4,8.2,2.4z"/>
<path fill="#5E9C76" d="M8.2,2.7c0.2,0,0.3,0.1,0.3,0.3c0,0.2-0.1,0.3-0.3,0.3S7.9,3.1,7.9,2.9C7.9,2.8,8,2.7,8.2,2.7 M8.2,2.1
	c-0.4,0-0.8,0.4-0.8,0.8s0.4,0.8,0.8,0.8C8.7,3.8,9,3.4,9,2.9S8.7,2.1,8.2,2.1L8.2,2.1z"/>
<path fill="#BAE0BD" d="M11.5,4C11.2,4,11,4.3,11,4.6s0.2,0.6,0.6,0.6s0.6-0.2,0.6-0.6S11.8,4,11.5,4z"/>
<path fill="#5E9C76" d="M11.5,4.3c0.2,0,0.3,0.1,0.3,0.3c0,0.2-0.1,0.3-0.3,0.3s-0.3-0.1-0.3-0.3C11.3,4.4,11.4,4.3,11.5,4.3
	 M11.5,3.8c-0.4,0-0.8,0.4-0.8,0.8c0,0.4,0.4,0.8,0.8,0.8s0.8-0.4,0.8-0.8C12.4,4.2,12,3.8,11.5,3.8L11.5,3.8z"/>
<path fill="#BAE0BD" d="M11.5,6.8c-0.3,0-0.6,0.2-0.6,0.6c0,0.3,0.2,0.6,0.6,0.6s0.6-0.2,0.6-0.6C12.1,7.1,11.8,6.8,11.5,6.8z"/>
<path fill="#5E9C76" d="M11.5,7.1c0.2,0,0.3,0.1,0.3,0.3c0,0.2-0.1,0.3-0.3,0.3s-0.3-0.1-0.3-0.3C11.3,7.2,11.4,7.1,11.5,7.1
	 M11.5,6.5c-0.4,0-0.8,0.4-0.8,0.8c0,0.4,0.4,0.8,0.8,0.8s0.8-0.4,0.8-0.8C12.4,6.9,12,6.5,11.5,6.5L11.5,6.5z"/>
<g>
	<path fill="#BAE0BD" d="M4.3,4C4,4,3.8,4.3,3.8,4.6S4,5.2,4.3,5.2s0.6-0.2,0.6-0.6S4.6,4,4.3,4z"/>
	<path fill="#5E9C76" d="M4.3,4.3c0.2,0,0.3,0.1,0.3,0.3c0,0.2-0.1,0.3-0.3,0.3S4.1,4.8,4.1,4.6C4.1,4.4,4.2,4.3,4.3,4.3 M4.3,3.8
		c-0.4,0-0.8,0.4-0.8,0.8c0,0.4,0.4,0.8,0.8,0.8S5.2,5,5.2,4.6C5.2,4.2,4.8,3.8,4.3,3.8L4.3,3.8z"/>
</g>
<g>
	<path fill="#BAE0BD" d="M5.4,9.6c-0.3,0-0.6,0.2-0.6,0.6c0,0.3,0.2,0.6,0.6,0.6S6,10.4,6,10.1C6,9.8,5.7,9.6,5.4,9.6z"/>
	<path fill="#5E9C76" d="M5.4,9.9c0.2,0,0.3,0.1,0.3,0.3c0,0.2-0.1,0.3-0.3,0.3s-0.3-0.1-0.3-0.3C5.2,10,5.3,9.9,5.4,9.9 M5.4,9.3
		c-0.4,0-0.8,0.4-0.8,0.8C4.6,10.6,5,11,5.4,11s0.8-0.4,0.8-0.8C6.3,9.7,5.9,9.3,5.4,9.3L5.4,9.3z"/>
</g>
<g>
	<path fill="#BAE0BD" d="M9.9,9.6c-0.3,0-0.6,0.2-0.6,0.6c0,0.3,0.2,0.6,0.6,0.6s0.6-0.2,0.6-0.6C10.4,9.8,10.2,9.6,9.9,9.6z"/>
	<path fill="#5E9C76" d="M9.9,9.9c0.2,0,0.3,0.1,0.3,0.3c0,0.2-0.1,0.3-0.3,0.3s-0.3-0.1-0.3-0.3C9.6,10,9.7,9.9,9.9,9.9 M9.9,9.3
		C9.4,9.3,9,9.7,9,10.1C9,10.6,9.4,11,9.9,11s0.8-0.4,0.8-0.8C10.7,9.7,10.3,9.3,9.9,9.3L9.9,9.3z"/>
</g>
</svg>
