<svg xmlns="http://www.w3.org/2000/svg" viewBox="0 0 16 16"><path fill="#4e7ab5" d="M3.521 13.566L2.13 8.004 0 8.004 0 7.004 2.911 7.004 3.521 9.443 5.521 1.443 6.911 7 10 7.021 10 8 6.13 8 5.521 5.566zM10 5.051v1.042c.581.207 1 .757 1 1.408s-.419 1.201-1 1.408v1.042c1.14-.232 2-1.242 2-2.449S11.14 5.283 10 5.051z"></path><path fill="#7496c4" d="M10,3.051v1c1.692,0.245,3,1.691,3,3.449s-1.308,3.204-3,3.449v1c2.244-0.252,4-2.139,4-4.449  S12.244,3.303,10,3.051z"></path><path fill="#8bb7f0" d="M10,1.025v1c2.799,0.254,5,2.611,5,5.475s-2.201,5.221-5,5.475v1c3.351-0.257,6-3.059,6-6.475  S13.351,1.282,10,1.025z"></path></svg>