<?xml version="1.0" encoding="utf-8"?>
<!-- Generator: Adobe Illustrator 22.1.0, SVG Export Plug-In . SVG Version: 6.00 Build 0)  -->
<svg version="1.1" id="katman_1" xmlns="http://www.w3.org/2000/svg" xmlns:xlink="http://www.w3.org/1999/xlink" x="0px" y="0px"
	 viewBox="0 0 40 40" style="enable-background:new 0 0 40 40;" xml:space="preserve">
<style type="text/css">
	.st0{fill:#B0C1D4;}
	.st1{fill:#66798F;}
	.st2{fill:#5C6E7F;}
</style>
<path class="st0" d="M1.5,1.5h37v37h-37V1.5z"/>
<path class="st1" d="M38,2.3v35.5H2V2.3H38 M39,1H1v38h38V1L39,1z"/>
<path class="st2" d="M14.1,9c-0.3,0-0.6,0-0.9,0c-0.8,0-1.5,0.2-2.3,0.4C9.2,9.9,8,10.9,7.2,12.5C7,13,6.8,13.6,6.6,14.2
	C6.1,15.8,6,17.4,6,19.1c0,1.1,0.1,2.2,0.2,3.3c0.2,1,0.4,2,0.8,3c0.7,1.7,2,2.8,3.9,3.3c1.6,0.4,3.2,0.5,4.9,0.2
	c0.8,1.3,1.7,2.7,2.5,4.1c1-0.5,2-0.9,3-1.4c-0.8-1.3-1.6-2.6-2.4-3.8c0.3-0.3,0.7-0.6,1-0.9c0.8-0.8,1.2-1.8,1.5-2.8
	c0.4-1.5,0.5-3.1,0.6-4.6c0-1.2-0.1-2.4-0.2-3.6c-0.2-1.1-0.4-2.2-0.9-3.2c-0.8-1.8-2.1-2.9-4-3.3C16,9.1,15,9,14.1,9z M27,11v4h-2
	v3h2v7c0,0.8,0.2,1.6,0.5,2.3c0.3,0.6,0.7,1,1.3,1.3c0.5,0.2,0.9,0.3,1.4,0.3c0.9,0.1,2.1-0.1,3-0.2c0.3,0,0.5-0.1,0.8-0.2
	c0-0.8-0.1-1.9-0.1-2.7c-0.1,0-0.2,0-0.2,0c-0.6,0-1.4,0.1-2,0.1c-0.3,0-0.5,0-0.8-0.1c-0.3-0.1-0.6-0.3-0.7-0.6
	c0-0.1-0.1-0.3-0.1-0.4c0-0.5-0.1-1.3-0.1-1.9c0-1.9,0-5,0-5h4v-3h-4v-4H27z M14,12c0.6,0,1.2,0.1,1.8,0.2c1,0.2,1.8,0.8,2.2,1.7
	c0.4,0.7,0.6,1.5,0.7,2.3c0.1,1,0.2,2,0.2,2.6c-0.1,1.7-0.1,3-0.5,4.3c-0.1,0.3-0.2,0.5-0.3,0.8c-0.4,1-1.3,1.7-2.4,1.9
	c-1.2,0.3-2.4,0.3-3.6,0c-1.3-0.3-2.1-1-2.6-2.1C9.3,22.9,9.1,22,9.1,21C9,20,9,19,9,17.9c0-1.1,0.2-2.2,0.6-3.3
	c0.1-0.2,0.2-0.4,0.3-0.7c0.5-0.9,1.2-1.4,2.3-1.7C12.8,12.1,13.4,12,14,12z"/>
</svg>
