<?xml version="1.0" encoding="utf-8"?>
<!-- Generator: Adobe Illustrator 22.1.0, SVG Export Plug-In . SVG Version: 6.00 Build 0)  -->
<svg version="1.1" id="katman_1" xmlns="http://www.w3.org/2000/svg" xmlns:xlink="http://www.w3.org/1999/xlink" x="0px" y="0px"
	 viewBox="0 0 16 16" style="enable-background:new 0 0 16 16;" xml:space="preserve">
<style type="text/css">
	.st0{fill:#4E7AB5;}
	.st1{fill:#FFFFFF;stroke:#8DB8EE;stroke-miterlimit:10;}
</style>
<path class="st0" d="M15,9H1C0.4,9,0,8.6,0,8l0,0c0-0.6,0.4-1,1-1h14c0.6,0,1,0.4,1,1l0,0C16,8.6,15.6,9,15,9z"/>
<path class="st1" d="M12,10.5L12,10.5c1.4,0,2.5-1.1,2.5-2.5l0,0c0-1.4-1.1-2.5-2.5-2.5l0,0c-1.4,0-2.5,1.1-2.5,2.5l0,0
	C9.5,9.4,10.6,10.5,12,10.5z"/>
<path class="st1" d="M4,10.5L4,10.5c1.4,0,2.5-1.1,2.5-2.5l0,0c0-1.4-1.1-2.5-2.5-2.5l0,0C2.6,5.5,1.5,6.6,1.5,8l0,0
	C1.5,9.4,2.6,10.5,4,10.5z"/>
</svg>
