<svg xmlns="http://www.w3.org/2000/svg" viewBox="0 0 30 30"><path fill="#8bb7f0" d="M12.5,25.5H7c-3.032,0-5.5-2.467-5.5-5.5V10c0-3.033,2.468-5.5,5.5-5.5h2.5v3H7 c-1.379,0-2.5,1.122-2.5,2.5v10c0,1.378,1.121,2.5,2.5,2.5h5.5v-2.433L17.219,24L12.5,27.933V25.5z M20.5,25.5v-3H23 c1.379,0,2.5-1.122,2.5-2.5V10c0-1.378-1.121-2.5-2.5-2.5h-5.5v2.433L12.781,6L17.5,2.067V4.5H23c3.032,0,5.5,2.467,5.5,5.5v10 c0,3.033-2.468,5.5-5.5,5.5H20.5z"></path><path fill="#4e7ab5" d="M17,3.135V4v1h1h5c2.757,0,5,2.243,5,5v10c0,2.757-2.243,5-5,5h-2v-2h2c1.654,0,3-1.346,3-3V10 c0-1.654-1.346-3-3-3h-5h-1v1v0.865L13.562,6L17,3.135 M9,5v2H7c-1.654,0-3,1.346-3,3v10c0,1.654,1.346,3,3,3h5h1v-1v-0.865 L16.438,24L13,26.865V26v-1h-1H7c-2.757,0-5-2.243-5-5V10c0-2.757,2.243-5,5-5H9 M18,1l-6,5l6,5V8h5c1.105,0,2,0.895,2,2v10 c0,1.105-0.895,2-2,2h-3v4h3c3.314,0,6-2.686,6-6V10c0-3.314-2.686-6-6-6h-5V1L18,1z M10,4H7c-3.314,0-6,2.686-6,6v10 c0,3.314,2.686,6,6,6h5v3l6-5l-6-5v3H7c-1.105,0-2-0.895-2-2V10c0-1.105,0.895-2,2-2h3V4L10,4z"></path></svg>