<?xml version="1.0" encoding="utf-8"?>
<!-- Generator: Adobe Illustrator 22.1.0, SVG Export Plug-In . SVG Version: 6.00 Build 0)  -->
<svg version="1.2" baseProfile="tiny" id="katman_1"
	 xmlns="http://www.w3.org/2000/svg" xmlns:xlink="http://www.w3.org/1999/xlink" x="0px" y="0px" viewBox="0 0 16 16"
	 xml:space="preserve">
<path fill="#B0C1D4" d="M8,1.5L8,1.5c3.6,0,6.5,2.9,6.5,6.5v0c0,3.6-2.9,6.5-6.5,6.5h0c-3.6,0-6.5-2.9-6.5-6.5v0
	C1.5,4.4,4.4,1.5,8,1.5z"/>
<path fill="#D8E2ED" d="M4.6,2h3.9c3,0,5.5,2.5,5.5,5.5v0c0,3-2.5,5.5-5.5,5.5h-1C4.5,13,2,10.5,2,7.5V5.1C2,4.5,4.1,2,4.6,2z"/>
<g>
	<path fill="#36404D" d="M4,10.9V6h1.9c0.8,0,1.4,0.5,1.4,1.2c0,0.5-0.4,1-0.9,1.1l0,0c0.7,0.1,1.1,0.6,1.1,1.2
		c0,0.9-0.6,1.4-1.7,1.4H4z M4.6,8.1h0.9c0.7,0,1.1-0.3,1.1-0.8S6.3,6.5,5.7,6.5H4.6V8.1z M5.8,10.4c0.7,0,1.1-0.3,1.1-0.9
		c0-0.6-0.4-0.9-1.2-0.9H4.6v1.7L5.8,10.4L5.8,10.4z"/>
	<path fill="#36404D" d="M8.8,6.4v0.9h0.7v0.5H8.8v2.1c0,0.3,0.1,0.5,0.4,0.5c0.1,0,0.2,0,0.2,0v0.5c-0.1,0-0.2,0-0.4,0
		c-0.7,0-0.9-0.3-0.9-1V7.8H7.7V7.3h0.5V6.4H8.8z"/>
	<path fill="#36404D" d="M10,7.3h0.6v0.6l0,0c0.2-0.4,0.6-0.6,1.1-0.6c0.8,0,1.2,0.5,1.2,1.3v2.3h-0.6V8.7c0-0.6-0.3-0.9-0.8-0.9
		c-0.6,0-0.9,0.4-0.9,1v2.1H10V7.3z"/>
</g>
<path fill="#66798F" d="M8,1C4.1,1,1,4.1,1,8s3.1,7,7,7s7-3.1,7-7S11.9,1,8,1z M8,14c-3.3,0-6-2.7-6-6s2.7-6,6-6s6,2.7,6,6
	S11.3,14,8,14z"/>
</svg>
