<svg xmlns="http://www.w3.org/2000/svg" viewBox="0 0 16 16"><path fill="#ffeea3" d="M6.5,12.722v-1.611c0-0.91-0.646-1.73-1.329-2.599C4.388,7.517,3.5,6.389,3.5,5 c0-2.481,2.019-4.5,4.5-4.5s4.5,2.019,4.5,4.5c0,1.389-0.888,2.517-1.671,3.513C10.146,9.381,9.5,10.201,9.5,11.111v1.611H6.5z"></path><path fill="#ba9b48" d="M8,1c2.206,0,4,1.794,4,4c0,1.215-0.795,2.226-1.564,3.203C9.697,9.142,9,10.028,9,11.111v1.111H7 v-1.111c0-1.084-0.697-1.97-1.436-2.908C4.795,7.226,4,6.215,4,5C4,2.794,5.794,1,8,1 M8,0C5.239,0,3,2.239,3,5 c0,2.778,3,4.427,3,6.111v2.111h4v-2.111C10,9.427,13,7.778,13,5C13,2.239,10.761,0,8,0L8,0z"></path><path fill="#fff" d="M8.79,4.5c0.09,0,0.175,0.035,0.239,0.099c0.132,0.132,0.132,0.347,0,0.479L8.437,5.67L8.29,5.817 v0.207V13.5H7.71V6.024V5.817L7.563,5.67L6.97,5.078c-0.132-0.132-0.132-0.347,0-0.479C7.034,4.535,7.119,4.5,7.21,4.5 c0.09,0,0.175,0.035,0.239,0.099l0.198,0.198L8,5.15l0.354-0.354l0.198-0.198C8.615,4.535,8.7,4.5,8.79,4.5 M8.79,4 C8.576,4,8.361,4.082,8.198,4.246L8,4.443L7.802,4.246C7.639,4.082,7.424,4,7.21,4C6.995,4,6.78,4.082,6.617,4.246 c-0.327,0.327-0.327,0.858,0,1.186L7.21,6.024V14H8.79V6.024l0.593-0.593c0.327-0.327,0.327-0.858,0-1.186 C9.22,4.082,9.005,4,8.79,4L8.79,4z"></path><path fill="#2d3540" d="M8 14A1 1 0 1 0 8 16A1 1 0 1 0 8 14Z"></path><path fill="#dcd5f2" d="M7,14.5c-0.276,0-0.5-0.224-0.5-0.5v-1.5h3V14c0,0.276-0.224,0.5-0.5,0.5H7z"></path><path fill="#8b75a1" d="M9,13v1H7v-1H9 M10,12H6v2c0,0.552,0.448,1,1,1h2c0.552,0,1-0.448,1-1V12L10,12z"></path><path fill="#ba9b48" d="M13.5 0A.5.5 0 1 0 13.5 1 .5.5 0 1 0 13.5 0zM14.5 2A.5.5 0 1 0 14.5 3 .5.5 0 1 0 14.5 2zM15.5 4A.5.5 0 1 0 15.5 5 .5.5 0 1 0 15.5 4zM15.5 6A.5.5 0 1 0 15.5 7 .5.5 0 1 0 15.5 6zM14.5 8A.5.5 0 1 0 14.5 9 .5.5 0 1 0 14.5 8zM13.5 10A.5.5 0 1 0 13.5 11 .5.5 0 1 0 13.5 10zM2.5 10A.5.5 0 1 0 2.5 11 .5.5 0 1 0 2.5 10zM1.5 8A.5.5 0 1 0 1.5 9 .5.5 0 1 0 1.5 8zM.5 6A.5.5 0 1 0 .5 7 .5.5 0 1 0 .5 6zM.5 4A.5.5 0 1 0 .5 5 .5.5 0 1 0 .5 4zM1.5 2A.5.5 0 1 0 1.5 3 .5.5 0 1 0 1.5 2zM2.5 0A.5.5 0 1 0 2.5 1 .5.5 0 1 0 2.5 0z"></path></svg>