<svg xmlns="http://www.w3.org/2000/svg" viewBox="0 0 16 16"><path fill="#ffeea3" d="M3.5,12.722v-1.611c0-0.91-0.646-1.73-1.329-2.599C1.388,7.517,0.5,6.389,0.5,5 c0-2.481,2.019-4.5,4.5-4.5S9.5,2.519,9.5,5c0,1.389-0.888,2.517-1.671,3.513C7.146,9.381,6.5,10.201,6.5,11.111v1.611H3.5z"></path><path fill="#ba9b48" d="M5,1c2.206,0,4,1.794,4,4c0,1.215-0.795,2.226-1.564,3.203C6.697,9.142,6,10.028,6,11.111v1.111H4 v-1.111c0-1.084-0.697-1.97-1.436-2.908C1.795,7.226,1,6.215,1,5C1,2.794,2.794,1,5,1 M5,0C2.239,0,0,2.239,0,5 c0,2.778,3,4.427,3,6.111v2.111h4v-2.111C7,9.427,10,7.778,10,5C10,2.239,7.761,0,5,0L5,0z"></path><path fill="#fff" d="M5.79,4.5c0.09,0,0.175,0.035,0.239,0.099c0.132,0.132,0.132,0.347,0,0.479L5.437,5.67L5.29,5.817 v0.207V13.5H4.71V6.024V5.817L4.563,5.67L3.97,5.078c-0.132-0.132-0.132-0.347,0-0.479C4.034,4.535,4.119,4.5,4.21,4.5 c0.09,0,0.175,0.035,0.239,0.099l0.198,0.198L5,5.15l0.354-0.354l0.198-0.198C5.615,4.535,5.7,4.5,5.79,4.5 M5.79,4 C5.576,4,5.361,4.082,5.198,4.246L5,4.443L4.802,4.246C4.639,4.082,4.424,4,4.21,4C3.995,4,3.78,4.082,3.617,4.246 c-0.327,0.327-0.327,0.858,0,1.186L4.21,6.024V14H5.79V6.024l0.593-0.593c0.327-0.327,0.327-0.858,0-1.186 C6.22,4.082,6.005,4,5.79,4L5.79,4z"></path><path fill="#2d3540" d="M5 14A1 1 0 1 0 5 16A1 1 0 1 0 5 14Z"></path><path fill="#dcd5f2" d="M4,14.5c-0.276,0-0.5-0.224-0.5-0.5v-1.5h3V14c0,0.276-0.224,0.5-0.5,0.5H4z"></path><path fill="#8b75a1" d="M6,13v1H4v-1H6 M7,12H3v2c0,0.552,0.448,1,1,1h2c0.552,0,1-0.448,1-1V12L7,12z"></path><g><path fill="#8b75a1" d="M15.265,12c0-0.239-0.035-0.468-0.088-0.691L16,10.47L15.458,9.53l-1.139,0.293 c-0.334-0.315-0.742-0.547-1.194-0.683L12.807,8h-1.085l-0.318,1.14c-0.452,0.136-0.859,0.367-1.194,0.683L9.072,9.53L8.53,10.47 l0.823,0.84C9.3,11.532,9.265,11.761,9.265,12s0.035,0.468,0.088,0.69L8.53,13.53l0.542,0.939l1.139-0.293 c0.334,0.315,0.742,0.547,1.194,0.683L11.723,16h1.085l0.318-1.14c0.452-0.136,0.859-0.367,1.194-0.683l1.139,0.293L16,13.53 l-0.823-0.84C15.23,12.468,15.265,12.239,15.265,12z M12.265,13.244c-0.687,0-1.244-0.557-1.244-1.244 c0-0.687,0.557-1.244,1.244-1.244s1.244,0.557,1.244,1.244C13.509,12.687,12.952,13.244,12.265,13.244z"></path></g></svg>