<?xml version="1.0" encoding="utf-8"?>
<!-- Generator: Adobe Illustrator 22.1.0, SVG Export Plug-In . SVG Version: 6.00 Build 0)  -->
<svg version="1.2" baseProfile="tiny" id="katman_1"
	 xmlns="http://www.w3.org/2000/svg" xmlns:xlink="http://www.w3.org/1999/xlink" x="0px" y="0px" viewBox="0 0 16 16"
	 xml:space="preserve">
<path fill="#4E7AB5" d="M15,9H1C0.4,9,0,8.6,0,8v0c0-0.6,0.4-1,1-1h14c0.6,0,1,0.4,1,1v0C16,8.6,15.6,9,15,9z"/>
<path fill="#FFFFFF" stroke="#8DB8EE" stroke-miterlimit="10" d="M11,11L11,11c1.7,0,3-1.3,3-3l0,0c0-1.7-1.3-3-3-3l0,0
	C9.3,5,8,6.3,8,8l0,0C8,9.7,9.3,11,11,11z"/>
</svg>
