<svg xmlns="http://www.w3.org/2000/svg" viewBox="0 0 16 16"><path fill="#8bb7f0" d="M0.5 3.5H14.5V11.5H0.5z"></path><path fill="#4e7ab5" d="M14,4v7H1V4H14 M15,3H0v9h15V3L15,3z"></path><path fill="#4e7ab5" d="M14 2v1H1V2H14M15 1H0v3h15V1L15 1zM14 12v1H1v-1H14M15 11H0v3h15V11L15 11z"></path><path fill="#4e7ab5" d="M2 1H3V4H2zM4 1H5V4H4zM6 1H7V4H6zM8 1H9V4H8zM10 1H11V4H10zM12 1H13V4H12zM10 11H11V14H10zM12 11H13V14H12zM2 11H3V14H2zM4 11H5V14H4zM6 11H7V14H6zM8 11H9V14H8z"></path><path fill="#fff" d="M5.5 8A1.5 1.5 0 1 0 5.5 11 1.5 1.5 0 1 0 5.5 8zM9.5 7A1.5 1.5 0 1 0 9.5 10 1.5 1.5 0 1 0 9.5 7z"></path><path fill="#fff" d="M6 6H7V9.594H6zM10 5H11V8.531H10z"></path><path fill="#fff" d="M6 6.607L11 5.607 11 4 6 5z"></path></svg>