<?xml version="1.0" encoding="utf-8"?>
<!-- Generator: Adobe Illustrator 22.1.0, SVG Export Plug-In . SVG Version: 6.00 Build 0)  -->
<svg version="1.2" baseProfile="tiny" id="katman_1"
	 xmlns="http://www.w3.org/2000/svg" xmlns:xlink="http://www.w3.org/1999/xlink" x="0px" y="0px" viewBox="0 0 16 16"
	 xml:space="preserve">
<path fill="#A1B1BF" d="M6.5,1.5h9v13h-9V1.5z"/>
<path fill="#66798F" d="M15,2v12H7V2H15 M16,1H6v14h10V1L16,1z"/>
<path fill="#A1B1BF" d="M0.5,1.5h9v13h-9V1.5z"/>
<path fill="#5C6E7F" d="M9,2v12H1V2H9 M10,1H0v14h10V1L10,1z"/>
<path fill="#B0C1D4" d="M3.5,1.5h9v13h-9V1.5z"/>
<path fill="#526272" d="M12,2v12H4V2H12 M13,1H3v14h10V1L13,1z"/>
</svg>
