<svg xmlns="http://www.w3.org/2000/svg" viewBox="0 0 16 16"><path fill="#f78f8f" d="M1.9,13.5l1.9-12c0.1-0.6,0.6-1,1.2-1H11c0.6,0,1.1,0.4,1.2,1l1.9,12H1.9z"></path><path fill="#c74343" d="M11,1c0.3,0,0.6,0.2,0.7,0.6L13.5,13H2.5L4.3,1.6C4.3,1.2,4.6,1,5,1H11 M11,0H5 C4.1,0,3.4,0.6,3.3,1.4L1.3,14h13.4l-2-12.6C12.6,0.6,11.9,0,11,0L11,0z"></path><path fill="#b6c9d6" d="M0.8,15.5c-0.1,0-0.2-0.1-0.3-0.1c0,0-0.1-0.1-0.1-0.3l0.2-1.3c0-0.2,0.2-0.3,0.3-0.3h13.9 c0.2,0,0.3,0.1,0.3,0.3l0.2,1.3c0,0.1,0,0.2-0.1,0.3c0,0-0.1,0.1-0.3,0.1C15.2,15.5,0.8,15.5,0.8,15.5z"></path><path fill="#788b9c" d="M14.8,14l0.2,1H1l0.2-1H14.8 M14.9,13H1.1c-0.4,0-0.8,0.3-0.8,0.7L0,15c-0.1,0.5,0.3,1,0.8,1h14.3 c0.5,0,0.9-0.5,0.8-1l-0.2-1.3C15.7,13.3,15.3,13,14.9,13L14.9,13z"></path><path fill="#f78f8f" d="M8 6.5A1.5 1.5 0 1 0 8 9.5A1.5 1.5 0 1 0 8 6.5Z"></path><path fill="#c74343" d="M8,7c0.6,0,1,0.4,1,1S8.6,9,8,9S7,8.6,7,8S7.4,7,8,7 M8,6C6.9,6,6,6.9,6,8s0.9,2,2,2s2-0.9,2-2 S9.1,6,8,6L8,6z"></path><path fill="#f7a8a8" d="M11.7,1.6C11.7,1.2,11.4,1,11,1H8v4c1.7,0,3,1.3,3,3s-1.3,3-3,3v2h5.5L11.7,1.6z"></path><path fill="#f7fcff" d="M4.1,12.2C4.1,12.2,4,12.2,4.1,12.2c-0.3,0-0.5-0.3-0.5-0.6l1.3-9.1C5,2.2,5.2,2,5.5,2.1 c0.3,0,0.5,0.3,0.4,0.6l-1.3,9.1C4.6,12,4.3,12.2,4.1,12.2z"></path></svg>