<?xml version="1.0" encoding="utf-8"?>
<!-- Generator: Adobe Illustrator 22.1.0, SVG Export Plug-In . SVG Version: 6.00 Build 0)  -->
<svg version="1.2" baseProfile="tiny" id="katman_1"
	 xmlns="http://www.w3.org/2000/svg" xmlns:xlink="http://www.w3.org/1999/xlink" x="0px" y="0px" viewBox="0 0 16 16"
	 xml:space="preserve">
<path fill="#E1EBF2" d="M6.5,13.5v-11h6.4l2.6,2.7v8.3H6.5z"/>
<path fill="#788B9C" d="M12.7,3L15,5.4V13H7V3H12.7 M13.1,2H6v12h10V5L13.1,2L13.1,2z"/>
<path fill="#FFFFFF" d="M12.5,5.5v-3h0.3l2.7,2.7v0.3H12.5z"/>
<path fill="#788B9C" d="M13,3.4L14.6,5H13V3.4 M13,2h-1v4h4V5L13,2L13,2z"/>
<path fill="#FFFFFF" d="M0.5,14.5v-11h6.4l2.6,2.7v8.3H0.5z"/>
<path fill="#788B9C" d="M6.7,4L9,6.4V14H1V4H6.7 M7.1,3H0v12h10V6L7.1,3L7.1,3z"/>
<g>
	<path fill="#FFFFFF" d="M6.5,6.5v-3h0.3l2.7,2.7v0.3H6.5z"/>
	<path fill="#788B9C" d="M7,4.4L8.6,6H7V4.4 M7,3H6v4h4V6L7,3L7,3z"/>
</g>
<path fill="#C74343" d="M12,10H6v2h6v2l3-3l-3-3V10z"/>
<path fill="#8BB7F0" d="M4,8.5c-1.4,0-2.5,1.1-2.5,2.5s1.1,2.5,2.5,2.5s2.5-1.1,2.5-2.5S5.4,8.5,4,8.5z"/>
<path fill="#4E7AB5" d="M4,9c1.1,0,2,0.9,2,2s-0.9,2-2,2s-2-0.9-2-2S2.9,9,4,9 M4,8c-1.7,0-3,1.3-3,3s1.3,3,3,3s3-1.3,3-3S5.7,8,4,8
	L4,8z"/>
</svg>
