<svg xmlns="http://www.w3.org/2000/svg" viewBox="0 0 16 16"><path fill="#fff" d="M0.5 0.5H15.5V15.5H0.5z"></path><path fill="#788b9c" d="M15,1v14H1V1H15 M16,0H0v16h16V0L16,0z"></path><path fill="#c5d4de" d="M-3.5 7.5H10.5V8.5H-3.5z" transform="rotate(90 3.5 8)"></path><path fill="#c5d4de" d="M-0.5 7.5H13.5V8.5H-0.5z" transform="rotate(90 6.5 8)"></path><path fill="#c5d4de" d="M2.5 7.5H16.5V8.5H2.5z" transform="rotate(90 9.5 8)"></path><path fill="#c5d4de" d="M5.5 7.5H19.5V8.5H5.5z" transform="rotate(90 12.5 8)"></path><path fill="#c5d4de" d="M1 3H15V4H1z" transform="rotate(-180 8 3.5)"></path><path fill="#c5d4de" d="M1 6H15V7H1z" transform="rotate(-180 8 6.5)"></path><path fill="#c5d4de" d="M1 9H15V10H1z" transform="rotate(-180 8 9.5)"></path><path fill="#c5d4de" d="M1 12H15V13H1z" transform="rotate(-180 8 12.5)"></path></svg>