<?xml version="1.0" encoding="utf-8"?>
<!-- Generator: Adobe Illustrator 22.1.0, SVG Export Plug-In . SVG Version: 6.00 Build 0)  -->
<svg version="1.2" baseProfile="tiny" id="katman_1"
	 xmlns="http://www.w3.org/2000/svg" xmlns:xlink="http://www.w3.org/1999/xlink" x="0px" y="0px" viewBox="0 0 16 16"
	 xml:space="preserve">
<path fill="#FFFFFF" d="M0.5,0.5h15v13h-15V0.5z"/>
<path fill="#788B9C" d="M15,3v12H1V1h14 M16,0H0v16h16V2V0z"/>
<path fill="#36404D" d="M7,12H6.5C5.1,12,4,10.9,4,9.5v-3C4,5.1,5.1,4,6.5,4H7v1H6.5C5.7,5,5,5.7,5,6.5v3C5,10.3,5.7,11,6.5,11H7V12
	z"/>
<path fill="#36404D" d="M2.5,12H2v-1h0.5C3.3,11,4,10.3,4,9.5v-3C4,5.7,3.3,5,2.5,5H2V4h0.5C3.9,4,5,5.1,5,6.5v3
	C5,10.9,3.9,12,2.5,12z"/>
<path fill="#36404D" d="M3,8h3v1H3V8z"/>
<polygon fill="#C74343" points="16,12 16,16 12,16 "/>
</svg>
