<svg xmlns="http://www.w3.org/2000/svg" viewBox="0 0 16 16"><path fill="#fff" d="M0.5 8.5H15.5V13.5H0.5z"></path><path fill="#788b9c" d="M15,9v4H1V9H15 M16,8H0v6h16V8L16,8z"></path><g><path fill="#f5ce85" d="M6.451 8.356L7.088 7.718 8.369 8.834 7.653 9.55 5.812 10.189z"></path><path fill="#967a44" d="M7.112,8.402l0.525,0.457L7.381,9.115L6.624,9.378l0.261-0.749L7.112,8.402 M7.065,7.035 L6.016,8.083L5,11l2.925-1.015l1.176-1.176L7.065,7.035L7.065,7.035z"></path><path fill="#36404d" d="M5.485 9.609L5.001 11.001 6.395 10.516z"></path><path fill="#ffeea3" d="M8.078,9.302C7.991,9.208,7.856,9.108,7.654,9.055C7.542,8.681,7.248,8.467,6.958,8.373 C6.905,8.192,6.808,8.05,6.686,7.944l4.634-4.638l1.375,1.375L8.078,9.302z"></path><path fill="#ba9b48" d="M11.32,3.836l0.845,0.845L8.042,8.806C8.009,8.789,7.974,8.772,7.938,8.756 C7.79,8.446,7.539,8.22,7.251,8.086C7.232,8.046,7.212,8.007,7.19,7.97L11.32,3.836 M11.319,2.775L6.016,8.083 c0,0,0.003,0,0.007,0c0.069,0,0.602,0.019,0.602,0.607c0,0,0.7,0.022,0.7,0.698c0.696,0,0.6,0.596,0.6,0.596l5.299-5.304 L11.319,2.775L11.319,2.775z"></path><g><path fill="#f78f8f" d="M11.477,3.325l0.577-0.577c0.16-0.16,0.373-0.248,0.599-0.248c0.226,0,0.439,0.088,0.599,0.248 c0.33,0.331,0.33,0.868,0,1.198l-0.577,0.577L11.477,3.325z"></path><path fill="#c74343" d="M12.653,3c0.054,0,0.157,0.013,0.246,0.102C12.987,3.19,13,3.293,13,3.347 s-0.013,0.157-0.102,0.245l-0.223,0.223l-0.491-0.491l0.223-0.223C12.496,3.013,12.599,3,12.653,3 M12.653,2 c-0.345,0-0.69,0.132-0.953,0.395l-0.93,0.93l1.905,1.905l0.93-0.93c0.526-0.526,0.526-1.379,0-1.905 C13.342,2.132,12.998,2,12.653,2L12.653,2z"></path></g></g></svg>