<svg xmlns="http://www.w3.org/2000/svg" viewBox="0 0 16 16"><path fill="#f5ce85" d="M11.153,12.5H4.847C2.446,12.5,0.5,10.554,0.5,8.153V7.847C0.5,5.446,2.446,3.5,4.847,3.5h6.305 c2.401,0,4.347,1.946,4.347,4.347v0.305C15.5,10.554,13.554,12.5,11.153,12.5z"></path><path fill="#967a44" d="M11.152,13H4.848C2.175,13,0,10.825,0,8.152V7.848C0,5.175,2.175,3,4.848,3h6.305 C13.825,3,16,5.175,16,7.848v0.305C16,10.825,13.825,13,11.152,13z M4.848,4C2.726,4,1,5.726,1,7.848v0.305 C1,10.274,2.726,12,4.848,12h6.305C13.274,12,15,10.274,15,8.152V7.848C15,5.726,13.274,4,11.152,4H4.848z"></path><g><path fill="#fff" d="M8.4,11L8.4,11c1.657,0,3-1.343,3-3l0,0c0-1.657-1.343-3-3-3l0,0c-1.657,0-3,1.343-3,3l0,0 C5.4,9.657,6.743,11,8.4,11z"></path></g></svg>