<?xml version="1.0" encoding="utf-8"?>
<!-- Generator: Adobe Illustrator 22.1.0, SVG Export Plug-In . SVG Version: 6.00 Build 0)  -->
<svg version="1.2" baseProfile="tiny" id="katman_1"
	 xmlns="http://www.w3.org/2000/svg" xmlns:xlink="http://www.w3.org/1999/xlink" x="0px" y="0px" viewBox="0 0 16 16"
	 xml:space="preserve">
<path fill="#B0C1D4" d="M3,1.5h10c0.8,0,1.5,0.7,1.5,1.5v10c0,0.8-0.7,1.5-1.5,1.5H3c-0.8,0-1.5-0.7-1.5-1.5V3
	C1.5,2.2,2.2,1.5,3,1.5z"/>
<path fill="#66798F" d="M13,2c0.6,0,1,0.4,1,1v10c0,0.6-0.4,1-1,1H3c-0.6,0-1-0.4-1-1V3c0-0.6,0.4-1,1-1H13 M13,1H3C1.9,1,1,1.9,1,3
	v10c0,1.1,0.9,2,2,2h10c1.1,0,2-0.9,2-2V3C15,1.9,14.1,1,13,1z"/>
<path fill="#D8E2ED" d="M3,3h10c0.6,0,1,0.4,1,1v9c0,0.6-0.4,1-1,1H3c-0.6,0-1-0.4-1-1V4C2,3.4,2.5,3,3,3z"/>
<g>
	<path fill="#36404D" d="M4.1,11V6.7H2.6V6h3.8v0.7H4.9V11H4.1z"/>
	<path fill="#36404D" d="M7.8,10.1L7.8,10.1l0,0.6H7.1V5.8h0.7v1.9h0C8,7.3,8.4,7.1,9,7.1c0.9,0,1.5,0.7,1.5,1.8
		c0,1.1-0.6,1.8-1.5,1.8C8.4,10.7,8,10.5,7.8,10.1z M7.8,8.9c0,0.7,0.4,1.2,1,1.2c0.6,0,0.9-0.5,0.9-1.2c0-0.7-0.4-1.2-0.9-1.2
		S7.8,8.2,7.8,8.9z"/>
</g>
</svg>
