<svg xmlns="http://www.w3.org/2000/svg" viewBox="0 0 16 16"><path fill="#ffc49c" d="M1.622,11.312l3.874-3.874l0.009-0.194C5.531,6.661,5.748,3.79,7.514,1.721l6.765,6.765 c-1.971,1.68-4.695,1.958-5.523,2.004L8.565,10.5l-3.877,3.877L1.622,11.312z"></path><path fill="#a16a4a" d="M7.56,2.474l5.966,5.966c-1.801,1.284-4.07,1.511-4.797,1.551l-0.382,0.021l-0.27,0.27 l-3.388,3.388l-2.358-2.358l3.383-3.383l0.275-0.275l0.017-0.388C6.027,6.753,6.206,4.367,7.56,2.474 M7.5,1 C5.318,3.182,5.041,6.43,5.005,7.222l-4.09,4.09l3.772,3.772l4.096-4.096C9.725,10.938,12.891,10.609,15,8.5L7.5,1L7.5,1z"></path><path fill="#b6c9d6" d="M13.62,9.5c-0.152,0-0.295-0.059-0.402-0.167L6.667,2.783C6.559,2.675,6.5,2.532,6.5,2.38 s0.059-0.294,0.167-0.402l1.271-1.271l7.355,7.355l-1.271,1.271C13.914,9.441,13.771,9.5,13.62,9.5z"></path><path fill="#788b9c" d="M7.938,1.414l6.648,6.648L13.668,8.98C13.663,8.985,13.648,9,13.62,9s-0.044-0.015-0.049-0.02 L7.02,2.429c-0.027-0.027-0.027-0.07,0-0.097L7.938,1.414 M7.938,0L6.313,1.625c-0.417,0.417-0.417,1.094,0,1.511l6.551,6.551 C13.073,9.896,13.346,10,13.62,10c0.273,0,0.547-0.104,0.756-0.313L16,8.062L7.938,0L7.938,0z"></path><g><path fill="#b6c9d6" d="M3.358,15.5c-0.133,0-0.259-0.052-0.354-0.146l-2.358-2.358C0.552,12.901,0.5,12.775,0.5,12.642 c0-0.134,0.052-0.259,0.146-0.354L1.7,11.235L4.765,14.3l-1.053,1.053C3.617,15.448,3.492,15.5,3.358,15.5z"></path><path fill="#788b9c" d="M1.7,11.942L4.058,14.3l-0.7,0.7L1,12.642L1.7,11.942 M1.7,10.528l-1.407,1.407 c-0.391,0.391-0.391,1.024,0,1.414l2.358,2.358C2.846,15.902,3.102,16,3.358,16s0.512-0.098,0.707-0.293L5.472,14.3L1.7,10.528 L1.7,10.528z"></path></g><g><path fill="#a16a4a" d="M5.769,10.231L5.769,10.231c-0.229-0.229-0.229-0.6,0-0.828l0.828-0.828 c0.229-0.229,0.6-0.229,0.828,0l0,0c0.229,0.229,0.229,0.6,0,0.828l-0.828,0.828C6.369,10.46,5.998,10.46,5.769,10.231z"></path></g></svg>