<svg xmlns="http://www.w3.org/2000/svg" viewBox="0 0 16 16"><path fill="#fff" d="M0.5 2.5H15.5V13.5H0.5z"></path><path fill="#788b9c" d="M15,3v10H1V3H15 M16,2H0v12h16V2L16,2z"></path><path fill="#d6e3ed" d="M1 3H15V4H1zM1 12H15V13H1z"></path><path fill="#788b9c" d="M5 2.5H6V13.5H5zM10 2.5H11V13.5H10z"></path><path fill="#36404d" d="M3.1 5.9C2.6 5.9 2.2 6.1 2 6.4 1.7 6.8 1.6 7.4 1.6 8.1c0 .7.1 1.2.4 1.5.2.3.6.5 1 .5.5 0 .8-.2 1.1-.5C4.3 9.2 4.4 8.7 4.4 8 4.4 6.6 4 5.9 3.1 5.9zM3 9.6c-.5 0-.7-.5-.7-1.5C2.3 7 2.5 6.4 3 6.4c.5 0 .7.5.7 1.6C3.7 9.1 3.5 9.6 3 9.6zM8.1 5.9C7.6 5.9 7.2 6.1 7 6.4 6.7 6.8 6.6 7.4 6.6 8.1c0 .7.1 1.2.4 1.5.2.3.6.5 1 .5.5 0 .8-.2 1.1-.5C9.3 9.2 9.4 8.7 9.4 8 9.4 6.6 9 5.9 8.1 5.9zM8 9.6c-.5 0-.7-.5-.7-1.5C7.3 7 7.5 6.4 8 6.4c.5 0 .7.5.7 1.6C8.7 9.1 8.5 9.6 8 9.6zM11.6 7.9v.6h1.9c-.2.3-.3.6-.5.9-.1.3-.3.6-.4.9-.1.3-.2.6-.3.9-.1.3-.2.6-.2.9h.7c0-.3.1-.7.2-1s.2-.6.3-.9c.1-.3.3-.6.4-.9.2-.3.3-.6.5-.9V7.9H11.6zM13.7 3c.1.3.1 1.1-.6 1.1-.7 0-.8-.9-.7-1.1h-.7c0 .4.2 1.6 1.4 1.6s1.4-1.1 1.3-1.4c0-.1 0-.1 0-.2H13.7z"></path></svg>