<svg xmlns="http://www.w3.org/2000/svg" viewBox="0 0 16 16"><path fill="#66798f" d="M3 14H13V15H3z"></path><path fill="#839cb2" d="M6.5 11.5H9.5V14.5H6.5z"></path><path fill="#66798f" d="M9,12v2H7v-2H9 M10,11H6v4h4V11L10,11z"></path><path fill="#8bb7f0" d="M2.5 2.5H13.5V12.5H2.5z"></path><path fill="#4e7ab5" d="M13,3v9H3V3H13 M14,2H2v11h12V2L14,2z"></path><path fill="#4e7ab5" d="M15 3v9h-1V3H15M16 2h-3v11h3V2L16 2zM2 3v9H1V3H2M3 2H0v11h3V2L3 2z"></path><path fill="#4e7ab5" d="M13 4H16V5H13zM13 6H16V7H13zM13 8H16V9H13zM13 10H16V11H13zM0 10H3V11H0zM0 4H3V5H0zM0 6H3V7H0zM0 8H3V9H0z"></path></svg>