<svg xmlns="http://www.w3.org/2000/svg" viewBox="0 0 16 16"><path fill="#c1e3f7" d="M14.41,10.417C14.789,9.523,15,8.538,15,7.5C15,3.325,11.675,0,7.5,0S0,3.325,0,7.5 S3.402,15,7.5,15c1.158,0,2.256-0.273,3.241-0.748C11.083,12.439,12.306,10.824,14.41,10.417z"></path><path fill="#7290bb" d="M1 7H14V8H1zM2 11H7.375V12H2zM2 3H13V4H2z"></path><path fill="#7290bb" d="M7 1H8V14H7z"></path><g><path fill="#36404c" d="M10 10L10 15 15 10z"></path></g><g><path fill="#36404c" d="M12.586,11L12.5,11.086l-0.707,0.707L11.086,12.5L11,12.586V11H12.586 M15,10h-5v5l1.793-1.793 l2.75,2.75l1.414-1.414l-2.75-2.75L15,10L15,10z"></path></g><g><path fill="#7290bb" d="M8,13.918C7.833,13.967,7.665,14,7.499,14c-0.001,0-0.002,0-0.003,0 c-1.689-0.002-3.498-2.614-3.498-6.5c0-3.886,1.809-6.498,3.498-6.5c0.001,0,0.002,0,0.003,0c1.69,0.001,3.499,2.612,3.499,6.5 c0,0.17-0.008,0.335-0.015,0.5h0.997c0.007-0.166,0.017-0.331,0.017-0.5c0-2.392-0.674-4.517-1.72-5.89 C12.494,2.634,14,4.856,14,7.5c0,0.17-0.024,0.333-0.036,0.5h1.011C14.986,7.834,15,7.669,15,7.5C15,3.325,11.675,0,7.5,0 c0,0-0.001,0-0.001,0c0,0,0,0-0.001,0C7.497,0,7.496,0,7.495,0C3.322,0.003,0,3.327,0,7.5c0,4.173,3.399,7.497,7.495,7.5 c0.001,0,0.002,0,0.003,0c0,0,0,0,0.001,0c0,0,0.001,0,0.001,0c0.169,0,0.334-0.014,0.5-0.025V13.918z M1,7.5 c0-2.641,1.503-4.862,3.716-5.887C3.671,2.986,2.998,5.11,2.998,7.5c0,2.368,0.66,4.476,1.688,5.85C2.509,12.299,1,10.075,1,7.5z"></path></g></svg>