<?xml version="1.0" encoding="utf-8"?>
<!-- Generator: Adobe Illustrator 22.1.0, SVG Export Plug-In . SVG Version: 6.00 Build 0)  -->
<svg version="1.2" baseProfile="tiny" id="katman_1"
	 xmlns="http://www.w3.org/2000/svg" xmlns:xlink="http://www.w3.org/1999/xlink" x="0px" y="0px" viewBox="0 0 16 16"
	 xml:space="preserve">
<path fill="#8BB7F0" d="M5,15.5c-2.5,0-4.5-2-4.5-4.5C0.5,9,3.4,3.6,5,1c1.6,2.7,4.5,8.1,4.5,10C9.5,13.5,7.5,15.5,5,15.5z"/>
<path fill="#4E7AB5" d="M5,2c1.8,3.2,4,7.5,4,9c0,2.2-1.8,4-4,4s-4-1.8-4-4C1,9.4,3.2,5.1,5,2 M5,0c0,0-5,8.2-5,11s2.2,5,5,5
	s5-2.2,5-5S5,0,5,0L5,0z"/>
<path fill="#FFFFFF" d="M5,14v-1c1.1,0,2-0.9,2-2h1C8,12.7,6.7,14,5,14z"/>
<g>
	<path fill="#B6C9D6" d="M15.2,15c-0.1,0-0.2,0-0.3-0.1l-4-4.2l0.3-0.3l4.2,4c0.1,0.1,0.1,0.2,0.1,0.3c0,0.1,0,0.2-0.1,0.3
		S15.3,15,15.2,15z"/>
	<path fill="#788B9C" d="M11.2,9.7l-0.9,0.9l4.3,4.6c0.2,0.2,0.4,0.3,0.6,0.3s0.4-0.1,0.6-0.3c0.3-0.3,0.3-0.9,0-1.2L11.2,9.7
		L11.2,9.7z"/>
</g>
<g>
	<path fill="#D1EDFF" d="M10.6,7c-1.7,0-3,1.3-3,3s1.3,3,3,3s3-1.3,3-3S12.2,7,10.6,7z"/>
	<path fill="#788B9C" d="M10.6,7.5c1.4,0,2.5,1.1,2.5,2.5s-1.1,2.5-2.5,2.5S8.1,11.4,8.1,10S9.2,7.5,10.6,7.5 M10.6,6.5
		c-1.9,0-3.5,1.6-3.5,3.5s1.6,3.5,3.5,3.5s3.5-1.6,3.5-3.5S12.5,6.5,10.6,6.5L10.6,6.5z"/>
</g>
</svg>
