<svg xmlns="http://www.w3.org/2000/svg" viewBox="0 0 40 40"><path fill="#8bb7f0" d="M4.893,36.471c0.79-1.355,1.714-3.006,2.561-4.578l0.198-0.369l-0.328-0.26 C3.568,28.296,1.5,24.295,1.5,20C1.5,11.453,9.799,4.5,20,4.5S38.5,11.453,38.5,20S30.201,35.5,20,35.5 c-2.174,0-4.339-0.332-6.437-0.985l-0.162-0.051l-0.16,0.06C10.296,35.618,7.255,36.322,4.893,36.471z"></path><path fill="#4e7ab5" d="M20,5c9.925,0,18,6.729,18,15s-8.075,15-18,15c-2.123,0-4.239-0.324-6.287-0.962l-0.326-0.102 l-0.32,0.119c-2.521,0.936-5.108,1.583-7.26,1.831c0.671-1.171,1.402-2.487,2.086-3.756l0.398-0.739l-0.658-0.52 C4,28.001,2,24.14,2,20C2,11.729,10.075,5,20,5 M20,4C9.507,4,1,11.163,1,20c0,4.601,2.32,8.737,6.013,11.656 C5.947,33.635,4.837,35.597,4,37c2.597,0,6.172-0.803,9.415-2.007C15.47,35.633,17.681,36,20,36c10.493,0,19-7.163,19-16 S30.493,4,20,4L20,4z"></path><path fill="#fff" d="M19 26A1.5 1.5 0 1 0 19 29A1.5 1.5 0 1 0 19 26Z"></path><path fill="none" stroke="#fff" stroke-miterlimit="10" stroke-width="2" d="M16,17v-0.5c0-1.972,1.599-3.5,3.571-3.5h0	C21.544,13,23,14.528,23,16.5v0c0,3.314-4,3.525-4,7.5"></path></svg>