<?xml version="1.0" encoding="utf-8"?>
<!-- Generator: Adobe Illustrator 22.1.0, SVG Export Plug-In . SVG Version: 6.00 Build 0)  -->
<svg version="1.1" id="katman_1" xmlns="http://www.w3.org/2000/svg" xmlns:xlink="http://www.w3.org/1999/xlink" x="0px" y="0px"
	 viewBox="0 0 40 40" style="enable-background:new 0 0 40 40;" xml:space="preserve">
<style type="text/css">
	.st0{fill:url(#SVGID_1_);}
	.st1{fill:#36404D;}
	.st2{fill:none;stroke:#677A8C;stroke-width:0.5;stroke-miterlimit:10;}
	.st3{fill:url(#SVGID_2_);}
	.st4{fill:#91A5B5;}
	.st5{fill:#B0C1D4;stroke:#66798F;stroke-width:0.8;stroke-miterlimit:10;}
</style>
<g>
	
		<linearGradient id="SVGID_1_" gradientUnits="userSpaceOnUse" x1="7.4288" y1="4.2289" x2="11.6677" y2="8.4677" gradientTransform="matrix(1 0 0 1 0 24)">
		<stop  offset="0" style="stop-color:#607184"/>
		<stop  offset="1" style="stop-color:#506174"/>
	</linearGradient>
	<path class="st0" d="M5.4,38.6c-0.2,0-0.4-0.1-0.5-0.2L1.5,35H1.4c0,0-0.1-0.1-0.1-0.2c0-0.2,0.1-0.4,0.2-0.6l12.4-11
		c0.2-0.2,0.4-0.3,0.6-0.3c0.2,0,0.4,0.1,0.6,0.2l1.7,1.7C17,25,17,25.2,17,25.4s-0.1,0.4-0.2,0.6l-11,12.5l0,0
		C5.6,38.6,5.5,38.6,5.4,38.6z"/>
	<path class="st1" d="M14.9,23.5l1.6,1.6c0.2,0.2,0.2,0.4,0,0.6l-11,12.4l-0.1,0.1l0,0c-0.1,0-0.1,0-0.2-0.1l-3.3-3.3l-0.1-0.1l0,0
		c0,0,0-0.1,0.1-0.2l12.5-11C14.6,23.3,14.8,23.4,14.9,23.5z M14.5,22.5c-0.3,0-0.6,0.1-0.8,0.4l-12.4,11c-0.5,0.5-0.5,1.2,0,1.4
		l3.3,3.3C4.8,38.9,5.1,39,5.4,39s0.5-0.1,0.6-0.4l11-12.4c0.5-0.5,0.5-1.2,0-1.7l-1.7-1.7C15.1,22.6,14.8,22.5,14.5,22.5L14.5,22.5
		z"/>
	<line class="st2" x1="3" y1="34.7" x2="14.6" y2="24.5"/>
</g>
<g>
	
		<linearGradient id="SVGID_2_" gradientUnits="userSpaceOnUse" x1="21.7483" y1="24.0632" x2="24.1709" y2="21.6406" gradientTransform="matrix(1 0 0 -1 0 40)">
		<stop  offset="0" style="stop-color:#E1EBF2"/>
		<stop  offset="1" style="stop-color:#D1DBE2"/>
	</linearGradient>
	<polygon class="st3" points="16.4,21.3 27.2,10.6 29.3,12.8 18.8,23.7 	"/>
	<path class="st4" d="M27.2,11.2l1.6,1.6l-10,10.4l-1.9-1.8L27.2,11.2 M27.2,10L16,21.1c-0.1,0.1-0.1,0.3,0,0.4l2.6,2.6
		c0.1,0.1,0.1,0.1,0.2,0.1s0.2,0,0.2-0.1l10.9-11.3L27.2,10L27.2,10z"/>
</g>
<path class="st5" d="M38.8,15l-2.9,2.9c-0.5,0.5-1.2,0.5-1.7,0c-0.5-0.2-0.5-1.2,0-1.7l0.5-0.5c-0.7-0.5-2.6-2.4-3.6-1.9
	c-0.5,0.2-1.4-0.5-1.4-0.5l-3.1-3.1c0,0-0.7-0.7-0.2-1.4c1.2-1.7,0.2-5.5-6.2-6.7c-1-0.2-1.2-0.5-0.2-0.7c2.2-0.7,6.7-0.9,13.4,6
	c0,0,2.9,3.3,2.4,4.8c-0.2,0,0.5,1,1,1.7l0.5-0.5c0.5-0.5,1.2-0.5,1.7,0C39.2,13.5,39.2,14.5,38.8,15z"/>
</svg>
