<svg xmlns="http://www.w3.org/2000/svg" viewBox="0 0 16 16"><path fill="#8bb7f0" d="M7.5 0.5A7 7 0 1 0 7.5 14.5A7 7 0 1 0 7.5 0.5Z"></path><path fill="#4e7ab5" d="M7.5,1C11.1,1,14,3.9,14,7.5S11.1,14,7.5,14S1,11.1,1,7.5S3.9,1,7.5,1 M7.5,0C3.4,0,0,3.4,0,7.5 S3.4,15,7.5,15S15,11.6,15,7.5S11.6,0,7.5,0L7.5,0z"></path><path fill="#fff" d="M7.5 10.8A.7.7 0 1 0 7.5 12.2.7.7 0 1 0 7.5 10.8zM8 10H7V8.8c0-.6.5-1 .9-1.4C8.4 7 9 6.5 9 5.5 9 4.7 8.3 4 7.5 4S6 4.7 6 5.5V6H5V5.5C5 4.1 6.1 3 7.5 3S10 4.1 10 5.5C10 7 9.2 7.7 8.5 8.2 8.2 8.4 8 8.6 8 8.8V10z"></path></svg>