<?xml version="1.0" encoding="utf-8"?>
<!-- Generator: Adobe Illustrator 23.0.1, SVG Export Plug-In . SVG Version: 6.00 Build 0)  -->
<svg version="1.1" id="katman_1" xmlns="http://www.w3.org/2000/svg" xmlns:xlink="http://www.w3.org/1999/xlink" x="0px" y="0px"
	 viewBox="0 0 40 40" style="enable-background:new 0 0 40 40;" xml:space="preserve">
<style type="text/css">
	.st0{fill:#A8DEFF;}
	.st1{fill:#788B9C;}
	.st2{fill:#DCD5F2;}
	.st3{fill:#8B75A1;}
	.st4{fill:#F2FAFF;}
	.st5{fill:#FFC49C;}
	.st6{fill:#A16A4A;}
	.st7{fill:#FFFFFF;}
	.st8{fill:#C8D1DB;}
	.st9{fill:#BBDFBE;}
	.st10{fill:#609B77;}
	.st11{fill:#FFEEA3;}
	.st12{fill:#BA9B48;}
	.st13{fill:#515E66;}
</style>
<path class="st0" d="M14,20.5c-1.4,0-2.5-1.1-2.5-2.5V4c0-1.4,1.1-2.5,2.5-2.5h21c1.4,0,2.5,1.1,2.5,2.5v14c0,1.4-1.1,2.5-2.5,2.5
	H14z"/>
<path class="st1" d="M35,2c1.1,0,2,0.9,2,2v14c0,1.1-0.9,2-2,2H14c-1.1,0-2-0.9-2-2V4c0-1.1,0.9-2,2-2H35 M35,1H14c-1.7,0-3,1.3-3,3
	v14c0,1.7,1.3,3,3,3h21c1.7,0,3-1.3,3-3V4C38,2.3,36.7,1,35,1L35,1z"/>
<path class="st1" d="M18,22h20c1.1,0,2-0.9,2-2l0,0H16l0,0C16,21.1,16.9,22,18,22z"/>
<path class="st2" d="M8,32.5c-0.8,0-1.5-0.7-1.5-1.5V11c0-0.8,0.7-1.5,1.5-1.5h15c0.8,0,1.5,0.7,1.5,1.5v20c0,0.8-0.7,1.5-1.5,1.5H8
	z"/>
<path class="st3" d="M23,10c0.6,0,1,0.4,1,1v20c0,0.6-0.4,1-1,1H8c-0.6,0-1-0.4-1-1V11c0-0.6,0.4-1,1-1H23 M23,9H8c-1.1,0-2,0.9-2,2
	v20c0,1.1,0.9,2,2,2h15c1.1,0,2-0.9,2-2V11C25,9.9,24.1,9,23,9L23,9z"/>
<path class="st4" d="M8.5,11.5h14v19h-14V11.5z"/>
<path class="st3" d="M22,12v18H9V12H22 M23,11H8v20h15V11L23,11z"/>
<g>
	<path class="st5" d="M2.5,38.5c-0.6,0-1-0.4-1-1v-17c0-0.6,0.4-1,1-1h9c0.6,0,1,0.4,1,1v17c0,0.6-0.4,1-1,1H2.5z"/>
	<path class="st6" d="M11.5,20c0.3,0,0.5,0.2,0.5,0.5v17c0,0.3-0.2,0.5-0.5,0.5h-9C2.2,38,2,37.8,2,37.5v-17C2,20.2,2.2,20,2.5,20
		H11.5 M11.5,19h-9C1.7,19,1,19.7,1,20.5v17C1,38.3,1.7,39,2.5,39h9c0.8,0,1.5-0.7,1.5-1.5v-17C13,19.7,12.3,19,11.5,19L11.5,19z"/>
</g>
<g>
	<path class="st4" d="M1.5,22.5h11v13h-11V22.5z"/>
	<path class="st6" d="M12,23v12H2V23H12 M13,22H1v14h12V22L13,22z"/>
</g>
<path class="st7" d="M23.5,23.5h15v15h-15V23.5z"/>
<path class="st1" d="M38,24v14H24V24H38 M39,23H23v16h16V23L39,23z"/>
<path class="st1" d="M31,28h6v1h-6V28z M31,30h6v1h-6V30z M31,32h6v1h-6V32z M31,34h6v1h-6V34z M31,36h6v1h-6V36z"/>
<path class="st1" d="M23,23h16v4H23V23z"/>
<path class="st8" d="M30,24h8v2h-8V24z"/>
<path class="st8" d="M25,24c-0.6,0-1,0.4-1,1s0.4,1,1,1s1-0.4,1-1S25.6,24,25,24z M28,24c-0.6,0-1,0.4-1,1s0.4,1,1,1s1-0.4,1-1
	S28.6,24,28,24z"/>
<g>
	<path class="st9" d="M25.5,28.5h4v8h-4V28.5z"/>
	<path class="st10" d="M29,29v7h-3v-7H29 M30,28h-5v9h5V28L30,28z"/>
</g>
<path class="st11" d="M31,13.5l-4.3,2.2l0.8-4.8L24,7.5l4.8-0.7L31,2.5l2.2,4.3L38,7.5l-3.5,3.4l0.8,4.8L31,13.5z"/>
<path class="st12" d="M31,3.6l1.6,3.2l0.2,0.5l0.5,0.1l3.5,0.5l-2.5,2.5l-0.4,0.4l0.1,0.5l0.6,3.5l-3.2-1.6L31,12.9l-0.5,0.2
	l-3.2,1.6l0.6-3.5l0.1-0.5l-0.4-0.4l-2.5-2.5l3.5-0.5l0.5-0.1l0.2-0.5L31,3.6 M31,1.4l-2.5,5L23,7.2l4,3.9l-0.9,5.5L31,14l4.9,2.6
	L35,11.1l4-3.9l-5.5-0.8L31,1.4L31,1.4z"/>
<g>
	<path class="st13" d="M4,32.1l2,0v-5.6H4.3v-0.6c0.9-0.1,1.5-0.3,2-0.6H8v6.8h2v0.8l-6,0V32.1z"/>
</g>
</svg>
