<svg xmlns="http://www.w3.org/2000/svg" viewBox="0 0 40 40"><path fill="none" stroke="#c29653" stroke-linecap="round" stroke-linejoin="round" stroke-miterlimit="10" d="M9.067 17.079c-1.059 2.016-1.602 4.257-1.586 6.59M18.644 7.823c-3.235.578-6.195 2.122-8.529 4.483-.257.246-1.793 1.766-2.841 3.887-1.208 2.445-1.811 4.966-1.793 7.492"></path><path fill="#788b9c" d="M3 8L3 3 8 3 8 2 2 2 2 8zM37 8L38 8 38 2 32 2 32 3 37 3zM37 32L37 37 32 37 32 38 38 38 38 32zM3 32L2 32 2 38 8 38 8 37 3 37z"></path><path fill="none" stroke="#c29653" stroke-linecap="round" stroke-linejoin="round" stroke-miterlimit="10" d="M12.464 19.201c-.654 1.357-.994 2.856-.983 4.407M31.549 23.614c-.021-.09-.043-.22-.056-.401l-.077-.811c-.572-4.974-4.829-8.864-9.935-8.864l0 0h-.004c-2.719.019-5.242 1.077-7.118 2.979"></path><path fill="none" stroke="#c29653" stroke-linecap="round" stroke-linejoin="round" stroke-miterlimit="10" d="M24.674,12.004	c3.235,0.901,5.931,3.129,7.457,6.054c0.705,1.352,1.16,2.853,1.303,4.441"></path><path fill="none" stroke="#c29653" stroke-linecap="round" stroke-linejoin="round" stroke-miterlimit="10" d="M35.003 19.938c-.261-.964-.628-1.901-1.1-2.805-1.796-3.445-4.965-6.017-8.693-7.055M9.483 23.354c.044-2.558.874-4.973 2.41-7.007.316-.419.667-.825 1.042-1.205 2.252-2.284 5.281-3.554 8.529-3.576"></path><path fill="none" stroke="#8bb7f0" stroke-linecap="round" stroke-linejoin="round" stroke-miterlimit="10" d="M9.73 26.5c.227 1.492.658 3.398 1.473 5.476M7.482 23.669C7.49 24.56 7.6 26.946 8.433 29.968"></path><path fill="none" stroke="#c29653" stroke-linecap="round" stroke-linejoin="round" stroke-miterlimit="10" d="M30.516,12.903	c-2.448-2.079-5.613-3.336-9.052-3.336l0,0h-0.007l-0.007,0c-3.783,0.026-7.313,1.507-9.94,4.172"></path><path fill="none" stroke="#8bb7f0" stroke-linecap="round" stroke-linejoin="round" stroke-miterlimit="10" d="M5.481,23.684	c0.006,0.649,0.061,2.028,0.366,3.844"></path><path fill="none" stroke="#c29653" stroke-linecap="round" stroke-linejoin="round" stroke-miterlimit="10" d="M31.808,11.377	c-2.894-2.457-6.574-3.81-10.361-3.81l0,0h-0.005l-0.005,0"></path><path fill="none" stroke="#c29653" stroke-linecap="round" stroke-miterlimit="10" d="M5.481,15.306	c1.153-2.334,2.777-3.991,3.248-4.443C12.063,7.49,16.582,5.6,21.425,5.567c4.278,0,8.422,1.522,11.678,4.285"></path><path fill="none" stroke="#8bb7f0" stroke-linecap="round" stroke-linejoin="round" stroke-miterlimit="10" d="M28.498 33.185c-1.377-.344-2.483-.925-3.371-1.635M21.066 29.529c.951 1.874 2.479 3.748 4.934 4.891"></path><path fill="none" stroke="#c29653" stroke-linecap="round" stroke-linejoin="round" stroke-miterlimit="10" d="M23.5,23.509	c-0.012-1.092-0.909-1.981-2-1.981l0,0h-0.004c-0.545,0.004-1.046,0.215-1.421,0.596c-0.375,0.38-0.579,0.884-0.576,1.418"></path><path fill="none" stroke="#8bb7f0" stroke-linecap="round" stroke-linejoin="round" stroke-miterlimit="10" d="M29.498,23.354	c0.098,1.377,0.64,2.125,1.61,2.222c0.908,0.091,1.749,0.38,2.483,0.819"></path><path fill="none" stroke="#c29653" stroke-linecap="round" stroke-linejoin="round" stroke-miterlimit="10" d="M21.5 19.529L21.5 19.529h-.004c-1.089.008-2.095.431-2.845 1.192-.75.761-1.159 1.768-1.151 2.836M25.5 23.489c-.009-.892-.314-1.715-.82-2.378M15.705 21.964c-.139.517-.208 1.056-.204 1.606"></path><path fill="none" stroke="#c29653" stroke-linecap="round" stroke-linejoin="round" stroke-miterlimit="10" d="M27.5,23.469	c-0.035-3.276-2.726-5.94-6-5.94l0,0h-0.004c-1.633,0.011-3.144,0.646-4.269,1.787"></path><path fill="none" stroke="#8bb7f0" stroke-linecap="round" stroke-linejoin="round" stroke-miterlimit="10" d="M31.5 27.528c-2.627 0-3.973-1.366-4-4.059M15.006 30.633c.457 1.136 1.035 2.289 1.758 3.398"></path><path fill="none" stroke="#c29653" stroke-linecap="round" stroke-linejoin="round" stroke-miterlimit="10" d="M19.5 15.785c-1.398.358-2.669 1.084-3.697 2.127-1.5 1.521-2.318 3.536-2.303 5.673M25.448 16.58c-1.167-.668-2.516-1.051-3.948-1.051l0 0M29.5 23.449c-.015-1.41-.399-2.735-1.059-3.883M25.742 8.15c4.264 1.188 7.883 4.124 9.934 8.058"></path><path fill="none" stroke="#8bb7f0" stroke-linecap="round" stroke-linejoin="round" stroke-miterlimit="10" d="M11.481 23.608c.021 2.267.65 6.009 2.496 9.643M13.5 23.585c.012 1.272.236 3.059.805 5.018M17.5 23.557c.011 1.146.242 2.828.855 4.633.794 2.338 2.227 4.88 4.647 6.721M15.5 23.571c.024 2.6 1.046 7.625 4.499 11.345M23.789 30.203c-2.295-2.897-2.293-6.636-2.293-6.636s.003 0 .004 0M19.5 23.542c0 .047.037 1.828.749 4.003M30.512 31.546c-6.479-.648-7.004-7.294-7.012-8.037M31.5 29.528c-5.511 0-5.986-4.622-6-6.039M34.68 24.719c-.929-.569-1.988-.956-3.131-1.105"></path><path fill="#c2e8ff" d="M2 23H38V24H2z"></path></svg>