<svg xmlns="http://www.w3.org/2000/svg" viewBox="0 0 16 16"><path fill="#fff" d="M2.5 14.5L2.5 0.5 9.9 0.5 13.5 4.2 13.5 14.5z"></path><path fill="#788b9c" d="M9.7,1L13,4.4V14H3V1H9.7 M10.1,0H2v15h12V4L10.1,0L10.1,0z"></path><path fill="#c5d4de" d="M7.3,15H14V6.6c-0.3-0.2-0.7-0.3-1-0.4V14H6.6C6.8,14.4,7,14.7,7.3,15z"></path><path fill="#fff" d="M9.5 4.5L9.5 0.5 9.8 0.5 13.5 4.2 13.5 4.5z"></path><path fill="#788b9c" d="M10,1.4L12.6,4H10V1.4 M10,0H9v5h5V4L10,0L10,0z"></path><path fill="#5e9c76" d="M11.5 7A4.5 4.5 0 1 0 11.5 16A4.5 4.5 0 1 0 11.5 7Z"></path><path fill="#fff" d="M11 9H12V14H11z"></path><path fill="#fff" d="M9 11H14V12H9z"></path></svg>