<svg xmlns="http://www.w3.org/2000/svg" viewBox="0 0 16 16"><path fill="#ba9b48" d="M8,1c0.551,0,1,0.449,1,1S8.551,3,8,3S7,2.551,7,2S7.449,1,8,1 M8,0C6.895,0,6,0.895,6,2 s0.895,2,2,2s2-0.895,2-2S9.105,0,8,0L8,0z"></path><path fill="#ba9b48" d="M14.857,7.429h-1.143c0,1.527-0.839,4.532-4.553,5.056L8.871,7H11V6H8.818L8.667,3.152H7.333 L7.182,6H5v1h2.129l-0.29,5.484c-3.715-0.523-4.553-3.529-4.553-5.056H1.143c0,3.168,1.326,6.842,5.76,7.361L8,16l1.097-1.211 C13.531,14.27,14.857,10.597,14.857,7.429z"></path><path fill="#967a44" d="M1.8 6c0 0 1.8 1.217 1.8 3C2.462 9 1.8 8.719 1.8 8.719S1.193 9 0 9C0 7.235 1.8 6 1.8 6zM14.2 6c0 0-1.8 1.217-1.8 3 1.138 0 1.8-.281 1.8-.281S14.807 9 16 9C16 7.235 14.2 6 14.2 6z"></path></svg>