<?xml version="1.0" encoding="utf-8"?>
<!-- Generator: Adobe Illustrator 23.0.1, SVG Export Plug-In . SVG Version: 6.00 Build 0)  -->
<svg version="1.1" id="Layer_1" xmlns="http://www.w3.org/2000/svg" xmlns:xlink="http://www.w3.org/1999/xlink" x="0px" y="0px"
	 viewBox="0 0 11 11" style="enable-background:new 0 0 11 11;" xml:space="preserve">
<path d="M9.9,5.8c0-0.1-0.1-0.2-0.1-0.2s-0.2,0-0.2,0.1c-0.4,0.5-1.5,1-1.5,1C8,6.7,8,6.7,8,6.8S8,6.9,8.1,7l0.1,0.2
	C7.5,7.5,6.8,8.6,6,8V7c0,0,0-0.5,0-1l0.8-0.5c0.2,0,0.3-0.1,0.3-0.3C7.1,5.1,7.2,5,7,5H6V3.9c0.6-0.2,1-0.8,1-1.4
	C7,1.7,6.3,1,5.5,1S4,1.7,4,2.5c0,0.7,0.4,1.2,1,1.4V5H4C3.9,5,3.9,5.1,3.9,5.2c0,0.2,0.1,0.3,0.3,0.3L5,6v2
	C4.4,8.6,3.2,7.8,2.6,7.3L3,7c0.1-0.1,0.1-0.2,0.1-0.2C3.1,6.7,3,6.7,3,6.7s-1.1-0.5-1.5-1C1.4,5.6,1.3,5.6,1.2,5.6
	c-0.1,0-0.1,0.1-0.1,0.1S0.8,7.4,1.5,7.9c0,0.1,0.1,0.2,0.3,0.2s0.5-0.3,0.5-0.3l0.4,0.6c0.6,0.8,1.2,1,2.8,1.6h0.1
	c1.6-0.6,2.1-1.3,2.8-2.1c0.1-0.2,0.4-0.1,0.4-0.1L9,8c0.1,0.1,0.1,0.1,0.1,0.1c0.1,0,0.1,0,0.1-0.1C10.1,7.4,10.1,5.9,9.9,5.8z
	 M5.5,2C5.8,2,6,2.2,6,2.5S5.8,3,5.5,3S5,2.8,5,2.5S5.2,2,5.5,2z"/>
</svg>
