<?xml version="1.0" encoding="utf-8"?>
<!-- Generator: Adobe Illustrator 22.1.0, SVG Export Plug-In . SVG Version: 6.00 Build 0)  -->
<svg version="1.1" id="Layer_1" xmlns="http://www.w3.org/2000/svg" xmlns:xlink="http://www.w3.org/1999/xlink" x="0px" y="0px"
	 viewBox="0 0 60 60" style="enable-background:new 0 0 60 60;" xml:space="preserve">
<path d="M52.7,33.6c0-0.3-0.3-0.8-0.6-0.8s-0.8,0-1.1,0.3c-1.9,2.5-7.5,5-7.5,5c-0.3,0.3-0.6,0.3-0.6,0.6c0,0.3,0,0.6,0.3,0.8
	l0.3,0.8c-2.8,2.2-7.2,8.6-10.8,6.1v-8.3c0,0,0-5.6,0-8.3l5-2.8c0.8,0,1.4-0.6,1.4-1.4s-0.6-1.1-1.4-1.1h-5.3v-3.3
	c3.3-1.1,5.6-4.2,5.6-7.8C38,8.6,34.4,5,29.7,5s-8.3,3.6-8.3,8.3c0,3.3,2.2,6.4,5,7.8c0.3,0,0.3,0,0.6,0.3v3.1h-5.6
	c-0.6,0-1.1,0.3-1.1,1.1c0,0.8,0.6,1.4,1.4,1.4l5.3,3.1c0,2.8,0,3.1,0,8.3v8.3c-3.1,2.8-9.7-2.8-12.5-5l1.9-1.9
	c0.3-0.3,0.3-0.8,0.3-0.8l0,0c0-0.3-0.3-0.6-0.6-0.6c0,0-5.6-2.5-7.5-5c-0.3-0.6-0.8-0.6-1.1-0.6c-0.3,0.3-0.6,0.6-0.6,0.8
	s-1.7,8.3,1.9,11.1c0.3,0.3,0.8,0.6,1.7,0.8c0.8,0,2.5-1.4,2.5-1.4l1.9,3.1c2.8,3.6,6.4,5,14.4,7.8h0.3h0.3
	c8.1-2.8,11.7-6.9,15-10.8c0.8-1.1,2.2-0.3,2.2-0.3l1.1,1.1c0.3,0.3,0.6,0.3,0.6,0.3l0,0c0.3,0,0.6,0,0.6-0.3
	C53.6,41.9,53.3,34.2,52.7,33.6z M29.7,17.8c-2.5,0-4.4-1.9-4.4-4.4s1.9-4.2,4.4-4.2s4.4,1.9,4.4,4.4S32.2,17.8,29.7,17.8z"/>
</svg>
