<svg xmlns="http://www.w3.org/2000/svg" viewBox="0 0 16 16"><path fill="#bae0bd" d="M0.5 9.5L0.5 4.118 2.309 0.5 13.691 0.5 15.5 4.118 15.5 9.5z"></path><path fill="#5e9c76" d="M13.382,1L15,4.236V9H1V4.236L2.618,1H13.382 M14,0H2L0,4v6h16V4L14,0L14,0z"></path><path fill="#99c99e" d="M2 8L14 8 14 4.472 12.764 2 3.236 2 2 4.472z"></path><path fill="#bae0bd" d="M0.5,15.5v-11h5.05c0.232,1.14,1.243,2,2.45,2s2.218-0.86,2.45-2h5.05v11H0.5z"></path><path fill="#5e9c76" d="M15,5v10H1V5h4.171C5.584,6.164,6.696,7,8,7s2.416-0.836,2.829-2H15 M16,4h-6c0,1.105-0.895,2-2,2 S6,5.105,6,4H0v12h16V4L16,4z"></path><g><path fill="#5e9c76" d="M9 10L9 8 7 8 7 10 5 10 8 14 11 10z"></path></g></svg>