<svg xmlns="http://www.w3.org/2000/svg" viewBox="0 0 16 16"><path fill="#ffeea3" d="M2.5 0.5H13.5V14.5H2.5z"></path><path fill="#ba9b48" d="M13,1v13H3V1H13 M14,0H2v15h12V0L14,0z"></path><path fill="#ba9b48" d="M9.5 2L8 2 7 1 9.5 1z"></path><path fill="#ba9b48" d="M9.5 1A.5.5 0 1 0 9.5 2 .5.5 0 1 0 9.5 1zM6.5 3L8 3 9 2 6.5 2z"></path><path fill="#ba9b48" d="M6.5 2A.5.5 0 1 0 6.5 3 .5.5 0 1 0 6.5 2zM9.5 4L8 4 7 3 9.5 3z"></path><path fill="#ba9b48" d="M9.5 3A.5.5 0 1 0 9.5 4 .5.5 0 1 0 9.5 3zM6.5 5L8 5 9 4 6.5 4z"></path><path fill="#ba9b48" d="M6.5 4A.5.5 0 1 0 6.5 5 .5.5 0 1 0 6.5 4zM9.5 6L8 6 7 5 9.5 5z"></path><path fill="#ba9b48" d="M9.5 5A.5.5 0 1 0 9.5 6 .5.5 0 1 0 9.5 5zM6.5 7L8 7 9 6 6.5 6z"></path><path fill="#ba9b48" d="M6.5 6A.5.5 0 1 0 6.5 7 .5.5 0 1 0 6.5 6zM8.2 7H7.8c-.5 0-.9.3-1 .8C6.7 8.4 6.5 9.2 6.5 9.5 6.5 10.3 7.2 11 8 11s1.5-.7 1.5-1.5c0-.3-.2-1.1-.3-1.7C9.1 7.3 8.7 7 8.2 7zM8 10c-.3 0-.6-.3-.6-.6h1.2C8.6 9.7 8.3 10 8 10z"></path><path fill="#5e9c76" d="M11.5 7A4.5 4.5 0 1 0 11.5 16A4.5 4.5 0 1 0 11.5 7Z"></path><path fill="#fff" d="M11 9H12V14H11z"></path><path fill="#fff" d="M9 11H14V12H9z"></path></svg>