<?xml version="1.0" encoding="utf-8"?>
<!-- Generator: Adobe Illustrator 22.1.0, SVG Export Plug-In . SVG Version: 6.00 Build 0)  -->
<svg version="1.2" baseProfile="tiny" id="katman_1"
	 xmlns="http://www.w3.org/2000/svg" xmlns:xlink="http://www.w3.org/1999/xlink" x="0px" y="0px" viewBox="0 0 16 16"
	 xml:space="preserve">
<path fill="#F5CE85" d="M1.5,15.5V3.2l1.4-1.7h10.2l1.4,1.7v12.3H1.5z"/>
<path fill="#967A44" d="M12.9,2L14,3.4V15H2V3.4L3.1,2H12.9 M13.4,1H2.6L1,3v13h14V3L13.4,1L13.4,1z"/>
<path fill="#967A44" d="M15,4H1V3l1.6-2h10.8L15,3V4z"/>
<path fill="#8BB7F0" d="M2.5,3.5V3.3l3.6-2.7l3.5,1.8l0.6,1.1H2.5z"/>
<path fill="#4E7AB5" d="M6.1,1.2l3.1,1.6L9.4,3H3.7L6.1,1.2 M6,0L2,3v1h9l-1-2L6,0L6,0z"/>
<path fill="#8BB7F0" d="M6.5,3.5V3.3L10,0.6l3.5,2.7v0.2H6.5z"/>
<path fill="#4E7AB5" d="M10,1.3L12.3,3H7.7L10,1.3 M10,0L6,3v1h8V3L10,0L10,0z"/>
<path fill="#967A44" d="M1.5,3h13v1h-13V3z M10,6H6C5.7,6,5.5,5.8,5.5,5.5S5.7,5,6,5h4c0.3,0,0.5,0.2,0.5,0.5S10.3,6,10,6z"/>
</svg>
