<svg xmlns="http://www.w3.org/2000/svg" viewBox="0 0 16 16"><path fill="#f2faff" d="M5.5 12.5L5.5 0.5 11.867 0.5 15.5 4.204 15.5 12.5z"></path><path fill="#788b9c" d="M11.657,1L15,4.409V12H6V1H11.657 M12.077,0H5v13h11V4L12.077,0L12.077,0z"></path><path fill="#fff" d="M11.5 4.5L11.5 0.5 11.832 0.5 15.5 4.206 15.5 4.5z"></path><path fill="#788b9c" d="M12,1.381L14.593,4H12V1.381 M12.04,0H11v5h5V4L12.04,0L12.04,0z"></path><g><path fill="#fff" d="M0.5 15.5L0.5 3.5 6.867 3.5 10.5 7.204 10.5 15.5z"></path><path fill="#788b9c" d="M6.657,4L10,7.409V15H1V4H6.657 M7.077,3H0v13h11V7L7.077,3L7.077,3z"></path></g><g><path fill="#fff" d="M6.5 7.5L6.5 3.5 6.832 3.5 10.5 7.206 10.5 7.5z"></path><path fill="#788b9c" d="M7,4.381L9.593,7H7V4.381 M7.04,3H6v5h5V7L7.04,3L7.04,3z"></path></g></svg>