<svg xmlns="http://www.w3.org/2000/svg" viewBox="0 0 80 80"><path d="M 26 10 L 26 16 L 10 16 L 10 70 L 54 70 L 54 64 L 70 64 L 70 23.585938 L 56.414063 10 Z M 28 12 L 55 12 L 55 25 L 68 25 L 68 62 L 54 62 L 54 29.585938 L 40.414063 16 L 28 16 Z M 57 13.414063 L 66.585938 23 L 57 23 Z M 12 18 L 39 18 L 39 31 L 52 31 L 52 68 L 12 68 Z M 41 19.414063 L 50.585938 29 L 41 29 Z M 17 20 C 16.449219 20 16 20.449219 16 21 C 16 21.550781 16.449219 22 17 22 C 17.550781 22 18 21.550781 18 21 C 18 20.449219 17.550781 20 17 20 Z M 17 24 C 16.449219 24 16 24.449219 16 25 C 16 25.550781 16.449219 26 17 26 C 17.550781 26 18 25.550781 18 25 C 18 24.449219 17.550781 24 17 24 Z M 17 28 C 16.449219 28 16 28.449219 16 29 C 16 29.550781 16.449219 30 17 30 C 17.550781 30 18 29.550781 18 29 C 18 28.449219 17.550781 28 17 28 Z M 17 32 C 16.449219 32 16 32.449219 16 33 C 16 33.550781 16.449219 34 17 34 C 17.550781 34 18 33.550781 18 33 C 18 32.449219 17.550781 32 17 32 Z M 17 36 C 16.449219 36 16 36.449219 16 37 C 16 37.550781 16.449219 38 17 38 C 17.550781 38 18 37.550781 18 37 C 18 36.449219 17.550781 36 17 36 Z M 17 40 C 16.449219 40 16 40.449219 16 41 C 16 41.550781 16.449219 42 17 42 C 17.550781 42 18 41.550781 18 41 C 18 40.449219 17.550781 40 17 40 Z M 17 44 C 16.449219 44 16 44.449219 16 45 C 16 45.550781 16.449219 46 17 46 C 17.550781 46 18 45.550781 18 45 C 18 44.449219 17.550781 44 17 44 Z M 17 48 C 16.449219 48 16 48.449219 16 49 C 16 49.550781 16.449219 50 17 50 C 17.550781 50 18 49.550781 18 49 C 18 48.449219 17.550781 48 17 48 Z M 17 52 C 16.449219 52 16 52.449219 16 53 C 16 53.550781 16.449219 54 17 54 C 17.550781 54 18 53.550781 18 53 C 18 52.449219 17.550781 52 17 52 Z M 17 56 C 16.449219 56 16 56.449219 16 57 C 16 57.550781 16.449219 58 17 58 C 17.550781 58 18 57.550781 18 57 C 18 56.449219 17.550781 56 17 56 Z M 17 60 C 16.449219 60 16 60.449219 16 61 C 16 61.550781 16.449219 62 17 62 C 17.550781 62 18 61.550781 18 61 C 18 60.449219 17.550781 60 17 60 Z M 17 64 C 16.449219 64 16 64.449219 16 65 C 16 65.550781 16.449219 66 17 66 C 17.550781 66 18 65.550781 18 65 C 18 64.449219 17.550781 64 17 64 Z"></path></svg>