<svg xmlns="http://www.w3.org/2000/svg" viewBox="0 0 80 80"><path d="M 19 10 C 12.382813 10 7 15.382813 7 22 C 7 28.617188 12.382813 34 19 34 C 20.09375 34 21.121094 33.761719 22.125 33.488281 L 28.816406 40 L 22.125 46.511719 C 21.121094 46.238281 20.09375 46 19 46 C 12.382813 46 7 51.382813 7 58 C 7 64.617188 12.382813 70 19 70 C 25.617188 70 31 64.617188 31 58 C 31 56.660156 30.664063 55.417969 30.257813 54.214844 L 36.828125 47.796875 L 54.390625 64.882813 C 56.441406 66.882813 59.199219 68 62.0625 68 L 73.453125 68 L 44.800781 40 L 73.453125 12 L 62.0625 12 C 59.199219 12 56.445313 13.117188 54.390625 15.117188 L 36.828125 32.203125 L 30.257813 25.78125 C 30.664063 24.582031 31 23.339844 31 22 C 31 15.382813 25.617188 10 19 10 Z M 19 12 C 24.535156 12 29 16.464844 29 22 C 29 23.332031 28.734375 24.597656 28.261719 25.761719 L 28.011719 26.386719 L 35.394531 33.597656 L 30.25 38.605469 L 22.734375 31.292969 L 22.15625 31.484375 C 21.15625 31.8125 20.101563 32 19 32 C 13.464844 32 9 27.535156 9 22 C 9 16.464844 13.464844 12 19 12 Z M 62.0625 14 L 68.546875 14 L 28.007813 53.617188 L 28.261719 54.238281 C 28.734375 55.402344 29 56.667969 29 58 C 29 63.535156 24.535156 68 19 68 C 13.464844 68 9 63.535156 9 58 C 9 52.464844 13.464844 48 19 48 C 20.101563 48 21.15625 48.1875 22.15625 48.515625 L 22.734375 48.707031 L 30.25 41.394531 L 38.257813 33.605469 L 55.785156 16.546875 C 57.464844 14.914063 59.71875 14 62.0625 14 Z M 19 15 C 15.144531 15 12 18.144531 12 22 C 12 25.855469 15.144531 29 19 29 C 22.855469 29 26 25.855469 26 22 C 26 18.144531 22.855469 15 19 15 Z M 19 17 C 21.773438 17 24 19.226563 24 22 C 24 24.773438 21.773438 27 19 27 C 16.226563 27 14 24.773438 14 22 C 14 19.226563 16.226563 17 19 17 Z M 37.5 38 C 36.671875 38 36 38.671875 36 39.5 C 36 40.328125 36.671875 41 37.5 41 C 38.328125 41 39 40.328125 39 39.5 C 39 38.671875 38.328125 38 37.5 38 Z M 49 39 C 48.449219 39 48 39.449219 48 40 C 48 40.550781 48.449219 41 49 41 C 49.550781 41 50 40.550781 50 40 C 50 39.449219 49.550781 39 49 39 Z M 53 39 C 52.449219 39 52 39.449219 52 40 C 52 40.550781 52.449219 41 53 41 C 53.550781 41 54 40.550781 54 40 C 54 39.449219 53.550781 39 53 39 Z M 57 39 C 56.449219 39 56 39.449219 56 40 C 56 40.550781 56.449219 41 57 41 C 57.550781 41 58 40.550781 58 40 C 58 39.449219 57.550781 39 57 39 Z M 61 39 C 60.449219 39 60 39.449219 60 40 C 60 40.550781 60.449219 41 61 41 C 61.550781 41 62 40.550781 62 40 C 62 39.449219 61.550781 39 61 39 Z M 65 39 C 64.449219 39 64 39.449219 64 40 C 64 40.550781 64.449219 41 65 41 C 65.550781 41 66 40.550781 66 40 C 66 39.449219 65.550781 39 65 39 Z M 69 39 C 68.449219 39 68 39.449219 68 40 C 68 40.550781 68.449219 41 69 41 C 69.550781 41 70 40.550781 70 40 C 70 39.449219 69.550781 39 69 39 Z M 43.375 41.398438 L 68.546875 66 L 62.0625 66 C 59.71875 66 57.464844 65.085938 55.785156 63.453125 L 38.257813 46.394531 Z M 19 51 C 15.144531 51 12 54.144531 12 58 C 12 61.855469 15.144531 65 19 65 C 22.855469 65 26 61.855469 26 58 C 26 54.144531 22.855469 51 19 51 Z M 19 53 C 21.773438 53 24 55.226563 24 58 C 24 60.773438 21.773438 63 19 63 C 16.226563 63 14 60.773438 14 58 C 14 55.226563 16.226563 53 19 53 Z"></path></svg>