<?xml version="1.0" encoding="utf-8"?>
<!-- Generator: Adobe Illustrator 22.1.0, SVG Export Plug-In . SVG Version: 6.00 Build 0)  -->
<svg version="1.2" baseProfile="tiny" id="katman_1"
	 xmlns="http://www.w3.org/2000/svg" xmlns:xlink="http://www.w3.org/1999/xlink" x="0px" y="0px" viewBox="0 0 16 16"
	 xml:space="preserve">
<g>
	<polygon fill="#F78F8F" points="1.8,11.9 5.8,8 1.8,4.1 4.1,1.8 8,5.8 11.9,1.8 14.2,4.1 10.2,8 14.2,11.9 11.9,14.2 8,10.2 
		4.1,14.2 	"/>
	<path fill="#C74343" d="M11.9,2.4l1.7,1.7L9.7,8l3.9,3.9l-1.7,1.7L8,9.7l-3.9,3.9l-1.7-1.7L6.3,8L2.4,4.1l1.7-1.7L8,6.3L11.9,2.4
		 M11.9,1.3l-0.5,0.5L8,5.2L4.6,1.8L4.1,1.3L3.5,1.8L1.8,3.5L1.3,4.1l0.5,0.5L5.2,8l-3.4,3.4l-0.5,0.5l0.5,0.5l1.7,1.7l0.5,0.5
		l0.5-0.5L8,10.8l3.4,3.4l0.5,0.5l0.5-0.5l1.7-1.7l0.5-0.5l-0.5-0.5L10.8,8l3.4-3.4l0.5-0.5l-0.5-0.5l-1.7-1.7L11.9,1.3L11.9,1.3z"
		/>
</g>
</svg>
