<?xml version="1.0" encoding="utf-8"?>
<!-- Generator: Adobe Illustrator 22.1.0, SVG Export Plug-In . SVG Version: 6.00 Build 0)  -->
<svg version="1.2" baseProfile="tiny" id="katman_1"
	 xmlns="http://www.w3.org/2000/svg" xmlns:xlink="http://www.w3.org/1999/xlink" x="0px" y="0px" viewBox="0 0 16 16"
	 xml:space="preserve">
<path fill="#927DB2" d="M14.9,7.4h-1.1c0,1.5-0.8,4.5-4.6,5.1L8.9,7H11V6H8.8L8.7,3.2H7.3L7.2,6H5v1h2.1l-0.3,5.5
	C3.1,12,2.3,9,2.3,7.4H1.1c0,3.2,1.3,6.8,5.8,7.4L8,16l1.1-1.2C13.5,14.3,14.9,10.6,14.9,7.4z"/>
<path fill="#6C5E7F" d="M8,1c0.6,0,1,0.4,1,1S8.6,3,8,3S7,2.6,7,2S7.4,1,8,1 M8,0C6.9,0,6,0.9,6,2s0.9,2,2,2s2-0.9,2-2S9.1,0,8,0
	L8,0z"/>
<path fill="#6C5E7F" d="M1.8,6c0,0,1.8,1.2,1.8,3C2.5,9,1.8,8.7,1.8,8.7S1.2,9,0,9C0,7.2,1.8,6,1.8,6z M14.2,6c0,0-1.8,1.2-1.8,3
	c1.1,0,1.8-0.3,1.8-0.3S14.8,9,16,9C16,7.2,14.2,6,14.2,6z"/>
<g>
	<path fill="#F5CE85" d="M7.7,13.2l0.7-0.7l1.5,1.3l-0.8,0.8L7,15.3L7.7,13.2z"/>
	<path fill="#967A44" d="M8.4,13l0.9,0.8l-0.5,0.5l-1.3,0.5L8,13.4L8.4,13 M8.4,12l-1,1l-1,2.9l2.9-1l1.2-1.2L8.4,12L8.4,12z"/>
</g>
<g>
	<path fill="#36404D" d="M6.8,14.5l-0.5,1.4l1.4-0.5L6.8,14.5z"/>
</g>
<g>
	<path fill="#FFEEA3" d="M9.4,14.2C9.3,14.1,9.2,14,9,14c-0.1-0.4-0.4-0.6-0.7-0.7C8.2,13.1,8.1,13,8,12.9l4.6-4.6L14,9.6L9.4,14.2z
		"/>
	<path fill="#BA9B48" d="M12.7,8.8l0.8,0.8l-4.1,4.1c0,0-0.1,0-0.1-0.1c-0.1-0.3-0.4-0.5-0.7-0.7c0,0,0-0.1-0.1-0.1L12.7,8.8
		 M12.7,7.7L7.4,13l0,0c0,0,0.6,0,0.6,0.6c0,0,0.7,0,0.7,0.7c0.7,0,0.6,0.6,0.6,0.6l5.3-5.3L12.7,7.7L12.7,7.7z"/>
</g>
<g>
	<path fill="#F78F8F" d="M12.5,8.6l0.9-0.9c0.2-0.2,0.4-0.2,0.6-0.2s0.4,0.1,0.6,0.2c0.3,0.3,0.3,0.9,0,1.2l-0.9,0.9L12.5,8.6z"/>
	<path fill="#C74343" d="M14,7.9c0.1,0,0.2,0,0.2,0.1c0.1,0.1,0.1,0.2,0.1,0.2s0,0.2-0.1,0.2l-0.5,0.5l-0.5-0.5L13.7,8
		C13.8,7.9,13.9,7.9,14,7.9 M14,6.9c-0.3,0-0.7,0.1-1,0.4l-1.3,1.3l1.9,1.9l1.3-1.3c0.5-0.5,0.5-1.4,0-1.9C14.7,7,14.3,6.9,14,6.9
		L14,6.9z"/>
</g>
</svg>
