<?xml version="1.0" encoding="utf-8"?>
<!-- Generator: Adobe Illustrator 22.1.0, SVG Export Plug-In . SVG Version: 6.00 Build 0)  -->
<svg version="1.1" id="katman_1" xmlns="http://www.w3.org/2000/svg" xmlns:xlink="http://www.w3.org/1999/xlink" x="0px" y="0px"
	 viewBox="0 0 16 16" style="enable-background:new 0 0 16 16;" xml:space="preserve">
<style type="text/css">
	.st0{fill:#A3B7CC;}
	.st1{fill:#8BB7F0;}
	.st2{fill:#4E7AB5;}
	.st3{fill:#BAE0BD;}
	.st4{fill:#5E9C76;}
</style>
<path class="st0" d="M3,14.5H2V13c0-2.8,2.2-5,5-5h2c2.2,0,4-1.8,4-4V1.9h1V4c0,2.7-2.2,5-5,5H7c-2.2,0-4,1.8-4,4V14.5z"/>
<path class="st0" d="M2,2.5h1v11H2V2.5z"/>
<path class="st1" d="M2.5,0.5c-1.1,0-2,0.9-2,2s0.9,2,2,2s2-0.9,2-2S3.6,0.5,2.5,0.5z"/>
<path class="st2" d="M2.5,1C3.3,1,4,1.7,4,2.5S3.3,4,2.5,4S1,3.3,1,2.5S1.7,1,2.5,1 M2.5,0C1.1,0,0,1.1,0,2.5S1.1,5,2.5,5
	S5,3.9,5,2.5S3.9,0,2.5,0L2.5,0z"/>
<path class="st1" d="M2.5,11.5c-1.1,0-2,0.9-2,2s0.9,2,2,2s2-0.9,2-2S3.6,11.5,2.5,11.5z"/>
<path class="st2" d="M2.5,12C3.3,12,4,12.7,4,13.5S3.3,15,2.5,15S1,14.3,1,13.5S1.7,12,2.5,12 M2.5,11C1.1,11,0,12.1,0,13.5
	S1.1,16,2.5,16S5,14.9,5,13.5S3.9,11,2.5,11L2.5,11z"/>
<g>
	<path class="st1" d="M13.5,0.5c-1.1,0-2,0.9-2,2s0.9,2,2,2s2-0.9,2-2S14.6,0.5,13.5,0.5z"/>
	<path class="st2" d="M13.5,1C14.3,1,15,1.7,15,2.5S14.3,4,13.5,4S12,3.3,12,2.5S12.7,1,13.5,1 M13.5,0C12.1,0,11,1.1,11,2.5
		S12.1,5,13.5,5S16,3.9,16,2.5S14.9,0,13.5,0L13.5,0z"/>
</g>
<path class="st3" d="M11.5,7.7c-2.1,0-3.8,1.8-3.8,3.8s1.8,3.8,3.8,3.8s3.8-1.8,3.8-3.8S13.6,7.7,11.5,7.7z"/>
<path class="st4" d="M11.5,8.2c1.9,0,3.3,1.5,3.3,3.3s-1.5,3.3-3.3,3.3s-3.3-1.5-3.3-3.3S9.6,8.2,11.5,8.2 M11.5,7.3
	c-2.3,0-4.2,1.9-4.2,4.2s1.9,4.2,4.2,4.2s4.2-1.9,4.2-4.2S13.8,7.3,11.5,7.3L11.5,7.3z"/>
<path class="st4" d="M8.9,11h4.6v1H8.9V11z"/>
<path class="st4" d="M10.6,13.5l2.8-2.8l0.8,0.8l-2.8,2.8L10.6,13.5z"/>
<path class="st4" d="M13.4,12.3l-2.8-2.8l0.8-0.8l2.8,2.8L13.4,12.3z"/>
</svg>
