<svg xmlns="http://www.w3.org/2000/svg" viewBox="0 0 16 16"><path fill="#bae0bd" d="M0.5 2.5H2.5V4.5H0.5z"></path><path fill="#5e9c76" d="M2,3v1H1V3H2 M2.5,2h-2C0.224,2,0,2.224,0,2.5v2C0,4.776,0.224,5,0.5,5h2C2.776,5,3,4.776,3,4.5v-2 C3,2.224,2.776,2,2.5,2L2.5,2z"></path><path fill="#bae0bd" d="M4.5 2.5H6.5V4.5H4.5z"></path><path fill="#5e9c76" d="M6,3v1H5V3H6 M6.5,2h-2C4.224,2,4,2.224,4,2.5v2C4,4.776,4.224,5,4.5,5h2C6.776,5,7,4.776,7,4.5v-2 C7,2.224,6.776,2,6.5,2L6.5,2z"></path><path fill="#bae0bd" d="M8.5 2.5H10.5V4.5H8.5z"></path><path fill="#5e9c76" d="M10,3v1H9V3H10 M10.5,2h-2C8.224,2,8,2.224,8,2.5v2C8,4.776,8.224,5,8.5,5h2 C10.776,5,11,4.776,11,4.5v-2C11,2.224,10.776,2,10.5,2L10.5,2z"></path><path fill="#bae0bd" d="M12.5 2.5H14.5V4.5H12.5z"></path><path fill="#5e9c76" d="M14,3v1h-1V3H14 M14.5,2h-2C12.224,2,12,2.224,12,2.5v2C12,4.776,12.224,5,12.5,5h2 C14.776,5,15,4.776,15,4.5v-2C15,2.224,14.776,2,14.5,2L14.5,2z"></path><path fill="#bae0bd" d="M0.5 6.5H2.5V8.5H0.5z"></path><path fill="#5e9c76" d="M2,7v1H1V7H2 M2.5,6h-2C0.224,6,0,6.224,0,6.5v2C0,8.776,0.224,9,0.5,9h2C2.776,9,3,8.776,3,8.5v-2 C3,6.224,2.776,6,2.5,6L2.5,6z"></path><path fill="#bae0bd" d="M4.5 6.5H6.5V8.5H4.5z"></path><path fill="#5e9c76" d="M6,7v1H5V7H6 M6.5,6h-2C4.224,6,4,6.224,4,6.5v2C4,8.776,4.224,9,4.5,9h2C6.776,9,7,8.776,7,8.5v-2 C7,6.224,6.776,6,6.5,6L6.5,6z"></path><g><path fill="#bae0bd" d="M8.5 6.5H10.5V8.5H8.5z"></path><path fill="#5e9c76" d="M10,7v1H9V7H10 M10.5,6h-2C8.224,6,8,6.224,8,6.5v2C8,8.776,8.224,9,8.5,9h2 C10.776,9,11,8.776,11,8.5v-2C11,6.224,10.776,6,10.5,6L10.5,6z"></path></g><g><path fill="#bae0bd" d="M12.5 6.5H14.5V8.5H12.5z"></path><path fill="#5e9c76" d="M14,7v1h-1V7H14 M14.5,6h-2C12.224,6,12,6.224,12,6.5v2C12,8.776,12.224,9,12.5,9h2 C14.776,9,15,8.776,15,8.5v-2C15,6.224,14.776,6,14.5,6L14.5,6z"></path></g><g><path fill="#bae0bd" d="M0.5 10.5H2.5V12.5H0.5z"></path><path fill="#5e9c76" d="M2,11v1H1v-1H2 M2.5,10h-2C0.224,10,0,10.224,0,10.5v2C0,12.776,0.224,13,0.5,13h2 C2.776,13,3,12.776,3,12.5v-2C3,10.224,2.776,10,2.5,10L2.5,10z"></path></g><g><path fill="#bae0bd" d="M4.5 10.5H6.5V12.5H4.5z"></path><path fill="#5e9c76" d="M6,11v1H5v-1H6 M6.5,10h-2C4.224,10,4,10.224,4,10.5v2C4,12.776,4.224,13,4.5,13h2 C6.776,13,7,12.776,7,12.5v-2C7,10.224,6.776,10,6.5,10L6.5,10z"></path></g><g><path fill="#bae0bd" d="M8.5 10.5H10.5V12.5H8.5z"></path><path fill="#5e9c76" d="M10,11v1H9v-1H10 M10.5,10h-2C8.224,10,8,10.224,8,10.5v2C8,12.776,8.224,13,8.5,13h2 c0.276,0,0.5-0.224,0.5-0.5v-2C11,10.224,10.776,10,10.5,10L10.5,10z"></path></g><g><path fill="#bae0bd" d="M12.5 10.5H14.5V12.5H12.5z"></path><path fill="#5e9c76" d="M14,11v1h-1v-1H14 M14.5,10h-2c-0.276,0-0.5,0.224-0.5,0.5v2c0,0.276,0.224,0.5,0.5,0.5h2 c0.276,0,0.5-0.224,0.5-0.5v-2C15,10.224,14.776,10,14.5,10L14.5,10z"></path></g></svg>