<?xml version="1.0" encoding="utf-8"?>
<!-- Generator: Adobe Illustrator 22.1.0, SVG Export Plug-In . SVG Version: 6.00 Build 0)  -->
<svg version="1.1" id="katman_1" xmlns="http://www.w3.org/2000/svg" xmlns:xlink="http://www.w3.org/1999/xlink" x="0px" y="0px"
	 viewBox="0 0 16 16" style="enable-background:new 0 0 16 16;" xml:space="preserve">
<style type="text/css">
	.st0{fill:#BAE0BD;}
	.st1{fill:#5E9C76;}
</style>
<path class="st0" d="M1.4,1h1.2C2.8,1,3,1.2,3,1.4v1.2C3,2.8,2.8,3,2.6,3H1.4C1.2,3,1,2.8,1,2.6V1.4C1,1.2,1.2,1,1.4,1z"/>
<path class="st1" d="M3,1.4v1.1C3,2.8,2.8,3,2.6,3H1.4C1.2,3,1,2.8,1,2.6V1.4C1,1.2,1.2,1,1.4,1h1.1C2.8,1,3,1.2,3,1.4z M3.3,0H0.7
	C0.3,0,0,0.3,0,0.7v2.7C0,3.7,0.3,4,0.7,4h2.7C3.7,4,4,3.7,4,3.3V0.7C4,0.3,3.7,0,3.3,0L3.3,0z"/>
<path class="st0" d="M1.4,7h1.2C2.8,7,3,7.2,3,7.4v1.2C3,8.8,2.8,9,2.6,9H1.4C1.2,9,1,8.8,1,8.6V7.4C1,7.2,1.2,7,1.4,7z"/>
<path class="st1" d="M3,7.4v1.1C3,8.8,2.8,9,2.6,9H1.4C1.2,9,1,8.8,1,8.6V7.4C1,7.2,1.2,7,1.4,7h1.1C2.8,7,3,7.2,3,7.4z M3.3,6H0.7
	C0.3,6,0,6.3,0,6.7v2.7C0,9.7,0.3,10,0.7,10h2.7C3.7,10,4,9.7,4,9.3V6.7C4,6.3,3.7,6,3.3,6L3.3,6z"/>
<path class="st0" d="M1.4,13h1.2C2.8,13,3,13.2,3,13.4v1.2C3,14.8,2.8,15,2.6,15H1.4C1.2,15,1,14.8,1,14.6v-1.2
	C1,13.2,1.2,13,1.4,13z"/>
<path class="st1" d="M3,13.4v1.1C3,14.8,2.8,15,2.6,15H1.4C1.2,15,1,14.8,1,14.6v-1.1C1,13.2,1.2,13,1.4,13h1.1
	C2.8,13,3,13.2,3,13.4z M3.3,12H0.7C0.3,12,0,12.3,0,12.7v2.7C0,15.7,0.3,16,0.7,16h2.7C3.7,16,4,15.7,4,15.3v-2.7
	C4,12.3,3.7,12,3.3,12L3.3,12z"/>
<path class="st0" d="M7.4,1h1.2C8.8,1,9,1.2,9,1.4v1.2C9,2.8,8.8,3,8.6,3H7.4C7.2,3,7,2.8,7,2.6V1.4C7,1.2,7.2,1,7.4,1z"/>
<path class="st1" d="M9,1.4v1.1C9,2.8,8.8,3,8.6,3H7.4C7.2,3,7,2.8,7,2.6V1.4C7,1.2,7.2,1,7.4,1h1.1C8.8,1,9,1.2,9,1.4z M9.3,0H6.7
	C6.3,0,6,0.3,6,0.7v2.7C6,3.7,6.3,4,6.7,4h2.7C9.7,4,10,3.7,10,3.3V0.7C10,0.3,9.7,0,9.3,0L9.3,0z"/>
<path class="st0" d="M7.4,7h1.2C8.8,7,9,7.2,9,7.4v1.2C9,8.8,8.8,9,8.6,9H7.4C7.2,9,7,8.8,7,8.6V7.4C7,7.2,7.2,7,7.4,7z"/>
<path class="st1" d="M9,7.4v1.1C9,8.8,8.8,9,8.6,9H7.4C7.2,9,7,8.8,7,8.6V7.4C7,7.2,7.2,7,7.4,7h1.1C8.8,7,9,7.2,9,7.4z M9.3,6H6.7
	C6.3,6,6,6.3,6,6.7v2.7C6,9.7,6.3,10,6.7,10h2.7C9.7,10,10,9.7,10,9.3V6.7C10,6.3,9.7,6,9.3,6L9.3,6z"/>
<path class="st0" d="M7.4,13h1.2C8.8,13,9,13.2,9,13.4v1.2C9,14.8,8.8,15,8.6,15H7.4C7.2,15,7,14.8,7,14.6v-1.2
	C7,13.2,7.2,13,7.4,13z"/>
<path class="st1" d="M9,13.4v1.1C9,14.8,8.8,15,8.6,15H7.4C7.2,15,7,14.8,7,14.6v-1.1C7,13.2,7.2,13,7.4,13h1.1
	C8.8,13,9,13.2,9,13.4z M9.3,12H6.7C6.3,12,6,12.3,6,12.7v2.7C6,15.7,6.3,16,6.7,16h2.7c0.4,0,0.7-0.3,0.7-0.7v-2.7
	C10,12.3,9.7,12,9.3,12L9.3,12z"/>
<path class="st0" d="M13.4,1h1.2C14.8,1,15,1.2,15,1.4v1.2C15,2.8,14.8,3,14.6,3h-1.2C13.2,3,13,2.8,13,2.6V1.4
	C13,1.2,13.2,1,13.4,1z"/>
<path class="st1" d="M15,1.4v1.1C15,2.8,14.8,3,14.6,3h-1.1C13.2,3,13,2.8,13,2.6V1.4C13,1.2,13.2,1,13.4,1h1.1
	C14.8,1,15,1.2,15,1.4z M15.3,0h-2.7C12.3,0,12,0.3,12,0.7v2.7C12,3.7,12.3,4,12.7,4h2.7C15.7,4,16,3.7,16,3.3V0.7
	C16,0.3,15.7,0,15.3,0L15.3,0z"/>
<path class="st0" d="M13.4,7h1.2C14.8,7,15,7.2,15,7.4v1.2C15,8.8,14.8,9,14.6,9h-1.2C13.2,9,13,8.8,13,8.6V7.4
	C13,7.2,13.2,7,13.4,7z"/>
<path class="st1" d="M15,7.4v1.1C15,8.8,14.8,9,14.6,9h-1.1C13.2,9,13,8.8,13,8.6V7.4C13,7.2,13.2,7,13.4,7h1.1
	C14.8,7,15,7.2,15,7.4z M15.3,6h-2.7C12.3,6,12,6.3,12,6.7v2.7c0,0.4,0.3,0.7,0.7,0.7h2.7c0.4,0,0.7-0.3,0.7-0.7V6.7
	C16,6.3,15.7,6,15.3,6L15.3,6z"/>
<path class="st0" d="M13.4,13h1.2c0.2,0,0.4,0.2,0.4,0.4v1.2c0,0.2-0.2,0.4-0.4,0.4h-1.2c-0.2,0-0.4-0.2-0.4-0.4v-1.2
	C13,13.2,13.2,13,13.4,13z"/>
<path class="st1" d="M15,13.4v1.1c0,0.2-0.2,0.4-0.4,0.4h-1.1c-0.2,0-0.4-0.2-0.4-0.4v-1.1c0-0.2,0.2-0.4,0.4-0.4h1.1
	C14.8,13,15,13.2,15,13.4z M15.3,12h-2.7c-0.4,0-0.7,0.3-0.7,0.7v2.7c0,0.4,0.3,0.7,0.7,0.7h2.7c0.4,0,0.7-0.3,0.7-0.7v-2.7
	C16,12.3,15.7,12,15.3,12L15.3,12z"/>
</svg>
