<svg xmlns="http://www.w3.org/2000/svg" viewBox="0 0 16 16"><path fill="#4e7ab5" d="M2.4 13L0 13 0 11 1.6 11 9.6 3 13 3 13 5 10.4 5z"></path><path fill="#4e7ab5" d="M13 13L9.6 13 1.6 5 0 5 0 3 2.4 3 10.4 11 13 11z"></path><path fill="#8bb7f0" d="M12.5 2L15.2 4 12.5 6z"></path><path fill="#4e7ab5" d="M13,3l1.3,1L13,5L13,3 M12,1l0,6l4-3L12,1L12,1z"></path><g><path fill="#8bb7f0" d="M12.5 10L15.2 12 12.5 14z"></path><path fill="#4e7ab5" d="M13,11l1.3,1L13,13L13,11 M12,9l0,6l4-3L12,9L12,9z"></path></g></svg>