<svg xmlns="http://www.w3.org/2000/svg" viewBox="0 0 50 50"><path d="M 33 8 C 24.651 8 17.70425 14.054 16.28125 22 L 18.302734 22 C 19.696734 15.162 25.756 10 33 10 C 41.271 10 48 16.729 48 25 C 48 33.271 41.271 40 33 40 C 25.756 40 19.696734 34.838 18.302734 28 L 16.28125 28 C 17.70425 35.946 24.651 42 33 42 C 42.374 42 50 34.374 50 25 C 50 15.626 42.374 8 33 8 z M 9.0058594 16.990234 A 1.0001 1.0001 0 0 0 8.3125 17.275391 L 0.171875 25 L 8.3125 32.724609 A 1.0001 1.0001 0 1 0 9.6875 31.275391 L 4.1289062 26 L 33 26 A 1.0001 1.0001 0 1 0 33 24 L 4.1289062 24 L 9.6875 18.724609 A 1.0001 1.0001 0 0 0 9.0058594 16.990234 z"></path></svg>