<svg xmlns="http://www.w3.org/2000/svg" viewBox="0 0 50 50"><path d="M 17 8 C 7.626 8 0 15.626 0 25 C 0 34.374 7.626 42 17 42 C 25.349 42 32.29575 35.946 33.71875 28 L 31.697266 28 C 30.303266 34.838 24.244 40 17 40 C 8.729 40 2 33.271 2 25 C 2 16.729 8.729 10 17 10 C 24.244 10 30.303266 15.162 31.697266 22 L 33.71875 22 C 32.29575 14.054 25.349 8 17 8 z M 40.962891 16.990234 A 1.0001 1.0001 0 0 0 40.3125 18.724609 L 45.871094 24 L 17 24 A 1.0001 1.0001 0 1 0 17 26 L 45.871094 26 L 40.3125 31.275391 A 1.0001 1.0001 0 1 0 41.6875 32.724609 L 49.828125 25 L 41.6875 17.275391 A 1.0001 1.0001 0 0 0 40.962891 16.990234 z"></path></svg>