<svg xmlns="http://www.w3.org/2000/svg" viewBox="0 0 50 50"><path d="M 25 0.171875 L 17.275391 8.3125 A 1.0001 1.0001 0 1 0 18.724609 9.6875 L 24 4.1289062 L 24 33 A 1.0001 1.0001 0 1 0 26 33 L 26 4.1289062 L 31.275391 9.6875 A 1.0001 1.0001 0 1 0 32.724609 8.3125 L 25 0.171875 z M 22 16.28125 C 14.054 17.70425 8 24.651 8 33 C 8 42.374 15.626 50 25 50 C 34.374 50 42 42.374 42 33 C 42 24.651 35.946 17.70425 28 16.28125 L 28 18.302734 C 34.838 19.696734 40 25.756 40 33 C 40 41.271 33.271 48 25 48 C 16.729 48 10 41.271 10 33 C 10 25.756 15.162 19.696734 22 18.302734 L 22 16.28125 z"></path></svg>