<svg xmlns="http://www.w3.org/2000/svg" viewBox="0 0 16 16"><path fill="#fff" d="M2.5 14.5L2.5 0.5 9.867 0.5 13.5 4.204 13.5 14.5z"></path><path fill="#788b9c" d="M9.657,1L13,4.409V14H3V1H9.657 M10.077,0H2v15h12V4L10.077,0L10.077,0z"></path><path fill="#fff" d="M9.5 4.5L9.5 0.5 9.832 0.5 13.5 4.206 13.5 4.5z"></path><path fill="#788b9c" d="M10,1.381L12.593,4H10V1.381 M10.04,0H9v5h5V4L10.04,0L10.04,0z"></path><path fill="#d6e3ed" d="M13.394 7.898L13 7.517 13 14 7.563 14 7.788 14.119 8.571 14.535 8.653 15 13 15 14 15 14 14 14 7.812z"></path><g><path fill="#ffeea3" d="M11.244 14.514L10.118 14.673 9.922 13.554 8.918 13.021 9.417 12 8.918 10.979 9.922 10.446 10.118 9.327 11.244 9.486 12.061 8.696 12.878 9.486 14.003 9.327 14.2 10.446 15.204 10.979 14.704 12 15.204 13.021 14.2 13.554 14.003 14.673 12.878 14.514 12.061 15.304z"></path><path fill="#ba9b48" d="M12.061,9.391l0.294,0.284l0.351,0.34l0.484-0.069l0.404-0.057l0.071,0.402l0.084,0.481l0.432,0.229 l0.361,0.191l-0.179,0.367L14.148,12l0.215,0.439l0.18,0.367l-0.361,0.191l-0.432,0.229l-0.084,0.481l-0.071,0.402l-0.404-0.057 l-0.484-0.069l-0.351,0.34l-0.293,0.284l-0.294-0.284l-0.351-0.34l-0.484,0.069l-0.404,0.057l-0.071-0.402l-0.084-0.481 l-0.432-0.229L9.58,12.806l0.179-0.367L9.974,12l-0.215-0.439l-0.18-0.367l0.361-0.191l0.432-0.229l0.084-0.481l0.071-0.402 l0.404,0.057l0.484,0.069l0.351-0.34L12.061,9.391 M12.061,8l-0.989,0.956L9.71,8.764l-0.238,1.355l-1.216,0.645L8.861,12 l-0.604,1.236l1.216,0.645l0.238,1.355l1.362-0.193L12.061,16l0.989-0.956l1.362,0.193l0.238-1.355l1.216-0.645L15.261,12 l0.604-1.236l-1.216-0.645l-0.238-1.355L13.05,8.957L12.061,8L12.061,8z"></path></g></svg>