<svg xmlns="http://www.w3.org/2000/svg" viewBox="0 0 80 80"><path d="M 40 4 C 37.050781 4 34.699219 6.191406 34.203125 9 L 18 9 C 16.355469 9 15 10.355469 15 12 L 15 68 C 15 69.644531 16.355469 71 18 71 L 62 71 C 63.644531 71 65 69.644531 65 68 L 65 12 C 65 10.355469 63.644531 9 62 9 L 45.796875 9 C 45.300781 6.191406 42.949219 4 40 4 Z M 40 6 C 42.21875 6 44 7.78125 44 10 L 44 11 L 50 11 L 50 15 C 50 15.566406 49.566406 16 49 16 L 31 16 C 30.433594 16 30 15.566406 30 15 L 30 11 L 36 11 L 36 10 C 36 7.78125 37.78125 6 40 6 Z M 40 9 C 39.449219 9 39 9.449219 39 10 C 39 10.550781 39.449219 11 40 11 C 40.550781 11 41 10.550781 41 10 C 41 9.449219 40.550781 9 40 9 Z M 18 11 L 28 11 L 28 15 C 28 16.644531 29.355469 18 31 18 L 49 18 C 50.644531 18 52 16.644531 52 15 L 52 11 L 62 11 C 62.566406 11 63 11.433594 63 12 L 63 68 C 63 68.566406 62.566406 69 62 69 L 18 69 C 17.433594 69 17 68.566406 17 68 L 17 12 C 17 11.433594 17.433594 11 18 11 Z M 22 16 C 21.449219 16 21 16.449219 21 17 C 21 17.550781 21.449219 18 22 18 C 22.550781 18 23 17.550781 23 17 C 23 16.449219 22.550781 16 22 16 Z M 26 16 C 25.449219 16 25 16.449219 25 17 C 25 17.550781 25.449219 18 26 18 C 26.550781 18 27 17.550781 27 17 C 27 16.449219 26.550781 16 26 16 Z M 54 16 C 53.449219 16 53 16.449219 53 17 C 53 17.550781 53.449219 18 54 18 C 54.550781 18 55 17.550781 55 17 C 55 16.449219 54.550781 16 54 16 Z M 58 16 C 57.449219 16 57 16.449219 57 17 C 57 17.550781 57.449219 18 58 18 C 58.550781 18 59 17.550781 59 17 C 59 16.449219 58.550781 16 58 16 Z M 22 20 C 21.449219 20 21 20.449219 21 21 C 21 21.550781 21.449219 22 22 22 C 22.550781 22 23 21.550781 23 21 C 23 20.449219 22.550781 20 22 20 Z M 58 20 C 57.449219 20 57 20.449219 57 21 C 57 21.550781 57.449219 22 58 22 C 58.550781 22 59 21.550781 59 21 C 59 20.449219 58.550781 20 58 20 Z M 22 24 C 21.449219 24 21 24.449219 21 25 C 21 25.550781 21.449219 26 22 26 C 22.550781 26 23 25.550781 23 25 C 23 24.449219 22.550781 24 22 24 Z M 58 24 C 57.449219 24 57 24.449219 57 25 C 57 25.550781 57.449219 26 58 26 C 58.550781 26 59 25.550781 59 25 C 59 24.449219 58.550781 24 58 24 Z M 22 28 C 21.449219 28 21 28.449219 21 29 C 21 29.550781 21.449219 30 22 30 C 22.550781 30 23 29.550781 23 29 C 23 28.449219 22.550781 28 22 28 Z M 58 28 C 57.449219 28 57 28.449219 57 29 C 57 29.550781 57.449219 30 58 30 C 58.550781 30 59 29.550781 59 29 C 59 28.449219 58.550781 28 58 28 Z M 22 32 C 21.449219 32 21 32.449219 21 33 C 21 33.550781 21.449219 34 22 34 C 22.550781 34 23 33.550781 23 33 C 23 32.449219 22.550781 32 22 32 Z M 58 32 C 57.449219 32 57 32.449219 57 33 C 57 33.550781 57.449219 34 58 34 C 58.550781 34 59 33.550781 59 33 C 59 32.449219 58.550781 32 58 32 Z M 22 36 C 21.449219 36 21 36.449219 21 37 C 21 37.550781 21.449219 38 22 38 C 22.550781 38 23 37.550781 23 37 C 23 36.449219 22.550781 36 22 36 Z M 58 36 C 57.449219 36 57 36.449219 57 37 C 57 37.550781 57.449219 38 58 38 C 58.550781 38 59 37.550781 59 37 C 59 36.449219 58.550781 36 58 36 Z M 22 40 C 21.449219 40 21 40.449219 21 41 C 21 41.550781 21.449219 42 22 42 C 22.550781 42 23 41.550781 23 41 C 23 40.449219 22.550781 40 22 40 Z M 58 40 C 57.449219 40 57 40.449219 57 41 C 57 41.550781 57.449219 42 58 42 C 58.550781 42 59 41.550781 59 41 C 59 40.449219 58.550781 40 58 40 Z M 22 44 C 21.449219 44 21 44.449219 21 45 C 21 45.550781 21.449219 46 22 46 C 22.550781 46 23 45.550781 23 45 C 23 44.449219 22.550781 44 22 44 Z M 58 44 C 57.449219 44 57 44.449219 57 45 C 57 45.550781 57.449219 46 58 46 C 58.550781 46 59 45.550781 59 45 C 59 44.449219 58.550781 44 58 44 Z M 22 48 C 21.449219 48 21 48.449219 21 49 C 21 49.550781 21.449219 50 22 50 C 22.550781 50 23 49.550781 23 49 C 23 48.449219 22.550781 48 22 48 Z M 58 48 C 57.449219 48 57 48.449219 57 49 C 57 49.550781 57.449219 50 58 50 C 58.550781 50 59 49.550781 59 49 C 59 48.449219 58.550781 48 58 48 Z M 22 52 C 21.449219 52 21 52.449219 21 53 C 21 53.550781 21.449219 54 22 54 C 22.550781 54 23 53.550781 23 53 C 23 52.449219 22.550781 52 22 52 Z M 58 52 C 57.449219 52 57 52.449219 57 53 C 57 53.550781 57.449219 54 58 54 C 58.550781 54 59 53.550781 59 53 C 59 52.449219 58.550781 52 58 52 Z M 22 56 C 21.449219 56 21 56.449219 21 57 C 21 57.550781 21.449219 58 22 58 C 22.550781 58 23 57.550781 23 57 C 23 56.449219 22.550781 56 22 56 Z M 58 56 C 57.449219 56 57 56.449219 57 57 C 57 57.550781 57.449219 58 58 58 C 58.550781 58 59 57.550781 59 57 C 59 56.449219 58.550781 56 58 56 Z M 22 60 C 21.449219 60 21 60.449219 21 61 C 21 61.550781 21.449219 62 22 62 C 22.550781 62 23 61.550781 23 61 C 23 60.449219 22.550781 60 22 60 Z M 58 60 C 57.449219 60 57 60.449219 57 61 C 57 61.550781 57.449219 62 58 62 C 58.550781 62 59 61.550781 59 61 C 59 60.449219 58.550781 60 58 60 Z M 22 64 C 21.449219 64 21 64.449219 21 65 C 21 65.550781 21.449219 66 22 66 C 22.550781 66 23 65.550781 23 65 C 23 64.449219 22.550781 64 22 64 Z M 26 64 C 25.449219 64 25 64.449219 25 65 C 25 65.550781 25.449219 66 26 66 C 26.550781 66 27 65.550781 27 65 C 27 64.449219 26.550781 64 26 64 Z M 30 64 C 29.449219 64 29 64.449219 29 65 C 29 65.550781 29.449219 66 30 66 C 30.550781 66 31 65.550781 31 65 C 31 64.449219 30.550781 64 30 64 Z M 34 64 C 33.449219 64 33 64.449219 33 65 C 33 65.550781 33.449219 66 34 66 C 34.550781 66 35 65.550781 35 65 C 35 64.449219 34.550781 64 34 64 Z M 38 64 C 37.449219 64 37 64.449219 37 65 C 37 65.550781 37.449219 66 38 66 C 38.550781 66 39 65.550781 39 65 C 39 64.449219 38.550781 64 38 64 Z M 42 64 C 41.449219 64 41 64.449219 41 65 C 41 65.550781 41.449219 66 42 66 C 42.550781 66 43 65.550781 43 65 C 43 64.449219 42.550781 64 42 64 Z M 46 64 C 45.449219 64 45 64.449219 45 65 C 45 65.550781 45.449219 66 46 66 C 46.550781 66 47 65.550781 47 65 C 47 64.449219 46.550781 64 46 64 Z M 50 64 C 49.449219 64 49 64.449219 49 65 C 49 65.550781 49.449219 66 50 66 C 50.550781 66 51 65.550781 51 65 C 51 64.449219 50.550781 64 50 64 Z M 54 64 C 53.449219 64 53 64.449219 53 65 C 53 65.550781 53.449219 66 54 66 C 54.550781 66 55 65.550781 55 65 C 55 64.449219 54.550781 64 54 64 Z M 58 64 C 57.449219 64 57 64.449219 57 65 C 57 65.550781 57.449219 66 58 66 C 58.550781 66 59 65.550781 59 65 C 59 64.449219 58.550781 64 58 64 Z"></path></svg>