<svg xmlns="http://www.w3.org/2000/svg" viewBox="0 0 16 16"><path fill="#a3b7cc" d="M0.952 15.755L0 16 0.245 15.048 7.646 7.646 8.354 8.354z"></path><path fill="#e87070" d="M7.14,6.433c1.912-0.973,3.117-2.173,4.048-4.038l2.402,2.402c-2,0.928-3.209,2.127-4.056,4.03 L7.14,6.433z"></path><path fill="#c74343" d="M11.311,3.225l1.436,1.436c-1.518,0.822-2.575,1.868-3.353,3.318L7.967,6.553 C9.444,5.701,10.483,4.667,11.311,3.225 M11.036,1.536c-1.056,2.439-2.425,3.708-4.75,4.75l3.429,3.429 c0.858-2.325,2.114-3.694,4.75-4.75L11.036,1.536L11.036,1.536z"></path><path fill="#c74343" d="M11.2,0l-0.865,0.9c-0.447,0.447-0.447,1.171,0,1.618l3.146,3.146c0.447,0.447,1.172,0.447,1.618,0 L16,4.8L11.2,0z"></path><g><path fill="#f78f8f" d="M3.707,6.44L4.06,6.086C4.438,5.708,4.941,5.5,5.474,5.5c0.534,0,1.037,0.208,1.415,0.586 l3.025,3.025c0.779,0.78,0.779,2.048,0,2.828L9.56,12.293L3.707,6.44z"></path><path fill="#c74343" d="M5.475,6c0.401,0,0.777,0.156,1.061,0.44l3.025,3.025c0.585,0.585,0.585,1.536,0,2.121l0,0 L4.414,6.439C4.698,6.156,5.074,6,5.475,6 M5.475,5c-0.64,0-1.28,0.244-1.768,0.732L3,6.439L9.56,13l0.708-0.707 c0.976-0.977,0.976-2.559,0-3.535L7.243,5.732C6.754,5.244,6.115,5,5.475,5L5.475,5z"></path></g></svg>