<?xml version="1.0" encoding="utf-8"?>
<!-- Generator: Adobe Illustrator 22.1.0, SVG Export Plug-In . SVG Version: 6.00 Build 0)  -->
<svg version="1.2" baseProfile="tiny" id="katman_1"
	 xmlns="http://www.w3.org/2000/svg" xmlns:xlink="http://www.w3.org/1999/xlink" x="0px" y="0px" viewBox="0 0 16 16"
	 xml:space="preserve">
<path fill="#A3B7CC" d="M9,14.7L8.5,16L8,14.7V6.9h1V14.7z"/>
<path fill="#E87070" d="M6.8,6.6c1-2.9,0.9-2,0-4.9h3.4c-0.9,2.5-0.9,2.5,0,4.9H6.8z"/>
<path fill="#C74343" d="M7.5,2.2h2C8.8,4.4,8.8,4,9.5,6.1h-2C8.2,3.4,8.2,4.9,7.5,2.2 M6.1,1.2c1.3,3.2,1.2,2.8,0,5.9h4.8
	c-1.2-2.6-1.3-2.9,0-5.9L6.1,1.2L6.1,1.2z"/>
<path fill="#C74343" d="M5,0v0.8C5,1.5,5.7,2,6.3,2h4.4C11.4,2,12,1.5,12,0.9V0H5z"/>
<g>
	<path fill="#F78F8F" d="M4.4,9.7V9.1c0-0.5,0.2-1.5,0.6-1.9c0.4-0.4,0.9-0.6,1.4-0.6h4.3c1.1,0,2,1.4,2,2.5v0.6H4.4z"/>
	<path fill="#C74343" d="M5.5,7.6C5.8,7.3,6,7,6.4,7h4.3C11.3,7,12,8.3,12,9h0.1H5C5,8.6,5.2,7.9,5.5,7.6 M4.8,6.9
		C4.3,7.3,3.9,8.3,3.8,9v1h9.3V9c0-1.3-1.3-3-2.5-3H6.4C5.7,6,5.2,6.4,4.8,6.9L4.8,6.9z"/>
</g>
</svg>
