<?xml version="1.0" encoding="utf-8"?>
<!-- Generator: Adobe Illustrator 22.1.0, SVG Export Plug-In . SVG Version: 6.00 Build 0)  -->
<svg version="1.2" baseProfile="tiny" id="katman_1"
	 xmlns="http://www.w3.org/2000/svg" xmlns:xlink="http://www.w3.org/1999/xlink" x="0px" y="0px" viewBox="0 0 16 16"
	 xml:space="preserve">
<path fill="#A3B7CC" d="M1,8.6L0,8.1l1-0.6h7v1.1H1z"/>
<path fill="#E87070" d="M8.6,6.1c2.1,0.6,3.7,0.6,5.7,0v3.4c-2.1-0.8-3.7-0.8-5.7-0.1L8.6,6.1z"/>
<path fill="#C74343" d="M14,7v2c-1.7-0.4-3.4-0.5-5,0V7C10.6,7.4,12.4,7.5,14,7 M14.8,5.4c-2.5,1.1-4.3,0.9-6.7,0.1v4.8
	c2.3-0.6,4.1-0.8,6.7,0.1V5.4L14.8,5.4z"/>
<path fill="#C74343" d="M16,4.5l-1.3,0c-0.6,0-1.1,0.6-1.1,1.1l0,4.4c0,0.6,0.6,1.1,1.1,1.1l1.3,0.1V4.5z"/>
<path fill="#F78F8F" d="M6.2,3.8l0.6,0c0.6,0,1.1,0.2,1.4,0.6c0.4,0.4,0.6,0.8,0.6,1.4l0,4.2c0,1.1-0.8,2-2,2l-0.6,0L6.2,3.8z"/>
<path fill="#C74343" d="M7.7,4.7C8,5,8.1,5.4,8.2,5.8l0,4.2c0,0.8-0.4,1.4-1.3,1.4l0,0.1V4.3C7.3,4.4,7.4,4.4,7.7,4.7 M8.4,4
	C7.9,3.5,7.4,3.2,6.6,3.2L6,3.2l0,9.3l0.6,0c1.4,0,2.5-1.1,2.5-2.5V5.9C9.2,5.1,8.8,4.4,8.4,4L8.4,4z"/>
</svg>
