<?xml version="1.0" encoding="utf-8"?>
<!-- Generator: Adobe Illustrator 22.1.0, SVG Export Plug-In . SVG Version: 6.00 Build 0)  -->
<svg version="1.1" id="katman_1" xmlns="http://www.w3.org/2000/svg" xmlns:xlink="http://www.w3.org/1999/xlink" x="0px" y="0px"
	 viewBox="0 0 16 16" style="enable-background:new 0 0 16 16;" xml:space="preserve">
<style type="text/css">
	.st0{fill:#8BB7F0;}
	.st1{fill:#4E7AB5;}
</style>
<path class="st0" d="M5,14.5c-2.5,0-4.5-3-4.5-5.5s2-5.5,4.5-5.5h6.5V1.1l3.8,3.4l-3.8,3.4V5.5H5C3.6,5.5,2.5,7.6,2.5,9
	s1.1,3.5,2.5,3.5h8.5v2H5z"/>
<path class="st1" d="M12,2.2l2.5,2.3L12,6.8V6V5h-1H5C3.3,5,2,7.3,2,9s1.3,4,3,4h8v1H5c-2.2,0-4-2.8-4-5s1.8-5,4-5h6h1V3V2.2 M11,0
	v3H5C2.2,3,0,6.2,0,9s2.2,6,5,6h9v-3H5c-1.2-0.2-2-1.9-2-3c0-1.5,0.9-3,2-3h6v3l5-4.5L11,0L11,0z"/>
</svg>
