<svg xmlns="http://www.w3.org/2000/svg" viewBox="0 0 16 16"><path fill="#8bb7f0" d="M7.5,12.5c2.757,0,5-2.243,5-5c0-1.032-0.338-2.04-0.976-2.915L11.18,4.113l-0.68,0.68V1.5h3.293 l-1.192,1.192l0.291,0.351C13.929,4.294,14.5,5.877,14.5,7.5c0,3.86-3.141,7-7,7V12.5z"></path><path fill="#4e7ab5" d="M12.586,2l-0.016,0.016l-0.644,0.644l0.581,0.701C13.47,4.524,14,5.993,14,7.5 c0,3.416-2.649,6.225-6,6.481v-1.003c2.799-0.253,5-2.613,5-5.477c0-1.138-0.371-2.248-1.072-3.209l-0.689-0.944L11,3.586V2 H12.586 M15,1h-5v5l1.12-1.12C11.66,5.62,12,6.514,12,7.5C12,9.985,9.985,12,7.5,12c-0.171,0-0.334-0.032-0.5-0.05v3.025 C7.166,14.986,7.331,15,7.5,15c4.142,0,7.5-3.358,7.5-7.5c0-1.817-0.648-3.479-1.724-4.776L15,1L15,1z"></path><g><path fill="#8bb7f0" d="M1.207,13.5l1.197-1.197l-0.291-0.351C1.058,10.678,0.5,9.138,0.5,7.5c0-3.86,3.141-7,7-7v2 c-2.757,0-5,2.243-5,5c0,1.032,0.338,2.04,0.976,2.915l0.345,0.472l0.68-0.68V13.5H1.207z"></path><path fill="#4e7ab5" d="M7,1.019v1.003C4.201,2.276,2,4.636,2,7.5c0,1.138,0.371,2.248,1.072,3.209l0.689,0.944L4,11.414 V13H2.414l0.022-0.022l0.644-0.644l-0.581-0.701C1.518,10.45,1,9.021,1,7.5C1,4.084,3.649,1.275,7,1.019 M7.5,0 C3.358,0,0,3.358,0,7.5c0,1.816,0.654,3.474,1.729,4.771L0,14h5V9l-1.12,1.12C3.34,9.38,3,8.486,3,7.5C3,5.015,5.015,3,7.5,3 C7.671,3,7.834,3.032,8,3.05V0.025C7.834,0.014,7.669,0,7.5,0L7.5,0z"></path></g></svg>