<?xml version="1.0" encoding="utf-8"?>
<!-- Generator: Adobe Illustrator 22.1.0, SVG Export Plug-In . SVG Version: 6.00 Build 0)  -->
<svg version="1.2" baseProfile="tiny" id="katman_1"
	 xmlns="http://www.w3.org/2000/svg" xmlns:xlink="http://www.w3.org/1999/xlink" x="0px" y="0px" viewBox="0 0 16 16"
	 xml:space="preserve">
<path fill="#BAE0BD" d="M7.5,12.5c2.8,0,5-2.2,5-5c0-1-0.3-2-1-2.9l-0.3-0.5l-0.7,0.7V1.5h3.3l-1.2,1.2L12.9,3
	c1,1.3,1.6,2.8,1.6,4.5c0,3.9-3.1,7-7,7V12.5z"/>
<path fill="#5E9C76" d="M12.6,2L12.6,2l-0.7,0.7l0.6,0.7C13.5,4.5,14,6,14,7.5c0,3.4-2.6,6.2-6,6.5v-1c2.8-0.3,5-2.6,5-5.5
	c0-1.1-0.4-2.2-1.1-3.2l-0.7-0.9L11,3.6V2H12.6 M15,1h-5v5l1.1-1.1C11.7,5.6,12,6.5,12,7.5C12,10,10,12,7.5,12c-0.2,0-0.3,0-0.5-0.1
	v3c0.2,0,0.3,0,0.5,0c4.1,0,7.5-3.4,7.5-7.5c0-1.8-0.6-3.5-1.7-4.8L15,1L15,1z"/>
<g>
	<path fill="#BAE0BD" d="M1.2,13.5l1.2-1.2L2.1,12c-1.1-1.3-1.6-2.8-1.6-4.5c0-3.9,3.1-7,7-7v2c-2.8,0-5,2.2-5,5c0,1,0.3,2,1,2.9
		l0.3,0.5l0.7-0.7v3.3H1.2z"/>
	<path fill="#5E9C76" d="M7,1v1C4.2,2.3,2,4.6,2,7.5c0,1.1,0.4,2.2,1.1,3.2l0.7,0.9L4,11.4V13H2.4l0,0l0.6-0.6l-0.6-0.7
		C1.5,10.4,1,9,1,7.5C1,4.1,3.6,1.3,7,1 M7.5,0C3.4,0,0,3.4,0,7.5c0,1.8,0.7,3.5,1.7,4.8L0,14h5V9l-1.1,1.1C3.3,9.4,3,8.5,3,7.5
		C3,5,5,3,7.5,3C7.7,3,7.8,3,8,3V0C7.8,0,7.7,0,7.5,0L7.5,0z"/>
</g>
</svg>
