<svg xmlns="http://www.w3.org/2000/svg" viewBox="0 0 16 16"><path fill="#dcd5f2" d="M1.5 14.5L1.5 1.5 11.793 1.5 14.5 4.207 14.5 14.5z"></path><path fill="#8b75a1" d="M11.586,2L14,4.414V14H2V2H11.586 M12,1H1v14h14V4L12,1L12,1z"></path><path fill="#fff" d="M4 8H12V14H4z"></path><path fill="#c6bae6" d="M11,2H4v3c0,0.552,0.448,1,1,1h6V2z"></path><path fill="#e1ebf2" d="M6,5.5C5.725,5.5,5.5,5.276,5.5,5V2c0-0.276,0.225-0.5,0.5-0.5h5c0.275,0,0.5,0.224,0.5,0.5v3 c0,0.276-0.225,0.5-0.5,0.5H6z"></path><path fill="#66798f" d="M11,2v3H6V2H11 M11,1H6C5.448,1,5,1.448,5,2v3c0,0.552,0.448,1,1,1h5c0.552,0,1-0.448,1-1V2 C12,1.448,11.552,1,11,1L11,1z"></path><path fill="#c2e8ff" d="M5 10H11V11H5zM5 12H11V13H5z"></path><path fill="#788b9c" d="M9 3H10V5H9z"></path></svg>