<?xml version="1.0" encoding="utf-8"?>
<!-- Generator: Adobe Illustrator 22.1.0, SVG Export Plug-In . SVG Version: 6.00 Build 0)  -->
<svg version="1.2" baseProfile="tiny" id="katman_1"
	 xmlns="http://www.w3.org/2000/svg" xmlns:xlink="http://www.w3.org/1999/xlink" x="0px" y="0px" viewBox="0 0 16 16"
	 xml:space="preserve">
<path fill="#B53838" d="M13.7,2.3C12.2,0.9,10.2,0,8,0v8L13.7,2.3z"/>
<path fill="#B86E3E" d="M16,8c0-2-0.8-4.1-2.3-5.7L8,8H16z"/>
<path fill="#B88F28" d="M13.7,13.7C15.1,12.2,16,10.2,16,8H8L13.7,13.7z"/>
<path fill="#51966C" d="M8,16c2,0,4.1-0.8,5.7-2.3L8,8V16z"/>
<path fill="#5682BA" d="M2.3,13.7C3.8,15.1,5.8,16,8,16V8L2.3,13.7z"/>
<path fill="#4965A8" d="M0,8c0,2,0.8,4.1,2.3,5.7L8,8H0z"/>
<path fill="#7E5D9E" d="M2.3,2.3C0.9,3.8,0,5.8,0,8h8L2.3,2.3z"/>
<path fill="#914683" d="M8,0C6,0,3.9,0.8,2.3,2.3L8,8V0z"/>
<path fill="#EB6060" d="M12.9,3c-1.3-1.3-3-2-4.9-2v7L12.9,3z"/>
<path fill="#F08A48" d="M15,8c0-1.8-0.7-3.6-2.1-4.9L8,8H15z"/>
<path fill="#FFDF59" d="M12.9,12.9c1.3-1.3,2.1-3,2.1-4.9H8L12.9,12.9z"/>
<path fill="#76D67D" d="M8,15c1.8,0,3.6-0.7,4.9-2.1L8,8V15z"/>
<path fill="#669FED" d="M3,12.9C4.3,14.2,6.1,15,8,15V8L3,12.9z"/>
<path fill="#6F85E8" d="M1,8c0,1.8,0.7,3.6,2,4.9L8,8H1z"/>
<path fill="#B05DE3" d="M3,3C1.8,4.3,1,6.1,1,8h7L3,3z"/>
<path fill="#DC5DE3" d="M8,1C6.2,1,4.4,1.7,3,3L8,8V1z"/>
<path fill="#48474C" d="M12,15.8l-0.3-1.1l-0.1,0c-0.5-0.1-0.9-0.4-1.2-0.7l-0.1-0.1l-1,0.3l-0.3-0.5l0.8-0.8l0-0.1
	c-0.1-0.2-0.1-0.5-0.1-0.7s0-0.5,0.1-0.7l0-0.1l-0.8-0.8l0.3-0.5l1,0.3l0.1-0.1c0.3-0.3,0.8-0.6,1.2-0.7l0.1,0L12,8.2h0.6l0.3,1.1
	l0.1,0c0.5,0.1,0.9,0.4,1.2,0.7l0.1,0.1l1-0.3l0.3,0.5l-0.8,0.8l0,0.1C15,11.5,15,11.8,15,12s0,0.5-0.1,0.7l0,0.1l0.8,0.8l-0.3,0.5
	l-1-0.3l-0.1,0.1c-0.3,0.3-0.8,0.6-1.2,0.7l-0.1,0l-0.3,1.1H12z M12.3,10.8c-0.7,0-1.2,0.6-1.2,1.2s0.6,1.2,1.2,1.2s1.2-0.6,1.2-1.2
	S13,10.8,12.3,10.8z"/>
<path fill="#3A3A3A" d="M12.4,8.5l0.2,0.7l0.1,0.3l0.3,0.1c0.4,0.1,0.8,0.3,1.1,0.6l0.2,0.2l0.3-0.1l0.7-0.2l0.1,0.2l-0.5,0.5
	l-0.2,0.2l0.1,0.3c0.1,0.2,0.1,0.4,0.1,0.6s0,0.4-0.1,0.6l-0.1,0.3l0.2,0.2l0.5,0.5l-0.1,0.2l-0.7-0.2l-0.3-0.1l-0.2,0.2
	c-0.3,0.3-0.7,0.5-1.1,0.6l-0.3,0.1l-0.1,0.3l-0.2,0.7h-0.2L12,14.8l-0.1-0.3l-0.3-0.1c-0.4-0.1-0.8-0.3-1.1-0.6l-0.2-0.2L10,13.6
	l-0.7,0.2l-0.1-0.2l0.5-0.5l0.2-0.2l-0.1-0.3c-0.1-0.2-0.1-0.4-0.1-0.6s0-0.4,0.1-0.6l0.1-0.3l-0.2-0.2l-0.5-0.5l0.1-0.2l0.7,0.2
	l0.3,0.1l0.2-0.2c0.3-0.3,0.7-0.5,1.1-0.6l0.3-0.1L12,9.2l0.2-0.7H12.4 M12.3,13.5c0.8,0,1.5-0.7,1.5-1.5s-0.7-1.5-1.5-1.5
	s-1.5,0.7-1.5,1.5S11.5,13.5,12.3,13.5 M12.8,8h-1l-0.3,1.1c-0.5,0.1-1,0.4-1.3,0.8L9.1,9.6l-0.5,0.9l0.8,0.8
	c-0.1,0.2-0.1,0.5-0.1,0.8c0,0.3,0,0.5,0.1,0.8l-0.8,0.8l0.5,0.9l1.1-0.3c0.4,0.4,0.8,0.6,1.3,0.8l0.3,1.1h1l0.3-1.1
	c0.5-0.1,1-0.4,1.3-0.8l1.1,0.3l0.5-0.9l-0.8-0.8c0.1-0.2,0.1-0.5,0.1-0.8c0-0.3,0-0.5-0.1-0.8l0.8-0.8l-0.5-0.9l-1.1,0.3
	c-0.4-0.4-0.8-0.6-1.3-0.8L12.8,8L12.8,8z M12.3,13c-0.6,0-1-0.4-1-1s0.4-1,1-1s1,0.4,1,1S12.8,13,12.3,13L12.3,13z"/>
</svg>
