<svg xmlns="http://www.w3.org/2000/svg" viewBox="0 0 80 80"><path d="M 12 10 C 11.449219 10 11 10.449219 11 11 C 11 11.550781 11.449219 12 12 12 C 12.550781 12 13 11.550781 13 11 C 13 10.449219 12.550781 10 12 10 Z M 16 10 C 15.449219 10 15 10.449219 15 11 C 15 11.550781 15.449219 12 16 12 C 16.550781 12 17 11.550781 17 11 C 17 10.449219 16.550781 10 16 10 Z M 20 10 C 19.449219 10 19 10.449219 19 11 C 19 11.550781 19.449219 12 20 12 C 20.550781 12 21 11.550781 21 11 C 21 10.449219 20.550781 10 20 10 Z M 24 10 C 23.449219 10 23 10.449219 23 11 C 23 11.550781 23.449219 12 24 12 C 24.550781 12 25 11.550781 25 11 C 25 10.449219 24.550781 10 24 10 Z M 28 10 C 27.449219 10 27 10.449219 27 11 C 27 11.550781 27.449219 12 28 12 C 28.550781 12 29 11.550781 29 11 C 29 10.449219 28.550781 10 28 10 Z M 32 10 C 31.449219 10 31 10.449219 31 11 C 31 11.550781 31.449219 12 32 12 C 32.550781 12 33 11.550781 33 11 C 33 10.449219 32.550781 10 32 10 Z M 36 10 C 35.449219 10 35 10.449219 35 11 C 35 11.550781 35.449219 12 36 12 C 36.550781 12 37 11.550781 37 11 C 37 10.449219 36.550781 10 36 10 Z M 40 10 C 39.449219 10 39 10.449219 39 11 C 39 11.550781 39.449219 12 40 12 C 40.550781 12 41 11.550781 41 11 C 41 10.449219 40.550781 10 40 10 Z M 44 10 C 43.449219 10 43 10.449219 43 11 C 43 11.550781 43.449219 12 44 12 C 44.550781 12 45 11.550781 45 11 C 45 10.449219 44.550781 10 44 10 Z M 48 10 C 47.449219 10 47 10.449219 47 11 C 47 11.550781 47.449219 12 48 12 C 48.550781 12 49 11.550781 49 11 C 49 10.449219 48.550781 10 48 10 Z M 52 10 C 51.449219 10 51 10.449219 51 11 C 51 11.550781 51.449219 12 52 12 C 52.550781 12 53 11.550781 53 11 C 53 10.449219 52.550781 10 52 10 Z M 56 10 C 55.449219 10 55 10.449219 55 11 C 55 11.550781 55.449219 12 56 12 C 56.550781 12 57 11.550781 57 11 C 57 10.449219 56.550781 10 56 10 Z M 60 10 C 59.449219 10 59 10.449219 59 11 C 59 11.550781 59.449219 12 60 12 C 60.550781 12 61 11.550781 61 11 C 61 10.449219 60.550781 10 60 10 Z M 64 10 C 63.449219 10 63 10.449219 63 11 C 63 11.550781 63.449219 12 64 12 C 64.550781 12 65 11.550781 65 11 C 65 10.449219 64.550781 10 64 10 Z M 68 10 C 67.449219 10 67 10.449219 67 11 C 67 11.550781 67.449219 12 68 12 C 68.550781 12 69 11.550781 69 11 C 69 10.449219 68.550781 10 68 10 Z M 12 14 C 11.449219 14 11 14.449219 11 15 C 11 15.550781 11.449219 16 12 16 C 12.550781 16 13 15.550781 13 15 C 13 14.449219 12.550781 14 12 14 Z M 68 14 C 67.449219 14 67 14.449219 67 15 C 67 15.550781 67.449219 16 68 16 C 68.550781 16 69 15.550781 69 15 C 69 14.449219 68.550781 14 68 14 Z M 12 18 C 11.449219 18 11 18.449219 11 19 C 11 19.550781 11.449219 20 12 20 C 12.550781 20 13 19.550781 13 19 C 13 18.449219 12.550781 18 12 18 Z M 68 18 C 67.449219 18 67 18.449219 67 19 C 67 19.550781 67.449219 20 68 20 C 68.550781 20 69 19.550781 69 19 C 69 18.449219 68.550781 18 68 18 Z M 12 22 C 11.449219 22 11 22.449219 11 23 C 11 23.550781 11.449219 24 12 24 C 12.550781 24 13 23.550781 13 23 C 13 22.449219 12.550781 22 12 22 Z M 68 22 C 67.449219 22 67 22.449219 67 23 C 67 23.550781 67.449219 24 68 24 C 68.550781 24 69 23.550781 69 23 C 69 22.449219 68.550781 22 68 22 Z M 12 26 C 11.449219 26 11 26.449219 11 27 C 11 27.550781 11.449219 28 12 28 C 12.550781 28 13 27.550781 13 27 C 13 26.449219 12.550781 26 12 26 Z M 68 26 C 67.449219 26 67 26.449219 67 27 C 67 27.550781 67.449219 28 68 28 C 68.550781 28 69 27.550781 69 27 C 69 26.449219 68.550781 26 68 26 Z M 23 27 L 23 29 L 57 29 L 57 27 Z M 12 30 C 11.449219 30 11 30.449219 11 31 C 11 31.550781 11.449219 32 12 32 C 12.550781 32 13 31.550781 13 31 C 13 30.449219 12.550781 30 12 30 Z M 68 30 C 67.449219 30 67 30.449219 67 31 C 67 31.550781 67.449219 32 68 32 C 68.550781 32 69 31.550781 69 31 C 69 30.449219 68.550781 30 68 30 Z M 12 34 C 11.449219 34 11 34.449219 11 35 C 11 35.550781 11.449219 36 12 36 C 12.550781 36 13 35.550781 13 35 C 13 34.449219 12.550781 34 12 34 Z M 68 34 C 67.449219 34 67 34.449219 67 35 C 67 35.550781 67.449219 36 68 36 C 68.550781 36 69 35.550781 69 35 C 69 34.449219 68.550781 34 68 34 Z M 23 35 L 23 37 L 49 37 L 49 35 Z M 12 38 C 11.449219 38 11 38.449219 11 39 C 11 39.550781 11.449219 40 12 40 C 12.550781 40 13 39.550781 13 39 C 13 38.449219 12.550781 38 12 38 Z M 68 38 C 67.449219 38 67 38.449219 67 39 C 67 39.550781 67.449219 40 68 40 C 68.550781 40 69 39.550781 69 39 C 69 38.449219 68.550781 38 68 38 Z M 12 42 C 11.449219 42 11 42.449219 11 43 C 11 43.550781 11.449219 44 12 44 C 12.550781 44 13 43.550781 13 43 C 13 42.449219 12.550781 42 12 42 Z M 68 42 C 67.449219 42 67 42.449219 67 43 C 67 43.550781 67.449219 44 68 44 C 68.550781 44 69 43.550781 69 43 C 69 42.449219 68.550781 42 68 42 Z M 23 43 L 23 45 L 57 45 L 57 43 Z M 12 46 C 11.449219 46 11 46.449219 11 47 C 11 47.550781 11.449219 48 12 48 C 12.550781 48 13 47.550781 13 47 C 13 46.449219 12.550781 46 12 46 Z M 68 46 C 67.449219 46 67 46.449219 67 47 C 67 47.550781 67.449219 48 68 48 C 68.550781 48 69 47.550781 69 47 C 69 46.449219 68.550781 46 68 46 Z M 12 50 C 11.449219 50 11 50.449219 11 51 C 11 51.550781 11.449219 52 12 52 C 12.550781 52 13 51.550781 13 51 C 13 50.449219 12.550781 50 12 50 Z M 68 50 C 67.449219 50 67 50.449219 67 51 C 67 51.550781 67.449219 52 68 52 C 68.550781 52 69 51.550781 69 51 C 69 50.449219 68.550781 50 68 50 Z M 23 51 L 23 53 L 49 53 L 49 51 Z M 12 54 C 11.449219 54 11 54.449219 11 55 C 11 55.550781 11.449219 56 12 56 C 12.550781 56 13 55.550781 13 55 C 13 54.449219 12.550781 54 12 54 Z M 68 54 C 67.449219 54 67 54.449219 67 55 C 67 55.550781 67.449219 56 68 56 C 68.550781 56 69 55.550781 69 55 C 69 54.449219 68.550781 54 68 54 Z M 12 58 C 11.449219 58 11 58.449219 11 59 C 11 59.550781 11.449219 60 12 60 C 12.550781 60 13 59.550781 13 59 C 13 58.449219 12.550781 58 12 58 Z M 68 58 C 67.449219 58 67 58.449219 67 59 C 67 59.550781 67.449219 60 68 60 C 68.550781 60 69 59.550781 69 59 C 69 58.449219 68.550781 58 68 58 Z M 12 62 C 11.449219 62 11 62.449219 11 63 C 11 63.550781 11.449219 64 12 64 C 12.550781 64 13 63.550781 13 63 C 13 62.449219 12.550781 62 12 62 Z M 68 62 C 67.449219 62 67 62.449219 67 63 C 67 63.550781 67.449219 64 68 64 C 68.550781 64 69 63.550781 69 63 C 69 62.449219 68.550781 62 68 62 Z M 12 66 C 11.449219 66 11 66.449219 11 67 C 11 67.550781 11.449219 68 12 68 C 12.550781 68 13 67.550781 13 67 C 13 66.449219 12.550781 66 12 66 Z M 16 66 C 15.449219 66 15 66.449219 15 67 C 15 67.550781 15.449219 68 16 68 C 16.550781 68 17 67.550781 17 67 C 17 66.449219 16.550781 66 16 66 Z M 20 66 C 19.449219 66 19 66.449219 19 67 C 19 67.550781 19.449219 68 20 68 C 20.550781 68 21 67.550781 21 67 C 21 66.449219 20.550781 66 20 66 Z M 24 66 C 23.449219 66 23 66.449219 23 67 C 23 67.550781 23.449219 68 24 68 C 24.550781 68 25 67.550781 25 67 C 25 66.449219 24.550781 66 24 66 Z M 28 66 C 27.449219 66 27 66.449219 27 67 C 27 67.550781 27.449219 68 28 68 C 28.550781 68 29 67.550781 29 67 C 29 66.449219 28.550781 66 28 66 Z M 32 66 C 31.449219 66 31 66.449219 31 67 C 31 67.550781 31.449219 68 32 68 C 32.550781 68 33 67.550781 33 67 C 33 66.449219 32.550781 66 32 66 Z M 36 66 C 35.449219 66 35 66.449219 35 67 C 35 67.550781 35.449219 68 36 68 C 36.550781 68 37 67.550781 37 67 C 37 66.449219 36.550781 66 36 66 Z M 40 66 C 39.449219 66 39 66.449219 39 67 C 39 67.550781 39.449219 68 40 68 C 40.550781 68 41 67.550781 41 67 C 41 66.449219 40.550781 66 40 66 Z M 44 66 C 43.449219 66 43 66.449219 43 67 C 43 67.550781 43.449219 68 44 68 C 44.550781 68 45 67.550781 45 67 C 45 66.449219 44.550781 66 44 66 Z M 48 66 C 47.449219 66 47 66.449219 47 67 C 47 67.550781 47.449219 68 48 68 C 48.550781 68 49 67.550781 49 67 C 49 66.449219 48.550781 66 48 66 Z M 52 66 C 51.449219 66 51 66.449219 51 67 C 51 67.550781 51.449219 68 52 68 C 52.550781 68 53 67.550781 53 67 C 53 66.449219 52.550781 66 52 66 Z M 56 66 C 55.449219 66 55 66.449219 55 67 C 55 67.550781 55.449219 68 56 68 C 56.550781 68 57 67.550781 57 67 C 57 66.449219 56.550781 66 56 66 Z M 60 66 C 59.449219 66 59 66.449219 59 67 C 59 67.550781 59.449219 68 60 68 C 60.550781 68 61 67.550781 61 67 C 61 66.449219 60.550781 66 60 66 Z M 64 66 C 63.449219 66 63 66.449219 63 67 C 63 67.550781 63.449219 68 64 68 C 64.550781 68 65 67.550781 65 67 C 65 66.449219 64.550781 66 64 66 Z M 68 66 C 67.449219 66 67 66.449219 67 67 C 67 67.550781 67.449219 68 68 68 C 68.550781 68 69 67.550781 69 67 C 69 66.449219 68.550781 66 68 66 Z"></path></svg>