<svg xmlns="http://www.w3.org/2000/svg" viewBox="0 0 80 80"><path d="M 10 10 L 10 35 L 23 35 L 23 57 L 45 57 L 45 70 L 70 70 L 70 45 L 57 45 L 57 23 L 35 23 L 35 10 Z M 13 12 L 17 12 C 17 12.550781 17.449219 13 18 13 C 18.550781 13 19 12.550781 19 12 L 23 12 C 23 12.550781 23.449219 13 24 13 C 24.550781 13 25 12.550781 25 12 L 29 12 C 29 12.550781 29.449219 13 30 13 C 30.550781 13 31 12.550781 31 12 L 33 12 L 33 14 C 32.449219 14 32 14.449219 32 15 C 32 15.550781 32.449219 16 33 16 L 33 20 C 32.449219 20 32 20.449219 32 21 C 32 21.550781 32.449219 22 33 22 L 33 26 C 32.449219 26 32 26.449219 32 27 C 32 27.550781 32.449219 28 33 28 L 33 32 C 32.449219 32 32 32.449219 32 33 L 28 33 C 28 32.449219 27.550781 32 27 32 C 26.449219 32 26 32.449219 26 33 L 22 33 C 22 32.449219 21.550781 32 21 32 C 20.449219 32 20 32.449219 20 33 L 16 33 C 16 32.449219 15.550781 32 15 32 C 14.449219 32 14 32.449219 14 33 L 12 33 L 12 31 C 12.550781 31 13 30.550781 13 30 C 13 29.449219 12.550781 29 12 29 L 12 25 C 12.550781 25 13 24.550781 13 24 C 13 23.449219 12.550781 23 12 23 L 12 19 C 12.550781 19 13 18.550781 13 18 C 13 17.449219 12.550781 17 12 17 L 12 13 C 12.550781 13 13 12.550781 13 12 Z M 15 14 C 14.449219 14 14 14.449219 14 15 C 14 15.550781 14.449219 16 15 16 C 15.550781 16 16 15.550781 16 15 C 16 14.449219 15.550781 14 15 14 Z M 21 14 C 20.449219 14 20 14.449219 20 15 C 20 15.550781 20.449219 16 21 16 C 21.550781 16 22 15.550781 22 15 C 22 14.449219 21.550781 14 21 14 Z M 27 14 C 26.449219 14 26 14.449219 26 15 C 26 15.550781 26.449219 16 27 16 C 27.550781 16 28 15.550781 28 15 C 28 14.449219 27.550781 14 27 14 Z M 18 17 C 17.449219 17 17 17.449219 17 18 C 17 18.550781 17.449219 19 18 19 C 18.550781 19 19 18.550781 19 18 C 19 17.449219 18.550781 17 18 17 Z M 24 17 C 23.449219 17 23 17.449219 23 18 C 23 18.550781 23.449219 19 24 19 C 24.550781 19 25 18.550781 25 18 C 25 17.449219 24.550781 17 24 17 Z M 30 17 C 29.449219 17 29 17.449219 29 18 C 29 18.550781 29.449219 19 30 19 C 30.550781 19 31 18.550781 31 18 C 31 17.449219 30.550781 17 30 17 Z M 15 20 C 14.449219 20 14 20.449219 14 21 C 14 21.550781 14.449219 22 15 22 C 15.550781 22 16 21.550781 16 21 C 16 20.449219 15.550781 20 15 20 Z M 21 20 C 20.449219 20 20 20.449219 20 21 C 20 21.550781 20.449219 22 21 22 C 21.550781 22 22 21.550781 22 21 C 22 20.449219 21.550781 20 21 20 Z M 27 20 C 26.449219 20 26 20.449219 26 21 C 26 21.550781 26.449219 22 27 22 C 27.550781 22 28 21.550781 28 21 C 28 20.449219 27.550781 20 27 20 Z M 18 23 C 17.449219 23 17 23.449219 17 24 C 17 24.550781 17.449219 25 18 25 C 18.550781 25 19 24.550781 19 24 C 19 23.449219 18.550781 23 18 23 Z M 24 23 C 23.449219 23 23 23.449219 23 24 C 23 24.550781 23.449219 25 24 25 C 24.550781 25 25 24.550781 25 24 C 25 23.449219 24.550781 23 24 23 Z M 30 23 C 29.449219 23 29 23.449219 29 24 C 29 24.550781 29.449219 25 30 25 C 30.550781 25 31 24.550781 31 24 C 31 23.449219 30.550781 23 30 23 Z M 35 25 L 55 25 L 55 45 L 45 45 L 45 55 L 25 55 L 25 35 L 35 35 Z M 15 26 C 14.449219 26 14 26.449219 14 27 C 14 27.550781 14.449219 28 15 28 C 15.550781 28 16 27.550781 16 27 C 16 26.449219 15.550781 26 15 26 Z M 21 26 C 20.449219 26 20 26.449219 20 27 C 20 27.550781 20.449219 28 21 28 C 21.550781 28 22 27.550781 22 27 C 22 26.449219 21.550781 26 21 26 Z M 27 26 C 26.449219 26 26 26.449219 26 27 C 26 27.550781 26.449219 28 27 28 C 27.550781 28 28 27.550781 28 27 C 28 26.449219 27.550781 26 27 26 Z M 18 29 C 17.449219 29 17 29.449219 17 30 C 17 30.550781 17.449219 31 18 31 C 18.550781 31 19 30.550781 19 30 C 19 29.449219 18.550781 29 18 29 Z M 24 29 C 23.449219 29 23 29.449219 23 30 C 23 30.550781 23.449219 31 24 31 C 24.550781 31 25 30.550781 25 30 C 25 29.449219 24.550781 29 24 29 Z M 30 29 C 29.449219 29 29 29.449219 29 30 C 29 30.550781 29.449219 31 30 31 C 30.550781 31 31 30.550781 31 30 C 31 29.449219 30.550781 29 30 29 Z M 48 47 L 52 47 C 52 47.550781 52.449219 48 53 48 C 53.550781 48 54 47.550781 54 47 L 58 47 C 58 47.550781 58.449219 48 59 48 C 59.550781 48 60 47.550781 60 47 L 64 47 C 64 47.550781 64.449219 48 65 48 C 65.550781 48 66 47.550781 66 47 L 68 47 L 68 49 C 67.449219 49 67 49.449219 67 50 C 67 50.550781 67.449219 51 68 51 L 68 55 C 67.449219 55 67 55.449219 67 56 C 67 56.550781 67.449219 57 68 57 L 68 61 C 67.449219 61 67 61.449219 67 62 C 67 62.550781 67.449219 63 68 63 L 68 67 C 67.449219 67 67 67.449219 67 68 L 63 68 C 63 67.449219 62.550781 67 62 67 C 61.449219 67 61 67.449219 61 68 L 57 68 C 57 67.449219 56.550781 67 56 67 C 55.449219 67 55 67.449219 55 68 L 51 68 C 51 67.449219 50.550781 67 50 67 C 49.449219 67 49 67.449219 49 68 L 47 68 L 47 66 C 47.550781 66 48 65.550781 48 65 C 48 64.449219 47.550781 64 47 64 L 47 60 C 47.550781 60 48 59.550781 48 59 C 48 58.449219 47.550781 58 47 58 L 47 54 C 47.550781 54 48 53.550781 48 53 C 48 52.449219 47.550781 52 47 52 L 47 48 C 47.550781 48 48 47.550781 48 47 Z M 50 49 C 49.449219 49 49 49.449219 49 50 C 49 50.550781 49.449219 51 50 51 C 50.550781 51 51 50.550781 51 50 C 51 49.449219 50.550781 49 50 49 Z M 56 49 C 55.449219 49 55 49.449219 55 50 C 55 50.550781 55.449219 51 56 51 C 56.550781 51 57 50.550781 57 50 C 57 49.449219 56.550781 49 56 49 Z M 62 49 C 61.449219 49 61 49.449219 61 50 C 61 50.550781 61.449219 51 62 51 C 62.550781 51 63 50.550781 63 50 C 63 49.449219 62.550781 49 62 49 Z M 53 52 C 52.449219 52 52 52.449219 52 53 C 52 53.550781 52.449219 54 53 54 C 53.550781 54 54 53.550781 54 53 C 54 52.449219 53.550781 52 53 52 Z M 59 52 C 58.449219 52 58 52.449219 58 53 C 58 53.550781 58.449219 54 59 54 C 59.550781 54 60 53.550781 60 53 C 60 52.449219 59.550781 52 59 52 Z M 65 52 C 64.449219 52 64 52.449219 64 53 C 64 53.550781 64.449219 54 65 54 C 65.550781 54 66 53.550781 66 53 C 66 52.449219 65.550781 52 65 52 Z M 50 55 C 49.449219 55 49 55.449219 49 56 C 49 56.550781 49.449219 57 50 57 C 50.550781 57 51 56.550781 51 56 C 51 55.449219 50.550781 55 50 55 Z M 56 55 C 55.449219 55 55 55.449219 55 56 C 55 56.550781 55.449219 57 56 57 C 56.550781 57 57 56.550781 57 56 C 57 55.449219 56.550781 55 56 55 Z M 62 55 C 61.449219 55 61 55.449219 61 56 C 61 56.550781 61.449219 57 62 57 C 62.550781 57 63 56.550781 63 56 C 63 55.449219 62.550781 55 62 55 Z M 53 58 C 52.449219 58 52 58.449219 52 59 C 52 59.550781 52.449219 60 53 60 C 53.550781 60 54 59.550781 54 59 C 54 58.449219 53.550781 58 53 58 Z M 59 58 C 58.449219 58 58 58.449219 58 59 C 58 59.550781 58.449219 60 59 60 C 59.550781 60 60 59.550781 60 59 C 60 58.449219 59.550781 58 59 58 Z M 65 58 C 64.449219 58 64 58.449219 64 59 C 64 59.550781 64.449219 60 65 60 C 65.550781 60 66 59.550781 66 59 C 66 58.449219 65.550781 58 65 58 Z M 50 61 C 49.449219 61 49 61.449219 49 62 C 49 62.550781 49.449219 63 50 63 C 50.550781 63 51 62.550781 51 62 C 51 61.449219 50.550781 61 50 61 Z M 56 61 C 55.449219 61 55 61.449219 55 62 C 55 62.550781 55.449219 63 56 63 C 56.550781 63 57 62.550781 57 62 C 57 61.449219 56.550781 61 56 61 Z M 62 61 C 61.449219 61 61 61.449219 61 62 C 61 62.550781 61.449219 63 62 63 C 62.550781 63 63 62.550781 63 62 C 63 61.449219 62.550781 61 62 61 Z M 53 64 C 52.449219 64 52 64.449219 52 65 C 52 65.550781 52.449219 66 53 66 C 53.550781 66 54 65.550781 54 65 C 54 64.449219 53.550781 64 53 64 Z M 59 64 C 58.449219 64 58 64.449219 58 65 C 58 65.550781 58.449219 66 59 66 C 59.550781 66 60 65.550781 60 65 C 60 64.449219 59.550781 64 59 64 Z M 65 64 C 64.449219 64 64 64.449219 64 65 C 64 65.550781 64.449219 66 65 66 C 65.550781 66 66 65.550781 66 65 C 66 64.449219 65.550781 64 65 64 Z"></path></svg>