<svg xmlns="http://www.w3.org/2000/svg" viewBox="0 0 16 16"><path fill="#f2faff" d="M0.5 0.5H15.5V15.5H0.5z"></path><path fill="#788b9c" d="M15,1v14H1V1H15 M16,0H0v16h16V0L16,0z"></path><path fill="#f2faff" d="M12 0H13V16H12zM3 0H4V16H3zM6 0H7V16H6zM9 0H10V16H9z"></path><path fill="#f2faff" d="M0 12H16V13H0zM0 3H16V4H0zM0 6H16V7H0zM0 9H16V10H0z"></path><path fill="#4e7ab5" d="M11 9L7 5 11 5z"></path><path fill="#4e7ab5" d="M4.4 7.5H11.5V8.5H4.4z" transform="rotate(-45.001 7.958 8.042)"></path><g><path fill="#8bb7f0" d="M0.5 10.5H5.5V15.5H0.5z"></path><path fill="#4e7ab5" d="M5,11v4H1v-4H5 M6,10H0v6h6V10L6,10z"></path></g></svg>