<?xml version="1.0" encoding="utf-8"?>
<!-- Generator: Adobe Illustrator 22.1.0, SVG Export Plug-In . SVG Version: 6.00 Build 0)  -->
<svg version="1.2" baseProfile="tiny" id="katman_1"
	 xmlns="http://www.w3.org/2000/svg" xmlns:xlink="http://www.w3.org/1999/xlink" x="0px" y="0px" viewBox="0 0 16 16"
	 xml:space="preserve">
<path fill="#BAE0BD" d="M0.5,0.5h11v10h-11V0.5z"/>
<path fill="#5E9C76" d="M11,1v9H1V1H11 M12,0H0v11h12V0L12,0z"/>
<path fill="#5E9C76" d="M2,4h3v4H2V4z M7,4h3v4H7V4z M0,0h12v2H0V0z"/>
<path fill="#C2E8FF" d="M4.5,5.5h11v10h-11V5.5z"/>
<path fill="#7496C4" d="M15,6v9H5V6H15 M16,5H4v11h12V5L16,5z"/>
<path fill="#8BB7F0" d="M6,9h3v4H6V9z"/>
<g>
	<path fill="#8BB7F0" d="M11,9h3v4h-3V9z"/>
</g>
<g>
	<path fill="#8BB7F0" d="M5,6h10v1H5V6z"/>
</g>
<path fill="#48474C" d="M12,15.8l-0.3-1.1l-0.1,0c-0.5-0.1-0.9-0.4-1.2-0.7l-0.1-0.1l-1,0.3l-0.3-0.5l0.8-0.8l0-0.1
	c-0.1-0.2-0.1-0.5-0.1-0.7s0-0.5,0.1-0.7l0-0.1l-0.8-0.8l0.3-0.5l1,0.3l0.1-0.1c0.3-0.3,0.8-0.6,1.2-0.7l0.1,0L12,8.2h0.6l0.3,1.1
	l0.1,0c0.5,0.1,0.9,0.4,1.2,0.7l0.1,0.1l1-0.3l0.3,0.5l-0.8,0.8l0,0.1C15,11.5,15,11.8,15,12s0,0.5-0.1,0.7l0,0.1l0.8,0.8l-0.3,0.5
	l-1-0.3l-0.1,0.1c-0.3,0.3-0.8,0.6-1.2,0.7l-0.1,0l-0.3,1.1H12z M12.3,10.8c-0.7,0-1.2,0.6-1.2,1.2s0.6,1.2,1.2,1.2s1.2-0.6,1.2-1.2
	S13,10.8,12.3,10.8z"/>
<path fill="#3A3A3A" d="M12.4,8.5l0.2,0.7l0.1,0.3l0.3,0.1c0.4,0.1,0.8,0.3,1.1,0.6l0.2,0.2l0.3-0.1l0.7-0.2l0.1,0.2l-0.5,0.5
	l-0.2,0.2l0.1,0.3c0.1,0.2,0.1,0.4,0.1,0.6s0,0.4-0.1,0.6l-0.1,0.3l0.2,0.2l0.5,0.5l-0.1,0.2l-0.7-0.2l-0.3-0.1l-0.2,0.2
	c-0.3,0.3-0.7,0.5-1.1,0.6l-0.3,0.1l-0.1,0.3l-0.2,0.7h-0.2L12,14.8l-0.1-0.3l-0.3-0.1c-0.4-0.1-0.8-0.3-1.1-0.6l-0.2-0.2L10,13.6
	l-0.7,0.2l-0.1-0.2l0.5-0.5l0.2-0.2l-0.1-0.3c-0.1-0.2-0.1-0.4-0.1-0.6s0-0.4,0.1-0.6l0.1-0.3l-0.2-0.2l-0.5-0.5l0.1-0.2l0.7,0.2
	l0.3,0.1l0.2-0.2c0.3-0.3,0.7-0.5,1.1-0.6l0.3-0.1L12,9.2l0.2-0.7H12.4 M12.3,13.5c0.8,0,1.5-0.7,1.5-1.5s-0.7-1.5-1.5-1.5
	c-0.8,0-1.5,0.7-1.5,1.5S11.5,13.5,12.3,13.5 M12.8,8h-1l-0.3,1.1c-0.5,0.1-1,0.4-1.3,0.8L9.1,9.6l-0.5,0.9l0.8,0.8
	c-0.1,0.2-0.1,0.5-0.1,0.8c0,0.3,0,0.5,0.1,0.8l-0.8,0.8l0.5,0.9l1.1-0.3c0.4,0.4,0.8,0.6,1.3,0.8l0.3,1.1h1l0.3-1.1
	c0.5-0.1,1-0.4,1.3-0.8l1.1,0.3l0.5-0.9l-0.8-0.8c0.1-0.2,0.1-0.5,0.1-0.8c0-0.3,0-0.5-0.1-0.8l0.8-0.8l-0.5-0.9l-1.1,0.3
	c-0.4-0.4-0.8-0.6-1.3-0.8L12.8,8L12.8,8z M12.3,13c-0.6,0-1-0.4-1-1s0.4-1,1-1s1,0.4,1,1S12.8,13,12.3,13L12.3,13z"/>
</svg>
