<?xml version="1.0" encoding="utf-8"?>
<!-- Generator: Adobe Illustrator 22.1.0, SVG Export Plug-In . SVG Version: 6.00 Build 0)  -->
<svg version="1.1" id="katman_1" xmlns="http://www.w3.org/2000/svg" xmlns:xlink="http://www.w3.org/1999/xlink" x="0px" y="0px"
	 viewBox="0 0 16 16" style="enable-background:new 0 0 16 16;" xml:space="preserve">
<style type="text/css">
	.st0{fill:#8BB7F0;}
	.st1{fill:#4E7AB5;}
</style>
<path class="st0" d="M2.5,14.5v-2H11c1.4,0,2.5-2.1,2.5-3.5S12.4,5.5,11,5.5H4.5v2.4L0.7,4.5l3.8-3.4v2.4H11c2.5,0,4.5,3,4.5,5.5
	s-2,5.5-4.5,5.5H2.5z"/>
<path class="st1" d="M4,2.2V3v1h1h6c2.2,0,4,2.8,4,5s-1.8,5-4,5H3v-1h8c1.8-0.2,3-2.3,3-4s-1.1-3.8-3-4H5H4v1v0.8L1.5,4.5L4,2.2
	 M5,0L0,4.5L5,9V6h6c1.4,0.4,2,1.9,2,3s-0.6,2.6-2,3H2v3h9c2.8,0,5-3.2,5-6s-2.2-6-5-6H5V0L5,0z"/>
</svg>
