<svg xmlns="http://www.w3.org/2000/svg" viewBox="0 0 16 16"><path fill="#a3b7cc" d="M1 15.8L0 16 0.2 15 7.6 7.6 8.4 8.4z"></path><path fill="#e87070" d="M7.1,6.4c1.9-1,3.1-2.2,4-4l2.4,2.4c-2,0.9-3.2,2.1-4.1,4L7.1,6.4z"></path><path fill="#c74343" d="M11.3,3.2l1.4,1.4C11.2,5.5,10.2,6.5,9.4,8L8,6.6C9.4,5.7,10.5,4.7,11.3,3.2 M11,1.5 C10,4,8.6,5.2,6.3,6.3l3.4,3.4C10.6,7.4,11.8,6,14.5,5L11,1.5L11,1.5z"></path><path fill="#c74343" d="M11.2,0l-0.9,0.9c-0.4,0.4-0.4,1.2,0,1.6l3.1,3.1c0.4,0.4,1.2,0.4,1.6,0L16,4.8L11.2,0z"></path><path fill="#f78f8f" d="M3.7,6.4l0.4-0.4c0.4-0.4,0.9-0.6,1.4-0.6s1,0.2,1.4,0.6l3,3c0.8,0.8,0.8,2,0,2.8l-0.4,0.4L3.7,6.4z"></path><path fill="#c74343" d="M5.5,6c0.4,0,0.8,0.2,1.1,0.4l3,3c0.6,0.6,0.6,1.5,0,2.1l0,0L4.4,6.4C4.7,6.2,5.1,6,5.5,6 M5.5,5 C4.8,5,4.2,5.2,3.7,5.7L3,6.4L9.6,13l0.7-0.7c1-1,1-2.6,0-3.5l-3-3C6.8,5.2,6.1,5,5.5,5L5.5,5z"></path><path fill="#36404d" d="M7.5 -1.9H8.5V17.900000000000002H7.5z" transform="rotate(-45.001 8 8)"></path></svg>