<?xml version="1.0" encoding="utf-8"?>
<!-- Generator: Adobe Illustrator 22.1.0, SVG Export Plug-In . SVG Version: 6.00 Build 0)  -->
<svg version="1.2" baseProfile="tiny" id="katman_1"
	 xmlns="http://www.w3.org/2000/svg" xmlns:xlink="http://www.w3.org/1999/xlink" x="0px" y="0px" viewBox="0 0 16 16"
	 xml:space="preserve">
<path fill="#8EA1B2" d="M1,15.8L0,16l0.2-1l7.4-7.4l0.7,0.7L1,15.8z"/>
<path fill="#C3C2D3" d="M7.1,6.4c1.9-1,3.1-2.2,4-4l2.4,2.4c-2,0.9-3.2,2.1-4.1,4L7.1,6.4z"/>
<path fill="#8B75A1" d="M11.3,3.2l1.4,1.4C11.2,5.5,10.2,6.5,9.4,8L8,6.6C9.4,5.7,10.5,4.7,11.3,3.2 M11,1.5C10,4,8.6,5.2,6.3,6.3
	l3.4,3.4C10.6,7.4,11.8,6,14.5,5L11,1.5L11,1.5z"/>
<path fill="#8B75A1" d="M11.2,0l-0.9,0.9c-0.4,0.4-0.4,1.2,0,1.6l3.1,3.1C13.8,6,14.6,6,15,5.6l1-0.8L11.2,0z"/>
<g>
	<path fill="#DCD5F2" d="M3.7,6.4L4.1,6C4.5,5.6,5,5.4,5.5,5.4s1,0.2,1.4,0.6l3,3c0.8,0.8,0.8,2,0,2.8l-0.4,0.4L3.7,6.4z"/>
	<path fill="#8B75A1" d="M5.5,6c0.4,0,0.8,0.2,1.1,0.4l3,3c0.6,0.6,0.6,1.5,0,2.1l0,0L4.4,6.4C4.7,6.2,5.1,6,5.5,6 M5.5,5
		C4.8,5,4.2,5.2,3.7,5.7L3,6.4L9.6,13l0.7-0.7c1-1,1-2.6,0-3.5l-3-3C6.8,5.2,6.1,5,5.5,5L5.5,5z"/>
</g>
</svg>
