<svg xmlns="http://www.w3.org/2000/svg" viewBox="0 0 16 16"><path fill="#fff" d="M0.5 1.5H15.5V14.5H0.5z"></path><path fill="#788b9c" d="M15,2v12H1V2H15 M16,1H0v14h16V1L16,1z"></path><path fill="#788b9c" d="M0 1H16V3H0z"></path><path fill="#8bb7f0" d="M5 5H13V6H5zM3 5H4V6H3zM5 7H13V8H5zM3 7H4V8H3zM5 9H13V10H5zM3 9H4V10H3zM5 11H13V12H5zM3 11H4V12H3z"></path><path fill="#c8d1db" d="M16 15L16 6 15 6 15 14 6 14 6 15z"></path><path fill="#c2e8ff" d="M8 7H13V8H8zM8 9H13V10H8zM8 11H13V12H8z"></path><path fill="#b6ddd1" d="M10.5,15.5v-7h5v6.4c0,0.3-0.3,0.6-0.6,0.6H10.5z"></path><path fill="#5f9994" d="M15,9v5.9c0,0,0,0.1-0.1,0.1H11V9H15 M16,8h-6v8h4.9c0.6,0,1.1-0.5,1.1-1.1V8L16,8z"></path><g><path fill="#99c4b8" d="M9,15.5c-0.3,0-0.5-0.2-0.5-0.5v-0.5h5v1H9z"></path><path fill="#5f9994" d="M14,14H8v1c0,0.6,0.4,1,1,1h5V14L14,14z"></path></g></svg>