<?xml version="1.0" encoding="utf-8"?>
<!-- Generator: Adobe Illustrator 23.1.1, SVG Export Plug-In . SVG Version: 6.00 Build 0)  -->
<svg version="1.1" id="katman_1" xmlns="http://www.w3.org/2000/svg" xmlns:xlink="http://www.w3.org/1999/xlink" x="0px" y="0px"
	 viewBox="0 0 16 16" style="enable-background:new 0 0 16 16;" xml:space="preserve">
<style type="text/css">
	.st0{fill:#C3393D;}
	.st1{fill:#F28285;}
</style>
<g>
	<path class="st0" d="M13.78998,5.82996L12.72998,4l-1.14996-2H4.62L3.46002,4l-1.25,2.16998l-1.15002,2l1.15002,2L3.27002,12
		l1.14996,2H11.38l1.15997-2l1.25-2.17004l1.15002-2L13.78998,5.82996z M10.2265,12H5.57733l-2.2113-3.83014L5.7735,4h4.64917
		l2.2113,3.83008L10.2265,12z"/>
</g>
<g>
	<path class="st1" d="M10.42264,4l2.2113,3.83008L10.22647,12H5.5773L3.366,8.16986L5.77347,4H10.42264 M10.99999,3h-0.57735
		H5.77347H5.19612L4.90744,3.5L2.49997,7.66986l-0.28867,0.5l0.28867,0.49999l2.2113,3.83014L4.99995,13H5.5773h4.64917h0.57735
		l0.28868-0.50001l2.40747-4.16992l0.28867-0.49999l-0.28867-0.5L11.28867,3.5L10.99999,3L10.99999,3z"/>
</g>
<g>
	<path class="st0" d="M9.84529,5l1.63396,2.83009L9.64912,11H6.15466L4.5207,8.16987L6.35083,5H9.84529 M10.42264,4H5.77347
		L3.366,8.16986L5.5773,12h4.64917l2.40747-4.16992L10.42264,4L10.42264,4z"/>
</g>
<g>
</g>
<g>
</g>
<g>
</g>
<g>
</g>
<g>
</g>
<g>
</g>
</svg>
